<?xml version="1.0" encoding="iso-8859-1"?>
<!-- Generator: Adobe Illustrator 16.0.0, SVG Export Plug-In . SVG Version: 6.00 Build 0)  -->
<!DOCTYPE svg PUBLIC "-//W3C//DTD SVG 1.1//EN" "http://www.w3.org/Graphics/SVG/1.1/DTD/svg11.dtd">

<svg version="1.1" id="Capa_1" xmlns="http://www.w3.org/2000/svg" xmlns:xlink="http://www.w3.org/1999/xlink" x="0px" y="0px"
	 width="456.313px" height="456.312px" viewBox="0 0 456.313 456.312" style="enable-background:new 0 0 456.313 456.312;"
	 xml:space="preserve">
<g>
	<g>
		<path fill="white" d="M304.568,152.947c15.925,0,31.259,2.393,45.624,6.798c-19.398-64.432-83.436-111.724-159.45-111.724
			c-91.392,0-165.479,68.354-165.479,152.674c0,22.908,5.479,44.63,15.276,64.131L1.395,335.604
			c-2.174,3.933-1.781,8.784,0.997,12.315c2.151,2.733,5.407,4.262,8.779,4.262c0.983,0,1.977-0.131,2.956-0.398l85.688-23.52
			c21.87,13.297,47.365,21.916,74.818,24.365c-10.549-18.865-16.523-40.298-16.523-63.01
			C158.111,214.258,223.811,152.947,304.568,152.947z"/>
		<path fill="white" d="M455.248,394.715l-29.913-54.088c7.487-14.902,11.674-31.502,11.674-49.008c0-64.437-56.616-116.672-126.458-116.672
			c-69.841,0-126.458,52.236-126.458,116.672c0,64.436,56.617,116.672,126.458,116.672c25.667,0,49.545-7.062,69.485-19.186
			l65.482,17.973c0.748,0.206,1.507,0.305,2.259,0.305c2.576,0,5.063-1.168,6.708-3.258
			C456.609,401.428,456.909,397.721,455.248,394.715z"/>
	</g>
</g>
<g>
</g>
<g>
</g>
<g>
</g>
<g>
</g>
<g>
</g>
<g>
</g>
<g>
</g>
<g>
</g>
<g>
</g>
<g>
</g>
<g>
</g>
<g>
</g>
<g>
</g>
<g>
</g>
<g>
</g>
</svg>
