<?xml version="1.0" ?><svg style="enable-background:new 0 0 100 100;" version="1.1" viewBox="0 0 100 100" xml:space="preserve" xmlns="http://www.w3.org/2000/svg" xmlns:xlink="http://www.w3.org/1999/xlink"><style type="text/css">
	.st0{fill:#fff;}
	.st1{fill-rule:evenodd;clip-rule:evenodd;fill:#231F20;}
	.st2{fill-rule:evenodd;clip-rule:evenodd;}
</style>
<g id="Layer_3"/>
	<g id="Layer_1">
		<path class="st0" d="M61.6,20h-24c-1.6,0-2.9,1.3-2.9,2.9v23.8c0,1.6,1.3,2.9,2.9,2.9h11c-0.1,2.8-1.3,5.9-3,8.6   c-1.9,3.1-6,6.5-6.1,6.5c-0.3,0.3-0.6,0.7-0.6,1.2c0,0.4,0.2,0.7,0.4,1l7.7,8.6c0,0,0.4,0.4,0.7,0.5c0.3,0.1,0.7,0.1,1-0.1   c13.3-10.3,15.3-23.1,15.6-30.1c0,0,0-22.8,0-22.8C64.5,21.3,63.2,20,61.6,20" id="kakao_talk"/>
	</g>
</svg>
