<svg id="레이어_1" data-name="레이어 1" xmlns="http://www.w3.org/2000/svg" viewBox="0 0 297.42 100.35"><defs><style>.cls-1{stroke:#000;}</style></defs><path class="cls-1" d="M107.72,29.51h5a15.31,15.31,0,0,0,1.93.23,15.46,15.46,0,0,1,1.94.23.2.2,0,0,1,.14.05s.1,0,.23,0a7.74,7.74,0,0,1,2.21.33,20,20,0,0,0,2.21.5l1,.28c1,.31,2,.63,3,1l2.76,1a28.94,28.94,0,0,1,5.35,3,16.62,16.62,0,0,1,1.71,1.38,16.38,16.38,0,0,1,1.52,1.66,14.22,14.22,0,0,1,3,5.62l.18,1.2a1.58,1.58,0,0,0,.1.93,2.47,2.47,0,0,1,.18.92,4,4,0,0,1-.09.87c-.06.28-.13.54-.19.79a2.35,2.35,0,0,1,0,.92,9.45,9.45,0,0,1-.64,2.17q-.47,1.05-1,2.07a22.92,22.92,0,0,1-2.07,3.13c-.77,1-1.55,1.94-2.35,2.86l-1.15,1.16a11,11,0,0,1-1.25,1.06c-.74.61-1.44,1.18-2.12,1.7s-1.35,1.06-2,1.61l-.55.37c-.86.62-1.75,1.23-2.68,1.85a22.72,22.72,0,0,1-3,1.66c-.67.43-1.32.83-1.93,1.2s-1.26.73-1.94,1.1l-2.21,1.11-3.09,1.43c-1,.46-2.07.91-3.18,1.33a19.7,19.7,0,0,1-1.89.83l-1.89.74c-.55.25-1.12.49-1.71.74s-1.12.46-1.61.65-.85.23-1.24.32-.79.2-1.16.32a34.46,34.46,0,0,1-4.42,1.38c-1,.25-1.92.51-2.81.79a28.36,28.36,0,0,1-2.82.69L87.85,83a1.2,1.2,0,0,0-.6.27,1,1,0,0,0-.23.6A5.28,5.28,0,0,1,86.7,85a1.75,1.75,0,0,0-.14.88,1.38,1.38,0,0,1-.14.78,2.65,2.65,0,0,0,.18,1.94,16.17,16.17,0,0,1,.83,1.94c.13.42,0,.58-.46.46a.8.8,0,0,1-.23-.05,1,1,0,0,0-.32,0,1.77,1.77,0,0,1-.92-.55,3.21,3.21,0,0,0-1.16-.83,2.35,2.35,0,0,1-1.06-.83l-.18-.37A.81.81,0,0,1,83,88a10.36,10.36,0,0,0,.23-1.66,10.68,10.68,0,0,1,.23-1.66.41.41,0,0,0,0-.18.66.66,0,0,1,0-.28.25.25,0,0,0-.28-.27,1,1,0,0,1-.32,0,.46.46,0,0,0-.33,0c-.36.06-.7.11-1,.14s-.61,0-.92,0a1,1,0,0,0-.46.09,15.56,15.56,0,0,1-3.32.23c-1.17,0-2.37,0-3.6,0a13,13,0,0,1-5-.92c-.3-.13-.61-.26-.92-.42s-.61-.32-.92-.51a.51.51,0,0,1-.23-.18,1.66,1.66,0,0,0-.23-.28,4.71,4.71,0,0,1-1.38-2.49,1.86,1.86,0,0,1,.36-1.19.63.63,0,0,0,.65-.14,3.82,3.82,0,0,1,.37-.42c.06-.06.15-.06.28,0a3.17,3.17,0,0,1,.23,1.06A9.26,9.26,0,0,0,66.5,80c0,.31.28.62.83.93a3.3,3.3,0,0,0,1.66.55,15.49,15.49,0,0,0,3.41.37q1.75,0,3.51-.09a.39.39,0,0,1,.18,0,.33.33,0,0,0,.28,0,7.41,7.41,0,0,1,1.71-.19,13.34,13.34,0,0,0,1.61-.09l2.07-.37,2.08-.37a1.45,1.45,0,0,0,.83-.64,10.79,10.79,0,0,0,.74-2c.18-.74.33-1.44.46-2.12l.36-1.2a3.17,3.17,0,0,0,.33-.6,2,2,0,0,0,.14-.78,1.59,1.59,0,0,1,.18-.46,6.2,6.2,0,0,0,.32-.79c.1-.27.2-.57.33-.87a5.69,5.69,0,0,0,.27-1.76,2.87,2.87,0,0,0,.51-.83l.32-.83a5.47,5.47,0,0,0,.28-.87,4.94,4.94,0,0,1,.28-.88,7.52,7.52,0,0,0,.32-1,8.18,8.18,0,0,1,.32-1,.76.76,0,0,0,.28-.55,1.29,1.29,0,0,1,.09-.83c.12-.24.24-.52.37-.83a3,3,0,0,0,.37-1.29A2.88,2.88,0,0,1,91,59.8q.09-.33.18-.69a1.45,1.45,0,0,1,.46-1,.85.85,0,0,0,.24-.46,3.65,3.65,0,0,1,.13-.55c.13-.37.25-.71.37-1a2.71,2.71,0,0,0,.19-1c-.19-.19-.19-.28,0-.28a1.83,1.83,0,0,0,.41-1,2.39,2.39,0,0,1,.32-1,.81.81,0,0,0,.1-.64.82.82,0,0,1,.09-.65,1.07,1.07,0,0,0,.32-.5,2.76,2.76,0,0,0,0-.51,3.27,3.27,0,0,1,.09-.92,2.93,2.93,0,0,0,.51-1c.09-.34.17-.66.23-1a5.66,5.66,0,0,1,.18-1.43,7.15,7.15,0,0,1,.56-1.43.26.26,0,0,1,.09-.18.12.12,0,0,0,0-.19,1.49,1.49,0,0,1,0-1.2,2.05,2.05,0,0,0,.23-.92,2.41,2.41,0,0,1,.09-1.15A5.33,5.33,0,0,0,96.1,40a3.52,3.52,0,0,0,.23-1,1.33,1.33,0,0,1,.42-.87,1.09,1.09,0,0,0,.09-.47,5.34,5.34,0,0,1,.09-1,4.61,4.61,0,0,1,.28-.92,5.07,5.07,0,0,0,.27-1c.06-.36.13-.7.19-1a.41.41,0,0,0-.46-.46.37.37,0,0,1-.42.09.36.36,0,0,0-.41.09l-1.94.37c-.61.13-1.26.25-1.94.37a41.06,41.06,0,0,0-4.84,1.25q-2.44.78-4.84,1.61a27.17,27.17,0,0,0-3,1.29l-3,1.48-2,1.38a1.87,1.87,0,0,0-.46,1.38c.12.13.11.25,0,.37a.79.79,0,0,1-.5.18,1.66,1.66,0,0,1-.65-.09l-.46-.27c-.31-.31-.63-.62-1-.93a2.32,2.32,0,0,1-.69-1.1c-.12-.43-.12-.71,0-.83.31-.37.62-.77.92-1.2a4.11,4.11,0,0,1,1-1A14.62,14.62,0,0,1,76.09,36c1-.4,2.09-.84,3.14-1.34a36.63,36.63,0,0,1,4-1.43c1.35-.4,2.71-.75,4.06-1.06l.41-.18a1.22,1.22,0,0,1,.42-.09,4.11,4.11,0,0,0,1.06-.14c.34-.09.69-.2,1.06-.32l.92-.28,1.57-.28a8.93,8.93,0,0,1,2.12-.27,2.89,2.89,0,0,0,.92-.19,3.66,3.66,0,0,1,.79-.23,4.86,4.86,0,0,1,.69-.05c.61,0,1-.06,1.06-.18a3.15,3.15,0,0,0,.32-.92c.12-.62.21-1.21.28-1.8s.15-1.18.27-1.8a9.32,9.32,0,0,0,.23-1.61c0-.52,0-1,0-1.52A8.44,8.44,0,0,0,99.65,21a6.5,6.5,0,0,0-.05-1.29,4.17,4.17,0,0,0-.09-.88q-.09-.42-.18-.78a1.19,1.19,0,0,0-.1-.51,1.14,1.14,0,0,1-.09-.42c0-.55.25-.83.74-.83a.2.2,0,0,0,.14,0,.37.37,0,0,1,.23-.05,2.59,2.59,0,0,1,1,.37l1,1.38c.12.25.23.5.32.74a2.15,2.15,0,0,1,.14.74l.18,4.06a2.6,2.6,0,0,1,0,.5.65.65,0,0,0,0,.42l-.73,4.42v.37l.18.19a.73.73,0,0,0,.46.09h2c.67,0,1.38,0,2.12-.09h.83Zm-19,50.06c.31.07.56.11.74.14a1.4,1.4,0,0,0,.74-.14,2.54,2.54,0,0,1,.74-.23,3.18,3.18,0,0,0,.83-.23,3.9,3.9,0,0,0,1.84-.55,1.13,1.13,0,0,1,.83-.37,5.38,5.38,0,0,0,1-.09,4.82,4.82,0,0,0,.92-.28,7.39,7.39,0,0,1,.78-.27l.69-.19a1.6,1.6,0,0,0,.83-.28l1.15-.55a4.64,4.64,0,0,1,1.34-.37,5,5,0,0,0,1.25-.46,5.2,5.2,0,0,1,1.24-.46,1.62,1.62,0,0,1,1.2-.46.87.87,0,0,0,.37-.09l.37-.19.64-.32A1.71,1.71,0,0,1,107,74l1.48-.74a6.45,6.45,0,0,0,2.12-1.19,9.51,9.51,0,0,1,1.66-.74,2.64,2.64,0,0,0,.92-.51,3,3,0,0,1,.83-.51,4.08,4.08,0,0,0,1.2-.55,1.86,1.86,0,0,1,1.29-.28,7.24,7.24,0,0,1,1.06-.87l1.15-.79.46-.27a9.63,9.63,0,0,0,1.71-1.11,8.68,8.68,0,0,1,1.7-1.1.56.56,0,0,0,.37-.19l.65-.55c.67-.49,1.3-.94,1.89-1.34a17.5,17.5,0,0,0,1.61-1.24,10,10,0,0,0,.83-.56,4.59,4.59,0,0,0,.74-.73,16.14,16.14,0,0,0,1.47-1.3l1.38-1.38c.56-.67,1.13-1.34,1.71-2a15.85,15.85,0,0,0,1.52-2,2,2,0,0,1,.42-.6,7.18,7.18,0,0,0,.5-.6,5.06,5.06,0,0,1,.37-.74c.13-.18.25-.37.37-.55l.55-1.57a13.89,13.89,0,0,0,.37-2.58,11.76,11.76,0,0,0-.09-2.58,7.46,7.46,0,0,0-.41-1.89,5.42,5.42,0,0,0-1.06-1.71c-.62-.67-1.23-1.3-1.85-1.89a12.69,12.69,0,0,0-2.12-1.61c-.8-.49-1.63-1-2.49-1.39a25.93,25.93,0,0,0-2.58-1.1q-.64-.28-1.29-.51c-.43-.15-.89-.29-1.38-.41l-3.69-.93c-.55-.12-1-.21-1.48-.27L117.49,33c-.68-.12-1.32-.21-1.94-.27s-1.26-.1-1.93-.1a.73.73,0,0,1-.46-.09,3.58,3.58,0,0,0-1.11-.18H105.6a5.52,5.52,0,0,0-1.29.18,6.3,6.3,0,0,1-1.29.09,5.66,5.66,0,0,1-1.2.1c-.19,0-.34.12-.46.36a1.51,1.51,0,0,0-.24.56,1.68,1.68,0,0,1-.13.46c-.19.92-.36,1.89-.51,2.9a16.71,16.71,0,0,1-.69,2.91,1.89,1.89,0,0,0-.09.6,1.12,1.12,0,0,1-.19.6l-.55,3c-.19.86-.39,1.7-.6,2.53s-.45,1.68-.69,2.54S97.25,51.08,97,52s-.54,1.84-.79,2.76a19,19,0,0,1-.5,2.21q-.33,1.11-.6,2.22a21.68,21.68,0,0,0-.79,2.21c-.21.74-.44,1.45-.69,2.12l-1.94,6.18a.81.81,0,0,0-.09.37c-.43,1.23-.83,2.43-1.2,3.59s-.8,2.37-1.29,3.6c-.06.25-.14.6-.23,1.06A6.62,6.62,0,0,0,88.72,79.57Z" transform="translate(-26.12 -15.73)"/><path class="cls-1" d="M157.41,58.09a.21.21,0,0,0-.23-.05.62.62,0,0,1-.41,0,2.91,2.91,0,0,0-1.57.09c-.31.13-.63.28-1,.46s-.66.37-1,.56a6.69,6.69,0,0,0-1.52,1.15c-.46.46-.94.91-1.43,1.33A9,9,0,0,0,149,62.75c-.43.46-1,1.12-1.66,2a8.52,8.52,0,0,1-.69,1.15L145.89,67a1.41,1.41,0,0,1-.46.65,7.51,7.51,0,0,0-.83,1.89c-.19.65-.4,1.31-.65,2a1.5,1.5,0,0,1,0,.37,1.18,1.18,0,0,0,0,.37,1.12,1.12,0,0,1-.6.55.65.65,0,0,1-.69,0,4.26,4.26,0,0,1-1.75-.92.74.74,0,0,1-.28-1c.12-.31.25-.63.37-1a5.74,5.74,0,0,1,.46-1,8.32,8.32,0,0,0,.83-2.58c.31-1.11.57-2.23.78-3.37s.48-2.25.79-3.36a2.55,2.55,0,0,0,.18-.92,4.88,4.88,0,0,1,.09-.93,10.82,10.82,0,0,0,.37-2.85.73.73,0,0,1,.56-.74,1,1,0,0,1,.92.09,7.1,7.1,0,0,1,1.29.74c.49.31.67.64.55,1-.06.68-.14,1.33-.23,1.94s-.2,1.26-.32,1.94v.18h.09c.37-.31.65-.52.83-.65a2.93,2.93,0,0,0,.65-.64,5.56,5.56,0,0,1,2.12-1.43c.86-.34,1.69-.63,2.49-.88a3.85,3.85,0,0,1,2.39-.18l1.06.37a2.72,2.72,0,0,1,1,.64.3.3,0,0,1,.09.19.6.6,0,0,0,.1.27c.06.07,0,.13-.05.19a.57.57,0,0,1-.32.09Z" transform="translate(-26.12 -15.73)"/><path class="cls-1" d="M180.74,70.54a3.65,3.65,0,0,1-1.48-.28,12.57,12.57,0,0,1-1.47-.87,4.33,4.33,0,0,1-1.2-1.25,10.27,10.27,0,0,1-1.75-3.59.24.24,0,0,0-.28-.28L173,65.84c-.92.73-1.83,1.47-2.72,2.21a32,32,0,0,1-2.72,2c-.61.37-1.21.7-1.79,1a6.82,6.82,0,0,1-1.89.65,6.91,6.91,0,0,1-2.31.37,2.21,2.21,0,0,1-2.4-1.66l-.73-1.39a3,3,0,0,1-.1-2.39,4.92,4.92,0,0,1,.6-1.39,8.1,8.1,0,0,0,.69-1.29l1-1.29c.86-1,1.77-1.92,2.72-2.81a21.37,21.37,0,0,1,3-2.35l1.56-.92a5.43,5.43,0,0,1,2.77-.74,1.45,1.45,0,0,1,1.2.46A5.22,5.22,0,0,1,173.46,59a1.51,1.51,0,0,1-.19.56c-.18.12-.31.12-.37,0l-.64-.56c-.31-.3-.59-.37-.83-.18-.5.12-1,.23-1.48.32a4.16,4.16,0,0,0-1.47.6,11.74,11.74,0,0,0-3,2.21,1.88,1.88,0,0,0-.64.56,13.19,13.19,0,0,0-3.41,4,4.57,4.57,0,0,0-1,2.12c-.12.25-.06.37.19.37a1.78,1.78,0,0,0,.55.1h.46a8.38,8.38,0,0,1,1.34-.28,3,3,0,0,0,1.24-.46,15.45,15.45,0,0,0,4.8-3.14l2.21-1.84c.18-.12.35-.23.51-.32a2.2,2.2,0,0,0,.41-.33c.49-.55,1-1.07,1.43-1.56a19,19,0,0,0,1.43-1.76A.76.76,0,0,1,176,59.2l.83.41a1.44,1.44,0,0,1,.64.6c.06.25.11.45.14.6a1.45,1.45,0,0,1-.05.6c-.06.37-.1.77-.13,1.2s-.05.86-.05,1.29a6.29,6.29,0,0,0,.64,2.86.88.88,0,0,0,.42.23.81.81,0,0,1,.41.23,4.63,4.63,0,0,0,2.68.78,8.06,8.06,0,0,0,2.76-.6c.5-.18.93-.32,1.29-.41a4.67,4.67,0,0,0,1.3-.6,16.35,16.35,0,0,1,2-1.38,7.18,7.18,0,0,0,1.85-1.66c.18-.19.52-.57,1-1.16a7.49,7.49,0,0,0,.92-1.24l.28-.18c0-.07.14-.1.42-.1s.41,0,.41.1l.37.55a1.88,1.88,0,0,1-.41,1.7c-.47.71-.82,1.22-1.07,1.53a13.94,13.94,0,0,1-4.84,4.33,12.58,12.58,0,0,1-5.48,1.66,7.88,7.88,0,0,0-.83.09C181.14,70.69,180.86,70.66,180.74,70.54Z" transform="translate(-26.12 -15.73)"/><path class="cls-1" d="M232.56,65.65a4.11,4.11,0,0,0-1.25.23,3.14,3.14,0,0,1-1.43.14,6.94,6.94,0,0,1-2.9-.23,15.68,15.68,0,0,1-2.72-1.15c-.19-.06-.4-.29-.65-.69a1.83,1.83,0,0,0-.83-.79l-.41-.18c-.16-.06-.23,0-.23.09s0,.26-.14.41a3,3,0,0,0-.51,1,23.65,23.65,0,0,1-1.8,3.23,25.66,25.66,0,0,1-2.62,3.13,3.11,3.11,0,0,0-.74.6,3.73,3.73,0,0,1-.65.6,5.91,5.91,0,0,1-1.66,1.2,7.4,7.4,0,0,1-2.3.65,4,4,0,0,1-3.41-.65.6.6,0,0,1-.46,0l-.37-.18a19.31,19.31,0,0,1-1.57-1.57,3.53,3.53,0,0,1-.83-1.75,7.78,7.78,0,0,1-.14-2c0-.86.05-1.57.05-2.12l-.09-.18c-.31-.13-.47-.07-.47.18-.49.61-1.06,1.38-1.7,2.3A10.19,10.19,0,0,1,200.84,70l-.79.79q-.41.42-.69.78a5.24,5.24,0,0,1-1.38.92c-.8.31-1.49.54-2.07.7a4.57,4.57,0,0,1-2.36-.23,2.77,2.77,0,0,0-.69-.33,1,1,0,0,1-.6-.5,1.52,1.52,0,0,1-1.2-1.11,3.49,3.49,0,0,1-.09-1.34c.06-.4.13-.84.19-1.33.24-.93.44-1.83.6-2.72a15.21,15.21,0,0,1,.69-2.63A13.68,13.68,0,0,0,193,61a13.57,13.57,0,0,1,.55-1.93c.06-.25.13-.5.19-.74a1.19,1.19,0,0,0,0-.65,1.63,1.63,0,0,1,1.75-1.2c.86-.18,1.32-.12,1.38.19a9,9,0,0,0,.46,1.38c.07.06,0,.19-.09.37a.47.47,0,0,0-.09.46,3.62,3.62,0,0,0-.23,1.48,2.09,2.09,0,0,1-.42,1.38c-.3,1-.63,1.94-1,2.86s-.66,1.84-1,2.76c-.06.31-.14.74-.23,1.29A6.32,6.32,0,0,1,194,70c.12.74.32,1.16.59,1.25a2,2,0,0,0,1.34-.32,11.94,11.94,0,0,0,2.4-2.08,35.58,35.58,0,0,0,2.4-3.09c.18-.18.38-.36.6-.55a2.77,2.77,0,0,0,.5-.55c.68-1,1.25-1.83,1.71-2.54s1.06-1.55,1.8-2.53a2.46,2.46,0,0,0,.5-.69,1.87,1.87,0,0,1,.42-.6c.24-.5.44-.74.6-.74a11,11,0,0,1,1.24.18c.19.13.28.23.28.32a.5.5,0,0,0,.18.33c.43.12.62.37.56.74a8.47,8.47,0,0,0-.33,1.7,14.09,14.09,0,0,1-.23,1.71,3.79,3.79,0,0,0-.14,1.29,5.57,5.57,0,0,1,0,1.29,4.68,4.68,0,0,0-.23,2.49c.15.74.29,1.5.41,2.3,0,.19.17.4.51.65l.78.55a1.32,1.32,0,0,0,1.43.42,5.69,5.69,0,0,0,1.75-.83,8.75,8.75,0,0,0,1.62-1.43,7,7,0,0,0,1-1.39,2.9,2.9,0,0,0,.74-.83,8.23,8.23,0,0,1,.65-.92,14.56,14.56,0,0,0,1.1-1.52c.25-.4.46-.77.65-1.11a7.77,7.77,0,0,0,.5-1.15c.16-.43.39-1,.7-1.75a2.86,2.86,0,0,0,.64-1.52,6.23,6.23,0,0,0-.28-1.61,4.05,4.05,0,0,1-.13-1.34,6.92,6.92,0,0,0-.05-1.34c-.18-.74.18-1.2,1.11-1.38.3-.06.46-.06.46,0s.06.12.18.18a2.53,2.53,0,0,0,.92.88,2.11,2.11,0,0,1,.83.69c0,.49,0,.92,0,1.29s0,.74,0,1.11,0,.58,0,1,.07.86.14,1.29a4,4,0,0,0,.32,1.16,1,1,0,0,0,.51.59,4.8,4.8,0,0,0,.83,1.11c.3.31.61.62.92.92A9.85,9.85,0,0,0,228,64a4.72,4.72,0,0,0,1.75-.05l2.44-.27a8,8,0,0,0,2.26-.83,12.22,12.22,0,0,1,1.25-.42,3.94,3.94,0,0,0,.92-.37,8.79,8.79,0,0,0,.92-.6c.34-.24.78-.55,1.34-.92a2.18,2.18,0,0,0,.27-.32.72.72,0,0,1,.28-.23,1.35,1.35,0,0,1,1,0,1,1,0,0,1,.19.27.19.19,0,0,1-.09.28,1.07,1.07,0,0,1-.05.74,1.52,1.52,0,0,1-.51.37,2.85,2.85,0,0,0-1.06.87,2.61,2.61,0,0,1-1.06.88c-.37.25-.73.48-1.1.69a4.7,4.7,0,0,1-1.29.51c-.37.12-.67.23-.88.32l-.6.23-.6.23A4.13,4.13,0,0,1,232.56,65.65Z" transform="translate(-26.12 -15.73)"/><path class="cls-1" d="M242.7,72.84a3.33,3.33,0,0,1-1-.18c-.37-.12-.8-.25-1.29-.37a10,10,0,0,1-2-1.34,4.78,4.78,0,0,1-1.1-2.16,5.36,5.36,0,0,1-.37-3.41l.83-3c.3-.55.61-1.13.92-1.75a13.8,13.8,0,0,0,.74-1.75q.09,0,0-.09c-.07-.06-.07-.12,0-.19a.58.58,0,0,1,.37-.27.61.61,0,0,1,.46,0l.64.32a4.37,4.37,0,0,1,.55.32c.07.07.1.11.1.14s.06.08.18.14a1.8,1.8,0,0,1,.6,1,2.1,2.1,0,0,1-.41,1.2l-1.57,3.6c-.19.55-.36,1.1-.51,1.66a3.33,3.33,0,0,0,0,1.66,1.74,1.74,0,0,0,1.61,1.8,9.51,9.51,0,0,0,2.81,0,17,17,0,0,0,2.86-.69,30.77,30.77,0,0,0,3.09-1.2c1-.46,2-1,2.86-1.47a18.57,18.57,0,0,0,2.25-1.52l.65-.56a.26.26,0,0,1,.18-.09.59.59,0,0,0,.28-.14l.92-.69a8.32,8.32,0,0,1,.83-.69,8.54,8.54,0,0,0,.83-.69,5.76,5.76,0,0,0,.88-.6c.34-.28.67-.54,1-.79a2.71,2.71,0,0,1,.92-.46.65.65,0,0,1,.7.28.93.93,0,0,1-.1.88.92.92,0,0,0,0,1l-.18.56a.88.88,0,0,1-.46.55,6.73,6.73,0,0,1-.74.18l-1.2,1a10.37,10.37,0,0,0-1.1,1.1c-.62.5-1.11.87-1.48,1.11s-.69.48-1,.69a7.46,7.46,0,0,1-.87.6c-.31.19-.68.43-1.11.74,0,.06-.15.12-.46.18a1.43,1.43,0,0,0-.55.19,3.36,3.36,0,0,1-1.48,1c-.55.19-1.29.5-2.21.92q-1.38.38-3.18.93A8,8,0,0,1,242.7,72.84Zm.83-20.93a1.72,1.72,0,0,0-.47-.18.85.85,0,0,1-.27-.19l-.28-.27a2.21,2.21,0,0,1-.28-1.66c.13-.49.25-1,.37-1.48a4.24,4.24,0,0,1,.74-1.47c0-.31.06-.4.19-.28a2.16,2.16,0,0,1,.92-.27,4,4,0,0,1,1.56,1q.47.27.42.6c0,.22-.08.48-.14.78a.6.6,0,0,1-.09.33c-.06.09-.12.2-.19.32a7.06,7.06,0,0,0-1.1,1.75c.18.12.15.22-.09.28A1.45,1.45,0,0,1,243.53,51.91Z" transform="translate(-26.12 -15.73)"/><path class="cls-1" d="M282.89,70.17a10.7,10.7,0,0,1,1.25-.69,6.78,6.78,0,0,0,1.24-.79,34.55,34.55,0,0,0,4.15-3.22,2,2,0,0,1,.69-.6,1.91,1.91,0,0,0,.7-.6l.73-.83c.13-.25.22-.37.28-.37s.18-.18.37-.55v-.19c0-.06.12-.09.37-.09a.48.48,0,0,1,.5-.09,1,1,0,0,1,.51.32A1.58,1.58,0,0,1,294,63a.62.62,0,0,1-.09.55c-.07.37-.1.52-.1.46s-.12.06-.37.37a1.91,1.91,0,0,1-.32.6,8.88,8.88,0,0,0-.6.78l-1.75,1.76c-.49.49-1.14,1.07-1.94,1.75a5.57,5.57,0,0,1-1.06.83,9,9,0,0,0-1.15.83,16.62,16.62,0,0,1-1.75,1,7.39,7.39,0,0,1-1.94.65,3.52,3.52,0,0,1-1.1.18,5.38,5.38,0,0,0-1,.09,7.21,7.21,0,0,1-3.13-.55,9.83,9.83,0,0,1-2.58-1.38c-.56-.62-1.08-1.22-1.57-1.8a10.23,10.23,0,0,1-1.29-2,9,9,0,0,1-1-3,19.43,19.43,0,0,1-.27-3,1.16,1.16,0,0,0-.09-.73,1.69,1.69,0,0,1-.1-1,2.63,2.63,0,0,0,0-1,.13.13,0,0,0-.18-.18,3.29,3.29,0,0,0-1,.5l-.78.6c-.86.68-1.68,1.39-2.45,2.12A18.75,18.75,0,0,0,264.18,64a13.33,13.33,0,0,0-1.48,1.75,6.13,6.13,0,0,0-.41.79c-.16.34-.31.7-.46,1.1s-.31.8-.46,1.2a2.79,2.79,0,0,1-.51.88,3.12,3.12,0,0,1-.46.51c-.19.15-.37.32-.56.5s-.4.28-.83.28q-.36,0-.18-.09c.12-.06.12-.16,0-.28l-1.2-.83a.84.84,0,0,1-.09-1.11,1.07,1.07,0,0,1,.18-.73,7.36,7.36,0,0,0,.65-1.62c.18-.64.35-1.32.51-2s.32-1.38.5-2a9.87,9.87,0,0,1,.65-1.71l.37-1a4.86,4.86,0,0,0,.23-.69c.09-.34.18-.7.27-1.07s.19-.7.28-1,.17-.55.23-.74c-.06-.37.19-.61.74-.73a2.48,2.48,0,0,1,2.12.55c.06.06.08.23.05.51s-.08.58-.14.92-.11.64-.14.92,0,.45,0,.51.25.21.37.09c.43-.37.89-.8,1.39-1.29a11.52,11.52,0,0,1,1.38-1.2,4.16,4.16,0,0,1,1.47-.6c.5-.09,1-.17,1.48-.23h.46a5.45,5.45,0,0,1,2.4,1.2,1.32,1.32,0,0,1,.55.92,11.29,11.29,0,0,1,.28,1.2,3.45,3.45,0,0,1,0,1.11,4.54,4.54,0,0,1-.09,1,3.17,3.17,0,0,0,0,1.16v.64a3.88,3.88,0,0,0,.23,1.85,10.46,10.46,0,0,1,.5,1.75c.13.24.25.5.37.78a1.4,1.4,0,0,0,.46.6l.65,1a3.37,3.37,0,0,0,.74.78,4.22,4.22,0,0,0,3.09,1.29A7.78,7.78,0,0,0,282.89,70.17Z" transform="translate(-26.12 -15.73)"/><path class="cls-1" d="M273.49,108.34a6.09,6.09,0,0,1,.05-2.26,15.85,15.85,0,0,1,.59-2.07,23.19,23.19,0,0,1,1.11-3c.43-1,.89-1.92,1.38-2.9s1.23-1.93,1.85-2.82,1.26-1.79,1.93-2.72c.31-.43.62-.83.93-1.19a14.5,14.5,0,0,1,1-1.11,1.55,1.55,0,0,1,.46-.46,1.68,1.68,0,0,0,.46-.46l.74-1a.43.43,0,0,0,.23-.23.43.43,0,0,1,.23-.23,7.24,7.24,0,0,0,1.29-1.24,16.68,16.68,0,0,1,1.2-1.34,14,14,0,0,0,1.24-1.2c.41-.43.79-.86,1.16-1.29l.83-.64a8.73,8.73,0,0,1,1-.88,6.22,6.22,0,0,0,1-1,1,1,0,0,1,.46-.37,9.85,9.85,0,0,0,1.1-.92,3.37,3.37,0,0,1,1.39-1.2,5.49,5.49,0,0,0,1.66-1.38l.36-.19,4.89-3.59a10.51,10.51,0,0,0,1.38-.83c.43-.31.89-.61,1.39-.92a1.09,1.09,0,0,0,.37-.74,5.28,5.28,0,0,1,.18-1.2c.06-.31.17-.74.32-1.29s.31-1.12.46-1.71.29-1.13.42-1.66a5.82,5.82,0,0,0,.18-1.24,2.35,2.35,0,0,0,0-.92,3.71,3.71,0,0,0,0-.42c0-.21-.05-.29-.05-.23a7.19,7.19,0,0,0-1.84,1.39,4.59,4.59,0,0,1-.74.73l-.83.65-1.57,1.38a1.83,1.83,0,0,0-.46.46,3.78,3.78,0,0,1-.46.56l-1.94,1.84a15.49,15.49,0,0,0-1.52,1.15,10.77,10.77,0,0,1-1.43,1.06c-.49.31-1,.6-1.47.88s-1,.54-1.48.78a1.88,1.88,0,0,1-1,.28,3.58,3.58,0,0,0-1.11.18,2.27,2.27,0,0,0-.74-.23,1.09,1.09,0,0,1-.64-.32l-.92-1.11A2.6,2.6,0,0,1,288,68.6a11.57,11.57,0,0,1,.93-2.49l1.66-2.39a4.27,4.27,0,0,1,.69-.74,2.79,2.79,0,0,0,.6-.74.55.55,0,0,1,.37-.37l2-2A16.43,16.43,0,0,1,296.45,58l2.95-1.85,2.39-.92a2.92,2.92,0,0,1,2.49.46,2.52,2.52,0,0,1,.7.6c.15.22.32.45.5.69a1,1,0,0,1,.23.33,2.61,2.61,0,0,0,.14.32.81.81,0,0,1,.23.41.8.8,0,0,0,.23.42,3.52,3.52,0,0,0,.37.32,1.87,1.87,0,0,0,.37.23c.31.19.64.37,1,.56a3.63,3.63,0,0,1,.93.64,2.83,2.83,0,0,1,.73,1.57,8.4,8.4,0,0,1-.09,1.47c-.06.25-.15.6-.28,1.06s-.24,1-.36,1.53-.23,1.07-.33,1.56a7,7,0,0,0-.14,1.11v.18l.37-.18c.62-.31,1.2-.61,1.76-.92a17.13,17.13,0,0,1,1.66-.83,4.92,4.92,0,0,1,1.19-.6,9.41,9.41,0,0,0,1.2-.51,17.51,17.51,0,0,1,1.8-.74c.4-.12,1-.33,1.89-.64a1.51,1.51,0,0,1,.37-.09,2.37,2.37,0,0,0,.46-.1,6.85,6.85,0,0,0,1.38-.5,3,3,0,0,1,1.39-.33.76.76,0,0,1,.5.37,1.06,1.06,0,0,0,.51.46l-.09.74c0,.19,0,.28-.09.28a2.25,2.25,0,0,1-.74.37,14.32,14.32,0,0,0-2.58.87c-1.11.46-1.94.82-2.49,1.06a4.86,4.86,0,0,1-.65.23.81.81,0,0,0-.28.14.53.53,0,0,1-.23.14l-.59.23-.83.46c-1.11.56-2.22,1.12-3.32,1.71s-2.19,1.21-3.23,1.89a1.7,1.7,0,0,0-.55,1c-.13.49-.23.92-.33,1.29a11.27,11.27,0,0,0-.23,1.29l-.18.93c-.06.3-.13.64-.19,1l-.92,3.69-.37,1.66a4.53,4.53,0,0,1-.23.83,5.19,5.19,0,0,0-.23.83,11.56,11.56,0,0,1-.83,2.49c-.18.37-.35.72-.5,1.06a2.86,2.86,0,0,0-.24,1.24,1.41,1.41,0,0,1-.18.55,23.79,23.79,0,0,0-1.24,3,19.65,19.65,0,0,1-1.25,2.86l-.18.28a13.21,13.21,0,0,1-.65,1.71,9.33,9.33,0,0,1-.92,1.52,14.9,14.9,0,0,1-1.06,2.07c-.4.65-.82,1.31-1.25,2-.3.49-.6,1-.87,1.43a7.16,7.16,0,0,1-1.06,1.34c-.13,0-.19.06-.19.18a13.41,13.41,0,0,1-2.35,2.77c-.89.8-1.83,1.6-2.81,2.4a8.31,8.31,0,0,1-1.57,1.24,16.54,16.54,0,0,1-1.84,1l-1.84.83a7.66,7.66,0,0,1-1.07.51,3.45,3.45,0,0,1-1.24.23h-.09a3.62,3.62,0,0,1-1.48.23,8.32,8.32,0,0,1-1.47-.23,7.49,7.49,0,0,1-4.06-2.68l-.37-.73a11.47,11.47,0,0,1-.55-1.8A4.54,4.54,0,0,1,273.49,108.34Zm6,4.52a13.89,13.89,0,0,0,1.52-.14,6.83,6.83,0,0,0,1.52-.32l.47-.28c.49-.31,1-.6,1.52-.88a11.54,11.54,0,0,0,1.43-.87,3.58,3.58,0,0,0,1-.55.49.49,0,0,1,.23-.14.92.92,0,0,0,.32-.23l2-1.85a6.14,6.14,0,0,0,.92-.92l.83-1c.31-.43.6-.83.88-1.2a9.78,9.78,0,0,1,.88-1,14.53,14.53,0,0,0,1.56-2.39,6.21,6.21,0,0,1,1-1.57c.18-.43.37-.89.55-1.38a7.58,7.58,0,0,1,.74-1.48.52.52,0,0,0,.18-.28.69.69,0,0,1,.09-.27,1.78,1.78,0,0,0,.14-.46,1.48,1.48,0,0,1,.23-.56,12.82,12.82,0,0,0,.83-1.79c.25-.65.52-1.31.83-2,.12-.37.25-.75.37-1.15a4.91,4.91,0,0,1,.46-1.06,2.74,2.74,0,0,0,.37-1,4.2,4.2,0,0,1,.37-1.06l.37-1.38.37-1.57a8.65,8.65,0,0,0,.55-1.7,15.31,15.31,0,0,1,.46-1.71,3.19,3.19,0,0,0,.19-.92l.36-2.12.47-1.94v-.37l-.19-.18a.26.26,0,0,1-.18.09c-.06,0-.1,0-.1.09L301,76.81c-.79.55-1.61,1.14-2.44,1.75a28.21,28.21,0,0,0-2.44,2l-1.75,1.47c-.68.56-1.33,1.1-1.94,1.62s-1.23,1.09-1.84,1.7l-1.76,1.85L287,88.89l-1.66,1.84a22.55,22.55,0,0,1-1.57,1.94,24.34,24.34,0,0,0-1.56,1.93c-.43.68-.88,1.35-1.34,2s-.88,1.35-1.25,2a12.27,12.27,0,0,0-1.47,2.44c-.37.83-.77,1.71-1.2,2.63l-.18.55a8.5,8.5,0,0,0-.28,1.29c-.06.43-.12.83-.19,1.2a6.8,6.8,0,0,0-.09,2.49,1.63,1.63,0,0,1,.09.65.7.7,0,0,0,.19.92,6,6,0,0,0,.64.88l.83.87.42.19a1.36,1.36,0,0,0,.51.09ZM302.35,59a2.35,2.35,0,0,0-.92,0,8.13,8.13,0,0,0-.83.28l-1,.46c-.18,0-.28,0-.28.09-.67.43-1.38.89-2.12,1.39A7.15,7.15,0,0,0,295.34,63l-2,1.75a15.6,15.6,0,0,0-.92,1.34c-.25.4-.52.81-.83,1.24l-.55,1a1.1,1.1,0,0,0-.1,1,.17.17,0,0,0,.19.18,2.09,2.09,0,0,0,1.2-.27,10.23,10.23,0,0,0,2.58-1.39,5.85,5.85,0,0,0,.83-.59c.24-.22.52-.45.83-.7a2.87,2.87,0,0,0,.64-.46,3.64,3.64,0,0,0,.83-.69c.19-.21.43-.47.74-.78s.72-.51,1.06-.79l1.06-.87c.25-.31.48-.59.69-.83a3.39,3.39,0,0,1,.79-.65,1.65,1.65,0,0,0,.64-.6,5.22,5.22,0,0,1,.56-.69q.27,0,0-.27a2.07,2.07,0,0,0-.74-.74l-.37-.19Z" transform="translate(-26.12 -15.73)"/><path d="M30.73,53.92H26.12V51.44H38.34v2.48H33.68V67.59H30.73Z" transform="translate(-26.12 -15.73)"/><path d="M43.16,51.44V57.9H50V51.44h3V67.59H50V60.47H43.16v7.12H40.21V51.44Z" transform="translate(-26.12 -15.73)"/><path d="M65.34,60.43H59.25v4.73h6.81v2.43H56.3V51.44h9.4v2.43H59.25V58h6.09Z" transform="translate(-26.12 -15.73)"/></svg>