<?xml version="1.0" encoding="UTF-8"?>
<svg xmlns="http://www.w3.org/2000/svg" xmlns:xlink="http://www.w3.org/1999/xlink" version="1.2" >
<font id="SamsungOneItalicLatinComp-800">
<font-face  font-family="SamsungOneItalicLatinComp" units-per-em="1024" ascent="794" descent="-230" font-style="normal" font-weight="800" font-stretch="normal" slope="-11" cap-height="724" x-height="546" underline-position="-123" underline-thickness="41" />
<missing-glyph  horiz-adv-x="665" d="M593 0 L481 0 L134 0 L73 0 L73 724 L185 724 L593 724 L593 0 Z M481 624 L228 624 L481 190 L481 624 Z M185 100 L437 100 L185 532 L185 100 Z " />
<glyph glyph-name="nonmarkingreturn" unicode="&#xd;" horiz-adv-x="180" d="" />
<glyph glyph-name="space" unicode="&#x20;" horiz-adv-x="185" d="" />
<glyph glyph-name="A" unicode="A" horiz-adv-x="648" d="M426 156 L182 156 L108 0 L-38 0 L337 724 L488 724 L580 0 L439 0 L426 156 Z M416 275 L389 595 L238 275 L416 275 Z " />
<glyph glyph-name="Aacute" unicode="&#xc1;" horiz-adv-x="648" d="M654 926 L653 914 L452 781 L336 781 L337 793 L499 926 L654 926 Z M488 724 L580 0 L439 0 L426 156 L182 156 L108 0 L-38 0 L337 724 L488 724 Z M416 275 L389 595 L238 275 L416 275 Z " />
<glyph glyph-name="Abreve" unicode="&#x102;" horiz-adv-x="648" d="M434 781 Q368 781 332.5 817.5 Q297 854 297 915 Q297 934 300 953 L375 948 Q370 877 438 877 Q475 877 501.5 897 Q528 917 540 953 L614 948 Q574 781 434 781 Z M488 724 L580 0 L439 0 L426 156 L182 156 L108 0 L-38 0 L337 724 L488 724 Z M416 275 L389 595 L238 275 L416 275 Z " />
<glyph glyph-name="uni1EAE" unicode="&#x1eae;" horiz-adv-x="648" d="M607 1036 L606 1026 L484 899 L394 899 L395 909 L488 1036 L607 1036 Z M429 836 Q470 836 499 854 Q528 872 540 905 L603 900 Q587 832 542 796 Q497 760 429 760 Q363 760 326.5 791.5 Q290 823 290 880 Q290 887 292 905 L356 900 Q356 836 429 836 Z M488 724 L580 0 L439 0 L426 156 L182 156 L108 0 L-38 0 L337 724 L488 724 Z M416 275 L389 595 L238 275 L416 275 Z " />
<glyph glyph-name="uni1EB6" unicode="&#x1eb6;" horiz-adv-x="648" d="M434 781 Q368 781 332.5 817.5 Q297 854 297 915 Q297 934 300 953 L375 948 Q370 877 438 877 Q475 877 501.5 897 Q528 917 540 953 L614 948 Q574 781 434 781 Z M488 724 L580 0 L439 0 L426 156 L182 156 L108 0 L-38 0 L337 724 L488 724 Z M416 275 L389 595 L238 275 L416 275 Z M251 -70 Q285 -70 304 -88.5 Q323 -107 323 -141 Q323 -179 300 -202.5 Q277 -226 237 -226 Q202 -226 183.5 -208 Q165 -190 165 -156 Q165 -118 188 -94 Q211 -70 251 -70 Z " />
<glyph glyph-name="uni1EB0" unicode="&#x1eb0;" horiz-adv-x="648" d="M410 901 L343 1028 L344 1038 L455 1038 L492 911 L491 901 L410 901 Z M429 760 Q363 760 326.5 791.5 Q290 823 290 880 Q290 887 292 905 L356 900 Q356 836 429 836 Q470 836 499 854 Q528 872 540 905 L603 900 Q587 832 542 796 Q497 760 429 760 Z M488 724 L580 0 L439 0 L426 156 L182 156 L108 0 L-38 0 L337 724 L488 724 Z M416 275 L389 595 L238 275 L416 275 Z " />
<glyph glyph-name="uni1EB2" unicode="&#x1eb2;" horiz-adv-x="648" d="M449 982 Q425 982 397 967 L376 1022 Q421 1046 472 1046 Q513 1046 535 1028.5 Q557 1011 557 979 Q557 951 543.5 938 Q530 925 506 914 Q492 908 486 903.5 Q480 899 480 892 L480 887 L407 892 L407 903 Q407 925 416.5 935 Q426 945 443 954 Q453 959 457.5 962.5 Q462 966 462 973 Q462 982 449 982 Z M429 760 Q363 760 326.5 791.5 Q290 823 290 880 Q290 887 292 905 L356 900 Q356 836 429 836 Q470 836 499 854 Q528 872 540 905 L603 900 Q587 832 542 796 Q497 760 429 760 Z M488 724 L580 0 L439 0 L426 156 L182 156 L108 0 L-38 0 L337 724 L488 724 Z M416 275 L389 595 L238 275 L416 275 Z " />
<glyph glyph-name="uni1EB4" unicode="&#x1eb4;" horiz-adv-x="648" d="M402 968 Q382 968 366.5 954.5 Q351 941 344 918 L286 928 Q309 1045 407 1045 Q434 1045 449 1037.5 Q464 1030 479 1016 Q490 1006 497.5 1001.5 Q505 997 517 997 Q536 997 552.5 1010.5 Q569 1024 576 1047 L634 1037 Q611 920 512 920 Q485 920 470 927.5 Q455 935 441 949 Q430 959 422 963.5 Q414 968 402 968 Z M429 836 Q470 836 499 854 Q528 872 540 905 L603 900 Q587 832 542 796 Q497 760 429 760 Q363 760 326.5 791.5 Q290 823 290 880 Q290 887 292 905 L356 900 Q356 836 429 836 Z M488 724 L580 0 L439 0 L426 156 L182 156 L108 0 L-38 0 L337 724 L488 724 Z M416 275 L389 595 L238 275 L416 275 Z " />
<glyph glyph-name="uni01CD" unicode="&#x1cd;" horiz-adv-x="648" d="M630 926 L629 914 L491 781 L361 781 L274 914 L275 926 L370 926 L435 847 L531 926 L630 926 Z M488 724 L580 0 L439 0 L426 156 L182 156 L108 0 L-38 0 L337 724 L488 724 Z M416 275 L389 595 L238 275 L416 275 Z " />
<glyph glyph-name="Acircumflex" unicode="&#xc2;" horiz-adv-x="648" d="M602 793 L601 781 L506 781 L441 860 L345 781 L246 781 L247 793 L385 926 L515 926 L602 793 Z M488 724 L580 0 L439 0 L426 156 L182 156 L108 0 L-38 0 L337 724 L488 724 Z M416 275 L389 595 L238 275 L416 275 Z " />
<glyph glyph-name="uni1EA4" unicode="&#x1ea4;" horiz-adv-x="648" d="M775 1032 L774 1022 L652 895 L562 895 L563 905 L656 1032 L775 1032 Z M513 934 L586 795 L585 785 L497 785 L441 866 L353 785 L261 785 L262 795 L389 934 L513 934 Z M488 724 L580 0 L439 0 L426 156 L182 156 L108 0 L-38 0 L337 724 L488 724 Z M416 275 L389 595 L238 275 L416 275 Z " />
<glyph glyph-name="uni1EAC" unicode="&#x1eac;" horiz-adv-x="648" d="M602 793 L601 781 L506 781 L441 860 L345 781 L246 781 L247 793 L385 926 L515 926 L602 793 Z M488 724 L580 0 L439 0 L426 156 L182 156 L108 0 L-38 0 L337 724 L488 724 Z M416 275 L389 595 L238 275 L416 275 Z M251 -70 Q285 -70 304 -88.5 Q323 -107 323 -141 Q323 -179 300 -202.5 Q277 -226 237 -226 Q202 -226 183.5 -208 Q165 -190 165 -156 Q165 -118 188 -94 Q211 -70 251 -70 Z " />
<glyph glyph-name="uni1EA6" unicode="&#x1ea6;" horiz-adv-x="648" d="M239 897 L172 1024 L173 1034 L284 1034 L321 907 L320 897 L239 897 Z M586 795 L585 785 L497 785 L441 866 L353 785 L261 785 L262 795 L389 934 L513 934 L586 795 Z M488 724 L580 0 L439 0 L426 156 L182 156 L108 0 L-38 0 L337 724 L488 724 Z M416 275 L389 595 L238 275 L416 275 Z " />
<glyph glyph-name="uni1EA8" unicode="&#x1ea8;" horiz-adv-x="648" d="M641 1043 Q682 1043 704 1025.5 Q726 1008 726 976 Q726 948 712.5 935 Q699 922 675 911 Q661 905 655 900.5 Q649 896 649 889 L649 884 L576 889 L576 900 Q576 922 585.5 932 Q595 942 612 951 Q622 956 626.5 959.5 Q631 963 631 970 Q631 979 618 979 Q594 979 566 964 L545 1019 Q590 1043 641 1043 Z M513 934 L586 795 L585 785 L497 785 L441 866 L353 785 L261 785 L262 795 L389 934 L513 934 Z M488 724 L580 0 L439 0 L426 156 L182 156 L108 0 L-38 0 L337 724 L488 724 Z M416 275 L389 595 L238 275 L416 275 Z " />
<glyph glyph-name="uni1EAA" unicode="&#x1eaa;" horiz-adv-x="648" d="M635 1037 Q612 920 513 920 Q486 920 471 927.5 Q456 935 442 949 Q431 959 423 963.5 Q415 968 403 968 Q383 968 367.5 954.5 Q352 941 345 918 L287 928 Q310 1045 408 1045 Q435 1045 450 1037.5 Q465 1030 480 1016 Q491 1006 498.5 1001.5 Q506 997 518 997 Q537 997 553.5 1010.5 Q570 1024 577 1047 L635 1037 Z M503 898 L581 775 L581 765 L497 765 L435 837 L344 765 L259 765 L260 775 L386 898 L503 898 Z M488 724 L580 0 L439 0 L426 156 L182 156 L108 0 L-38 0 L337 724 L488 724 Z M416 275 L389 595 L238 275 L416 275 Z " />
<glyph glyph-name="Adieresis" unicode="&#xc4;" horiz-adv-x="648" d="M334 782 Q303 782 286.5 798.5 Q270 815 270 846 Q270 881 291 903 Q312 925 347 925 Q378 925 394.5 908 Q411 891 411 860 Q411 825 390.5 803.5 Q370 782 334 782 Z M541 925 Q572 925 588.5 908 Q605 891 605 860 Q605 825 584.5 803.5 Q564 782 528 782 Q497 782 480.5 798.5 Q464 815 464 846 Q464 881 485 903 Q506 925 541 925 Z M488 724 L580 0 L439 0 L426 156 L182 156 L108 0 L-38 0 L337 724 L488 724 Z M416 275 L389 595 L238 275 L416 275 Z " />
<glyph glyph-name="uni1EA0" unicode="&#x1ea0;" horiz-adv-x="648" d="M426 156 L182 156 L108 0 L-38 0 L337 724 L488 724 L580 0 L439 0 L426 156 Z M416 275 L389 595 L238 275 L416 275 Z M237 -226 Q202 -226 183.5 -208 Q165 -190 165 -156 Q165 -118 188 -94 Q211 -70 251 -70 Q285 -70 304 -88.5 Q323 -107 323 -141 Q323 -179 300 -202.5 Q277 -226 237 -226 Z " />
<glyph glyph-name="Agrave" unicode="&#xc0;" horiz-adv-x="648" d="M397 781 L257 914 L258 926 L401 926 L503 793 L502 781 L397 781 Z M426 156 L182 156 L108 0 L-38 0 L337 724 L488 724 L580 0 L439 0 L426 156 Z M416 275 L389 595 L238 275 L416 275 Z " />
<glyph glyph-name="uni1EA2" unicode="&#x1ea2;" horiz-adv-x="648" d="M431 883 Q402 883 362 864 L338 929 Q364 944 396.5 951.5 Q429 959 459 959 Q508 959 534.5 940 Q561 921 561 887 Q561 858 545.5 843.5 Q530 829 502 816 Q483 807 475 801 Q467 795 467 785 L467 778 L382 783 L382 794 Q382 822 394 834.5 Q406 847 428 857 Q439 862 443.5 865.5 Q448 869 448 874 Q448 883 431 883 Z M426 156 L182 156 L108 0 L-38 0 L337 724 L488 724 L580 0 L439 0 L426 156 Z M416 275 L389 595 L238 275 L416 275 Z " />
<glyph glyph-name="Amacron" unicode="&#x100;" horiz-adv-x="648" d="M604 897 L587 807 L269 807 L286 897 L604 897 Z M488 724 L580 0 L439 0 L426 156 L182 156 L108 0 L-38 0 L337 724 L488 724 Z M416 275 L389 595 L238 275 L416 275 Z " />
<glyph glyph-name="Aogonek" unicode="&#x104;" horiz-adv-x="648" d="M590 -202 Q541 -230 476 -230 Q422 -230 392.5 -206 Q363 -182 363 -139 Q363 -98 389.5 -61 Q416 -24 464 0 L439 0 L426 156 L182 156 L108 0 L-38 0 L337 724 L488 724 L580 0 Q535 -27 506 -58.5 Q477 -90 477 -118 Q477 -144 507 -144 Q532 -144 564 -128 L590 -202 Z M416 275 L389 595 L238 275 L416 275 Z " />
<glyph glyph-name="Aring" unicode="&#xc5;" horiz-adv-x="648" d="M421 767 Q367 767 338 792.5 Q309 818 309 865 Q309 904 329 936 Q349 968 385 986.5 Q421 1005 467 1005 Q521 1005 550 979.5 Q579 954 579 907 Q579 868 559 836 Q539 804 503 785.5 Q467 767 421 767 Z M454 940 Q422 940 407 920 Q392 900 392 874 Q392 832 434 832 Q466 832 481 852 Q496 872 496 898 Q496 940 454 940 Z M426 156 L182 156 L108 0 L-38 0 L337 724 L488 724 L580 0 L439 0 L426 156 Z M416 275 L389 595 L238 275 L416 275 Z " />
<glyph glyph-name="Atilde" unicode="&#xc3;" horiz-adv-x="648" d="M376 843 Q358 843 342.5 826 Q327 809 320 782 L247 792 Q277 937 377 937 Q405 937 423.5 927.5 Q442 918 462 901 Q475 890 484.5 884.5 Q494 879 504 879 Q521 879 536.5 895.5 Q552 912 560 940 L633 930 Q617 857 583 821 Q549 785 501 785 Q473 785 455 794.5 Q437 804 417 821 Q404 832 395 837.5 Q386 843 376 843 Z M488 724 L580 0 L439 0 L426 156 L182 156 L108 0 L-38 0 L337 724 L488 724 Z M416 275 L389 595 L238 275 L416 275 Z " />
<glyph glyph-name="AE" unicode="&#xc6;" horiz-adv-x="897" d="M630 602 L598 432 L807 432 L783 308 L575 308 L540 122 L843 122 L819 0 L380 0 L408 146 L187 146 L89 0 L-63 0 L430 724 L575 724 L945 724 L921 602 L630 602 Z M432 265 L499 611 L267 265 L432 265 Z " />
<glyph glyph-name="B" unicode="B" horiz-adv-x="610" d="M480 380 Q528 363 554 331.5 Q580 300 580 258 Q580 182 547.5 123.5 Q515 65 453 32.5 Q391 0 306 0 L95 0 L20 0 L161 724 L299 724 L415 724 Q499 724 549.5 682 Q600 640 600 571 Q600 494 571 447.5 Q542 401 480 380 Z M275 603 L241 428 L357 428 Q410 428 435 459 Q460 490 460 542 Q460 603 384 603 L275 603 Z M336 121 Q390 121 415.5 155.5 Q441 190 441 246 Q441 312 366 312 L219 312 L182 121 L336 121 Z " />
<glyph glyph-name="C" unicode="C" horiz-adv-x="573" d="M300 -11 Q175 -11 106 55 Q37 121 37 242 Q37 371 85.5 484.5 Q134 598 225.5 667 Q317 736 440 736 Q494 736 542.5 721 Q591 706 623 678 L562 574 Q495 613 414 613 Q340 613 286.5 562.5 Q233 512 206 432.5 Q179 353 179 268 Q179 114 330 114 Q413 114 477 149 L510 46 Q474 19 417.5 4 Q361 -11 300 -11 Z " />
<glyph glyph-name="Cacute" unicode="&#x106;" horiz-adv-x="573" d="M348 793 L510 926 L665 926 L664 914 L463 781 L347 781 L348 793 Z M300 -11 Q175 -11 106 55 Q37 121 37 242 Q37 371 85.5 484.5 Q134 598 225.5 667 Q317 736 440 736 Q494 736 542.5 721 Q591 706 623 678 L562 574 Q495 613 414 613 Q340 613 286.5 562.5 Q233 512 206 432.5 Q179 353 179 268 Q179 114 330 114 Q413 114 477 149 L510 46 Q474 19 417.5 4 Q361 -11 300 -11 Z " />
<glyph glyph-name="Ccaron" unicode="&#x10c;" horiz-adv-x="573" d="M641 926 L640 914 L502 781 L372 781 L285 914 L286 926 L381 926 L446 847 L542 926 L641 926 Z M37 242 Q37 371 85.5 484.5 Q134 598 225.5 667 Q317 736 440 736 Q494 736 542.5 721 Q591 706 623 678 L562 574 Q495 613 414 613 Q340 613 286.5 562.5 Q233 512 206 432.5 Q179 353 179 268 Q179 114 330 114 Q413 114 477 149 L510 46 Q474 19 417.5 4 Q361 -11 300 -11 Q175 -11 106 55 Q37 121 37 242 Z " />
<glyph glyph-name="Ccedilla" unicode="&#xc7;" horiz-adv-x="573" d="M414 613 Q340 613 286.5 562.5 Q233 512 206 432.5 Q179 353 179 268 Q179 114 330 114 Q413 114 477 149 L510 46 Q475 21 421.5 6 Q368 -9 310 -11 L274 -51 Q279 -50 289 -50 Q334 -50 359 -71.5 Q384 -93 384 -131 Q384 -181 343 -210.5 Q302 -240 239 -240 Q172 -240 121 -212 L143 -157 Q186 -171 219 -171 Q247 -171 264.5 -159.5 Q282 -148 282 -129 Q282 -107 255 -107 Q232 -107 212 -116 L185 -82 L229 -5 Q136 13 86.5 76.5 Q37 140 37 242 Q37 371 85.5 484.5 Q134 598 225.5 667 Q317 736 440 736 Q494 736 542.5 721 Q591 706 623 678 L562 574 Q495 613 414 613 Z " />
<glyph glyph-name="Ccircumflex" unicode="&#x108;" horiz-adv-x="573" d="M356 781 L257 781 L258 793 L396 926 L526 926 L613 793 L612 781 L517 781 L452 860 L356 781 Z M414 613 Q340 613 286.5 562.5 Q233 512 206 432.5 Q179 353 179 268 Q179 114 330 114 Q413 114 477 149 L510 46 Q474 19 417.5 4 Q361 -11 300 -11 Q175 -11 106 55 Q37 121 37 242 Q37 371 85.5 484.5 Q134 598 225.5 667 Q317 736 440 736 Q494 736 542.5 721 Q591 706 623 678 L562 574 Q495 613 414 613 Z " />
<glyph glyph-name="Cdotaccent" unicode="&#x10a;" horiz-adv-x="573" d="M443 787 Q408 787 389.5 805 Q371 823 371 857 Q371 895 394 919 Q417 943 457 943 Q491 943 510 924.5 Q529 906 529 872 Q529 834 506 810.5 Q483 787 443 787 Z M300 -11 Q175 -11 106 55 Q37 121 37 242 Q37 371 85.5 484.5 Q134 598 225.5 667 Q317 736 440 736 Q494 736 542.5 721 Q591 706 623 678 L562 574 Q495 613 414 613 Q340 613 286.5 562.5 Q233 512 206 432.5 Q179 353 179 268 Q179 114 330 114 Q413 114 477 149 L510 46 Q474 19 417.5 4 Q361 -11 300 -11 Z " />
<glyph glyph-name="D" unicode="D" horiz-adv-x="664" d="M394 724 Q515 724 582 660 Q649 596 649 480 Q649 343 605 234.5 Q561 126 472 63 Q383 0 253 0 L20 0 L161 724 L394 724 Z M273 122 Q351 122 404.5 168 Q458 214 483.5 289 Q509 364 509 453 Q509 602 367 602 L275 602 L181 122 L273 122 Z " />
<glyph glyph-name="Eth" unicode="&#xd0;" horiz-adv-x="666" d="M395 724 Q516 724 583 660 Q650 596 650 480 Q650 343 606 234.5 Q562 126 473 63 Q384 0 254 0 L21 0 L82 315 L22 315 L42 418 L102 418 L162 724 L395 724 Z M274 122 Q352 122 405.5 168 Q459 214 484.5 289 Q510 364 510 453 Q510 602 368 602 L276 602 L240 418 L386 418 L366 315 L220 315 L182 122 L274 122 Z " />
<glyph glyph-name="Dcaron" unicode="&#x10e;" horiz-adv-x="664" d="M362 781 L275 914 L276 926 L371 926 L436 847 L532 926 L631 926 L630 914 L492 781 L362 781 Z M394 724 Q515 724 582 660 Q649 596 649 480 Q649 343 605 234.5 Q561 126 472 63 Q383 0 253 0 L20 0 L161 724 L394 724 Z M273 122 Q351 122 404.5 168 Q458 214 483.5 289 Q509 364 509 453 Q509 602 367 602 L275 602 L181 122 L273 122 Z " />
<glyph glyph-name="Dcroat" unicode="&#x110;" horiz-adv-x="666" d="M395 724 Q516 724 583 660 Q650 596 650 480 Q650 343 606 234.5 Q562 126 473 63 Q384 0 254 0 L21 0 L82 315 L22 315 L42 418 L102 418 L162 724 L395 724 Z M274 122 Q352 122 405.5 168 Q459 214 484.5 289 Q510 364 510 453 Q510 602 368 602 L276 602 L240 418 L386 418 L366 315 L220 315 L182 122 L274 122 Z " />
<glyph glyph-name="uni1E0C" unicode="&#x1e0c;" horiz-adv-x="664" d="M394 724 Q515 724 582 660 Q649 596 649 480 Q649 343 605 234.5 Q561 126 472 63 Q383 0 253 0 L20 0 L161 724 L394 724 Z M273 122 Q351 122 404.5 168 Q458 214 483.5 289 Q509 364 509 453 Q509 602 367 602 L275 602 L181 122 L273 122 Z M233 -226 Q198 -226 179.5 -208 Q161 -190 161 -156 Q161 -118 184 -94 Q207 -70 247 -70 Q281 -70 300 -88.5 Q319 -107 319 -141 Q319 -179 296 -202.5 Q273 -226 233 -226 Z " />
<glyph glyph-name="uni1E0E" unicode="&#x1e0e;" horiz-adv-x="664" d="M394 724 Q515 724 582 660 Q649 596 649 480 Q649 343 605 234.5 Q561 126 472 63 Q383 0 253 0 L20 0 L161 724 L394 724 Z M273 122 Q351 122 404.5 168 Q458 214 483.5 289 Q509 364 509 453 Q509 602 367 602 L275 602 L181 122 L273 122 Z M92 -97 L410 -97 L393 -187 L75 -187 L92 -97 Z " />
<glyph glyph-name="E" unicode="E" horiz-adv-x="553" d="M277 602 L243 432 L464 432 L440 308 L219 308 L182 122 L499 122 L475 0 L20 0 L161 724 L602 724 L578 602 L277 602 Z " />
<glyph glyph-name="Eacute" unicode="&#xc9;" horiz-adv-x="553" d="M623 926 L622 914 L421 781 L305 781 L306 793 L468 926 L623 926 Z M161 724 L602 724 L578 602 L277 602 L243 432 L464 432 L440 308 L219 308 L182 122 L499 122 L475 0 L20 0 L161 724 Z " />
<glyph glyph-name="Ebreve" unicode="&#x114;" horiz-adv-x="553" d="M403 781 Q337 781 301.5 817.5 Q266 854 266 915 Q266 934 269 953 L344 948 Q339 877 407 877 Q444 877 470.5 897 Q497 917 509 953 L583 948 Q543 781 403 781 Z M277 602 L243 432 L464 432 L440 308 L219 308 L182 122 L499 122 L475 0 L20 0 L161 724 L602 724 L578 602 L277 602 Z " />
<glyph glyph-name="Ecaron" unicode="&#x11a;" horiz-adv-x="553" d="M330 781 L243 914 L244 926 L339 926 L404 847 L500 926 L599 926 L598 914 L460 781 L330 781 Z M277 602 L243 432 L464 432 L440 308 L219 308 L182 122 L499 122 L475 0 L20 0 L161 724 L602 724 L578 602 L277 602 Z " />
<glyph glyph-name="Ecircumflex" unicode="&#xca;" horiz-adv-x="553" d="M314 781 L215 781 L216 793 L354 926 L484 926 L571 793 L570 781 L475 781 L410 860 L314 781 Z M277 602 L243 432 L464 432 L440 308 L219 308 L182 122 L499 122 L475 0 L20 0 L161 724 L602 724 L578 602 L277 602 Z " />
<glyph glyph-name="uni1EBE" unicode="&#x1ebe;" horiz-adv-x="553" d="M744 1032 L743 1022 L621 895 L531 895 L532 905 L625 1032 L744 1032 Z M322 785 L230 785 L231 795 L358 934 L482 934 L555 795 L554 785 L466 785 L410 866 L322 785 Z M161 724 L602 724 L578 602 L277 602 L243 432 L464 432 L440 308 L219 308 L182 122 L499 122 L475 0 L20 0 L161 724 Z " />
<glyph glyph-name="uni1EC6" unicode="&#x1ec6;" horiz-adv-x="553" d="M314 781 L215 781 L216 793 L354 926 L484 926 L571 793 L570 781 L475 781 L410 860 L314 781 Z M277 602 L243 432 L464 432 L440 308 L219 308 L182 122 L499 122 L475 0 L20 0 L161 724 L602 724 L578 602 L277 602 Z M228 -70 Q262 -70 281 -88.5 Q300 -107 300 -141 Q300 -179 277 -202.5 Q254 -226 214 -226 Q179 -226 160.5 -208 Q142 -190 142 -156 Q142 -118 165 -94 Q188 -70 228 -70 Z " />
<glyph glyph-name="uni1EC0" unicode="&#x1ec0;" horiz-adv-x="553" d="M208 897 L141 1024 L142 1034 L253 1034 L290 907 L289 897 L208 897 Z M231 795 L358 934 L482 934 L555 795 L554 785 L466 785 L410 866 L322 785 L230 785 L231 795 Z M277 602 L243 432 L464 432 L440 308 L219 308 L182 122 L499 122 L475 0 L20 0 L161 724 L602 724 L578 602 L277 602 Z " />
<glyph glyph-name="uni1EC2" unicode="&#x1ec2;" horiz-adv-x="553" d="M610 1043 Q651 1043 673 1025.5 Q695 1008 695 976 Q695 948 681.5 935 Q668 922 644 911 Q630 905 624 900.5 Q618 896 618 889 L618 884 L545 889 L545 900 Q545 922 554.5 932 Q564 942 581 951 Q591 956 595.5 959.5 Q600 963 600 970 Q600 979 587 979 Q564 979 535 964 L514 1019 Q559 1043 610 1043 Z M322 785 L230 785 L231 795 L358 934 L482 934 L555 795 L554 785 L466 785 L410 866 L322 785 Z M161 724 L602 724 L578 602 L277 602 L243 432 L464 432 L440 308 L219 308 L182 122 L499 122 L475 0 L20 0 L161 724 Z " />
<glyph glyph-name="uni1EC4" unicode="&#x1ec4;" horiz-adv-x="553" d="M372 968 Q352 968 336.5 954.5 Q321 941 314 918 L256 928 Q279 1045 377 1045 Q404 1045 419 1037.5 Q434 1030 449 1016 Q460 1006 467.5 1001.5 Q475 997 487 997 Q506 997 522.5 1010.5 Q539 1024 546 1047 L604 1037 Q581 920 482 920 Q455 920 440 927.5 Q425 935 411 949 Q400 959 392 963.5 Q384 968 372 968 Z M313 765 L228 765 L229 775 L355 898 L472 898 L550 775 L550 765 L466 765 L404 837 L313 765 Z M161 724 L602 724 L578 602 L277 602 L243 432 L464 432 L440 308 L219 308 L182 122 L499 122 L475 0 L20 0 L161 724 Z " />
<glyph glyph-name="Edieresis" unicode="&#xcb;" horiz-adv-x="553" d="M303 782 Q272 782 255.5 798.5 Q239 815 239 846 Q239 881 260 903 Q281 925 316 925 Q347 925 363.5 908 Q380 891 380 860 Q380 825 359.5 803.5 Q339 782 303 782 Z M497 782 Q466 782 449.5 798.5 Q433 815 433 846 Q433 881 454 903 Q475 925 510 925 Q541 925 557.5 908 Q574 891 574 860 Q574 825 553.5 803.5 Q533 782 497 782 Z M277 602 L243 432 L464 432 L440 308 L219 308 L182 122 L499 122 L475 0 L20 0 L161 724 L602 724 L578 602 L277 602 Z " />
<glyph glyph-name="Edotaccent" unicode="&#x116;" horiz-adv-x="553" d="M401 787 Q366 787 347.5 805 Q329 823 329 857 Q329 895 352 919 Q375 943 415 943 Q449 943 468 924.5 Q487 906 487 872 Q487 834 464 810.5 Q441 787 401 787 Z M277 602 L243 432 L464 432 L440 308 L219 308 L182 122 L499 122 L475 0 L20 0 L161 724 L602 724 L578 602 L277 602 Z " />
<glyph glyph-name="uni1EB8" unicode="&#x1eb8;" horiz-adv-x="553" d="M277 602 L243 432 L464 432 L440 308 L219 308 L182 122 L499 122 L475 0 L20 0 L161 724 L602 724 L578 602 L277 602 Z M214 -226 Q179 -226 160.5 -208 Q142 -190 142 -156 Q142 -118 165 -94 Q188 -70 228 -70 Q262 -70 281 -88.5 Q300 -107 300 -141 Q300 -179 277 -202.5 Q254 -226 214 -226 Z " />
<glyph glyph-name="Egrave" unicode="&#xc8;" horiz-adv-x="553" d="M366 781 L226 914 L227 926 L370 926 L472 793 L471 781 L366 781 Z M277 602 L243 432 L464 432 L440 308 L219 308 L182 122 L499 122 L475 0 L20 0 L161 724 L602 724 L578 602 L277 602 Z " />
<glyph glyph-name="uni1EBA" unicode="&#x1eba;" horiz-adv-x="553" d="M400 883 Q371 883 331 864 L307 929 Q333 944 365.5 951.5 Q398 959 428 959 Q477 959 503.5 940 Q530 921 530 887 Q530 858 514.5 843.5 Q499 829 471 816 Q452 807 444 801 Q436 795 436 785 L436 778 L351 783 L351 794 Q351 822 363 834.5 Q375 847 397 857 Q408 862 412.5 865.5 Q417 869 417 874 Q417 883 400 883 Z M277 602 L243 432 L464 432 L440 308 L219 308 L182 122 L499 122 L475 0 L20 0 L161 724 L602 724 L578 602 L277 602 Z " />
<glyph glyph-name="Emacron" unicode="&#x112;" horiz-adv-x="553" d="M556 807 L238 807 L255 897 L573 897 L556 807 Z M277 602 L243 432 L464 432 L440 308 L219 308 L182 122 L499 122 L475 0 L20 0 L161 724 L602 724 L578 602 L277 602 Z " />
<glyph glyph-name="Eogonek" unicode="&#x118;" horiz-adv-x="553" d="M277 602 L243 432 L464 432 L440 308 L219 308 L182 122 L499 122 L475 0 Q430 -27 401 -58.5 Q372 -90 372 -118 Q372 -144 402 -144 Q427 -144 459 -128 L485 -202 Q436 -230 371 -230 Q317 -230 287.5 -206 Q258 -182 258 -139 Q258 -98 284.5 -61 Q311 -24 359 0 L20 0 L161 724 L602 724 L578 602 L277 602 Z " />
<glyph glyph-name="uni1EBC" unicode="&#x1ebc;" horiz-adv-x="553" d="M345 843 Q327 843 311.5 826 Q296 809 289 782 L216 792 Q246 937 346 937 Q374 937 392.5 927.5 Q411 918 431 901 Q444 890 453.5 884.5 Q463 879 473 879 Q490 879 505.5 895.5 Q521 912 529 940 L602 930 Q586 857 552 821 Q518 785 470 785 Q442 785 424 794.5 Q406 804 386 821 Q373 832 364 837.5 Q355 843 345 843 Z M161 724 L602 724 L578 602 L277 602 L243 432 L464 432 L440 308 L219 308 L182 122 L499 122 L475 0 L20 0 L161 724 Z " />
<glyph glyph-name="F" unicode="F" horiz-adv-x="516" d="M277 602 L240 411 L478 411 L454 287 L215 287 L159 0 L20 0 L161 724 L594 724 L570 602 L277 602 Z " />
<glyph glyph-name="G" unicode="G" horiz-adv-x="639" d="M364 415 L614 415 L542 46 Q497 18 437 3 Q377 -12 316 -12 Q189 -12 119.5 56.5 Q50 125 50 250 Q50 385 98 495.5 Q146 606 239 671 Q332 736 462 736 Q522 736 572 721 Q622 706 654 679 L600 570 Q518 614 436 614 Q354 614 299 566 Q244 518 217 439.5 Q190 361 190 268 Q190 110 340 110 Q381 110 418 119 L451 294 L341 294 L364 415 Z " />
<glyph glyph-name="Gbreve" unicode="&#x11e;" horiz-adv-x="639" d="M454 781 Q388 781 352.5 817.5 Q317 854 317 915 Q317 934 320 953 L395 948 Q390 877 458 877 Q495 877 521.5 897 Q548 917 560 953 L634 948 Q594 781 454 781 Z M364 415 L614 415 L542 46 Q497 18 437 3 Q377 -12 316 -12 Q189 -12 119.5 56.5 Q50 125 50 250 Q50 385 98 495.5 Q146 606 239 671 Q332 736 462 736 Q522 736 572 721 Q622 706 654 679 L600 570 Q518 614 436 614 Q354 614 299 566 Q244 518 217 439.5 Q190 361 190 268 Q190 110 340 110 Q381 110 418 119 L451 294 L341 294 L364 415 Z " />
<glyph glyph-name="Gcaron" unicode="&#x1e6;" horiz-adv-x="639" d="M381 781 L294 914 L295 926 L390 926 L455 847 L551 926 L650 926 L649 914 L511 781 L381 781 Z M364 415 L614 415 L542 46 Q497 18 437 3 Q377 -12 316 -12 Q189 -12 119.5 56.5 Q50 125 50 250 Q50 385 98 495.5 Q146 606 239 671 Q332 736 462 736 Q522 736 572 721 Q622 706 654 679 L600 570 Q518 614 436 614 Q354 614 299 566 Q244 518 217 439.5 Q190 361 190 268 Q190 110 340 110 Q381 110 418 119 L451 294 L341 294 L364 415 Z " />
<glyph glyph-name="Gcircumflex" unicode="&#x11c;" horiz-adv-x="639" d="M365 781 L266 781 L267 793 L405 926 L535 926 L622 793 L621 781 L526 781 L461 860 L365 781 Z M364 415 L614 415 L542 46 Q497 18 437 3 Q377 -12 316 -12 Q189 -12 119.5 56.5 Q50 125 50 250 Q50 385 98 495.5 Q146 606 239 671 Q332 736 462 736 Q522 736 572 721 Q622 706 654 679 L600 570 Q518 614 436 614 Q354 614 299 566 Q244 518 217 439.5 Q190 361 190 268 Q190 110 340 110 Q381 110 418 119 L451 294 L341 294 L364 415 Z " />
<glyph glyph-name="Gcommaaccent" unicode="&#x122;" horiz-adv-x="639" d="M364 415 L614 415 L542 46 Q497 18 437 3 Q377 -12 316 -12 Q189 -12 119.5 56.5 Q50 125 50 250 Q50 385 98 495.5 Q146 606 239 671 Q332 736 462 736 Q522 736 572 721 Q622 706 654 679 L600 570 Q518 614 436 614 Q354 614 299 566 Q244 518 217 439.5 Q190 361 190 268 Q190 110 340 110 Q381 110 418 119 L451 294 L341 294 L364 415 Z M145 -232 Q175 -204 189.5 -177.5 Q204 -151 213 -105 Q218 -83 219 -60 L336 -70 Q336 -97 330 -126 Q320 -172 289.5 -209.5 Q259 -247 192 -291 L145 -232 Z " />
<glyph glyph-name="Gdotaccent" unicode="&#x120;" horiz-adv-x="639" d="M452 787 Q417 787 398.5 805 Q380 823 380 857 Q380 895 403 919 Q426 943 466 943 Q500 943 519 924.5 Q538 906 538 872 Q538 834 515 810.5 Q492 787 452 787 Z M364 415 L614 415 L542 46 Q497 18 437 3 Q377 -12 316 -12 Q189 -12 119.5 56.5 Q50 125 50 250 Q50 385 98 495.5 Q146 606 239 671 Q332 736 462 736 Q522 736 572 721 Q622 706 654 679 L600 570 Q518 614 436 614 Q354 614 299 566 Q244 518 217 439.5 Q190 361 190 268 Q190 110 340 110 Q381 110 418 119 L451 294 L341 294 L364 415 Z " />
<glyph glyph-name="uni1E20" unicode="&#x1e20;" horiz-adv-x="639" d="M607 807 L289 807 L306 897 L624 897 L607 807 Z M364 415 L614 415 L542 46 Q497 18 437 3 Q377 -12 316 -12 Q189 -12 119.5 56.5 Q50 125 50 250 Q50 385 98 495.5 Q146 606 239 671 Q332 736 462 736 Q522 736 572 721 Q622 706 654 679 L600 570 Q518 614 436 614 Q354 614 299 566 Q244 518 217 439.5 Q190 361 190 268 Q190 110 340 110 Q381 110 418 119 L451 294 L341 294 L364 415 Z " />
<glyph glyph-name="H" unicode="H" horiz-adv-x="676" d="M691 724 L550 0 L411 0 L471 307 L219 307 L159 0 L20 0 L161 724 L300 724 L243 429 L495 429 L552 724 L691 724 Z " />
<glyph glyph-name="Hbar" unicode="&#x126;" horiz-adv-x="676" d="M711 522 L652 522 L550 0 L411 0 L471 307 L219 307 L159 0 L20 0 L122 522 L61 522 L81 622 L141 622 L161 724 L300 724 L280 622 L532 622 L552 724 L691 724 L671 622 L731 622 L711 522 Z M513 522 L261 522 L243 429 L495 429 L513 522 Z " />
<glyph glyph-name="uni1E2A" unicode="&#x1e2a;" horiz-adv-x="676" d="M691 724 L550 0 L411 0 L471 307 L219 307 L159 0 L20 0 L161 724 L300 724 L243 429 L495 429 L552 724 L691 724 Z M251 -226 Q185 -226 149.5 -189.5 Q114 -153 114 -92 Q114 -74 117 -54 L192 -59 Q187 -130 255 -130 Q292 -130 318.5 -110 Q345 -90 357 -54 L431 -59 Q391 -226 251 -226 Z " />
<glyph glyph-name="Hcircumflex" unicode="&#x124;" horiz-adv-x="676" d="M358 781 L259 781 L260 793 L398 926 L528 926 L615 793 L614 781 L519 781 L454 860 L358 781 Z M691 724 L550 0 L411 0 L471 307 L219 307 L159 0 L20 0 L161 724 L300 724 L243 429 L495 429 L552 724 L691 724 Z " />
<glyph glyph-name="uni1E24" unicode="&#x1e24;" horiz-adv-x="676" d="M691 724 L550 0 L411 0 L471 307 L219 307 L159 0 L20 0 L161 724 L300 724 L243 429 L495 429 L552 724 L691 724 Z M249 -226 Q214 -226 195.5 -208 Q177 -190 177 -156 Q177 -118 200 -94 Q223 -70 263 -70 Q297 -70 316 -88.5 Q335 -107 335 -141 Q335 -179 312 -202.5 Q289 -226 249 -226 Z " />
<glyph glyph-name="I" unicode="I" horiz-adv-x="289" d="M163 724 L302 724 L161 0 L22 0 L163 724 Z " />
<glyph glyph-name="IJ" unicode="&#x132;" horiz-adv-x="678" d="M161 724 L300 724 L159 0 L20 0 L161 724 Z M368 -12 Q322 -12 282.5 0 Q243 12 214 32 L275 136 Q322 111 364 111 Q401 111 424.5 132.5 Q448 154 456 196 L559 724 L698 724 L591 175 Q573 83 516 35.5 Q459 -12 368 -12 Z " />
<glyph glyph-name="Iacute" unicode="&#xcd;" horiz-adv-x="289" d="M156 793 L318 926 L473 926 L472 914 L271 781 L155 781 L156 793 Z M163 724 L302 724 L161 0 L22 0 L163 724 Z " />
<glyph glyph-name="uni01CF" unicode="&#x1cf;" horiz-adv-x="289" d="M449 926 L448 914 L310 781 L180 781 L93 914 L94 926 L189 926 L254 847 L350 926 L449 926 Z M163 724 L302 724 L161 0 L22 0 L163 724 Z " />
<glyph glyph-name="Icircumflex" unicode="&#xce;" horiz-adv-x="289" d="M421 793 L420 781 L325 781 L260 860 L164 781 L65 781 L66 793 L204 926 L334 926 L421 793 Z M163 724 L302 724 L161 0 L22 0 L163 724 Z " />
<glyph glyph-name="Idieresis" unicode="&#xcf;" horiz-adv-x="289" d="M153 782 Q122 782 105.5 798.5 Q89 815 89 846 Q89 881 110 903 Q131 925 166 925 Q197 925 213.5 908 Q230 891 230 860 Q230 825 209.5 803.5 Q189 782 153 782 Z M347 782 Q316 782 299.5 798.5 Q283 815 283 846 Q283 881 304 903 Q325 925 360 925 Q391 925 407.5 908 Q424 891 424 860 Q424 825 403.5 803.5 Q383 782 347 782 Z M163 724 L302 724 L161 0 L22 0 L163 724 Z " />
<glyph glyph-name="Idot" unicode="&#x130;" horiz-adv-x="289" d="M251 787 Q216 787 197.5 805 Q179 823 179 857 Q179 895 202 919 Q225 943 265 943 Q299 943 318 924.5 Q337 906 337 872 Q337 834 314 810.5 Q291 787 251 787 Z M163 724 L302 724 L161 0 L22 0 L163 724 Z " />
<glyph glyph-name="uni1ECA" unicode="&#x1eca;" horiz-adv-x="289" d="M163 724 L302 724 L161 0 L22 0 L163 724 Z M55 -226 Q20 -226 1.5 -208 Q-17 -190 -17 -156 Q-17 -118 6 -94 Q29 -70 69 -70 Q103 -70 122 -88.5 Q141 -107 141 -141 Q141 -179 118 -202.5 Q95 -226 55 -226 Z " />
<glyph glyph-name="Igrave" unicode="&#xcc;" horiz-adv-x="289" d="M76 914 L77 926 L220 926 L322 793 L321 781 L216 781 L76 914 Z M163 724 L302 724 L161 0 L22 0 L163 724 Z " />
<glyph glyph-name="uni1EC8" unicode="&#x1ec8;" horiz-adv-x="289" d="M201 783 L201 794 Q201 822 213 834.5 Q225 847 247 857 Q258 862 262.5 865.5 Q267 869 267 874 Q267 883 250 883 Q221 883 181 864 L157 929 Q183 944 215.5 951.5 Q248 959 278 959 Q327 959 353.5 940 Q380 921 380 887 Q380 858 364.5 843.5 Q349 829 321 816 Q302 807 294 801 Q286 795 286 785 L286 778 L201 783 Z M163 724 L302 724 L161 0 L22 0 L163 724 Z " />
<glyph glyph-name="Imacron" unicode="&#x12a;" horiz-adv-x="289" d="M105 897 L423 897 L406 807 L88 807 L105 897 Z M163 724 L302 724 L161 0 L22 0 L163 724 Z " />
<glyph glyph-name="Iogonek" unicode="&#x12e;" horiz-adv-x="289" d="M101 -144 Q126 -144 158 -128 L184 -202 Q135 -230 70 -230 Q16 -230 -13.5 -206 Q-43 -182 -43 -139 Q-43 -99 -19 -61.5 Q5 -24 48 0 L22 0 L163 724 L302 724 L161 0 Q123 -28 97 -60 Q71 -92 71 -118 Q71 -144 101 -144 Z " />
<glyph glyph-name="Itilde" unicode="&#x128;" horiz-adv-x="289" d="M307 785 Q278 785 263.5 795 Q249 805 238 822 Q229 834 223 839 Q217 844 207 844 Q188 844 172 826.5 Q156 809 149 782 L78 792 Q106 937 208 937 Q236 937 250 927.5 Q264 918 277 900 Q285 889 291 883.5 Q297 878 308 878 Q326 878 342.5 895 Q359 912 367 940 L438 930 Q409 785 307 785 Z M163 724 L302 724 L161 0 L22 0 L163 724 Z " />
<glyph glyph-name="J" unicode="J" horiz-adv-x="452" d="M125 -12 Q71 -12 27 3.5 Q-17 19 -45 47 L15 145 Q68 111 123 111 Q167 111 194.5 133 Q222 155 230 196 L333 724 L472 724 L365 175 Q347 83 286 35.5 Q225 -12 125 -12 Z " />
<glyph glyph-name="Jcircumflex" unicode="&#x134;" horiz-adv-x="452" d="M591 793 L590 781 L495 781 L430 860 L334 781 L235 781 L236 793 L374 926 L504 926 L591 793 Z M333 724 L472 724 L365 175 Q347 83 286 35.5 Q225 -12 125 -12 Q71 -12 27 3.5 Q-17 19 -45 47 L15 145 Q68 111 123 111 Q167 111 194.5 133 Q222 155 230 196 L333 724 Z " />
<glyph glyph-name="K" unicode="K" horiz-adv-x="613" d="M393 405 L573 0 L416 0 L294 302 L199 203 L159 0 L20 0 L161 724 L300 724 L237 398 L540 724 L702 724 L393 405 Z " />
<glyph glyph-name="Kcommaaccent" unicode="&#x136;" horiz-adv-x="613" d="M393 405 L573 0 L416 0 L294 302 L199 203 L159 0 L20 0 L161 724 L300 724 L237 398 L540 724 L702 724 L393 405 Z M133 -232 Q163 -204 177.5 -177.5 Q192 -151 201 -105 Q206 -83 207 -60 L324 -70 Q324 -97 318 -126 Q308 -172 277.5 -209.5 Q247 -247 180 -291 L133 -232 Z " />
<glyph glyph-name="L" unicode="L" horiz-adv-x="507" d="M459 123 L435 0 L20 0 L161 724 L300 724 L182 123 L459 123 Z " />
<glyph glyph-name="Lacute" unicode="&#x139;" horiz-adv-x="507" d="M499 926 L498 914 L297 781 L181 781 L182 793 L344 926 L499 926 Z M182 123 L459 123 L435 0 L20 0 L161 724 L300 724 L182 123 Z " />
<glyph glyph-name="Lcaron" unicode="&#x13d;" horiz-adv-x="507" d="M522 770 L521 760 L443 540 L366 540 L411 770 L522 770 Z M182 123 L459 123 L435 0 L20 0 L161 724 L300 724 L182 123 Z " />
<glyph glyph-name="Lcommaaccent" unicode="&#x13b;" horiz-adv-x="507" d="M459 123 L435 0 L20 0 L161 724 L300 724 L182 123 L459 123 Z M88 -232 Q118 -204 132.5 -177.5 Q147 -151 156 -105 Q161 -83 162 -60 L279 -70 Q279 -97 273 -126 Q263 -172 232.5 -209.5 Q202 -247 135 -291 L88 -232 Z " />
<glyph glyph-name="Ldot" unicode="&#x13f;" horiz-adv-x="507" d="M459 123 L435 0 L20 0 L161 724 L300 724 L182 123 L459 123 Z M413 346 Q378 346 359.5 364 Q341 382 341 416 Q341 454 364 478 Q387 502 427 502 Q461 502 480 483.5 Q499 465 499 431 Q499 393 476 369.5 Q453 346 413 346 Z " />
<glyph glyph-name="uni1E36" unicode="&#x1e36;" horiz-adv-x="507" d="M459 123 L435 0 L20 0 L161 724 L300 724 L182 123 L459 123 Z M199 -226 Q164 -226 145.5 -208 Q127 -190 127 -156 Q127 -118 150 -94 Q173 -70 213 -70 Q247 -70 266 -88.5 Q285 -107 285 -141 Q285 -179 262 -202.5 Q239 -226 199 -226 Z " />
<glyph glyph-name="uni1E38" unicode="&#x1e38;" horiz-adv-x="507" d="M432 807 L114 807 L131 897 L449 897 L432 807 Z M459 123 L435 0 L20 0 L161 724 L300 724 L182 123 L459 123 Z M213 -70 Q247 -70 266 -88.5 Q285 -107 285 -141 Q285 -179 262 -202.5 Q239 -226 199 -226 Q164 -226 145.5 -208 Q127 -190 127 -156 Q127 -118 150 -94 Q173 -70 213 -70 Z " />
<glyph glyph-name="uni1E3A" unicode="&#x1e3a;" horiz-adv-x="507" d="M459 123 L435 0 L20 0 L161 724 L300 724 L182 123 L459 123 Z M58 -97 L376 -97 L359 -187 L41 -187 L58 -97 Z " />
<glyph glyph-name="Lslash" unicode="&#x141;" horiz-adv-x="507" d="M459 123 L435 0 L20 0 L65 230 L16 203 L5 203 L25 311 L87 343 L161 724 L300 724 L241 424 L431 526 L442 526 L422 418 L219 313 L182 123 L459 123 Z " />
<glyph glyph-name="M" unicode="M" horiz-adv-x="823" d="M838 724 L697 0 L562 0 L656 482 L458 141 L313 141 L251 504 L153 0 L20 0 L161 724 L328 724 L407 265 L669 724 L838 724 Z " />
<glyph glyph-name="uni1E42" unicode="&#x1e42;" horiz-adv-x="823" d="M838 724 L697 0 L562 0 L656 482 L458 141 L313 141 L251 504 L153 0 L20 0 L161 724 L328 724 L407 265 L669 724 L838 724 Z M319 -226 Q284 -226 265.5 -208 Q247 -190 247 -156 Q247 -118 270 -94 Q293 -70 333 -70 Q367 -70 386 -88.5 Q405 -107 405 -141 Q405 -179 382 -202.5 Q359 -226 319 -226 Z " />
<glyph glyph-name="N" unicode="N" horiz-adv-x="697" d="M712 724 L571 0 L437 0 L253 492 L157 0 L20 0 L161 724 L295 724 L479 233 L575 724 L712 724 Z " />
<glyph glyph-name="Nacute" unicode="&#x143;" horiz-adv-x="697" d="M475 781 L359 781 L360 793 L522 926 L677 926 L676 914 L475 781 Z M712 724 L571 0 L437 0 L253 492 L157 0 L20 0 L161 724 L295 724 L479 233 L575 724 L712 724 Z " />
<glyph glyph-name="Ncaron" unicode="&#x147;" horiz-adv-x="697" d="M384 781 L297 914 L298 926 L393 926 L458 847 L554 926 L653 926 L652 914 L514 781 L384 781 Z M712 724 L571 0 L437 0 L253 492 L157 0 L20 0 L161 724 L295 724 L479 233 L575 724 L712 724 Z " />
<glyph glyph-name="Ncommaaccent" unicode="&#x145;" horiz-adv-x="697" d="M712 724 L571 0 L437 0 L253 492 L157 0 L20 0 L161 724 L295 724 L479 233 L575 724 L712 724 Z M148 -232 Q178 -204 192.5 -177.5 Q207 -151 216 -105 Q221 -83 222 -60 L339 -70 Q339 -97 333 -126 Q323 -172 292.5 -209.5 Q262 -247 195 -291 L148 -232 Z " />
<glyph glyph-name="uni1E44" unicode="&#x1e44;" horiz-adv-x="697" d="M455 787 Q420 787 401.5 805 Q383 823 383 857 Q383 895 406 919 Q429 943 469 943 Q503 943 522 924.5 Q541 906 541 872 Q541 834 518 810.5 Q495 787 455 787 Z M712 724 L571 0 L437 0 L253 492 L157 0 L20 0 L161 724 L295 724 L479 233 L575 724 L712 724 Z " />
<glyph glyph-name="uni1E46" unicode="&#x1e46;" horiz-adv-x="697" d="M712 724 L571 0 L437 0 L253 492 L157 0 L20 0 L161 724 L295 724 L479 233 L575 724 L712 724 Z M259 -226 Q224 -226 205.5 -208 Q187 -190 187 -156 Q187 -118 210 -94 Q233 -70 273 -70 Q307 -70 326 -88.5 Q345 -107 345 -141 Q345 -179 322 -202.5 Q299 -226 259 -226 Z " />
<glyph glyph-name="uni1E48" unicode="&#x1e48;" horiz-adv-x="697" d="M712 724 L571 0 L437 0 L253 492 L157 0 L20 0 L161 724 L295 724 L479 233 L575 724 L712 724 Z M118 -97 L436 -97 L419 -187 L101 -187 L118 -97 Z " />
<glyph glyph-name="Ntilde" unicode="&#xd1;" horiz-adv-x="697" d="M399 843 Q381 843 365.5 826 Q350 809 343 782 L270 792 Q300 937 400 937 Q428 937 446.5 927.5 Q465 918 485 901 Q498 890 507.5 884.5 Q517 879 527 879 Q544 879 559.5 895.5 Q575 912 583 940 L656 930 Q640 857 606 821 Q572 785 524 785 Q496 785 478 794.5 Q460 804 440 821 Q427 832 418 837.5 Q409 843 399 843 Z M712 724 L571 0 L437 0 L253 492 L157 0 L20 0 L161 724 L295 724 L479 233 L575 724 L712 724 Z " />
<glyph glyph-name="O" unicode="O" horiz-adv-x="685" d="M287 -12 Q174 -12 111.5 52 Q49 116 49 233 Q49 371 91.5 485.5 Q134 600 220.5 668 Q307 736 433 736 Q546 736 608.5 672 Q671 608 671 491 Q671 353 628.5 238.5 Q586 124 499.5 56 Q413 -12 287 -12 Z M311 110 Q383 110 433 162.5 Q483 215 507 297 Q531 379 531 468 Q531 614 409 614 Q337 614 287 561.5 Q237 509 213 427 Q189 345 189 256 Q189 110 311 110 Z " />
<glyph glyph-name="Oacute" unicode="&#xd3;" horiz-adv-x="685" d="M355 793 L517 926 L672 926 L671 914 L470 781 L354 781 L355 793 Z M287 -12 Q174 -12 111.5 52 Q49 116 49 233 Q49 371 91.5 485.5 Q134 600 220.5 668 Q307 736 433 736 Q546 736 608.5 672 Q671 608 671 491 Q671 353 628.5 238.5 Q586 124 499.5 56 Q413 -12 287 -12 Z M311 110 Q383 110 433 162.5 Q483 215 507 297 Q531 379 531 468 Q531 614 409 614 Q337 614 287 561.5 Q237 509 213 427 Q189 345 189 256 Q189 110 311 110 Z " />
<glyph glyph-name="uni01D1" unicode="&#x1d1;" horiz-adv-x="685" d="M379 781 L292 914 L293 926 L388 926 L453 847 L549 926 L648 926 L647 914 L509 781 L379 781 Z M433 736 Q546 736 608.5 672 Q671 608 671 491 Q671 353 628.5 238.5 Q586 124 499.5 56 Q413 -12 287 -12 Q174 -12 111.5 52 Q49 116 49 233 Q49 371 91.5 485.5 Q134 600 220.5 668 Q307 736 433 736 Z M311 110 Q383 110 433 162.5 Q483 215 507 297 Q531 379 531 468 Q531 614 409 614 Q337 614 287 561.5 Q237 509 213 427 Q189 345 189 256 Q189 110 311 110 Z " />
<glyph glyph-name="Ocircumflex" unicode="&#xd4;" horiz-adv-x="685" d="M363 781 L264 781 L265 793 L403 926 L533 926 L620 793 L619 781 L524 781 L459 860 L363 781 Z M433 736 Q546 736 608.5 672 Q671 608 671 491 Q671 353 628.5 238.5 Q586 124 499.5 56 Q413 -12 287 -12 Q174 -12 111.5 52 Q49 116 49 233 Q49 371 91.5 485.5 Q134 600 220.5 668 Q307 736 433 736 Z M311 110 Q383 110 433 162.5 Q483 215 507 297 Q531 379 531 468 Q531 614 409 614 Q337 614 287 561.5 Q237 509 213 427 Q189 345 189 256 Q189 110 311 110 Z " />
<glyph glyph-name="uni1ED0" unicode="&#x1ed0;" horiz-adv-x="685" d="M793 1032 L792 1022 L670 895 L580 895 L581 905 L674 1032 L793 1032 Z M371 785 L279 785 L280 795 L407 934 L531 934 L604 795 L603 785 L515 785 L459 866 L371 785 Z M433 736 Q546 736 608.5 672 Q671 608 671 491 Q671 353 628.5 238.5 Q586 124 499.5 56 Q413 -12 287 -12 Q174 -12 111.5 52 Q49 116 49 233 Q49 371 91.5 485.5 Q134 600 220.5 668 Q307 736 433 736 Z M311 110 Q383 110 433 162.5 Q483 215 507 297 Q531 379 531 468 Q531 614 409 614 Q337 614 287 561.5 Q237 509 213 427 Q189 345 189 256 Q189 110 311 110 Z " />
<glyph glyph-name="uni1ED8" unicode="&#x1ed8;" horiz-adv-x="685" d="M363 781 L264 781 L265 793 L403 926 L533 926 L620 793 L619 781 L524 781 L459 860 L363 781 Z M433 736 Q546 736 608.5 672 Q671 608 671 491 Q671 353 628.5 238.5 Q586 124 499.5 56 Q413 -12 287 -12 Q174 -12 111.5 52 Q49 116 49 233 Q49 371 91.5 485.5 Q134 600 220.5 668 Q307 736 433 736 Z M311 110 Q383 110 433 162.5 Q483 215 507 297 Q531 379 531 468 Q531 614 409 614 Q337 614 287 561.5 Q237 509 213 427 Q189 345 189 256 Q189 110 311 110 Z M268 -70 Q302 -70 321 -88.5 Q340 -107 340 -141 Q340 -179 317 -202.5 Q294 -226 254 -226 Q219 -226 200.5 -208 Q182 -190 182 -156 Q182 -118 205 -94 Q228 -70 268 -70 Z " />
<glyph glyph-name="uni1ED2" unicode="&#x1ed2;" horiz-adv-x="685" d="M257 897 L190 1024 L191 1034 L302 1034 L339 907 L338 897 L257 897 Z M280 795 L407 934 L531 934 L604 795 L603 785 L515 785 L459 866 L371 785 L279 785 L280 795 Z M433 736 Q546 736 608.5 672 Q671 608 671 491 Q671 353 628.5 238.5 Q586 124 499.5 56 Q413 -12 287 -12 Q174 -12 111.5 52 Q49 116 49 233 Q49 371 91.5 485.5 Q134 600 220.5 668 Q307 736 433 736 Z M311 110 Q383 110 433 162.5 Q483 215 507 297 Q531 379 531 468 Q531 614 409 614 Q337 614 287 561.5 Q237 509 213 427 Q189 345 189 256 Q189 110 311 110 Z " />
<glyph glyph-name="uni1ED4" unicode="&#x1ed4;" horiz-adv-x="685" d="M659 1043 Q700 1043 722 1025.5 Q744 1008 744 976 Q744 948 730.5 935 Q717 922 693 911 Q679 905 673 900.5 Q667 896 667 889 L667 884 L594 889 L594 900 Q594 922 603.5 932 Q613 942 630 951 Q640 956 644.5 959.5 Q649 963 649 970 Q649 979 636 979 Q613 979 584 964 L563 1019 Q608 1043 659 1043 Z M371 785 L279 785 L280 795 L407 934 L531 934 L604 795 L603 785 L515 785 L459 866 L371 785 Z M433 736 Q546 736 608.5 672 Q671 608 671 491 Q671 353 628.5 238.5 Q586 124 499.5 56 Q413 -12 287 -12 Q174 -12 111.5 52 Q49 116 49 233 Q49 371 91.5 485.5 Q134 600 220.5 668 Q307 736 433 736 Z M311 110 Q383 110 433 162.5 Q483 215 507 297 Q531 379 531 468 Q531 614 409 614 Q337 614 287 561.5 Q237 509 213 427 Q189 345 189 256 Q189 110 311 110 Z " />
<glyph glyph-name="uni1ED6" unicode="&#x1ed6;" horiz-adv-x="685" d="M421 968 Q401 968 385.5 954.5 Q370 941 363 918 L305 928 Q328 1045 426 1045 Q453 1045 468 1037.5 Q483 1030 498 1016 Q509 1006 516.5 1001.5 Q524 997 536 997 Q555 997 571.5 1010.5 Q588 1024 595 1047 L653 1037 Q630 920 531 920 Q504 920 489 927.5 Q474 935 460 949 Q449 959 441 963.5 Q433 968 421 968 Z M362 765 L277 765 L278 775 L404 898 L521 898 L599 775 L599 765 L515 765 L453 837 L362 765 Z M433 736 Q546 736 608.5 672 Q671 608 671 491 Q671 353 628.5 238.5 Q586 124 499.5 56 Q413 -12 287 -12 Q174 -12 111.5 52 Q49 116 49 233 Q49 371 91.5 485.5 Q134 600 220.5 668 Q307 736 433 736 Z M311 110 Q383 110 433 162.5 Q483 215 507 297 Q531 379 531 468 Q531 614 409 614 Q337 614 287 561.5 Q237 509 213 427 Q189 345 189 256 Q189 110 311 110 Z " />
<glyph glyph-name="Odieresis" unicode="&#xd6;" horiz-adv-x="685" d="M352 782 Q321 782 304.5 798.5 Q288 815 288 846 Q288 881 309 903 Q330 925 365 925 Q396 925 412.5 908 Q429 891 429 860 Q429 825 408.5 803.5 Q388 782 352 782 Z M546 782 Q515 782 498.5 798.5 Q482 815 482 846 Q482 881 503 903 Q524 925 559 925 Q590 925 606.5 908 Q623 891 623 860 Q623 825 602.5 803.5 Q582 782 546 782 Z M287 -12 Q174 -12 111.5 52 Q49 116 49 233 Q49 371 91.5 485.5 Q134 600 220.5 668 Q307 736 433 736 Q546 736 608.5 672 Q671 608 671 491 Q671 353 628.5 238.5 Q586 124 499.5 56 Q413 -12 287 -12 Z M311 110 Q383 110 433 162.5 Q483 215 507 297 Q531 379 531 468 Q531 614 409 614 Q337 614 287 561.5 Q237 509 213 427 Q189 345 189 256 Q189 110 311 110 Z " />
<glyph glyph-name="uni1ECC" unicode="&#x1ecc;" horiz-adv-x="685" d="M287 -12 Q174 -12 111.5 52 Q49 116 49 233 Q49 371 91.5 485.5 Q134 600 220.5 668 Q307 736 433 736 Q546 736 608.5 672 Q671 608 671 491 Q671 353 628.5 238.5 Q586 124 499.5 56 Q413 -12 287 -12 Z M311 110 Q383 110 433 162.5 Q483 215 507 297 Q531 379 531 468 Q531 614 409 614 Q337 614 287 561.5 Q237 509 213 427 Q189 345 189 256 Q189 110 311 110 Z M254 -226 Q219 -226 200.5 -208 Q182 -190 182 -156 Q182 -118 205 -94 Q228 -70 268 -70 Q302 -70 321 -88.5 Q340 -107 340 -141 Q340 -179 317 -202.5 Q294 -226 254 -226 Z " />
<glyph glyph-name="Ograve" unicode="&#xd2;" horiz-adv-x="685" d="M275 914 L276 926 L419 926 L521 793 L520 781 L415 781 L275 914 Z M287 -12 Q174 -12 111.5 52 Q49 116 49 233 Q49 371 91.5 485.5 Q134 600 220.5 668 Q307 736 433 736 Q546 736 608.5 672 Q671 608 671 491 Q671 353 628.5 238.5 Q586 124 499.5 56 Q413 -12 287 -12 Z M311 110 Q383 110 433 162.5 Q483 215 507 297 Q531 379 531 468 Q531 614 409 614 Q337 614 287 561.5 Q237 509 213 427 Q189 345 189 256 Q189 110 311 110 Z " />
<glyph glyph-name="uni1ECE" unicode="&#x1ece;" horiz-adv-x="685" d="M400 783 L400 794 Q400 822 412 834.5 Q424 847 446 857 Q457 862 461.5 865.5 Q466 869 466 874 Q466 883 449 883 Q420 883 380 864 L356 929 Q382 944 414.5 951.5 Q447 959 477 959 Q526 959 552.5 940 Q579 921 579 887 Q579 858 563.5 843.5 Q548 829 520 816 Q501 807 493 801 Q485 795 485 785 L485 778 L400 783 Z M287 -12 Q174 -12 111.5 52 Q49 116 49 233 Q49 371 91.5 485.5 Q134 600 220.5 668 Q307 736 433 736 Q546 736 608.5 672 Q671 608 671 491 Q671 353 628.5 238.5 Q586 124 499.5 56 Q413 -12 287 -12 Z M311 110 Q383 110 433 162.5 Q483 215 507 297 Q531 379 531 468 Q531 614 409 614 Q337 614 287 561.5 Q237 509 213 427 Q189 345 189 256 Q189 110 311 110 Z " />
<glyph glyph-name="Ohorn" unicode="&#x1a0;" horiz-adv-x="685" d="M795 861 Q795 830 789 794 Q777 720 740.5 684.5 Q704 649 631 642 Q671 582 671 491 Q671 353 628.5 238.5 Q586 124 499.5 56 Q413 -12 287 -12 Q174 -12 111.5 52 Q49 116 49 233 Q49 371 91.5 485.5 Q134 600 220.5 668 Q307 736 433 736 Q461 736 479.5 732.5 Q498 729 522 723 Q554 714 579 714 Q622 714 644 736.5 Q666 759 676 814 Q681 839 682 868 L795 861 Z M311 110 Q383 110 433 162.5 Q483 215 507 297 Q531 379 531 468 Q531 614 409 614 Q337 614 287 561.5 Q237 509 213 427 Q189 345 189 256 Q189 110 311 110 Z " />
<glyph glyph-name="uni1EDA" unicode="&#x1eda;" horiz-adv-x="685" d="M470 781 L354 781 L355 793 L517 926 L672 926 L671 914 L470 781 Z M795 861 Q795 830 789 794 Q777 720 740.5 684.5 Q704 649 631 642 Q671 582 671 491 Q671 353 628.5 238.5 Q586 124 499.5 56 Q413 -12 287 -12 Q174 -12 111.5 52 Q49 116 49 233 Q49 371 91.5 485.5 Q134 600 220.5 668 Q307 736 433 736 Q461 736 479.5 732.5 Q498 729 522 723 Q554 714 579 714 Q622 714 644 736.5 Q666 759 676 814 Q681 839 682 868 L795 861 Z M311 110 Q383 110 433 162.5 Q483 215 507 297 Q531 379 531 468 Q531 614 409 614 Q337 614 287 561.5 Q237 509 213 427 Q189 345 189 256 Q189 110 311 110 Z " />
<glyph glyph-name="uni1EE2" unicode="&#x1ee2;" horiz-adv-x="685" d="M795 861 Q795 830 789 794 Q777 720 740.5 684.5 Q704 649 631 642 Q671 582 671 491 Q671 353 628.5 238.5 Q586 124 499.5 56 Q413 -12 287 -12 Q174 -12 111.5 52 Q49 116 49 233 Q49 371 91.5 485.5 Q134 600 220.5 668 Q307 736 433 736 Q461 736 479.5 732.5 Q498 729 522 723 Q554 714 579 714 Q622 714 644 736.5 Q666 759 676 814 Q681 839 682 868 L795 861 Z M311 110 Q383 110 433 162.5 Q483 215 507 297 Q531 379 531 468 Q531 614 409 614 Q337 614 287 561.5 Q237 509 213 427 Q189 345 189 256 Q189 110 311 110 Z M254 -226 Q219 -226 200.5 -208 Q182 -190 182 -156 Q182 -118 205 -94 Q228 -70 268 -70 Q302 -70 321 -88.5 Q340 -107 340 -141 Q340 -179 317 -202.5 Q294 -226 254 -226 Z " />
<glyph glyph-name="uni1EDC" unicode="&#x1edc;" horiz-adv-x="685" d="M415 781 L275 914 L276 926 L419 926 L521 793 L520 781 L415 781 Z M795 861 Q795 830 789 794 Q777 720 740.5 684.5 Q704 649 631 642 Q671 582 671 491 Q671 353 628.5 238.5 Q586 124 499.5 56 Q413 -12 287 -12 Q174 -12 111.5 52 Q49 116 49 233 Q49 371 91.5 485.5 Q134 600 220.5 668 Q307 736 433 736 Q461 736 479.5 732.5 Q498 729 522 723 Q554 714 579 714 Q622 714 644 736.5 Q666 759 676 814 Q681 839 682 868 L795 861 Z M311 110 Q383 110 433 162.5 Q483 215 507 297 Q531 379 531 468 Q531 614 409 614 Q337 614 287 561.5 Q237 509 213 427 Q189 345 189 256 Q189 110 311 110 Z " />
<glyph glyph-name="uni1EDE" unicode="&#x1ede;" horiz-adv-x="685" d="M449 883 Q420 883 380 864 L356 929 Q382 944 414.5 951.5 Q447 959 477 959 Q526 959 552.5 940 Q579 921 579 887 Q579 858 563.5 843.5 Q548 829 520 816 Q501 807 493 801 Q485 795 485 785 L485 778 L400 783 L400 794 Q400 822 412 834.5 Q424 847 446 857 Q457 862 461.5 865.5 Q466 869 466 874 Q466 883 449 883 Z M795 861 Q795 830 789 794 Q777 720 740.5 684.5 Q704 649 631 642 Q671 582 671 491 Q671 353 628.5 238.5 Q586 124 499.5 56 Q413 -12 287 -12 Q174 -12 111.5 52 Q49 116 49 233 Q49 371 91.5 485.5 Q134 600 220.5 668 Q307 736 433 736 Q461 736 479.5 732.5 Q498 729 522 723 Q554 714 579 714 Q622 714 644 736.5 Q666 759 676 814 Q681 839 682 868 L795 861 Z M311 110 Q383 110 433 162.5 Q483 215 507 297 Q531 379 531 468 Q531 614 409 614 Q337 614 287 561.5 Q237 509 213 427 Q189 345 189 256 Q189 110 311 110 Z " />
<glyph glyph-name="uni1EE0" unicode="&#x1ee0;" horiz-adv-x="685" d="M394 843 Q376 843 360.5 826 Q345 809 338 782 L265 792 Q295 937 395 937 Q423 937 441.5 927.5 Q460 918 480 901 Q493 890 502.5 884.5 Q512 879 522 879 Q539 879 554.5 895.5 Q570 912 578 940 L651 930 Q635 857 601 821 Q567 785 519 785 Q491 785 473 794.5 Q455 804 435 821 Q422 832 413 837.5 Q404 843 394 843 Z M795 861 Q795 830 789 794 Q777 720 740.5 684.5 Q704 649 631 642 Q671 582 671 491 Q671 353 628.5 238.5 Q586 124 499.5 56 Q413 -12 287 -12 Q174 -12 111.5 52 Q49 116 49 233 Q49 371 91.5 485.5 Q134 600 220.5 668 Q307 736 433 736 Q461 736 479.5 732.5 Q498 729 522 723 Q554 714 579 714 Q622 714 644 736.5 Q666 759 676 814 Q681 839 682 868 L795 861 Z M311 110 Q383 110 433 162.5 Q483 215 507 297 Q531 379 531 468 Q531 614 409 614 Q337 614 287 561.5 Q237 509 213 427 Q189 345 189 256 Q189 110 311 110 Z " />
<glyph glyph-name="Ohungarumlaut" unicode="&#x150;" horiz-adv-x="685" d="M295 793 L406 926 L534 926 L533 914 L386 781 L294 781 L295 793 Z M461 793 L574 926 L704 926 L703 914 L554 781 L460 781 L461 793 Z M287 -12 Q174 -12 111.5 52 Q49 116 49 233 Q49 371 91.5 485.5 Q134 600 220.5 668 Q307 736 433 736 Q546 736 608.5 672 Q671 608 671 491 Q671 353 628.5 238.5 Q586 124 499.5 56 Q413 -12 287 -12 Z M311 110 Q383 110 433 162.5 Q483 215 507 297 Q531 379 531 468 Q531 614 409 614 Q337 614 287 561.5 Q237 509 213 427 Q189 345 189 256 Q189 110 311 110 Z " />
<glyph glyph-name="Omacron" unicode="&#x14c;" horiz-adv-x="685" d="M304 897 L622 897 L605 807 L287 807 L304 897 Z M287 -12 Q174 -12 111.5 52 Q49 116 49 233 Q49 371 91.5 485.5 Q134 600 220.5 668 Q307 736 433 736 Q546 736 608.5 672 Q671 608 671 491 Q671 353 628.5 238.5 Q586 124 499.5 56 Q413 -12 287 -12 Z M311 110 Q383 110 433 162.5 Q483 215 507 297 Q531 379 531 468 Q531 614 409 614 Q337 614 287 561.5 Q237 509 213 427 Q189 345 189 256 Q189 110 311 110 Z " />
<glyph glyph-name="Oslash" unicode="&#xd8;" horiz-adv-x="688" d="M761 722 L650 607 Q671 557 671 491 Q671 353 628.5 238.5 Q586 124 499.5 56 Q413 -12 287 -12 Q181 -12 119 45 L69 -10 L-40 -10 L-39 2 L70 115 Q49 166 49 233 Q49 371 91.5 485.5 Q134 600 220.5 668 Q307 736 433 736 Q541 736 602 678 L653 734 L762 734 L761 722 Z M409 618 Q335 618 284.5 565.5 Q234 513 209.5 430 Q185 347 185 256 L185 237 L508 578 Q478 618 409 618 Z M311 106 Q385 106 435.5 158.5 Q486 211 510.5 294 Q535 377 535 468 L535 485 L212 145 Q242 106 311 106 Z " />
<glyph glyph-name="Otilde" unicode="&#xd5;" horiz-adv-x="685" d="M265 792 Q295 937 395 937 Q423 937 441.5 927.5 Q460 918 480 901 Q493 890 502.5 884.5 Q512 879 522 879 Q539 879 554.5 895.5 Q570 912 578 940 L651 930 Q635 857 601 821 Q567 785 519 785 Q491 785 473 794.5 Q455 804 435 821 Q422 832 413 837.5 Q404 843 394 843 Q376 843 360.5 826 Q345 809 338 782 L265 792 Z M287 -12 Q174 -12 111.5 52 Q49 116 49 233 Q49 371 91.5 485.5 Q134 600 220.5 668 Q307 736 433 736 Q546 736 608.5 672 Q671 608 671 491 Q671 353 628.5 238.5 Q586 124 499.5 56 Q413 -12 287 -12 Z M311 110 Q383 110 433 162.5 Q483 215 507 297 Q531 379 531 468 Q531 614 409 614 Q337 614 287 561.5 Q237 509 213 427 Q189 345 189 256 Q189 110 311 110 Z " />
<glyph glyph-name="OE" unicode="&#x152;" horiz-adv-x="923" d="M656 602 L624 432 L834 432 L810 308 L601 308 L566 122 L869 122 L845 0 L406 0 L289 0 Q174 0 111.5 62.5 Q49 125 49 240 Q49 375 91 484.5 Q133 594 218.5 659 Q304 724 429 724 L586 724 L971 724 L947 602 L656 602 Z M430 123 L523 601 L406 601 Q334 601 285.5 552.5 Q237 504 213.5 426.5 Q190 349 190 263 Q190 192 220.5 157.5 Q251 123 313 123 L430 123 Z " />
<glyph glyph-name="P" unicode="P" horiz-adv-x="573" d="M423 724 Q509 724 561 675.5 Q613 627 613 547 Q613 454 580 381.5 Q547 309 481 267.5 Q415 226 319 226 L203 226 L159 0 L20 0 L161 724 L300 724 L423 724 Z M350 348 Q413 348 442.5 398 Q472 448 472 521 Q472 602 392 602 L276 602 L227 348 L350 348 Z " />
<glyph glyph-name="Thorn" unicode="&#xde;" horiz-adv-x="593" d="M389 615 Q485 615 536 566 Q587 517 587 419 Q587 337 551.5 270 Q516 203 450.5 164 Q385 125 297 125 L183 125 L159 0 L20 0 L161 724 L300 724 L279 615 L389 615 Z M318 247 Q358 247 386.5 272.5 Q415 298 430 337 Q445 376 445 416 Q445 457 427 475 Q409 493 369 493 L255 493 L207 247 L318 247 Z " />
<glyph glyph-name="Q" unicode="Q" horiz-adv-x="685" d="M671 491 Q671 348 626 231 Q581 114 492 50 L588 -84 L486 -164 L382 -1 Q336 -12 287 -12 Q174 -12 111.5 52 Q49 116 49 233 Q49 371 91.5 485.5 Q134 600 220.5 668 Q307 736 433 736 Q546 736 608.5 672 Q671 608 671 491 Z M189 256 Q189 110 311 110 Q383 110 433 162.5 Q483 215 507 297 Q531 379 531 468 Q531 614 409 614 Q337 614 287 561.5 Q237 509 213 427 Q189 345 189 256 Z " />
<glyph glyph-name="R" unicode="R" horiz-adv-x="609" d="M604 553 Q604 449 558.5 373 Q513 297 427 267 L547 0 L391 0 L290 250 L208 250 L159 0 L20 0 L161 724 L300 724 L413 724 Q499 724 551.5 677 Q604 630 604 553 Z M230 367 L344 367 Q404 367 433.5 414 Q463 461 463 528 Q463 604 385 604 L277 604 L230 367 Z " />
<glyph glyph-name="Racute" unicode="&#x154;" horiz-adv-x="609" d="M633 926 L632 914 L431 781 L315 781 L316 793 L478 926 L633 926 Z M604 553 Q604 449 558.5 373 Q513 297 427 267 L547 0 L391 0 L290 250 L208 250 L159 0 L20 0 L161 724 L300 724 L413 724 Q499 724 551.5 677 Q604 630 604 553 Z M344 367 Q404 367 433.5 414 Q463 461 463 528 Q463 604 385 604 L277 604 L230 367 L344 367 Z " />
<glyph glyph-name="Rcaron" unicode="&#x158;" horiz-adv-x="609" d="M609 926 L608 914 L470 781 L340 781 L253 914 L254 926 L349 926 L414 847 L510 926 L609 926 Z M604 553 Q604 449 558.5 373 Q513 297 427 267 L547 0 L391 0 L290 250 L208 250 L159 0 L20 0 L161 724 L300 724 L413 724 Q499 724 551.5 677 Q604 630 604 553 Z M344 367 Q404 367 433.5 414 Q463 461 463 528 Q463 604 385 604 L277 604 L230 367 L344 367 Z " />
<glyph glyph-name="Rcommaaccent" unicode="&#x156;" horiz-adv-x="609" d="M604 553 Q604 449 558.5 373 Q513 297 427 267 L547 0 L391 0 L290 250 L208 250 L159 0 L20 0 L161 724 L300 724 L413 724 Q499 724 551.5 677 Q604 630 604 553 Z M230 367 L344 367 Q404 367 433.5 414 Q463 461 463 528 Q463 604 385 604 L277 604 L230 367 Z M123 -232 Q153 -204 167.5 -177.5 Q182 -151 191 -105 Q196 -83 197 -60 L314 -70 Q314 -97 308 -126 Q298 -172 267.5 -209.5 Q237 -247 170 -291 L123 -232 Z " />
<glyph glyph-name="uni1E5A" unicode="&#x1e5a;" horiz-adv-x="609" d="M604 553 Q604 449 558.5 373 Q513 297 427 267 L547 0 L391 0 L290 250 L208 250 L159 0 L20 0 L161 724 L300 724 L413 724 Q499 724 551.5 677 Q604 630 604 553 Z M230 367 L344 367 Q404 367 433.5 414 Q463 461 463 528 Q463 604 385 604 L277 604 L230 367 Z M234 -226 Q199 -226 180.5 -208 Q162 -190 162 -156 Q162 -118 185 -94 Q208 -70 248 -70 Q282 -70 301 -88.5 Q320 -107 320 -141 Q320 -179 297 -202.5 Q274 -226 234 -226 Z " />
<glyph glyph-name="uni1E5C" unicode="&#x1e5c;" horiz-adv-x="609" d="M566 807 L248 807 L265 897 L583 897 L566 807 Z M604 553 Q604 449 558.5 373 Q513 297 427 267 L547 0 L391 0 L290 250 L208 250 L159 0 L20 0 L161 724 L300 724 L413 724 Q499 724 551.5 677 Q604 630 604 553 Z M230 367 L344 367 Q404 367 433.5 414 Q463 461 463 528 Q463 604 385 604 L277 604 L230 367 Z M248 -70 Q282 -70 301 -88.5 Q320 -107 320 -141 Q320 -179 297 -202.5 Q274 -226 234 -226 Q199 -226 180.5 -208 Q162 -190 162 -156 Q162 -118 185 -94 Q208 -70 248 -70 Z " />
<glyph glyph-name="uni1E5E" unicode="&#x1e5e;" horiz-adv-x="609" d="M604 553 Q604 449 558.5 373 Q513 297 427 267 L547 0 L391 0 L290 250 L208 250 L159 0 L20 0 L161 724 L300 724 L413 724 Q499 724 551.5 677 Q604 630 604 553 Z M230 367 L344 367 Q404 367 433.5 414 Q463 461 463 528 Q463 604 385 604 L277 604 L230 367 Z M93 -97 L411 -97 L394 -187 L76 -187 L93 -97 Z " />
<glyph glyph-name="S" unicode="S" horiz-adv-x="539" d="M200 -11 Q136 -11 80 6 Q24 23 -16 55 L43 162 Q123 107 223 107 Q359 107 359 214 Q359 242 342 260 Q325 278 287 290 L213 313 Q76 355 76 483 Q76 558 111 615 Q146 672 210 703.5 Q274 735 358 735 Q410 735 463 722 Q516 709 563 685 L505 578 Q412 617 332 617 Q213 617 213 517 Q213 490 230 472 Q247 454 285 442 L360 419 Q496 377 496 248 Q496 171 459 112 Q422 53 355 21 Q288 -11 200 -11 Z " />
<glyph glyph-name="Sacute" unicode="&#x15a;" horiz-adv-x="539" d="M266 793 L428 926 L583 926 L582 914 L381 781 L265 781 L266 793 Z M200 -11 Q136 -11 80 6 Q24 23 -16 55 L43 162 Q123 107 223 107 Q359 107 359 214 Q359 242 342 260 Q325 278 287 290 L213 313 Q76 355 76 483 Q76 558 111 615 Q146 672 210 703.5 Q274 735 358 735 Q410 735 463 722 Q516 709 563 685 L505 578 Q412 617 332 617 Q213 617 213 517 Q213 490 230 472 Q247 454 285 442 L360 419 Q496 377 496 248 Q496 171 459 112 Q422 53 355 21 Q288 -11 200 -11 Z " />
<glyph glyph-name="Scaron" unicode="&#x160;" horiz-adv-x="539" d="M290 781 L203 914 L204 926 L299 926 L364 847 L460 926 L559 926 L558 914 L420 781 L290 781 Z M332 617 Q213 617 213 517 Q213 490 230 472 Q247 454 285 442 L360 419 Q496 377 496 248 Q496 171 459 112 Q422 53 355 21 Q288 -11 200 -11 Q136 -11 80 6 Q24 23 -16 55 L43 162 Q123 107 223 107 Q359 107 359 214 Q359 242 342 260 Q325 278 287 290 L213 313 Q76 355 76 483 Q76 558 111 615 Q146 672 210 703.5 Q274 735 358 735 Q410 735 463 722 Q516 709 563 685 L505 578 Q412 617 332 617 Z " />
<glyph glyph-name="Scedilla" unicode="&#x15e;" horiz-adv-x="539" d="M332 617 Q213 617 213 517 Q213 490 230 472 Q247 454 285 442 L360 419 Q496 377 496 248 Q496 141 427.5 72 Q359 3 244 -9 L206 -51 Q211 -50 221 -50 Q266 -50 291 -71.5 Q316 -93 316 -131 Q316 -181 275 -210.5 Q234 -240 171 -240 Q104 -240 53 -212 L75 -157 Q118 -171 151 -171 Q179 -171 196.5 -159.5 Q214 -148 214 -129 Q214 -107 187 -107 Q164 -107 144 -116 L117 -82 L158 -9 Q107 -5 62 12 Q17 29 -16 55 L43 162 Q123 107 223 107 Q359 107 359 214 Q359 242 342 260 Q325 278 287 290 L213 313 Q76 355 76 483 Q76 558 111 615 Q146 672 210 703.5 Q274 735 358 735 Q410 735 463 722 Q516 709 563 685 L505 578 Q412 617 332 617 Z " />
<glyph glyph-name="Scircumflex" unicode="&#x15c;" horiz-adv-x="539" d="M274 781 L175 781 L176 793 L314 926 L444 926 L531 793 L530 781 L435 781 L370 860 L274 781 Z M332 617 Q213 617 213 517 Q213 490 230 472 Q247 454 285 442 L360 419 Q496 377 496 248 Q496 171 459 112 Q422 53 355 21 Q288 -11 200 -11 Q136 -11 80 6 Q24 23 -16 55 L43 162 Q123 107 223 107 Q359 107 359 214 Q359 242 342 260 Q325 278 287 290 L213 313 Q76 355 76 483 Q76 558 111 615 Q146 672 210 703.5 Q274 735 358 735 Q410 735 463 722 Q516 709 563 685 L505 578 Q412 617 332 617 Z " />
<glyph glyph-name="Scommaaccent" unicode="&#x218;" horiz-adv-x="539" d="M200 -11 Q136 -11 80 6 Q24 23 -16 55 L43 162 Q123 107 223 107 Q359 107 359 214 Q359 242 342 260 Q325 278 287 290 L213 313 Q76 355 76 483 Q76 558 111 615 Q146 672 210 703.5 Q274 735 358 735 Q410 735 463 722 Q516 709 563 685 L505 578 Q412 617 332 617 Q213 617 213 517 Q213 490 230 472 Q247 454 285 442 L360 419 Q496 377 496 248 Q496 171 459 112 Q422 53 355 21 Q288 -11 200 -11 Z M68 -232 Q98 -204 112.5 -177.5 Q127 -151 136 -105 Q141 -83 142 -60 L259 -70 Q259 -97 253 -126 Q243 -172 212.5 -209.5 Q182 -247 115 -291 L68 -232 Z " />
<glyph glyph-name="uni1E60" unicode="&#x1e60;" horiz-adv-x="539" d="M361 787 Q326 787 307.5 805 Q289 823 289 857 Q289 895 312 919 Q335 943 375 943 Q409 943 428 924.5 Q447 906 447 872 Q447 834 424 810.5 Q401 787 361 787 Z M200 -11 Q136 -11 80 6 Q24 23 -16 55 L43 162 Q123 107 223 107 Q359 107 359 214 Q359 242 342 260 Q325 278 287 290 L213 313 Q76 355 76 483 Q76 558 111 615 Q146 672 210 703.5 Q274 735 358 735 Q410 735 463 722 Q516 709 563 685 L505 578 Q412 617 332 617 Q213 617 213 517 Q213 490 230 472 Q247 454 285 442 L360 419 Q496 377 496 248 Q496 171 459 112 Q422 53 355 21 Q288 -11 200 -11 Z " />
<glyph glyph-name="uni1E62" unicode="&#x1e62;" horiz-adv-x="539" d="M200 -11 Q136 -11 80 6 Q24 23 -16 55 L43 162 Q123 107 223 107 Q359 107 359 214 Q359 242 342 260 Q325 278 287 290 L213 313 Q76 355 76 483 Q76 558 111 615 Q146 672 210 703.5 Q274 735 358 735 Q410 735 463 722 Q516 709 563 685 L505 578 Q412 617 332 617 Q213 617 213 517 Q213 490 230 472 Q247 454 285 442 L360 419 Q496 377 496 248 Q496 171 459 112 Q422 53 355 21 Q288 -11 200 -11 Z M179 -226 Q144 -226 125.5 -208 Q107 -190 107 -156 Q107 -118 130 -94 Q153 -70 193 -70 Q227 -70 246 -88.5 Q265 -107 265 -141 Q265 -179 242 -202.5 Q219 -226 179 -226 Z " />
<glyph glyph-name="uni1E9E" unicode="&#x1e9e;" horiz-adv-x="655" d="M471 402 Q614 373 614 256 Q614 133 537.5 63.5 Q461 -6 322 -6 Q251 -6 202 14 L235 124 Q293 108 349 108 Q414 108 447.5 135 Q481 162 481 215 Q481 264 437.5 288.5 Q394 313 298 317 L318 421 Q385 448 420.5 483 Q456 518 456 570 Q456 626 382 626 Q326 626 293.5 597.5 Q261 569 250 510 L151 0 L12 0 L111 510 Q133 623 210.5 684.5 Q288 746 405 746 Q491 746 538.5 710 Q586 674 586 608 Q586 469 471 402 Z " />
<glyph glyph-name="uni018F" unicode="&#x18f;" horiz-adv-x="671" d="M391 735 Q524 735 589.5 665 Q655 595 655 454 Q655 335 611.5 228 Q568 121 484 55 Q400 -11 285 -11 Q170 -11 106.5 55 Q43 121 43 235 Q43 281 52.5 337 Q62 393 75 422 L516 418 Q517 427 517 445 Q517 526 483.5 566 Q450 606 378 606 Q338 606 288 594 Q238 582 187 561 L149 675 Q202 704 265 719.5 Q328 735 391 735 Z M294 114 Q364 114 414.5 165 Q465 216 492 296 L186 296 Q182 272 182 245 Q182 181 211 147.5 Q240 114 294 114 Z " />
<glyph glyph-name="T" unicode="T" horiz-adv-x="508" d="M559 601 L387 601 L270 0 L131 0 L248 601 L77 601 L101 724 L411 724 L583 724 L559 601 Z " />
<glyph glyph-name="Tcaron" unicode="&#x164;" horiz-adv-x="508" d="M290 781 L203 914 L204 926 L299 926 L364 847 L460 926 L559 926 L558 914 L420 781 L290 781 Z M559 601 L387 601 L270 0 L131 0 L248 601 L77 601 L101 724 L411 724 L583 724 L559 601 Z " />
<glyph glyph-name="uni0162" unicode="&#x162;" horiz-adv-x="508" d="M238 0 L192 -51 Q197 -50 207 -50 Q252 -50 277 -71.5 Q302 -93 302 -131 Q302 -181 261 -210.5 Q220 -240 157 -240 Q90 -240 39 -212 L61 -157 Q104 -171 137 -171 Q165 -171 182.5 -159.5 Q200 -148 200 -129 Q200 -107 173 -107 Q150 -107 130 -116 L103 -82 L150 0 L131 0 L248 601 L77 601 L101 724 L411 724 L583 724 L559 601 L387 601 L270 0 L238 0 Z " />
<glyph glyph-name="uni021A" unicode="&#x21a;" horiz-adv-x="508" d="M559 601 L387 601 L270 0 L131 0 L248 601 L77 601 L101 724 L411 724 L583 724 L559 601 Z M54 -232 Q84 -204 98.5 -177.5 Q113 -151 122 -105 Q127 -83 128 -60 L245 -70 Q245 -97 239 -126 Q229 -172 198.5 -209.5 Q168 -247 101 -291 L54 -232 Z " />
<glyph glyph-name="uni1E6C" unicode="&#x1e6c;" horiz-adv-x="508" d="M559 601 L387 601 L270 0 L131 0 L248 601 L77 601 L101 724 L411 724 L583 724 L559 601 Z M165 -226 Q130 -226 111.5 -208 Q93 -190 93 -156 Q93 -118 116 -94 Q139 -70 179 -70 Q213 -70 232 -88.5 Q251 -107 251 -141 Q251 -179 228 -202.5 Q205 -226 165 -226 Z " />
<glyph glyph-name="uni1E6E" unicode="&#x1e6e;" horiz-adv-x="508" d="M559 601 L387 601 L270 0 L131 0 L248 601 L77 601 L101 724 L411 724 L583 724 L559 601 Z M24 -97 L342 -97 L325 -187 L7 -187 L24 -97 Z " />
<glyph glyph-name="U" unicode="U" horiz-adv-x="661" d="M285 -12 Q176 -12 116 38 Q56 88 56 181 Q56 215 63 247 L156 724 L295 724 L202 247 Q197 223 197 196 Q197 151 219.5 130.5 Q242 110 291 110 Q423 110 451 257 L542 724 L681 724 L586 236 Q563 117 486 52.5 Q409 -12 285 -12 Z " />
<glyph glyph-name="Uacute" unicode="&#xda;" horiz-adv-x="661" d="M342 793 L504 926 L659 926 L658 914 L457 781 L341 781 L342 793 Z M285 -12 Q176 -12 116 38 Q56 88 56 181 Q56 215 63 247 L156 724 L295 724 L202 247 Q197 223 197 196 Q197 151 219.5 130.5 Q242 110 291 110 Q423 110 451 257 L542 724 L681 724 L586 236 Q563 117 486 52.5 Q409 -12 285 -12 Z " />
<glyph glyph-name="Ubreve" unicode="&#x16c;" horiz-adv-x="661" d="M439 781 Q373 781 337.5 817.5 Q302 854 302 915 Q302 934 305 953 L380 948 Q375 877 443 877 Q480 877 506.5 897 Q533 917 545 953 L619 948 Q579 781 439 781 Z M285 -12 Q176 -12 116 38 Q56 88 56 181 Q56 215 63 247 L156 724 L295 724 L202 247 Q197 223 197 196 Q197 151 219.5 130.5 Q242 110 291 110 Q423 110 451 257 L542 724 L681 724 L586 236 Q563 117 486 52.5 Q409 -12 285 -12 Z " />
<glyph glyph-name="uni01D3" unicode="&#x1d3;" horiz-adv-x="661" d="M366 781 L279 914 L280 926 L375 926 L440 847 L536 926 L635 926 L634 914 L496 781 L366 781 Z M681 724 L586 236 Q563 117 486 52.5 Q409 -12 285 -12 Q176 -12 116 38 Q56 88 56 181 Q56 215 63 247 L156 724 L295 724 L202 247 Q197 223 197 196 Q197 151 219.5 130.5 Q242 110 291 110 Q423 110 451 257 L542 724 L681 724 Z " />
<glyph glyph-name="Ucircumflex" unicode="&#xdb;" horiz-adv-x="661" d="M350 781 L251 781 L252 793 L390 926 L520 926 L607 793 L606 781 L511 781 L446 860 L350 781 Z M681 724 L586 236 Q563 117 486 52.5 Q409 -12 285 -12 Q176 -12 116 38 Q56 88 56 181 Q56 215 63 247 L156 724 L295 724 L202 247 Q197 223 197 196 Q197 151 219.5 130.5 Q242 110 291 110 Q423 110 451 257 L542 724 L681 724 Z " />
<glyph glyph-name="Udieresis" unicode="&#xdc;" horiz-adv-x="661" d="M339 782 Q308 782 291.5 798.5 Q275 815 275 846 Q275 881 296 903 Q317 925 352 925 Q383 925 399.5 908 Q416 891 416 860 Q416 825 395.5 803.5 Q375 782 339 782 Z M533 782 Q502 782 485.5 798.5 Q469 815 469 846 Q469 881 490 903 Q511 925 546 925 Q577 925 593.5 908 Q610 891 610 860 Q610 825 589.5 803.5 Q569 782 533 782 Z M285 -12 Q176 -12 116 38 Q56 88 56 181 Q56 215 63 247 L156 724 L295 724 L202 247 Q197 223 197 196 Q197 151 219.5 130.5 Q242 110 291 110 Q423 110 451 257 L542 724 L681 724 L586 236 Q563 117 486 52.5 Q409 -12 285 -12 Z " />
<glyph glyph-name="uni01D7" unicode="&#x1d7;" horiz-adv-x="661" d="M402 917 L495 1044 L614 1044 L613 1034 L491 907 L401 907 L402 917 Z M341 766 Q311 766 295 782 Q279 798 279 828 Q279 862 299 883.5 Q319 905 353 905 Q382 905 398 888.5 Q414 872 414 842 Q414 808 395 787 Q376 766 341 766 Z M526 766 Q496 766 480 782 Q464 798 464 828 Q464 862 484 883.5 Q504 905 538 905 Q567 905 583 888.5 Q599 872 599 842 Q599 808 580 787 Q561 766 526 766 Z M285 -12 Q176 -12 116 38 Q56 88 56 181 Q56 215 63 247 L156 724 L295 724 L202 247 Q197 223 197 196 Q197 151 219.5 130.5 Q242 110 291 110 Q423 110 451 257 L542 724 L681 724 L586 236 Q563 117 486 52.5 Q409 -12 285 -12 Z " />
<glyph glyph-name="uni01D9" unicode="&#x1d9;" horiz-adv-x="661" d="M398 913 L320 1036 L320 1046 L404 1046 L466 974 L557 1046 L642 1046 L641 1036 L515 913 L398 913 Z M341 766 Q311 766 295 782 Q279 798 279 828 Q279 862 299 883.5 Q319 905 353 905 Q382 905 398 888.5 Q414 872 414 842 Q414 808 395 787 Q376 766 341 766 Z M464 828 Q464 862 484 883.5 Q504 905 538 905 Q567 905 583 888.5 Q599 872 599 842 Q599 808 580 787 Q561 766 526 766 Q496 766 480 782 Q464 798 464 828 Z M681 724 L586 236 Q563 117 486 52.5 Q409 -12 285 -12 Q176 -12 116 38 Q56 88 56 181 Q56 215 63 247 L156 724 L295 724 L202 247 Q197 223 197 196 Q197 151 219.5 130.5 Q242 110 291 110 Q423 110 451 257 L542 724 L681 724 Z " />
<glyph glyph-name="uni01DB" unicode="&#x1db;" horiz-adv-x="661" d="M350 1036 L351 1046 L462 1046 L499 919 L498 909 L417 909 L350 1036 Z M341 766 Q311 766 295 782 Q279 798 279 828 Q279 862 299 883.5 Q319 905 353 905 Q382 905 398 888.5 Q414 872 414 842 Q414 808 395 787 Q376 766 341 766 Z M526 766 Q496 766 480 782 Q464 798 464 828 Q464 862 484 883.5 Q504 905 538 905 Q567 905 583 888.5 Q599 872 599 842 Q599 808 580 787 Q561 766 526 766 Z M285 -12 Q176 -12 116 38 Q56 88 56 181 Q56 215 63 247 L156 724 L295 724 L202 247 Q197 223 197 196 Q197 151 219.5 130.5 Q242 110 291 110 Q423 110 451 257 L542 724 L681 724 L586 236 Q563 117 486 52.5 Q409 -12 285 -12 Z " />
<glyph glyph-name="uni01D5" unicode="&#x1d5;" horiz-adv-x="661" d="M316 1020 L634 1020 L616 931 L298 931 L316 1020 Z M341 766 Q311 766 295 782 Q279 798 279 828 Q279 862 299 883.5 Q319 905 353 905 Q382 905 398 888.5 Q414 872 414 842 Q414 808 395 787 Q376 766 341 766 Z M526 766 Q496 766 480 782 Q464 798 464 828 Q464 862 484 883.5 Q504 905 538 905 Q567 905 583 888.5 Q599 872 599 842 Q599 808 580 787 Q561 766 526 766 Z M285 -12 Q176 -12 116 38 Q56 88 56 181 Q56 215 63 247 L156 724 L295 724 L202 247 Q197 223 197 196 Q197 151 219.5 130.5 Q242 110 291 110 Q423 110 451 257 L542 724 L681 724 L586 236 Q563 117 486 52.5 Q409 -12 285 -12 Z " />
<glyph glyph-name="uni1EE4" unicode="&#x1ee4;" horiz-adv-x="661" d="M285 -12 Q176 -12 116 38 Q56 88 56 181 Q56 215 63 247 L156 724 L295 724 L202 247 Q197 223 197 196 Q197 151 219.5 130.5 Q242 110 291 110 Q423 110 451 257 L542 724 L681 724 L586 236 Q563 117 486 52.5 Q409 -12 285 -12 Z M241 -226 Q206 -226 187.5 -208 Q169 -190 169 -156 Q169 -118 192 -94 Q215 -70 255 -70 Q289 -70 308 -88.5 Q327 -107 327 -141 Q327 -179 304 -202.5 Q281 -226 241 -226 Z " />
<glyph glyph-name="Ugrave" unicode="&#xd9;" horiz-adv-x="661" d="M262 914 L263 926 L406 926 L508 793 L507 781 L402 781 L262 914 Z M285 -12 Q176 -12 116 38 Q56 88 56 181 Q56 215 63 247 L156 724 L295 724 L202 247 Q197 223 197 196 Q197 151 219.5 130.5 Q242 110 291 110 Q423 110 451 257 L542 724 L681 724 L586 236 Q563 117 486 52.5 Q409 -12 285 -12 Z " />
<glyph glyph-name="uni1EE6" unicode="&#x1ee6;" horiz-adv-x="661" d="M387 783 L387 794 Q387 822 399 834.5 Q411 847 433 857 Q444 862 448.5 865.5 Q453 869 453 874 Q453 883 436 883 Q407 883 367 864 L343 929 Q369 944 401.5 951.5 Q434 959 464 959 Q513 959 539.5 940 Q566 921 566 887 Q566 858 550.5 843.5 Q535 829 507 816 Q488 807 480 801 Q472 795 472 785 L472 778 L387 783 Z M285 -12 Q176 -12 116 38 Q56 88 56 181 Q56 215 63 247 L156 724 L295 724 L202 247 Q197 223 197 196 Q197 151 219.5 130.5 Q242 110 291 110 Q423 110 451 257 L542 724 L681 724 L586 236 Q563 117 486 52.5 Q409 -12 285 -12 Z " />
<glyph glyph-name="Uhorn" unicode="&#x1af;" horiz-adv-x="661" d="M814 861 Q814 830 808 794 Q797 731 764 697 Q731 663 667 653 L586 236 Q563 117 486 52.5 Q409 -12 285 -12 Q176 -12 116 38 Q56 88 56 181 Q56 215 63 247 L156 724 L295 724 L202 247 Q197 223 197 196 Q197 151 219.5 130.5 Q242 110 291 110 Q423 110 451 257 L542 724 L600 724 Q645 724 665 745 Q685 766 695 814 Q700 839 701 868 L814 861 Z " />
<glyph glyph-name="uni1EE8" unicode="&#x1ee8;" horiz-adv-x="661" d="M457 781 L341 781 L342 793 L504 926 L659 926 L658 914 L457 781 Z M814 861 Q814 830 808 794 Q797 731 764 697 Q731 663 667 653 L586 236 Q563 117 486 52.5 Q409 -12 285 -12 Q176 -12 116 38 Q56 88 56 181 Q56 215 63 247 L156 724 L295 724 L202 247 Q197 223 197 196 Q197 151 219.5 130.5 Q242 110 291 110 Q423 110 451 257 L542 724 L600 724 Q645 724 665 745 Q685 766 695 814 Q700 839 701 868 L814 861 Z " />
<glyph glyph-name="uni1EF0" unicode="&#x1ef0;" horiz-adv-x="661" d="M814 861 Q814 830 808 794 Q797 731 764 697 Q731 663 667 653 L586 236 Q563 117 486 52.5 Q409 -12 285 -12 Q176 -12 116 38 Q56 88 56 181 Q56 215 63 247 L156 724 L295 724 L202 247 Q197 223 197 196 Q197 151 219.5 130.5 Q242 110 291 110 Q423 110 451 257 L542 724 L600 724 Q645 724 665 745 Q685 766 695 814 Q700 839 701 868 L814 861 Z M241 -226 Q206 -226 187.5 -208 Q169 -190 169 -156 Q169 -118 192 -94 Q215 -70 255 -70 Q289 -70 308 -88.5 Q327 -107 327 -141 Q327 -179 304 -202.5 Q281 -226 241 -226 Z " />
<glyph glyph-name="uni1EEA" unicode="&#x1eea;" horiz-adv-x="661" d="M402 781 L262 914 L263 926 L406 926 L508 793 L507 781 L402 781 Z M814 861 Q814 830 808 794 Q797 731 764 697 Q731 663 667 653 L586 236 Q563 117 486 52.5 Q409 -12 285 -12 Q176 -12 116 38 Q56 88 56 181 Q56 215 63 247 L156 724 L295 724 L202 247 Q197 223 197 196 Q197 151 219.5 130.5 Q242 110 291 110 Q423 110 451 257 L542 724 L600 724 Q645 724 665 745 Q685 766 695 814 Q700 839 701 868 L814 861 Z " />
<glyph glyph-name="uni1EEC" unicode="&#x1eec;" horiz-adv-x="661" d="M436 883 Q407 883 367 864 L343 929 Q369 944 401.5 951.5 Q434 959 464 959 Q513 959 539.5 940 Q566 921 566 887 Q566 858 550.5 843.5 Q535 829 507 816 Q488 807 480 801 Q472 795 472 785 L472 778 L387 783 L387 794 Q387 822 399 834.5 Q411 847 433 857 Q444 862 448.5 865.5 Q453 869 453 874 Q453 883 436 883 Z M814 861 Q814 830 808 794 Q797 731 764 697 Q731 663 667 653 L586 236 Q563 117 486 52.5 Q409 -12 285 -12 Q176 -12 116 38 Q56 88 56 181 Q56 215 63 247 L156 724 L295 724 L202 247 Q197 223 197 196 Q197 151 219.5 130.5 Q242 110 291 110 Q423 110 451 257 L542 724 L600 724 Q645 724 665 745 Q685 766 695 814 Q700 839 701 868 L814 861 Z " />
<glyph glyph-name="uni1EEE" unicode="&#x1eee;" horiz-adv-x="661" d="M381 843 Q363 843 347.5 826 Q332 809 325 782 L252 792 Q282 937 382 937 Q410 937 428.5 927.5 Q447 918 467 901 Q480 890 489.5 884.5 Q499 879 509 879 Q526 879 541.5 895.5 Q557 912 565 940 L638 930 Q622 857 588 821 Q554 785 506 785 Q478 785 460 794.5 Q442 804 422 821 Q409 832 400 837.5 Q391 843 381 843 Z M814 861 Q814 830 808 794 Q797 731 764 697 Q731 663 667 653 L586 236 Q563 117 486 52.5 Q409 -12 285 -12 Q176 -12 116 38 Q56 88 56 181 Q56 215 63 247 L156 724 L295 724 L202 247 Q197 223 197 196 Q197 151 219.5 130.5 Q242 110 291 110 Q423 110 451 257 L542 724 L600 724 Q645 724 665 745 Q685 766 695 814 Q700 839 701 868 L814 861 Z " />
<glyph glyph-name="Uhungarumlaut" unicode="&#x170;" horiz-adv-x="661" d="M282 793 L393 926 L521 926 L520 914 L373 781 L281 781 L282 793 Z M448 793 L561 926 L691 926 L690 914 L541 781 L447 781 L448 793 Z M285 -12 Q176 -12 116 38 Q56 88 56 181 Q56 215 63 247 L156 724 L295 724 L202 247 Q197 223 197 196 Q197 151 219.5 130.5 Q242 110 291 110 Q423 110 451 257 L542 724 L681 724 L586 236 Q563 117 486 52.5 Q409 -12 285 -12 Z " />
<glyph glyph-name="Umacron" unicode="&#x16a;" horiz-adv-x="661" d="M291 897 L609 897 L592 807 L274 807 L291 897 Z M285 -12 Q176 -12 116 38 Q56 88 56 181 Q56 215 63 247 L156 724 L295 724 L202 247 Q197 223 197 196 Q197 151 219.5 130.5 Q242 110 291 110 Q423 110 451 257 L542 724 L681 724 L586 236 Q563 117 486 52.5 Q409 -12 285 -12 Z " />
<glyph glyph-name="Uogonek" unicode="&#x172;" horiz-adv-x="661" d="M681 724 L586 236 Q573 166 542.5 119 Q512 72 453 31 L422 9 Q379 -22 353 -56.5 Q327 -91 327 -118 Q327 -144 357 -144 Q382 -144 414 -128 L440 -202 Q391 -230 326 -230 Q272 -230 242.5 -206 Q213 -182 213 -139 Q213 -107 230.5 -73.5 Q248 -40 280 -12 Q173 -10 114.5 39.5 Q56 89 56 181 Q56 215 63 247 L156 724 L295 724 L202 247 Q196 219 196 196 Q196 151 219.5 130.5 Q243 110 290 110 Q356 110 396.5 148 Q437 186 451 257 L542 724 L681 724 Z " />
<glyph glyph-name="Uring" unicode="&#x16e;" horiz-adv-x="661" d="M426 767 Q372 767 343 792.5 Q314 818 314 865 Q314 904 334 936 Q354 968 390 986.5 Q426 1005 472 1005 Q526 1005 555 979.5 Q584 954 584 907 Q584 868 564 836 Q544 804 508 785.5 Q472 767 426 767 Z M439 832 Q471 832 486 852 Q501 872 501 898 Q501 940 459 940 Q427 940 412 920 Q397 900 397 874 Q397 832 439 832 Z M285 -12 Q176 -12 116 38 Q56 88 56 181 Q56 215 63 247 L156 724 L295 724 L202 247 Q197 223 197 196 Q197 151 219.5 130.5 Q242 110 291 110 Q423 110 451 257 L542 724 L681 724 L586 236 Q563 117 486 52.5 Q409 -12 285 -12 Z " />
<glyph glyph-name="Utilde" unicode="&#x168;" horiz-adv-x="661" d="M252 792 Q282 937 382 937 Q410 937 428.5 927.5 Q447 918 467 901 Q480 890 489.5 884.5 Q499 879 509 879 Q526 879 541.5 895.5 Q557 912 565 940 L638 930 Q622 857 588 821 Q554 785 506 785 Q478 785 460 794.5 Q442 804 422 821 Q409 832 400 837.5 Q391 843 381 843 Q363 843 347.5 826 Q332 809 325 782 L252 792 Z M285 -12 Q176 -12 116 38 Q56 88 56 181 Q56 215 63 247 L156 724 L295 724 L202 247 Q197 223 197 196 Q197 151 219.5 130.5 Q242 110 291 110 Q423 110 451 257 L542 724 L681 724 L586 236 Q563 117 486 52.5 Q409 -12 285 -12 Z " />
<glyph glyph-name="V" unicode="V" horiz-adv-x="615" d="M684 724 L330 0 L179 0 L107 724 L250 724 L281 149 L538 724 L684 724 Z " />
<glyph glyph-name="W" unicode="W" horiz-adv-x="869" d="M936 724 L631 0 L480 0 L483 530 L281 0 L130 0 L109 724 L249 724 L237 167 L445 722 L594 722 L586 166 L793 724 L936 724 Z " />
<glyph glyph-name="Wacute" unicode="&#x1e82;" horiz-adv-x="869" d="M558 781 L442 781 L443 793 L605 926 L760 926 L759 914 L558 781 Z M936 724 L631 0 L480 0 L483 530 L281 0 L130 0 L109 724 L249 724 L237 167 L445 722 L594 722 L586 166 L793 724 L936 724 Z " />
<glyph glyph-name="Wcircumflex" unicode="&#x174;" horiz-adv-x="869" d="M451 781 L352 781 L353 793 L491 926 L621 926 L708 793 L707 781 L612 781 L547 860 L451 781 Z M936 724 L631 0 L480 0 L483 530 L281 0 L130 0 L109 724 L249 724 L237 167 L445 722 L594 722 L586 166 L793 724 L936 724 Z " />
<glyph glyph-name="Wdieresis" unicode="&#x1e84;" horiz-adv-x="869" d="M440 782 Q409 782 392.5 798.5 Q376 815 376 846 Q376 881 397 903 Q418 925 453 925 Q484 925 500.5 908 Q517 891 517 860 Q517 825 496.5 803.5 Q476 782 440 782 Z M634 782 Q603 782 586.5 798.5 Q570 815 570 846 Q570 881 591 903 Q612 925 647 925 Q678 925 694.5 908 Q711 891 711 860 Q711 825 690.5 803.5 Q670 782 634 782 Z M936 724 L631 0 L480 0 L483 530 L281 0 L130 0 L109 724 L249 724 L237 167 L445 722 L594 722 L586 166 L793 724 L936 724 Z " />
<glyph glyph-name="Wgrave" unicode="&#x1e80;" horiz-adv-x="869" d="M503 781 L363 914 L364 926 L507 926 L609 793 L608 781 L503 781 Z M936 724 L631 0 L480 0 L483 530 L281 0 L130 0 L109 724 L249 724 L237 167 L445 722 L594 722 L586 166 L793 724 L936 724 Z " />
<glyph glyph-name="X" unicode="X" horiz-adv-x="583" d="M387 364 L517 0 L370 0 L289 254 L113 0 L-43 0 L233 370 L110 724 L256 724 L333 481 L504 724 L660 724 L387 364 Z " />
<glyph glyph-name="Y" unicode="Y" horiz-adv-x="571" d="M648 724 L345 236 L299 0 L160 0 L207 241 L99 724 L241 724 L304 386 L498 724 L648 724 Z " />
<glyph glyph-name="Yacute" unicode="&#xdd;" horiz-adv-x="571" d="M409 781 L293 781 L294 793 L456 926 L611 926 L610 914 L409 781 Z M648 724 L345 236 L299 0 L160 0 L207 241 L99 724 L241 724 L304 386 L498 724 L648 724 Z " />
<glyph glyph-name="Ycircumflex" unicode="&#x176;" horiz-adv-x="571" d="M302 781 L203 781 L204 793 L342 926 L472 926 L559 793 L558 781 L463 781 L398 860 L302 781 Z M648 724 L345 236 L299 0 L160 0 L207 241 L99 724 L241 724 L304 386 L498 724 L648 724 Z " />
<glyph glyph-name="Ydieresis" unicode="&#x178;" horiz-adv-x="571" d="M291 782 Q260 782 243.5 798.5 Q227 815 227 846 Q227 881 248 903 Q269 925 304 925 Q335 925 351.5 908 Q368 891 368 860 Q368 825 347.5 803.5 Q327 782 291 782 Z M485 782 Q454 782 437.5 798.5 Q421 815 421 846 Q421 881 442 903 Q463 925 498 925 Q529 925 545.5 908 Q562 891 562 860 Q562 825 541.5 803.5 Q521 782 485 782 Z M648 724 L345 236 L299 0 L160 0 L207 241 L99 724 L241 724 L304 386 L498 724 L648 724 Z " />
<glyph glyph-name="uni1E8E" unicode="&#x1e8e;" horiz-adv-x="571" d="M389 787 Q354 787 335.5 805 Q317 823 317 857 Q317 895 340 919 Q363 943 403 943 Q437 943 456 924.5 Q475 906 475 872 Q475 834 452 810.5 Q429 787 389 787 Z M648 724 L345 236 L299 0 L160 0 L207 241 L99 724 L241 724 L304 386 L498 724 L648 724 Z " />
<glyph glyph-name="uni1EF4" unicode="&#x1ef4;" horiz-adv-x="571" d="M648 724 L345 236 L299 0 L160 0 L207 241 L99 724 L241 724 L304 386 L498 724 L648 724 Z M193 -226 Q158 -226 139.5 -208 Q121 -190 121 -156 Q121 -118 144 -94 Q167 -70 207 -70 Q241 -70 260 -88.5 Q279 -107 279 -141 Q279 -179 256 -202.5 Q233 -226 193 -226 Z " />
<glyph glyph-name="Ygrave" unicode="&#x1ef2;" horiz-adv-x="571" d="M354 781 L214 914 L215 926 L358 926 L460 793 L459 781 L354 781 Z M648 724 L345 236 L299 0 L160 0 L207 241 L99 724 L241 724 L304 386 L498 724 L648 724 Z " />
<glyph glyph-name="uni1EF6" unicode="&#x1ef6;" horiz-adv-x="571" d="M388 883 Q359 883 319 864 L295 929 Q321 944 353.5 951.5 Q386 959 416 959 Q465 959 491.5 940 Q518 921 518 887 Q518 858 502.5 843.5 Q487 829 459 816 Q440 807 432 801 Q424 795 424 785 L424 778 L339 783 L339 794 Q339 822 351 834.5 Q363 847 385 857 Q396 862 400.5 865.5 Q405 869 405 874 Q405 883 388 883 Z M648 724 L345 236 L299 0 L160 0 L207 241 L99 724 L241 724 L304 386 L498 724 L648 724 Z " />
<glyph glyph-name="uni1EF8" unicode="&#x1ef8;" horiz-adv-x="571" d="M333 843 Q315 843 299.5 826 Q284 809 277 782 L204 792 Q234 937 334 937 Q362 937 380.5 927.5 Q399 918 419 901 Q432 890 441.5 884.5 Q451 879 461 879 Q478 879 493.5 895.5 Q509 912 517 940 L590 930 Q574 857 540 821 Q506 785 458 785 Q430 785 412 794.5 Q394 804 374 821 Q361 832 352 837.5 Q343 843 333 843 Z M648 724 L345 236 L299 0 L160 0 L207 241 L99 724 L241 724 L304 386 L498 724 L648 724 Z " />
<glyph glyph-name="Z" unicode="Z" horiz-adv-x="530" d="M560 604 L158 120 L470 120 L447 0 L-26 0 L-4 121 L399 604 L104 604 L127 724 L583 724 L560 604 Z " />
<glyph glyph-name="Zacute" unicode="&#x179;" horiz-adv-x="530" d="M592 926 L591 914 L390 781 L274 781 L275 793 L437 926 L592 926 Z M127 724 L583 724 L560 604 L158 120 L470 120 L447 0 L-26 0 L-4 121 L399 604 L104 604 L127 724 Z " />
<glyph glyph-name="Zcaron" unicode="&#x17d;" horiz-adv-x="530" d="M299 781 L212 914 L213 926 L308 926 L373 847 L469 926 L568 926 L567 914 L429 781 L299 781 Z M560 604 L158 120 L470 120 L447 0 L-26 0 L-4 121 L399 604 L104 604 L127 724 L583 724 L560 604 Z " />
<glyph glyph-name="Zdotaccent" unicode="&#x17b;" horiz-adv-x="530" d="M370 787 Q335 787 316.5 805 Q298 823 298 857 Q298 895 321 919 Q344 943 384 943 Q418 943 437 924.5 Q456 906 456 872 Q456 834 433 810.5 Q410 787 370 787 Z M560 604 L158 120 L470 120 L447 0 L-26 0 L-4 121 L399 604 L104 604 L127 724 L583 724 L560 604 Z " />
<glyph glyph-name="uni1E92" unicode="&#x1e92;" horiz-adv-x="530" d="M560 604 L158 120 L470 120 L447 0 L-26 0 L-4 121 L399 604 L104 604 L127 724 L583 724 L560 604 Z M178 -226 Q143 -226 124.5 -208 Q106 -190 106 -156 Q106 -118 129 -94 Q152 -70 192 -70 Q226 -70 245 -88.5 Q264 -107 264 -141 Q264 -179 241 -202.5 Q218 -226 178 -226 Z " />
<glyph glyph-name="a" unicode="a" horiz-adv-x="555" d="M541 546 L435 0 L313 0 L326 68 Q262 -12 168 -12 Q100 -12 63 35 Q26 82 26 167 Q26 265 54 354.5 Q82 444 139.5 501 Q197 558 281 558 Q319 558 348 542 Q377 526 394 496 L404 546 L541 546 Z M235 113 Q283 113 327 153 L375 398 Q345 437 294 437 Q229 437 197.5 365.5 Q166 294 166 203 Q166 113 235 113 Z " />
<glyph glyph-name="aacute" unicode="&#xe1;" horiz-adv-x="555" d="M541 546 L435 0 L313 0 L326 68 Q262 -12 168 -12 Q100 -12 63 35 Q26 82 26 167 Q26 265 54 354.5 Q82 444 139.5 501 Q197 558 281 558 Q319 558 348 542 Q377 526 394 496 L404 546 L541 546 Z M235 113 Q283 113 327 153 L375 398 Q345 437 294 437 Q229 437 197.5 365.5 Q166 294 166 203 Q166 113 235 113 Z M275 625 L394 784 L536 784 L535 774 L379 615 L274 615 L275 625 Z " />
<glyph glyph-name="abreve" unicode="&#x103;" horiz-adv-x="555" d="M541 546 L435 0 L313 0 L326 68 Q262 -12 168 -12 Q100 -12 63 35 Q26 82 26 167 Q26 265 54 354.5 Q82 444 139.5 501 Q197 558 281 558 Q319 558 348 542 Q377 526 394 496 L404 546 L541 546 Z M235 113 Q283 113 327 153 L375 398 Q345 437 294 437 Q229 437 197.5 365.5 Q166 294 166 203 Q166 113 235 113 Z M353 611 Q287 611 251.5 647.5 Q216 684 216 745 Q216 764 219 783 L294 778 Q289 707 357 707 Q394 707 420.5 727 Q447 747 459 783 L533 778 Q493 611 353 611 Z " />
<glyph glyph-name="uni1EAF" unicode="&#x1eaf;" horiz-adv-x="555" d="M409 763 L319 763 L320 773 L413 900 L532 900 L531 890 L409 763 Z M351 611 Q286 611 251 645 Q216 679 216 739 Q216 756 219 775 L290 770 Q284 699 355 699 Q393 699 420.5 719 Q448 739 459 775 L529 770 Q511 694 466.5 652.5 Q422 611 351 611 Z M541 546 L435 0 L313 0 L326 68 Q262 -12 168 -12 Q100 -12 63 35 Q26 82 26 167 Q26 265 54 354.5 Q82 444 139.5 501 Q197 558 281 558 Q319 558 348 542 Q377 526 394 496 L404 546 L541 546 Z M235 113 Q283 113 327 153 L375 398 Q345 437 294 437 Q229 437 197.5 365.5 Q166 294 166 203 Q166 113 235 113 Z " />
<glyph glyph-name="uni1EB7" unicode="&#x1eb7;" horiz-adv-x="555" d="M541 546 L435 0 L313 0 L326 68 Q262 -12 168 -12 Q100 -12 63 35 Q26 82 26 167 Q26 265 54 354.5 Q82 444 139.5 501 Q197 558 281 558 Q319 558 348 542 Q377 526 394 496 L404 546 L541 546 Z M235 113 Q283 113 327 153 L375 398 Q345 437 294 437 Q229 437 197.5 365.5 Q166 294 166 203 Q166 113 235 113 Z M188 -226 Q153 -226 134.5 -208 Q116 -190 116 -156 Q116 -118 139 -94 Q162 -70 202 -70 Q236 -70 255 -88.5 Q274 -107 274 -141 Q274 -179 251 -202.5 Q228 -226 188 -226 Z M353 611 Q287 611 251.5 647.5 Q216 684 216 745 Q216 764 219 783 L294 778 Q289 707 357 707 Q394 707 420.5 727 Q447 747 459 783 L533 778 Q493 611 353 611 Z " />
<glyph glyph-name="uni1EB1" unicode="&#x1eb1;" horiz-adv-x="555" d="M335 765 L268 892 L269 902 L380 902 L417 775 L416 765 L335 765 Z M351 611 Q286 611 251 645 Q216 679 216 739 Q216 756 219 775 L290 770 Q284 699 355 699 Q393 699 420.5 719 Q448 739 459 775 L529 770 Q511 694 466.5 652.5 Q422 611 351 611 Z M541 546 L435 0 L313 0 L326 68 Q262 -12 168 -12 Q100 -12 63 35 Q26 82 26 167 Q26 265 54 354.5 Q82 444 139.5 501 Q197 558 281 558 Q319 558 348 542 Q377 526 394 496 L404 546 L541 546 Z M235 113 Q283 113 327 153 L375 398 Q345 437 294 437 Q229 437 197.5 365.5 Q166 294 166 203 Q166 113 235 113 Z " />
<glyph glyph-name="uni1EB3" unicode="&#x1eb3;" horiz-adv-x="555" d="M378 873 Q349 873 319 858 L296 919 Q320 932 348.5 938.5 Q377 945 403 945 Q450 945 475 925.5 Q500 906 500 870 Q500 842 486.5 828.5 Q473 815 448 802 Q430 794 421 786.5 Q412 779 412 766 L412 762 L331 768 L331 775 Q331 805 342 818.5 Q353 832 373 843 Q383 849 388 853 Q393 857 393 864 Q393 873 378 873 Z M351 611 Q286 611 251 645 Q216 679 216 739 Q216 756 219 775 L290 770 Q284 699 355 699 Q393 699 420.5 719 Q448 739 459 775 L529 770 Q511 694 466.5 652.5 Q422 611 351 611 Z M541 546 L435 0 L313 0 L326 68 Q262 -12 168 -12 Q100 -12 63 35 Q26 82 26 167 Q26 265 54 354.5 Q82 444 139.5 501 Q197 558 281 558 Q319 558 348 542 Q377 526 394 496 L404 546 L541 546 Z M235 113 Q283 113 327 153 L375 398 Q345 437 294 437 Q229 437 197.5 365.5 Q166 294 166 203 Q166 113 235 113 Z " />
<glyph glyph-name="uni1EB5" unicode="&#x1eb5;" horiz-adv-x="555" d="M344 870 Q324 870 307 855 Q290 840 283 813 L219 823 Q244 955 345 955 Q373 955 387 946.5 Q401 938 414 922 Q422 912 429 906.5 Q436 901 447 901 Q466 901 483 916 Q500 931 507 958 L571 948 Q546 816 445 816 Q417 816 403.5 824.5 Q390 833 377 849 Q368 860 361.5 865 Q355 870 344 870 Z M351 611 Q286 611 251 645 Q216 679 216 739 Q216 756 219 775 L290 770 Q284 699 355 699 Q393 699 420.5 719 Q448 739 459 775 L529 770 Q511 694 466.5 652.5 Q422 611 351 611 Z M404 546 L541 546 L435 0 L313 0 L326 68 Q262 -12 168 -12 Q100 -12 63 35 Q26 82 26 167 Q26 265 54 354.5 Q82 444 139.5 501 Q197 558 281 558 Q319 558 348 542 Q377 526 394 496 L404 546 Z M235 113 Q283 113 327 153 L375 398 Q345 437 294 437 Q229 437 197.5 365.5 Q166 294 166 203 Q166 113 235 113 Z " />
<glyph glyph-name="uni01CE" unicode="&#x1ce;" horiz-adv-x="555" d="M541 546 L435 0 L313 0 L326 68 Q262 -12 168 -12 Q100 -12 63 35 Q26 82 26 167 Q26 265 54 354.5 Q82 444 139.5 501 Q197 558 281 558 Q319 558 348 542 Q377 526 394 496 L404 546 L541 546 Z M235 113 Q283 113 327 153 L375 398 Q345 437 294 437 Q229 437 197.5 365.5 Q166 294 166 203 Q166 113 235 113 Z M536 784 L535 774 L407 615 L283 615 L215 774 L216 784 L304 784 L356 693 L444 784 L536 784 Z " />
<glyph glyph-name="acircumflex" unicode="&#xe2;" horiz-adv-x="555" d="M541 546 L435 0 L313 0 L326 68 Q262 -12 168 -12 Q100 -12 63 35 Q26 82 26 167 Q26 265 54 354.5 Q82 444 139.5 501 Q197 558 281 558 Q319 558 348 542 Q377 526 394 496 L404 546 L541 546 Z M235 113 Q283 113 327 153 L375 398 Q345 437 294 437 Q229 437 197.5 365.5 Q166 294 166 203 Q166 113 235 113 Z M504 625 L503 615 L415 615 L363 706 L275 615 L183 615 L184 625 L312 784 L436 784 L504 625 Z " />
<glyph glyph-name="uni1EA5" unicode="&#x1ea5;" horiz-adv-x="555" d="M694 862 L693 852 L571 725 L481 725 L482 735 L575 862 L694 862 Z M272 615 L180 615 L181 625 L308 764 L432 764 L505 625 L504 615 L416 615 L360 696 L272 615 Z M404 546 L541 546 L435 0 L313 0 L326 68 Q262 -12 168 -12 Q100 -12 63 35 Q26 82 26 167 Q26 265 54 354.5 Q82 444 139.5 501 Q197 558 281 558 Q319 558 348 542 Q377 526 394 496 L404 546 Z M235 113 Q283 113 327 153 L375 398 Q345 437 294 437 Q229 437 197.5 365.5 Q166 294 166 203 Q166 113 235 113 Z " />
<glyph glyph-name="uni1EAD" unicode="&#x1ead;" horiz-adv-x="555" d="M541 546 L435 0 L313 0 L326 68 Q262 -12 168 -12 Q100 -12 63 35 Q26 82 26 167 Q26 265 54 354.5 Q82 444 139.5 501 Q197 558 281 558 Q319 558 348 542 Q377 526 394 496 L404 546 L541 546 Z M235 113 Q283 113 327 153 L375 398 Q345 437 294 437 Q229 437 197.5 365.5 Q166 294 166 203 Q166 113 235 113 Z M188 -226 Q153 -226 134.5 -208 Q116 -190 116 -156 Q116 -118 139 -94 Q162 -70 202 -70 Q236 -70 255 -88.5 Q274 -107 274 -141 Q274 -179 251 -202.5 Q228 -226 188 -226 Z M504 625 L503 615 L415 615 L363 706 L275 615 L183 615 L184 625 L312 784 L436 784 L504 625 Z " />
<glyph glyph-name="uni1EA7" unicode="&#x1ea7;" horiz-adv-x="555" d="M158 727 L91 854 L92 864 L203 864 L240 737 L239 727 L158 727 Z M181 625 L308 764 L432 764 L505 625 L504 615 L416 615 L360 696 L272 615 L180 615 L181 625 Z M541 546 L435 0 L313 0 L326 68 Q262 -12 168 -12 Q100 -12 63 35 Q26 82 26 167 Q26 265 54 354.5 Q82 444 139.5 501 Q197 558 281 558 Q319 558 348 542 Q377 526 394 496 L404 546 L541 546 Z M235 113 Q283 113 327 153 L375 398 Q345 437 294 437 Q229 437 197.5 365.5 Q166 294 166 203 Q166 113 235 113 Z " />
<glyph glyph-name="uni1EA9" unicode="&#x1ea9;" horiz-adv-x="555" d="M565 907 Q612 907 637 887.5 Q662 868 662 832 Q662 804 648.5 790.5 Q635 777 610 764 Q592 756 583 748.5 Q574 741 574 728 L574 724 L493 730 L493 737 Q493 767 504 780.5 Q515 794 535 805 Q545 811 550 815 Q555 819 555 826 Q555 835 540 835 Q511 835 481 820 L458 881 Q482 894 510.5 900.5 Q539 907 565 907 Z M272 615 L180 615 L181 625 L308 764 L432 764 L505 625 L504 615 L416 615 L360 696 L272 615 Z M404 546 L541 546 L435 0 L313 0 L326 68 Q262 -12 168 -12 Q100 -12 63 35 Q26 82 26 167 Q26 265 54 354.5 Q82 444 139.5 501 Q197 558 281 558 Q319 558 348 542 Q377 526 394 496 L404 546 Z M235 113 Q283 113 327 153 L375 398 Q345 437 294 437 Q229 437 197.5 365.5 Q166 294 166 203 Q166 113 235 113 Z " />
<glyph glyph-name="uni1EAB" unicode="&#x1eab;" horiz-adv-x="555" d="M340 851 Q320 851 303 836 Q286 821 279 794 L215 804 Q240 936 341 936 Q369 936 383 927.5 Q397 919 410 903 Q418 893 425 887.5 Q432 882 443 882 Q462 882 479 897 Q496 912 503 939 L567 929 Q542 797 441 797 Q413 797 399.5 805.5 Q386 814 373 830 Q364 841 357.5 846 Q351 851 340 851 Z M272 615 L180 615 L181 625 L308 764 L432 764 L505 625 L504 615 L416 615 L360 696 L272 615 Z M404 546 L541 546 L435 0 L313 0 L326 68 Q262 -12 168 -12 Q100 -12 63 35 Q26 82 26 167 Q26 265 54 354.5 Q82 444 139.5 501 Q197 558 281 558 Q319 558 348 542 Q377 526 394 496 L404 546 Z M235 113 Q283 113 327 153 L375 398 Q345 437 294 437 Q229 437 197.5 365.5 Q166 294 166 203 Q166 113 235 113 Z " />
<glyph glyph-name="adieresis" unicode="&#xe4;" horiz-adv-x="555" d="M541 546 L435 0 L313 0 L326 68 Q262 -12 168 -12 Q100 -12 63 35 Q26 82 26 167 Q26 265 54 354.5 Q82 444 139.5 501 Q197 558 281 558 Q319 558 348 542 Q377 526 394 496 L404 546 L541 546 Z M235 113 Q283 113 327 153 L375 398 Q345 437 294 437 Q229 437 197.5 365.5 Q166 294 166 203 Q166 113 235 113 Z M257 624 Q226 624 209.5 640.5 Q193 657 193 688 Q193 723 214 745 Q235 767 270 767 Q301 767 317.5 750 Q334 733 334 702 Q334 667 313.5 645.5 Q293 624 257 624 Z M447 624 Q416 624 399.5 640.5 Q383 657 383 688 Q383 723 404 745 Q425 767 460 767 Q491 767 507.5 750 Q524 733 524 702 Q524 667 503.5 645.5 Q483 624 447 624 Z " />
<glyph glyph-name="uni1EA1" unicode="&#x1ea1;" horiz-adv-x="555" d="M541 546 L435 0 L313 0 L326 68 Q262 -12 168 -12 Q100 -12 63 35 Q26 82 26 167 Q26 265 54 354.5 Q82 444 139.5 501 Q197 558 281 558 Q319 558 348 542 Q377 526 394 496 L404 546 L541 546 Z M235 113 Q283 113 327 153 L375 398 Q345 437 294 437 Q229 437 197.5 365.5 Q166 294 166 203 Q166 113 235 113 Z M188 -226 Q153 -226 134.5 -208 Q116 -190 116 -156 Q116 -118 139 -94 Q162 -70 202 -70 Q236 -70 255 -88.5 Q274 -107 274 -141 Q274 -179 251 -202.5 Q228 -226 188 -226 Z " />
<glyph glyph-name="agrave" unicode="&#xe0;" horiz-adv-x="555" d="M541 546 L435 0 L313 0 L326 68 Q262 -12 168 -12 Q100 -12 63 35 Q26 82 26 167 Q26 265 54 354.5 Q82 444 139.5 501 Q197 558 281 558 Q319 558 348 542 Q377 526 394 496 L404 546 L541 546 Z M235 113 Q283 113 327 153 L375 398 Q345 437 294 437 Q229 437 197.5 365.5 Q166 294 166 203 Q166 113 235 113 Z M230 774 L231 784 L364 784 L415 625 L414 615 L318 615 L230 774 Z " />
<glyph glyph-name="uni1EA3" unicode="&#x1ea3;" horiz-adv-x="555" d="M541 546 L435 0 L313 0 L326 68 Q262 -12 168 -12 Q100 -12 63 35 Q26 82 26 167 Q26 265 54 354.5 Q82 444 139.5 501 Q197 558 281 558 Q319 558 348 542 Q377 526 394 496 L404 546 L541 546 Z M235 113 Q283 113 327 153 L375 398 Q345 437 294 437 Q229 437 197.5 365.5 Q166 294 166 203 Q166 113 235 113 Z M301 617 L301 628 Q301 658 313 674.5 Q325 691 347 708 Q358 715 363 720.5 Q368 726 368 732 Q368 742 351 742 Q324 742 291 726 L267 790 Q317 817 380 817 Q477 817 477 743 Q477 713 463.5 698 Q450 683 424 667 Q404 655 394.5 645.5 Q385 636 385 620 L385 612 L301 617 Z " />
<glyph glyph-name="uni0251" unicode="&#x251;" horiz-adv-x="555" d="M541 546 L435 0 L313 0 L326 68 Q262 -12 168 -12 Q100 -12 63 35 Q26 82 26 167 Q26 265 54 354.5 Q82 444 139.5 501 Q197 558 281 558 Q319 558 348 542 Q377 526 394 496 L404 546 L541 546 Z M235 113 Q283 113 327 153 L375 398 Q345 437 294 437 Q229 437 197.5 365.5 Q166 294 166 203 Q166 113 235 113 Z " />
<glyph glyph-name="amacron" unicode="&#x101;" horiz-adv-x="555" d="M541 546 L435 0 L313 0 L326 68 Q262 -12 168 -12 Q100 -12 63 35 Q26 82 26 167 Q26 265 54 354.5 Q82 444 139.5 501 Q197 558 281 558 Q319 558 348 542 Q377 526 394 496 L404 546 L541 546 Z M235 113 Q283 113 327 153 L375 398 Q345 437 294 437 Q229 437 197.5 365.5 Q166 294 166 203 Q166 113 235 113 Z M205 727 L523 727 L506 637 L188 637 L205 727 Z " />
<glyph glyph-name="aogonek" unicode="&#x105;" horiz-adv-x="554" d="M361 -144 Q386 -144 418 -128 L444 -202 Q395 -230 330 -230 Q276 -230 246.5 -206 Q217 -182 217 -139 Q217 -98 243.5 -61 Q270 -24 318 0 L314 0 L328 71 Q263 -12 167 -12 Q99 -12 62 35 Q25 82 25 167 Q25 265 53 354.5 Q81 444 138.5 501 Q196 558 280 558 Q318 558 347 542 Q376 526 393 496 L403 546 L540 546 L434 0 Q389 -27 360 -58.5 Q331 -90 331 -118 Q331 -144 361 -144 Z M234 113 Q282 113 326 153 L374 398 Q344 437 293 437 Q228 437 196.5 365.5 Q165 294 165 203 Q165 113 234 113 Z " />
<glyph glyph-name="aring" unicode="&#xe5;" horiz-adv-x="555" d="M541 546 L435 0 L313 0 L326 68 Q262 -12 168 -12 Q100 -12 63 35 Q26 82 26 167 Q26 265 54 354.5 Q82 444 139.5 501 Q197 558 281 558 Q319 558 348 542 Q377 526 394 496 L404 546 L541 546 Z M235 113 Q283 113 327 153 L375 398 Q345 437 294 437 Q229 437 197.5 365.5 Q166 294 166 203 Q166 113 235 113 Z M341 601 Q289 601 260 624.5 Q231 648 231 690 Q231 759 270.5 799 Q310 839 387 839 Q439 839 468 815.5 Q497 792 497 750 Q497 681 457.5 641 Q418 601 341 601 Z M353 665 Q386 665 400.5 685.5 Q415 706 415 738 Q415 775 375 775 Q342 775 327.5 754.5 Q313 734 313 702 Q313 665 353 665 Z " />
<glyph glyph-name="atilde" unicode="&#xe3;" horiz-adv-x="555" d="M541 546 L435 0 L313 0 L326 68 Q262 -12 168 -12 Q100 -12 63 35 Q26 82 26 167 Q26 265 54 354.5 Q82 444 139.5 501 Q197 558 281 558 Q319 558 348 542 Q377 526 394 496 L404 546 L541 546 Z M235 113 Q283 113 327 153 L375 398 Q345 437 294 437 Q229 437 197.5 365.5 Q166 294 166 203 Q166 113 235 113 Z M165 622 Q195 767 295 767 Q323 767 341.5 757.5 Q360 748 380 731 Q393 720 402.5 714.5 Q412 709 422 709 Q439 709 454.5 725.5 Q470 742 478 770 L551 760 Q535 687 501 651 Q467 615 419 615 Q391 615 373 624.5 Q355 634 335 651 Q322 662 313 667.5 Q304 673 294 673 Q276 673 260.5 656 Q245 639 238 612 L165 622 Z " />
<glyph glyph-name="ae" unicode="&#xe6;" horiz-adv-x="792" d="M446 230 L446 214 Q446 110 548 110 Q603 110 672 142 L710 41 Q621 -11 510 -11 Q398 -11 346 61 Q307 23 263 5.5 Q219 -12 165 -12 Q97 -12 60 35 Q23 82 23 167 Q23 267 58.5 357 Q94 447 161 502.5 Q228 558 318 558 Q407 558 442 495 Q518 558 624 558 Q697 558 742 516.5 Q787 475 787 408 Q787 356 761 315.5 Q735 275 691 254 Q664 241 629 235.5 Q594 230 542 230 L446 230 Z M598 440 Q554 440 519.5 406.5 Q485 373 466 320 L545 320 Q606 320 628 337 Q639 346 645 360 Q651 374 651 390 Q651 414 637 427 Q623 440 598 440 Z M232 113 Q273 113 314 144 Q311 165 311 187 Q311 255 329 317 Q347 379 381 429 Q357 437 331 437 Q281 437 242.5 403 Q204 369 183.5 314.5 Q163 260 163 203 Q163 113 232 113 Z " />
<glyph glyph-name="b" unicode="b" horiz-adv-x="556" d="M386 558 Q455 558 492.5 511.5 Q530 465 530 379 Q530 280 502.5 191 Q475 102 417 45 Q359 -12 273 -12 Q228 -12 195.5 10 Q163 32 150 72 L136 0 L14 0 L164 770 L301 770 L248 501 Q307 558 386 558 Z M260 109 Q305 109 334 144.5 Q363 180 376.5 233.5 Q390 287 390 343 Q390 433 319 433 Q273 433 228 394 L180 147 Q194 129 214.5 119 Q235 109 260 109 Z " />
<glyph glyph-name="c" unicode="c" horiz-adv-x="460" d="M229 -11 Q130 -11 76 40 Q22 91 22 184 Q22 283 58 368.5 Q94 454 165 506 Q236 558 335 558 Q378 558 417 545 Q456 532 482 509 L418 405 Q356 436 309 436 Q261 436 227.5 402.5 Q194 369 177.5 317.5 Q161 266 161 211 Q161 112 259 112 Q309 112 369 142 L401 39 Q328 -11 229 -11 Z " />
<glyph glyph-name="cacute" unicode="&#x107;" horiz-adv-x="460" d="M229 -11 Q130 -11 76 40 Q22 91 22 184 Q22 283 58 368.5 Q94 454 165 506 Q236 558 335 558 Q378 558 417 545 Q456 532 482 509 L418 405 Q356 436 309 436 Q261 436 227.5 402.5 Q194 369 177.5 317.5 Q161 266 161 211 Q161 112 259 112 Q309 112 369 142 L401 39 Q328 -11 229 -11 Z M254 625 L373 784 L515 784 L514 774 L358 615 L253 615 L254 625 Z " />
<glyph glyph-name="ccaron" unicode="&#x10d;" horiz-adv-x="460" d="M229 -11 Q130 -11 76 40 Q22 91 22 184 Q22 283 58 368.5 Q94 454 165 506 Q236 558 335 558 Q378 558 417 545 Q456 532 482 509 L418 405 Q356 436 309 436 Q261 436 227.5 402.5 Q194 369 177.5 317.5 Q161 266 161 211 Q161 112 259 112 Q309 112 369 142 L401 39 Q328 -11 229 -11 Z M515 784 L514 774 L386 615 L262 615 L194 774 L195 784 L283 784 L335 693 L423 784 L515 784 Z " />
<glyph glyph-name="ccedilla" unicode="&#xe7;" horiz-adv-x="460" d="M309 436 Q261 436 227.5 402.5 Q194 369 177.5 317.5 Q161 266 161 211 Q161 112 259 112 Q309 112 369 142 L401 39 Q330 -11 231 -11 L195 -51 Q200 -50 210 -50 Q255 -50 280 -71.5 Q305 -93 305 -131 Q305 -181 264 -210.5 Q223 -240 160 -240 Q93 -240 42 -212 L64 -157 Q107 -171 140 -171 Q168 -171 185.5 -159.5 Q203 -148 203 -129 Q203 -107 176 -107 Q153 -107 133 -116 L106 -82 L152 -1 Q89 16 55.5 63.5 Q22 111 22 184 Q22 283 58 368.5 Q94 454 165 506 Q236 558 335 558 Q378 558 417 545 Q456 532 482 509 L418 405 Q356 436 309 436 Z " />
<glyph glyph-name="ccircumflex" unicode="&#x109;" horiz-adv-x="460" d="M229 -11 Q130 -11 76 40 Q22 91 22 184 Q22 283 58 368.5 Q94 454 165 506 Q236 558 335 558 Q378 558 417 545 Q456 532 482 509 L418 405 Q356 436 309 436 Q261 436 227.5 402.5 Q194 369 177.5 317.5 Q161 266 161 211 Q161 112 259 112 Q309 112 369 142 L401 39 Q328 -11 229 -11 Z M483 625 L482 615 L394 615 L342 706 L254 615 L162 615 L163 625 L291 784 L415 784 L483 625 Z " />
<glyph glyph-name="cdotaccent" unicode="&#x10b;" horiz-adv-x="460" d="M229 -11 Q130 -11 76 40 Q22 91 22 184 Q22 283 58 368.5 Q94 454 165 506 Q236 558 335 558 Q378 558 417 545 Q456 532 482 509 L418 405 Q356 436 309 436 Q261 436 227.5 402.5 Q194 369 177.5 317.5 Q161 266 161 211 Q161 112 259 112 Q309 112 369 142 L401 39 Q328 -11 229 -11 Z M330 617 Q295 617 276.5 635 Q258 653 258 687 Q258 725 281 749 Q304 773 344 773 Q378 773 397 754.5 Q416 736 416 702 Q416 664 393 640.5 Q370 617 330 617 Z " />
<glyph glyph-name="d" unicode="d" horiz-adv-x="556" d="M586 770 L436 0 L314 0 L327 67 Q263 -12 170 -12 Q101 -12 63.5 34.5 Q26 81 26 167 Q26 266 53.5 355 Q81 444 139 501 Q197 558 283 558 Q321 558 350 542 Q379 526 396 497 L449 770 L586 770 Z M237 113 Q261 113 283 122.5 Q305 132 329 152 L377 398 Q363 417 342 427 Q321 437 296 437 Q251 437 222 401.5 Q193 366 179.5 312.5 Q166 259 166 203 Q166 113 237 113 Z " />
<glyph glyph-name="eth" unicode="&#xf0;" horiz-adv-x="545" d="M423 675 Q477 624 501 558.5 Q525 493 525 401 Q525 289 492.5 195 Q460 101 391 44 Q322 -13 218 -13 Q26 -13 26 198 Q26 284 56.5 361 Q87 438 148 486 Q209 534 294 534 Q333 534 359.5 522.5 Q386 511 403 484 Q388 570 328 626 L202 555 L175 622 L270 668 Q240 685 210 697 L181 709 L225 792 L248 782 Q314 754 368 719 L481 785 L508 718 L423 675 Z M230 108 Q275 108 308.5 143 Q342 178 360 229.5 Q378 281 378 329 Q378 421 307 421 Q262 421 229.5 386 Q197 351 180.5 299.5 Q164 248 164 199 Q164 152 180 130 Q196 108 230 108 Z " />
<glyph glyph-name="dcaron" unicode="&#x10f;" horiz-adv-x="629" d="M449 770 L586 770 L436 0 L314 0 L327 67 Q263 -12 170 -12 Q101 -12 63.5 34.5 Q26 81 26 167 Q26 266 53.5 355 Q81 444 139 501 Q197 558 283 558 Q321 558 350 542 Q379 526 396 497 L449 770 Z M747 770 L746 760 L668 540 L591 540 L636 770 L747 770 Z M237 113 Q261 113 283 122.5 Q305 132 329 152 L377 398 Q363 417 342 427 Q321 437 296 437 Q251 437 222 401.5 Q193 366 179.5 312.5 Q166 259 166 203 Q166 113 237 113 Z " />
<glyph glyph-name="dslash" unicode="&#x111;" horiz-adv-x="558" d="M613 604 L555 604 L437 0 L315 0 L328 67 Q264 -12 172 -12 Q101 -12 62.5 34 Q24 80 24 165 Q24 260 52.5 346.5 Q81 433 139 487.5 Q197 542 281 542 Q319 542 348 526 Q377 510 394 481 L418 604 L237 604 L255 695 L435 695 L450 770 L587 770 L572 695 L631 695 L613 604 Z M238 113 Q284 113 329 152 L374 383 Q360 401 339.5 411 Q319 421 294 421 Q250 421 220.5 388 Q191 355 177.5 305 Q164 255 164 201 Q164 113 238 113 Z " />
<glyph glyph-name="uni1E0D" unicode="&#x1e0d;" horiz-adv-x="556" d="M586 770 L436 0 L314 0 L327 67 Q263 -12 170 -12 Q101 -12 63.5 34.5 Q26 81 26 167 Q26 266 53.5 355 Q81 444 139 501 Q197 558 283 558 Q321 558 350 542 Q379 526 396 497 L449 770 L586 770 Z M237 113 Q261 113 283 122.5 Q305 132 329 152 L377 398 Q363 417 342 427 Q321 437 296 437 Q251 437 222 401.5 Q193 366 179.5 312.5 Q166 259 166 203 Q166 113 237 113 Z M191 -226 Q156 -226 137.5 -208 Q119 -190 119 -156 Q119 -118 142 -94 Q165 -70 205 -70 Q239 -70 258 -88.5 Q277 -107 277 -141 Q277 -179 254 -202.5 Q231 -226 191 -226 Z " />
<glyph glyph-name="uni1E0F" unicode="&#x1e0f;" horiz-adv-x="556" d="M586 770 L436 0 L314 0 L327 67 Q263 -12 170 -12 Q101 -12 63.5 34.5 Q26 81 26 167 Q26 266 53.5 355 Q81 444 139 501 Q197 558 283 558 Q321 558 350 542 Q379 526 396 497 L449 770 L586 770 Z M237 113 Q261 113 283 122.5 Q305 132 329 152 L377 398 Q363 417 342 427 Q321 437 296 437 Q251 437 222 401.5 Q193 366 179.5 312.5 Q166 259 166 203 Q166 113 237 113 Z M50 -97 L368 -97 L351 -187 L33 -187 L50 -97 Z " />
<glyph glyph-name="e" unicode="e" horiz-adv-x="511" d="M159 230 L159 214 Q159 110 264 110 Q322 110 391 142 L429 41 Q340 -11 226 -11 Q130 -11 77 40.5 Q24 92 24 187 Q24 286 61.5 371 Q99 456 171 507 Q243 558 340 558 Q415 558 460.5 517 Q506 476 506 408 Q506 356 480 315.5 Q454 275 410 254 Q383 241 348 235.5 Q313 230 261 230 L159 230 Z M314 440 Q269 440 234 406.5 Q199 373 179 320 L264 320 Q325 320 347 337 Q358 346 364 360 Q370 374 370 390 Q370 414 355.5 427 Q341 440 314 440 Z " />
<glyph glyph-name="eacute" unicode="&#xe9;" horiz-adv-x="511" d="M159 230 L159 214 Q159 110 264 110 Q322 110 391 142 L429 41 Q340 -11 226 -11 Q130 -11 77 40.5 Q24 92 24 187 Q24 286 61.5 371 Q99 456 171 507 Q243 558 340 558 Q415 558 460.5 517 Q506 476 506 408 Q506 356 480 315.5 Q454 275 410 254 Q383 241 348 235.5 Q313 230 261 230 L159 230 Z M314 440 Q269 440 234 406.5 Q199 373 179 320 L264 320 Q325 320 347 337 Q358 346 364 360 Q370 374 370 390 Q370 414 355.5 427 Q341 440 314 440 Z M262 625 L381 784 L523 784 L522 774 L366 615 L261 615 L262 625 Z " />
<glyph glyph-name="ebreve" unicode="&#x115;" horiz-adv-x="511" d="M159 230 L159 214 Q159 110 264 110 Q322 110 391 142 L429 41 Q340 -11 226 -11 Q130 -11 77 40.5 Q24 92 24 187 Q24 286 61.5 371 Q99 456 171 507 Q243 558 340 558 Q415 558 460.5 517 Q506 476 506 408 Q506 356 480 315.5 Q454 275 410 254 Q383 241 348 235.5 Q313 230 261 230 L159 230 Z M314 440 Q269 440 234 406.5 Q199 373 179 320 L264 320 Q325 320 347 337 Q358 346 364 360 Q370 374 370 390 Q370 414 355.5 427 Q341 440 314 440 Z M340 611 Q274 611 238.5 647.5 Q203 684 203 745 Q203 764 206 783 L281 778 Q276 707 344 707 Q381 707 407.5 727 Q434 747 446 783 L520 778 Q480 611 340 611 Z " />
<glyph glyph-name="ecaron" unicode="&#x11b;" horiz-adv-x="511" d="M159 230 L159 214 Q159 110 264 110 Q322 110 391 142 L429 41 Q340 -11 226 -11 Q130 -11 77 40.5 Q24 92 24 187 Q24 286 61.5 371 Q99 456 171 507 Q243 558 340 558 Q415 558 460.5 517 Q506 476 506 408 Q506 356 480 315.5 Q454 275 410 254 Q383 241 348 235.5 Q313 230 261 230 L159 230 Z M314 440 Q269 440 234 406.5 Q199 373 179 320 L264 320 Q325 320 347 337 Q358 346 364 360 Q370 374 370 390 Q370 414 355.5 427 Q341 440 314 440 Z M523 784 L522 774 L394 615 L270 615 L202 774 L203 784 L291 784 L343 693 L431 784 L523 784 Z " />
<glyph glyph-name="ecircumflex" unicode="&#xea;" horiz-adv-x="511" d="M159 230 L159 214 Q159 110 264 110 Q322 110 391 142 L429 41 Q340 -11 226 -11 Q130 -11 77 40.5 Q24 92 24 187 Q24 286 61.5 371 Q99 456 171 507 Q243 558 340 558 Q415 558 460.5 517 Q506 476 506 408 Q506 356 480 315.5 Q454 275 410 254 Q383 241 348 235.5 Q313 230 261 230 L159 230 Z M314 440 Q269 440 234 406.5 Q199 373 179 320 L264 320 Q325 320 347 337 Q358 346 364 360 Q370 374 370 390 Q370 414 355.5 427 Q341 440 314 440 Z M491 625 L490 615 L402 615 L350 706 L262 615 L170 615 L171 625 L299 784 L423 784 L491 625 Z " />
<glyph glyph-name="uni1EBF" unicode="&#x1ebf;" horiz-adv-x="511" d="M681 862 L680 852 L558 725 L468 725 L469 735 L562 862 L681 862 Z M259 615 L167 615 L168 625 L295 764 L419 764 L492 625 L491 615 L403 615 L347 696 L259 615 Z M340 558 Q415 558 460.5 517 Q506 476 506 408 Q506 356 480 315.5 Q454 275 410 254 Q383 241 348 235.5 Q313 230 261 230 L159 230 L159 214 Q159 110 264 110 Q322 110 391 142 L429 41 Q340 -11 226 -11 Q130 -11 77 40.5 Q24 92 24 187 Q24 286 61.5 371 Q99 456 171 507 Q243 558 340 558 Z M347 337 Q358 346 364 360 Q370 374 370 390 Q370 414 355.5 427 Q341 440 314 440 Q269 440 234 406.5 Q199 373 179 320 L264 320 Q325 320 347 337 Z " />
<glyph glyph-name="uni1EC7" unicode="&#x1ec7;" horiz-adv-x="511" d="M159 230 L159 214 Q159 110 264 110 Q322 110 391 142 L429 41 Q340 -11 226 -11 Q130 -11 77 40.5 Q24 92 24 187 Q24 286 61.5 371 Q99 456 171 507 Q243 558 340 558 Q415 558 460.5 517 Q506 476 506 408 Q506 356 480 315.5 Q454 275 410 254 Q383 241 348 235.5 Q313 230 261 230 L159 230 Z M314 440 Q269 440 234 406.5 Q199 373 179 320 L264 320 Q325 320 347 337 Q358 346 364 360 Q370 374 370 390 Q370 414 355.5 427 Q341 440 314 440 Z M177 -226 Q142 -226 123.5 -208 Q105 -190 105 -156 Q105 -118 128 -94 Q151 -70 191 -70 Q225 -70 244 -88.5 Q263 -107 263 -141 Q263 -179 240 -202.5 Q217 -226 177 -226 Z M491 625 L490 615 L402 615 L350 706 L262 615 L170 615 L171 625 L299 784 L423 784 L491 625 Z " />
<glyph glyph-name="uni1EC1" unicode="&#x1ec1;" horiz-adv-x="511" d="M145 727 L78 854 L79 864 L190 864 L227 737 L226 727 L145 727 Z M168 625 L295 764 L419 764 L492 625 L491 615 L403 615 L347 696 L259 615 L167 615 L168 625 Z M159 230 L159 214 Q159 110 264 110 Q322 110 391 142 L429 41 Q340 -11 226 -11 Q130 -11 77 40.5 Q24 92 24 187 Q24 286 61.5 371 Q99 456 171 507 Q243 558 340 558 Q415 558 460.5 517 Q506 476 506 408 Q506 356 480 315.5 Q454 275 410 254 Q383 241 348 235.5 Q313 230 261 230 L159 230 Z M314 440 Q269 440 234 406.5 Q199 373 179 320 L264 320 Q325 320 347 337 Q358 346 364 360 Q370 374 370 390 Q370 414 355.5 427 Q341 440 314 440 Z " />
<glyph glyph-name="uni1EC3" unicode="&#x1ec3;" horiz-adv-x="511" d="M552 907 Q599 907 624 887.5 Q649 868 649 832 Q649 804 635.5 790.5 Q622 777 597 764 Q579 756 570 748.5 Q561 741 561 728 L561 724 L480 730 L480 737 Q480 767 491 780.5 Q502 794 522 805 Q532 811 537 815 Q542 819 542 826 Q542 835 527 835 Q498 835 468 820 L445 881 Q469 894 497.5 900.5 Q526 907 552 907 Z M259 615 L167 615 L168 625 L295 764 L419 764 L492 625 L491 615 L403 615 L347 696 L259 615 Z M340 558 Q415 558 460.5 517 Q506 476 506 408 Q506 356 480 315.5 Q454 275 410 254 Q383 241 348 235.5 Q313 230 261 230 L159 230 L159 214 Q159 110 264 110 Q322 110 391 142 L429 41 Q340 -11 226 -11 Q130 -11 77 40.5 Q24 92 24 187 Q24 286 61.5 371 Q99 456 171 507 Q243 558 340 558 Z M347 337 Q358 346 364 360 Q370 374 370 390 Q370 414 355.5 427 Q341 440 314 440 Q269 440 234 406.5 Q199 373 179 320 L264 320 Q325 320 347 337 Z " />
<glyph glyph-name="uni1EC5" unicode="&#x1ec5;" horiz-adv-x="511" d="M554 929 Q529 797 428 797 Q400 797 386.5 805.5 Q373 814 360 830 Q351 841 344.5 846 Q338 851 327 851 Q307 851 290 836 Q273 821 266 794 L202 804 Q227 936 328 936 Q356 936 370 927.5 Q384 919 397 903 Q405 893 412 887.5 Q419 882 430 882 Q449 882 466 897 Q483 912 490 939 L554 929 Z M259 615 L167 615 L168 625 L295 764 L419 764 L492 625 L491 615 L403 615 L347 696 L259 615 Z M340 558 Q415 558 460.5 517 Q506 476 506 408 Q506 356 480 315.5 Q454 275 410 254 Q383 241 348 235.5 Q313 230 261 230 L159 230 L159 214 Q159 110 264 110 Q322 110 391 142 L429 41 Q340 -11 226 -11 Q130 -11 77 40.5 Q24 92 24 187 Q24 286 61.5 371 Q99 456 171 507 Q243 558 340 558 Z M347 337 Q358 346 364 360 Q370 374 370 390 Q370 414 355.5 427 Q341 440 314 440 Q269 440 234 406.5 Q199 373 179 320 L264 320 Q325 320 347 337 Z " />
<glyph glyph-name="edieresis" unicode="&#xeb;" horiz-adv-x="511" d="M244 624 Q213 624 196.5 640.5 Q180 657 180 688 Q180 723 201 745 Q222 767 257 767 Q288 767 304.5 750 Q321 733 321 702 Q321 667 300.5 645.5 Q280 624 244 624 Z M434 624 Q403 624 386.5 640.5 Q370 657 370 688 Q370 723 391 745 Q412 767 447 767 Q478 767 494.5 750 Q511 733 511 702 Q511 667 490.5 645.5 Q470 624 434 624 Z M340 558 Q415 558 460.5 517 Q506 476 506 408 Q506 356 480 315.5 Q454 275 410 254 Q383 241 348 235.5 Q313 230 261 230 L159 230 L159 214 Q159 110 264 110 Q322 110 391 142 L429 41 Q340 -11 226 -11 Q130 -11 77 40.5 Q24 92 24 187 Q24 286 61.5 371 Q99 456 171 507 Q243 558 340 558 Z M347 337 Q358 346 364 360 Q370 374 370 390 Q370 414 355.5 427 Q341 440 314 440 Q269 440 234 406.5 Q199 373 179 320 L264 320 Q325 320 347 337 Z " />
<glyph glyph-name="edotaccent" unicode="&#x117;" horiz-adv-x="511" d="M159 230 L159 214 Q159 110 264 110 Q322 110 391 142 L429 41 Q340 -11 226 -11 Q130 -11 77 40.5 Q24 92 24 187 Q24 286 61.5 371 Q99 456 171 507 Q243 558 340 558 Q415 558 460.5 517 Q506 476 506 408 Q506 356 480 315.5 Q454 275 410 254 Q383 241 348 235.5 Q313 230 261 230 L159 230 Z M314 440 Q269 440 234 406.5 Q199 373 179 320 L264 320 Q325 320 347 337 Q358 346 364 360 Q370 374 370 390 Q370 414 355.5 427 Q341 440 314 440 Z M338 617 Q303 617 284.5 635 Q266 653 266 687 Q266 725 289 749 Q312 773 352 773 Q386 773 405 754.5 Q424 736 424 702 Q424 664 401 640.5 Q378 617 338 617 Z " />
<glyph glyph-name="uni1EB9" unicode="&#x1eb9;" horiz-adv-x="511" d="M159 230 L159 214 Q159 110 264 110 Q322 110 391 142 L429 41 Q340 -11 226 -11 Q130 -11 77 40.5 Q24 92 24 187 Q24 286 61.5 371 Q99 456 171 507 Q243 558 340 558 Q415 558 460.5 517 Q506 476 506 408 Q506 356 480 315.5 Q454 275 410 254 Q383 241 348 235.5 Q313 230 261 230 L159 230 Z M314 440 Q269 440 234 406.5 Q199 373 179 320 L264 320 Q325 320 347 337 Q358 346 364 360 Q370 374 370 390 Q370 414 355.5 427 Q341 440 314 440 Z M177 -226 Q142 -226 123.5 -208 Q105 -190 105 -156 Q105 -118 128 -94 Q151 -70 191 -70 Q225 -70 244 -88.5 Q263 -107 263 -141 Q263 -179 240 -202.5 Q217 -226 177 -226 Z " />
<glyph glyph-name="egrave" unicode="&#xe8;" horiz-adv-x="511" d="M159 230 L159 214 Q159 110 264 110 Q322 110 391 142 L429 41 Q340 -11 226 -11 Q130 -11 77 40.5 Q24 92 24 187 Q24 286 61.5 371 Q99 456 171 507 Q243 558 340 558 Q415 558 460.5 517 Q506 476 506 408 Q506 356 480 315.5 Q454 275 410 254 Q383 241 348 235.5 Q313 230 261 230 L159 230 Z M314 440 Q269 440 234 406.5 Q199 373 179 320 L264 320 Q325 320 347 337 Q358 346 364 360 Q370 374 370 390 Q370 414 355.5 427 Q341 440 314 440 Z M217 774 L218 784 L351 784 L402 625 L401 615 L305 615 L217 774 Z " />
<glyph glyph-name="uni1EBB" unicode="&#x1ebb;" horiz-adv-x="511" d="M159 230 L159 214 Q159 110 264 110 Q322 110 391 142 L429 41 Q340 -11 226 -11 Q130 -11 77 40.5 Q24 92 24 187 Q24 286 61.5 371 Q99 456 171 507 Q243 558 340 558 Q415 558 460.5 517 Q506 476 506 408 Q506 356 480 315.5 Q454 275 410 254 Q383 241 348 235.5 Q313 230 261 230 L159 230 Z M314 440 Q269 440 234 406.5 Q199 373 179 320 L264 320 Q325 320 347 337 Q358 346 364 360 Q370 374 370 390 Q370 414 355.5 427 Q341 440 314 440 Z M288 617 L288 628 Q288 658 300 674.5 Q312 691 334 708 Q345 715 350 720.5 Q355 726 355 732 Q355 742 338 742 Q311 742 278 726 L254 790 Q304 817 367 817 Q464 817 464 743 Q464 713 450.5 698 Q437 683 411 667 Q391 655 381.5 645.5 Q372 636 372 620 L372 612 L288 617 Z " />
<glyph glyph-name="emacron" unicode="&#x113;" horiz-adv-x="511" d="M159 230 L159 214 Q159 110 264 110 Q322 110 391 142 L429 41 Q340 -11 226 -11 Q130 -11 77 40.5 Q24 92 24 187 Q24 286 61.5 371 Q99 456 171 507 Q243 558 340 558 Q415 558 460.5 517 Q506 476 506 408 Q506 356 480 315.5 Q454 275 410 254 Q383 241 348 235.5 Q313 230 261 230 L159 230 Z M314 440 Q269 440 234 406.5 Q199 373 179 320 L264 320 Q325 320 347 337 Q358 346 364 360 Q370 374 370 390 Q370 414 355.5 427 Q341 440 314 440 Z M192 727 L510 727 L493 637 L175 637 L192 727 Z " />
<glyph glyph-name="eogonek" unicode="&#x119;" horiz-adv-x="512" d="M160 230 L160 214 Q160 110 265 110 Q323 110 392 142 L430 41 L394 22 Q341 -5 305.5 -46 Q270 -87 270 -118 Q270 -144 300 -144 Q325 -144 357 -128 L383 -202 Q334 -230 269 -230 Q215 -230 185.5 -206 Q156 -182 156 -139 Q156 -103 176 -70 Q196 -37 233 -11 L227 -11 Q131 -11 78 40.5 Q25 92 25 187 Q25 286 62.5 371 Q100 456 172 507 Q244 558 341 558 Q416 558 461.5 517 Q507 476 507 408 Q507 356 481 315.5 Q455 275 411 254 Q384 241 349 235.5 Q314 230 262 230 L160 230 Z M315 440 Q270 440 235 406.5 Q200 373 180 320 L265 320 Q326 320 348 337 Q359 346 365 360 Q371 374 371 390 Q371 414 356.5 427 Q342 440 315 440 Z " />
<glyph glyph-name="uni1EBD" unicode="&#x1ebd;" horiz-adv-x="511" d="M159 230 L159 214 Q159 110 264 110 Q322 110 391 142 L429 41 Q340 -11 226 -11 Q130 -11 77 40.5 Q24 92 24 187 Q24 286 61.5 371 Q99 456 171 507 Q243 558 340 558 Q415 558 460.5 517 Q506 476 506 408 Q506 356 480 315.5 Q454 275 410 254 Q383 241 348 235.5 Q313 230 261 230 L159 230 Z M314 440 Q269 440 234 406.5 Q199 373 179 320 L264 320 Q325 320 347 337 Q358 346 364 360 Q370 374 370 390 Q370 414 355.5 427 Q341 440 314 440 Z M152 622 Q182 767 282 767 Q310 767 328.5 757.5 Q347 748 367 731 Q380 720 389.5 714.5 Q399 709 409 709 Q426 709 441.5 725.5 Q457 742 465 770 L538 760 Q522 687 488 651 Q454 615 406 615 Q378 615 360 624.5 Q342 634 322 651 Q309 662 300 667.5 Q291 673 281 673 Q263 673 247.5 656 Q232 639 225 612 L152 622 Z " />
<glyph glyph-name="f" unicode="f" horiz-adv-x="353" d="M110 430 L32 430 L54 546 L133 546 L142 592 Q161 687 224 737 Q287 787 388 787 Q427 787 457 781 L434 665 Q411 669 384 669 Q341 669 312.5 646 Q284 623 276 582 L269 546 L391 546 L369 430 L247 430 L164 0 L27 0 L110 430 Z " />
<glyph glyph-name="g" unicode="g" horiz-adv-x="559" d="M545 546 L441 12 Q419 -100 347.5 -159.5 Q276 -219 163 -219 Q113 -219 68 -207 Q23 -195 -11 -175 L38 -74 Q93 -101 153 -101 Q216 -101 255.5 -69 Q295 -37 306 22 L317 78 Q257 18 178 18 Q105 18 67.5 62.5 Q30 107 30 191 Q30 286 57 370 Q84 454 141.5 506 Q199 558 284 558 Q380 558 408 472 L423 546 L545 546 Z M379 397 Q365 416 344 426.5 Q323 437 298 437 Q232 437 201 375 Q170 313 170 228 Q170 143 245 143 Q269 143 291 152.5 Q313 162 337 183 L379 397 Z " />
<glyph glyph-name="gbreve" unicode="&#x11f;" horiz-adv-x="559" d="M545 546 L441 12 Q419 -100 347.5 -159.5 Q276 -219 163 -219 Q113 -219 68 -207 Q23 -195 -11 -175 L38 -74 Q93 -101 153 -101 Q216 -101 255.5 -69 Q295 -37 306 22 L317 78 Q257 18 178 18 Q105 18 67.5 62.5 Q30 107 30 191 Q30 286 57 370 Q84 454 141.5 506 Q199 558 284 558 Q380 558 408 472 L423 546 L545 546 Z M379 397 Q365 416 344 426.5 Q323 437 298 437 Q232 437 201 375 Q170 313 170 228 Q170 143 245 143 Q269 143 291 152.5 Q313 162 337 183 L379 397 Z M351 611 Q285 611 249.5 647.5 Q214 684 214 745 Q214 764 217 783 L292 778 Q287 707 355 707 Q392 707 418.5 727 Q445 747 457 783 L531 778 Q491 611 351 611 Z " />
<glyph glyph-name="gcaron" unicode="&#x1e7;" horiz-adv-x="559" d="M545 546 L441 12 Q419 -100 347.5 -159.5 Q276 -219 163 -219 Q113 -219 68 -207 Q23 -195 -11 -175 L38 -74 Q93 -101 153 -101 Q216 -101 255.5 -69 Q295 -37 306 22 L317 78 Q257 18 178 18 Q105 18 67.5 62.5 Q30 107 30 191 Q30 286 57 370 Q84 454 141.5 506 Q199 558 284 558 Q380 558 408 472 L423 546 L545 546 Z M379 397 Q365 416 344 426.5 Q323 437 298 437 Q232 437 201 375 Q170 313 170 228 Q170 143 245 143 Q269 143 291 152.5 Q313 162 337 183 L379 397 Z M534 784 L533 774 L405 615 L281 615 L213 774 L214 784 L302 784 L354 693 L442 784 L534 784 Z " />
<glyph glyph-name="gcircumflex" unicode="&#x11d;" horiz-adv-x="559" d="M545 546 L441 12 Q419 -100 347.5 -159.5 Q276 -219 163 -219 Q113 -219 68 -207 Q23 -195 -11 -175 L38 -74 Q93 -101 153 -101 Q216 -101 255.5 -69 Q295 -37 306 22 L317 78 Q257 18 178 18 Q105 18 67.5 62.5 Q30 107 30 191 Q30 286 57 370 Q84 454 141.5 506 Q199 558 284 558 Q380 558 408 472 L423 546 L545 546 Z M379 397 Q365 416 344 426.5 Q323 437 298 437 Q232 437 201 375 Q170 313 170 228 Q170 143 245 143 Q269 143 291 152.5 Q313 162 337 183 L379 397 Z M502 625 L501 615 L413 615 L361 706 L273 615 L181 615 L182 625 L310 784 L434 784 L502 625 Z " />
<glyph glyph-name="gcommaaccent" unicode="&#x123;" horiz-adv-x="559" d="M545 546 L441 12 Q419 -100 347.5 -159.5 Q276 -219 163 -219 Q113 -219 68 -207 Q23 -195 -11 -175 L38 -74 Q93 -101 153 -101 Q216 -101 255.5 -69 Q295 -37 306 22 L317 78 Q257 18 178 18 Q105 18 67.5 62.5 Q30 107 30 191 Q30 286 57 370 Q84 454 141.5 506 Q199 558 284 558 Q380 558 408 472 L423 546 L545 546 Z M379 397 Q365 416 344 426.5 Q323 437 298 437 Q232 437 201 375 Q170 313 170 228 Q170 143 245 143 Q269 143 291 152.5 Q313 162 337 183 L379 397 Z M470 770 Q440 742 425.5 715.5 Q411 689 402 643 Q397 621 396 598 L279 608 Q279 635 285 664 Q295 710 325.5 747.5 Q356 785 423 829 L470 770 Z " />
<glyph glyph-name="gdotaccent" unicode="&#x121;" horiz-adv-x="559" d="M545 546 L441 12 Q419 -100 347.5 -159.5 Q276 -219 163 -219 Q113 -219 68 -207 Q23 -195 -11 -175 L38 -74 Q93 -101 153 -101 Q216 -101 255.5 -69 Q295 -37 306 22 L317 78 Q257 18 178 18 Q105 18 67.5 62.5 Q30 107 30 191 Q30 286 57 370 Q84 454 141.5 506 Q199 558 284 558 Q380 558 408 472 L423 546 L545 546 Z M379 397 Q365 416 344 426.5 Q323 437 298 437 Q232 437 201 375 Q170 313 170 228 Q170 143 245 143 Q269 143 291 152.5 Q313 162 337 183 L379 397 Z M349 617 Q314 617 295.5 635 Q277 653 277 687 Q277 725 300 749 Q323 773 363 773 Q397 773 416 754.5 Q435 736 435 702 Q435 664 412 640.5 Q389 617 349 617 Z " />
<glyph glyph-name="uni1E21" unicode="&#x1e21;" horiz-adv-x="559" d="M545 546 L441 12 Q419 -100 347.5 -159.5 Q276 -219 163 -219 Q113 -219 68 -207 Q23 -195 -11 -175 L38 -74 Q93 -101 153 -101 Q216 -101 255.5 -69 Q295 -37 306 22 L317 78 Q257 18 178 18 Q105 18 67.5 62.5 Q30 107 30 191 Q30 286 57 370 Q84 454 141.5 506 Q199 558 284 558 Q380 558 408 472 L423 546 L545 546 Z M379 397 Q365 416 344 426.5 Q323 437 298 437 Q232 437 201 375 Q170 313 170 228 Q170 143 245 143 Q269 143 291 152.5 Q313 162 337 183 L379 397 Z M203 727 L521 727 L504 637 L186 637 L203 727 Z " />
<glyph glyph-name="uni0261" unicode="&#x261;" horiz-adv-x="559" d="M545 546 L441 12 Q419 -100 347.5 -159.5 Q276 -219 163 -219 Q113 -219 68 -207 Q23 -195 -11 -175 L38 -74 Q93 -101 153 -101 Q216 -101 255.5 -69 Q295 -37 306 22 L317 78 Q257 18 178 18 Q105 18 67.5 62.5 Q30 107 30 191 Q30 286 57 370 Q84 454 141.5 506 Q199 558 284 558 Q380 558 408 472 L423 546 L545 546 Z M379 397 Q365 416 344 426.5 Q323 437 298 437 Q232 437 201 375 Q170 313 170 228 Q170 143 245 143 Q269 143 291 152.5 Q313 162 337 183 L379 397 Z " />
<glyph glyph-name="h" unicode="h" horiz-adv-x="566" d="M395 558 Q460 558 495 524 Q530 490 530 429 Q530 409 525 381 L451 0 L314 0 L386 370 Q388 378 388 392 Q388 414 375.5 423.5 Q363 433 336 433 Q307 433 281 422.5 Q255 412 227 391 L151 0 L14 0 L164 770 L301 770 L249 501 Q315 558 395 558 Z " />
<glyph glyph-name="hbar" unicode="&#x127;" horiz-adv-x="568" d="M393 542 Q458 542 493.5 508 Q529 474 529 412 Q529 393 524 365 L453 0 L316 0 L385 354 Q387 362 387 375 Q387 397 374 407 Q361 417 334 417 Q305 417 278.5 406.5 Q252 396 224 375 L151 0 L14 0 L132 604 L72 604 L90 695 L149 695 L164 770 L301 770 L286 695 L473 695 L455 604 L269 604 L245 485 Q314 542 393 542 Z " />
<glyph glyph-name="uni1E2B" unicode="&#x1e2b;" horiz-adv-x="566" d="M395 558 Q460 558 495 524 Q530 490 530 429 Q530 409 525 381 L451 0 L314 0 L386 370 Q388 378 388 392 Q388 414 375.5 423.5 Q363 433 336 433 Q307 433 281 422.5 Q255 412 227 391 L151 0 L14 0 L164 770 L301 770 L249 501 Q315 558 395 558 Z M200 -226 Q134 -226 98.5 -189.5 Q63 -153 63 -92 Q63 -74 66 -54 L141 -59 Q136 -130 204 -130 Q241 -130 267.5 -110 Q294 -90 306 -54 L380 -59 Q340 -226 200 -226 Z " />
<glyph glyph-name="hcircumflex" unicode="&#x125;" horiz-adv-x="566" d="M164 827 L65 827 L66 839 L204 972 L334 972 L421 839 L420 827 L325 827 L260 906 L164 827 Z M395 558 Q460 558 495 524 Q530 490 530 429 Q530 409 525 381 L451 0 L314 0 L386 370 Q388 378 388 392 Q388 414 375.5 423.5 Q363 433 336 433 Q307 433 281 422.5 Q255 412 227 391 L151 0 L14 0 L164 770 L301 770 L249 501 Q315 558 395 558 Z " />
<glyph glyph-name="uni1E25" unicode="&#x1e25;" horiz-adv-x="566" d="M395 558 Q460 558 495 524 Q530 490 530 429 Q530 409 525 381 L451 0 L314 0 L386 370 Q388 378 388 392 Q388 414 375.5 423.5 Q363 433 336 433 Q307 433 281 422.5 Q255 412 227 391 L151 0 L14 0 L164 770 L301 770 L249 501 Q315 558 395 558 Z M198 -226 Q163 -226 144.5 -208 Q126 -190 126 -156 Q126 -118 149 -94 Q172 -70 212 -70 Q246 -70 265 -88.5 Q284 -107 284 -141 Q284 -179 261 -202.5 Q238 -226 198 -226 Z " />
<glyph glyph-name="i" unicode="i" horiz-adv-x="275" d="M122 546 L259 546 L153 0 L16 0 L122 546 Z M211 617 Q176 617 157.5 635 Q139 653 139 687 Q139 725 162 749 Q185 773 225 773 Q259 773 278 754.5 Q297 736 297 702 Q297 664 274 640.5 Q251 617 211 617 Z " />
<glyph glyph-name="dotlessi" unicode="&#x131;" horiz-adv-x="275" d="M122 546 L259 546 L153 0 L16 0 L122 546 Z " />
<glyph glyph-name="iacute" unicode="&#xed;" horiz-adv-x="275" d="M122 546 L259 546 L153 0 L16 0 L122 546 Z M135 625 L254 784 L396 784 L395 774 L239 615 L134 615 L135 625 Z " />
<glyph glyph-name="uni01D0" unicode="&#x1d0;" horiz-adv-x="275" d="M122 546 L259 546 L153 0 L16 0 L122 546 Z M396 784 L395 774 L267 615 L143 615 L75 774 L76 784 L164 784 L216 693 L304 784 L396 784 Z " />
<glyph glyph-name="icircumflex" unicode="&#xee;" horiz-adv-x="275" d="M122 546 L259 546 L153 0 L16 0 L122 546 Z M364 625 L363 615 L275 615 L223 706 L135 615 L43 615 L44 625 L172 784 L296 784 L364 625 Z " />
<glyph glyph-name="idieresis" unicode="&#xef;" horiz-adv-x="275" d="M123 624 Q93 624 76.5 640.5 Q60 657 60 688 Q60 723 80 745 Q100 767 135 767 Q165 767 181.5 750 Q198 733 198 702 Q198 667 178 645.5 Q158 624 123 624 Z M302 624 Q272 624 255.5 640.5 Q239 657 239 688 Q239 723 259 745 Q279 767 314 767 Q344 767 360.5 750 Q377 733 377 702 Q377 667 357 645.5 Q337 624 302 624 Z M122 546 L259 546 L153 0 L16 0 L122 546 Z " />
<glyph glyph-name="uni1ECB" unicode="&#x1ecb;" horiz-adv-x="275" d="M122 546 L259 546 L153 0 L16 0 L122 546 Z M211 617 Q176 617 157.5 635 Q139 653 139 687 Q139 725 162 749 Q185 773 225 773 Q259 773 278 754.5 Q297 736 297 702 Q297 664 274 640.5 Q251 617 211 617 Z M48 -226 Q13 -226 -5.5 -208 Q-24 -190 -24 -156 Q-24 -118 -1 -94 Q22 -70 62 -70 Q96 -70 115 -88.5 Q134 -107 134 -141 Q134 -179 111 -202.5 Q88 -226 48 -226 Z " />
<glyph glyph-name="igrave" unicode="&#xec;" horiz-adv-x="275" d="M122 546 L259 546 L153 0 L16 0 L122 546 Z M90 774 L91 784 L224 784 L275 625 L274 615 L178 615 L90 774 Z " />
<glyph glyph-name="uni1EC9" unicode="&#x1ec9;" horiz-adv-x="275" d="M122 546 L259 546 L153 0 L16 0 L122 546 Z M161 617 L161 628 Q161 658 173 674.5 Q185 691 207 708 Q218 715 223 720.5 Q228 726 228 732 Q228 742 211 742 Q184 742 151 726 L127 790 Q177 817 240 817 Q337 817 337 743 Q337 713 323.5 698 Q310 683 284 667 Q264 655 254.5 645.5 Q245 636 245 620 L245 612 L161 617 Z " />
<glyph glyph-name="ij" unicode="&#x133;" horiz-adv-x="550" d="M122 546 L259 546 L153 0 L16 0 L122 546 Z M211 617 Q176 617 157.5 635 Q139 653 139 687 Q139 725 162 749 Q185 773 225 773 Q259 773 278 754.5 Q297 736 297 702 Q297 664 274 640.5 Q251 617 211 617 Z M127 -110 Q188 -89 222 -68.5 Q256 -48 274.5 -18.5 Q293 11 302 58 L397 546 L534 546 L436 43 Q421 -33 392 -81 Q363 -129 309 -162 Q255 -195 160 -225 L127 -110 Z M486 617 Q451 617 432.5 635 Q414 653 414 687 Q414 725 437 749 Q460 773 500 773 Q534 773 553 754.5 Q572 736 572 702 Q572 664 549 640.5 Q526 617 486 617 Z " />
<glyph glyph-name="imacron" unicode="&#x12b;" horiz-adv-x="275" d="M98 727 L351 727 L334 637 L81 637 L98 727 Z M122 546 L259 546 L153 0 L16 0 L122 546 Z " />
<glyph glyph-name="iogonek" unicode="&#x12f;" horiz-adv-x="275" d="M225 773 Q259 773 278 754.5 Q297 736 297 702 Q297 664 274 640.5 Q251 617 211 617 Q176 617 157.5 635 Q139 653 139 687 Q139 725 162 749 Q185 773 225 773 Z M153 0 Q115 -28 89 -60 Q63 -92 63 -118 Q63 -144 93 -144 Q118 -144 150 -128 L176 -202 Q127 -230 62 -230 Q8 -230 -21.5 -206 Q-51 -182 -51 -139 Q-51 -99 -27 -61.5 Q-3 -24 40 0 L16 0 L122 546 L259 546 L153 0 Z " />
<glyph glyph-name="itilde" unicode="&#x129;" horiz-adv-x="275" d="M267 615 Q238 615 223.5 625 Q209 635 198 652 Q189 664 183 669 Q177 674 167 674 Q148 674 132 656.5 Q116 639 109 612 L38 622 Q66 767 168 767 Q196 767 210 757.5 Q224 748 237 730 Q245 719 251 713.5 Q257 708 268 708 Q286 708 302.5 725 Q319 742 327 770 L398 760 Q369 615 267 615 Z M122 546 L259 546 L153 0 L16 0 L122 546 Z " />
<glyph glyph-name="j" unicode="j" horiz-adv-x="275" d="M-148 -110 Q-87 -89 -53 -68.5 Q-19 -48 -0.5 -18.5 Q18 11 27 58 L122 546 L259 546 L161 43 Q146 -33 117 -81 Q88 -129 34 -162 Q-20 -195 -115 -225 L-148 -110 Z M211 617 Q176 617 157.5 635 Q139 653 139 687 Q139 725 162 749 Q185 773 225 773 Q259 773 278 754.5 Q297 736 297 702 Q297 664 274 640.5 Q251 617 211 617 Z " />
<glyph glyph-name="uni0237" unicode="&#x237;" horiz-adv-x="275" d="M-148 -110 Q-87 -89 -53 -68.5 Q-19 -48 -0.5 -18.5 Q18 11 27 58 L122 546 L259 546 L161 43 Q146 -33 117 -81 Q88 -129 34 -162 Q-20 -195 -115 -225 L-148 -110 Z " />
<glyph glyph-name="jcircumflex" unicode="&#x135;" horiz-adv-x="275" d="M-148 -110 Q-87 -89 -53 -68.5 Q-19 -48 -0.5 -18.5 Q18 11 27 58 L122 546 L259 546 L161 43 Q146 -33 117 -81 Q88 -129 34 -162 Q-20 -195 -115 -225 L-148 -110 Z M364 625 L363 615 L275 615 L223 706 L135 615 L43 615 L44 625 L172 784 L296 784 L364 625 Z " />
<glyph glyph-name="k" unicode="k" horiz-adv-x="545" d="M348 313 L485 0 L334 0 L245 213 L180 149 L151 0 L14 0 L164 770 L301 770 L215 326 L420 546 L580 546 L348 313 Z " />
<glyph glyph-name="kcommaaccent" unicode="&#x137;" horiz-adv-x="545" d="M348 313 L485 0 L334 0 L245 213 L180 149 L151 0 L14 0 L164 770 L301 770 L215 326 L420 546 L580 546 L348 313 Z M84 -232 Q114 -204 128.5 -177.5 Q143 -151 152 -105 Q157 -83 158 -60 L275 -70 Q275 -97 269 -126 Q259 -172 228.5 -209.5 Q198 -247 131 -291 L84 -232 Z " />
<glyph glyph-name="kgreenlandic" unicode="&#x138;" horiz-adv-x="545" d="M348 313 L485 0 L334 0 L245 213 L180 149 L151 0 L14 0 L120 546 L257 546 L214 326 L420 546 L580 546 L348 313 Z " />
<glyph glyph-name="l" unicode="l" horiz-adv-x="314" d="M168 -6 Q103 -6 70.5 21.5 Q38 49 38 102 Q38 123 42 142 L165 770 L302 770 L184 164 Q181 149 181 138 Q181 125 187.5 119.5 Q194 114 211 114 Q229 114 247 117 L243 3 Q209 -6 168 -6 Z " />
<glyph glyph-name="lacute" unicode="&#x13a;" horiz-adv-x="314" d="M157 839 L319 972 L474 972 L473 960 L272 827 L156 827 L157 839 Z M168 -6 Q103 -6 70.5 21.5 Q38 49 38 102 Q38 123 42 142 L165 770 L302 770 L184 164 Q181 149 181 138 Q181 125 187.5 119.5 Q194 114 211 114 Q229 114 247 117 L243 3 Q209 -6 168 -6 Z " />
<glyph glyph-name="lcaron" unicode="&#x13e;" horiz-adv-x="324" d="M115 -6 Q50 -6 17.5 21.5 Q-15 49 -15 102 Q-15 123 -11 142 L112 770 L249 770 L131 164 Q128 149 128 138 Q128 125 134.5 119.5 Q141 114 158 114 Q176 114 194 117 L190 3 Q156 -6 115 -6 Z M306 770 L417 770 L416 760 L338 540 L261 540 L306 770 Z " />
<glyph glyph-name="lcommaaccent" unicode="&#x13c;" horiz-adv-x="314" d="M168 -6 Q103 -6 70.5 21.5 Q38 49 38 102 Q38 123 42 142 L165 770 L302 770 L184 164 Q181 149 181 138 Q181 125 187.5 119.5 Q194 114 211 114 Q229 114 247 117 L243 3 Q209 -6 168 -6 Z M-25 -232 Q5 -204 19.5 -177.5 Q34 -151 43 -105 Q48 -83 49 -60 L166 -70 Q166 -97 160 -126 Q150 -172 119.5 -209.5 Q89 -247 22 -291 L-25 -232 Z " />
<glyph glyph-name="ldot" unicode="&#x140;" horiz-adv-x="384" d="M168 -6 Q103 -6 70.5 21.5 Q38 49 38 102 Q38 123 42 142 L165 770 L302 770 L184 164 Q181 149 181 138 Q181 125 187.5 119.5 Q194 114 211 114 Q229 114 247 117 L243 3 Q209 -6 168 -6 Z M347 334 Q313 334 294.5 352 Q276 370 276 404 Q276 441 299 465 Q322 489 361 489 Q395 489 414 470.5 Q433 452 433 418 Q433 380 410 357 Q387 334 347 334 Z " />
<glyph glyph-name="uni1E37" unicode="&#x1e37;" horiz-adv-x="314" d="M168 -6 Q103 -6 70.5 21.5 Q38 49 38 102 Q38 123 42 142 L165 770 L302 770 L184 164 Q181 149 181 138 Q181 125 187.5 119.5 Q194 114 211 114 Q229 114 247 117 L243 3 Q209 -6 168 -6 Z M86 -226 Q51 -226 32.5 -208 Q14 -190 14 -156 Q14 -118 37 -94 Q60 -70 100 -70 Q134 -70 153 -88.5 Q172 -107 172 -141 Q172 -179 149 -202.5 Q126 -226 86 -226 Z " />
<glyph glyph-name="uni1E39" unicode="&#x1e39;" horiz-adv-x="314" d="M139 943 L392 943 L375 853 L122 853 L139 943 Z M168 -6 Q103 -6 70.5 21.5 Q38 49 38 102 Q38 123 42 142 L165 770 L302 770 L184 164 Q181 149 181 138 Q181 125 187.5 119.5 Q194 114 211 114 Q229 114 247 117 L243 3 Q209 -6 168 -6 Z M86 -226 Q51 -226 32.5 -208 Q14 -190 14 -156 Q14 -118 37 -94 Q60 -70 100 -70 Q134 -70 153 -88.5 Q172 -107 172 -141 Q172 -179 149 -202.5 Q126 -226 86 -226 Z " />
<glyph glyph-name="uni1E3B" unicode="&#x1e3b;" horiz-adv-x="314" d="M168 -6 Q103 -6 70.5 21.5 Q38 49 38 102 Q38 123 42 142 L165 770 L302 770 L184 164 Q181 149 181 138 Q181 125 187.5 119.5 Q194 114 211 114 Q229 114 247 117 L243 3 Q209 -6 168 -6 Z M-23 -97 L230 -97 L213 -187 L-40 -187 L-23 -97 Z " />
<glyph glyph-name="lslash" unicode="&#x142;" horiz-adv-x="346" d="M207 164 Q204 149 204 138 Q204 125 210.5 119.5 Q217 114 234 114 Q252 114 270 117 L266 3 Q232 -6 191 -6 Q126 -6 93.5 21.5 Q61 49 61 102 Q61 123 65 142 L97 303 L26 263 L16 263 L35 368 L118 413 L188 770 L325 770 L272 497 L360 547 L370 547 L351 442 L251 388 L207 164 Z " />
<glyph glyph-name="m" unicode="m" horiz-adv-x="852" d="M685 558 Q748 558 782 524 Q816 490 816 430 Q816 409 811 381 L737 0 L600 0 L672 370 Q674 378 674 392 Q674 414 662 423.5 Q650 433 625 433 Q597 433 573 422.5 Q549 412 521 391 L519 381 L445 0 L308 0 L380 370 Q382 378 382 392 Q382 414 370 423.5 Q358 433 332 433 Q304 433 280 422.5 Q256 412 226 390 L151 0 L14 0 L120 546 L242 546 L230 484 Q304 558 392 558 Q441 558 473.5 537 Q506 516 517 478 Q594 558 685 558 Z " />
<glyph glyph-name="uni1E43" unicode="&#x1e43;" horiz-adv-x="852" d="M685 558 Q748 558 782 524 Q816 490 816 430 Q816 409 811 381 L737 0 L600 0 L672 370 Q674 378 674 392 Q674 414 662 423.5 Q650 433 625 433 Q597 433 573 422.5 Q549 412 521 391 L519 381 L445 0 L308 0 L380 370 Q382 378 382 392 Q382 414 370 423.5 Q358 433 332 433 Q304 433 280 422.5 Q256 412 226 390 L151 0 L14 0 L120 546 L242 546 L230 484 Q304 558 392 558 Q441 558 473.5 537 Q506 516 517 478 Q594 558 685 558 Z M339 -226 Q304 -226 285.5 -208 Q267 -190 267 -156 Q267 -118 290 -94 Q313 -70 353 -70 Q387 -70 406 -88.5 Q425 -107 425 -141 Q425 -179 402 -202.5 Q379 -226 339 -226 Z " />
<glyph glyph-name="n" unicode="n" horiz-adv-x="564" d="M394 558 Q458 558 493 524 Q528 490 528 429 Q528 409 523 381 L449 0 L312 0 L384 370 Q386 378 386 392 Q386 414 373.5 423.5 Q361 433 335 433 Q306 433 280 422.5 Q254 412 226 391 L151 0 L14 0 L120 546 L242 546 L230 484 Q304 558 394 558 Z " />
<glyph glyph-name="nacute" unicode="&#x144;" horiz-adv-x="564" d="M394 558 Q458 558 493 524 Q528 490 528 429 Q528 409 523 381 L449 0 L312 0 L384 370 Q386 378 386 392 Q386 414 373.5 423.5 Q361 433 335 433 Q306 433 280 422.5 Q254 412 226 391 L151 0 L14 0 L120 546 L242 546 L230 484 Q304 558 394 558 Z M283 625 L402 784 L544 784 L543 774 L387 615 L282 615 L283 625 Z " />
<glyph glyph-name="napostrophe" unicode="&#x149;" horiz-adv-x="564" d="M394 558 Q458 558 493 524 Q528 490 528 429 Q528 409 523 381 L449 0 L312 0 L384 370 Q386 378 386 392 Q386 414 373.5 423.5 Q361 433 335 433 Q306 433 280 422.5 Q254 412 226 391 L151 0 L14 0 L120 546 L242 546 L230 484 Q304 558 394 558 Z M-90 570 Q-52 604 -30.5 640 Q-9 676 0 726 Q6 761 8 779 L125 769 Q122 736 115 705 Q103 649 66 605 Q29 561 -45 512 L-90 570 Z " />
<glyph glyph-name="ncaron" unicode="&#x148;" horiz-adv-x="564" d="M394 558 Q458 558 493 524 Q528 490 528 429 Q528 409 523 381 L449 0 L312 0 L384 370 Q386 378 386 392 Q386 414 373.5 423.5 Q361 433 335 433 Q306 433 280 422.5 Q254 412 226 391 L151 0 L14 0 L120 546 L242 546 L230 484 Q304 558 394 558 Z M544 784 L543 774 L415 615 L291 615 L223 774 L224 784 L312 784 L364 693 L452 784 L544 784 Z " />
<glyph glyph-name="ncommaaccent" unicode="&#x146;" horiz-adv-x="564" d="M394 558 Q458 558 493 524 Q528 490 528 429 Q528 409 523 381 L449 0 L312 0 L384 370 Q386 378 386 392 Q386 414 373.5 423.5 Q361 433 335 433 Q306 433 280 422.5 Q254 412 226 391 L151 0 L14 0 L120 546 L242 546 L230 484 Q304 558 394 558 Z M86 -232 Q116 -204 130.5 -177.5 Q145 -151 154 -105 Q159 -83 160 -60 L277 -70 Q277 -97 271 -126 Q261 -172 230.5 -209.5 Q200 -247 133 -291 L86 -232 Z " />
<glyph glyph-name="uni1E45" unicode="&#x1e45;" horiz-adv-x="564" d="M394 558 Q458 558 493 524 Q528 490 528 429 Q528 409 523 381 L449 0 L312 0 L384 370 Q386 378 386 392 Q386 414 373.5 423.5 Q361 433 335 433 Q306 433 280 422.5 Q254 412 226 391 L151 0 L14 0 L120 546 L242 546 L230 484 Q304 558 394 558 Z M359 617 Q324 617 305.5 635 Q287 653 287 687 Q287 725 310 749 Q333 773 373 773 Q407 773 426 754.5 Q445 736 445 702 Q445 664 422 640.5 Q399 617 359 617 Z " />
<glyph glyph-name="uni1E47" unicode="&#x1e47;" horiz-adv-x="564" d="M394 558 Q458 558 493 524 Q528 490 528 429 Q528 409 523 381 L449 0 L312 0 L384 370 Q386 378 386 392 Q386 414 373.5 423.5 Q361 433 335 433 Q306 433 280 422.5 Q254 412 226 391 L151 0 L14 0 L120 546 L242 546 L230 484 Q304 558 394 558 Z M197 -226 Q162 -226 143.5 -208 Q125 -190 125 -156 Q125 -118 148 -94 Q171 -70 211 -70 Q245 -70 264 -88.5 Q283 -107 283 -141 Q283 -179 260 -202.5 Q237 -226 197 -226 Z " />
<glyph glyph-name="uni1E49" unicode="&#x1e49;" horiz-adv-x="564" d="M394 558 Q458 558 493 524 Q528 490 528 429 Q528 409 523 381 L449 0 L312 0 L384 370 Q386 378 386 392 Q386 414 373.5 423.5 Q361 433 335 433 Q306 433 280 422.5 Q254 412 226 391 L151 0 L14 0 L120 546 L242 546 L230 484 Q304 558 394 558 Z M56 -97 L374 -97 L357 -187 L39 -187 L56 -97 Z " />
<glyph glyph-name="ntilde" unicode="&#xf1;" horiz-adv-x="564" d="M394 558 Q458 558 493 524 Q528 490 528 429 Q528 409 523 381 L449 0 L312 0 L384 370 Q386 378 386 392 Q386 414 373.5 423.5 Q361 433 335 433 Q306 433 280 422.5 Q254 412 226 391 L151 0 L14 0 L120 546 L242 546 L230 484 Q304 558 394 558 Z M173 622 Q203 767 303 767 Q331 767 349.5 757.5 Q368 748 388 731 Q401 720 410.5 714.5 Q420 709 430 709 Q447 709 462.5 725.5 Q478 742 486 770 L559 760 Q543 687 509 651 Q475 615 427 615 Q399 615 381 624.5 Q363 634 343 651 Q330 662 321 667.5 Q312 673 302 673 Q284 673 268.5 656 Q253 639 246 612 L173 622 Z " />
<glyph glyph-name="o" unicode="o" horiz-adv-x="539" d="M213 -12 Q124 -12 75.5 38 Q27 88 27 179 Q27 285 59.5 370.5 Q92 456 159 507 Q226 558 326 558 Q414 558 463 508 Q512 458 512 367 Q512 261 479.5 175.5 Q447 90 379.5 39 Q312 -12 213 -12 Z M237 108 Q282 108 313 143.5 Q344 179 359 234 Q374 289 374 346 Q374 438 302 438 Q257 438 226 402.5 Q195 367 180 312 Q165 257 165 200 Q165 108 237 108 Z " />
<glyph glyph-name="oacute" unicode="&#xf3;" horiz-adv-x="539" d="M213 -12 Q124 -12 75.5 38 Q27 88 27 179 Q27 285 59.5 370.5 Q92 456 159 507 Q226 558 326 558 Q414 558 463 508 Q512 458 512 367 Q512 261 479.5 175.5 Q447 90 379.5 39 Q312 -12 213 -12 Z M237 108 Q282 108 313 143.5 Q344 179 359 234 Q374 289 374 346 Q374 438 302 438 Q257 438 226 402.5 Q195 367 180 312 Q165 257 165 200 Q165 108 237 108 Z M268 625 L387 784 L529 784 L528 774 L372 615 L267 615 L268 625 Z " />
<glyph glyph-name="uni01D2" unicode="&#x1d2;" horiz-adv-x="539" d="M213 -12 Q124 -12 75.5 38 Q27 88 27 179 Q27 285 59.5 370.5 Q92 456 159 507 Q226 558 326 558 Q414 558 463 508 Q512 458 512 367 Q512 261 479.5 175.5 Q447 90 379.5 39 Q312 -12 213 -12 Z M237 108 Q282 108 313 143.5 Q344 179 359 234 Q374 289 374 346 Q374 438 302 438 Q257 438 226 402.5 Q195 367 180 312 Q165 257 165 200 Q165 108 237 108 Z M529 784 L528 774 L400 615 L276 615 L208 774 L209 784 L297 784 L349 693 L437 784 L529 784 Z " />
<glyph glyph-name="ocircumflex" unicode="&#xf4;" horiz-adv-x="539" d="M213 -12 Q124 -12 75.5 38 Q27 88 27 179 Q27 285 59.5 370.5 Q92 456 159 507 Q226 558 326 558 Q414 558 463 508 Q512 458 512 367 Q512 261 479.5 175.5 Q447 90 379.5 39 Q312 -12 213 -12 Z M237 108 Q282 108 313 143.5 Q344 179 359 234 Q374 289 374 346 Q374 438 302 438 Q257 438 226 402.5 Q195 367 180 312 Q165 257 165 200 Q165 108 237 108 Z M497 625 L496 615 L408 615 L356 706 L268 615 L176 615 L177 625 L305 784 L429 784 L497 625 Z " />
<glyph glyph-name="uni1ED1" unicode="&#x1ed1;" horiz-adv-x="539" d="M687 862 L686 852 L564 725 L474 725 L475 735 L568 862 L687 862 Z M265 615 L173 615 L174 625 L301 764 L425 764 L498 625 L497 615 L409 615 L353 696 L265 615 Z M326 558 Q414 558 463 508 Q512 458 512 367 Q512 261 479.5 175.5 Q447 90 379.5 39 Q312 -12 213 -12 Q124 -12 75.5 38 Q27 88 27 179 Q27 285 59.5 370.5 Q92 456 159 507 Q226 558 326 558 Z M237 108 Q282 108 313 143.5 Q344 179 359 234 Q374 289 374 346 Q374 438 302 438 Q257 438 226 402.5 Q195 367 180 312 Q165 257 165 200 Q165 108 237 108 Z " />
<glyph glyph-name="uni1ED9" unicode="&#x1ed9;" horiz-adv-x="539" d="M213 -12 Q124 -12 75.5 38 Q27 88 27 179 Q27 285 59.5 370.5 Q92 456 159 507 Q226 558 326 558 Q414 558 463 508 Q512 458 512 367 Q512 261 479.5 175.5 Q447 90 379.5 39 Q312 -12 213 -12 Z M237 108 Q282 108 313 143.5 Q344 179 359 234 Q374 289 374 346 Q374 438 302 438 Q257 438 226 402.5 Q195 367 180 312 Q165 257 165 200 Q165 108 237 108 Z M182 -226 Q147 -226 128.5 -208 Q110 -190 110 -156 Q110 -118 133 -94 Q156 -70 196 -70 Q230 -70 249 -88.5 Q268 -107 268 -141 Q268 -179 245 -202.5 Q222 -226 182 -226 Z M497 625 L496 615 L408 615 L356 706 L268 615 L176 615 L177 625 L305 784 L429 784 L497 625 Z " />
<glyph glyph-name="uni1ED3" unicode="&#x1ed3;" horiz-adv-x="539" d="M151 727 L84 854 L85 864 L196 864 L233 737 L232 727 L151 727 Z M174 625 L301 764 L425 764 L498 625 L497 615 L409 615 L353 696 L265 615 L173 615 L174 625 Z M326 558 Q414 558 463 508 Q512 458 512 367 Q512 261 479.5 175.5 Q447 90 379.5 39 Q312 -12 213 -12 Q124 -12 75.5 38 Q27 88 27 179 Q27 285 59.5 370.5 Q92 456 159 507 Q226 558 326 558 Z M237 108 Q282 108 313 143.5 Q344 179 359 234 Q374 289 374 346 Q374 438 302 438 Q257 438 226 402.5 Q195 367 180 312 Q165 257 165 200 Q165 108 237 108 Z " />
<glyph glyph-name="uni1ED5" unicode="&#x1ed5;" horiz-adv-x="539" d="M558 907 Q605 907 630 887.5 Q655 868 655 832 Q655 804 641.5 790.5 Q628 777 603 764 Q585 756 576 748.5 Q567 741 567 728 L567 724 L486 730 L486 737 Q486 767 497 780.5 Q508 794 528 805 Q538 811 543 815 Q548 819 548 826 Q548 835 533 835 Q504 835 474 820 L451 881 Q475 894 503.5 900.5 Q532 907 558 907 Z M265 615 L173 615 L174 625 L301 764 L425 764 L498 625 L497 615 L409 615 L353 696 L265 615 Z M326 558 Q414 558 463 508 Q512 458 512 367 Q512 261 479.5 175.5 Q447 90 379.5 39 Q312 -12 213 -12 Q124 -12 75.5 38 Q27 88 27 179 Q27 285 59.5 370.5 Q92 456 159 507 Q226 558 326 558 Z M237 108 Q282 108 313 143.5 Q344 179 359 234 Q374 289 374 346 Q374 438 302 438 Q257 438 226 402.5 Q195 367 180 312 Q165 257 165 200 Q165 108 237 108 Z " />
<glyph glyph-name="uni1ED7" unicode="&#x1ed7;" horiz-adv-x="539" d="M560 929 Q535 797 434 797 Q406 797 392.5 805.5 Q379 814 366 830 Q357 841 350.5 846 Q344 851 333 851 Q313 851 296 836 Q279 821 272 794 L208 804 Q233 936 334 936 Q362 936 376 927.5 Q390 919 403 903 Q411 893 418 887.5 Q425 882 436 882 Q455 882 472 897 Q489 912 496 939 L560 929 Z M265 615 L173 615 L174 625 L301 764 L425 764 L498 625 L497 615 L409 615 L353 696 L265 615 Z M326 558 Q414 558 463 508 Q512 458 512 367 Q512 261 479.5 175.5 Q447 90 379.5 39 Q312 -12 213 -12 Q124 -12 75.5 38 Q27 88 27 179 Q27 285 59.5 370.5 Q92 456 159 507 Q226 558 326 558 Z M237 108 Q282 108 313 143.5 Q344 179 359 234 Q374 289 374 346 Q374 438 302 438 Q257 438 226 402.5 Q195 367 180 312 Q165 257 165 200 Q165 108 237 108 Z " />
<glyph glyph-name="odieresis" unicode="&#xf6;" horiz-adv-x="539" d="M250 624 Q219 624 202.5 640.5 Q186 657 186 688 Q186 723 207 745 Q228 767 263 767 Q294 767 310.5 750 Q327 733 327 702 Q327 667 306.5 645.5 Q286 624 250 624 Z M440 624 Q409 624 392.5 640.5 Q376 657 376 688 Q376 723 397 745 Q418 767 453 767 Q484 767 500.5 750 Q517 733 517 702 Q517 667 496.5 645.5 Q476 624 440 624 Z M213 -12 Q124 -12 75.5 38 Q27 88 27 179 Q27 285 59.5 370.5 Q92 456 159 507 Q226 558 326 558 Q414 558 463 508 Q512 458 512 367 Q512 261 479.5 175.5 Q447 90 379.5 39 Q312 -12 213 -12 Z M237 108 Q282 108 313 143.5 Q344 179 359 234 Q374 289 374 346 Q374 438 302 438 Q257 438 226 402.5 Q195 367 180 312 Q165 257 165 200 Q165 108 237 108 Z " />
<glyph glyph-name="uni1ECD" unicode="&#x1ecd;" horiz-adv-x="539" d="M213 -12 Q124 -12 75.5 38 Q27 88 27 179 Q27 285 59.5 370.5 Q92 456 159 507 Q226 558 326 558 Q414 558 463 508 Q512 458 512 367 Q512 261 479.5 175.5 Q447 90 379.5 39 Q312 -12 213 -12 Z M237 108 Q282 108 313 143.5 Q344 179 359 234 Q374 289 374 346 Q374 438 302 438 Q257 438 226 402.5 Q195 367 180 312 Q165 257 165 200 Q165 108 237 108 Z M182 -226 Q147 -226 128.5 -208 Q110 -190 110 -156 Q110 -118 133 -94 Q156 -70 196 -70 Q230 -70 249 -88.5 Q268 -107 268 -141 Q268 -179 245 -202.5 Q222 -226 182 -226 Z " />
<glyph glyph-name="ograve" unicode="&#xf2;" horiz-adv-x="539" d="M213 -12 Q124 -12 75.5 38 Q27 88 27 179 Q27 285 59.5 370.5 Q92 456 159 507 Q226 558 326 558 Q414 558 463 508 Q512 458 512 367 Q512 261 479.5 175.5 Q447 90 379.5 39 Q312 -12 213 -12 Z M237 108 Q282 108 313 143.5 Q344 179 359 234 Q374 289 374 346 Q374 438 302 438 Q257 438 226 402.5 Q195 367 180 312 Q165 257 165 200 Q165 108 237 108 Z M223 774 L224 784 L357 784 L408 625 L407 615 L311 615 L223 774 Z " />
<glyph glyph-name="uni1ECF" unicode="&#x1ecf;" horiz-adv-x="539" d="M213 -12 Q124 -12 75.5 38 Q27 88 27 179 Q27 285 59.5 370.5 Q92 456 159 507 Q226 558 326 558 Q414 558 463 508 Q512 458 512 367 Q512 261 479.5 175.5 Q447 90 379.5 39 Q312 -12 213 -12 Z M237 108 Q282 108 313 143.5 Q344 179 359 234 Q374 289 374 346 Q374 438 302 438 Q257 438 226 402.5 Q195 367 180 312 Q165 257 165 200 Q165 108 237 108 Z M294 617 L294 628 Q294 658 306 674.5 Q318 691 340 708 Q351 715 356 720.5 Q361 726 361 732 Q361 742 344 742 Q317 742 284 726 L260 790 Q310 817 373 817 Q470 817 470 743 Q470 713 456.5 698 Q443 683 417 667 Q397 655 387.5 645.5 Q378 636 378 620 L378 612 L294 617 Z " />
<glyph glyph-name="ohorn" unicode="&#x1a1;" horiz-adv-x="539" d="M649 682 Q649 652 643 616 Q631 548 595 517 Q559 486 485 480 Q512 435 512 367 Q512 261 479.5 175.5 Q447 90 379.5 39 Q312 -12 213 -12 Q124 -12 75.5 38 Q27 88 27 179 Q27 285 59.5 370.5 Q92 456 159.5 507 Q227 558 326 558 Q351 558 381 552 Q411 546 434 546 Q483 546 503.5 566.5 Q524 587 534 636 Q539 661 540 690 L649 682 Z M237 108 Q282 108 313 143.5 Q344 179 359 234 Q374 289 374 346 Q374 438 302 438 Q257 438 226 402.5 Q195 367 180 312 Q165 257 165 200 Q165 108 237 108 Z " />
<glyph glyph-name="uni1EDB" unicode="&#x1edb;" horiz-adv-x="539" d="M649 682 Q649 652 643 616 Q631 548 595 517 Q559 486 485 480 Q512 435 512 367 Q512 261 479.5 175.5 Q447 90 379.5 39 Q312 -12 213 -12 Q124 -12 75.5 38 Q27 88 27 179 Q27 285 59.5 370.5 Q92 456 159.5 507 Q227 558 326 558 Q351 558 381 552 Q411 546 434 546 Q483 546 503.5 566.5 Q524 587 534 636 Q539 661 540 690 L649 682 Z M237 108 Q282 108 313 143.5 Q344 179 359 234 Q374 289 374 346 Q374 438 302 438 Q257 438 226 402.5 Q195 367 180 312 Q165 257 165 200 Q165 108 237 108 Z M268 625 L387 784 L529 784 L528 774 L372 615 L267 615 L268 625 Z " />
<glyph glyph-name="uni1EE3" unicode="&#x1ee3;" horiz-adv-x="539" d="M649 682 Q649 652 643 616 Q631 548 595 517 Q559 486 485 480 Q512 435 512 367 Q512 261 479.5 175.5 Q447 90 379.5 39 Q312 -12 213 -12 Q124 -12 75.5 38 Q27 88 27 179 Q27 285 59.5 370.5 Q92 456 159.5 507 Q227 558 326 558 Q351 558 381 552 Q411 546 434 546 Q483 546 503.5 566.5 Q524 587 534 636 Q539 661 540 690 L649 682 Z M237 108 Q282 108 313 143.5 Q344 179 359 234 Q374 289 374 346 Q374 438 302 438 Q257 438 226 402.5 Q195 367 180 312 Q165 257 165 200 Q165 108 237 108 Z M182 -226 Q147 -226 128.5 -208 Q110 -190 110 -156 Q110 -118 133 -94 Q156 -70 196 -70 Q230 -70 249 -88.5 Q268 -107 268 -141 Q268 -179 245 -202.5 Q222 -226 182 -226 Z " />
<glyph glyph-name="uni1EDD" unicode="&#x1edd;" horiz-adv-x="539" d="M649 682 Q649 652 643 616 Q631 548 595 517 Q559 486 485 480 Q512 435 512 367 Q512 261 479.5 175.5 Q447 90 379.5 39 Q312 -12 213 -12 Q124 -12 75.5 38 Q27 88 27 179 Q27 285 59.5 370.5 Q92 456 159.5 507 Q227 558 326 558 Q351 558 381 552 Q411 546 434 546 Q483 546 503.5 566.5 Q524 587 534 636 Q539 661 540 690 L649 682 Z M237 108 Q282 108 313 143.5 Q344 179 359 234 Q374 289 374 346 Q374 438 302 438 Q257 438 226 402.5 Q195 367 180 312 Q165 257 165 200 Q165 108 237 108 Z M223 774 L224 784 L357 784 L408 625 L407 615 L311 615 L223 774 Z " />
<glyph glyph-name="uni1EDF" unicode="&#x1edf;" horiz-adv-x="539" d="M649 682 Q649 652 643 616 Q631 548 595 517 Q559 486 485 480 Q512 435 512 367 Q512 261 479.5 175.5 Q447 90 379.5 39 Q312 -12 213 -12 Q124 -12 75.5 38 Q27 88 27 179 Q27 285 59.5 370.5 Q92 456 159.5 507 Q227 558 326 558 Q351 558 381 552 Q411 546 434 546 Q483 546 503.5 566.5 Q524 587 534 636 Q539 661 540 690 L649 682 Z M237 108 Q282 108 313 143.5 Q344 179 359 234 Q374 289 374 346 Q374 438 302 438 Q257 438 226 402.5 Q195 367 180 312 Q165 257 165 200 Q165 108 237 108 Z M294 617 L294 628 Q294 658 306 674.5 Q318 691 340 708 Q351 715 356 720.5 Q361 726 361 732 Q361 742 344 742 Q317 742 284 726 L260 790 Q310 817 373 817 Q470 817 470 743 Q470 713 456.5 698 Q443 683 417 667 Q397 655 387.5 645.5 Q378 636 378 620 L378 612 L294 617 Z " />
<glyph glyph-name="uni1EE1" unicode="&#x1ee1;" horiz-adv-x="539" d="M649 682 Q649 652 643 616 Q631 548 595 517 Q559 486 485 480 Q512 435 512 367 Q512 261 479.5 175.5 Q447 90 379.5 39 Q312 -12 213 -12 Q124 -12 75.5 38 Q27 88 27 179 Q27 285 59.5 370.5 Q92 456 159.5 507 Q227 558 326 558 Q351 558 381 552 Q411 546 434 546 Q483 546 503.5 566.5 Q524 587 534 636 Q539 661 540 690 L649 682 Z M237 108 Q282 108 313 143.5 Q344 179 359 234 Q374 289 374 346 Q374 438 302 438 Q257 438 226 402.5 Q195 367 180 312 Q165 257 165 200 Q165 108 237 108 Z M158 622 Q188 767 288 767 Q316 767 334.5 757.5 Q353 748 373 731 Q386 720 395.5 714.5 Q405 709 415 709 Q432 709 447.5 725.5 Q463 742 471 770 L544 760 Q528 687 494 651 Q460 615 412 615 Q384 615 366 624.5 Q348 634 328 651 Q315 662 306 667.5 Q297 673 287 673 Q269 673 253.5 656 Q238 639 231 612 L158 622 Z " />
<glyph glyph-name="ohungarumlaut" unicode="&#x151;" horiz-adv-x="539" d="M213 -12 Q124 -12 75.5 38 Q27 88 27 179 Q27 285 59.5 370.5 Q92 456 159 507 Q226 558 326 558 Q414 558 463 508 Q512 458 512 367 Q512 261 479.5 175.5 Q447 90 379.5 39 Q312 -12 213 -12 Z M237 108 Q282 108 313 143.5 Q344 179 359 234 Q374 289 374 346 Q374 438 302 438 Q257 438 226 402.5 Q195 367 180 312 Q165 257 165 200 Q165 108 237 108 Z M204 625 L287 784 L407 784 L406 774 L289 615 L203 615 L204 625 Z M358 625 L443 784 L563 784 L562 774 L443 615 L357 615 L358 625 Z " />
<glyph glyph-name="omacron" unicode="&#x14d;" horiz-adv-x="539" d="M213 -12 Q124 -12 75.5 38 Q27 88 27 179 Q27 285 59.5 370.5 Q92 456 159 507 Q226 558 326 558 Q414 558 463 508 Q512 458 512 367 Q512 261 479.5 175.5 Q447 90 379.5 39 Q312 -12 213 -12 Z M237 108 Q282 108 313 143.5 Q344 179 359 234 Q374 289 374 346 Q374 438 302 438 Q257 438 226 402.5 Q195 367 180 312 Q165 257 165 200 Q165 108 237 108 Z M198 727 L516 727 L499 637 L181 637 L198 727 Z " />
<glyph glyph-name="oslash" unicode="&#xf8;" horiz-adv-x="539" d="M586 546 L496 456 Q512 420 512 367 Q512 261 479.5 175.5 Q447 90 379.5 39 Q312 -12 213 -12 Q135 -12 88 26 L55 -10 L-48 -10 L-47 0 L43 90 Q27 126 27 179 Q27 285 59.5 370.5 Q92 456 159.5 507 Q227 558 326 558 Q404 558 451 520 L484 556 L587 556 L586 546 Z M304 444 Q235 444 198.5 374.5 Q162 305 159 211 L360 423 Q340 444 304 444 Z M235 102 Q304 102 340.5 171.5 Q377 241 380 335 L179 123 Q199 102 235 102 Z " />
<glyph glyph-name="otilde" unicode="&#xf5;" horiz-adv-x="539" d="M213 -12 Q124 -12 75.5 38 Q27 88 27 179 Q27 285 59.5 370.5 Q92 456 159 507 Q226 558 326 558 Q414 558 463 508 Q512 458 512 367 Q512 261 479.5 175.5 Q447 90 379.5 39 Q312 -12 213 -12 Z M237 108 Q282 108 313 143.5 Q344 179 359 234 Q374 289 374 346 Q374 438 302 438 Q257 438 226 402.5 Q195 367 180 312 Q165 257 165 200 Q165 108 237 108 Z M158 622 Q188 767 288 767 Q316 767 334.5 757.5 Q353 748 373 731 Q386 720 395.5 714.5 Q405 709 415 709 Q432 709 447.5 725.5 Q463 742 471 770 L544 760 Q528 687 494 651 Q460 615 412 615 Q384 615 366 624.5 Q348 634 328 651 Q315 662 306 667.5 Q297 673 287 673 Q269 673 253.5 656 Q238 639 231 612 L158 622 Z " />
<glyph glyph-name="oe" unicode="&#x153;" horiz-adv-x="835" d="M489 230 L489 214 Q489 110 591 110 Q646 110 715 142 L753 41 Q664 -11 553 -11 Q498 -11 456.5 7.5 Q415 26 391 61 Q317 -13 211 -13 Q122 -13 74.5 35 Q27 83 27 177 Q27 282 60.5 368.5 Q94 455 161 506.5 Q228 558 323 558 Q430 558 471 483 Q509 519 559 538.5 Q609 558 667 558 Q740 558 785 516.5 Q830 475 830 408 Q830 356 804 315.5 Q778 275 734 254 Q707 241 672 235.5 Q637 230 585 230 L489 230 Z M641 440 Q597 440 562.5 406.5 Q528 373 509 320 L588 320 Q649 320 671 337 Q682 346 688 360 Q694 374 694 390 Q694 414 680 427 Q666 440 641 440 Z M234 108 Q279 108 309 144 Q339 180 353.5 235.5 Q368 291 368 350 Q368 395 351.5 416.5 Q335 438 299 438 Q255 438 224.5 402.5 Q194 367 179.5 311.5 Q165 256 165 198 Q165 108 234 108 Z " />
<glyph glyph-name="p" unicode="p" horiz-adv-x="556" d="M386 558 Q455 558 492.5 511.5 Q530 465 530 379 Q530 280 502.5 191 Q475 102 417 45 Q359 -12 273 -12 Q235 -12 206 3.5 Q177 19 160 49 L111 -207 L-26 -207 L120 546 L242 546 L229 479 Q293 558 386 558 Z M260 109 Q305 109 334 144.5 Q363 180 376.5 233.5 Q390 287 390 343 Q390 433 319 433 Q295 433 273 423.5 Q251 414 227 393 L180 147 Q194 129 214.5 119 Q235 109 260 109 Z " />
<glyph glyph-name="thorn" unicode="&#xfe;" horiz-adv-x="556" d="M386 558 Q455 558 492.5 511.5 Q530 465 530 379 Q530 280 502.5 191 Q475 102 417 45 Q359 -12 273 -12 Q235 -12 206.5 3.5 Q178 19 161 48 L111 -207 L-26 -207 L120 546 L164 770 L301 770 L249 501 Q306 558 386 558 Z M260 109 Q305 109 334 144.5 Q363 180 376.5 233.5 Q390 287 390 343 Q390 433 319 433 Q273 433 228 394 L180 147 Q210 109 260 109 Z " />
<glyph glyph-name="q" unicode="q" horiz-adv-x="556" d="M542 546 L396 -207 L259 -207 L308 46 Q250 -12 170 -12 Q101 -12 63.5 34.5 Q26 81 26 167 Q26 266 53.5 355 Q81 444 139 501 Q197 558 283 558 Q328 558 360.5 536 Q393 514 406 474 L420 546 L542 546 Z M237 113 Q261 113 283 122.5 Q305 132 329 152 L376 399 Q362 417 341.5 427 Q321 437 296 437 Q251 437 222 401.5 Q193 366 179.5 312.5 Q166 259 166 203 Q166 113 237 113 Z " />
<glyph glyph-name="r" unicode="r" horiz-adv-x="385" d="M369 556 Q404 556 431 541 L390 419 Q369 426 339 426 Q303 426 275 412 Q247 398 222 367 L151 0 L14 0 L120 546 L242 546 L227 469 Q286 556 369 556 Z " />
<glyph glyph-name="racute" unicode="&#x155;" horiz-adv-x="385" d="M369 556 Q404 556 431 541 L390 419 Q369 426 339 426 Q303 426 275 412 Q247 398 222 367 L151 0 L14 0 L120 546 L242 546 L227 469 Q286 556 369 556 Z M224 625 L343 784 L485 784 L484 774 L328 615 L223 615 L224 625 Z " />
<glyph glyph-name="rcaron" unicode="&#x159;" horiz-adv-x="385" d="M369 556 Q404 556 431 541 L390 419 Q369 426 339 426 Q303 426 275 412 Q247 398 222 367 L151 0 L14 0 L120 546 L242 546 L227 469 Q286 556 369 556 Z M485 784 L484 774 L356 615 L232 615 L164 774 L165 784 L253 784 L305 693 L393 784 L485 784 Z " />
<glyph glyph-name="rcommaaccent" unicode="&#x157;" horiz-adv-x="385" d="M369 556 Q404 556 431 541 L390 419 Q369 426 339 426 Q303 426 275 412 Q247 398 222 367 L151 0 L14 0 L120 546 L242 546 L227 469 Q286 556 369 556 Z M-65 -232 Q-35 -204 -20.5 -177.5 Q-6 -151 3 -105 Q8 -83 9 -60 L126 -70 Q126 -97 120 -126 Q110 -172 79.5 -209.5 Q49 -247 -18 -291 L-65 -232 Z " />
<glyph glyph-name="uni1E5B" unicode="&#x1e5b;" horiz-adv-x="385" d="M369 556 Q404 556 431 541 L390 419 Q369 426 339 426 Q303 426 275 412 Q247 398 222 367 L151 0 L14 0 L120 546 L242 546 L227 469 Q286 556 369 556 Z M46 -226 Q11 -226 -7.5 -208 Q-26 -190 -26 -156 Q-26 -118 -3 -94 Q20 -70 60 -70 Q94 -70 113 -88.5 Q132 -107 132 -141 Q132 -179 109 -202.5 Q86 -226 46 -226 Z " />
<glyph glyph-name="uni1E5D" unicode="&#x1e5d;" horiz-adv-x="385" d="M423 637 L170 637 L187 727 L440 727 L423 637 Z M227 469 Q286 556 369 556 Q404 556 431 541 L390 419 Q369 426 339 426 Q303 426 275 412 Q247 398 222 367 L151 0 L14 0 L120 546 L242 546 L227 469 Z M60 -70 Q94 -70 113 -88.5 Q132 -107 132 -141 Q132 -179 109 -202.5 Q86 -226 46 -226 Q11 -226 -7.5 -208 Q-26 -190 -26 -156 Q-26 -118 -3 -94 Q20 -70 60 -70 Z " />
<glyph glyph-name="uni1E5F" unicode="&#x1e5f;" horiz-adv-x="385" d="M369 556 Q404 556 431 541 L390 419 Q369 426 339 426 Q303 426 275 412 Q247 398 222 367 L151 0 L14 0 L120 546 L242 546 L227 469 Q286 556 369 556 Z M-63 -97 L190 -97 L173 -187 L-80 -187 L-63 -97 Z " />
<glyph glyph-name="s" unicode="s" horiz-adv-x="452" d="M161 -11 Q106 -11 58 3.5 Q10 18 -24 44 L39 153 Q101 107 184 107 Q278 107 278 166 Q278 182 265.5 192.5 Q253 203 226 211 L161 228 Q47 258 47 343 Q47 442 109.5 499.5 Q172 557 284 557 Q333 557 377 545 Q421 533 456 510 L391 403 Q326 439 259 439 Q216 439 196.5 426 Q177 413 177 386 Q177 370 189.5 360.5 Q202 351 230 343 L295 326 Q408 296 408 210 Q408 107 343 48 Q278 -11 161 -11 Z " />
<glyph glyph-name="sacute" unicode="&#x15b;" horiz-adv-x="452" d="M161 -11 Q106 -11 58 3.5 Q10 18 -24 44 L39 153 Q101 107 184 107 Q278 107 278 166 Q278 182 265.5 192.5 Q253 203 226 211 L161 228 Q47 258 47 343 Q47 442 109.5 499.5 Q172 557 284 557 Q333 557 377 545 Q421 533 456 510 L391 403 Q326 439 259 439 Q216 439 196.5 426 Q177 413 177 386 Q177 370 189.5 360.5 Q202 351 230 343 L295 326 Q408 296 408 210 Q408 107 343 48 Q278 -11 161 -11 Z M217 625 L336 784 L478 784 L477 774 L321 615 L216 615 L217 625 Z " />
<glyph glyph-name="scaron" unicode="&#x161;" horiz-adv-x="452" d="M161 -11 Q106 -11 58 3.5 Q10 18 -24 44 L39 153 Q101 107 184 107 Q278 107 278 166 Q278 182 265.5 192.5 Q253 203 226 211 L161 228 Q47 258 47 343 Q47 442 109.5 499.5 Q172 557 284 557 Q333 557 377 545 Q421 533 456 510 L391 403 Q326 439 259 439 Q216 439 196.5 426 Q177 413 177 386 Q177 370 189.5 360.5 Q202 351 230 343 L295 326 Q408 296 408 210 Q408 107 343 48 Q278 -11 161 -11 Z M478 784 L477 774 L349 615 L225 615 L157 774 L158 784 L246 784 L298 693 L386 784 L478 784 Z " />
<glyph glyph-name="scedilla" unicode="&#x15f;" horiz-adv-x="452" d="M295 326 Q408 296 408 210 Q408 116 353 58.5 Q298 1 199 -9 L161 -51 Q166 -50 176 -50 Q221 -50 246 -71.5 Q271 -93 271 -131 Q271 -181 230 -210.5 Q189 -240 126 -240 Q59 -240 8 -212 L30 -157 Q73 -171 106 -171 Q134 -171 151.5 -159.5 Q169 -148 169 -129 Q169 -107 142 -107 Q119 -107 99 -116 L72 -82 L114 -8 Q74 -4 38.5 10 Q3 24 -24 44 L39 153 Q101 107 184 107 Q278 107 278 166 Q278 182 265.5 192.5 Q253 203 226 211 L161 228 Q47 258 47 343 Q47 442 109.5 499.5 Q172 557 284 557 Q333 557 377 545 Q421 533 456 510 L391 403 Q326 439 259 439 Q216 439 196.5 426 Q177 413 177 386 Q177 370 189.5 360.5 Q202 351 230 343 L295 326 Z " />
<glyph glyph-name="scircumflex" unicode="&#x15d;" horiz-adv-x="452" d="M161 -11 Q106 -11 58 3.5 Q10 18 -24 44 L39 153 Q101 107 184 107 Q278 107 278 166 Q278 182 265.5 192.5 Q253 203 226 211 L161 228 Q47 258 47 343 Q47 442 109.5 499.5 Q172 557 284 557 Q333 557 377 545 Q421 533 456 510 L391 403 Q326 439 259 439 Q216 439 196.5 426 Q177 413 177 386 Q177 370 189.5 360.5 Q202 351 230 343 L295 326 Q408 296 408 210 Q408 107 343 48 Q278 -11 161 -11 Z M446 625 L445 615 L357 615 L305 706 L217 615 L125 615 L126 625 L254 784 L378 784 L446 625 Z " />
<glyph glyph-name="scommaaccent" unicode="&#x219;" horiz-adv-x="452" d="M161 -11 Q106 -11 58 3.5 Q10 18 -24 44 L39 153 Q101 107 184 107 Q278 107 278 166 Q278 182 265.5 192.5 Q253 203 226 211 L161 228 Q47 258 47 343 Q47 442 109.5 499.5 Q172 557 284 557 Q333 557 377 545 Q421 533 456 510 L391 403 Q326 439 259 439 Q216 439 196.5 426 Q177 413 177 386 Q177 370 189.5 360.5 Q202 351 230 343 L295 326 Q408 296 408 210 Q408 107 343 48 Q278 -11 161 -11 Z M23 -232 Q53 -204 67.5 -177.5 Q82 -151 91 -105 Q96 -83 97 -60 L214 -70 Q214 -97 208 -126 Q198 -172 167.5 -209.5 Q137 -247 70 -291 L23 -232 Z " />
<glyph glyph-name="uni1E61" unicode="&#x1e61;" horiz-adv-x="452" d="M161 -11 Q106 -11 58 3.5 Q10 18 -24 44 L39 153 Q101 107 184 107 Q278 107 278 166 Q278 182 265.5 192.5 Q253 203 226 211 L161 228 Q47 258 47 343 Q47 442 109.5 499.5 Q172 557 284 557 Q333 557 377 545 Q421 533 456 510 L391 403 Q326 439 259 439 Q216 439 196.5 426 Q177 413 177 386 Q177 370 189.5 360.5 Q202 351 230 343 L295 326 Q408 296 408 210 Q408 107 343 48 Q278 -11 161 -11 Z M293 617 Q258 617 239.5 635 Q221 653 221 687 Q221 725 244 749 Q267 773 307 773 Q341 773 360 754.5 Q379 736 379 702 Q379 664 356 640.5 Q333 617 293 617 Z " />
<glyph glyph-name="uni1E63" unicode="&#x1e63;" horiz-adv-x="452" d="M161 -11 Q106 -11 58 3.5 Q10 18 -24 44 L39 153 Q101 107 184 107 Q278 107 278 166 Q278 182 265.5 192.5 Q253 203 226 211 L161 228 Q47 258 47 343 Q47 442 109.5 499.5 Q172 557 284 557 Q333 557 377 545 Q421 533 456 510 L391 403 Q326 439 259 439 Q216 439 196.5 426 Q177 413 177 386 Q177 370 189.5 360.5 Q202 351 230 343 L295 326 Q408 296 408 210 Q408 107 343 48 Q278 -11 161 -11 Z M134 -226 Q99 -226 80.5 -208 Q62 -190 62 -156 Q62 -118 85 -94 Q108 -70 148 -70 Q182 -70 201 -88.5 Q220 -107 220 -141 Q220 -179 197 -202.5 Q174 -226 134 -226 Z " />
<glyph glyph-name="germandbls" unicode="&#xdf;" horiz-adv-x="589" d="M427 426 Q548 392 548 274 Q548 192 517.5 129 Q487 66 427 30 Q367 -6 280 -6 Q239 -6 200 7 L234 115 Q265 106 302 106 Q362 106 390 142.5 Q418 179 418 239 Q418 291 385 316.5 Q352 342 278 347 L298 448 Q359 474 390 514.5 Q421 555 421 614 Q421 668 365 668 Q321 668 295 638 Q269 608 257 547 L151 0 L14 0 L120 547 Q142 661 212.5 723.5 Q283 786 387 786 Q464 786 506.5 750 Q549 714 549 648 Q549 498 427 426 Z " />
<glyph glyph-name="uni0259" unicode="&#x259;" horiz-adv-x="511" d="M285 557 Q381 557 434 505.5 Q487 454 487 359 Q487 260 449.5 175 Q412 90 340 39 Q268 -12 171 -12 Q96 -12 50.5 29 Q5 70 5 138 Q5 190 31 230.5 Q57 271 101 292 Q128 305 163 310.5 Q198 316 250 316 L352 316 L352 332 Q352 436 247 436 Q189 436 120 404 L82 505 Q171 557 285 557 Z M197 106 Q242 106 277 139.5 Q312 173 332 226 L247 226 Q186 226 164 209 Q153 200 147 186 Q141 172 141 156 Q141 132 155.5 119 Q170 106 197 106 Z " />
<glyph glyph-name="t" unicode="t" horiz-adv-x="383" d="M226 -7 Q144 -7 102 24.5 Q60 56 60 119 Q60 139 65 167 L116 430 L38 430 L60 546 L139 546 L168 694 L304 694 L275 546 L417 546 L395 430 L253 430 L205 183 Q201 159 201 153 Q201 130 213 121.5 Q225 113 252 113 Q279 113 317 121 L324 7 Q276 -7 226 -7 Z " />
<glyph glyph-name="tcaron" unicode="&#x165;" horiz-adv-x="383" d="M358 771 L469 771 L467 761 L410 597 L324 597 L358 771 Z M226 -7 Q144 -7 102 24.5 Q60 56 60 119 Q60 139 65 167 L116 430 L38 430 L60 546 L139 546 L168 694 L304 694 L275 546 L417 546 L395 430 L253 430 L205 183 Q201 159 201 153 Q201 130 213 121.5 Q225 113 252 113 Q279 113 317 121 L324 7 Q276 -7 226 -7 Z " />
<glyph glyph-name="uni0163" unicode="&#x163;" horiz-adv-x="383" d="M205 183 Q201 159 201 153 Q201 130 213 121.5 Q225 113 252 113 Q279 113 317 121 L324 7 Q276 -7 226 -7 L208 -7 L168 -51 Q173 -50 183 -50 Q228 -50 253 -71.5 Q278 -93 278 -131 Q278 -181 237 -210.5 Q196 -240 133 -240 Q66 -240 15 -212 L37 -157 Q80 -171 113 -171 Q141 -171 158.5 -159.5 Q176 -148 176 -129 Q176 -107 149 -107 Q126 -107 106 -116 L79 -82 L130 8 Q60 38 60 120 Q60 139 65 167 L116 430 L38 430 L60 546 L139 546 L168 694 L304 694 L275 546 L417 546 L395 430 L253 430 L205 183 Z " />
<glyph glyph-name="uni021B" unicode="&#x21b;" horiz-adv-x="383" d="M226 -7 Q144 -7 102 24.5 Q60 56 60 119 Q60 139 65 167 L116 430 L38 430 L60 546 L139 546 L168 694 L304 694 L275 546 L417 546 L395 430 L253 430 L205 183 Q201 159 201 153 Q201 130 213 121.5 Q225 113 252 113 Q279 113 317 121 L324 7 Q276 -7 226 -7 Z M30 -232 Q60 -204 74.5 -177.5 Q89 -151 98 -105 Q103 -83 104 -60 L221 -70 Q221 -97 215 -126 Q205 -172 174.5 -209.5 Q144 -247 77 -291 L30 -232 Z " />
<glyph glyph-name="uni1E97" unicode="&#x1e97;" horiz-adv-x="383" d="M174 744 Q143 744 126.5 760.5 Q110 777 110 808 Q110 843 131 865 Q152 887 187 887 Q218 887 234.5 870 Q251 853 251 822 Q251 787 230.5 765.5 Q210 744 174 744 Z M364 744 Q333 744 316.5 760.5 Q300 777 300 808 Q300 843 321 865 Q342 887 377 887 Q408 887 424.5 870 Q441 853 441 822 Q441 787 420.5 765.5 Q400 744 364 744 Z M226 -7 Q144 -7 102 24.5 Q60 56 60 119 Q60 139 65 167 L116 430 L38 430 L60 546 L139 546 L168 694 L304 694 L275 546 L417 546 L395 430 L253 430 L205 183 Q201 159 201 153 Q201 130 213 121.5 Q225 113 252 113 Q279 113 317 121 L324 7 Q276 -7 226 -7 Z " />
<glyph glyph-name="uni1E6D" unicode="&#x1e6d;" horiz-adv-x="383" d="M226 -7 Q144 -7 102 24.5 Q60 56 60 119 Q60 139 65 167 L116 430 L38 430 L60 546 L139 546 L168 694 L304 694 L275 546 L417 546 L395 430 L253 430 L205 183 Q201 159 201 153 Q201 130 213 121.5 Q225 113 252 113 Q279 113 317 121 L324 7 Q276 -7 226 -7 Z M141 -226 Q106 -226 87.5 -208 Q69 -190 69 -156 Q69 -118 92 -94 Q115 -70 155 -70 Q189 -70 208 -88.5 Q227 -107 227 -141 Q227 -179 204 -202.5 Q181 -226 141 -226 Z " />
<glyph glyph-name="uni1E6F" unicode="&#x1e6f;" horiz-adv-x="383" d="M226 -7 Q144 -7 102 24.5 Q60 56 60 119 Q60 139 65 167 L116 430 L38 430 L60 546 L139 546 L168 694 L304 694 L275 546 L417 546 L395 430 L253 430 L205 183 Q201 159 201 153 Q201 130 213 121.5 Q225 113 252 113 Q279 113 317 121 L324 7 Q276 -7 226 -7 Z M32 -97 L285 -97 L268 -187 L15 -187 L32 -97 Z " />
<glyph glyph-name="u" unicode="u" horiz-adv-x="556" d="M542 546 L436 0 L314 0 L327 68 Q292 26 252.5 7 Q213 -12 167 -12 Q103 -12 68.5 22 Q34 56 34 117 Q34 137 39 165 L113 546 L250 546 L178 176 Q176 168 176 154 Q176 132 188 122.5 Q200 113 226 113 Q256 113 280.5 125.5 Q305 138 331 164 L405 546 L542 546 Z " />
<glyph glyph-name="uacute" unicode="&#xfa;" horiz-adv-x="556" d="M542 546 L436 0 L314 0 L327 68 Q292 26 252.5 7 Q213 -12 167 -12 Q103 -12 68.5 22 Q34 56 34 117 Q34 137 39 165 L113 546 L250 546 L178 176 Q176 168 176 154 Q176 132 188 122.5 Q200 113 226 113 Q256 113 280.5 125.5 Q305 138 331 164 L405 546 L542 546 Z M273 625 L392 784 L534 784 L533 774 L377 615 L272 615 L273 625 Z " />
<glyph glyph-name="ubreve" unicode="&#x16d;" horiz-adv-x="556" d="M542 546 L436 0 L314 0 L327 68 Q292 26 252.5 7 Q213 -12 167 -12 Q103 -12 68.5 22 Q34 56 34 117 Q34 137 39 165 L113 546 L250 546 L178 176 Q176 168 176 154 Q176 132 188 122.5 Q200 113 226 113 Q256 113 280.5 125.5 Q305 138 331 164 L405 546 L542 546 Z M351 611 Q285 611 249.5 647.5 Q214 684 214 745 Q214 764 217 783 L292 778 Q287 707 355 707 Q392 707 418.5 727 Q445 747 457 783 L531 778 Q491 611 351 611 Z " />
<glyph glyph-name="uni01D4" unicode="&#x1d4;" horiz-adv-x="556" d="M542 546 L436 0 L314 0 L327 68 Q292 26 252.5 7 Q213 -12 167 -12 Q103 -12 68.5 22 Q34 56 34 117 Q34 137 39 165 L113 546 L250 546 L178 176 Q176 168 176 154 Q176 132 188 122.5 Q200 113 226 113 Q256 113 280.5 125.5 Q305 138 331 164 L405 546 L542 546 Z M534 784 L533 774 L405 615 L281 615 L213 774 L214 784 L302 784 L354 693 L442 784 L534 784 Z " />
<glyph glyph-name="ucircumflex" unicode="&#xfb;" horiz-adv-x="556" d="M542 546 L436 0 L314 0 L327 68 Q292 26 252.5 7 Q213 -12 167 -12 Q103 -12 68.5 22 Q34 56 34 117 Q34 137 39 165 L113 546 L250 546 L178 176 Q176 168 176 154 Q176 132 188 122.5 Q200 113 226 113 Q256 113 280.5 125.5 Q305 138 331 164 L405 546 L542 546 Z M502 625 L501 615 L413 615 L361 706 L273 615 L181 615 L182 625 L310 784 L434 784 L502 625 Z " />
<glyph glyph-name="udieresis" unicode="&#xfc;" horiz-adv-x="556" d="M255 624 Q224 624 207.5 640.5 Q191 657 191 688 Q191 723 212 745 Q233 767 268 767 Q299 767 315.5 750 Q332 733 332 702 Q332 667 311.5 645.5 Q291 624 255 624 Z M445 624 Q414 624 397.5 640.5 Q381 657 381 688 Q381 723 402 745 Q423 767 458 767 Q489 767 505.5 750 Q522 733 522 702 Q522 667 501.5 645.5 Q481 624 445 624 Z M542 546 L436 0 L314 0 L327 68 Q292 26 252.5 7 Q213 -12 167 -12 Q103 -12 68.5 22 Q34 56 34 117 Q34 137 39 165 L113 546 L250 546 L178 176 Q176 168 176 154 Q176 132 188 122.5 Q200 113 226 113 Q256 113 280.5 125.5 Q305 138 331 164 L405 546 L542 546 Z " />
<glyph glyph-name="uni01D8" unicode="&#x1d8;" horiz-adv-x="556" d="M412 789 L322 789 L323 799 L416 926 L535 926 L534 916 L412 789 Z M255 624 Q224 624 207.5 640.5 Q191 657 191 688 Q191 723 212 745 Q233 767 268 767 Q299 767 315.5 750 Q332 733 332 702 Q332 667 311.5 645.5 Q291 624 255 624 Z M381 688 Q381 723 402 745 Q423 767 458 767 Q489 767 505.5 750 Q522 733 522 702 Q522 667 501.5 645.5 Q481 624 445 624 Q414 624 397.5 640.5 Q381 657 381 688 Z M542 546 L436 0 L314 0 L327 68 Q292 26 252.5 7 Q213 -12 167 -12 Q103 -12 68.5 22 Q34 56 34 117 Q34 137 39 165 L113 546 L250 546 L178 176 Q176 168 176 154 Q176 132 188 122.5 Q200 113 226 113 Q256 113 280.5 125.5 Q305 138 331 164 L405 546 L542 546 Z " />
<glyph glyph-name="uni01DA" unicode="&#x1da;" horiz-adv-x="556" d="M565 933 L564 923 L437 784 L313 784 L240 923 L241 933 L329 933 L385 852 L473 933 L565 933 Z M255 624 Q224 624 207.5 640.5 Q191 657 191 688 Q191 723 212 745 Q233 767 268 767 Q299 767 315.5 750 Q332 733 332 702 Q332 667 311.5 645.5 Q291 624 255 624 Z M522 702 Q522 667 501.5 645.5 Q481 624 445 624 Q414 624 397.5 640.5 Q381 657 381 688 Q381 723 402 745 Q423 767 458 767 Q489 767 505.5 750 Q522 733 522 702 Z M405 546 L542 546 L436 0 L314 0 L327 68 Q292 26 252.5 7 Q213 -12 167 -12 Q103 -12 68.5 22 Q34 56 34 117 Q34 137 39 165 L113 546 L250 546 L178 176 Q176 168 176 154 Q176 132 188 122.5 Q200 113 226 113 Q256 113 280.5 125.5 Q305 138 331 164 L405 546 Z " />
<glyph glyph-name="uni01DC" unicode="&#x1dc;" horiz-adv-x="556" d="M338 791 L271 918 L272 928 L383 928 L420 801 L419 791 L338 791 Z M255 624 Q224 624 207.5 640.5 Q191 657 191 688 Q191 723 212 745 Q233 767 268 767 Q299 767 315.5 750 Q332 733 332 702 Q332 667 311.5 645.5 Q291 624 255 624 Z M381 688 Q381 723 402 745 Q423 767 458 767 Q489 767 505.5 750 Q522 733 522 702 Q522 667 501.5 645.5 Q481 624 445 624 Q414 624 397.5 640.5 Q381 657 381 688 Z M542 546 L436 0 L314 0 L327 68 Q292 26 252.5 7 Q213 -12 167 -12 Q103 -12 68.5 22 Q34 56 34 117 Q34 137 39 165 L113 546 L250 546 L178 176 Q176 168 176 154 Q176 132 188 122.5 Q200 113 226 113 Q256 113 280.5 125.5 Q305 138 331 164 L405 546 L542 546 Z " />
<glyph glyph-name="uni01D6" unicode="&#x1d6;" horiz-adv-x="556" d="M535 801 L217 801 L234 891 L552 891 L535 801 Z M255 624 Q224 624 207.5 640.5 Q191 657 191 688 Q191 723 212 745 Q233 767 268 767 Q299 767 315.5 750 Q332 733 332 702 Q332 667 311.5 645.5 Q291 624 255 624 Z M381 688 Q381 723 402 745 Q423 767 458 767 Q489 767 505.5 750 Q522 733 522 702 Q522 667 501.5 645.5 Q481 624 445 624 Q414 624 397.5 640.5 Q381 657 381 688 Z M405 546 L542 546 L436 0 L314 0 L327 68 Q292 26 252.5 7 Q213 -12 167 -12 Q103 -12 68.5 22 Q34 56 34 117 Q34 137 39 165 L113 546 L250 546 L178 176 Q176 168 176 154 Q176 132 188 122.5 Q200 113 226 113 Q256 113 280.5 125.5 Q305 138 331 164 L405 546 Z " />
<glyph glyph-name="uni1EE5" unicode="&#x1ee5;" horiz-adv-x="556" d="M542 546 L436 0 L314 0 L327 68 Q292 26 252.5 7 Q213 -12 167 -12 Q103 -12 68.5 22 Q34 56 34 117 Q34 137 39 165 L113 546 L250 546 L178 176 Q176 168 176 154 Q176 132 188 122.5 Q200 113 226 113 Q256 113 280.5 125.5 Q305 138 331 164 L405 546 L542 546 Z M188 -226 Q153 -226 134.5 -208 Q116 -190 116 -156 Q116 -118 139 -94 Q162 -70 202 -70 Q236 -70 255 -88.5 Q274 -107 274 -141 Q274 -179 251 -202.5 Q228 -226 188 -226 Z " />
<glyph glyph-name="ugrave" unicode="&#xf9;" horiz-adv-x="556" d="M542 546 L436 0 L314 0 L327 68 Q292 26 252.5 7 Q213 -12 167 -12 Q103 -12 68.5 22 Q34 56 34 117 Q34 137 39 165 L113 546 L250 546 L178 176 Q176 168 176 154 Q176 132 188 122.5 Q200 113 226 113 Q256 113 280.5 125.5 Q305 138 331 164 L405 546 L542 546 Z M228 774 L229 784 L362 784 L413 625 L412 615 L316 615 L228 774 Z " />
<glyph glyph-name="uni1EE7" unicode="&#x1ee7;" horiz-adv-x="556" d="M542 546 L436 0 L314 0 L327 68 Q292 26 252.5 7 Q213 -12 167 -12 Q103 -12 68.5 22 Q34 56 34 117 Q34 137 39 165 L113 546 L250 546 L178 176 Q176 168 176 154 Q176 132 188 122.5 Q200 113 226 113 Q256 113 280.5 125.5 Q305 138 331 164 L405 546 L542 546 Z M299 617 L299 628 Q299 658 311 674.5 Q323 691 345 708 Q356 715 361 720.5 Q366 726 366 732 Q366 742 349 742 Q322 742 289 726 L265 790 Q315 817 378 817 Q475 817 475 743 Q475 713 461.5 698 Q448 683 422 667 Q402 655 392.5 645.5 Q383 636 383 620 L383 612 L299 617 Z " />
<glyph glyph-name="uhorn" unicode="&#x1b0;" horiz-adv-x="556" d="M676 683 Q676 652 670 616 Q658 551 626 518 Q594 485 528 475 L436 0 L314 0 L327 68 Q292 26 252.5 7 Q213 -12 167 -12 Q103 -12 68.5 22 Q34 56 34 117 Q34 137 39 165 L113 546 L250 546 L178 176 Q176 168 176 154 Q176 132 188 122.5 Q200 113 226 113 Q256 113 280.5 125.5 Q305 138 331 164 L405 546 L466 546 Q511 546 531 567 Q551 588 561 636 Q566 661 567 690 L676 683 Z " />
<glyph glyph-name="uni1EE9" unicode="&#x1ee9;" horiz-adv-x="556" d="M676 683 Q676 652 670 616 Q658 551 626 518 Q594 485 528 475 L436 0 L314 0 L327 68 Q292 26 252.5 7 Q213 -12 167 -12 Q103 -12 68.5 22 Q34 56 34 117 Q34 137 39 165 L113 546 L250 546 L178 176 Q176 168 176 154 Q176 132 188 122.5 Q200 113 226 113 Q256 113 280.5 125.5 Q305 138 331 164 L405 546 L466 546 Q511 546 531 567 Q551 588 561 636 Q566 661 567 690 L676 683 Z M273 625 L392 784 L534 784 L533 774 L377 615 L272 615 L273 625 Z " />
<glyph glyph-name="uni1EF1" unicode="&#x1ef1;" horiz-adv-x="556" d="M676 683 Q676 652 670 616 Q658 551 626 518 Q594 485 528 475 L436 0 L314 0 L327 68 Q292 26 252.5 7 Q213 -12 167 -12 Q103 -12 68.5 22 Q34 56 34 117 Q34 137 39 165 L113 546 L250 546 L178 176 Q176 168 176 154 Q176 132 188 122.5 Q200 113 226 113 Q256 113 280.5 125.5 Q305 138 331 164 L405 546 L466 546 Q511 546 531 567 Q551 588 561 636 Q566 661 567 690 L676 683 Z M188 -226 Q153 -226 134.5 -208 Q116 -190 116 -156 Q116 -118 139 -94 Q162 -70 202 -70 Q236 -70 255 -88.5 Q274 -107 274 -141 Q274 -179 251 -202.5 Q228 -226 188 -226 Z " />
<glyph glyph-name="uni1EEB" unicode="&#x1eeb;" horiz-adv-x="556" d="M676 683 Q676 652 670 616 Q658 551 626 518 Q594 485 528 475 L436 0 L314 0 L327 68 Q292 26 252.5 7 Q213 -12 167 -12 Q103 -12 68.5 22 Q34 56 34 117 Q34 137 39 165 L113 546 L250 546 L178 176 Q176 168 176 154 Q176 132 188 122.5 Q200 113 226 113 Q256 113 280.5 125.5 Q305 138 331 164 L405 546 L466 546 Q511 546 531 567 Q551 588 561 636 Q566 661 567 690 L676 683 Z M228 774 L229 784 L362 784 L413 625 L412 615 L316 615 L228 774 Z " />
<glyph glyph-name="uni1EED" unicode="&#x1eed;" horiz-adv-x="556" d="M676 683 Q676 652 670 616 Q658 551 626 518 Q594 485 528 475 L436 0 L314 0 L327 68 Q292 26 252.5 7 Q213 -12 167 -12 Q103 -12 68.5 22 Q34 56 34 117 Q34 137 39 165 L113 546 L250 546 L178 176 Q176 168 176 154 Q176 132 188 122.5 Q200 113 226 113 Q256 113 280.5 125.5 Q305 138 331 164 L405 546 L466 546 Q511 546 531 567 Q551 588 561 636 Q566 661 567 690 L676 683 Z M299 617 L299 628 Q299 658 311 674.5 Q323 691 345 708 Q356 715 361 720.5 Q366 726 366 732 Q366 742 349 742 Q322 742 289 726 L265 790 Q315 817 378 817 Q475 817 475 743 Q475 713 461.5 698 Q448 683 422 667 Q402 655 392.5 645.5 Q383 636 383 620 L383 612 L299 617 Z " />
<glyph glyph-name="uni1EEF" unicode="&#x1eef;" horiz-adv-x="556" d="M676 683 Q676 652 670 616 Q658 551 626 518 Q594 485 528 475 L436 0 L314 0 L327 68 Q292 26 252.5 7 Q213 -12 167 -12 Q103 -12 68.5 22 Q34 56 34 117 Q34 137 39 165 L113 546 L250 546 L178 176 Q176 168 176 154 Q176 132 188 122.5 Q200 113 226 113 Q256 113 280.5 125.5 Q305 138 331 164 L405 546 L466 546 Q511 546 531 567 Q551 588 561 636 Q566 661 567 690 L676 683 Z M163 622 Q193 767 293 767 Q321 767 339.5 757.5 Q358 748 378 731 Q391 720 400.5 714.5 Q410 709 420 709 Q437 709 452.5 725.5 Q468 742 476 770 L549 760 Q533 687 499 651 Q465 615 417 615 Q389 615 371 624.5 Q353 634 333 651 Q320 662 311 667.5 Q302 673 292 673 Q274 673 258.5 656 Q243 639 236 612 L163 622 Z " />
<glyph glyph-name="uhungarumlaut" unicode="&#x171;" horiz-adv-x="556" d="M542 546 L436 0 L314 0 L327 68 Q292 26 252.5 7 Q213 -12 167 -12 Q103 -12 68.5 22 Q34 56 34 117 Q34 137 39 165 L113 546 L250 546 L178 176 Q176 168 176 154 Q176 132 188 122.5 Q200 113 226 113 Q256 113 280.5 125.5 Q305 138 331 164 L405 546 L542 546 Z M209 625 L292 784 L412 784 L411 774 L294 615 L208 615 L209 625 Z M363 625 L448 784 L568 784 L567 774 L448 615 L362 615 L363 625 Z " />
<glyph glyph-name="umacron" unicode="&#x16b;" horiz-adv-x="556" d="M542 546 L436 0 L314 0 L327 68 Q292 26 252.5 7 Q213 -12 167 -12 Q103 -12 68.5 22 Q34 56 34 117 Q34 137 39 165 L113 546 L250 546 L178 176 Q176 168 176 154 Q176 132 188 122.5 Q200 113 226 113 Q256 113 280.5 125.5 Q305 138 331 164 L405 546 L542 546 Z M203 727 L521 727 L504 637 L186 637 L203 727 Z " />
<glyph glyph-name="uogonek" unicode="&#x173;" horiz-adv-x="556" d="M363 -144 Q388 -144 420 -128 L446 -202 Q397 -230 332 -230 Q278 -230 248.5 -206 Q219 -182 219 -139 Q219 -98 245.5 -61 Q272 -24 320 0 L316 0 L330 73 Q258 -12 167 -12 Q103 -12 68.5 22 Q34 56 34 117 Q34 137 39 165 L113 546 L250 546 L178 176 Q176 168 176 154 Q176 132 188 122.5 Q200 113 226 113 Q256 113 280.5 125.5 Q305 138 331 164 L405 546 L542 546 L436 0 Q391 -27 362 -58.5 Q333 -90 333 -118 Q333 -144 363 -144 Z " />
<glyph glyph-name="uring" unicode="&#x16f;" horiz-adv-x="556" d="M542 546 L436 0 L314 0 L327 68 Q292 26 252.5 7 Q213 -12 167 -12 Q103 -12 68.5 22 Q34 56 34 117 Q34 137 39 165 L113 546 L250 546 L178 176 Q176 168 176 154 Q176 132 188 122.5 Q200 113 226 113 Q256 113 280.5 125.5 Q305 138 331 164 L405 546 L542 546 Z M339 601 Q287 601 258 624.5 Q229 648 229 690 Q229 759 268.5 799 Q308 839 385 839 Q437 839 466 815.5 Q495 792 495 750 Q495 681 455.5 641 Q416 601 339 601 Z M351 665 Q384 665 398.5 685.5 Q413 706 413 738 Q413 775 373 775 Q340 775 325.5 754.5 Q311 734 311 702 Q311 665 351 665 Z " />
<glyph glyph-name="utilde" unicode="&#x169;" horiz-adv-x="556" d="M542 546 L436 0 L314 0 L327 68 Q292 26 252.5 7 Q213 -12 167 -12 Q103 -12 68.5 22 Q34 56 34 117 Q34 137 39 165 L113 546 L250 546 L178 176 Q176 168 176 154 Q176 132 188 122.5 Q200 113 226 113 Q256 113 280.5 125.5 Q305 138 331 164 L405 546 L542 546 Z M163 622 Q193 767 293 767 Q321 767 339.5 757.5 Q358 748 378 731 Q391 720 400.5 714.5 Q410 709 420 709 Q437 709 452.5 725.5 Q468 742 476 770 L549 760 Q533 687 499 651 Q465 615 417 615 Q389 615 371 624.5 Q353 634 333 651 Q320 662 311 667.5 Q302 673 292 673 Q274 673 258.5 656 Q243 639 236 612 L163 622 Z " />
<glyph glyph-name="v" unicode="v" horiz-adv-x="512" d="M551 546 L277 0 L130 0 L67 546 L202 546 L229 139 L411 546 L551 546 Z " />
<glyph glyph-name="w" unicode="w" horiz-adv-x="766" d="M803 546 L556 0 L409 0 L405 384 L252 0 L105 0 L69 546 L203 546 L207 146 L366 546 L505 546 L511 148 L664 546 L803 546 Z " />
<glyph glyph-name="wacute" unicode="&#x1e83;" horiz-adv-x="766" d="M803 546 L556 0 L409 0 L405 384 L252 0 L105 0 L69 546 L203 546 L207 146 L366 546 L505 546 L511 148 L664 546 L803 546 Z M374 625 L493 784 L635 784 L634 774 L478 615 L373 615 L374 625 Z " />
<glyph glyph-name="wcircumflex" unicode="&#x175;" horiz-adv-x="766" d="M803 546 L556 0 L409 0 L405 384 L252 0 L105 0 L69 546 L203 546 L207 146 L366 546 L505 546 L511 148 L664 546 L803 546 Z M603 625 L602 615 L514 615 L462 706 L374 615 L282 615 L283 625 L411 784 L535 784 L603 625 Z " />
<glyph glyph-name="wdieresis" unicode="&#x1e85;" horiz-adv-x="766" d="M356 624 Q325 624 308.5 640.5 Q292 657 292 688 Q292 723 313 745 Q334 767 369 767 Q400 767 416.5 750 Q433 733 433 702 Q433 667 412.5 645.5 Q392 624 356 624 Z M546 624 Q515 624 498.5 640.5 Q482 657 482 688 Q482 723 503 745 Q524 767 559 767 Q590 767 606.5 750 Q623 733 623 702 Q623 667 602.5 645.5 Q582 624 546 624 Z M803 546 L556 0 L409 0 L405 384 L252 0 L105 0 L69 546 L203 546 L207 146 L366 546 L505 546 L511 148 L664 546 L803 546 Z " />
<glyph glyph-name="wgrave" unicode="&#x1e81;" horiz-adv-x="766" d="M803 546 L556 0 L409 0 L405 384 L252 0 L105 0 L69 546 L203 546 L207 146 L366 546 L505 546 L511 148 L664 546 L803 546 Z M329 774 L330 784 L463 784 L514 625 L513 615 L417 615 L329 774 Z " />
<glyph glyph-name="x" unicode="x" horiz-adv-x="488" d="M319 276 L427 0 L287 0 L225 174 L101 0 L-48 0 L173 282 L69 546 L210 546 L267 383 L386 546 L536 546 L319 276 Z " />
<glyph glyph-name="y" unicode="y" horiz-adv-x="512" d="M551 546 L292 26 Q245 -69 171 -126.5 Q97 -184 -24 -222 L-59 -105 Q14 -81 59.5 -54.5 Q105 -28 135 7 L71 546 L206 546 L232 145 L411 546 L551 546 Z " />
<glyph glyph-name="yacute" unicode="&#xfd;" horiz-adv-x="512" d="M551 546 L292 26 Q245 -69 171 -126.5 Q97 -184 -24 -222 L-59 -105 Q14 -81 59.5 -54.5 Q105 -28 135 7 L71 546 L206 546 L232 145 L411 546 L551 546 Z M250 625 L369 784 L511 784 L510 774 L354 615 L249 615 L250 625 Z " />
<glyph glyph-name="ycircumflex" unicode="&#x177;" horiz-adv-x="512" d="M551 546 L292 26 Q245 -69 171 -126.5 Q97 -184 -24 -222 L-59 -105 Q14 -81 59.5 -54.5 Q105 -28 135 7 L71 546 L206 546 L232 145 L411 546 L551 546 Z M479 625 L478 615 L390 615 L338 706 L250 615 L158 615 L159 625 L287 784 L411 784 L479 625 Z " />
<glyph glyph-name="ydieresis" unicode="&#xff;" horiz-adv-x="512" d="M232 624 Q201 624 184.5 640.5 Q168 657 168 688 Q168 723 189 745 Q210 767 245 767 Q276 767 292.5 750 Q309 733 309 702 Q309 667 288.5 645.5 Q268 624 232 624 Z M422 624 Q391 624 374.5 640.5 Q358 657 358 688 Q358 723 379 745 Q400 767 435 767 Q466 767 482.5 750 Q499 733 499 702 Q499 667 478.5 645.5 Q458 624 422 624 Z M551 546 L292 26 Q245 -69 171 -126.5 Q97 -184 -24 -222 L-59 -105 Q14 -81 59.5 -54.5 Q105 -28 135 7 L71 546 L206 546 L232 145 L411 546 L551 546 Z " />
<glyph glyph-name="uni1E8F" unicode="&#x1e8f;" horiz-adv-x="512" d="M551 546 L292 26 Q245 -69 171 -126.5 Q97 -184 -24 -222 L-59 -105 Q14 -81 59.5 -54.5 Q105 -28 135 7 L71 546 L206 546 L232 145 L411 546 L551 546 Z M326 617 Q291 617 272.5 635 Q254 653 254 687 Q254 725 277 749 Q300 773 340 773 Q374 773 393 754.5 Q412 736 412 702 Q412 664 389 640.5 Q366 617 326 617 Z " />
<glyph glyph-name="uni1EF5" unicode="&#x1ef5;" horiz-adv-x="512" d="M551 546 L292 26 Q245 -69 171 -126.5 Q97 -184 -24 -222 L-59 -105 Q14 -81 59.5 -54.5 Q105 -28 135 7 L71 546 L206 546 L232 145 L411 546 L551 546 Z M310 -226 Q275 -226 256.5 -208 Q238 -190 238 -156 Q238 -118 261 -94 Q284 -70 324 -70 Q358 -70 377 -88.5 Q396 -107 396 -141 Q396 -179 373 -202.5 Q350 -226 310 -226 Z " />
<glyph glyph-name="ygrave" unicode="&#x1ef3;" horiz-adv-x="512" d="M551 546 L292 26 Q245 -69 171 -126.5 Q97 -184 -24 -222 L-59 -105 Q14 -81 59.5 -54.5 Q105 -28 135 7 L71 546 L206 546 L232 145 L411 546 L551 546 Z M205 774 L206 784 L339 784 L390 625 L389 615 L293 615 L205 774 Z " />
<glyph glyph-name="uni1EF7" unicode="&#x1ef7;" horiz-adv-x="512" d="M551 546 L292 26 Q245 -69 171 -126.5 Q97 -184 -24 -222 L-59 -105 Q14 -81 59.5 -54.5 Q105 -28 135 7 L71 546 L206 546 L232 145 L411 546 L551 546 Z M276 617 L276 628 Q276 658 288 674.5 Q300 691 322 708 Q333 715 338 720.5 Q343 726 343 732 Q343 742 326 742 Q299 742 266 726 L242 790 Q292 817 355 817 Q452 817 452 743 Q452 713 438.5 698 Q425 683 399 667 Q379 655 369.5 645.5 Q360 636 360 620 L360 612 L276 617 Z " />
<glyph glyph-name="uni1EF9" unicode="&#x1ef9;" horiz-adv-x="512" d="M551 546 L292 26 Q245 -69 171 -126.5 Q97 -184 -24 -222 L-59 -105 Q14 -81 59.5 -54.5 Q105 -28 135 7 L71 546 L206 546 L232 145 L411 546 L551 546 Z M140 622 Q170 767 270 767 Q298 767 316.5 757.5 Q335 748 355 731 Q368 720 377.5 714.5 Q387 709 397 709 Q414 709 429.5 725.5 Q445 742 453 770 L526 760 Q510 687 476 651 Q442 615 394 615 Q366 615 348 624.5 Q330 634 310 651 Q297 662 288 667.5 Q279 673 269 673 Q251 673 235.5 656 Q220 639 213 612 L140 622 Z " />
<glyph glyph-name="z" unicode="z" horiz-adv-x="448" d="M450 432 L146 114 L392 114 L370 0 L-31 0 L-10 114 L295 432 L64 432 L86 546 L471 546 L450 432 Z " />
<glyph glyph-name="zacute" unicode="&#x17a;" horiz-adv-x="448" d="M450 432 L146 114 L392 114 L370 0 L-31 0 L-10 114 L295 432 L64 432 L86 546 L471 546 L450 432 Z M219 625 L338 784 L480 784 L479 774 L323 615 L218 615 L219 625 Z " />
<glyph glyph-name="zcaron" unicode="&#x17e;" horiz-adv-x="448" d="M450 432 L146 114 L392 114 L370 0 L-31 0 L-10 114 L295 432 L64 432 L86 546 L471 546 L450 432 Z M480 784 L479 774 L351 615 L227 615 L159 774 L160 784 L248 784 L300 693 L388 784 L480 784 Z " />
<glyph glyph-name="zdotaccent" unicode="&#x17c;" horiz-adv-x="448" d="M450 432 L146 114 L392 114 L370 0 L-31 0 L-10 114 L295 432 L64 432 L86 546 L471 546 L450 432 Z M295 617 Q260 617 241.5 635 Q223 653 223 687 Q223 725 246 749 Q269 773 309 773 Q343 773 362 754.5 Q381 736 381 702 Q381 664 358 640.5 Q335 617 295 617 Z " />
<glyph glyph-name="uni1E93" unicode="&#x1e93;" horiz-adv-x="448" d="M450 432 L146 114 L392 114 L370 0 L-31 0 L-10 114 L295 432 L64 432 L86 546 L471 546 L450 432 Z M134 -226 Q99 -226 80.5 -208 Q62 -190 62 -156 Q62 -118 85 -94 Q108 -70 148 -70 Q182 -70 201 -88.5 Q220 -107 220 -141 Q220 -179 197 -202.5 Q174 -226 134 -226 Z " />
<glyph glyph-name="fi" unicode="&#xfb01;" horiz-adv-x="628" d="M110 430 L32 430 L54 546 L133 546 L142 592 Q161 687 224 737 Q287 787 388 787 Q427 787 457 781 L434 665 Q411 669 384 669 Q341 669 312.5 646 Q284 623 276 582 L269 546 L391 546 L369 430 L247 430 L164 0 L27 0 L110 430 Z M475 546 L612 546 L506 0 L369 0 L475 546 Z M564 617 Q529 617 510.5 635 Q492 653 492 687 Q492 725 515 749 Q538 773 578 773 Q612 773 631 754.5 Q650 736 650 702 Q650 664 627 640.5 Q604 617 564 617 Z " />
<glyph glyph-name="fl" unicode="&#xfb02;" horiz-adv-x="667" d="M110 430 L32 430 L54 546 L133 546 L142 592 Q161 687 224 737 Q287 787 388 787 Q427 787 457 781 L434 665 Q411 669 384 669 Q341 669 312.5 646 Q284 623 276 582 L269 546 L391 546 L369 430 L247 430 L164 0 L27 0 L110 430 Z M521 -6 Q456 -6 423.5 21.5 Q391 49 391 102 Q391 123 395 142 L518 770 L655 770 L537 164 Q534 149 534 138 Q534 125 540.5 119.5 Q547 114 564 114 Q582 114 600 117 L596 3 Q562 -6 521 -6 Z " />
<glyph glyph-name="ordfeminine" unicode="&#xaa;" horiz-adv-x="519" d="M341 729 Q414 729 454.5 700 Q495 671 495 621 Q495 605 493 597 L441 319 Q404 301 356 292 Q308 283 261 283 Q91 283 91 407 Q91 493 165.5 527 Q240 561 371 559 L376 584 Q377 589 377 598 Q377 616 364 623 Q351 630 322 630 Q265 630 196 605 L175 694 Q214 711 258 720 Q302 729 341 729 Z M203 409 Q203 392 215 384 Q227 376 261 376 Q300 376 339 387 L358 488 Q289 488 246 468 Q203 448 203 409 Z M78 197 L402 197 L384 105 L60 105 L78 197 Z " />
<glyph glyph-name="ordmasculine" unicode="&#xba;" horiz-adv-x="503" d="M258 282 Q95 282 95 457 Q95 531 123 593 Q151 655 206 692.5 Q261 730 338 730 Q500 730 500 558 Q500 488 474 425 Q448 362 393.5 322 Q339 282 258 282 Z M263 380 Q297 380 325.5 404 Q354 428 370.5 468.5 Q387 509 387 556 Q387 596 374 614.5 Q361 633 332 633 Q298 633 269.5 609 Q241 585 224.5 544.5 Q208 504 208 457 Q208 417 221 398.5 Q234 380 263 380 Z M75 197 L399 197 L381 105 L57 105 L75 197 Z " />
<glyph glyph-name="uni207F" unicode="&#x207f;" horiz-adv-x="511" d="M401 733 Q451 733 479 708 Q507 683 507 637 Q507 627 503 603 L445 307 L332 307 L386 583 Q387 588 387 596 Q387 635 335 635 Q296 635 256 609 L197 307 L84 307 L165 724 L269 724 L259 670 Q327 733 401 733 Z " />
<glyph glyph-name="pi" unicode="&#x3c0;" horiz-adv-x="657" d="M492 164 Q490 154 490 149 Q490 117 524 117 Q538 117 554 120 L553 2 Q514 -7 479 -7 Q414 -7 380.5 21 Q347 49 347 102 Q347 123 351 143 L407 431 L326 431 Q296 286 260 182.5 Q224 79 174 -5 L21 5 Q79 95 116.5 193 Q154 291 185 431 L71 431 L93 547 L678 547 L656 431 L544 431 L492 164 Z " />
<glyph glyph-name="zero" unicode="0" horiz-adv-x="601" d="M245 -12 Q154 -12 104 44.5 Q54 101 54 204 Q54 343 89 464 Q124 585 199.5 660.5 Q275 736 390 736 Q481 736 531.5 679.5 Q582 623 582 520 Q582 381 547 260 Q512 139 436 63.5 Q360 -12 245 -12 Z M269 109 Q326 109 366 172 Q406 235 425.5 327 Q445 419 445 503 Q445 561 426 588 Q407 615 366 615 Q310 615 270 551 Q230 487 210.5 394.5 Q191 302 191 219 Q191 163 210 136 Q229 109 269 109 Z " />
<glyph glyph-name="one" unicode="1" horiz-adv-x="456" d="M426 724 L285 0 L147 0 L261 585 L108 532 L90 643 L305 724 L426 724 Z " />
<glyph glyph-name="two" unicode="2" horiz-adv-x="513" d="M157 118 L442 118 L419 0 L-29 0 L-8 119 L272 393 Q328 447 355 482 Q382 517 382 553 Q382 581 363 596.5 Q344 612 308 612 Q271 612 224.5 596 Q178 580 137 555 L88 664 Q138 697 204 716.5 Q270 736 329 736 Q419 736 470.5 691.5 Q522 647 522 569 Q522 499 480.5 436 Q439 373 363 304 L157 118 Z " />
<glyph glyph-name="three" unicode="3" horiz-adv-x="540" d="M534 606 L354 450 Q418 435 452 389 Q486 343 486 270 Q486 192 447.5 127.5 Q409 63 340.5 25.5 Q272 -12 188 -12 Q126 -12 67.5 8 Q9 28 -25 59 L38 162 Q77 138 118 125.5 Q159 113 193 113 Q238 113 273.5 134.5 Q309 156 328 191 Q347 226 347 265 Q347 343 266 343 Q241 343 201 334 L156 404 L382 606 L99 606 L122 724 L555 724 L534 606 Z " />
<glyph glyph-name="four" unicode="4" horiz-adv-x="559" d="M443 252 L523 252 L500 136 L420 136 L394 0 L260 0 L286 136 L-14 136 L7 252 L338 724 L535 724 L443 252 Z M309 252 L376 597 L149 252 L309 252 Z " />
<glyph glyph-name="five" unicode="5" horiz-adv-x="532" d="M259 606 L222 465 Q253 472 289 472 Q382 472 433 422 Q484 372 484 280 Q484 201 446 134 Q408 67 340 27.5 Q272 -12 185 -12 Q124 -12 68.5 6.5 Q13 25 -18 55 L44 157 Q80 135 118.5 123.5 Q157 112 189 112 Q236 112 271 134.5 Q306 157 324.5 193.5 Q343 230 343 270 Q343 349 265 349 Q215 349 151 321 L74 368 L160 724 L542 724 L519 606 L259 606 Z " />
<glyph glyph-name="six" unicode="6" horiz-adv-x="545" d="M338 467 Q421 467 467 418 Q513 369 513 281 Q513 202 477 135 Q441 68 376 28 Q311 -12 227 -12 Q130 -12 76 42.5 Q22 97 22 196 Q22 384 229 579 L397 737 L491 652 L326 496 Q300 472 292 463 Q312 467 338 467 Z M235 106 Q277 106 309.5 131 Q342 156 359 195.5 Q376 235 376 276 Q376 360 295 360 Q259 360 214 344 Q186 306 173 270 Q160 234 160 197 Q160 106 235 106 Z " />
<glyph glyph-name="seven" unicode="7" horiz-adv-x="475" d="M544 724 L521 605 L138 -10 L16 44 L375 605 L67 605 L90 724 L544 724 Z " />
<glyph glyph-name="eight" unicode="8" horiz-adv-x="555" d="M229 -12 Q126 -12 69 33 Q12 78 12 160 Q12 237 61 295 Q110 353 189 381 Q149 398 127 435 Q105 472 105 521 Q105 583 138.5 632 Q172 681 230 708.5 Q288 736 360 736 Q452 736 503 694.5 Q554 653 554 577 Q554 508 513 454 Q472 400 404 377 Q454 360 481.5 318.5 Q509 277 509 219 Q509 151 472 98.5 Q435 46 371 17 Q307 -12 229 -12 Z M302 428 Q353 444 385.5 481 Q418 518 418 563 Q418 623 356 623 Q322 623 294.5 606.5 Q267 590 251.5 564 Q236 538 236 509 Q236 452 302 428 Z M232 102 Q272 102 305.5 119.5 Q339 137 358 166 Q377 195 377 227 Q377 295 292 329 Q228 308 188.5 264 Q149 220 149 171 Q149 102 232 102 Z " />
<glyph glyph-name="nine" unicode="9" horiz-adv-x="543" d="M350 736 Q447 736 501 681.5 Q555 627 555 528 Q555 340 348 145 L180 -13 L86 72 L251 228 Q277 252 285 261 Q265 257 239 257 Q156 257 110 306 Q64 355 64 443 Q64 522 100 589 Q136 656 201 696 Q266 736 350 736 Z M363 380 Q391 418 404 454 Q417 490 417 527 Q417 618 342 618 Q300 618 267.5 593 Q235 568 218 528.5 Q201 489 201 448 Q201 364 282 364 Q318 364 363 380 Z " />
<glyph glyph-name="fraction" unicode="&#x2044;" horiz-adv-x="273" d="M-148 21 L375 750 L456 703 L-66 -25 L-148 21 Z " />
<glyph glyph-name="onehalf" unicode="&#xbd;" horiz-adv-x="911" d="M715 703 L193 -25 L111 21 L634 750 L715 703 Z M201 618 L108 590 L95 675 L233 722 L327 722 L241 275 L135 275 L201 618 Z M663 85 L843 85 L827 1 L512 1 L527 86 L714 241 Q783 299 783 333 Q783 347 770.5 355 Q758 363 736 363 Q690 363 617 324 L583 408 Q623 432 667.5 444 Q712 456 754 456 Q819 456 855 428 Q891 400 891 349 Q891 263 781 177 L663 85 Z " />
<glyph glyph-name="uni2153" unicode="&#x2153;" horiz-adv-x="921" d="M715 703 L193 -25 L111 21 L634 750 L715 703 Z M201 618 L108 590 L95 675 L233 722 L327 722 L241 275 L135 275 L201 618 Z M884 362 L773 278 Q815 267 838 237 Q861 207 861 160 Q861 85 806.5 39.5 Q752 -6 661 -6 Q617 -6 577 7.5 Q537 21 508 42 L555 115 Q608 84 657 84 Q698 84 726.5 106 Q755 128 755 158 Q755 178 742 188.5 Q729 199 705 199 Q682 199 660 191 L623 250 L773 363 L588 363 L605 448 L901 448 L884 362 Z " />
<glyph glyph-name="uni2154" unicode="&#x2154;" horiz-adv-x="1042" d="M836 703 L314 -25 L232 21 L755 750 L836 703 Z M349 275 L34 275 L49 360 L236 515 Q305 573 305 607 Q305 621 292.5 629 Q280 637 258 637 Q212 637 139 598 L105 682 Q145 706 189.5 718 Q234 730 276 730 Q341 730 377 702 Q413 674 413 623 Q413 537 303 451 L185 359 L365 359 L349 275 Z M1005 362 L894 278 Q936 267 959 237 Q982 207 982 160 Q982 85 927.5 39.5 Q873 -6 782 -6 Q738 -6 698 7.5 Q658 21 629 42 L676 115 Q729 84 778 84 Q819 84 847.5 106 Q876 128 876 158 Q876 178 863 188.5 Q850 199 826 199 Q803 199 781 191 L744 250 L894 363 L709 363 L726 448 L1022 448 L1005 362 Z " />
<glyph glyph-name="onequarter" unicode="&#xbc;" horiz-adv-x="899" d="M715 703 L193 -25 L111 21 L634 750 L715 703 Z M201 618 L108 590 L95 675 L233 722 L327 722 L241 275 L135 275 L201 618 Z M853 178 L836 91 L782 91 L765 1 L662 1 L679 91 L475 91 L490 178 L701 448 L852 448 L799 178 L853 178 Z M697 178 L732 361 L595 178 L697 178 Z " />
<glyph glyph-name="threequarters" unicode="&#xbe;" horiz-adv-x="1009" d="M825 703 L303 -25 L221 21 L744 750 L825 703 Z M382 434 Q382 359 327.5 313.5 Q273 268 182 268 Q138 268 98 281.5 Q58 295 29 316 L76 389 Q129 358 178 358 Q219 358 247.5 380 Q276 402 276 432 Q276 452 263 462.5 Q250 473 226 473 Q203 473 181 465 L144 524 L294 637 L109 637 L126 722 L422 722 L405 636 L294 552 Q336 541 359 511 Q382 481 382 434 Z M963 178 L946 91 L892 91 L875 1 L772 1 L789 91 L585 91 L600 178 L811 448 L962 448 L909 178 L963 178 Z M807 178 L842 361 L705 178 L807 178 Z " />
<glyph glyph-name="oneeighth" unicode="&#x215b;" horiz-adv-x="901" d="M715 703 L193 -25 L111 21 L634 750 L715 703 Z M201 618 L108 590 L95 675 L233 722 L327 722 L241 275 L135 275 L201 618 Z M777 232 Q808 224 829 196.5 Q850 169 850 130 Q850 69 798 31.5 Q746 -6 661 -6 Q586 -6 544 24 Q502 54 502 108 Q502 153 532 187.5 Q562 222 619 237 Q592 247 575.5 270 Q559 293 559 328 Q559 389 608.5 422 Q658 455 733 455 Q800 455 838 427.5 Q876 400 876 350 Q876 308 849 276.5 Q822 245 777 232 Z M701 271 Q735 281 753.5 298 Q772 315 772 337 Q772 354 760.5 363.5 Q749 373 728 373 Q699 373 679 357.5 Q659 342 659 318 Q659 285 701 271 Z M664 79 Q701 79 725.5 96.5 Q750 114 750 142 Q750 179 695 198 Q654 187 631 166.5 Q608 146 608 121 Q608 101 622.5 90 Q637 79 664 79 Z " />
<glyph glyph-name="threeeighths" unicode="&#x215c;" horiz-adv-x="1011" d="M825 703 L303 -25 L221 21 L744 750 L825 703 Z M382 434 Q382 359 327.5 313.5 Q273 268 182 268 Q138 268 98 281.5 Q58 295 29 316 L76 389 Q129 358 178 358 Q219 358 247.5 380 Q276 402 276 432 Q276 452 263 462.5 Q250 473 226 473 Q203 473 181 465 L144 524 L294 637 L109 637 L126 722 L422 722 L405 636 L294 552 Q336 541 359 511 Q382 481 382 434 Z M887 232 Q918 224 939 196.5 Q960 169 960 130 Q960 69 908 31.5 Q856 -6 771 -6 Q696 -6 654 24 Q612 54 612 108 Q612 153 642 187.5 Q672 222 729 237 Q702 247 685.5 270 Q669 293 669 328 Q669 389 718.5 422 Q768 455 843 455 Q910 455 948 427.5 Q986 400 986 350 Q986 308 959 276.5 Q932 245 887 232 Z M811 271 Q845 281 863.5 298 Q882 315 882 337 Q882 354 870.5 363.5 Q859 373 838 373 Q809 373 789 357.5 Q769 342 769 318 Q769 285 811 271 Z M774 79 Q811 79 835.5 96.5 Q860 114 860 142 Q860 179 805 198 Q764 187 741 166.5 Q718 146 718 121 Q718 101 732.5 90 Q747 79 774 79 Z " />
<glyph glyph-name="fiveeighths" unicode="&#x215d;" horiz-adv-x="1009" d="M823 703 L301 -25 L219 21 L742 750 L823 703 Z M386 445 Q386 394 361.5 354 Q337 314 291 291 Q245 268 185 268 Q141 268 98 280.5 Q55 293 33 313 L80 388 Q105 374 132 367 Q159 360 181 360 Q228 360 253.5 383 Q279 406 279 435 Q279 456 264 467.5 Q249 479 222 479 Q192 479 155 464 L92 504 L146 722 L418 722 L401 637 L222 637 L205 568 Q230 573 251 573 Q315 573 350.5 539.5 Q386 506 386 445 Z M885 232 Q916 224 937 196.5 Q958 169 958 130 Q958 69 906 31.5 Q854 -6 769 -6 Q694 -6 652 24 Q610 54 610 108 Q610 153 640 187.5 Q670 222 727 237 Q700 247 683.5 270 Q667 293 667 328 Q667 389 716.5 422 Q766 455 841 455 Q908 455 946 427.5 Q984 400 984 350 Q984 308 957 276.5 Q930 245 885 232 Z M809 271 Q843 281 861.5 298 Q880 315 880 337 Q880 354 868.5 363.5 Q857 373 836 373 Q807 373 787 357.5 Q767 342 767 318 Q767 285 809 271 Z M772 79 Q809 79 833.5 96.5 Q858 114 858 142 Q858 179 803 198 Q762 187 739 166.5 Q716 146 716 121 Q716 101 730.5 90 Q745 79 772 79 Z " />
<glyph glyph-name="seveneighths" unicode="&#x215e;" horiz-adv-x="928" d="M742 703 L220 -25 L138 21 L661 750 L742 703 Z M64 306 L285 629 L94 629 L112 722 L421 722 L404 629 L157 267 L64 306 Z M804 232 Q835 224 856 196.5 Q877 169 877 130 Q877 69 825 31.5 Q773 -6 688 -6 Q613 -6 571 24 Q529 54 529 108 Q529 153 559 187.5 Q589 222 646 237 Q619 247 602.5 270 Q586 293 586 328 Q586 389 635.5 422 Q685 455 760 455 Q827 455 865 427.5 Q903 400 903 350 Q903 308 876 276.5 Q849 245 804 232 Z M728 271 Q762 281 780.5 298 Q799 315 799 337 Q799 354 787.5 363.5 Q776 373 755 373 Q726 373 706 357.5 Q686 342 686 318 Q686 285 728 271 Z M691 79 Q728 79 752.5 96.5 Q777 114 777 142 Q777 179 722 198 Q681 187 658 166.5 Q635 146 635 121 Q635 101 649.5 90 Q664 79 691 79 Z " />
<glyph glyph-name="uni2080" unicode="&#x2080;" horiz-adv-x="444" d="M153 -79 Q88 -79 52 -42.5 Q16 -6 16 61 Q16 201 71.5 291.5 Q127 382 244 382 Q309 382 345 345 Q381 308 381 241 Q381 101 325.5 11 Q270 -79 153 -79 Z M170 9 Q205 9 228.5 43 Q252 77 263 127 Q274 177 274 225 Q274 293 226 293 Q191 293 167.5 258.5 Q144 224 133 173.5 Q122 123 122 74 Q122 9 170 9 Z " />
<glyph glyph-name="uni2081" unicode="&#x2081;" horiz-adv-x="299" d="M260 375 L174 -72 L68 -72 L134 271 L41 243 L28 328 L166 375 L260 375 Z " />
<glyph glyph-name="uni2082" unicode="&#x2082;" horiz-adv-x="379" d="M117 12 L297 12 L281 -72 L-34 -72 L-19 13 L168 168 Q237 226 237 260 Q237 274 224.5 282 Q212 290 190 290 Q144 290 71 251 L37 335 Q77 359 121.5 371 Q166 383 208 383 Q273 383 309 355 Q345 327 345 276 Q345 190 235 104 L117 12 Z " />
<glyph glyph-name="uni2083" unicode="&#x2083;" horiz-adv-x="390" d="M338 289 L227 205 Q269 194 292 164 Q315 134 315 87 Q315 12 260.5 -33.5 Q206 -79 115 -79 Q71 -79 31 -65.5 Q-9 -52 -38 -31 L9 42 Q62 11 111 11 Q152 11 180.5 33 Q209 55 209 85 Q209 105 196 115.5 Q183 126 159 126 Q136 126 114 118 L77 177 L227 290 L42 290 L59 375 L355 375 L338 289 Z " />
<glyph glyph-name="uni2084" unicode="&#x2084;" horiz-adv-x="417" d="M356 105 L339 18 L285 18 L268 -72 L165 -72 L182 18 L-22 18 L-7 105 L204 375 L355 375 L302 105 L356 105 Z M200 105 L235 288 L98 105 L200 105 Z " />
<glyph glyph-name="uni2085" unicode="&#x2085;" horiz-adv-x="386" d="M154 290 L137 221 Q162 226 183 226 Q247 226 282.5 192.5 Q318 159 318 98 Q318 47 293.5 7 Q269 -33 223 -56 Q177 -79 117 -79 Q74 -79 30.5 -66.5 Q-13 -54 -35 -34 L12 41 Q37 27 64 20 Q91 13 113 13 Q160 13 185.5 36 Q211 59 211 88 Q211 109 196 120.5 Q181 132 154 132 Q124 132 87 117 L24 157 L78 375 L350 375 L333 290 L154 290 Z " />
<glyph glyph-name="uni2086" unicode="&#x2086;" horiz-adv-x="389" d="M192 221 Q257 221 292 188 Q327 155 327 94 Q327 44 303 4.5 Q279 -35 235 -57 Q191 -79 133 -79 Q60 -79 20.5 -44 Q-19 -9 -19 55 Q-19 115 20 177 Q59 239 144 317 L223 389 L297 324 L230 264 L182 221 L192 221 Z M139 8 Q174 8 197 34.5 Q220 61 220 94 Q220 118 206.5 131 Q193 144 167 144 Q147 144 121 136 Q89 96 89 58 Q89 34 102 21 Q115 8 139 8 Z " />
<glyph glyph-name="uni2087" unicode="&#x2087;" horiz-adv-x="356" d="M354 375 L337 282 L90 -80 L-3 -41 L218 282 L27 282 L45 375 L354 375 Z " />
<glyph glyph-name="uni2088" unicode="&#x2088;" horiz-adv-x="389" d="M135 -79 Q60 -79 18 -49 Q-24 -19 -24 35 Q-24 80 6 114.5 Q36 149 93 164 Q66 174 49.5 197 Q33 220 33 255 Q33 316 82.5 349 Q132 382 207 382 Q274 382 312 354.5 Q350 327 350 277 Q350 235 323 203.5 Q296 172 251 159 Q282 151 303 123.5 Q324 96 324 57 Q324 -4 272 -41.5 Q220 -79 135 -79 Z M175 198 Q209 208 227.5 225 Q246 242 246 264 Q246 281 234.5 290.5 Q223 300 202 300 Q173 300 153 284.5 Q133 269 133 245 Q133 212 175 198 Z M138 6 Q175 6 199.5 23.5 Q224 41 224 69 Q224 106 169 125 Q128 114 105 93.5 Q82 73 82 48 Q82 28 96.5 17 Q111 6 138 6 Z " />
<glyph glyph-name="uni2089" unicode="&#x2089;" horiz-adv-x="384" d="M203 382 Q276 382 315.5 347 Q355 312 355 248 Q355 188 316 126 Q277 64 192 -14 L113 -86 L39 -21 L106 39 L154 82 L144 82 Q79 82 44 115 Q9 148 9 209 Q9 259 33 298.5 Q57 338 101 360 Q145 382 203 382 Z M215 167 Q247 207 247 245 Q247 269 234 282 Q221 295 197 295 Q162 295 139 268.5 Q116 242 116 209 Q116 185 129.5 172 Q143 159 169 159 Q189 159 215 167 Z " />
<glyph glyph-name="uni2070" unicode="&#x2070;" horiz-adv-x="444" d="M230 314 Q165 314 129 350.5 Q93 387 93 454 Q93 594 148.5 684.5 Q204 775 321 775 Q386 775 422 738 Q458 701 458 634 Q458 494 402.5 404 Q347 314 230 314 Z M247 402 Q282 402 305.5 436 Q329 470 340 520 Q351 570 351 618 Q351 686 303 686 Q268 686 244.5 651.5 Q221 617 210 566.5 Q199 516 199 467 Q199 402 247 402 Z " />
<glyph glyph-name="uni00B9" unicode="&#xb9;" horiz-adv-x="299" d="M336 768 L250 321 L144 321 L210 664 L117 636 L104 721 L242 768 L336 768 Z " />
<glyph glyph-name="uni00B2" unicode="&#xb2;" horiz-adv-x="379" d="M193 405 L373 405 L357 321 L42 321 L57 406 L244 561 Q313 619 313 653 Q313 667 300.5 675 Q288 683 266 683 Q220 683 147 644 L113 728 Q153 752 197.5 764 Q242 776 284 776 Q349 776 385 748 Q421 720 421 669 Q421 583 311 497 L193 405 Z " />
<glyph glyph-name="uni00B3" unicode="&#xb3;" horiz-adv-x="389" d="M414 682 L303 598 Q345 587 368 557 Q391 527 391 480 Q391 405 336.5 359.5 Q282 314 191 314 Q147 314 107 327.5 Q67 341 38 362 L85 435 Q138 404 187 404 Q228 404 256.5 426 Q285 448 285 478 Q285 498 272 508.5 Q259 519 235 519 Q212 519 190 511 L153 570 L303 683 L118 683 L135 768 L431 768 L414 682 Z " />
<glyph glyph-name="uni2074" unicode="&#x2074;" horiz-adv-x="417" d="M433 498 L416 411 L362 411 L345 321 L242 321 L259 411 L55 411 L70 498 L281 768 L432 768 L379 498 L433 498 Z M277 498 L312 681 L175 498 L277 498 Z " />
<glyph glyph-name="uni2075" unicode="&#x2075;" horiz-adv-x="387" d="M231 683 L214 614 Q239 619 260 619 Q324 619 359.5 585.5 Q395 552 395 491 Q395 440 370.5 400 Q346 360 300 337 Q254 314 194 314 Q151 314 107.5 326.5 Q64 339 42 359 L89 434 Q114 420 141 413 Q168 406 190 406 Q237 406 262.5 429 Q288 452 288 481 Q288 502 273 513.5 Q258 525 231 525 Q201 525 164 510 L101 550 L155 768 L427 768 L410 683 L231 683 Z " />
<glyph glyph-name="uni2076" unicode="&#x2076;" horiz-adv-x="390" d="M269 614 Q334 614 369 581 Q404 548 404 487 Q404 437 380 397.5 Q356 358 312 336 Q268 314 210 314 Q137 314 97.5 349 Q58 384 58 448 Q58 508 97 570 Q136 632 221 710 L300 782 L374 717 L307 657 L259 614 L269 614 Z M216 401 Q251 401 274 427.5 Q297 454 297 487 Q297 511 283.5 524 Q270 537 244 537 Q224 537 198 529 Q166 489 166 451 Q166 427 179 414 Q192 401 216 401 Z " />
<glyph glyph-name="uni2077" unicode="&#x2077;" horiz-adv-x="356" d="M430 768 L413 675 L166 313 L73 352 L294 675 L103 675 L121 768 L430 768 Z " />
<glyph glyph-name="uni2078" unicode="&#x2078;" horiz-adv-x="390" d="M212 314 Q137 314 95 344 Q53 374 53 428 Q53 473 83 507.5 Q113 542 170 557 Q143 567 126.5 590 Q110 613 110 648 Q110 709 159.5 742 Q209 775 284 775 Q351 775 389 747.5 Q427 720 427 670 Q427 628 400 596.5 Q373 565 328 552 Q359 544 380 516.5 Q401 489 401 450 Q401 389 349 351.5 Q297 314 212 314 Z M252 591 Q286 601 304.5 618 Q323 635 323 657 Q323 674 311.5 683.5 Q300 693 279 693 Q250 693 230 677.5 Q210 662 210 638 Q210 605 252 591 Z M215 399 Q252 399 276.5 416.5 Q301 434 301 462 Q301 499 246 518 Q205 507 182 486.5 Q159 466 159 441 Q159 421 173.5 410 Q188 399 215 399 Z " />
<glyph glyph-name="uni2079" unicode="&#x2079;" horiz-adv-x="383" d="M279 775 Q352 775 391.5 740 Q431 705 431 641 Q431 581 392 519 Q353 457 268 379 L189 307 L115 372 L182 432 L230 475 L220 475 Q155 475 120 508 Q85 541 85 602 Q85 652 109 691.5 Q133 731 177 753 Q221 775 279 775 Z M291 560 Q323 600 323 638 Q323 662 310 675 Q297 688 273 688 Q238 688 215 661.5 Q192 635 192 602 Q192 578 205.5 565 Q219 552 245 552 Q265 552 291 560 Z " />
<glyph glyph-name="asterisk" unicode="&#x2a;" horiz-adv-x="516" d="M369 479 L446 359 L349 289 L292 421 L185 289 L106 359 L226 480 L91 518 L145 623 L271 568 L290 724 L404 724 L363 569 L505 623 L520 514 L369 479 Z " />
<glyph glyph-name="backslash" unicode="&#x5c;" horiz-adv-x="368" d="M184 -86 L94 749 L202 749 L292 -86 L184 -86 Z " />
<glyph glyph-name="middot" unicode="&#xb7;" horiz-adv-x="258" d="M134 260 Q99 260 79 279 Q59 298 59 333 Q59 372 83 395 Q107 418 149 418 Q185 418 204.5 400 Q224 382 224 348 Q224 308 200 284 Q176 260 134 260 Z " />
</font>
</svg>
