<?xml version="1.0" encoding="UTF-8"?>
<svg xmlns="http://www.w3.org/2000/svg" xmlns:xlink="http://www.w3.org/1999/xlink" version="1.2" >
<font id="SamsungOneLatin-900C">
<font-face  font-family="SamsungOneLatin" units-per-em="1024" ascent="794" descent="-230" font-style="normal" font-weight="900" font-stretch="condensed" cap-height="724" x-height="546" underline-position="-125" underline-thickness="36" />
<missing-glyph  horiz-adv-x="653" d="M586 0 L470 0 L131 0 L67 0 L67 724 L183 724 L586 724 L586 0 Z M470 623 L227 623 L470 197 L470 623 Z M183 101 L426 101 L183 527 L183 101 Z " />
<glyph glyph-name="nonmarkingreturn" unicode="&#xd;" horiz-adv-x="224" d="" />
<glyph glyph-name="space" unicode="&#x20;" horiz-adv-x="173" d="" />
<glyph glyph-name="A" unicode="A" horiz-adv-x="638" d="M433 149 L202 149 L163 0 L11 0 L238 724 L399 724 L627 0 L472 0 L433 149 Z M400 273 L317 587 L235 273 L400 273 Z " />
<glyph glyph-name="uniA732" unicode="&#xa732;" horiz-adv-x="1101" d="M897 149 L666 149 L627 0 L472 0 L433 149 L202 149 L163 0 L11 0 L238 724 L399 724 L550 243 L702 724 L863 724 L1091 0 L936 0 L897 149 Z M864 273 L781 588 L698 273 L864 273 Z M400 273 L317 587 L235 273 L400 273 Z " />
<glyph glyph-name="uniA73A" unicode="&#xa73a;" horiz-adv-x="855" d="M740 372 L813 372 L813 259 L707 259 L633 0 L526 0 L472 0 L403 260 L231 260 L163 0 L11 0 L238 724 L399 724 L501 372 L609 372 L687 724 L840 724 L740 372 Z M374 372 L317 587 L261 372 L374 372 Z M562 160 L586 267 L531 267 L562 160 Z " />
<glyph glyph-name="uniA73C" unicode="&#xa73c;" horiz-adv-x="849" d="M834 724 L627 0 Q577 -151 359 -222 L311 -103 Q377 -80 414 -56.5 Q451 -33 473 0 L472 0 L433 149 L202 149 L163 0 L11 0 L238 724 L399 724 L561 209 L681 724 L834 724 Z M400 273 L317 587 L235 273 L400 273 Z " />
<glyph glyph-name="Aacute" unicode="&#xc1;" horiz-adv-x="638" d="M351 781 L236 781 L236 793 L369 926 L523 926 L523 914 L351 781 Z M433 149 L202 149 L163 0 L11 0 L238 724 L399 724 L627 0 L472 0 L433 149 Z M400 273 L317 587 L235 273 L400 273 Z " />
<glyph glyph-name="Abreve" unicode="&#x102;" horiz-adv-x="638" d="M319 782 Q247 782 206 827 Q165 872 162 955 L240 955 Q250 881 320 881 Q391 881 401 955 L476 955 Q473 872 432 827 Q391 782 319 782 Z M433 149 L202 149 L163 0 L11 0 L238 724 L399 724 L627 0 L472 0 L433 149 Z M400 273 L317 587 L235 273 L400 273 Z " />
<glyph glyph-name="uni1EAE" unicode="&#x1eae;" horiz-adv-x="638" d="M359 903 L271 903 L271 913 L337 1040 L455 1040 L455 1030 L359 903 Z M319 758 Q248 758 207 796.5 Q166 835 162 904 L229 904 Q241 836 320 836 Q400 836 412 904 L476 904 Q472 834 431.5 796 Q391 758 319 758 Z M433 149 L202 149 L163 0 L11 0 L238 724 L399 724 L627 0 L472 0 L433 149 Z M400 273 L317 587 L235 273 L400 273 Z " />
<glyph glyph-name="uni1EB6" unicode="&#x1eb6;" horiz-adv-x="638" d="M319 782 Q247 782 206 827 Q165 872 162 955 L240 955 Q250 881 320 881 Q391 881 401 955 L476 955 Q473 872 432 827 Q391 782 319 782 Z M472 0 L433 149 L202 149 L163 0 L11 0 L238 724 L399 724 L627 0 L472 0 Z M400 273 L317 587 L235 273 L400 273 Z M320 -70 Q359 -70 380.5 -92 Q402 -114 402 -150 Q402 -189 380.5 -210.5 Q359 -232 320 -232 Q281 -232 259.5 -210 Q238 -188 238 -151 Q238 -113 259.5 -91.5 Q281 -70 320 -70 Z " />
<glyph glyph-name="uni1EB0" unicode="&#x1eb0;" horiz-adv-x="638" d="M279 903 L188 1030 L188 1040 L306 1040 L366 913 L366 903 L279 903 Z M319 758 Q248 758 207 796.5 Q166 835 162 904 L229 904 Q241 836 320 836 Q400 836 412 904 L476 904 Q472 834 431.5 796 Q391 758 319 758 Z M433 149 L202 149 L163 0 L11 0 L238 724 L399 724 L627 0 L472 0 L433 149 Z M400 273 L317 587 L235 273 L400 273 Z " />
<glyph glyph-name="uni1EB2" unicode="&#x1eb2;" horiz-adv-x="638" d="M299 981 Q278 981 252 968 L229 1020 Q276 1045 327 1045 Q369 1045 392.5 1026.5 Q416 1008 416 974 Q416 950 406 940 Q396 930 378 921 Q367 916 362 912 Q357 908 357 900 Q357 894 358 889 L280 889 Q278 899 278 904 Q278 921 284.5 930 Q291 939 303 946 Q312 952 315 956 Q318 960 318 967 Q318 981 299 981 Z M319 758 Q248 758 207 796.5 Q166 835 162 904 L229 904 Q241 836 320 836 Q400 836 412 904 L476 904 Q472 834 431.5 796 Q391 758 319 758 Z M433 149 L202 149 L163 0 L11 0 L238 724 L399 724 L627 0 L472 0 L433 149 Z M400 273 L317 587 L235 273 L400 273 Z " />
<glyph glyph-name="uni1EB4" unicode="&#x1eb4;" horiz-adv-x="638" d="M256 971 Q220 971 216 924 L155 924 Q155 982 183 1014 Q211 1046 262 1046 Q288 1046 304 1038.5 Q320 1031 338 1017 Q350 1007 359.5 1002 Q369 997 381 997 Q417 997 422 1044 L483 1044 Q483 986 455 954 Q427 922 376 922 Q349 922 333 929.5 Q317 937 300 951 Q288 961 278.5 966 Q269 971 256 971 Z M320 836 Q400 836 412 904 L476 904 Q472 834 431.5 796 Q391 758 319 758 Q248 758 207 796.5 Q166 835 162 904 L229 904 Q241 836 320 836 Z M433 149 L202 149 L163 0 L11 0 L238 724 L399 724 L627 0 L472 0 L433 149 Z M400 273 L317 587 L235 273 L400 273 Z " />
<glyph glyph-name="uni01CD" unicode="&#x1cd;" horiz-adv-x="638" d="M252 781 L141 914 L141 926 L242 926 L322 848 L400 926 L497 926 L497 914 L386 781 L252 781 Z M433 149 L202 149 L163 0 L11 0 L238 724 L399 724 L627 0 L472 0 L433 149 Z M400 273 L317 587 L235 273 L400 273 Z " />
<glyph glyph-name="Acircumflex" unicode="&#xc2;" horiz-adv-x="638" d="M238 781 L141 781 L141 793 L252 926 L386 926 L497 793 L497 781 L396 781 L316 859 L238 781 Z M433 149 L202 149 L163 0 L11 0 L238 724 L399 724 L627 0 L472 0 L433 149 Z M400 273 L317 587 L235 273 L400 273 Z " />
<glyph glyph-name="uni1EA4" unicode="&#x1ea4;" horiz-adv-x="638" d="M529 899 L441 899 L441 909 L507 1036 L625 1036 L625 1026 L529 899 Z M247 785 L157 785 L157 795 L257 934 L381 934 L481 795 L481 785 L387 785 L317 864 L247 785 Z M433 149 L202 149 L163 0 L11 0 L238 724 L399 724 L627 0 L472 0 L433 149 Z M400 273 L317 587 L235 273 L400 273 Z " />
<glyph glyph-name="uni1EAC" unicode="&#x1eac;" horiz-adv-x="638" d="M238 781 L141 781 L141 793 L252 926 L386 926 L497 793 L497 781 L396 781 L316 859 L238 781 Z M472 0 L433 149 L202 149 L163 0 L11 0 L238 724 L399 724 L627 0 L472 0 Z M400 273 L317 587 L235 273 L400 273 Z M320 -70 Q359 -70 380.5 -92 Q402 -114 402 -150 Q402 -189 380.5 -210.5 Q359 -232 320 -232 Q281 -232 259.5 -210 Q238 -188 238 -151 Q238 -113 259.5 -91.5 Q281 -70 320 -70 Z " />
<glyph glyph-name="uni1EA6" unicode="&#x1ea6;" horiz-adv-x="638" d="M108 899 L17 1026 L17 1036 L135 1036 L195 909 L195 899 L108 899 Z M157 795 L257 934 L381 934 L481 795 L481 785 L387 785 L317 864 L247 785 L157 785 L157 795 Z M433 149 L202 149 L163 0 L11 0 L238 724 L399 724 L627 0 L472 0 L433 149 Z M400 273 L317 587 L235 273 L400 273 Z " />
<glyph glyph-name="uni1EA8" unicode="&#x1ea8;" horiz-adv-x="638" d="M469 978 Q448 978 422 965 L399 1017 Q446 1042 497 1042 Q539 1042 562.5 1023.5 Q586 1005 586 971 Q586 947 576 937 Q566 927 548 918 Q537 913 532 909 Q527 905 527 897 Q527 891 528 886 L450 886 Q448 896 448 901 Q448 918 454.5 927 Q461 936 473 943 Q482 949 485 953 Q488 957 488 964 Q488 978 469 978 Z M247 785 L157 785 L157 795 L257 934 L381 934 L481 795 L481 785 L387 785 L317 864 L247 785 Z M433 149 L202 149 L163 0 L11 0 L238 724 L399 724 L627 0 L472 0 L433 149 Z M400 273 L317 587 L235 273 L400 273 Z " />
<glyph glyph-name="uni1EAA" unicode="&#x1eaa;" horiz-adv-x="638" d="M256 971 Q220 971 216 924 L155 924 Q155 982 183 1014 Q211 1046 262 1046 Q288 1046 304 1038.5 Q320 1031 338 1017 Q350 1007 359.5 1002 Q369 997 381 997 Q417 997 422 1044 L483 1044 Q483 986 455 954 Q427 922 376 922 Q349 922 333 929.5 Q317 937 300 951 Q288 961 278.5 966 Q269 971 256 971 Z M379 898 L481 774 L481 764 L392 764 L318 836 L243 764 L157 764 L157 774 L259 898 L379 898 Z M433 149 L202 149 L163 0 L11 0 L238 724 L399 724 L627 0 L472 0 L433 149 Z M400 273 L317 587 L235 273 L400 273 Z " />
<glyph glyph-name="uni0200" unicode="&#x200;" horiz-adv-x="638" d="M205 781 L92 914 L92 926 L219 926 L295 793 L295 781 L205 781 Z M376 781 L265 914 L265 926 L389 926 L463 793 L463 781 L376 781 Z M433 149 L202 149 L163 0 L11 0 L238 724 L399 724 L627 0 L472 0 L433 149 Z M400 273 L317 587 L235 273 L400 273 Z " />
<glyph glyph-name="Adieresis" unicode="&#xc4;" horiz-adv-x="638" d="M222 782 Q189 782 170 802 Q151 822 151 855 Q151 890 170 909.5 Q189 929 223 929 Q256 929 275 909 Q294 889 294 856 Q294 821 275 801.5 Q256 782 222 782 Z M415 782 Q382 782 363 802 Q344 822 344 855 Q344 890 363 909.5 Q382 929 416 929 Q449 929 468 909 Q487 889 487 856 Q487 821 468 801.5 Q449 782 415 782 Z M433 149 L202 149 L163 0 L11 0 L238 724 L399 724 L627 0 L472 0 L433 149 Z M400 273 L317 587 L235 273 L400 273 Z " />
<glyph glyph-name="uni01DE" unicode="&#x1de;" horiz-adv-x="638" d="M478 948 L160 948 L160 1039 L478 1039 L478 948 Z M225 780 Q192 780 173.5 799 Q155 818 155 851 Q155 885 173.5 903.5 Q192 922 225 922 Q258 922 276.5 903 Q295 884 295 851 Q295 817 276.5 798.5 Q258 780 225 780 Z M412 922 Q445 922 463.5 903 Q482 884 482 851 Q482 817 463.5 798.5 Q445 780 412 780 Q379 780 360.5 799 Q342 818 342 851 Q342 885 360.5 903.5 Q379 922 412 922 Z M433 149 L202 149 L163 0 L11 0 L238 724 L399 724 L627 0 L472 0 L433 149 Z M400 273 L317 587 L235 273 L400 273 Z " />
<glyph glyph-name="uni0226" unicode="&#x226;" horiz-adv-x="638" d="M319 786 Q280 786 258.5 808 Q237 830 237 867 Q237 905 258.5 926.5 Q280 948 319 948 Q358 948 379.5 926.5 Q401 905 401 868 Q401 829 379.5 807.5 Q358 786 319 786 Z M433 149 L202 149 L163 0 L11 0 L238 724 L399 724 L627 0 L472 0 L433 149 Z M400 273 L317 587 L235 273 L400 273 Z " />
<glyph glyph-name="uni1EA0" unicode="&#x1ea0;" horiz-adv-x="638" d="M433 149 L202 149 L163 0 L11 0 L238 724 L399 724 L627 0 L472 0 L433 149 Z M400 273 L317 587 L235 273 L400 273 Z M320 -232 Q281 -232 259.5 -210 Q238 -188 238 -151 Q238 -112 259.5 -90.5 Q281 -69 320 -69 Q359 -69 380.5 -91 Q402 -113 402 -150 Q402 -189 380.5 -210.5 Q359 -232 320 -232 Z " />
<glyph glyph-name="uni01E0" unicode="&#x1e0;" horiz-adv-x="638" d="M478 956 L160 956 L160 1047 L478 1047 L478 956 Z M239 856 Q239 893 260 913.5 Q281 934 319 934 Q356 934 377 913.5 Q398 893 398 857 Q398 820 377.5 799 Q357 778 319 778 Q281 778 260 799 Q239 820 239 856 Z M433 149 L202 149 L163 0 L11 0 L238 724 L399 724 L627 0 L472 0 L433 149 Z M400 273 L317 587 L235 273 L400 273 Z " />
<glyph glyph-name="Agrave" unicode="&#xc0;" horiz-adv-x="638" d="M286 781 L123 914 L123 926 L277 926 L401 793 L401 781 L286 781 Z M433 149 L202 149 L163 0 L11 0 L238 724 L399 724 L627 0 L472 0 L433 149 Z M400 273 L317 587 L235 273 L400 273 Z " />
<glyph glyph-name="uni1EA2" unicode="&#x1ea2;" horiz-adv-x="638" d="M298 886 Q275 886 235 866 L207 929 Q233 945 265 953.5 Q297 962 331 962 Q382 962 410 941.5 Q438 921 438 884 Q438 856 425 843.5 Q412 831 390 821 Q376 815 370 810.5 Q364 806 364 798 L366 781 L272 781 Q270 793 270 803 Q270 822 278.5 832 Q287 842 302 850 Q311 856 315.5 860 Q320 864 320 871 Q320 886 298 886 Z M433 149 L202 149 L163 0 L11 0 L238 724 L399 724 L627 0 L472 0 L433 149 Z M400 273 L317 587 L235 273 L400 273 Z " />
<glyph glyph-name="uni0202" unicode="&#x202;" horiz-adv-x="638" d="M318 864 Q247 864 237 790 L162 790 Q165 873 206 918 Q247 963 319 963 Q391 963 432 918 Q473 873 476 790 L398 790 Q388 864 318 864 Z M433 149 L202 149 L163 0 L11 0 L238 724 L399 724 L627 0 L472 0 L433 149 Z M400 273 L317 587 L235 273 L400 273 Z " />
<glyph glyph-name="uni2C6D" unicode="&#x2c6d;" horiz-adv-x="642" d="M575 724 L575 0 L443 0 L443 101 Q414 43 370 15.5 Q326 -12 263 -12 Q156 -12 97.5 86 Q39 184 39 362 Q39 540 97.5 638 Q156 736 262 736 Q311 736 354.5 716 Q398 696 427 661 L427 724 L575 724 Z M311 119 Q345 119 372 132.5 Q399 146 427 177 L427 550 Q403 577 371 593 Q339 609 308 609 Q191 609 191 366 Q191 119 311 119 Z " />
<glyph glyph-name="Amacron" unicode="&#x100;" horiz-adv-x="638" d="M478 807 L160 807 L160 901 L478 901 L478 807 Z M433 149 L202 149 L163 0 L11 0 L238 724 L399 724 L627 0 L472 0 L433 149 Z M400 273 L317 587 L235 273 L400 273 Z " />
<glyph glyph-name="uniA734" unicode="&#xa734;" horiz-adv-x="1019" d="M682 736 Q826 736 903 641.5 Q980 547 980 362 Q980 177 903 82.5 Q826 -12 682 -12 Q585 -12 519.5 30 Q454 72 433 148 L433 149 L202 149 L163 0 L11 0 L238 724 L399 724 L440 576 Q506 736 682 736 Z M682 117 Q828 117 828 362 Q828 607 682 607 Q538 607 538 362 Q538 117 682 117 Z M400 273 L317 587 L235 273 L400 273 Z " />
<glyph glyph-name="Aogonek" unicode="&#x104;" horiz-adv-x="638" d="M674 -201 Q623 -231 559 -231 Q501 -231 469 -204 Q437 -177 437 -127 Q437 -87 458 -54.5 Q479 -22 520 0 L472 0 L433 149 L202 149 L163 0 L11 0 L238 724 L399 724 L627 0 L626 0 Q552 -49 552 -100 Q552 -142 595 -142 Q621 -142 645 -130 L674 -201 Z M400 273 L317 587 L235 273 L400 273 Z " />
<glyph glyph-name="Aring" unicode="&#xc5;" horiz-adv-x="638" d="M319 769 Q256 769 221.5 800 Q187 831 187 888 Q187 945 221.5 976.5 Q256 1008 319 1008 Q382 1008 416.5 976.5 Q451 945 451 888 Q451 831 416.5 800 Q382 769 319 769 Z M319 944 Q272 944 272 888 Q272 833 319 833 Q367 833 367 888 Q367 944 319 944 Z M433 149 L202 149 L163 0 L11 0 L238 724 L399 724 L627 0 L472 0 L433 149 Z M400 273 L317 587 L235 273 L400 273 Z " />
<glyph glyph-name="Aringacute" unicode="&#x1fa;" horiz-adv-x="638" d="M355 909 L240 909 L240 921 L364 1046 L518 1046 L518 1034 L355 909 Z M433 149 L202 149 L163 0 L11 0 L222 672 Q187 702 187 761 Q187 818 221.5 849 Q256 880 319 880 Q381 880 415.5 849 Q450 818 450 761 Q450 702 415 672 L627 0 L472 0 L433 149 Z M319 816 Q271 816 271 761 Q271 705 319 705 Q366 705 366 761 Q366 816 319 816 Z M400 273 L317 587 L235 273 L400 273 Z " />
<glyph glyph-name="uni1E00" unicode="&#x1e00;" horiz-adv-x="638" d="M433 149 L202 149 L163 0 L11 0 L238 724 L399 724 L627 0 L472 0 L433 149 Z M400 273 L317 587 L235 273 L400 273 Z M320 -293 Q258 -293 223.5 -261.5 Q189 -230 189 -173 Q189 -116 223.5 -85 Q258 -54 320 -54 Q382 -54 416.5 -85 Q451 -116 451 -173 Q451 -230 416.5 -261.5 Q382 -293 320 -293 Z M320 -230 Q368 -230 368 -173 Q368 -117 320 -117 Q273 -117 273 -173 Q273 -230 320 -230 Z " />
<glyph glyph-name="uni023A" unicode="&#x23a;" horiz-adv-x="638" d="M433 149 L321 149 L243 -107 L162 -107 L240 149 L202 149 L163 0 L11 0 L238 724 L399 724 L408 696 L443 810 L523 810 L449 566 L627 0 L472 0 L433 149 Z M278 273 L344 486 L317 587 L235 273 L278 273 Z M400 273 L381 345 L359 273 L400 273 Z " />
<glyph glyph-name="Atilde" unicode="&#xc3;" horiz-adv-x="638" d="M253 843 Q222 843 216 787 L140 787 Q142 860 170.5 900.5 Q199 941 251 941 Q277 941 296 932 Q315 923 339 905 Q355 893 364.5 887.5 Q374 882 385 882 Q416 882 422 939 L498 939 Q496 865 467.5 825 Q439 785 387 785 Q360 785 340 794.5 Q320 804 299 821 Q284 832 274 837.5 Q264 843 253 843 Z M433 149 L202 149 L163 0 L11 0 L238 724 L399 724 L627 0 L472 0 L433 149 Z M400 273 L317 587 L235 273 L400 273 Z " />
<glyph glyph-name="uni2C6F" unicode="&#x2c6f;" horiz-adv-x="638" d="M627 724 L400 0 L239 0 L11 724 L166 724 L205 575 L436 575 L475 724 L627 724 Z M403 451 L238 451 L321 138 L403 451 Z " />
<glyph glyph-name="uniA736" unicode="&#xa736;" horiz-adv-x="995" d="M933 724 L933 242 Q933 121 863.5 54.5 Q794 -12 667 -12 Q573 -12 517.5 26.5 Q462 65 434 149 L202 149 L163 0 L11 0 L238 724 L399 724 L559 215 Q576 161 601 139 Q626 117 670 117 Q785 117 785 253 L785 724 L933 724 Z M235 273 L400 273 L317 587 L235 273 Z " />
<glyph glyph-name="uniA738" unicode="&#xa738;" horiz-adv-x="849" d="M834 724 L627 0 L472 0 L433 149 L202 149 L163 0 L11 0 L238 724 L399 724 L561 209 L681 724 L834 724 Z M400 273 L317 587 L235 273 L400 273 Z " />
<glyph glyph-name="AE" unicode="&#xc6;" horiz-adv-x="885" d="M864 129 L864 0 L427 0 L427 140 L209 140 L144 0 L-10 0 L332 724 L478 724 L850 724 L850 595 L570 595 L570 434 L771 434 L771 305 L570 305 L570 129 L864 129 Z M427 264 L427 613 L266 264 L427 264 Z " />
<glyph glyph-name="AEacute" unicode="&#x1fc;" horiz-adv-x="885" d="M517 781 L402 781 L402 793 L535 926 L689 926 L689 914 L517 781 Z M864 129 L864 0 L427 0 L427 140 L209 140 L144 0 L-10 0 L332 724 L478 724 L850 724 L850 595 L570 595 L570 434 L771 434 L771 305 L570 305 L570 129 L864 129 Z M427 264 L427 613 L266 264 L427 264 Z " />
<glyph glyph-name="uni01E2" unicode="&#x1e2;" horiz-adv-x="885" d="M644 807 L326 807 L326 901 L644 901 L644 807 Z M864 129 L864 0 L427 0 L427 140 L209 140 L144 0 L-10 0 L332 724 L478 724 L850 724 L850 595 L570 595 L570 434 L771 434 L771 305 L570 305 L570 129 L864 129 Z M427 264 L427 613 L266 264 L427 264 Z " />
<glyph glyph-name="B" unicode="B" horiz-adv-x="610" d="M445 382 Q581 342 581 215 Q581 112 520.5 56 Q460 0 350 0 L147 0 L67 0 L67 724 L213 724 L321 724 Q427 724 485 670.5 Q543 617 543 520 Q543 416 445 382 Z M213 599 L213 429 L320 429 Q396 429 396 511 Q396 599 314 599 L213 599 Z M357 125 Q432 125 432 217 Q432 310 350 310 L213 310 L213 125 L357 125 Z " />
<glyph glyph-name="uni1E02" unicode="&#x1e02;" horiz-adv-x="610" d="M298 786 Q259 786 237.5 808 Q216 830 216 867 Q216 905 237.5 926.5 Q259 948 298 948 Q337 948 358.5 926.5 Q380 905 380 868 Q380 829 358.5 807.5 Q337 786 298 786 Z M445 382 Q581 342 581 215 Q581 112 520.5 56 Q460 0 350 0 L147 0 L67 0 L67 724 L213 724 L321 724 Q427 724 485 670.5 Q543 617 543 520 Q543 416 445 382 Z M213 599 L213 429 L320 429 Q396 429 396 511 Q396 599 314 599 L213 599 Z M357 125 Q432 125 432 217 Q432 310 350 310 L213 310 L213 125 L357 125 Z " />
<glyph glyph-name="uni1E04" unicode="&#x1e04;" horiz-adv-x="610" d="M445 382 Q581 342 581 215 Q581 112 520.5 56 Q460 0 350 0 L147 0 L67 0 L67 724 L213 724 L321 724 Q427 724 485 670.5 Q543 617 543 520 Q543 416 445 382 Z M213 599 L213 429 L320 429 Q396 429 396 511 Q396 599 314 599 L213 599 Z M357 125 Q432 125 432 217 Q432 310 350 310 L213 310 L213 125 L357 125 Z M309 -232 Q270 -232 248.5 -210 Q227 -188 227 -151 Q227 -112 248.5 -90.5 Q270 -69 309 -69 Q348 -69 369.5 -91 Q391 -113 391 -150 Q391 -189 369.5 -210.5 Q348 -232 309 -232 Z " />
<glyph glyph-name="uni0181" unicode="&#x181;" horiz-adv-x="688" d="M523 382 Q659 342 659 215 Q659 112 599 56 Q539 0 429 0 L226 0 L146 0 L146 595 Q120 595 108 579.5 Q96 564 96 529 Q96 514 99 482 L-29 482 Q-33 505 -33 531 Q-33 626 12.5 675 Q58 724 146 724 L291 724 L399 724 Q505 724 563 671 Q621 618 621 520 Q621 416 523 382 Z M291 599 L291 429 L399 429 Q474 429 474 511 Q474 599 393 599 L291 599 Z M436 125 Q510 125 510 217 Q510 310 429 310 L291 310 L291 125 L436 125 Z " />
<glyph glyph-name="uni1E06" unicode="&#x1e06;" horiz-adv-x="610" d="M445 382 Q581 342 581 215 Q581 112 520.5 56 Q460 0 350 0 L147 0 L67 0 L67 724 L213 724 L321 724 Q427 724 485 670.5 Q543 617 543 520 Q543 416 445 382 Z M213 599 L213 429 L320 429 Q396 429 396 511 Q396 599 314 599 L213 599 Z M357 125 Q432 125 432 217 Q432 310 350 310 L213 310 L213 125 L357 125 Z M154 -97 L472 -97 L472 -191 L154 -191 L154 -97 Z " />
<glyph glyph-name="uni0243" unicode="&#x243;" horiz-adv-x="614" d="M449 382 Q517 362 550.5 320.5 Q584 279 584 215 Q584 112 524 56 Q464 0 354 0 L151 0 L71 0 L71 172 L13 172 L13 265 L71 265 L71 724 L216 724 L325 724 Q431 724 488.5 671 Q546 618 546 520 Q546 467 522 433 Q498 399 449 382 Z M216 599 L216 429 L324 429 Q399 429 399 511 Q399 599 318 599 L216 599 Z M361 125 Q435 125 435 217 Q435 310 354 310 L216 310 L216 262 L318 262 L318 174 L216 174 L216 125 L361 125 Z " />
<glyph glyph-name="uni0182" unicode="&#x182;" horiz-adv-x="590" d="M318 482 Q438 482 499.5 422.5 Q561 363 561 245 Q561 124 499.5 62 Q438 0 320 0 L67 0 L67 724 L215 724 L507 724 L507 617 L215 617 L215 482 L318 482 Z M316 128 Q410 128 410 245 Q410 360 321 360 L215 360 L215 128 L316 128 Z " />
<glyph glyph-name="C" unicode="C" horiz-adv-x="564" d="M350 -11 Q198 -11 114 82.5 Q30 176 30 347 Q30 466 68 553.5 Q106 641 177 688.5 Q248 736 345 736 Q398 736 449 721 Q500 706 539 678 L494 567 Q411 606 347 606 Q268 606 225.5 541 Q183 476 183 358 Q183 122 360 122 Q432 122 500 156 L545 47 Q514 19 463 4 Q412 -11 350 -11 Z " />
<glyph glyph-name="Cacute" unicode="&#x106;" horiz-adv-x="564" d="M248 793 L381 926 L535 926 L535 914 L363 781 L248 781 L248 793 Z M350 -11 Q198 -11 114 82.5 Q30 176 30 347 Q30 466 68 553.5 Q106 641 177 688.5 Q248 736 345 736 Q398 736 449 721 Q500 706 539 678 L494 567 Q411 606 347 606 Q268 606 225.5 541 Q183 476 183 358 Q183 122 360 122 Q432 122 500 156 L545 47 Q514 19 463 4 Q412 -11 350 -11 Z " />
<glyph glyph-name="uniA792" unicode="&#xa792;" horiz-adv-x="567" d="M549 47 Q518 19 466.5 4 Q415 -11 353 -11 Q209 -11 126.5 73 Q44 157 35 311 L-27 311 L-27 418 L38 418 Q54 566 136 651 Q218 736 348 736 Q401 736 452 721 Q503 706 543 678 L498 567 Q414 606 350 606 Q283 606 241.5 557 Q200 508 189 418 L330 418 L330 311 L188 311 Q205 122 363 122 Q435 122 503 156 L549 47 Z " />
<glyph glyph-name="Ccaron" unicode="&#x10c;" horiz-adv-x="564" d="M264 781 L153 914 L153 926 L254 926 L334 848 L412 926 L509 926 L509 914 L398 781 L264 781 Z M545 47 Q514 19 463 4 Q412 -11 350 -11 Q198 -11 114 82.5 Q30 176 30 347 Q30 466 68 553.5 Q106 641 177 688.5 Q248 736 345 736 Q398 736 449 721 Q500 706 539 678 L494 567 Q411 606 347 606 Q268 606 225.5 541 Q183 476 183 358 Q183 122 360 122 Q432 122 500 156 L545 47 Z " />
<glyph glyph-name="Ccedilla" unicode="&#xc7;" horiz-adv-x="564" d="M351 -50 Q403 -50 431 -72.5 Q459 -95 459 -136 Q459 -186 423.5 -213.5 Q388 -241 324 -241 Q261 -241 206 -216 L225 -156 Q276 -172 306 -172 Q352 -172 352 -138 Q352 -107 312 -107 Q292 -107 275 -113 L247 -82 L276 -5 Q158 17 94 107.5 Q30 198 30 347 Q30 466 68 553.5 Q106 641 177 688.5 Q248 736 345 736 Q398 736 449 721 Q500 706 539 678 L494 567 Q411 606 347 606 Q268 606 225.5 541 Q183 476 183 358 Q183 122 360 122 Q432 122 500 156 L545 47 Q515 20 465.5 5 Q416 -10 357 -11 L327 -53 Q339 -50 351 -50 Z " />
<glyph glyph-name="uni1E08" unicode="&#x1e08;" horiz-adv-x="564" d="M363 781 L248 781 L248 793 L381 926 L535 926 L535 914 L363 781 Z M351 -50 Q403 -50 431 -72.5 Q459 -95 459 -136 Q459 -186 423.5 -213.5 Q388 -241 324 -241 Q261 -241 206 -216 L225 -156 Q276 -172 306 -172 Q352 -172 352 -138 Q352 -107 312 -107 Q292 -107 275 -113 L247 -82 L276 -5 Q158 17 94 107.5 Q30 198 30 347 Q30 466 68 553.5 Q106 641 177 688.5 Q248 736 345 736 Q398 736 449 721 Q500 706 539 678 L494 567 Q411 606 347 606 Q268 606 225.5 541 Q183 476 183 358 Q183 122 360 122 Q432 122 500 156 L545 47 Q515 20 465.5 5 Q416 -10 357 -11 L327 -53 Q339 -50 351 -50 Z " />
<glyph glyph-name="Ccircumflex" unicode="&#x108;" horiz-adv-x="564" d="M250 781 L153 781 L153 793 L264 926 L398 926 L509 793 L509 781 L408 781 L328 859 L250 781 Z M545 47 Q514 19 463 4 Q412 -11 350 -11 Q198 -11 114 82.5 Q30 176 30 347 Q30 466 68 553.5 Q106 641 177 688.5 Q248 736 345 736 Q398 736 449 721 Q500 706 539 678 L494 567 Q411 606 347 606 Q268 606 225.5 541 Q183 476 183 358 Q183 122 360 122 Q432 122 500 156 L545 47 Z " />
<glyph glyph-name="Cdotaccent" unicode="&#x10a;" horiz-adv-x="564" d="M331 786 Q292 786 270.5 808 Q249 830 249 867 Q249 905 270.5 926.5 Q292 948 331 948 Q370 948 391.5 926.5 Q413 905 413 868 Q413 829 391.5 807.5 Q370 786 331 786 Z M350 -11 Q198 -11 114 82.5 Q30 176 30 347 Q30 466 68 553.5 Q106 641 177 688.5 Q248 736 345 736 Q398 736 449 721 Q500 706 539 678 L494 567 Q411 606 347 606 Q268 606 225.5 541 Q183 476 183 358 Q183 122 360 122 Q432 122 500 156 L545 47 Q514 19 463 4 Q412 -11 350 -11 Z " />
<glyph glyph-name="uni0187" unicode="&#x187;" horiz-adv-x="660" d="M612 863 Q638 863 661 859 L661 742 Q630 745 614 745 Q575 745 557 730.5 Q539 716 539 684 L539 662 L539 567 L494 567 Q411 606 347 606 Q268 606 225.5 541 Q183 476 183 358 Q183 122 360 122 Q432 122 500 156 L545 47 Q514 19 463 4 Q412 -11 350 -11 Q198 -11 114 82.5 Q30 176 30 347 Q30 466 68 553.5 Q106 641 177 688.5 Q248 736 345 736 Q382 736 422 728 Q434 794 482.5 828.5 Q531 863 612 863 Z " />
<glyph glyph-name="uniA76E" unicode="&#xa76e;" horiz-adv-x="538" d="M90 99 Q156 114 194 128.5 Q232 143 259 161 Q293 183 312 214 Q331 245 339 294 Q347 343 347 423 Q347 516 324.5 561.5 Q302 607 254 607 Q167 607 167 497 Q167 386 257 386 Q273 386 291 389 L291 262 Q266 259 240 259 Q133 259 74 320.5 Q15 382 15 494 Q15 609 78 672.5 Q141 736 256 736 Q379 736 439 659 Q499 582 499 425 Q499 288 466.5 208.5 Q434 129 355 75 Q260 9 113 -12 L90 99 Z " />
<glyph glyph-name="uniA73E" unicode="&#xa73e;" horiz-adv-x="564" d="M214 -11 Q152 -11 101 4 Q50 19 19 47 L64 156 Q132 122 204 122 Q381 122 381 358 Q381 476 338.5 541 Q296 606 217 606 Q153 606 70 567 L25 678 Q64 706 115 721 Q166 736 219 736 Q316 736 387 688.5 Q458 641 496 553.5 Q534 466 534 347 Q534 176 450 82.5 Q366 -11 214 -11 Z M202 295 Q163 295 141.5 317 Q120 339 120 376 Q120 414 141.5 435.5 Q163 457 202 457 Q241 457 262.5 435.5 Q284 414 284 377 Q284 338 262.5 316.5 Q241 295 202 295 Z " />
<glyph glyph-name="uni023B" unicode="&#x23b;" horiz-adv-x="564" d="M545 47 Q514 19 463 4 Q412 -11 350 -11 Q279 -11 223 10 L185 -107 L104 -107 L154 46 Q93 91 61.5 167 Q30 243 30 347 Q30 466 68 553.5 Q106 641 177 688.5 Q248 736 345 736 Q356 736 380 734 L404 810 L485 810 L455 719 Q503 704 539 678 L494 567 Q449 588 415 596 L267 144 Q304 122 360 122 Q432 122 500 156 L545 47 Z M183 358 Q183 266 208 212 L337 605 Q264 601 223.5 536.5 Q183 472 183 358 Z " />
<glyph glyph-name="uniA72C" unicode="&#xa72c;" horiz-adv-x="551" d="M524 181 L450 181 L450 138 Q450 -12 296 -12 Q249 -12 213 4 L232 116 Q251 112 273 112 Q288 112 295 119.5 Q302 127 302 150 L302 181 L11 181 L11 304 L241 724 L450 724 L450 304 L524 304 L524 181 Z M302 304 L302 594 L157 304 L302 304 Z " />
<glyph glyph-name="uniA72E" unicode="&#xa72e;" horiz-adv-x="687" d="M524 181 L450 181 L450 138 Q450 -12 296 -12 Q249 -12 213 4 L232 116 Q251 112 273 112 Q288 112 295 119.5 Q302 127 302 150 L302 181 L11 181 L11 304 L241 724 L450 724 L450 304 L524 304 L524 181 Z M302 304 L302 594 L157 304 L302 304 Z M441 -127 Q478 -85 493 -43.5 Q508 -2 508 57 Q508 95 502 140 L639 140 Q645 98 645 59 Q645 -14 610.5 -72.5 Q576 -131 498 -189 L441 -127 Z " />
<glyph glyph-name="D" unicode="D" horiz-adv-x="652" d="M297 724 Q450 724 531.5 633 Q613 542 613 363 Q613 183 532 91.5 Q451 0 298 0 L67 0 L67 724 L297 724 Z M295 129 Q461 129 461 363 Q461 595 298 595 L215 595 L215 129 L295 129 Z " />
<glyph glyph-name="uni01F1" unicode="&#x1f1;" horiz-adv-x="1164" d="M297 724 Q450 724 531.5 633 Q613 542 613 363 Q613 183 532 91.5 Q451 0 298 0 L67 0 L67 724 L297 724 Z M295 129 Q461 129 461 363 Q461 595 298 595 L215 595 L215 129 L295 129 Z M1137 126 L1137 0 L668 0 L668 127 L964 598 L680 598 L680 724 L1131 724 L1131 598 L835 126 L1137 126 Z " />
<glyph glyph-name="uni01C4" unicode="&#x1c4;" horiz-adv-x="1164" d="M836 781 L725 914 L725 926 L826 926 L906 848 L984 926 L1081 926 L1081 914 L970 781 L836 781 Z M297 724 Q450 724 531.5 633 Q613 542 613 363 Q613 183 532 91.5 Q451 0 298 0 L67 0 L67 724 L297 724 Z M1137 126 L1137 0 L668 0 L668 127 L965 598 L680 598 L680 724 L1131 724 L1131 598 L835 126 L1137 126 Z M295 129 Q461 129 461 363 Q461 595 298 595 L215 595 L215 129 L295 129 Z " />
<glyph glyph-name="uni0189" unicode="&#x189;" horiz-adv-x="656" d="M301 724 Q454 724 535.5 633 Q617 542 617 363 Q617 183 536 91.5 Q455 0 302 0 L71 0 L71 313 L12 313 L12 419 L71 419 L71 724 L301 724 Z M299 129 Q465 129 465 363 Q465 595 302 595 L219 595 L219 419 L354 419 L354 313 L219 313 L219 129 L299 129 Z " />
<glyph glyph-name="Eth" unicode="&#xd0;" horiz-adv-x="656" d="M301 724 Q454 724 535.5 633 Q617 542 617 363 Q617 183 536 91.5 Q455 0 302 0 L71 0 L71 313 L12 313 L12 419 L71 419 L71 724 L301 724 Z M299 129 Q382 129 423 187 Q464 245 464 363 Q464 595 301 595 L219 595 L219 419 L354 419 L354 313 L219 313 L219 129 L299 129 Z " />
<glyph glyph-name="Dcaron" unicode="&#x10e;" horiz-adv-x="652" d="M253 781 L142 914 L142 926 L243 926 L323 848 L401 926 L498 926 L498 914 L387 781 L253 781 Z M297 724 Q450 724 531.5 633 Q613 542 613 363 Q613 183 532 91.5 Q451 0 298 0 L67 0 L67 724 L297 724 Z M295 129 Q461 129 461 363 Q461 595 298 595 L215 595 L215 129 L295 129 Z " />
<glyph glyph-name="uni1E10" unicode="&#x1e10;" horiz-adv-x="652" d="M297 724 Q450 724 531.5 633 Q613 542 613 363 Q613 183 532 91.5 Q451 0 298 0 L67 0 L67 724 L297 724 Z M295 129 Q461 129 461 363 Q461 595 298 595 L215 595 L215 129 L295 129 Z M212 -239 Q235 -212 244.5 -184.5 Q254 -157 254 -116 Q254 -90 250 -62 L375 -62 Q380 -85 380 -115 Q380 -164 352.5 -206.5 Q325 -249 264 -293 L212 -239 Z " />
<glyph glyph-name="uni1E12" unicode="&#x1e12;" horiz-adv-x="652" d="M297 724 Q450 724 531.5 633 Q613 542 613 363 Q613 183 532 91.5 Q451 0 298 0 L67 0 L67 724 L297 724 Z M295 129 Q461 129 461 363 Q461 595 298 595 L215 595 L215 129 L295 129 Z M493 -217 L493 -229 L392 -229 L312 -151 L234 -229 L137 -229 L137 -217 L248 -84 L382 -84 L493 -217 Z " />
<glyph glyph-name="Dcroat" unicode="&#x110;" horiz-adv-x="656" d="M301 724 Q454 724 535.5 633 Q617 542 617 363 Q617 183 536 91.5 Q455 0 302 0 L71 0 L71 313 L12 313 L12 419 L71 419 L71 724 L301 724 Z M299 129 Q465 129 465 363 Q465 595 302 595 L219 595 L219 419 L354 419 L354 313 L219 313 L219 129 L299 129 Z " />
<glyph glyph-name="uni1E0A" unicode="&#x1e0a;" horiz-adv-x="652" d="M320 786 Q281 786 259.5 808 Q238 830 238 867 Q238 905 259.5 926.5 Q281 948 320 948 Q359 948 380.5 926.5 Q402 905 402 868 Q402 829 380.5 807.5 Q359 786 320 786 Z M297 724 Q450 724 531.5 633 Q613 542 613 363 Q613 183 532 91.5 Q451 0 298 0 L67 0 L67 724 L297 724 Z M295 129 Q461 129 461 363 Q461 595 298 595 L215 595 L215 129 L295 129 Z " />
<glyph glyph-name="uni1E0C" unicode="&#x1e0c;" horiz-adv-x="652" d="M297 724 Q450 724 531.5 633 Q613 542 613 363 Q613 183 532 91.5 Q451 0 298 0 L67 0 L67 724 L297 724 Z M295 129 Q461 129 461 363 Q461 595 298 595 L215 595 L215 129 L295 129 Z M315 -232 Q276 -232 254.5 -210 Q233 -188 233 -151 Q233 -112 254.5 -90.5 Q276 -69 315 -69 Q354 -69 375.5 -91 Q397 -113 397 -150 Q397 -189 375.5 -210.5 Q354 -232 315 -232 Z " />
<glyph glyph-name="uni018A" unicode="&#x18a;" horiz-adv-x="730" d="M376 724 Q529 724 610 633 Q691 542 691 363 Q691 183 610 91.5 Q529 0 377 0 L146 0 L146 595 Q120 595 108 579.5 Q96 564 96 529 Q96 514 99 482 L-29 482 Q-33 505 -33 531 Q-33 626 12.5 675 Q58 724 146 724 L376 724 Z M374 129 Q457 129 498 187 Q539 245 539 363 Q539 595 376 595 L294 595 L294 129 L374 129 Z " />
<glyph glyph-name="uniA779" unicode="&#xa779;" horiz-adv-x="682" d="M348 724 Q643 724 643 356 Q643 172 568.5 80 Q494 -12 348 -12 Q202 -12 128 80 Q54 172 54 356 Q54 507 136 607 L32 607 L32 724 L348 724 Z M348 117 Q491 117 491 356 Q491 603 339 603 L279 603 Q206 521 206 356 Q206 117 348 117 Z " />
<glyph glyph-name="uni1E0E" unicode="&#x1e0e;" horiz-adv-x="652" d="M297 724 Q450 724 531.5 633 Q613 542 613 363 Q613 183 532 91.5 Q451 0 298 0 L67 0 L67 724 L297 724 Z M295 129 Q461 129 461 363 Q461 595 298 595 L215 595 L215 129 L295 129 Z M161 -97 L479 -97 L479 -191 L161 -191 L161 -97 Z " />
<glyph glyph-name="uni018B" unicode="&#x18b;" horiz-adv-x="590" d="M523 0 L270 0 Q152 0 90.5 62 Q29 124 29 245 Q29 363 90.5 422.5 Q152 482 272 482 L375 482 L375 617 L83 617 L83 724 L523 724 L523 0 Z M375 360 L269 360 Q180 360 180 245 Q180 128 274 128 L375 128 L375 360 Z " />
<glyph glyph-name="uni01F2" unicode="&#x1f2;" horiz-adv-x="1082" d="M297 724 Q450 724 531.5 633 Q613 542 613 363 Q613 183 532 91.5 Q451 0 298 0 L67 0 L67 724 L297 724 Z M295 129 Q461 129 461 363 Q461 595 298 595 L215 595 L215 129 L295 129 Z M1060 118 L1060 0 L661 0 L661 118 L895 430 L671 430 L671 549 L1054 549 L1054 430 L820 118 L1060 118 Z " />
<glyph glyph-name="uni01C5" unicode="&#x1c5;" horiz-adv-x="1082" d="M297 724 Q450 724 531.5 633 Q613 542 613 363 Q613 183 532 91.5 Q451 0 298 0 L67 0 L67 724 L297 724 Z M295 129 Q461 129 461 363 Q461 595 298 595 L215 595 L215 129 L295 129 Z M1060 118 L1060 0 L661 0 L661 118 L895 430 L671 430 L671 549 L1054 549 L1054 430 L820 118 L1060 118 Z M1019 784 L1019 774 L921 615 L797 615 L699 774 L699 784 L793 784 L860 694 L928 784 L1019 784 Z " />
<glyph glyph-name="E" unicode="E" horiz-adv-x="543" d="M522 129 L522 0 L67 0 L67 724 L507 724 L507 595 L215 595 L215 434 L428 434 L428 305 L215 305 L215 129 L522 129 Z " />
<glyph glyph-name="Eacute" unicode="&#xc9;" horiz-adv-x="543" d="M320 781 L205 781 L205 793 L338 926 L492 926 L492 914 L320 781 Z M522 129 L522 0 L67 0 L67 724 L507 724 L507 595 L215 595 L215 434 L428 434 L428 305 L215 305 L215 129 L522 129 Z " />
<glyph glyph-name="Ebreve" unicode="&#x114;" horiz-adv-x="543" d="M288 782 Q216 782 175 827 Q134 872 131 955 L209 955 Q219 881 289 881 Q360 881 370 955 L445 955 Q442 872 401 827 Q360 782 288 782 Z M522 129 L522 0 L67 0 L67 724 L507 724 L507 595 L215 595 L215 434 L428 434 L428 305 L215 305 L215 129 L522 129 Z " />
<glyph glyph-name="Ecaron" unicode="&#x11a;" horiz-adv-x="543" d="M221 781 L110 914 L110 926 L211 926 L291 848 L369 926 L466 926 L466 914 L355 781 L221 781 Z M522 129 L522 0 L67 0 L67 724 L507 724 L507 595 L215 595 L215 434 L428 434 L428 305 L215 305 L215 129 L522 129 Z " />
<glyph glyph-name="uni0228" unicode="&#x228;" horiz-adv-x="543" d="M332 0 L294 -53 Q306 -50 318 -50 Q370 -50 398 -72.5 Q426 -95 426 -136 Q426 -186 390.5 -213.5 Q355 -241 291 -241 Q228 -241 173 -216 L192 -156 Q243 -172 273 -172 Q319 -172 319 -138 Q319 -107 279 -107 Q259 -107 242 -113 L214 -82 L245 0 L67 0 L67 724 L507 724 L507 595 L215 595 L215 434 L428 434 L428 305 L215 305 L215 129 L522 129 L522 0 L332 0 Z " />
<glyph glyph-name="uni1E1C" unicode="&#x1e1c;" horiz-adv-x="543" d="M288 782 Q216 782 175 827 Q134 872 131 955 L209 955 Q219 881 289 881 Q360 881 370 955 L445 955 Q442 872 401 827 Q360 782 288 782 Z M332 0 L294 -53 Q306 -50 318 -50 Q370 -50 398 -72.5 Q426 -95 426 -136 Q426 -186 390.5 -213.5 Q355 -241 291 -241 Q228 -241 173 -216 L192 -156 Q243 -172 273 -172 Q319 -172 319 -138 Q319 -107 279 -107 Q259 -107 242 -113 L214 -82 L245 0 L67 0 L67 724 L507 724 L507 595 L215 595 L215 434 L428 434 L428 305 L215 305 L215 129 L522 129 L522 0 L332 0 Z " />
<glyph glyph-name="Ecircumflex" unicode="&#xca;" horiz-adv-x="543" d="M207 781 L110 781 L110 793 L221 926 L355 926 L466 793 L466 781 L365 781 L285 859 L207 781 Z M522 129 L522 0 L67 0 L67 724 L507 724 L507 595 L215 595 L215 434 L428 434 L428 305 L215 305 L215 129 L522 129 Z " />
<glyph glyph-name="uni1EBE" unicode="&#x1ebe;" horiz-adv-x="543" d="M594 1036 L594 1026 L498 899 L410 899 L410 909 L476 1036 L594 1036 Z M216 785 L126 785 L126 795 L226 934 L350 934 L450 795 L450 785 L356 785 L286 864 L216 785 Z M215 129 L522 129 L522 0 L67 0 L67 724 L507 724 L507 595 L215 595 L215 434 L428 434 L428 305 L215 305 L215 129 Z " />
<glyph glyph-name="uni1E18" unicode="&#x1e18;" horiz-adv-x="543" d="M522 129 L522 0 L67 0 L67 724 L507 724 L507 595 L215 595 L215 434 L428 434 L428 305 L215 305 L215 129 L522 129 Z M475 -217 L475 -229 L374 -229 L294 -151 L216 -229 L119 -229 L119 -217 L230 -84 L364 -84 L475 -217 Z " />
<glyph glyph-name="uni1EC6" unicode="&#x1ec6;" horiz-adv-x="543" d="M207 781 L110 781 L110 793 L221 926 L355 926 L466 793 L466 781 L365 781 L285 859 L207 781 Z M522 129 L522 0 L67 0 L67 724 L507 724 L507 595 L215 595 L215 434 L428 434 L428 305 L215 305 L215 129 L522 129 Z M297 -69 Q336 -69 357.5 -91 Q379 -113 379 -150 Q379 -189 357.5 -210.5 Q336 -232 297 -232 Q258 -232 236.5 -210 Q215 -188 215 -151 Q215 -112 236.5 -90.5 Q258 -69 297 -69 Z " />
<glyph glyph-name="uni1EC0" unicode="&#x1ec0;" horiz-adv-x="543" d="M78 899 L-13 1026 L-13 1036 L105 1036 L165 909 L165 899 L78 899 Z M126 795 L226 934 L350 934 L450 795 L450 785 L356 785 L286 864 L216 785 L126 785 L126 795 Z M522 129 L522 0 L67 0 L67 724 L507 724 L507 595 L215 595 L215 434 L428 434 L428 305 L215 305 L215 129 L522 129 Z " />
<glyph glyph-name="uni1EC2" unicode="&#x1ec2;" horiz-adv-x="543" d="M466 1042 Q508 1042 531.5 1023.5 Q555 1005 555 971 Q555 947 545 937 Q535 927 517 918 Q506 913 501 909 Q496 905 496 897 Q496 891 497 886 L419 886 Q417 896 417 901 Q417 918 423.5 927 Q430 936 442 943 Q451 949 454 953 Q457 957 457 964 Q457 978 438 978 Q417 978 391 965 L368 1017 Q415 1042 466 1042 Z M216 785 L126 785 L126 795 L226 934 L350 934 L450 795 L450 785 L356 785 L286 864 L216 785 Z M215 129 L522 129 L522 0 L67 0 L67 724 L507 724 L507 595 L215 595 L215 434 L428 434 L428 305 L215 305 L215 129 Z " />
<glyph glyph-name="uni1EC4" unicode="&#x1ec4;" horiz-adv-x="543" d="M225 971 Q189 971 185 924 L124 924 Q124 982 152 1014 Q180 1046 231 1046 Q257 1046 273 1038.5 Q289 1031 307 1017 Q319 1007 328.5 1002 Q338 997 350 997 Q386 997 391 1044 L452 1044 Q452 986 424 954 Q396 922 345 922 Q318 922 302 929.5 Q286 937 269 951 Q257 961 247.5 966 Q238 971 225 971 Z M348 898 L450 774 L450 764 L361 764 L287 836 L212 764 L126 764 L126 774 L228 898 L348 898 Z M522 129 L522 0 L67 0 L67 724 L507 724 L507 595 L215 595 L215 434 L428 434 L428 305 L215 305 L215 129 L522 129 Z " />
<glyph glyph-name="uni0204" unicode="&#x204;" horiz-adv-x="543" d="M174 781 L61 914 L61 926 L188 926 L264 793 L264 781 L174 781 Z M345 781 L234 914 L234 926 L358 926 L432 793 L432 781 L345 781 Z M522 129 L522 0 L67 0 L67 724 L507 724 L507 595 L215 595 L215 434 L428 434 L428 305 L215 305 L215 129 L522 129 Z " />
<glyph glyph-name="Edieresis" unicode="&#xcb;" horiz-adv-x="543" d="M191 782 Q158 782 139 802 Q120 822 120 855 Q120 890 139 909.5 Q158 929 192 929 Q225 929 244 909 Q263 889 263 856 Q263 821 244 801.5 Q225 782 191 782 Z M384 782 Q351 782 332 802 Q313 822 313 855 Q313 890 332 909.5 Q351 929 385 929 Q418 929 437 909 Q456 889 456 856 Q456 821 437 801.5 Q418 782 384 782 Z M522 129 L522 0 L67 0 L67 724 L507 724 L507 595 L215 595 L215 434 L428 434 L428 305 L215 305 L215 129 L522 129 Z " />
<glyph glyph-name="Edotaccent" unicode="&#x116;" horiz-adv-x="543" d="M288 786 Q249 786 227.5 808 Q206 830 206 867 Q206 905 227.5 926.5 Q249 948 288 948 Q327 948 348.5 926.5 Q370 905 370 868 Q370 829 348.5 807.5 Q327 786 288 786 Z M522 129 L522 0 L67 0 L67 724 L507 724 L507 595 L215 595 L215 434 L428 434 L428 305 L215 305 L215 129 L522 129 Z " />
<glyph glyph-name="uni1EB8" unicode="&#x1eb8;" horiz-adv-x="543" d="M522 129 L522 0 L67 0 L67 724 L507 724 L507 595 L215 595 L215 434 L428 434 L428 305 L215 305 L215 129 L522 129 Z M297 -232 Q258 -232 236.5 -210 Q215 -188 215 -151 Q215 -112 236.5 -90.5 Q258 -69 297 -69 Q336 -69 357.5 -91 Q379 -113 379 -150 Q379 -189 357.5 -210.5 Q336 -232 297 -232 Z " />
<glyph glyph-name="Egrave" unicode="&#xc8;" horiz-adv-x="543" d="M255 781 L92 914 L92 926 L246 926 L370 793 L370 781 L255 781 Z M522 129 L522 0 L67 0 L67 724 L507 724 L507 595 L215 595 L215 434 L428 434 L428 305 L215 305 L215 129 L522 129 Z " />
<glyph glyph-name="uni1EBA" unicode="&#x1eba;" horiz-adv-x="543" d="M267 886 Q244 886 204 866 L176 929 Q202 945 234 953.5 Q266 962 300 962 Q351 962 379 941.5 Q407 921 407 884 Q407 856 394 843.5 Q381 831 359 821 Q345 815 339 810.5 Q333 806 333 798 L335 781 L241 781 Q239 793 239 803 Q239 822 247.5 832 Q256 842 271 850 Q280 856 284.5 860 Q289 864 289 871 Q289 886 267 886 Z M522 129 L522 0 L67 0 L67 724 L507 724 L507 595 L215 595 L215 434 L428 434 L428 305 L215 305 L215 129 L522 129 Z " />
<glyph glyph-name="uni0206" unicode="&#x206;" horiz-adv-x="543" d="M287 864 Q216 864 206 790 L131 790 Q134 873 175 918 Q216 963 288 963 Q360 963 401 918 Q442 873 445 790 L367 790 Q357 864 287 864 Z M522 129 L522 0 L67 0 L67 724 L507 724 L507 595 L215 595 L215 434 L428 434 L428 305 L215 305 L215 129 L522 129 Z " />
<glyph glyph-name="Emacron" unicode="&#x112;" horiz-adv-x="543" d="M447 807 L129 807 L129 901 L447 901 L447 807 Z M522 129 L522 0 L67 0 L67 724 L507 724 L507 595 L215 595 L215 434 L428 434 L428 305 L215 305 L215 129 L522 129 Z " />
<glyph glyph-name="uni1E16" unicode="&#x1e16;" horiz-adv-x="543" d="M325 910 L237 910 L237 920 L303 1047 L421 1047 L421 1037 L325 910 Z M453 785 L135 785 L135 879 L453 879 L453 785 Z M522 129 L522 0 L67 0 L67 724 L507 724 L507 595 L215 595 L215 434 L428 434 L428 305 L215 305 L215 129 L522 129 Z " />
<glyph glyph-name="uni1E14" unicode="&#x1e14;" horiz-adv-x="543" d="M245 910 L154 1037 L154 1047 L272 1047 L332 920 L332 910 L245 910 Z M453 785 L135 785 L135 879 L453 879 L453 785 Z M522 129 L522 0 L67 0 L67 724 L507 724 L507 595 L215 595 L215 434 L428 434 L428 305 L215 305 L215 129 L522 129 Z " />
<glyph glyph-name="Eogonek" unicode="&#x118;" horiz-adv-x="543" d="M569 -201 Q518 -231 454 -231 Q396 -231 364 -204 Q332 -177 332 -127 Q332 -87 353 -54.5 Q374 -22 415 0 L67 0 L67 724 L507 724 L507 595 L215 595 L215 434 L428 434 L428 305 L215 305 L215 129 L522 129 L522 0 L521 0 Q447 -49 447 -100 Q447 -142 490 -142 Q516 -142 540 -130 L569 -201 Z " />
<glyph glyph-name="uni0190" unicode="&#x190;" horiz-adv-x="546" d="M541 47 Q494 18 431 3 Q368 -12 299 -12 Q173 -12 96.5 45 Q20 102 20 212 Q20 345 155 385 Q46 433 46 544 Q46 638 113 687 Q180 736 297 736 Q416 736 516 683 L471 572 Q391 612 311 612 Q256 612 226.5 589 Q197 566 197 520 Q197 480 223 456.5 Q249 433 300 433 L418 433 L418 314 L292 314 Q234 314 203 293 Q172 272 172 222 Q172 170 207.5 143 Q243 116 311 116 Q354 116 402 127.5 Q450 139 492 159 L541 47 Z " />
<glyph glyph-name="uni018E" unicode="&#x18e;" horiz-adv-x="543" d="M476 724 L476 0 L21 0 L21 129 L328 129 L328 305 L115 305 L115 434 L328 434 L328 595 L36 595 L36 724 L476 724 Z " />
<glyph glyph-name="uniA7AB" unicode="&#xa7ab;" horiz-adv-x="546" d="M391 339 Q500 293 500 180 Q500 86 433 37 Q366 -12 249 -12 Q130 -12 30 41 L75 152 Q155 112 235 112 Q290 112 319.5 135 Q349 158 349 204 Q349 244 323 267.5 Q297 291 246 291 L128 291 L128 410 L254 410 Q312 410 343 431 Q374 452 374 502 Q374 554 338.5 581 Q303 608 235 608 Q192 608 144 596.5 Q96 585 54 565 L5 677 Q52 706 115 721 Q178 736 247 736 Q373 736 449.5 679 Q526 622 526 512 Q526 379 391 339 Z " />
<glyph glyph-name="uni01A9" unicode="&#x1a9;" horiz-adv-x="557" d="M36 126 L221 367 L36 598 L36 724 L531 724 L531 598 L216 598 L405 367 L216 126 L531 126 L531 0 L36 0 L36 126 Z " />
<glyph glyph-name="uni0246" unicode="&#x246;" horiz-adv-x="543" d="M522 0 L267 0 L243 -107 L162 -107 L186 0 L67 0 L67 724 L350 724 L370 810 L450 810 L431 724 L507 724 L507 595 L402 595 L365 434 L428 434 L428 305 L336 305 L296 129 L522 129 L522 0 Z M321 595 L215 595 L215 434 L285 434 L321 595 Z M255 305 L215 305 L215 129 L255 305 Z " />
<glyph glyph-name="uniA76A" unicode="&#xa76a;" horiz-adv-x="499" d="M346 388 Q411 366 445 320.5 Q479 275 479 211 Q479 111 407.5 55.5 Q336 0 205 0 L11 0 L11 129 L196 129 Q328 129 328 225 Q328 317 207 317 L84 317 L84 436 L190 436 Q289 436 289 525 Q289 569 266.5 590.5 Q244 612 198 612 Q161 612 125.5 602 Q90 592 48 572 L5 685 Q107 736 217 736 Q323 736 381.5 687 Q440 638 440 549 Q440 496 416 455 Q392 414 346 388 Z " />
<glyph glyph-name="uni1EBC" unicode="&#x1ebc;" horiz-adv-x="543" d="M222 843 Q191 843 185 787 L109 787 Q111 860 139.5 900.5 Q168 941 220 941 Q246 941 265 932 Q284 923 308 905 Q324 893 333.5 887.5 Q343 882 354 882 Q385 882 391 939 L467 939 Q465 865 436.5 825 Q408 785 356 785 Q329 785 309 794.5 Q289 804 268 821 Q253 832 243 837.5 Q233 843 222 843 Z M522 129 L522 0 L67 0 L67 724 L507 724 L507 595 L215 595 L215 434 L428 434 L428 305 L215 305 L215 129 L522 129 Z " />
<glyph glyph-name="uni1E1A" unicode="&#x1e1a;" horiz-adv-x="543" d="M522 129 L522 0 L67 0 L67 724 L507 724 L507 595 L215 595 L215 434 L428 434 L428 305 L215 305 L215 129 L522 129 Z M365 -229 Q338 -229 318 -219.5 Q298 -210 277 -193 Q262 -182 252 -176.5 Q242 -171 231 -171 Q200 -171 194 -227 L118 -227 Q120 -154 148.5 -113.5 Q177 -73 229 -73 Q255 -73 274 -82 Q293 -91 317 -109 Q333 -121 342.5 -126.5 Q352 -132 363 -132 Q394 -132 400 -75 L476 -75 Q474 -149 445.5 -189 Q417 -229 365 -229 Z " />
<glyph glyph-name="uni01B7" unicode="&#x1b7;" horiz-adv-x="558" d="M316 437 Q531 412 531 231 Q531 152 492.5 97.5 Q454 43 387 15.5 Q320 -12 236 -12 Q104 -12 3 43 L51 158 Q98 137 141 126.5 Q184 116 232 116 Q301 116 340 146.5 Q379 177 379 231 Q379 290 330.5 313.5 Q282 337 186 337 L145 337 L145 439 L308 598 L40 598 L40 724 L482 724 L482 596 L316 437 Z " />
<glyph glyph-name="uni01EE" unicode="&#x1ee;" horiz-adv-x="558" d="M186 781 L75 914 L75 926 L176 926 L256 848 L334 926 L431 926 L431 914 L320 781 L186 781 Z M316 437 Q531 412 531 231 Q531 152 492.5 97.5 Q454 43 387 15.5 Q320 -12 236 -12 Q104 -12 3 43 L51 158 Q98 137 141 126.5 Q184 116 232 116 Q301 116 340 146.5 Q379 177 379 231 Q379 290 330.5 313.5 Q282 337 186 337 L145 337 L145 439 L308 598 L40 598 L40 724 L482 724 L482 596 L316 437 Z " />
<glyph glyph-name="uni01B8" unicode="&#x1b8;" horiz-adv-x="558" d="M555 43 Q454 -12 322 -12 Q238 -12 171 15.5 Q104 43 65.5 97.5 Q27 152 27 231 Q27 326 83.5 375 Q140 424 242 437 L76 596 L76 724 L518 724 L518 598 L250 598 L413 439 L413 337 L372 337 Q276 337 227.5 313.5 Q179 290 179 231 Q179 177 218 146.5 Q257 116 326 116 Q374 116 417 126.5 Q460 137 507 158 L555 43 Z " />
<glyph glyph-name="F" unicode="F" horiz-adv-x="505" d="M215 595 L215 412 L445 412 L445 282 L215 282 L215 0 L67 0 L67 724 L499 724 L499 595 L215 595 Z " />
<glyph glyph-name="uni1E1E" unicode="&#x1e1e;" horiz-adv-x="505" d="M283 786 Q244 786 222.5 808 Q201 830 201 867 Q201 905 222.5 926.5 Q244 948 283 948 Q322 948 343.5 926.5 Q365 905 365 868 Q365 829 343.5 807.5 Q322 786 283 786 Z M215 595 L215 412 L445 412 L445 282 L215 282 L215 0 L67 0 L67 724 L499 724 L499 595 L215 595 Z " />
<glyph glyph-name="uni0191" unicode="&#x191;" horiz-adv-x="505" d="M215 595 L215 412 L445 412 L445 282 L215 282 L215 166 L216 166 L216 -57 Q216 -217 55 -217 Q7 -217 -32 -201 L-11 -82 Q12 -88 35 -88 Q53 -88 60.5 -78.5 Q68 -69 68 -45 L68 0 L67 0 L67 724 L499 724 L499 595 L215 595 Z " />
<glyph glyph-name="uniA77B" unicode="&#xa77b;" horiz-adv-x="458" d="M334 593 Q296 593 268 569 Q240 545 215 491 L215 218 L394 218 L394 89 L215 89 L215 -207 L67 -207 L67 724 L208 724 L208 596 Q241 667 280.5 701.5 Q320 736 368 736 Q410 736 452 713 L407 580 Q368 593 334 593 Z " />
<glyph glyph-name="G" unicode="G" horiz-adv-x="628" d="M581 417 L581 48 Q542 20 485.5 4 Q429 -12 367 -12 Q210 -12 124.5 85.5 Q39 183 39 362 Q39 541 124.5 638.5 Q210 736 367 736 Q428 736 482 721 Q536 706 574 679 L535 564 Q442 608 365 608 Q190 608 190 362 Q190 116 367 116 Q401 116 435 125 L435 292 L331 292 L331 417 L581 417 Z " />
<glyph glyph-name="uni01F4" unicode="&#x1f4;" horiz-adv-x="628" d="M373 781 L258 781 L258 793 L391 926 L545 926 L545 914 L373 781 Z M581 417 L581 48 Q542 20 485.5 4 Q429 -12 367 -12 Q210 -12 124.5 85.5 Q39 183 39 362 Q39 541 124.5 638.5 Q210 736 367 736 Q428 736 482 721 Q536 706 574 679 L535 564 Q442 608 365 608 Q190 608 190 362 Q190 116 367 116 Q401 116 435 125 L435 292 L331 292 L331 417 L581 417 Z " />
<glyph glyph-name="uni0194" unicode="&#x194;" horiz-adv-x="605" d="M418 60 Q444 -8 444 -53 Q444 -115 407.5 -148.5 Q371 -182 304 -182 Q237 -182 200.5 -147.5 Q164 -113 164 -51 Q164 -28 170 -2.5 Q176 23 190 60 L241 198 L15 724 L170 724 L304 366 L437 724 L590 724 L366 201 L418 60 Z M304 -84 Q329 -84 329 -40 Q329 -4 310 38 L303 55 L296 38 Q277 -4 277 -40 Q277 -84 304 -84 Z " />
<glyph glyph-name="Gbreve" unicode="&#x11e;" horiz-adv-x="628" d="M341 782 Q269 782 228 827 Q187 872 184 955 L262 955 Q272 881 342 881 Q413 881 423 955 L498 955 Q495 872 454 827 Q413 782 341 782 Z M581 417 L581 48 Q542 20 485.5 4 Q429 -12 367 -12 Q210 -12 124.5 85.5 Q39 183 39 362 Q39 541 124.5 638.5 Q210 736 367 736 Q428 736 482 721 Q536 706 574 679 L535 564 Q442 608 365 608 Q190 608 190 362 Q190 116 367 116 Q401 116 435 125 L435 292 L331 292 L331 417 L581 417 Z " />
<glyph glyph-name="Gcaron" unicode="&#x1e6;" horiz-adv-x="628" d="M274 781 L163 914 L163 926 L264 926 L344 848 L422 926 L519 926 L519 914 L408 781 L274 781 Z M581 417 L581 48 Q542 20 485.5 4 Q429 -12 367 -12 Q210 -12 124.5 85.5 Q39 183 39 362 Q39 541 124.5 638.5 Q210 736 367 736 Q428 736 482 721 Q536 706 574 679 L535 564 Q442 608 365 608 Q190 608 190 362 Q190 116 367 116 Q401 116 435 125 L435 292 L331 292 L331 417 L581 417 Z " />
<glyph glyph-name="Gcircumflex" unicode="&#x11c;" horiz-adv-x="628" d="M260 781 L163 781 L163 793 L274 926 L408 926 L519 793 L519 781 L418 781 L338 859 L260 781 Z M581 417 L581 48 Q542 20 485.5 4 Q429 -12 367 -12 Q210 -12 124.5 85.5 Q39 183 39 362 Q39 541 124.5 638.5 Q210 736 367 736 Q428 736 482 721 Q536 706 574 679 L535 564 Q442 608 365 608 Q190 608 190 362 Q190 116 367 116 Q401 116 435 125 L435 292 L331 292 L331 417 L581 417 Z " />
<glyph glyph-name="Gcommaaccent" unicode="&#x122;" horiz-adv-x="628" d="M581 417 L581 48 Q542 20 485.5 4 Q429 -12 367 -12 Q210 -12 124.5 85.5 Q39 183 39 362 Q39 541 124.5 638.5 Q210 736 367 736 Q428 736 482 721 Q536 706 574 679 L535 564 Q442 608 365 608 Q190 608 190 362 Q190 116 367 116 Q401 116 435 125 L435 292 L331 292 L331 417 L581 417 Z M238 -239 Q261 -212 270.5 -184.5 Q280 -157 280 -116 Q280 -90 276 -62 L401 -62 Q406 -85 406 -115 Q406 -164 378.5 -206.5 Q351 -249 290 -293 L238 -239 Z " />
<glyph glyph-name="Gdotaccent" unicode="&#x120;" horiz-adv-x="628" d="M341 786 Q302 786 280.5 808 Q259 830 259 867 Q259 905 280.5 926.5 Q302 948 341 948 Q380 948 401.5 926.5 Q423 905 423 868 Q423 829 401.5 807.5 Q380 786 341 786 Z M581 417 L581 48 Q542 20 485.5 4 Q429 -12 367 -12 Q210 -12 124.5 85.5 Q39 183 39 362 Q39 541 124.5 638.5 Q210 736 367 736 Q428 736 482 721 Q536 706 574 679 L535 564 Q442 608 365 608 Q190 608 190 362 Q190 116 367 116 Q401 116 435 125 L435 292 L331 292 L331 417 L581 417 Z " />
<glyph glyph-name="uni0193" unicode="&#x193;" horiz-adv-x="723" d="M646 863 Q672 863 695 859 L695 742 Q663 745 648 745 Q610 745 592 730.5 Q574 716 574 684 L574 662 L574 564 L535 564 Q442 608 365 608 Q190 608 190 362 Q190 116 367 116 Q401 116 435 125 L435 292 L331 292 L331 417 L581 417 L581 48 Q542 20 485.5 4 Q429 -12 367 -12 Q210 -12 124.5 85.5 Q39 183 39 362 Q39 541 124.5 638.5 Q210 736 367 736 Q414 736 457 727 Q468 793 516.5 828 Q565 863 646 863 Z " />
<glyph glyph-name="uniA77D" unicode="&#xa77d;" horiz-adv-x="497" d="M338 462 Q338 432 352.5 408.5 Q367 385 397 352 Q435 311 456 274 Q477 237 477 183 Q477 94 414.5 41 Q352 -12 246 -12 Q139 -12 79 36.5 Q19 85 19 172 Q19 241 62 300 Q105 359 202 422 Q200 438 200 446 Q200 495 227 535 Q254 575 303 598 L36 598 L36 724 L462 724 L462 599 Q402 576 370 540 Q338 504 338 462 Z M249 115 Q289 115 311 133 Q333 151 333 184 Q333 212 318 236.5 Q303 261 273 296 Q253 318 245 329 Q164 262 164 190 Q164 153 185.5 134 Q207 115 249 115 Z " />
<glyph glyph-name="uni0241" unicode="&#x241;" horiz-adv-x="531" d="M494 518 Q494 427 448 356.5 Q402 286 316 242 L316 0 L168 0 L168 317 Q338 379 338 509 Q338 556 317.5 578.5 Q297 601 254 601 Q182 601 95 538 L26 640 Q73 686 137 711 Q201 736 271 736 Q378 736 436 679 Q494 622 494 518 Z " />
<glyph glyph-name="uni1E20" unicode="&#x1e20;" horiz-adv-x="628" d="M500 807 L182 807 L182 901 L500 901 L500 807 Z M581 417 L581 48 Q542 20 485.5 4 Q429 -12 367 -12 Q210 -12 124.5 85.5 Q39 183 39 362 Q39 541 124.5 638.5 Q210 736 367 736 Q428 736 482 721 Q536 706 574 679 L535 564 Q442 608 365 608 Q190 608 190 362 Q190 116 367 116 Q401 116 435 125 L435 292 L331 292 L331 417 L581 417 Z " />
<glyph glyph-name="uniA7A0" unicode="&#xa7a0;" horiz-adv-x="645" d="M648 464 L204 339 Q213 116 380 116 Q414 116 450 125 L450 224 L344 224 L344 339 L595 339 L595 48 Q555 19 499 3.5 Q443 -12 380 -12 Q239 -12 155 68.5 Q71 149 56 297 L-19 276 L-31 276 L-31 350 L53 373 Q56 546 141 641 Q226 736 380 736 Q441 736 495.5 721 Q550 706 588 679 L549 564 Q455 608 378 608 Q224 608 206 416 L636 537 L648 537 L648 464 Z " />
<glyph glyph-name="uniA7AC" unicode="&#xa7ac;" horiz-adv-x="642" d="M575 724 L575 28 L575 7 L574 7 Q568 -101 498.5 -160 Q429 -219 307 -219 Q248 -219 189 -206 Q130 -193 86 -169 L122 -58 Q203 -95 289 -95 Q427 -95 427 27 L427 103 Q399 60 358.5 39 Q318 18 263 18 Q156 18 97.5 112 Q39 206 39 377 Q39 548 97.5 642 Q156 736 262 736 Q311 736 354.5 716 Q398 696 427 661 L427 724 L575 724 Z M311 149 Q345 149 372 162.5 Q399 176 427 207 L427 550 Q403 577 371 593 Q339 609 308 609 Q191 609 191 381 Q191 149 311 149 Z " />
<glyph glyph-name="uni01E4" unicode="&#x1e4;" horiz-adv-x="621" d="M644 170 L581 170 L581 48 Q542 20 485.5 4 Q429 -12 367 -12 Q210 -12 124.5 85.5 Q39 183 39 362 Q39 541 124.5 638.5 Q210 736 367 736 Q428 736 482 721 Q536 706 574 679 L535 564 Q442 608 365 608 Q190 608 190 362 Q190 115 367 115 Q403 115 439 125 L439 172 L332 172 L332 262 L439 262 L439 314 L331 314 L331 419 L581 419 L581 264 L644 264 L644 170 Z " />
<glyph glyph-name="uniA77E" unicode="&#xa77e;" horiz-adv-x="496" d="M297 278 Q297 229 270 189 Q243 149 194 126 L460 126 L460 0 L34 0 L34 125 Q94 148 126 184 Q158 220 158 262 Q158 292 143.5 315.5 Q129 339 99 372 Q61 413 40 450 Q19 487 19 541 Q19 630 81.5 683 Q144 736 250 736 Q357 736 417 687.5 Q477 639 477 552 Q477 483 434 424 Q391 365 295 302 Q297 286 297 278 Z M248 609 Q208 609 186 591 Q164 573 164 540 Q164 513 178 489.5 Q192 466 221 432 L251 395 Q333 463 333 534 Q333 571 311 590 Q289 609 248 609 Z " />
<glyph glyph-name="H" unicode="H" horiz-adv-x="663" d="M596 724 L596 0 L448 0 L448 304 L215 304 L215 0 L67 0 L67 724 L215 724 L215 432 L448 432 L448 724 L596 724 Z " />
<glyph glyph-name="uni2C75" unicode="&#x2c75;" horiz-adv-x="533" d="M522 304 L215 304 L215 0 L67 0 L67 724 L215 724 L215 432 L522 432 L522 304 Z " />
<glyph glyph-name="Hbar" unicode="&#x126;" horiz-adv-x="670" d="M658 522 L600 522 L600 0 L451 0 L451 304 L219 304 L219 0 L71 0 L71 522 L13 522 L13 625 L71 625 L71 724 L219 724 L219 625 L451 625 L451 724 L600 724 L600 625 L658 625 L658 522 Z M451 522 L219 522 L219 432 L451 432 L451 522 Z " />
<glyph glyph-name="uni1E2A" unicode="&#x1e2a;" horiz-adv-x="663" d="M596 724 L596 0 L448 0 L448 304 L215 304 L215 0 L67 0 L67 724 L215 724 L215 432 L448 432 L448 724 L596 724 Z M331 -225 Q259 -225 218 -180 Q177 -135 174 -52 L252 -52 Q262 -126 332 -126 Q403 -126 413 -52 L488 -52 Q485 -135 444 -180 Q403 -225 331 -225 Z " />
<glyph glyph-name="uni021E" unicode="&#x21e;" horiz-adv-x="663" d="M264 781 L153 914 L153 926 L254 926 L334 848 L412 926 L509 926 L509 914 L398 781 L264 781 Z M596 724 L596 0 L448 0 L448 304 L215 304 L215 0 L67 0 L67 724 L215 724 L215 432 L448 432 L448 724 L596 724 Z " />
<glyph glyph-name="uni1E28" unicode="&#x1e28;" horiz-adv-x="663" d="M596 724 L596 0 L448 0 L448 304 L215 304 L215 0 L67 0 L67 724 L215 724 L215 432 L448 432 L448 724 L596 724 Z M170 -50 Q222 -50 250 -72.5 Q278 -95 278 -136 Q278 -186 242.5 -213.5 Q207 -241 143 -241 Q80 -241 25 -216 L44 -156 Q95 -172 125 -172 Q171 -172 171 -138 Q171 -107 131 -107 Q110 -107 94 -113 L66 -82 L104 20 L194 14 L146 -53 Q158 -50 170 -50 Z " />
<glyph glyph-name="Hcircumflex" unicode="&#x124;" horiz-adv-x="663" d="M250 781 L153 781 L153 793 L264 926 L398 926 L509 793 L509 781 L408 781 L328 859 L250 781 Z M596 724 L596 0 L448 0 L448 304 L215 304 L215 0 L67 0 L67 724 L215 724 L215 432 L448 432 L448 724 L596 724 Z " />
<glyph glyph-name="uni2C67" unicode="&#x2c67;" horiz-adv-x="673" d="M675 125 L675 -157 L569 -157 L545 0 L448 0 L448 304 L215 304 L215 0 L67 0 L67 724 L215 724 L215 432 L448 432 L448 724 L596 724 L596 125 L675 125 Z " />
<glyph glyph-name="uni1E26" unicode="&#x1e26;" horiz-adv-x="663" d="M234 782 Q201 782 182 802 Q163 822 163 855 Q163 890 182 909.5 Q201 929 235 929 Q268 929 287 909 Q306 889 306 856 Q306 821 287 801.5 Q268 782 234 782 Z M427 782 Q394 782 375 802 Q356 822 356 855 Q356 890 375 909.5 Q394 929 428 929 Q461 929 480 909 Q499 889 499 856 Q499 821 480 801.5 Q461 782 427 782 Z M596 724 L596 0 L448 0 L448 304 L215 304 L215 0 L67 0 L67 724 L215 724 L215 432 L448 432 L448 724 L596 724 Z " />
<glyph glyph-name="uni1E22" unicode="&#x1e22;" horiz-adv-x="663" d="M331 786 Q292 786 270.5 808 Q249 830 249 867 Q249 905 270.5 926.5 Q292 948 331 948 Q370 948 391.5 926.5 Q413 905 413 868 Q413 829 391.5 807.5 Q370 786 331 786 Z M596 724 L596 0 L448 0 L448 304 L215 304 L215 0 L67 0 L67 724 L215 724 L215 432 L448 432 L448 724 L596 724 Z " />
<glyph glyph-name="uni1E24" unicode="&#x1e24;" horiz-adv-x="663" d="M596 724 L596 0 L448 0 L448 304 L215 304 L215 0 L67 0 L67 724 L215 724 L215 432 L448 432 L448 724 L596 724 Z M331 -232 Q292 -232 270.5 -210 Q249 -188 249 -151 Q249 -112 270.5 -90.5 Q292 -69 331 -69 Q370 -69 391.5 -91 Q413 -113 413 -150 Q413 -189 391.5 -210.5 Q370 -232 331 -232 Z " />
<glyph glyph-name="uniA726" unicode="&#xa726;" horiz-adv-x="663" d="M596 724 L596 0 L596 -36 Q596 -125 546.5 -172 Q497 -219 404 -219 Q313 -219 248 -168 L295 -62 Q349 -92 391 -92 Q421 -92 434.5 -75.5 Q448 -59 448 -25 L448 241 L448 304 L215 304 L215 0 L67 0 L67 724 L215 724 L215 432 L448 432 L448 724 L596 724 Z " />
<glyph glyph-name="uniA7AA" unicode="&#xa7aa;" horiz-adv-x="742" d="M675 724 L675 0 L526 0 L526 304 L294 304 L294 0 L146 0 L146 595 Q120 595 108 579.5 Q96 564 96 529 Q96 514 99 482 L-29 482 Q-33 505 -33 531 Q-33 626 12.5 675 Q58 724 146 724 L294 724 L294 432 L526 432 L526 724 L675 724 Z " />
<glyph glyph-name="uniA78D" unicode="&#xa78d;" horiz-adv-x="634" d="M566 724 L566 0 L418 0 L418 296 L158 296 L57 296 L57 724 L205 724 L205 425 L418 425 L418 724 L566 724 Z " />
<glyph glyph-name="uni01F6" unicode="&#x1f6;" horiz-adv-x="953" d="M860 549 Q875 488 883.5 416 Q892 344 892 277 Q892 -12 664 -12 Q548 -12 498 47.5 Q448 107 448 196 L448 304 L215 304 L215 0 L67 0 L67 724 L215 724 L215 432 L448 432 L448 724 L596 724 L596 207 L596 203 Q596 167 612 142 Q628 117 668 117 Q709 117 727 153.5 Q745 190 745 269 Q745 354 736 418.5 Q727 483 711 549 L860 549 Z " />
<glyph glyph-name="I" unicode="I" horiz-adv-x="286" d="M69 724 L217 724 L217 0 L69 0 L69 724 Z " />
<glyph glyph-name="IJ" unicode="&#x132;" horiz-adv-x="676" d="M67 724 L215 724 L215 0 L67 0 L67 724 Z M415 -12 Q375 -12 337.5 -3 Q300 6 273 23 L314 141 Q366 118 405 118 Q466 118 466 194 L466 724 L614 724 L614 182 Q614 89 562 38.5 Q510 -12 415 -12 Z " />
<glyph glyph-name="Iacute" unicode="&#xcd;" horiz-adv-x="286" d="M60 793 L193 926 L347 926 L347 914 L175 781 L60 781 L60 793 Z M69 724 L217 724 L217 0 L69 0 L69 724 Z " />
<glyph glyph-name="Ibreve" unicode="&#x12c;" horiz-adv-x="286" d="M143 782 Q71 782 30 827 Q-11 872 -14 955 L64 955 Q74 881 144 881 Q215 881 225 955 L300 955 Q297 872 256 827 Q215 782 143 782 Z M69 724 L217 724 L217 0 L69 0 L69 724 Z " />
<glyph glyph-name="uni01CF" unicode="&#x1cf;" horiz-adv-x="286" d="M321 926 L321 914 L210 781 L76 781 L-35 914 L-35 926 L66 926 L146 848 L224 926 L321 926 Z M69 724 L217 724 L217 0 L69 0 L69 724 Z " />
<glyph glyph-name="Icircumflex" unicode="&#xce;" horiz-adv-x="286" d="M321 793 L321 781 L220 781 L140 859 L62 781 L-35 781 L-35 793 L76 926 L210 926 L321 793 Z M69 724 L217 724 L217 0 L69 0 L69 724 Z " />
<glyph glyph-name="uni0208" unicode="&#x208;" horiz-adv-x="286" d="M-84 914 L-84 926 L43 926 L119 793 L119 781 L29 781 L-84 914 Z M89 914 L89 926 L213 926 L287 793 L287 781 L200 781 L89 914 Z M69 724 L217 724 L217 0 L69 0 L69 724 Z " />
<glyph glyph-name="Idieresis" unicode="&#xcf;" horiz-adv-x="286" d="M46 782 Q13 782 -6 802 Q-25 822 -25 855 Q-25 890 -6 909.5 Q13 929 47 929 Q80 929 99 909 Q118 889 118 856 Q118 821 99 801.5 Q80 782 46 782 Z M239 782 Q206 782 187 802 Q168 822 168 855 Q168 890 187 909.5 Q206 929 240 929 Q273 929 292 909 Q311 889 311 856 Q311 821 292 801.5 Q273 782 239 782 Z M69 724 L217 724 L217 0 L69 0 L69 724 Z " />
<glyph glyph-name="uni1E2E" unicode="&#x1e2e;" horiz-adv-x="286" d="M95 920 L161 1047 L279 1047 L279 1037 L183 910 L95 910 L95 920 Z M58 768 Q27 768 9.5 786 Q-8 804 -8 835 Q-8 868 9 886 Q26 904 58 904 Q89 904 107 885.5 Q125 867 125 836 Q125 804 107.5 786 Q90 768 58 768 Z M228 768 Q197 768 179.5 786 Q162 804 162 835 Q162 868 179 886 Q196 904 228 904 Q259 904 277 885.5 Q295 867 295 836 Q295 804 277.5 786 Q260 768 228 768 Z M69 724 L217 724 L217 0 L69 0 L69 724 Z " />
<glyph glyph-name="Idot" unicode="&#x130;" horiz-adv-x="286" d="M143 786 Q104 786 82.5 808 Q61 830 61 867 Q61 905 82.5 926.5 Q104 948 143 948 Q182 948 203.5 926.5 Q225 905 225 868 Q225 829 203.5 807.5 Q182 786 143 786 Z M69 724 L217 724 L217 0 L69 0 L69 724 Z " />
<glyph glyph-name="uni1ECA" unicode="&#x1eca;" horiz-adv-x="286" d="M69 724 L217 724 L217 0 L69 0 L69 724 Z M143 -232 Q104 -232 82.5 -210 Q61 -188 61 -151 Q61 -112 82.5 -90.5 Q104 -69 143 -69 Q182 -69 203.5 -91 Q225 -113 225 -150 Q225 -189 203.5 -210.5 Q182 -232 143 -232 Z " />
<glyph glyph-name="Igrave" unicode="&#xcc;" horiz-adv-x="286" d="M-53 914 L-53 926 L101 926 L225 793 L225 781 L110 781 L-53 914 Z M69 724 L217 724 L217 0 L69 0 L69 724 Z " />
<glyph glyph-name="uni1EC8" unicode="&#x1ec8;" horiz-adv-x="286" d="M96 781 Q94 793 94 803 Q94 822 102.5 832 Q111 842 126 850 Q135 856 139.5 860 Q144 864 144 871 Q144 886 122 886 Q99 886 59 866 L31 929 Q57 945 89 953.5 Q121 962 155 962 Q206 962 234 941.5 Q262 921 262 884 Q262 856 249 843.5 Q236 831 214 821 Q200 815 194 810.5 Q188 806 188 798 L190 781 L96 781 Z M69 724 L217 724 L217 0 L69 0 L69 724 Z " />
<glyph glyph-name="uni020A" unicode="&#x20a;" horiz-adv-x="286" d="M143 963 Q215 963 256 918 Q297 873 300 790 L222 790 Q212 864 142 864 Q71 864 61 790 L-14 790 Q-11 873 30 918 Q71 963 143 963 Z M69 724 L217 724 L217 0 L69 0 L69 724 Z " />
<glyph glyph-name="Imacron" unicode="&#x12a;" horiz-adv-x="286" d="M-16 901 L302 901 L302 807 L-16 807 L-16 901 Z M69 724 L217 724 L217 0 L69 0 L69 724 Z " />
<glyph glyph-name="Iogonek" unicode="&#x12e;" horiz-adv-x="286" d="M274 -201 Q225 -231 160 -231 Q101 -231 69 -203.5 Q37 -176 37 -127 Q37 -89 57 -56 Q77 -23 114 0 L69 0 L69 724 L217 724 L217 0 Q153 -51 153 -100 Q153 -142 196 -142 Q222 -142 245 -130 L274 -201 Z " />
<glyph glyph-name="uni0196" unicode="&#x196;" horiz-adv-x="296" d="M206 -7 Q67 -7 67 136 L67 724 L215 724 L215 169 Q215 144 223 132.5 Q231 121 248 121 Q264 121 277 124 L286 2 Q247 -7 206 -7 Z " />
<glyph glyph-name="uniA76C" unicode="&#xa76c;" horiz-adv-x="495" d="M325 736 Q407 736 451.5 693 Q496 650 496 573 Q496 491 448.5 447 Q401 403 313 403 L298 403 L298 243 L298 191 Q298 94 243.5 41.5 Q189 -11 88 -11 Q56 -11 29 -6 L29 115 Q54 111 84 111 Q152 111 152 193 L152 323 L152 403 L32 403 L32 516 L152 516 L152 572 Q152 651 197 693.5 Q242 736 325 736 Z M313 514 Q361 514 361 571 Q361 616 330 616 Q298 616 298 572 L298 514 L313 514 Z " />
<glyph glyph-name="uni0197" unicode="&#x197;" horiz-adv-x="308" d="M309 320 L228 320 L228 0 L80 0 L80 320 L-1 320 L-1 426 L80 426 L80 724 L228 724 L228 426 L309 426 L309 320 Z " />
<glyph glyph-name="Itilde" unicode="&#x128;" horiz-adv-x="286" d="M200 785 Q172 785 156.5 794.5 Q141 804 125 821 Q115 833 107.5 838.5 Q100 844 89 844 Q55 844 52 787 L-23 787 Q-23 860 5.5 900.5 Q34 941 86 941 Q114 941 129.5 931.5 Q145 922 161 904 Q172 892 179 886.5 Q186 881 197 881 Q231 881 234 939 L310 939 Q309 865 280.5 825 Q252 785 200 785 Z M69 724 L217 724 L217 0 L69 0 L69 724 Z " />
<glyph glyph-name="uni1E2C" unicode="&#x1e2c;" horiz-adv-x="286" d="M69 724 L217 724 L217 0 L69 0 L69 724 Z M211 -229 Q184 -229 164 -219.5 Q144 -210 123 -193 Q108 -182 98 -176.5 Q88 -171 77 -171 Q46 -171 40 -227 L-36 -227 Q-34 -154 -5.5 -113.5 Q23 -73 75 -73 Q101 -73 120 -82 Q139 -91 163 -109 Q179 -121 188.5 -126.5 Q198 -132 209 -132 Q240 -132 246 -75 L322 -75 Q320 -149 291.5 -189 Q263 -229 211 -229 Z " />
<glyph glyph-name="J" unicode="J" horiz-adv-x="444" d="M169 -12 Q117 -12 72 2.5 Q27 17 -6 45 L42 154 Q107 118 161 118 Q234 118 234 194 L234 724 L382 724 L382 182 Q382 89 326 38.5 Q270 -12 169 -12 Z " />
<glyph glyph-name="Jcircumflex" unicode="&#x134;" horiz-adv-x="444" d="M486 793 L486 781 L385 781 L305 859 L227 781 L130 781 L130 793 L241 926 L375 926 L486 793 Z M234 724 L382 724 L382 182 Q382 89 326 38.5 Q270 -12 169 -12 Q117 -12 72 2.5 Q27 17 -6 45 L42 154 Q107 118 161 118 Q234 118 234 194 L234 724 Z " />
<glyph glyph-name="uni0248" unicode="&#x248;" horiz-adv-x="454" d="M462 320 L382 320 L382 182 Q382 89 326 38.5 Q270 -12 169 -12 Q117 -12 72 2.5 Q27 17 -6 45 L42 154 Q107 118 161 118 Q234 118 234 194 L234 320 L127 320 L127 426 L234 426 L234 724 L382 724 L382 426 L462 426 L462 320 Z " />
<glyph glyph-name="K" unicode="K" horiz-adv-x="606" d="M279 292 L215 208 L215 0 L67 0 L67 724 L215 724 L215 399 L435 724 L608 724 L371 413 L623 0 L449 0 L279 292 Z " />
<glyph glyph-name="uni1E30" unicode="&#x1e30;" horiz-adv-x="606" d="M346 781 L231 781 L231 793 L364 926 L518 926 L518 914 L346 781 Z M279 292 L215 208 L215 0 L67 0 L67 724 L215 724 L215 399 L435 724 L608 724 L371 413 L623 0 L449 0 L279 292 Z " />
<glyph glyph-name="uni01E8" unicode="&#x1e8;" horiz-adv-x="606" d="M247 781 L136 914 L136 926 L237 926 L317 848 L395 926 L492 926 L492 914 L381 781 L247 781 Z M279 292 L215 208 L215 0 L67 0 L67 724 L215 724 L215 399 L435 724 L608 724 L371 413 L623 0 L449 0 L279 292 Z " />
<glyph glyph-name="Kcommaaccent" unicode="&#x136;" horiz-adv-x="606" d="M279 292 L215 208 L215 0 L67 0 L67 724 L215 724 L215 399 L435 724 L608 724 L371 413 L623 0 L449 0 L279 292 Z M225 -239 Q248 -212 257.5 -184.5 Q267 -157 267 -116 Q267 -90 263 -62 L388 -62 Q393 -85 393 -115 Q393 -164 365.5 -206.5 Q338 -249 277 -293 L225 -239 Z " />
<glyph glyph-name="uni2C69" unicode="&#x2c69;" horiz-adv-x="619" d="M636 125 L636 -157 L529 -157 L506 0 L449 0 L279 292 L215 208 L215 0 L67 0 L67 724 L215 724 L215 399 L435 724 L608 724 L371 413 L547 125 L636 125 Z " />
<glyph glyph-name="uniA742" unicode="&#xa742;" horiz-adv-x="606" d="M449 0 L377 124 L299 65 L287 65 L287 146 L340 186 L279 292 L215 208 L215 0 L67 0 L67 724 L215 724 L215 399 L435 724 L608 724 L371 413 L456 273 L558 349 L570 349 L570 268 L494 211 L623 0 L449 0 Z " />
<glyph glyph-name="uni1E32" unicode="&#x1e32;" horiz-adv-x="606" d="M279 292 L215 208 L215 0 L67 0 L67 724 L215 724 L215 399 L435 724 L608 724 L371 413 L623 0 L449 0 L279 292 Z M328 -232 Q289 -232 267.5 -210 Q246 -188 246 -151 Q246 -112 267.5 -90.5 Q289 -69 328 -69 Q367 -69 388.5 -91 Q410 -113 410 -150 Q410 -189 388.5 -210.5 Q367 -232 328 -232 Z " />
<glyph glyph-name="uni0198" unicode="&#x198;" horiz-adv-x="600" d="M370 415 L623 0 L449 0 L278 293 L215 208 L215 0 L67 0 L67 724 L215 724 L215 400 L363 626 Q404 690 442.5 715.5 Q481 741 535 741 Q576 741 604 727 Q632 713 657 679 L585 587 Q559 610 537 610 Q523 610 511.5 600 Q500 590 478 560 L370 415 Z " />
<glyph glyph-name="uni1E34" unicode="&#x1e34;" horiz-adv-x="606" d="M279 292 L215 208 L215 0 L67 0 L67 724 L215 724 L215 399 L435 724 L608 724 L371 413 L623 0 L449 0 L279 292 Z M173 -97 L491 -97 L491 -191 L173 -191 L173 -97 Z " />
<glyph glyph-name="uniA7A2" unicode="&#xa7a2;" horiz-adv-x="616" d="M365 160 L224 125 L224 0 L76 0 L76 88 L9 71 L-3 71 L-3 144 L76 164 L76 724 L224 724 L224 398 L444 724 L618 724 L381 412 L472 263 L608 297 L619 297 L619 223 L513 197 L633 0 L458 0 L365 160 Z M326 226 L288 291 L224 207 L224 201 L326 226 Z " />
<glyph glyph-name="uniA740" unicode="&#xa740;" horiz-adv-x="610" d="M283 292 L219 208 L219 0 L71 0 L71 551 L13 551 L13 651 L71 651 L71 724 L219 724 L219 651 L284 651 L284 551 L219 551 L219 399 L438 724 L612 724 L375 413 L627 0 L452 0 L283 292 Z " />
<glyph glyph-name="uniA744" unicode="&#xa744;" horiz-adv-x="610" d="M452 0 L380 124 L302 65 L290 65 L290 146 L344 186 L283 292 L219 208 L219 0 L71 0 L71 551 L13 551 L13 651 L71 651 L71 724 L219 724 L219 651 L284 651 L284 551 L219 551 L219 399 L438 724 L612 724 L375 413 L460 273 L561 349 L573 349 L573 268 L498 212 L627 0 L452 0 Z " />
<glyph glyph-name="uniA7B0" unicode="&#xa7b0;" horiz-adv-x="606" d="M539 724 L539 0 L391 0 L391 325 L171 0 L-2 0 L235 311 L-17 724 L157 724 L327 432 L391 516 L391 724 L539 724 Z " />
<glyph glyph-name="L" unicode="L" horiz-adv-x="497" d="M480 129 L480 0 L67 0 L67 724 L215 724 L215 129 L480 129 Z " />
<glyph glyph-name="uni01C7" unicode="&#x1c7;" horiz-adv-x="937" d="M215 129 L480 129 L480 0 L67 0 L67 724 L215 724 L215 129 Z M875 724 L875 182 Q875 89 823.5 38.5 Q772 -12 677 -12 Q633 -12 593 -1 Q553 10 523 30 L570 144 Q625 118 668 118 Q727 118 727 194 L727 724 L875 724 Z " />
<glyph glyph-name="uni1EFA" unicode="&#x1efa;" horiz-adv-x="723" d="M706 129 L706 0 L294 0 L67 0 L67 724 L215 724 L215 129 L294 129 L294 724 L442 724 L442 129 L706 129 Z " />
<glyph glyph-name="Lacute" unicode="&#x139;" horiz-adv-x="497" d="M202 781 L87 781 L87 793 L220 926 L374 926 L374 914 L202 781 Z M480 129 L480 0 L67 0 L67 724 L215 724 L215 129 L480 129 Z " />
<glyph glyph-name="uni023D" unicode="&#x23d;" horiz-adv-x="500" d="M484 129 L484 0 L71 0 L71 314 L13 314 L13 420 L71 420 L71 724 L219 724 L219 420 L359 420 L359 314 L219 314 L219 129 L484 129 Z " />
<glyph glyph-name="uniA7AD" unicode="&#xa7ad;" horiz-adv-x="576" d="M559 129 L559 0 L146 0 L146 242 Q141 241 133 241 Q69 241 34 276.5 Q-1 312 -1 377 Q-1 442 33.5 477.5 Q68 513 130 513 Q141 513 146 512 L146 724 L294 724 L294 377 L386 412 L415 329 L297 284 L294 283 L294 129 L559 129 Z M133 333 Q141 333 146 334 L146 417 Q136 419 131 419 Q97 419 97 376 Q97 333 133 333 Z " />
<glyph glyph-name="uniA746" unicode="&#xa746;" horiz-adv-x="604" d="M588 130 L588 0 L175 0 L175 308 L37 308 L37 724 L185 724 L185 436 L323 436 L323 130 L588 130 Z " />
<glyph glyph-name="Lcaron" unicode="&#x13d;" horiz-adv-x="497" d="M392 538 L313 538 L313 770 L428 770 L428 760 L392 538 Z M480 129 L480 0 L67 0 L67 724 L215 724 L215 129 L480 129 Z " />
<glyph glyph-name="uni1E3C" unicode="&#x1e3c;" horiz-adv-x="497" d="M480 129 L480 0 L67 0 L67 724 L215 724 L215 129 L480 129 Z M459 -217 L459 -229 L358 -229 L278 -151 L200 -229 L103 -229 L103 -217 L214 -84 L348 -84 L459 -217 Z " />
<glyph glyph-name="Lcommaaccent" unicode="&#x13b;" horiz-adv-x="497" d="M480 129 L480 0 L67 0 L67 724 L215 724 L215 129 L480 129 Z M178 -239 Q201 -212 210.5 -184.5 Q220 -157 220 -116 Q220 -90 216 -62 L341 -62 Q346 -85 346 -115 Q346 -164 318.5 -206.5 Q291 -249 230 -293 L178 -239 Z " />
<glyph glyph-name="Ldot" unicode="&#x13f;" horiz-adv-x="497" d="M480 129 L480 0 L67 0 L67 724 L215 724 L215 129 L480 129 Z M384 347 Q345 347 323.5 369 Q302 391 302 428 Q302 466 323.5 487.5 Q345 509 384 509 Q423 509 444.5 487.5 Q466 466 466 429 Q466 390 444.5 368.5 Q423 347 384 347 Z " />
<glyph glyph-name="uni1E36" unicode="&#x1e36;" horiz-adv-x="497" d="M480 129 L480 0 L67 0 L67 724 L215 724 L215 129 L480 129 Z M281 -232 Q242 -232 220.5 -210 Q199 -188 199 -151 Q199 -112 220.5 -90.5 Q242 -69 281 -69 Q320 -69 341.5 -91 Q363 -113 363 -150 Q363 -189 341.5 -210.5 Q320 -232 281 -232 Z " />
<glyph glyph-name="uni1E38" unicode="&#x1e38;" horiz-adv-x="497" d="M329 807 L11 807 L11 901 L329 901 L329 807 Z M480 129 L480 0 L67 0 L67 724 L215 724 L215 129 L480 129 Z M281 -69 Q320 -69 341.5 -91 Q363 -113 363 -150 Q363 -189 341.5 -210.5 Q320 -232 281 -232 Q242 -232 220.5 -210 Q199 -188 199 -151 Q199 -112 220.5 -90.5 Q242 -69 281 -69 Z " />
<glyph glyph-name="uni2C60" unicode="&#x2c60;" horiz-adv-x="500" d="M484 129 L484 0 L71 0 L71 244 L13 244 L13 348 L71 348 L71 417 L13 417 L13 521 L71 521 L71 724 L219 724 L219 521 L359 521 L359 417 L219 417 L219 348 L359 348 L359 244 L219 244 L219 129 L484 129 Z " />
<glyph glyph-name="uniA748" unicode="&#xa748;" horiz-adv-x="500" d="M483 129 L483 0 L71 0 L71 518 L13 518 L13 624 L71 624 L71 724 L219 724 L219 624 L361 624 L361 518 L219 518 L219 129 L483 129 Z " />
<glyph glyph-name="uni01C8" unicode="&#x1c8;" horiz-adv-x="768" d="M480 129 L480 0 L67 0 L67 724 L215 724 L215 129 L480 129 Z M424 -109 Q480 -89 508.5 -69 Q537 -49 548.5 -21 Q560 7 560 54 L560 549 L706 549 L706 48 Q706 -28 684.5 -77 Q663 -126 613 -160 Q563 -194 471 -225 L424 -109 Z M633 618 Q594 618 572.5 640 Q551 662 551 699 Q551 737 572.5 758.5 Q594 780 633 780 Q671 780 693 758.5 Q715 737 715 700 Q715 661 693.5 639.5 Q672 618 633 618 Z " />
<glyph glyph-name="uni1E3A" unicode="&#x1e3a;" horiz-adv-x="497" d="M480 129 L480 0 L67 0 L67 724 L215 724 L215 129 L480 129 Z M126 -97 L444 -97 L444 -191 L126 -191 L126 -97 Z " />
<glyph glyph-name="uni2C62" unicode="&#x2c62;" horiz-adv-x="497" d="M480 129 L480 0 L67 0 L67 385 Q41 381 35 330 L-45 330 Q-43 401 -14 442 Q15 483 67 484 L67 724 L215 724 L215 425 Q245 428 251 482 L331 482 Q329 409 299 369 Q269 329 215 328 L215 129 L480 129 Z " />
<glyph glyph-name="Lslash" unicode="&#x141;" horiz-adv-x="501" d="M484 129 L484 0 L71 0 L71 226 L28 199 L19 199 L19 310 L71 341 L71 724 L219 724 L219 429 L380 528 L390 528 L390 417 L219 316 L219 129 L484 129 Z " />
<glyph glyph-name="uniA780" unicode="&#xa780;" horiz-adv-x="497" d="M430 724 L430 0 L282 0 L282 595 L17 595 L17 724 L430 724 Z " />
<glyph glyph-name="M" unicode="M" horiz-adv-x="810" d="M742 724 L742 0 L600 0 L600 483 L478 138 L330 138 L207 483 L207 0 L67 0 L67 724 L244 724 L405 274 L563 724 L742 724 Z " />
<glyph glyph-name="uni1E3E" unicode="&#x1e3e;" horiz-adv-x="810" d="M434 781 L319 781 L319 793 L452 926 L606 926 L606 914 L434 781 Z M742 724 L742 0 L600 0 L600 483 L478 138 L330 138 L207 483 L207 0 L67 0 L67 724 L244 724 L405 274 L563 724 L742 724 Z " />
<glyph glyph-name="uni1E40" unicode="&#x1e40;" horiz-adv-x="810" d="M402 786 Q363 786 341.5 808 Q320 830 320 867 Q320 905 341.5 926.5 Q363 948 402 948 Q441 948 462.5 926.5 Q484 905 484 868 Q484 829 462.5 807.5 Q441 786 402 786 Z M742 724 L742 0 L600 0 L600 483 L478 138 L330 138 L207 483 L207 0 L67 0 L67 724 L244 724 L405 274 L563 724 L742 724 Z " />
<glyph glyph-name="uni1E42" unicode="&#x1e42;" horiz-adv-x="810" d="M742 724 L742 0 L600 0 L600 483 L478 138 L330 138 L207 483 L207 0 L67 0 L67 724 L244 724 L405 274 L563 724 L742 724 Z M402 -232 Q363 -232 341.5 -210 Q320 -188 320 -151 Q320 -112 341.5 -90.5 Q363 -69 402 -69 Q441 -69 462.5 -91 Q484 -113 484 -150 Q484 -189 462.5 -210.5 Q441 -232 402 -232 Z " />
<glyph glyph-name="uni2C6E" unicode="&#x2c6e;" horiz-adv-x="810" d="M742 724 L742 0 L742 -57 Q742 -217 583 -217 Q533 -217 495 -201 L516 -82 Q538 -88 565 -88 Q584 -88 592 -78.5 Q600 -69 600 -45 L600 166 L600 483 L478 138 L330 138 L207 483 L207 0 L67 0 L67 724 L244 724 L405 274 L563 724 L742 724 Z " />
<glyph glyph-name="uni019C" unicode="&#x19c;" horiz-adv-x="845" d="M778 724 L778 0 L645 0 L645 68 Q582 -12 495 -12 Q447 -12 412.5 9 Q378 30 361 71 Q297 -12 212 -12 Q143 -12 105 31 Q67 74 67 158 L67 724 L215 724 L215 182 Q215 149 228.5 134 Q242 119 272 119 Q291 119 308.5 126.5 Q326 134 347 151 L347 158 L347 724 L495 724 L495 182 Q495 149 509.5 134 Q524 119 555 119 Q574 119 592 126 Q610 133 630 149 L630 724 L778 724 Z " />
<glyph glyph-name="N" unicode="N" horiz-adv-x="683" d="M616 724 L616 0 L472 0 L211 471 L211 0 L67 0 L67 724 L211 724 L472 255 L472 724 L616 724 Z " />
<glyph glyph-name="uni01CA" unicode="&#x1ca;" horiz-adv-x="1074" d="M472 724 L616 724 L616 0 L472 0 L211 471 L211 0 L67 0 L67 724 L211 724 L472 255 L472 724 Z M1012 724 L1012 182 Q1012 89 960.5 38.5 Q909 -12 814 -12 Q770 -12 730 -1 Q690 10 660 30 L707 144 Q762 118 805 118 Q864 118 864 194 L864 724 L1012 724 Z " />
<glyph glyph-name="Nacute" unicode="&#x143;" horiz-adv-x="683" d="M374 781 L259 781 L259 793 L392 926 L546 926 L546 914 L374 781 Z M616 724 L616 0 L472 0 L211 471 L211 0 L67 0 L67 724 L211 724 L472 255 L472 724 L616 724 Z " />
<glyph glyph-name="Ncaron" unicode="&#x147;" horiz-adv-x="683" d="M275 781 L164 914 L164 926 L265 926 L345 848 L423 926 L520 926 L520 914 L409 781 L275 781 Z M616 724 L616 0 L472 0 L211 471 L211 0 L67 0 L67 724 L211 724 L472 255 L472 724 L616 724 Z " />
<glyph glyph-name="uni1E4A" unicode="&#x1e4a;" horiz-adv-x="683" d="M616 724 L616 0 L472 0 L211 471 L211 0 L67 0 L67 724 L211 724 L472 255 L472 724 L616 724 Z M520 -217 L520 -229 L419 -229 L339 -151 L261 -229 L164 -229 L164 -217 L275 -84 L409 -84 L520 -217 Z " />
<glyph glyph-name="Ncommaaccent" unicode="&#x145;" horiz-adv-x="683" d="M616 724 L616 0 L472 0 L211 471 L211 0 L67 0 L67 724 L211 724 L472 255 L472 724 L616 724 Z M239 -239 Q262 -212 271.5 -184.5 Q281 -157 281 -116 Q281 -90 277 -62 L402 -62 Q407 -85 407 -115 Q407 -164 379.5 -206.5 Q352 -249 291 -293 L239 -239 Z " />
<glyph glyph-name="uniA790" unicode="&#xa790;" horiz-adv-x="693" d="M695 125 L695 -157 L589 -157 L565 0 L472 0 L211 471 L211 0 L67 0 L67 724 L211 724 L472 255 L472 724 L616 724 L616 125 L695 125 Z " />
<glyph glyph-name="uni1E44" unicode="&#x1e44;" horiz-adv-x="683" d="M342 786 Q303 786 281.5 808 Q260 830 260 867 Q260 905 281.5 926.5 Q303 948 342 948 Q381 948 402.5 926.5 Q424 905 424 868 Q424 829 402.5 807.5 Q381 786 342 786 Z M616 724 L616 0 L472 0 L211 471 L211 0 L67 0 L67 724 L211 724 L472 255 L472 724 L616 724 Z " />
<glyph glyph-name="uni1E46" unicode="&#x1e46;" horiz-adv-x="683" d="M616 724 L616 0 L472 0 L211 471 L211 0 L67 0 L67 724 L211 724 L472 255 L472 724 L616 724 Z M342 -232 Q303 -232 281.5 -210 Q260 -188 260 -151 Q260 -112 281.5 -90.5 Q303 -69 342 -69 Q381 -69 402.5 -91 Q424 -113 424 -150 Q424 -189 402.5 -210.5 Q381 -232 342 -232 Z " />
<glyph glyph-name="uni01F8" unicode="&#x1f8;" horiz-adv-x="683" d="M309 781 L146 914 L146 926 L300 926 L424 793 L424 781 L309 781 Z M616 724 L616 0 L472 0 L211 471 L211 0 L67 0 L67 724 L211 724 L472 255 L472 724 L616 724 Z " />
<glyph glyph-name="Eng" unicode="&#x14a;" horiz-adv-x="683" d="M616 724 L616 0 L616 -36 Q616 -125 567 -172 Q518 -219 424 -219 Q332 -219 269 -168 L315 -62 Q371 -92 412 -92 Q471 -92 471 -25 L471 3 L211 471 L211 0 L67 0 L67 724 L211 724 L472 255 L472 724 L616 724 Z " />
<glyph glyph-name="uni019D" unicode="&#x19d;" horiz-adv-x="683" d="M616 724 L616 0 L472 0 L211 471 L211 0 L211 -57 Q211 -217 51 -217 Q0 -217 -36 -201 L-16 -82 Q6 -88 32 -88 Q51 -88 59 -78.5 Q67 -69 67 -45 L67 166 L67 724 L211 724 L472 255 L472 724 L616 724 Z " />
<glyph glyph-name="uni01CB" unicode="&#x1cb;" horiz-adv-x="955" d="M616 724 L616 0 L472 0 L211 471 L211 0 L67 0 L67 724 L211 724 L472 255 L472 724 L616 724 Z M610 -109 Q666 -89 694.5 -69 Q723 -49 734.5 -21 Q746 7 746 54 L746 549 L892 549 L892 48 Q892 -28 870.5 -77 Q849 -126 799 -160 Q749 -194 657 -225 L610 -109 Z M819 618 Q780 618 758.5 640 Q737 662 737 699 Q737 737 758.5 758.5 Q780 780 819 780 Q857 780 879 758.5 Q901 737 901 700 Q901 661 879.5 639.5 Q858 618 819 618 Z " />
<glyph glyph-name="uni1E48" unicode="&#x1e48;" horiz-adv-x="683" d="M616 724 L616 0 L472 0 L211 471 L211 0 L67 0 L67 724 L211 724 L472 255 L472 724 L616 724 Z M187 -97 L505 -97 L505 -191 L187 -191 L187 -97 Z " />
<glyph glyph-name="uni0220" unicode="&#x220;" horiz-adv-x="645" d="M392 736 Q483 736 533 677 Q583 618 583 512 L583 -130 L435 -130 L435 513 Q435 559 411.5 581 Q388 603 340 603 Q306 603 276.5 591 Q247 579 215 553 L215 0 L67 0 L67 724 L208 724 L208 647 Q282 736 392 736 Z " />
<glyph glyph-name="uniA7A4" unicode="&#xa7a4;" horiz-adv-x="705" d="M708 429 L625 407 L625 0 L481 0 L306 320 L220 297 L220 0 L76 0 L76 258 L9 240 L-3 240 L-3 311 L76 332 L76 724 L220 724 L389 417 L482 442 L482 724 L625 724 L625 481 L696 500 L708 500 L708 429 Z M270 385 L220 476 L220 371 L270 385 Z M482 368 L425 352 L482 249 L482 368 Z " />
<glyph glyph-name="Ntilde" unicode="&#xd1;" horiz-adv-x="683" d="M276 843 Q245 843 239 787 L163 787 Q165 860 193.5 900.5 Q222 941 274 941 Q300 941 319 932 Q338 923 362 905 Q378 893 387.5 887.5 Q397 882 408 882 Q439 882 445 939 L521 939 Q519 865 490.5 825 Q462 785 410 785 Q383 785 363 794.5 Q343 804 322 821 Q307 832 297 837.5 Q287 843 276 843 Z M616 724 L616 0 L472 0 L211 471 L211 0 L67 0 L67 724 L211 724 L472 255 L472 724 L616 724 Z " />
<glyph glyph-name="O" unicode="O" horiz-adv-x="672" d="M336 -12 Q192 -12 115.5 82 Q39 176 39 362 Q39 548 115.5 642 Q192 736 336 736 Q480 736 556.5 642 Q633 548 633 362 Q633 176 556.5 82 Q480 -12 336 -12 Z M336 117 Q481 117 481 362 Q481 607 336 607 Q191 607 191 362 Q191 117 336 117 Z " />
<glyph glyph-name="uniA74E" unicode="&#xa74e;" horiz-adv-x="1093" d="M763 736 Q904 736 979 641.5 Q1054 547 1054 362 Q1054 177 979 82.5 Q904 -12 763 -12 Q618 -12 546 96 Q476 -12 330 -12 Q189 -12 114 82.5 Q39 177 39 362 Q39 547 114 641.5 Q189 736 330 736 Q476 736 546 628 Q618 736 763 736 Z M330 117 Q470 117 470 362 Q470 607 330 607 Q191 607 191 362 Q191 117 330 117 Z M763 117 Q834 117 868 177.5 Q902 238 902 362 Q902 607 763 607 Q623 607 623 362 Q623 117 763 117 Z " />
<glyph glyph-name="uni0222" unicode="&#x222;" horiz-adv-x="615" d="M460 375 Q519 351 550.5 303.5 Q582 256 582 192 Q582 95 510.5 41.5 Q439 -12 308 -12 Q177 -12 105 41.5 Q33 95 33 192 Q33 256 65 303.5 Q97 351 155 375 Q104 398 76 441 Q48 484 48 541 Q48 614 92.5 665 Q137 716 218 736 L264 624 Q198 590 198 522 Q198 437 307 437 Q417 437 417 522 Q417 590 350 624 L398 736 Q478 716 522.5 665 Q567 614 567 541 Q567 484 539 441 Q511 398 460 375 Z M308 116 Q431 116 431 212 Q431 311 308 311 Q184 311 184 212 Q184 116 308 116 Z " />
<glyph glyph-name="Oacute" unicode="&#xd3;" horiz-adv-x="672" d="M253 793 L386 926 L540 926 L540 914 L368 781 L253 781 L253 793 Z M336 -12 Q192 -12 115.5 82 Q39 176 39 362 Q39 548 115.5 642 Q192 736 336 736 Q480 736 556.5 642 Q633 548 633 362 Q633 176 556.5 82 Q480 -12 336 -12 Z M336 117 Q481 117 481 362 Q481 607 336 607 Q191 607 191 362 Q191 117 336 117 Z " />
<glyph glyph-name="Obreve" unicode="&#x14e;" horiz-adv-x="672" d="M336 782 Q264 782 223 827 Q182 872 179 955 L257 955 Q267 881 337 881 Q408 881 418 955 L493 955 Q490 872 449 827 Q408 782 336 782 Z M336 -12 Q192 -12 115.5 82 Q39 176 39 362 Q39 548 115.5 642 Q192 736 336 736 Q480 736 556.5 642 Q633 548 633 362 Q633 176 556.5 82 Q480 -12 336 -12 Z M336 117 Q481 117 481 362 Q481 607 336 607 Q191 607 191 362 Q191 117 336 117 Z " />
<glyph glyph-name="uni01D1" unicode="&#x1d1;" horiz-adv-x="672" d="M269 781 L158 914 L158 926 L259 926 L339 848 L417 926 L514 926 L514 914 L403 781 L269 781 Z M336 736 Q480 736 556.5 642 Q633 548 633 362 Q633 176 556.5 82 Q480 -12 336 -12 Q192 -12 115.5 82 Q39 176 39 362 Q39 548 115.5 642 Q192 736 336 736 Z M336 117 Q481 117 481 362 Q481 607 336 607 Q191 607 191 362 Q191 117 336 117 Z " />
<glyph glyph-name="uni019F" unicode="&#x19f;" horiz-adv-x="672" d="M336 736 Q480 736 556.5 642 Q633 548 633 362 Q633 176 556.5 82 Q480 -12 336 -12 Q192 -12 115.5 82 Q39 176 39 362 Q39 548 115.5 642 Q192 736 336 736 Z M336 608 Q209 608 191 424 L481 424 Q463 608 336 608 Z M336 116 Q466 116 481 306 L191 306 Q206 116 336 116 Z " />
<glyph glyph-name="Ocircumflex" unicode="&#xd4;" horiz-adv-x="672" d="M255 781 L158 781 L158 793 L269 926 L403 926 L514 793 L514 781 L413 781 L333 859 L255 781 Z M336 736 Q480 736 556.5 642 Q633 548 633 362 Q633 176 556.5 82 Q480 -12 336 -12 Q192 -12 115.5 82 Q39 176 39 362 Q39 548 115.5 642 Q192 736 336 736 Z M336 117 Q481 117 481 362 Q481 607 336 607 Q191 607 191 362 Q191 117 336 117 Z " />
<glyph glyph-name="uni1ED0" unicode="&#x1ed0;" horiz-adv-x="672" d="M642 1036 L642 1026 L546 899 L458 899 L458 909 L524 1036 L642 1036 Z M264 785 L174 785 L174 795 L274 934 L398 934 L498 795 L498 785 L404 785 L334 864 L264 785 Z M336 736 Q480 736 556.5 642 Q633 548 633 362 Q633 176 556.5 82 Q480 -12 336 -12 Q192 -12 115.5 82 Q39 176 39 362 Q39 548 115.5 642 Q192 736 336 736 Z M336 117 Q481 117 481 362 Q481 607 336 607 Q191 607 191 362 Q191 117 336 117 Z " />
<glyph glyph-name="uni1ED8" unicode="&#x1ed8;" horiz-adv-x="672" d="M255 781 L158 781 L158 793 L269 926 L403 926 L514 793 L514 781 L413 781 L333 859 L255 781 Z M336 736 Q480 736 556.5 642 Q633 548 633 362 Q633 176 556.5 82 Q480 -12 336 -12 Q192 -12 115.5 82 Q39 176 39 362 Q39 548 115.5 642 Q192 736 336 736 Z M336 117 Q481 117 481 362 Q481 607 336 607 Q191 607 191 362 Q191 117 336 117 Z M336 -69 Q375 -69 396.5 -91 Q418 -113 418 -150 Q418 -189 396.5 -210.5 Q375 -232 336 -232 Q297 -232 275.5 -210 Q254 -188 254 -151 Q254 -112 275.5 -90.5 Q297 -69 336 -69 Z " />
<glyph glyph-name="uni1ED2" unicode="&#x1ed2;" horiz-adv-x="672" d="M126 899 L35 1026 L35 1036 L153 1036 L213 909 L213 899 L126 899 Z M174 795 L274 934 L398 934 L498 795 L498 785 L404 785 L334 864 L264 785 L174 785 L174 795 Z M336 736 Q480 736 556.5 642 Q633 548 633 362 Q633 176 556.5 82 Q480 -12 336 -12 Q192 -12 115.5 82 Q39 176 39 362 Q39 548 115.5 642 Q192 736 336 736 Z M336 117 Q481 117 481 362 Q481 607 336 607 Q191 607 191 362 Q191 117 336 117 Z " />
<glyph glyph-name="uni1ED4" unicode="&#x1ed4;" horiz-adv-x="672" d="M486 978 Q465 978 439 965 L416 1017 Q463 1042 514 1042 Q556 1042 579.5 1023.5 Q603 1005 603 971 Q603 947 593 937 Q583 927 565 918 Q554 913 549 909 Q544 905 544 897 Q544 891 545 886 L467 886 Q465 896 465 901 Q465 918 471.5 927 Q478 936 490 943 Q499 949 502 953 Q505 957 505 964 Q505 978 486 978 Z M264 785 L174 785 L174 795 L274 934 L398 934 L498 795 L498 785 L404 785 L334 864 L264 785 Z M336 736 Q480 736 556.5 642 Q633 548 633 362 Q633 176 556.5 82 Q480 -12 336 -12 Q192 -12 115.5 82 Q39 176 39 362 Q39 548 115.5 642 Q192 736 336 736 Z M336 117 Q481 117 481 362 Q481 607 336 607 Q191 607 191 362 Q191 117 336 117 Z " />
<glyph glyph-name="uni1ED6" unicode="&#x1ed6;" horiz-adv-x="672" d="M273 971 Q237 971 233 924 L172 924 Q172 982 200 1014 Q228 1046 279 1046 Q305 1046 321 1038.5 Q337 1031 355 1017 Q367 1007 376.5 1002 Q386 997 398 997 Q434 997 439 1044 L500 1044 Q500 986 472 954 Q444 922 393 922 Q366 922 350 929.5 Q334 937 317 951 Q305 961 295.5 966 Q286 971 273 971 Z M396 898 L498 774 L498 764 L409 764 L335 836 L260 764 L174 764 L174 774 L276 898 L396 898 Z M336 736 Q480 736 556.5 642 Q633 548 633 362 Q633 176 556.5 82 Q480 -12 336 -12 Q192 -12 115.5 82 Q39 176 39 362 Q39 548 115.5 642 Q192 736 336 736 Z M336 117 Q481 117 481 362 Q481 607 336 607 Q191 607 191 362 Q191 117 336 117 Z " />
<glyph glyph-name="uni020C" unicode="&#x20c;" horiz-adv-x="672" d="M109 914 L109 926 L236 926 L312 793 L312 781 L222 781 L109 914 Z M282 914 L282 926 L406 926 L480 793 L480 781 L393 781 L282 914 Z M336 -12 Q192 -12 115.5 82 Q39 176 39 362 Q39 548 115.5 642 Q192 736 336 736 Q480 736 556.5 642 Q633 548 633 362 Q633 176 556.5 82 Q480 -12 336 -12 Z M336 117 Q481 117 481 362 Q481 607 336 607 Q191 607 191 362 Q191 117 336 117 Z " />
<glyph glyph-name="Odieresis" unicode="&#xd6;" horiz-adv-x="672" d="M239 782 Q206 782 187 802 Q168 822 168 855 Q168 890 187 909.5 Q206 929 240 929 Q273 929 292 909 Q311 889 311 856 Q311 821 292 801.5 Q273 782 239 782 Z M432 782 Q399 782 380 802 Q361 822 361 855 Q361 890 380 909.5 Q399 929 433 929 Q466 929 485 909 Q504 889 504 856 Q504 821 485 801.5 Q466 782 432 782 Z M336 -12 Q192 -12 115.5 82 Q39 176 39 362 Q39 548 115.5 642 Q192 736 336 736 Q480 736 556.5 642 Q633 548 633 362 Q633 176 556.5 82 Q480 -12 336 -12 Z M336 117 Q481 117 481 362 Q481 607 336 607 Q191 607 191 362 Q191 117 336 117 Z " />
<glyph glyph-name="uni022A" unicode="&#x22a;" horiz-adv-x="672" d="M177 1039 L495 1039 L495 948 L177 948 L177 1039 Z M242 780 Q209 780 190.5 799 Q172 818 172 851 Q172 885 190.5 903.5 Q209 922 242 922 Q275 922 293.5 903 Q312 884 312 851 Q312 817 293.5 798.5 Q275 780 242 780 Z M429 780 Q396 780 377.5 799 Q359 818 359 851 Q359 885 377.5 903.5 Q396 922 429 922 Q462 922 480.5 903 Q499 884 499 851 Q499 817 480.5 798.5 Q462 780 429 780 Z M336 -12 Q192 -12 115.5 82 Q39 176 39 362 Q39 548 115.5 642 Q192 736 336 736 Q480 736 556.5 642 Q633 548 633 362 Q633 176 556.5 82 Q480 -12 336 -12 Z M336 117 Q481 117 481 362 Q481 607 336 607 Q191 607 191 362 Q191 117 336 117 Z " />
<glyph glyph-name="uni022E" unicode="&#x22e;" horiz-adv-x="672" d="M336 786 Q297 786 275.5 808 Q254 830 254 867 Q254 905 275.5 926.5 Q297 948 336 948 Q375 948 396.5 926.5 Q418 905 418 868 Q418 829 396.5 807.5 Q375 786 336 786 Z M336 -12 Q192 -12 115.5 82 Q39 176 39 362 Q39 548 115.5 642 Q192 736 336 736 Q480 736 556.5 642 Q633 548 633 362 Q633 176 556.5 82 Q480 -12 336 -12 Z M336 117 Q481 117 481 362 Q481 607 336 607 Q191 607 191 362 Q191 117 336 117 Z " />
<glyph glyph-name="uni0230" unicode="&#x230;" horiz-adv-x="672" d="M177 1047 L495 1047 L495 956 L177 956 L177 1047 Z M336 778 Q298 778 277 799 Q256 820 256 856 Q256 893 277 913.5 Q298 934 336 934 Q373 934 394 913.5 Q415 893 415 857 Q415 820 394.5 799 Q374 778 336 778 Z M336 -12 Q192 -12 115.5 82 Q39 176 39 362 Q39 548 115.5 642 Q192 736 336 736 Q480 736 556.5 642 Q633 548 633 362 Q633 176 556.5 82 Q480 -12 336 -12 Z M336 117 Q481 117 481 362 Q481 607 336 607 Q191 607 191 362 Q191 117 336 117 Z " />
<glyph glyph-name="uni1ECC" unicode="&#x1ecc;" horiz-adv-x="672" d="M336 -12 Q192 -12 115.5 82 Q39 176 39 362 Q39 548 115.5 642 Q192 736 336 736 Q480 736 556.5 642 Q633 548 633 362 Q633 176 556.5 82 Q480 -12 336 -12 Z M336 117 Q481 117 481 362 Q481 607 336 607 Q191 607 191 362 Q191 117 336 117 Z M336 -232 Q297 -232 275.5 -210 Q254 -188 254 -151 Q254 -112 275.5 -90.5 Q297 -69 336 -69 Q375 -69 396.5 -91 Q418 -113 418 -150 Q418 -189 396.5 -210.5 Q375 -232 336 -232 Z " />
<glyph glyph-name="Ograve" unicode="&#xd2;" horiz-adv-x="672" d="M140 914 L140 926 L294 926 L418 793 L418 781 L303 781 L140 914 Z M336 -12 Q192 -12 115.5 82 Q39 176 39 362 Q39 548 115.5 642 Q192 736 336 736 Q480 736 556.5 642 Q633 548 633 362 Q633 176 556.5 82 Q480 -12 336 -12 Z M336 117 Q481 117 481 362 Q481 607 336 607 Q191 607 191 362 Q191 117 336 117 Z " />
<glyph glyph-name="uni1ECE" unicode="&#x1ece;" horiz-adv-x="672" d="M289 781 Q287 793 287 803 Q287 822 295.5 832 Q304 842 319 850 Q328 856 332.5 860 Q337 864 337 871 Q337 886 315 886 Q292 886 252 866 L224 929 Q250 945 282 953.5 Q314 962 348 962 Q399 962 427 941.5 Q455 921 455 884 Q455 856 442 843.5 Q429 831 407 821 Q393 815 387 810.5 Q381 806 381 798 L383 781 L289 781 Z M336 -12 Q192 -12 115.5 82 Q39 176 39 362 Q39 548 115.5 642 Q192 736 336 736 Q480 736 556.5 642 Q633 548 633 362 Q633 176 556.5 82 Q480 -12 336 -12 Z M336 117 Q481 117 481 362 Q481 607 336 607 Q191 607 191 362 Q191 117 336 117 Z " />
<glyph glyph-name="Ohorn" unicode="&#x1a0;" horiz-adv-x="674" d="M680 804 Q680 729 651.5 690.5 Q623 652 557 640 Q633 544 633 362 Q633 176 556.5 82 Q480 -12 336 -12 Q192 -12 115.5 82 Q39 176 39 362 Q39 548 115.5 642 Q192 736 336 736 Q370 736 390.5 732.5 Q411 729 434 723 Q463 714 486 714 Q528 714 544 733 Q560 752 560 802 Q560 824 556 863 L677 863 Q680 809 680 804 Z M336 117 Q481 117 481 362 Q481 607 336 607 Q191 607 191 362 Q191 117 336 117 Z " />
<glyph glyph-name="uni1EDA" unicode="&#x1eda;" horiz-adv-x="674" d="M368 781 L253 781 L253 793 L386 926 L540 926 L540 914 L368 781 Z M680 804 Q680 729 651.5 690.5 Q623 652 557 640 Q633 544 633 362 Q633 176 556.5 82 Q480 -12 336 -12 Q192 -12 115.5 82 Q39 176 39 362 Q39 548 115.5 642 Q192 736 336 736 Q370 736 390.5 732.5 Q411 729 434 723 Q463 714 486 714 Q528 714 544 733 Q560 752 560 802 Q560 824 556 863 L677 863 Q680 809 680 804 Z M336 117 Q481 117 481 362 Q481 607 336 607 Q191 607 191 362 Q191 117 336 117 Z " />
<glyph glyph-name="uni1EE2" unicode="&#x1ee2;" horiz-adv-x="674" d="M680 804 Q680 729 651.5 690.5 Q623 652 557 640 Q633 544 633 362 Q633 176 556.5 82 Q480 -12 336 -12 Q192 -12 115.5 82 Q39 176 39 362 Q39 548 115.5 642 Q192 736 336 736 Q370 736 390.5 732.5 Q411 729 434 723 Q463 714 486 714 Q528 714 544 733 Q560 752 560 802 Q560 824 556 863 L677 863 Q680 809 680 804 Z M336 117 Q481 117 481 362 Q481 607 336 607 Q191 607 191 362 Q191 117 336 117 Z M336 -232 Q297 -232 275.5 -210 Q254 -188 254 -151 Q254 -112 275.5 -90.5 Q297 -69 336 -69 Q375 -69 396.5 -91 Q418 -113 418 -150 Q418 -189 396.5 -210.5 Q375 -232 336 -232 Z " />
<glyph glyph-name="uni1EDC" unicode="&#x1edc;" horiz-adv-x="674" d="M303 781 L140 914 L140 926 L294 926 L418 793 L418 781 L303 781 Z M680 804 Q680 729 651.5 690.5 Q623 652 557 640 Q633 544 633 362 Q633 176 556.5 82 Q480 -12 336 -12 Q192 -12 115.5 82 Q39 176 39 362 Q39 548 115.5 642 Q192 736 336 736 Q370 736 390.5 732.5 Q411 729 434 723 Q463 714 486 714 Q528 714 544 733 Q560 752 560 802 Q560 824 556 863 L677 863 Q680 809 680 804 Z M336 117 Q481 117 481 362 Q481 607 336 607 Q191 607 191 362 Q191 117 336 117 Z " />
<glyph glyph-name="uni1EDE" unicode="&#x1ede;" horiz-adv-x="674" d="M315 886 Q292 886 252 866 L224 929 Q250 945 282 953.5 Q314 962 348 962 Q399 962 427 941.5 Q455 921 455 884 Q455 856 442 843.5 Q429 831 407 821 Q393 815 387 810.5 Q381 806 381 798 L383 781 L289 781 Q287 793 287 803 Q287 822 295.5 832 Q304 842 319 850 Q328 856 332.5 860 Q337 864 337 871 Q337 886 315 886 Z M680 804 Q680 729 651.5 690.5 Q623 652 557 640 Q633 544 633 362 Q633 176 556.5 82 Q480 -12 336 -12 Q192 -12 115.5 82 Q39 176 39 362 Q39 548 115.5 642 Q192 736 336 736 Q370 736 390.5 732.5 Q411 729 434 723 Q463 714 486 714 Q528 714 544 733 Q560 752 560 802 Q560 824 556 863 L677 863 Q680 809 680 804 Z M336 117 Q481 117 481 362 Q481 607 336 607 Q191 607 191 362 Q191 117 336 117 Z " />
<glyph glyph-name="uni1EE0" unicode="&#x1ee0;" horiz-adv-x="674" d="M270 843 Q239 843 233 787 L157 787 Q159 860 187.5 900.5 Q216 941 268 941 Q294 941 313 932 Q332 923 356 905 Q372 893 381.5 887.5 Q391 882 402 882 Q433 882 439 939 L515 939 Q513 865 484.5 825 Q456 785 404 785 Q377 785 357 794.5 Q337 804 316 821 Q301 832 291 837.5 Q281 843 270 843 Z M680 804 Q680 729 651.5 690.5 Q623 652 557 640 Q633 544 633 362 Q633 176 556.5 82 Q480 -12 336 -12 Q192 -12 115.5 82 Q39 176 39 362 Q39 548 115.5 642 Q192 736 336 736 Q370 736 390.5 732.5 Q411 729 434 723 Q463 714 486 714 Q528 714 544 733 Q560 752 560 802 Q560 824 556 863 L677 863 Q680 809 680 804 Z M336 117 Q481 117 481 362 Q481 607 336 607 Q191 607 191 362 Q191 117 336 117 Z " />
<glyph glyph-name="Ohungarumlaut" unicode="&#x150;" horiz-adv-x="672" d="M192 793 L275 926 L399 926 L399 914 L279 781 L192 781 L192 793 Z M359 793 L445 926 L572 926 L572 914 L450 781 L359 781 L359 793 Z M336 -12 Q192 -12 115.5 82 Q39 176 39 362 Q39 548 115.5 642 Q192 736 336 736 Q480 736 556.5 642 Q633 548 633 362 Q633 176 556.5 82 Q480 -12 336 -12 Z M336 117 Q481 117 481 362 Q481 607 336 607 Q191 607 191 362 Q191 117 336 117 Z " />
<glyph glyph-name="uni01A2" unicode="&#x1a2;" horiz-adv-x="869" d="M802 724 L802 -208 L654 -208 L654 595 L585 595 L585 45 Q533 19 468 4.5 Q403 -10 338 -10 Q193 -10 116 83.5 Q39 177 39 362 Q39 547 116 640.5 Q193 734 338 734 Q357 734 392 731 Q488 724 585 724 L802 724 Z M338 119 Q392 119 436 129 L436 601 Q426 602 397 604 Q368 606 338 606 Q191 606 191 362 Q191 240 227 179.5 Q263 119 338 119 Z " />
<glyph glyph-name="uni020E" unicode="&#x20e;" horiz-adv-x="672" d="M336 963 Q408 963 449 918 Q490 873 493 790 L415 790 Q405 864 335 864 Q264 864 254 790 L179 790 Q182 873 223 918 Q264 963 336 963 Z M336 -12 Q192 -12 115.5 82 Q39 176 39 362 Q39 548 115.5 642 Q192 736 336 736 Q480 736 556.5 642 Q633 548 633 362 Q633 176 556.5 82 Q480 -12 336 -12 Z M336 117 Q481 117 481 362 Q481 607 336 607 Q191 607 191 362 Q191 117 336 117 Z " />
<glyph glyph-name="uniA74A" unicode="&#xa74a;" horiz-adv-x="726" d="M727 312 L658 312 Q648 151 572.5 69.5 Q497 -12 363 -12 Q229 -12 153.5 69.5 Q78 151 68 312 L-1 312 L-1 415 L68 415 Q78 575 154 655.5 Q230 736 363 736 Q496 736 572 655.5 Q648 575 658 415 L727 415 L727 312 Z M363 612 Q230 612 215 415 L511 415 Q496 612 363 612 Z M363 112 Q498 112 511 312 L215 312 Q228 112 363 112 Z " />
<glyph glyph-name="uniA74C" unicode="&#xa74c;" horiz-adv-x="885" d="M642 736 Q749 736 807.5 670 Q866 604 866 476 Q866 347 807.5 281 Q749 215 642 215 Q626 215 618 216 Q591 103 519.5 45.5 Q448 -12 336 -12 Q192 -12 115.5 82 Q39 176 39 362 Q39 548 115.5 642 Q192 736 336 736 Q438 736 505 690 Q552 736 642 736 Z M642 316 Q747 316 747 476 Q747 635 642 635 Q604 635 576 613 Q633 519 633 362 L632 316 L642 316 Z M336 117 Q481 117 481 362 Q481 607 336 607 Q191 607 191 362 Q191 117 336 117 Z " />
<glyph glyph-name="Omacron" unicode="&#x14c;" horiz-adv-x="672" d="M177 901 L495 901 L495 807 L177 807 L177 901 Z M336 -12 Q192 -12 115.5 82 Q39 176 39 362 Q39 548 115.5 642 Q192 736 336 736 Q480 736 556.5 642 Q633 548 633 362 Q633 176 556.5 82 Q480 -12 336 -12 Z M336 117 Q481 117 481 362 Q481 607 336 607 Q191 607 191 362 Q191 117 336 117 Z " />
<glyph glyph-name="uni1E52" unicode="&#x1e52;" horiz-adv-x="672" d="M285 920 L351 1047 L469 1047 L469 1037 L373 910 L285 910 L285 920 Z M177 879 L495 879 L495 785 L177 785 L177 879 Z M336 -12 Q192 -12 115.5 82 Q39 176 39 362 Q39 548 115.5 642 Q192 736 336 736 Q480 736 556.5 642 Q633 548 633 362 Q633 176 556.5 82 Q480 -12 336 -12 Z M336 117 Q481 117 481 362 Q481 607 336 607 Q191 607 191 362 Q191 117 336 117 Z " />
<glyph glyph-name="uni1E50" unicode="&#x1e50;" horiz-adv-x="672" d="M202 1037 L202 1047 L320 1047 L380 920 L380 910 L293 910 L202 1037 Z M177 879 L495 879 L495 785 L177 785 L177 879 Z M336 -12 Q192 -12 115.5 82 Q39 176 39 362 Q39 548 115.5 642 Q192 736 336 736 Q480 736 556.5 642 Q633 548 633 362 Q633 176 556.5 82 Q480 -12 336 -12 Z M336 117 Q481 117 481 362 Q481 607 336 607 Q191 607 191 362 Q191 117 336 117 Z " />
<glyph glyph-name="uni01EA" unicode="&#x1ea;" horiz-adv-x="672" d="M474 14 Q428 -11 407.5 -38 Q387 -65 387 -100 Q387 -142 429 -142 Q456 -142 480 -130 L509 -201 Q458 -231 394 -231 Q336 -231 304 -203.5 Q272 -176 272 -127 Q272 -63 327 -12 Q187 -9 113 85.5 Q39 180 39 362 Q39 548 115.5 642 Q192 736 336 736 Q480 736 556.5 642 Q633 548 633 362 L633 361 Q633 101 474 14 Z M191 362 Q191 117 336 117 Q481 117 481 362 Q481 607 336 607 Q191 607 191 362 Z " />
<glyph glyph-name="uni01EC" unicode="&#x1ec;" horiz-adv-x="672" d="M495 807 L177 807 L177 901 L495 901 L495 807 Z M474 14 Q428 -11 407.5 -38 Q387 -65 387 -100 Q387 -142 429 -142 Q456 -142 480 -130 L509 -201 Q458 -231 394 -231 Q336 -231 304 -203.5 Q272 -176 272 -127 Q272 -63 327 -12 Q187 -9 113 85.5 Q39 180 39 362 Q39 548 115.5 642 Q192 736 336 736 Q480 736 556.5 642 Q633 548 633 362 L633 361 Q633 101 474 14 Z M191 362 Q191 117 336 117 Q481 117 481 362 Q481 607 336 607 Q191 607 191 362 Z " />
<glyph glyph-name="uni0186" unicode="&#x186;" horiz-adv-x="564" d="M214 735 Q366 735 450 641.5 Q534 548 534 377 Q534 258 496 170.5 Q458 83 387 35.5 Q316 -12 219 -12 Q166 -12 115 3 Q64 18 25 46 L70 157 Q153 118 217 118 Q296 118 338.5 183 Q381 248 381 366 Q381 602 204 602 Q132 602 64 568 L19 677 Q50 705 101 720 Q152 735 214 735 Z " />
<glyph glyph-name="Oslash" unicode="&#xd8;" horiz-adv-x="672" d="M659 723 L573 613 Q633 518 633 362 Q633 176 556.5 82 Q480 -12 336 -12 Q229 -12 158 44 L120 -10 L13 -10 L13 1 L99 111 Q39 206 39 362 Q39 548 115.5 642 Q192 736 336 736 Q443 736 514 680 L552 734 L659 734 L659 723 Z M336 612 Q186 612 186 362 Q186 289 196 242 L437 572 Q401 612 336 612 Z M336 112 Q486 112 486 362 Q486 435 476 482 L235 152 Q271 112 336 112 Z " />
<glyph glyph-name="Oslashacute" unicode="&#x1fe;" horiz-adv-x="672" d="M368 781 L253 781 L253 793 L386 926 L540 926 L540 914 L368 781 Z M659 723 L573 613 Q633 518 633 362 Q633 176 556.5 82 Q480 -12 336 -12 Q229 -12 158 44 L120 -10 L13 -10 L13 1 L99 111 Q39 206 39 362 Q39 548 115.5 642 Q192 736 336 736 Q443 736 514 680 L552 734 L659 734 L659 723 Z M336 612 Q186 612 186 362 Q186 289 196 242 L437 572 Q401 612 336 612 Z M336 112 Q486 112 486 362 Q486 435 476 482 L235 152 Q271 112 336 112 Z " />
<glyph glyph-name="Otilde" unicode="&#xd5;" horiz-adv-x="672" d="M404 785 Q377 785 357 794.5 Q337 804 316 821 Q301 832 291 837.5 Q281 843 270 843 Q239 843 233 787 L157 787 Q159 860 187.5 900.5 Q216 941 268 941 Q294 941 313 932 Q332 923 356 905 Q372 893 381.5 887.5 Q391 882 402 882 Q433 882 439 939 L515 939 Q513 865 484.5 825 Q456 785 404 785 Z M336 -12 Q192 -12 115.5 82 Q39 176 39 362 Q39 548 115.5 642 Q192 736 336 736 Q480 736 556.5 642 Q633 548 633 362 Q633 176 556.5 82 Q480 -12 336 -12 Z M336 117 Q481 117 481 362 Q481 607 336 607 Q191 607 191 362 Q191 117 336 117 Z " />
<glyph glyph-name="uni1E4C" unicode="&#x1e4c;" horiz-adv-x="672" d="M288 920 L354 1047 L472 1047 L472 1037 L376 910 L288 910 L288 920 Z M393 763 Q366 763 350 770.5 Q334 778 317 792 Q305 802 296 807 Q287 812 274 812 Q237 812 234 765 L172 765 Q172 823 200 855 Q228 887 279 887 Q305 887 320.5 879.5 Q336 872 355 858 Q367 848 376.5 843 Q386 838 398 838 Q435 838 439 885 L500 885 Q500 827 472 795 Q444 763 393 763 Z M336 -12 Q192 -12 115.5 82 Q39 176 39 362 Q39 548 115.5 642 Q192 736 336 736 Q480 736 556.5 642 Q633 548 633 362 Q633 176 556.5 82 Q480 -12 336 -12 Z M336 117 Q481 117 481 362 Q481 607 336 607 Q191 607 191 362 Q191 117 336 117 Z " />
<glyph glyph-name="uni1E4E" unicode="&#x1e4e;" horiz-adv-x="672" d="M247 922 Q216 922 198.5 939 Q181 956 181 984 Q181 1014 198.5 1030.5 Q216 1047 247 1047 Q278 1047 295.5 1030.5 Q313 1014 313 985 Q313 955 295.5 938.5 Q278 922 247 922 Z M425 922 Q394 922 376.5 939 Q359 956 359 984 Q359 1014 376.5 1030.5 Q394 1047 425 1047 Q456 1047 473.5 1030.5 Q491 1014 491 985 Q491 955 473.5 938.5 Q456 922 425 922 Z M393 767 Q366 767 349.5 774.5 Q333 782 317 796 Q304 806 295.5 810.5 Q287 815 274 815 Q237 815 234 769 L172 769 Q172 827 200 858.5 Q228 890 279 890 Q306 890 322 882.5 Q338 875 355 861 Q368 851 377 846.5 Q386 842 398 842 Q435 842 439 888 L500 888 Q500 830 472 798.5 Q444 767 393 767 Z M336 -12 Q192 -12 115.5 82 Q39 176 39 362 Q39 548 115.5 642 Q192 736 336 736 Q480 736 556.5 642 Q633 548 633 362 Q633 176 556.5 82 Q480 -12 336 -12 Z M336 117 Q481 117 481 362 Q481 607 336 607 Q191 607 191 362 Q191 117 336 117 Z " />
<glyph glyph-name="uni022C" unicode="&#x22c;" horiz-adv-x="672" d="M177 1044 L495 1044 L495 953 L177 953 L177 1044 Z M393 788 Q366 788 350 795.5 Q334 803 317 817 Q305 827 296 832 Q287 837 274 837 Q237 837 234 790 L172 790 Q172 848 200 879.5 Q228 911 279 911 Q306 911 322 903.5 Q338 896 355 882 Q368 872 377 867.5 Q386 863 398 863 Q435 863 439 909 L500 909 Q500 851 472 819.5 Q444 788 393 788 Z M336 -12 Q192 -12 115.5 82 Q39 176 39 362 Q39 548 115.5 642 Q192 736 336 736 Q480 736 556.5 642 Q633 548 633 362 Q633 176 556.5 82 Q480 -12 336 -12 Z M336 117 Q481 117 481 362 Q481 607 336 607 Q191 607 191 362 Q191 117 336 117 Z " />
<glyph glyph-name="OE" unicode="&#x152;" horiz-adv-x="907" d="M886 129 L886 0 L448 0 L338 0 Q193 0 116 91 Q39 182 39 362 Q39 542 116 633 Q193 724 338 724 L497 724 L872 724 L872 595 L592 595 L592 434 L793 434 L793 305 L592 305 L592 129 L886 129 Z M448 129 L448 595 L338 595 Q264 595 227.5 537 Q191 479 191 362 Q191 245 227.5 187 Q264 129 338 129 L448 129 Z " />
<glyph glyph-name="P" unicode="P" horiz-adv-x="563" d="M326 724 Q437 724 499 658 Q561 592 561 474 Q561 355 497.5 288.5 Q434 222 320 222 L215 222 L215 0 L67 0 L67 724 L215 724 L326 724 Z M326 350 Q410 350 410 470 Q410 532 387 564 Q364 596 320 596 L215 596 L215 350 L326 350 Z " />
<glyph glyph-name="uni1E54" unicode="&#x1e54;" horiz-adv-x="563" d="M321 781 L206 781 L206 793 L339 926 L493 926 L493 914 L321 781 Z M326 724 Q437 724 499 658 Q561 592 561 474 Q561 355 497.5 288.5 Q434 222 320 222 L215 222 L215 0 L67 0 L67 724 L215 724 L326 724 Z M326 350 Q410 350 410 470 Q410 532 387 564 Q364 596 320 596 L215 596 L215 350 L326 350 Z " />
<glyph glyph-name="uni1E56" unicode="&#x1e56;" horiz-adv-x="563" d="M289 786 Q250 786 228.5 808 Q207 830 207 867 Q207 905 228.5 926.5 Q250 948 289 948 Q328 948 349.5 926.5 Q371 905 371 868 Q371 829 349.5 807.5 Q328 786 289 786 Z M326 724 Q437 724 499 658 Q561 592 561 474 Q561 355 497.5 288.5 Q434 222 320 222 L215 222 L215 0 L67 0 L67 724 L215 724 L326 724 Z M326 350 Q410 350 410 470 Q410 532 387 564 Q364 596 320 596 L215 596 L215 350 L326 350 Z " />
<glyph glyph-name="uniA752" unicode="&#xa752;" horiz-adv-x="696" d="M459 724 Q570 724 632 658 Q694 592 694 474 Q694 355 630.5 288.5 Q567 222 453 222 L348 222 L348 0 L200 0 L200 225 Q164 221 146.5 198 Q129 175 129 129 Q129 114 132 82 L4 82 Q0 106 0 131 Q0 232 52.5 289 Q105 346 200 350 L200 724 L348 724 L459 724 Z M459 350 Q543 350 543 470 Q543 532 520 564 Q497 596 453 596 L348 596 L348 350 L459 350 Z " />
<glyph glyph-name="uni01A4" unicode="&#x1a4;" horiz-adv-x="641" d="M404 724 Q515 724 577 658 Q639 592 639 474 Q639 355 575.5 288.5 Q512 222 398 222 L293 222 L293 0 L146 0 L146 595 Q120 595 108 579.5 Q96 564 96 529 Q96 514 99 482 L-29 482 Q-33 505 -33 531 Q-33 626 12.5 675 Q58 724 146 724 L293 724 L404 724 Z M404 350 Q489 350 489 470 Q489 532 466 564 Q443 596 398 596 L293 596 L293 350 L404 350 Z " />
<glyph glyph-name="Thorn" unicode="&#xde;" horiz-adv-x="584" d="M321 618 Q433 618 494.5 553.5 Q556 489 556 371 Q556 252 493 187 Q430 122 315 122 L215 122 L215 0 L67 0 L67 724 L215 724 L215 618 L321 618 Z M321 250 Q405 250 405 367 Q405 490 315 490 L215 490 L215 250 L321 250 Z " />
<glyph glyph-name="uniA754" unicode="&#xa754;" horiz-adv-x="695" d="M458 724 Q569 724 631 658 Q693 592 693 474 Q693 355 629.5 288.5 Q566 222 452 222 L347 222 L347 0 L199 0 L199 241 Q114 248 67.5 295.5 Q21 343 21 425 Q21 458 27 481 Q33 504 45 533 Q54 556 58 568.5 Q62 581 62 597 Q62 621 48.5 636.5 Q35 652 -2 670 L34 738 Q107 708 135 678.5 Q163 649 163 601 Q163 576 158 557 Q153 538 143 513 Q134 492 129 474.5 Q124 457 124 437 Q124 361 199 349 L199 724 L347 724 L458 724 Z M458 350 Q542 350 542 470 Q542 596 452 596 L347 596 L347 350 L458 350 Z " />
<glyph glyph-name="uni2C63" unicode="&#x2c63;" horiz-adv-x="566" d="M329 724 Q441 724 502.5 658.5 Q564 593 564 474 Q564 355 501 288.5 Q438 222 323 222 L218 222 L218 0 L71 0 L71 424 L13 424 L13 521 L71 521 L71 724 L218 724 L329 724 Z M329 350 Q414 350 414 470 Q414 532 391 564 Q368 596 323 596 L218 596 L218 518 L325 518 L325 427 L218 427 L218 350 L329 350 Z " />
<glyph glyph-name="uniA750" unicode="&#xa750;" horiz-adv-x="566" d="M218 222 L218 164 L367 164 L367 58 L218 58 L218 0 L71 0 L71 58 L13 58 L13 164 L71 164 L71 724 L218 724 L329 724 Q441 724 502.5 658.5 Q564 593 564 474 Q564 355 501 288.5 Q438 222 323 222 L218 222 Z M218 596 L218 350 L329 350 Q414 350 414 470 Q414 532 391 564 Q368 596 323 596 L218 596 Z " />
<glyph glyph-name="Q" unicode="Q" horiz-adv-x="672" d="M554 -165 L423 -2 Q386 -12 336 -12 Q192 -12 115.5 82 Q39 176 39 362 Q39 548 115.5 642 Q192 736 336 736 Q480 736 556.5 642 Q633 548 633 362 Q633 146 530 54 L647 -78 L554 -165 Z M191 362 Q191 117 336 117 Q481 117 481 362 Q481 607 336 607 Q191 607 191 362 Z " />
<glyph glyph-name="uniA758" unicode="&#xa758;" horiz-adv-x="767" d="M770 280 Q781 242 781 213 Q781 166 754.5 122 Q728 78 670 25 L606 -33 L647 -78 L554 -165 L514 -116 L426 -196 L376 -137 L466 -55 L423 -2 Q386 -12 336 -12 Q192 -12 115.5 82 Q39 176 39 362 Q39 548 115.5 642 Q192 736 336 736 Q480 736 556.5 642 Q633 548 633 362 Q633 146 530 54 L555 25 L620 83 Q657 116 672.5 144.5 Q688 173 688 205 Q688 225 680 252 L770 280 Z M191 362 Q191 117 336 117 Q481 117 481 362 Q481 607 336 607 Q191 607 191 362 Z " />
<glyph glyph-name="uni024A" unicode="&#x24a;" horiz-adv-x="642" d="M674 -201 Q635 -217 588 -217 Q427 -217 427 -57 L427 73 Q399 30 358.5 9 Q318 -12 263 -12 Q156 -12 97.5 86 Q39 184 39 362 Q39 540 97.5 638 Q156 736 262 736 Q311 736 354.5 716 Q398 696 427 661 L427 724 L575 724 L575 0 L575 -45 Q575 -69 582.5 -78.5 Q590 -88 608 -88 Q631 -88 653 -82 L674 -201 Z M311 119 Q345 119 372 132.5 Q399 146 427 177 L427 550 Q403 577 371 593 Q339 609 308 609 Q191 609 191 366 Q191 119 311 119 Z " />
<glyph glyph-name="uniA756" unicode="&#xa756;" horiz-adv-x="677" d="M606 -32 L647 -78 L554 -165 L515 -116 L429 -196 L378 -137 L467 -56 L423 -2 Q386 -12 336 -12 Q192 -12 115.5 82 Q39 176 39 362 Q39 548 115.5 642 Q192 736 336 736 Q480 736 556.5 642 Q633 548 633 362 Q633 146 530 54 L555 25 L651 113 L701 55 L606 -32 Z M191 362 Q191 117 336 117 Q481 117 481 362 Q481 607 336 607 Q191 607 191 362 Z " />
<glyph glyph-name="R" unicode="R" horiz-adv-x="598" d="M280 245 L215 245 L215 0 L67 0 L67 724 L215 724 L317 724 Q428 724 489 661.5 Q550 599 550 485 Q550 404 518.5 348.5 Q487 293 428 267 L596 0 L420 0 L280 245 Z M215 368 L317 368 Q400 368 400 482 Q400 598 313 598 L215 598 L215 368 Z " />
<glyph glyph-name="Racute" unicode="&#x154;" horiz-adv-x="598" d="M331 781 L216 781 L216 793 L349 926 L503 926 L503 914 L331 781 Z M280 245 L215 245 L215 0 L67 0 L67 724 L215 724 L317 724 Q428 724 489 661.5 Q550 599 550 485 Q550 404 518.5 348.5 Q487 293 428 267 L596 0 L420 0 L280 245 Z M215 368 L317 368 Q400 368 400 482 Q400 598 313 598 L215 598 L215 368 Z " />
<glyph glyph-name="Rcaron" unicode="&#x158;" horiz-adv-x="598" d="M232 781 L121 914 L121 926 L222 926 L302 848 L380 926 L477 926 L477 914 L366 781 L232 781 Z M280 245 L215 245 L215 0 L67 0 L67 724 L215 724 L317 724 Q428 724 489 661.5 Q550 599 550 485 Q550 404 518.5 348.5 Q487 293 428 267 L596 0 L420 0 L280 245 Z M215 368 L317 368 Q400 368 400 482 Q400 598 313 598 L215 598 L215 368 Z " />
<glyph glyph-name="Rcommaaccent" unicode="&#x156;" horiz-adv-x="598" d="M280 245 L215 245 L215 0 L67 0 L67 724 L215 724 L317 724 Q428 724 489 661.5 Q550 599 550 485 Q550 404 518.5 348.5 Q487 293 428 267 L596 0 L420 0 L280 245 Z M215 368 L317 368 Q400 368 400 482 Q400 598 313 598 L215 598 L215 368 Z M215 -239 Q238 -212 247.5 -184.5 Q257 -157 257 -116 Q257 -90 253 -62 L378 -62 Q383 -85 383 -115 Q383 -164 355.5 -206.5 Q328 -249 267 -293 L215 -239 Z " />
<glyph glyph-name="uni0210" unicode="&#x210;" horiz-adv-x="598" d="M185 781 L72 914 L72 926 L199 926 L275 793 L275 781 L185 781 Z M356 781 L245 914 L245 926 L369 926 L443 793 L443 781 L356 781 Z M280 245 L215 245 L215 0 L67 0 L67 724 L215 724 L317 724 Q428 724 489 661.5 Q550 599 550 485 Q550 404 518.5 348.5 Q487 293 428 267 L596 0 L420 0 L280 245 Z M215 368 L317 368 Q400 368 400 482 Q400 598 313 598 L215 598 L215 368 Z " />
<glyph glyph-name="uni1E58" unicode="&#x1e58;" horiz-adv-x="598" d="M299 786 Q260 786 238.5 808 Q217 830 217 867 Q217 905 238.5 926.5 Q260 948 299 948 Q338 948 359.5 926.5 Q381 905 381 868 Q381 829 359.5 807.5 Q338 786 299 786 Z M280 245 L215 245 L215 0 L67 0 L67 724 L215 724 L317 724 Q428 724 489 661.5 Q550 599 550 485 Q550 404 518.5 348.5 Q487 293 428 267 L596 0 L420 0 L280 245 Z M215 368 L317 368 Q400 368 400 482 Q400 598 313 598 L215 598 L215 368 Z " />
<glyph glyph-name="uni1E5A" unicode="&#x1e5a;" horiz-adv-x="598" d="M280 245 L215 245 L215 0 L67 0 L67 724 L215 724 L317 724 Q428 724 489 661.5 Q550 599 550 485 Q550 404 518.5 348.5 Q487 293 428 267 L596 0 L420 0 L280 245 Z M215 368 L317 368 Q400 368 400 482 Q400 598 313 598 L215 598 L215 368 Z M318 -232 Q279 -232 257.5 -210 Q236 -188 236 -151 Q236 -112 257.5 -90.5 Q279 -69 318 -69 Q357 -69 378.5 -91 Q400 -113 400 -150 Q400 -189 378.5 -210.5 Q357 -232 318 -232 Z " />
<glyph glyph-name="uni1E5C" unicode="&#x1e5c;" horiz-adv-x="598" d="M458 807 L140 807 L140 901 L458 901 L458 807 Z M596 0 L420 0 L280 245 L215 245 L215 0 L67 0 L67 724 L215 724 L317 724 Q428 724 489 661.5 Q550 599 550 485 Q550 404 518.5 348.5 Q487 293 428 267 L596 0 Z M215 368 L317 368 Q400 368 400 482 Q400 598 313 598 L215 598 L215 368 Z M318 -69 Q357 -69 378.5 -91 Q400 -113 400 -150 Q400 -189 378.5 -210.5 Q357 -232 318 -232 Q279 -232 257.5 -210 Q236 -188 236 -151 Q236 -112 257.5 -90.5 Q279 -69 318 -69 Z " />
<glyph glyph-name="uniA782" unicode="&#xa782;" horiz-adv-x="678" d="M672 10 Q636 -6 589 -6 Q435 -6 435 145 L435 377 L435 513 Q435 559 411.5 581 Q388 603 340 603 Q306 603 276.5 591 Q247 579 215 553 L215 -207 L67 -207 L67 724 L208 724 L208 647 Q282 736 392 736 Q483 736 533 677 Q583 618 583 512 L583 193 L583 157 Q583 137 590 130 Q597 123 612 123 Q633 123 652 127 L672 10 Z " />
<glyph glyph-name="uni0212" unicode="&#x212;" horiz-adv-x="598" d="M298 864 Q227 864 217 790 L142 790 Q145 873 186 918 Q227 963 299 963 Q371 963 412 918 Q453 873 456 790 L378 790 Q368 864 298 864 Z M280 245 L215 245 L215 0 L67 0 L67 724 L215 724 L317 724 Q428 724 489 661.5 Q550 599 550 485 Q550 404 518.5 348.5 Q487 293 428 267 L596 0 L420 0 L280 245 Z M215 368 L317 368 Q400 368 400 482 Q400 598 313 598 L215 598 L215 368 Z " />
<glyph glyph-name="uni1E5E" unicode="&#x1e5e;" horiz-adv-x="598" d="M280 245 L215 245 L215 0 L67 0 L67 724 L215 724 L317 724 Q428 724 489 661.5 Q550 599 550 485 Q550 404 518.5 348.5 Q487 293 428 267 L596 0 L420 0 L280 245 Z M215 368 L317 368 Q400 368 400 482 Q400 598 313 598 L215 598 L215 368 Z M163 -97 L481 -97 L481 -191 L163 -191 L163 -97 Z " />
<glyph glyph-name="uniA7A6" unicode="&#xa7a6;" horiz-adv-x="593" d="M631 513 L559 497 L559 485 Q559 404 527.5 348.5 Q496 293 437 267 L605 0 L429 0 L290 245 L224 245 L224 0 L76 0 L76 390 L9 375 L-3 375 L-3 448 L76 466 L76 724 L224 724 L326 724 Q413 724 470.5 684.5 Q528 645 548 571 L619 586 L631 586 L631 513 Z M224 499 L402 538 Q384 598 322 598 L224 598 L224 499 Z M326 368 Q402 368 408 464 L224 423 L224 368 L326 368 Z " />
<glyph glyph-name="uniA75A" unicode="&#xa75a;" horiz-adv-x="511" d="M479 502 Q479 395 422 331.5 Q365 268 260 259 L472 13 L472 0 L298 0 L73 296 L73 406 Q142 384 215 384 Q327 384 327 497 Q327 552 301.5 578.5 Q276 605 223 605 Q156 605 73 563 L24 671 Q69 702 126.5 719 Q184 736 244 736 Q356 736 417.5 674.5 Q479 613 479 502 Z " />
<glyph glyph-name="uni024C" unicode="&#x24c;" horiz-adv-x="602" d="M285 245 L219 245 L219 0 L71 0 L71 251 L-3 251 L-3 362 L71 362 L71 724 L219 724 L321 724 Q432 724 493 661.5 Q554 599 554 485 Q554 404 522.5 348.5 Q491 293 432 267 L600 0 L424 0 L285 245 Z M219 368 L321 368 Q404 368 404 482 Q404 598 317 598 L219 598 L219 368 Z " />
<glyph glyph-name="uni2C64" unicode="&#x2c64;" horiz-adv-x="598" d="M215 -45 Q215 -69 222.5 -78.5 Q230 -88 248 -88 Q271 -88 294 -82 L314 -201 Q276 -217 228 -217 Q67 -217 67 -57 L67 166 L67 724 L215 724 L317 724 Q428 724 489 661.5 Q550 599 550 485 Q550 404 518.5 348.5 Q487 293 428 267 L596 0 L420 0 L280 245 L215 245 L215 -45 Z M215 598 L215 368 L317 368 Q400 368 400 482 Q400 598 313 598 L215 598 Z " />
<glyph glyph-name="uniA75C" unicode="&#xa75c;" horiz-adv-x="552" d="M549 0 L464 0 L428 -149 L284 -149 L320 0 L56 0 L56 125 Q184 245 249.5 345 Q315 445 315 514 Q315 558 289.5 581.5 Q264 605 217 605 Q148 605 70 560 L13 664 Q116 736 231 736 Q300 736 352.5 711.5 Q405 687 434 642 Q463 597 463 539 Q463 453 400.5 345 Q338 237 223 124 L350 124 L385 269 L529 269 L494 124 L549 124 L549 0 Z " />
<glyph glyph-name="S" unicode="S" horiz-adv-x="529" d="M251 -11 Q188 -11 127.5 6.5 Q67 24 22 56 L64 168 Q163 113 251 113 Q357 113 357 196 Q357 230 338 251 Q319 272 275 285 L194 307 Q108 332 69.5 379.5 Q31 427 31 509 Q31 617 91.5 676 Q152 735 263 735 Q316 735 372.5 722 Q429 709 481 685 L438 572 Q330 611 261 611 Q171 611 171 536 Q171 502 190.5 481 Q210 460 254 447 L334 425 Q420 400 459 352 Q498 304 498 222 Q498 111 433.5 50 Q369 -11 251 -11 Z " />
<glyph glyph-name="Sacute" unicode="&#x15a;" horiz-adv-x="529" d="M170 793 L303 926 L457 926 L457 914 L285 781 L170 781 L170 793 Z M251 -11 Q188 -11 127.5 6.5 Q67 24 22 56 L64 168 Q163 113 251 113 Q357 113 357 196 Q357 230 338 251 Q319 272 275 285 L194 307 Q108 332 69.5 379.5 Q31 427 31 509 Q31 617 91.5 676 Q152 735 263 735 Q316 735 372.5 722 Q429 709 481 685 L438 572 Q330 611 261 611 Q171 611 171 536 Q171 502 190.5 481 Q210 460 254 447 L334 425 Q420 400 459 352 Q498 304 498 222 Q498 111 433.5 50 Q369 -11 251 -11 Z " />
<glyph glyph-name="uni1E64" unicode="&#x1e64;" horiz-adv-x="529" d="M169 882 Q137 882 119 900 Q101 918 101 949 Q101 981 119 998.5 Q137 1016 169 1016 Q201 1016 219 998 Q237 980 237 950 Q237 917 219 899.5 Q201 882 169 882 Z M170 793 L303 926 L457 926 L457 914 L285 781 L170 781 L170 793 Z M251 -11 Q188 -11 127.5 6.5 Q67 24 22 56 L64 168 Q163 113 251 113 Q357 113 357 196 Q357 230 338 251 Q319 272 275 285 L194 307 Q108 332 69.5 379.5 Q31 427 31 509 Q31 617 91.5 676 Q152 735 263 735 Q316 735 372.5 722 Q429 709 481 685 L438 572 Q330 611 261 611 Q171 611 171 536 Q171 502 190.5 481 Q210 460 254 447 L334 425 Q420 400 459 352 Q498 304 498 222 Q498 111 433.5 50 Q369 -11 251 -11 Z " />
<glyph glyph-name="uniA78B" unicode="&#xa78b;" horiz-adv-x="336" d="M87 770 L249 770 L227 393 L110 393 L87 770 Z " />
<glyph glyph-name="Scaron" unicode="&#x160;" horiz-adv-x="529" d="M186 781 L75 914 L75 926 L176 926 L256 848 L334 926 L431 926 L431 914 L320 781 L186 781 Z M334 425 Q420 400 459 352 Q498 304 498 222 Q498 111 433.5 50 Q369 -11 251 -11 Q188 -11 127.5 6.5 Q67 24 22 56 L64 168 Q163 113 251 113 Q357 113 357 196 Q357 230 338 251 Q319 272 275 285 L194 307 Q108 332 69.5 379.5 Q31 427 31 509 Q31 617 91.5 676 Q152 735 263 735 Q316 735 372.5 722 Q429 709 481 685 L438 572 Q330 611 261 611 Q171 611 171 536 Q171 502 190.5 481 Q210 460 254 447 L334 425 Z " />
<glyph glyph-name="uni1E66" unicode="&#x1e66;" horiz-adv-x="529" d="M253 918 Q222 918 204 935.5 Q186 953 186 982 Q186 1012 204 1029 Q222 1046 253 1046 Q285 1046 303 1029 Q321 1012 321 982 Q321 952 303 935 Q285 918 253 918 Z M186 781 L75 914 L75 926 L176 926 L256 848 L334 926 L431 926 L431 914 L320 781 L186 781 Z M334 425 Q420 400 459 352 Q498 304 498 222 Q498 111 433.5 50 Q369 -11 251 -11 Q188 -11 127.5 6.5 Q67 24 22 56 L64 168 Q163 113 251 113 Q357 113 357 196 Q357 230 338 251 Q319 272 275 285 L194 307 Q108 332 69.5 379.5 Q31 427 31 509 Q31 617 91.5 676 Q152 735 263 735 Q316 735 372.5 722 Q429 709 481 685 L438 572 Q330 611 261 611 Q171 611 171 536 Q171 502 190.5 481 Q210 460 254 447 L334 425 Z " />
<glyph glyph-name="Scedilla" unicode="&#x15e;" horiz-adv-x="529" d="M498 222 Q498 120 443.5 60.5 Q389 1 289 -9 L258 -53 Q270 -50 282 -50 Q334 -50 362 -72.5 Q390 -95 390 -136 Q390 -186 354.5 -213.5 Q319 -241 255 -241 Q192 -241 137 -216 L156 -156 Q207 -172 237 -172 Q283 -172 283 -138 Q283 -107 243 -107 Q223 -107 206 -113 L178 -82 L205 -9 Q154 -4 106.5 13 Q59 30 22 56 L64 168 Q163 113 251 113 Q357 113 357 196 Q357 230 338 251 Q319 272 275 285 L194 307 Q108 332 69.5 379.5 Q31 427 31 509 Q31 617 91.5 676 Q152 735 263 735 Q316 735 372.5 722 Q429 709 481 685 L438 572 Q330 611 261 611 Q171 611 171 536 Q171 502 190.5 481 Q210 460 254 447 L334 425 Q420 400 459 352 Q498 304 498 222 Z " />
<glyph glyph-name="Scircumflex" unicode="&#x15c;" horiz-adv-x="529" d="M172 781 L75 781 L75 793 L186 926 L320 926 L431 793 L431 781 L330 781 L250 859 L172 781 Z M334 425 Q420 400 459 352 Q498 304 498 222 Q498 111 433.5 50 Q369 -11 251 -11 Q188 -11 127.5 6.5 Q67 24 22 56 L64 168 Q163 113 251 113 Q357 113 357 196 Q357 230 338 251 Q319 272 275 285 L194 307 Q108 332 69.5 379.5 Q31 427 31 509 Q31 617 91.5 676 Q152 735 263 735 Q316 735 372.5 722 Q429 709 481 685 L438 572 Q330 611 261 611 Q171 611 171 536 Q171 502 190.5 481 Q210 460 254 447 L334 425 Z " />
<glyph glyph-name="Scommaaccent" unicode="&#x218;" horiz-adv-x="529" d="M251 -11 Q188 -11 127.5 6.5 Q67 24 22 56 L64 168 Q163 113 251 113 Q357 113 357 196 Q357 230 338 251 Q319 272 275 285 L194 307 Q108 332 69.5 379.5 Q31 427 31 509 Q31 617 91.5 676 Q152 735 263 735 Q316 735 372.5 722 Q429 709 481 685 L438 572 Q330 611 261 611 Q171 611 171 536 Q171 502 190.5 481 Q210 460 254 447 L334 425 Q420 400 459 352 Q498 304 498 222 Q498 111 433.5 50 Q369 -11 251 -11 Z M158 -239 Q181 -212 190.5 -184.5 Q200 -157 200 -116 Q200 -90 196 -62 L321 -62 Q326 -85 326 -115 Q326 -164 298.5 -206.5 Q271 -249 210 -293 L158 -239 Z " />
<glyph glyph-name="uni1E60" unicode="&#x1e60;" horiz-adv-x="529" d="M253 786 Q214 786 192.5 808 Q171 830 171 867 Q171 905 192.5 926.5 Q214 948 253 948 Q292 948 313.5 926.5 Q335 905 335 868 Q335 829 313.5 807.5 Q292 786 253 786 Z M251 -11 Q188 -11 127.5 6.5 Q67 24 22 56 L64 168 Q163 113 251 113 Q357 113 357 196 Q357 230 338 251 Q319 272 275 285 L194 307 Q108 332 69.5 379.5 Q31 427 31 509 Q31 617 91.5 676 Q152 735 263 735 Q316 735 372.5 722 Q429 709 481 685 L438 572 Q330 611 261 611 Q171 611 171 536 Q171 502 190.5 481 Q210 460 254 447 L334 425 Q420 400 459 352 Q498 304 498 222 Q498 111 433.5 50 Q369 -11 251 -11 Z " />
<glyph glyph-name="uni1E62" unicode="&#x1e62;" horiz-adv-x="529" d="M251 -11 Q188 -11 127.5 6.5 Q67 24 22 56 L64 168 Q163 113 251 113 Q357 113 357 196 Q357 230 338 251 Q319 272 275 285 L194 307 Q108 332 69.5 379.5 Q31 427 31 509 Q31 617 91.5 676 Q152 735 263 735 Q316 735 372.5 722 Q429 709 481 685 L438 572 Q330 611 261 611 Q171 611 171 536 Q171 502 190.5 481 Q210 460 254 447 L334 425 Q420 400 459 352 Q498 304 498 222 Q498 111 433.5 50 Q369 -11 251 -11 Z M261 -232 Q222 -232 200.5 -210 Q179 -188 179 -151 Q179 -112 200.5 -90.5 Q222 -69 261 -69 Q300 -69 321.5 -91 Q343 -113 343 -150 Q343 -189 321.5 -210.5 Q300 -232 261 -232 Z " />
<glyph glyph-name="uni1E68" unicode="&#x1e68;" horiz-adv-x="529" d="M253 786 Q214 786 192.5 808 Q171 830 171 867 Q171 905 192.5 926.5 Q214 948 253 948 Q292 948 313.5 926.5 Q335 905 335 868 Q335 829 313.5 807.5 Q292 786 253 786 Z M251 -11 Q188 -11 127.5 6.5 Q67 24 22 56 L64 168 Q163 113 251 113 Q357 113 357 196 Q357 230 338 251 Q319 272 275 285 L194 307 Q108 332 69.5 379.5 Q31 427 31 509 Q31 617 91.5 676 Q152 735 263 735 Q316 735 372.5 722 Q429 709 481 685 L438 572 Q330 611 261 611 Q171 611 171 536 Q171 502 190.5 481 Q210 460 254 447 L334 425 Q420 400 459 352 Q498 304 498 222 Q498 111 433.5 50 Q369 -11 251 -11 Z M261 -232 Q222 -232 200.5 -210 Q179 -188 179 -151 Q179 -112 200.5 -90.5 Q222 -69 261 -69 Q300 -69 321.5 -91 Q343 -113 343 -150 Q343 -189 321.5 -210.5 Q300 -232 261 -232 Z " />
<glyph glyph-name="uni1E9E" unicode="&#x1e9e;" horiz-adv-x="644" d="M442 403 Q615 372 615 210 Q615 107 550 50.5 Q485 -6 367 -6 Q293 -6 248 13 L266 127 Q325 113 372 113 Q476 113 476 194 Q476 305 285 315 L285 421 Q339 444 363 473.5 Q387 503 387 544 Q387 623 305 623 Q207 623 207 514 L207 0 L59 0 L59 514 Q59 625 123 686 Q187 747 303 747 Q407 747 463.5 698 Q520 649 520 559 Q520 457 442 403 Z " />
<glyph glyph-name="uniA784" unicode="&#xa784;" horiz-adv-x="458" d="M368 736 Q410 736 452 713 L407 580 Q368 593 334 593 Q296 593 268 569 Q240 545 215 491 L215 -207 L67 -207 L67 724 L208 724 L208 596 Q241 667 280.5 701.5 Q320 736 368 736 Z " />
<glyph glyph-name="uniA7A8" unicode="&#xa7a8;" horiz-adv-x="561" d="M529 402 L448 376 Q480 350 495 312 Q510 274 510 222 Q510 111 446 50 Q382 -11 264 -11 Q200 -11 140 6.5 Q80 24 34 56 L77 168 Q175 113 264 113 Q370 113 370 196 Q370 230 350.5 251 Q331 272 287 285 L218 304 L33 246 L22 246 L22 320 L114 349 Q77 376 60 415 Q43 454 43 509 Q43 617 104 676 Q165 735 276 735 Q328 735 384.5 722 Q441 709 493 685 L450 572 Q344 611 274 611 Q184 611 184 536 Q184 502 203 481 Q222 460 266 447 L347 425 L351 424 L518 476 L529 476 L529 402 Z " />
<glyph glyph-name="uni018F" unicode="&#x18f;" horiz-adv-x="652" d="M296 735 Q447 735 529.5 638 Q612 541 612 361 Q612 182 536 85.5 Q460 -11 321 -11 Q181 -11 104.5 80 Q28 171 28 339 Q28 361 30 385 Q32 409 36 421 L461 421 Q450 508 406 553.5 Q362 599 290 599 Q253 599 207 588.5 Q161 578 114 558 L65 672 Q111 702 172 718.5 Q233 735 296 735 Z M323 121 Q443 121 461 295 L179 295 Q185 210 222 165.5 Q259 121 323 121 Z " />
<glyph glyph-name="T" unicode="T" horiz-adv-x="502" d="M491 595 L325 595 L325 0 L177 0 L177 595 L11 595 L11 724 L325 724 L491 724 L491 595 Z " />
<glyph glyph-name="Tbar" unicode="&#x166;" horiz-adv-x="502" d="M325 595 L325 386 L435 386 L435 280 L325 280 L325 0 L177 0 L177 280 L67 280 L67 386 L177 386 L177 595 L11 595 L11 724 L325 724 L491 724 L491 595 L325 595 Z " />
<glyph glyph-name="Tcaron" unicode="&#x164;" horiz-adv-x="502" d="M184 781 L73 914 L73 926 L174 926 L254 848 L332 926 L429 926 L429 914 L318 781 L184 781 Z M491 595 L325 595 L325 0 L177 0 L177 595 L11 595 L11 724 L325 724 L491 724 L491 595 Z " />
<glyph glyph-name="uni0162" unicode="&#x162;" horiz-adv-x="502" d="M286 0 L248 -53 Q260 -50 272 -50 Q324 -50 352 -72.5 Q380 -95 380 -136 Q380 -186 344.5 -213.5 Q309 -241 245 -241 Q182 -241 127 -216 L146 -156 Q197 -172 227 -172 Q273 -172 273 -138 Q273 -107 233 -107 Q213 -107 196 -113 L168 -82 L199 0 L177 0 L177 595 L11 595 L11 724 L325 724 L491 724 L491 595 L325 595 L325 0 L286 0 Z " />
<glyph glyph-name="uni1E70" unicode="&#x1e70;" horiz-adv-x="502" d="M491 595 L325 595 L325 0 L177 0 L177 595 L11 595 L11 724 L325 724 L491 724 L491 595 Z M429 -217 L429 -229 L328 -229 L248 -151 L170 -229 L73 -229 L73 -217 L184 -84 L318 -84 L429 -217 Z " />
<glyph glyph-name="uni021A" unicode="&#x21a;" horiz-adv-x="502" d="M491 595 L325 595 L325 0 L177 0 L177 595 L11 595 L11 724 L325 724 L491 724 L491 595 Z M148 -239 Q171 -212 180.5 -184.5 Q190 -157 190 -116 Q190 -90 186 -62 L311 -62 Q316 -85 316 -115 Q316 -164 288.5 -206.5 Q261 -249 200 -293 L148 -239 Z " />
<glyph glyph-name="uni023E" unicode="&#x23e;" horiz-adv-x="502" d="M383 595 L325 453 L325 0 L177 0 L177 96 L93 -107 L12 -107 L177 286 L177 595 L11 595 L11 724 L325 724 L358 724 L392 810 L473 810 L437 724 L491 724 L491 595 L383 595 Z " />
<glyph glyph-name="uni1E6A" unicode="&#x1e6a;" horiz-adv-x="502" d="M251 786 Q212 786 190.5 808 Q169 830 169 867 Q169 905 190.5 926.5 Q212 948 251 948 Q290 948 311.5 926.5 Q333 905 333 868 Q333 829 311.5 807.5 Q290 786 251 786 Z M491 595 L325 595 L325 0 L177 0 L177 595 L11 595 L11 724 L325 724 L491 724 L491 595 Z " />
<glyph glyph-name="uni1E6C" unicode="&#x1e6c;" horiz-adv-x="502" d="M491 595 L325 595 L325 0 L177 0 L177 595 L11 595 L11 724 L325 724 L491 724 L491 595 Z M251 -232 Q212 -232 190.5 -210 Q169 -188 169 -151 Q169 -112 190.5 -90.5 Q212 -69 251 -69 Q290 -69 311.5 -91 Q333 -113 333 -150 Q333 -189 311.5 -210.5 Q290 -232 251 -232 Z " />
<glyph glyph-name="uni01AC" unicode="&#x1ac;" horiz-adv-x="506" d="M495 595 L329 595 L329 0 L181 0 L181 595 L160 595 L155 595 Q129 595 117 579.5 Q105 564 105 529 Q105 514 108 482 L-20 482 Q-23 508 -23 531 Q-23 626 21.5 675 Q66 724 154 724 L329 724 L495 724 L495 595 Z " />
<glyph glyph-name="uniA764" unicode="&#xa764;" horiz-adv-x="588" d="M327 499 Q560 499 560 299 Q560 193 497 134.5 Q434 76 320 76 L219 76 L219 0 L72 0 L72 560 L13 560 L13 663 L72 663 L72 724 L219 724 L219 663 L336 663 L336 560 L219 560 L219 499 L327 499 Z M327 204 Q412 204 412 292 Q412 383 320 383 L219 383 L219 204 L327 204 Z " />
<glyph glyph-name="uniA766" unicode="&#xa766;" horiz-adv-x="588" d="M219 225 L219 165 L336 165 L336 62 L219 62 L219 0 L72 0 L72 62 L13 62 L13 165 L72 165 L72 724 L219 724 L219 648 L327 648 Q440 648 500 592.5 Q560 537 560 434 Q560 331 499 278 Q438 225 320 225 L219 225 Z M219 520 L219 341 L327 341 Q412 341 412 429 Q412 520 320 520 L219 520 Z " />
<glyph glyph-name="uniA786" unicode="&#xa786;" horiz-adv-x="571" d="M272 595 Q191 499 191 348 Q191 122 366 122 Q446 122 507 156 L553 47 Q521 19 469 4 Q417 -11 356 -11 Q205 -11 121.5 80 Q38 171 38 337 Q38 412 59.5 478 Q81 544 121 595 L14 595 L14 724 L562 724 L562 595 L272 595 Z " />
<glyph glyph-name="uni1E6E" unicode="&#x1e6e;" horiz-adv-x="502" d="M491 595 L325 595 L325 0 L177 0 L177 595 L11 595 L11 724 L325 724 L491 724 L491 595 Z M96 -97 L414 -97 L414 -191 L96 -191 L96 -97 Z " />
<glyph glyph-name="uni01BC" unicode="&#x1bc;" horiz-adv-x="523" d="M246 469 Q365 460 428.5 400.5 Q492 341 492 239 Q492 164 460 107 Q428 50 370 19 Q312 -12 235 -12 Q176 -12 119.5 5 Q63 22 25 51 L73 164 Q114 143 156.5 131 Q199 119 234 119 Q286 119 314 149 Q342 179 342 234 Q342 338 220 347 L73 357 L73 600 L2 600 L2 724 L155 724 L459 724 L459 600 L219 600 L219 471 L246 469 Z " />
<glyph glyph-name="uni0184" unicode="&#x184;" horiz-adv-x="571" d="M326 487 Q442 487 505.5 423 Q569 359 569 243 Q569 127 506 63.5 Q443 0 328 0 L75 0 L75 580 L74 584 L75 588 L75 625 L93 628 L106 656 L158 672 L158 640 L223 651 L223 487 L326 487 Z M71 591 L74 584 L71 579 L71 591 Z M325 128 Q418 128 418 245 Q418 358 329 358 L223 358 L223 128 L325 128 Z " />
<glyph glyph-name="uni01A7" unicode="&#x1a7;" horiz-adv-x="529" d="M278 -11 Q160 -11 95.5 50 Q31 111 31 222 Q31 304 70 352 Q109 400 195 425 L275 447 Q319 460 338.5 481 Q358 502 358 536 Q358 611 268 611 Q199 611 91 572 L48 685 Q100 709 156.5 722 Q213 735 266 735 Q377 735 437.5 676 Q498 617 498 509 Q498 427 459.5 379.5 Q421 332 335 307 L254 285 Q210 272 191 251 Q172 230 172 196 Q172 113 278 113 Q366 113 465 168 L507 56 Q462 24 401.5 6.5 Q341 -11 278 -11 Z " />
<glyph glyph-name="uniA72A" unicode="&#xa72a;" horiz-adv-x="528" d="M519 59 Q480 27 420 7.5 Q360 -12 297 -12 Q221 -12 163.5 18.5 Q106 49 74.5 104 Q43 159 43 232 Q43 318 87.5 376.5 Q132 435 209 452 L67 600 L67 724 L497 724 L497 600 L220 600 L405 405 L349 330 Q316 339 289 339 Q244 339 218.5 311 Q193 283 193 232 Q193 178 220.5 148.5 Q248 119 299 119 Q335 119 378.5 132.5 Q422 146 467 171 L519 59 Z " />
<glyph glyph-name="uni01AE" unicode="&#x1ae;" horiz-adv-x="502" d="M325 595 L325 166 L325 -45 Q325 -69 332.5 -78.5 Q340 -88 358 -88 Q381 -88 404 -82 L425 -201 Q386 -217 338 -217 Q177 -217 177 -57 L177 0 L177 595 L11 595 L11 724 L325 724 L491 724 L491 595 L325 595 Z " />
<glyph glyph-name="uniA7B1" unicode="&#xa7b1;" horiz-adv-x="502" d="M491 129 L491 0 L177 0 L11 0 L11 129 L177 129 L177 724 L325 724 L325 129 L491 129 Z " />
<glyph glyph-name="uniA728" unicode="&#xa728;" horiz-adv-x="798" d="M580 222 Q677 209 730 159.5 Q783 110 783 11 Q783 -64 747.5 -118 Q712 -172 651 -199.5 Q590 -227 515 -227 Q403 -227 322 -184 L369 -73 Q434 -107 503 -107 Q564 -107 599 -76 Q634 -45 634 14 Q634 78 592 104.5 Q550 131 475 131 L427 131 L427 228 L588 423 L351 423 L351 424 L325 424 L325 0 L177 0 L177 595 L11 595 L11 724 L325 724 L491 724 L491 595 L325 595 L325 541 L351 541 L745 541 L745 423 L580 222 Z " />
<glyph glyph-name="U" unicode="U" horiz-adv-x="648" d="M323 -12 Q199 -12 130.5 54.5 Q62 121 62 242 L62 724 L210 724 L210 253 Q210 117 323 117 Q438 117 438 253 L438 724 L586 724 L586 242 Q586 121 517 54.5 Q448 -12 323 -12 Z " />
<glyph glyph-name="Uacute" unicode="&#xda;" horiz-adv-x="648" d="M241 793 L374 926 L528 926 L528 914 L356 781 L241 781 L241 793 Z M323 -12 Q199 -12 130.5 54.5 Q62 121 62 242 L62 724 L210 724 L210 253 Q210 117 323 117 Q438 117 438 253 L438 724 L586 724 L586 242 Q586 121 517 54.5 Q448 -12 323 -12 Z " />
<glyph glyph-name="uni0244" unicode="&#x244;" horiz-adv-x="675" d="M671 321 L595 321 L595 242 Q595 121 526 54.5 Q457 -12 332 -12 Q208 -12 139.5 54.5 Q71 121 71 242 L71 321 L-5 321 L-5 427 L71 427 L71 724 L219 724 L219 427 L447 427 L447 724 L595 724 L595 427 L671 427 L671 321 Z M447 321 L219 321 L219 253 Q219 117 332 117 Q447 117 447 253 L447 321 Z " />
<glyph glyph-name="Ubreve" unicode="&#x16c;" horiz-adv-x="648" d="M324 782 Q252 782 211 827 Q170 872 167 955 L245 955 Q255 881 325 881 Q396 881 406 955 L481 955 Q478 872 437 827 Q396 782 324 782 Z M323 -12 Q199 -12 130.5 54.5 Q62 121 62 242 L62 724 L210 724 L210 253 Q210 117 323 117 Q438 117 438 253 L438 724 L586 724 L586 242 Q586 121 517 54.5 Q448 -12 323 -12 Z " />
<glyph glyph-name="uni01D3" unicode="&#x1d3;" horiz-adv-x="648" d="M257 781 L146 914 L146 926 L247 926 L327 848 L405 926 L502 926 L502 914 L391 781 L257 781 Z M586 724 L586 242 Q586 121 517 54.5 Q448 -12 323 -12 Q199 -12 130.5 54.5 Q62 121 62 242 L62 724 L210 724 L210 253 Q210 117 323 117 Q438 117 438 253 L438 724 L586 724 Z " />
<glyph glyph-name="Ucircumflex" unicode="&#xdb;" horiz-adv-x="648" d="M243 781 L146 781 L146 793 L257 926 L391 926 L502 793 L502 781 L401 781 L321 859 L243 781 Z M586 724 L586 242 Q586 121 517 54.5 Q448 -12 323 -12 Q199 -12 130.5 54.5 Q62 121 62 242 L62 724 L210 724 L210 253 Q210 117 323 117 Q438 117 438 253 L438 724 L586 724 Z " />
<glyph glyph-name="uni1E76" unicode="&#x1e76;" horiz-adv-x="648" d="M323 -12 Q199 -12 130.5 54.5 Q62 121 62 242 L62 724 L210 724 L210 253 Q210 117 323 117 Q438 117 438 253 L438 724 L586 724 L586 242 Q586 121 517 54.5 Q448 -12 323 -12 Z M502 -217 L502 -229 L401 -229 L321 -151 L243 -229 L146 -229 L146 -217 L257 -84 L391 -84 L502 -217 Z " />
<glyph glyph-name="uni0214" unicode="&#x214;" horiz-adv-x="648" d="M97 914 L97 926 L224 926 L300 793 L300 781 L210 781 L97 914 Z M270 914 L270 926 L394 926 L468 793 L468 781 L381 781 L270 914 Z M323 -12 Q199 -12 130.5 54.5 Q62 121 62 242 L62 724 L210 724 L210 253 Q210 117 323 117 Q438 117 438 253 L438 724 L586 724 L586 242 Q586 121 517 54.5 Q448 -12 323 -12 Z " />
<glyph glyph-name="Udieresis" unicode="&#xdc;" horiz-adv-x="648" d="M227 782 Q194 782 175 802 Q156 822 156 855 Q156 890 175 909.5 Q194 929 228 929 Q261 929 280 909 Q299 889 299 856 Q299 821 280 801.5 Q261 782 227 782 Z M420 782 Q387 782 368 802 Q349 822 349 855 Q349 890 368 909.5 Q387 929 421 929 Q454 929 473 909 Q492 889 492 856 Q492 821 473 801.5 Q454 782 420 782 Z M323 -12 Q199 -12 130.5 54.5 Q62 121 62 242 L62 724 L210 724 L210 253 Q210 117 323 117 Q438 117 438 253 L438 724 L586 724 L586 242 Q586 121 517 54.5 Q448 -12 323 -12 Z " />
<glyph glyph-name="uni01D7" unicode="&#x1d7;" horiz-adv-x="648" d="M277 919 L343 1046 L461 1046 L461 1036 L365 909 L277 909 L277 919 Z M232 763 Q200 763 182 781.5 Q164 800 164 832 Q164 865 182 883.5 Q200 902 232 902 Q264 902 282 883 Q300 864 300 832 Q300 799 282 781 Q264 763 232 763 Z M416 763 Q384 763 366 781.5 Q348 800 348 832 Q348 865 366 883.5 Q384 902 416 902 Q448 902 466 883 Q484 864 484 832 Q484 799 466 781 Q448 763 416 763 Z M323 -12 Q199 -12 130.5 54.5 Q62 121 62 242 L62 724 L210 724 L210 253 Q210 117 323 117 Q438 117 438 253 L438 724 L586 724 L586 242 Q586 121 517 54.5 Q448 -12 323 -12 Z " />
<glyph glyph-name="uni1E72" unicode="&#x1e72;" horiz-adv-x="648" d="M323 -12 Q199 -12 130.5 54.5 Q62 121 62 242 L62 724 L210 724 L210 253 Q210 117 323 117 Q438 117 438 253 L438 724 L586 724 L586 242 Q586 121 517 54.5 Q448 -12 323 -12 Z M229 -214 Q196 -214 177 -194 Q158 -174 158 -141 Q158 -106 177 -86.5 Q196 -67 230 -67 Q263 -67 282 -87 Q301 -107 301 -140 Q301 -175 282 -194.5 Q263 -214 229 -214 Z M418 -214 Q385 -214 366 -194 Q347 -174 347 -141 Q347 -106 366 -86.5 Q385 -67 419 -67 Q452 -67 471 -87 Q490 -107 490 -140 Q490 -175 471 -194.5 Q452 -214 418 -214 Z " />
<glyph glyph-name="uni01D9" unicode="&#x1d9;" horiz-adv-x="648" d="M265 912 L163 1036 L163 1046 L252 1046 L327 974 L401 1046 L487 1046 L487 1036 L385 912 L265 912 Z M164 832 Q164 865 182 883.5 Q200 902 232 902 Q264 902 282 883 Q300 864 300 832 Q300 799 282 781 Q264 763 232 763 Q200 763 182 781.5 Q164 800 164 832 Z M348 832 Q348 865 366 883.5 Q384 902 416 902 Q448 902 466 883 Q484 864 484 832 Q484 799 466 781 Q448 763 416 763 Q384 763 366 781.5 Q348 800 348 832 Z M586 724 L586 242 Q586 121 517 54.5 Q448 -12 323 -12 Q199 -12 130.5 54.5 Q62 121 62 242 L62 724 L210 724 L210 253 Q210 117 323 117 Q438 117 438 253 L438 724 L586 724 Z " />
<glyph glyph-name="uni01DB" unicode="&#x1db;" horiz-adv-x="648" d="M194 1036 L194 1046 L312 1046 L372 919 L372 909 L285 909 L194 1036 Z M232 763 Q200 763 182 781.5 Q164 800 164 832 Q164 865 182 883.5 Q200 902 232 902 Q264 902 282 883 Q300 864 300 832 Q300 799 282 781 Q264 763 232 763 Z M416 763 Q384 763 366 781.5 Q348 800 348 832 Q348 865 366 883.5 Q384 902 416 902 Q448 902 466 883 Q484 864 484 832 Q484 799 466 781 Q448 763 416 763 Z M323 -12 Q199 -12 130.5 54.5 Q62 121 62 242 L62 724 L210 724 L210 253 Q210 117 323 117 Q438 117 438 253 L438 724 L586 724 L586 242 Q586 121 517 54.5 Q448 -12 323 -12 Z " />
<glyph glyph-name="uni01D5" unicode="&#x1d5;" horiz-adv-x="648" d="M166 1024 L484 1024 L484 931 L166 931 L166 1024 Z M232 763 Q200 763 182 781.5 Q164 800 164 832 Q164 865 182 883.5 Q200 902 232 902 Q264 902 282 883 Q300 864 300 832 Q300 799 282 781 Q264 763 232 763 Z M416 763 Q384 763 366 781.5 Q348 800 348 832 Q348 865 366 883.5 Q384 902 416 902 Q448 902 466 883 Q484 864 484 832 Q484 799 466 781 Q448 763 416 763 Z M323 -12 Q199 -12 130.5 54.5 Q62 121 62 242 L62 724 L210 724 L210 253 Q210 117 323 117 Q438 117 438 253 L438 724 L586 724 L586 242 Q586 121 517 54.5 Q448 -12 323 -12 Z " />
<glyph glyph-name="uni1EE4" unicode="&#x1ee4;" horiz-adv-x="648" d="M323 -12 Q199 -12 130.5 54.5 Q62 121 62 242 L62 724 L210 724 L210 253 Q210 117 323 117 Q438 117 438 253 L438 724 L586 724 L586 242 Q586 121 517 54.5 Q448 -12 323 -12 Z M324 -232 Q285 -232 263.5 -210 Q242 -188 242 -151 Q242 -112 263.5 -90.5 Q285 -69 324 -69 Q363 -69 384.5 -91 Q406 -113 406 -150 Q406 -189 384.5 -210.5 Q363 -232 324 -232 Z " />
<glyph glyph-name="Ugrave" unicode="&#xd9;" horiz-adv-x="648" d="M128 914 L128 926 L282 926 L406 793 L406 781 L291 781 L128 914 Z M323 -12 Q199 -12 130.5 54.5 Q62 121 62 242 L62 724 L210 724 L210 253 Q210 117 323 117 Q438 117 438 253 L438 724 L586 724 L586 242 Q586 121 517 54.5 Q448 -12 323 -12 Z " />
<glyph glyph-name="uni1EE6" unicode="&#x1ee6;" horiz-adv-x="648" d="M277 781 Q275 793 275 803 Q275 822 283.5 832 Q292 842 307 850 Q316 856 320.5 860 Q325 864 325 871 Q325 886 303 886 Q280 886 240 866 L212 929 Q238 945 270 953.5 Q302 962 336 962 Q387 962 415 941.5 Q443 921 443 884 Q443 856 430 843.5 Q417 831 395 821 Q381 815 375 810.5 Q369 806 369 798 L371 781 L277 781 Z M323 -12 Q199 -12 130.5 54.5 Q62 121 62 242 L62 724 L210 724 L210 253 Q210 117 323 117 Q438 117 438 253 L438 724 L586 724 L586 242 Q586 121 517 54.5 Q448 -12 323 -12 Z " />
<glyph glyph-name="Uhorn" unicode="&#x1af;" horiz-adv-x="648" d="M694 804 Q694 740 668.5 703.5 Q643 667 586 654 L586 242 Q586 121 517 54.5 Q448 -12 323 -12 Q199 -12 130.5 54.5 Q62 121 62 242 L62 724 L210 724 L210 253 Q210 117 323 117 Q438 117 438 253 L438 724 L500 724 Q542 724 558 741 Q574 758 574 802 Q574 827 569 863 L689 863 Q694 833 694 804 Z " />
<glyph glyph-name="uni1EE8" unicode="&#x1ee8;" horiz-adv-x="648" d="M356 781 L241 781 L241 793 L374 926 L528 926 L528 914 L356 781 Z M694 804 Q694 740 668.5 703.5 Q643 667 586 654 L586 242 Q586 121 517 54.5 Q448 -12 323 -12 Q199 -12 130.5 54.5 Q62 121 62 242 L62 724 L210 724 L210 253 Q210 117 323 117 Q438 117 438 253 L438 724 L500 724 Q542 724 558 741 Q574 758 574 802 Q574 827 569 863 L689 863 Q694 833 694 804 Z " />
<glyph glyph-name="uni1EF0" unicode="&#x1ef0;" horiz-adv-x="648" d="M694 804 Q694 740 668.5 703.5 Q643 667 586 654 L586 242 Q586 121 517 54.5 Q448 -12 323 -12 Q199 -12 130.5 54.5 Q62 121 62 242 L62 724 L210 724 L210 253 Q210 117 323 117 Q438 117 438 253 L438 724 L500 724 Q542 724 558 741 Q574 758 574 802 Q574 827 569 863 L689 863 Q694 833 694 804 Z M324 -232 Q285 -232 263.5 -210 Q242 -188 242 -151 Q242 -112 263.5 -90.5 Q285 -69 324 -69 Q363 -69 384.5 -91 Q406 -113 406 -150 Q406 -189 384.5 -210.5 Q363 -232 324 -232 Z " />
<glyph glyph-name="uni1EEA" unicode="&#x1eea;" horiz-adv-x="648" d="M291 781 L128 914 L128 926 L282 926 L406 793 L406 781 L291 781 Z M694 804 Q694 740 668.5 703.5 Q643 667 586 654 L586 242 Q586 121 517 54.5 Q448 -12 323 -12 Q199 -12 130.5 54.5 Q62 121 62 242 L62 724 L210 724 L210 253 Q210 117 323 117 Q438 117 438 253 L438 724 L500 724 Q542 724 558 741 Q574 758 574 802 Q574 827 569 863 L689 863 Q694 833 694 804 Z " />
<glyph glyph-name="uni1EEC" unicode="&#x1eec;" horiz-adv-x="648" d="M303 886 Q280 886 240 866 L212 929 Q238 945 270 953.5 Q302 962 336 962 Q387 962 415 941.5 Q443 921 443 884 Q443 856 430 843.5 Q417 831 395 821 Q381 815 375 810.5 Q369 806 369 798 L371 781 L277 781 Q275 793 275 803 Q275 822 283.5 832 Q292 842 307 850 Q316 856 320.5 860 Q325 864 325 871 Q325 886 303 886 Z M694 804 Q694 740 668.5 703.5 Q643 667 586 654 L586 242 Q586 121 517 54.5 Q448 -12 323 -12 Q199 -12 130.5 54.5 Q62 121 62 242 L62 724 L210 724 L210 253 Q210 117 323 117 Q438 117 438 253 L438 724 L500 724 Q542 724 558 741 Q574 758 574 802 Q574 827 569 863 L689 863 Q694 833 694 804 Z " />
<glyph glyph-name="uni1EEE" unicode="&#x1eee;" horiz-adv-x="648" d="M258 843 Q227 843 221 787 L145 787 Q147 860 175.5 900.5 Q204 941 256 941 Q282 941 301 932 Q320 923 344 905 Q360 893 369.5 887.5 Q379 882 390 882 Q421 882 427 939 L503 939 Q501 865 472.5 825 Q444 785 392 785 Q365 785 345 794.5 Q325 804 304 821 Q289 832 279 837.5 Q269 843 258 843 Z M694 804 Q694 740 668.5 703.5 Q643 667 586 654 L586 242 Q586 121 517 54.5 Q448 -12 323 -12 Q199 -12 130.5 54.5 Q62 121 62 242 L62 724 L210 724 L210 253 Q210 117 323 117 Q438 117 438 253 L438 724 L500 724 Q542 724 558 741 Q574 758 574 802 Q574 827 569 863 L689 863 Q694 833 694 804 Z " />
<glyph glyph-name="Uhungarumlaut" unicode="&#x170;" horiz-adv-x="648" d="M180 793 L263 926 L387 926 L387 914 L267 781 L180 781 L180 793 Z M347 793 L433 926 L560 926 L560 914 L438 781 L347 781 L347 793 Z M323 -12 Q199 -12 130.5 54.5 Q62 121 62 242 L62 724 L210 724 L210 253 Q210 117 323 117 Q438 117 438 253 L438 724 L586 724 L586 242 Q586 121 517 54.5 Q448 -12 323 -12 Z " />
<glyph glyph-name="uni0216" unicode="&#x216;" horiz-adv-x="648" d="M324 963 Q396 963 437 918 Q478 873 481 790 L403 790 Q393 864 323 864 Q252 864 242 790 L167 790 Q170 873 211 918 Q252 963 324 963 Z M323 -12 Q199 -12 130.5 54.5 Q62 121 62 242 L62 724 L210 724 L210 253 Q210 117 323 117 Q438 117 438 253 L438 724 L586 724 L586 242 Q586 121 517 54.5 Q448 -12 323 -12 Z " />
<glyph glyph-name="Umacron" unicode="&#x16a;" horiz-adv-x="648" d="M165 901 L483 901 L483 807 L165 807 L165 901 Z M323 -12 Q199 -12 130.5 54.5 Q62 121 62 242 L62 724 L210 724 L210 253 Q210 117 323 117 Q438 117 438 253 L438 724 L586 724 L586 242 Q586 121 517 54.5 Q448 -12 323 -12 Z " />
<glyph glyph-name="uni1E7A" unicode="&#x1e7a;" horiz-adv-x="648" d="M232 922 Q201 922 183.5 938.5 Q166 955 166 984 Q166 1014 183.5 1030.5 Q201 1047 232 1047 Q263 1047 281 1030.5 Q299 1014 299 985 Q299 955 281.5 938.5 Q264 922 232 922 Z M410 922 Q379 922 361.5 938.5 Q344 955 344 984 Q344 1014 361.5 1030.5 Q379 1047 410 1047 Q441 1047 459 1030.5 Q477 1014 477 985 Q477 955 459.5 938.5 Q442 922 410 922 Z M165 877 L483 877 L483 783 L165 783 L165 877 Z M323 -12 Q199 -12 130.5 54.5 Q62 121 62 242 L62 724 L210 724 L210 253 Q210 117 323 117 Q438 117 438 253 L438 724 L586 724 L586 242 Q586 121 517 54.5 Q448 -12 323 -12 Z " />
<glyph glyph-name="Uogonek" unicode="&#x172;" horiz-adv-x="648" d="M464 13 Q435 -12 418 -42 Q401 -72 401 -100 Q401 -142 443 -142 Q470 -142 493 -130 L522 -201 Q473 -231 408 -231 Q349 -231 317 -203.5 Q285 -176 285 -127 Q285 -62 339 -11 Q333 -12 323 -12 Q199 -12 130.5 54.5 Q62 121 62 242 L62 724 L210 724 L210 253 Q210 117 323 117 Q438 117 438 253 L438 724 L586 724 L586 242 Q586 173 563.5 125 Q541 77 490 34 L464 13 Z " />
<glyph glyph-name="uni01B1" unicode="&#x1b1;" horiz-adv-x="691" d="M346 -12 Q201 -12 126 75 Q51 162 51 311 Q51 411 79.5 482.5 Q108 554 158 609 L39 609 L39 724 L300 724 L300 591 Q203 486 203 329 Q203 229 235 172.5 Q267 116 346 116 Q424 116 456 172.5 Q488 229 488 329 Q488 414 460.5 479.5 Q433 545 390 591 L390 724 L652 724 L652 609 L532 609 Q640 494 640 311 Q640 162 565 75 Q490 -12 346 -12 Z " />
<glyph glyph-name="Uring" unicode="&#x16e;" horiz-adv-x="648" d="M324 769 Q261 769 226.5 800 Q192 831 192 888 Q192 945 226.5 976.5 Q261 1008 324 1008 Q387 1008 421.5 976.5 Q456 945 456 888 Q456 831 421.5 800 Q387 769 324 769 Z M324 833 Q372 833 372 888 Q372 944 324 944 Q277 944 277 888 Q277 833 324 833 Z M323 -12 Q199 -12 130.5 54.5 Q62 121 62 242 L62 724 L210 724 L210 253 Q210 117 323 117 Q438 117 438 253 L438 724 L586 724 L586 242 Q586 121 517 54.5 Q448 -12 323 -12 Z " />
<glyph glyph-name="Utilde" unicode="&#x168;" horiz-adv-x="648" d="M392 785 Q365 785 345 794.5 Q325 804 304 821 Q289 832 279 837.5 Q269 843 258 843 Q227 843 221 787 L145 787 Q147 860 175.5 900.5 Q204 941 256 941 Q282 941 301 932 Q320 923 344 905 Q360 893 369.5 887.5 Q379 882 390 882 Q421 882 427 939 L503 939 Q501 865 472.5 825 Q444 785 392 785 Z M323 -12 Q199 -12 130.5 54.5 Q62 121 62 242 L62 724 L210 724 L210 253 Q210 117 323 117 Q438 117 438 253 L438 724 L586 724 L586 242 Q586 121 517 54.5 Q448 -12 323 -12 Z " />
<glyph glyph-name="uni1E78" unicode="&#x1e78;" horiz-adv-x="648" d="M281 920 L347 1047 L465 1047 L465 1037 L368 910 L281 910 L281 920 Z M381 763 Q354 763 338 770.5 Q322 778 305 792 Q293 802 284 807 Q275 812 262 812 Q225 812 222 765 L160 765 Q160 823 188 855 Q216 887 267 887 Q293 887 309 879.5 Q325 872 343 858 Q355 848 364.5 843 Q374 838 386 838 Q423 838 427 885 L488 885 Q488 827 460 795 Q432 763 381 763 Z M323 -12 Q199 -12 130.5 54.5 Q62 121 62 242 L62 724 L210 724 L210 253 Q210 117 323 117 Q438 117 438 253 L438 724 L586 724 L586 242 Q586 121 517 54.5 Q448 -12 323 -12 Z " />
<glyph glyph-name="uni1E74" unicode="&#x1e74;" horiz-adv-x="648" d="M323 -12 Q199 -12 130.5 54.5 Q62 121 62 242 L62 724 L210 724 L210 253 Q210 117 323 117 Q438 117 438 253 L438 724 L586 724 L586 242 Q586 121 517 54.5 Q448 -12 323 -12 Z M392 -229 Q365 -229 345 -219.5 Q325 -210 304 -193 Q289 -182 279 -176.5 Q269 -171 258 -171 Q227 -171 221 -227 L145 -227 Q147 -154 175.5 -113.5 Q204 -73 256 -73 Q282 -73 301 -82 Q320 -91 344 -109 Q360 -121 369.5 -126.5 Q379 -132 390 -132 Q421 -132 427 -75 L503 -75 Q501 -149 472.5 -189 Q444 -229 392 -229 Z " />
<glyph glyph-name="V" unicode="V" horiz-adv-x="605" d="M590 724 L383 0 L222 0 L15 724 L170 724 L304 153 L437 724 L590 724 Z " />
<glyph glyph-name="uni1EFC" unicode="&#x1efc;" horiz-adv-x="538" d="M282 -12 Q159 -12 99 64.5 Q39 141 39 299 Q39 435 71 514.5 Q103 594 183 649 Q278 715 425 736 L448 625 Q385 611 345.5 596 Q306 581 278 562 Q244 540 225.5 508.5 Q207 477 199 428.5 Q191 380 191 302 Q191 208 214 162.5 Q237 117 285 117 Q370 117 370 222 Q370 276 344.5 304 Q319 332 256 346 L292 472 Q413 448 467.5 391 Q522 334 522 231 Q522 115 459.5 51.5 Q397 -12 282 -12 Z " />
<glyph glyph-name="uniA760" unicode="&#xa760;" horiz-adv-x="908" d="M686 0 Q636 -151 418 -222 L371 -103 Q437 -79 473 -56 Q509 -33 528 0 L525 0 L450 262 L383 0 L222 0 L15 724 L170 724 L304 153 L384 494 L318 724 L473 724 L607 153 L740 724 L893 724 L686 0 Z " />
<glyph glyph-name="uniA75E" unicode="&#xa75e;" horiz-adv-x="605" d="M590 724 L383 0 L222 0 L204 62 L158 -107 L77 -107 L163 205 L15 724 L170 724 L233 457 L330 810 L410 810 L270 299 L304 153 L437 724 L590 724 Z " />
<glyph glyph-name="uni1E7E" unicode="&#x1e7e;" horiz-adv-x="605" d="M590 724 L383 0 L222 0 L15 724 L170 724 L304 153 L437 724 L590 724 Z M303 -232 Q264 -232 242.5 -210 Q221 -188 221 -151 Q221 -112 242.5 -90.5 Q264 -69 303 -69 Q342 -69 363.5 -91 Q385 -113 385 -150 Q385 -189 363.5 -210.5 Q342 -232 303 -232 Z " />
<glyph glyph-name="uniA768" unicode="&#xa768;" horiz-adv-x="538" d="M215 -35 L215 -207 L67 -207 L67 724 L215 724 L215 246 L370 724 L523 724 L215 -35 Z " />
<glyph glyph-name="uni01B2" unicode="&#x1b2;" horiz-adv-x="648" d="M586 242 Q586 121 517 54.5 Q448 -12 323 -12 Q199 -12 130.5 54.5 Q62 121 62 242 L62 724 L210 724 L210 253 Q210 117 323 117 Q438 117 438 253 L438 353 L438 564 Q438 588 430.5 597.5 Q423 607 405 607 Q382 607 360 601 L339 720 Q377 736 425 736 Q586 736 586 576 L586 242 Z " />
<glyph glyph-name="uni1E7C" unicode="&#x1e7c;" horiz-adv-x="605" d="M246 843 Q215 843 209 787 L133 787 Q135 860 163.5 900.5 Q192 941 244 941 Q270 941 289 932 Q308 923 332 905 Q348 893 357.5 887.5 Q367 882 378 882 Q409 882 415 939 L491 939 Q489 865 460.5 825 Q432 785 380 785 Q353 785 333 794.5 Q313 804 292 821 Q277 832 267 837.5 Q257 843 246 843 Z M590 724 L383 0 L222 0 L15 724 L170 724 L304 153 L437 724 L590 724 Z " />
<glyph glyph-name="uni0245" unicode="&#x245;" horiz-adv-x="605" d="M435 0 L301 571 L168 0 L15 0 L222 724 L383 724 L590 0 L435 0 Z " />
<glyph glyph-name="W" unicode="W" horiz-adv-x="854" d="M837 724 L679 0 L519 0 L426 520 L334 0 L174 0 L17 724 L168 724 L257 173 L349 720 L506 720 L600 172 L688 724 L837 724 Z " />
<glyph glyph-name="Wacute" unicode="&#x1e82;" horiz-adv-x="854" d="M457 781 L342 781 L342 793 L475 926 L629 926 L629 914 L457 781 Z M837 724 L679 0 L519 0 L426 520 L334 0 L174 0 L17 724 L168 724 L257 173 L349 720 L506 720 L600 172 L688 724 L837 724 Z " />
<glyph glyph-name="Wcircumflex" unicode="&#x174;" horiz-adv-x="854" d="M344 781 L247 781 L247 793 L358 926 L492 926 L603 793 L603 781 L502 781 L422 859 L344 781 Z M837 724 L679 0 L519 0 L426 520 L334 0 L174 0 L17 724 L168 724 L257 173 L349 720 L506 720 L600 172 L688 724 L837 724 Z " />
<glyph glyph-name="Wdieresis" unicode="&#x1e84;" horiz-adv-x="854" d="M328 782 Q295 782 276 802 Q257 822 257 855 Q257 890 276 909.5 Q295 929 329 929 Q362 929 381 909 Q400 889 400 856 Q400 821 381 801.5 Q362 782 328 782 Z M521 782 Q488 782 469 802 Q450 822 450 855 Q450 890 469 909.5 Q488 929 522 929 Q555 929 574 909 Q593 889 593 856 Q593 821 574 801.5 Q555 782 521 782 Z M837 724 L679 0 L519 0 L426 520 L334 0 L174 0 L17 724 L168 724 L257 173 L349 720 L506 720 L600 172 L688 724 L837 724 Z " />
<glyph glyph-name="uni1E86" unicode="&#x1e86;" horiz-adv-x="854" d="M425 786 Q386 786 364.5 808 Q343 830 343 867 Q343 905 364.5 926.5 Q386 948 425 948 Q464 948 485.5 926.5 Q507 905 507 868 Q507 829 485.5 807.5 Q464 786 425 786 Z M837 724 L679 0 L519 0 L426 520 L334 0 L174 0 L17 724 L168 724 L257 173 L349 720 L506 720 L600 172 L688 724 L837 724 Z " />
<glyph glyph-name="uni1E88" unicode="&#x1e88;" horiz-adv-x="854" d="M837 724 L679 0 L519 0 L426 520 L334 0 L174 0 L17 724 L168 724 L257 173 L349 720 L506 720 L600 172 L688 724 L837 724 Z M426 -232 Q387 -232 365.5 -210 Q344 -188 344 -151 Q344 -112 365.5 -90.5 Q387 -69 426 -69 Q465 -69 486.5 -91 Q508 -113 508 -150 Q508 -189 486.5 -210.5 Q465 -232 426 -232 Z " />
<glyph glyph-name="Wgrave" unicode="&#x1e80;" horiz-adv-x="854" d="M392 781 L229 914 L229 926 L383 926 L507 793 L507 781 L392 781 Z M837 724 L679 0 L519 0 L426 520 L334 0 L174 0 L17 724 L168 724 L257 173 L349 720 L506 720 L600 172 L688 724 L837 724 Z " />
<glyph glyph-name="uni2C72" unicode="&#x2c72;" horiz-adv-x="941" d="M827 743 Q894 743 930.5 701.5 Q967 660 974 576 L860 555 Q856 583 849 595.5 Q842 608 831 608 Q820 608 813 595 Q806 582 799 549 L679 0 L519 0 L426 520 L334 0 L174 0 L17 724 L168 724 L257 173 L349 720 L506 720 L600 172 L665 580 Q690 743 827 743 Z " />
<glyph glyph-name="uni01F7" unicode="&#x1f7;" horiz-adv-x="543" d="M361 736 Q447 736 494 672.5 Q541 609 541 494 Q541 424 520.5 371.5 Q500 319 451.5 268 Q403 217 314 153 L215 84 L215 -207 L67 -207 L67 724 L208 724 L208 661 Q268 736 361 736 Z M294 298 Q349 338 369 376.5 Q389 415 389 478 Q389 604 314 604 Q265 604 215 555 L215 240 L294 298 Z " />
<glyph glyph-name="X" unicode="X" horiz-adv-x="572" d="M401 0 L283 247 L168 0 L7 0 L204 367 L15 724 L178 724 L290 488 L403 724 L563 724 L368 367 L565 0 L401 0 Z " />
<glyph glyph-name="uni1E8C" unicode="&#x1e8c;" horiz-adv-x="572" d="M189 782 Q156 782 137 802 Q118 822 118 855 Q118 890 137 909.5 Q156 929 190 929 Q223 929 242 909 Q261 889 261 856 Q261 821 242 801.5 Q223 782 189 782 Z M382 782 Q349 782 330 802 Q311 822 311 855 Q311 890 330 909.5 Q349 929 383 929 Q416 929 435 909 Q454 889 454 856 Q454 821 435 801.5 Q416 782 382 782 Z M401 0 L283 247 L168 0 L7 0 L204 367 L15 724 L178 724 L290 488 L403 724 L563 724 L368 367 L565 0 L401 0 Z " />
<glyph glyph-name="uni1E8A" unicode="&#x1e8a;" horiz-adv-x="572" d="M286 786 Q247 786 225.5 808 Q204 830 204 867 Q204 905 225.5 926.5 Q247 948 286 948 Q325 948 346.5 926.5 Q368 905 368 868 Q368 829 346.5 807.5 Q325 786 286 786 Z M401 0 L283 247 L168 0 L7 0 L204 367 L15 724 L178 724 L290 488 L403 724 L563 724 L368 367 L565 0 L401 0 Z " />
<glyph glyph-name="Y" unicode="Y" horiz-adv-x="563" d="M556 724 L354 234 L354 0 L206 0 L206 234 L7 724 L164 724 L283 392 L401 724 L556 724 Z " />
<glyph glyph-name="Yacute" unicode="&#xdd;" horiz-adv-x="563" d="M313 781 L198 781 L198 793 L331 926 L485 926 L485 914 L313 781 Z M556 724 L354 234 L354 0 L206 0 L206 234 L7 724 L164 724 L283 392 L401 724 L556 724 Z " />
<glyph glyph-name="Ycircumflex" unicode="&#x176;" horiz-adv-x="563" d="M200 781 L103 781 L103 793 L214 926 L348 926 L459 793 L459 781 L358 781 L278 859 L200 781 Z M556 724 L354 234 L354 0 L206 0 L206 234 L7 724 L164 724 L283 392 L401 724 L556 724 Z " />
<glyph glyph-name="Ydieresis" unicode="&#x178;" horiz-adv-x="563" d="M184 782 Q151 782 132 802 Q113 822 113 855 Q113 890 132 909.5 Q151 929 185 929 Q218 929 237 909 Q256 889 256 856 Q256 821 237 801.5 Q218 782 184 782 Z M377 782 Q344 782 325 802 Q306 822 306 855 Q306 890 325 909.5 Q344 929 378 929 Q411 929 430 909 Q449 889 449 856 Q449 821 430 801.5 Q411 782 377 782 Z M556 724 L354 234 L354 0 L206 0 L206 234 L7 724 L164 724 L283 392 L401 724 L556 724 Z " />
<glyph glyph-name="uni1E8E" unicode="&#x1e8e;" horiz-adv-x="563" d="M281 786 Q242 786 220.5 808 Q199 830 199 867 Q199 905 220.5 926.5 Q242 948 281 948 Q320 948 341.5 926.5 Q363 905 363 868 Q363 829 341.5 807.5 Q320 786 281 786 Z M556 724 L354 234 L354 0 L206 0 L206 234 L7 724 L164 724 L283 392 L401 724 L556 724 Z " />
<glyph glyph-name="uni1EF4" unicode="&#x1ef4;" horiz-adv-x="563" d="M556 724 L354 234 L354 0 L206 0 L206 234 L7 724 L164 724 L283 392 L401 724 L556 724 Z M281 -232 Q242 -232 220.5 -210 Q199 -188 199 -151 Q199 -112 220.5 -90.5 Q242 -69 281 -69 Q320 -69 341.5 -91 Q363 -113 363 -150 Q363 -189 341.5 -210.5 Q320 -232 281 -232 Z " />
<glyph glyph-name="Ygrave" unicode="&#x1ef2;" horiz-adv-x="563" d="M248 781 L85 914 L85 926 L239 926 L363 793 L363 781 L248 781 Z M556 724 L354 234 L354 0 L206 0 L206 234 L7 724 L164 724 L283 392 L401 724 L556 724 Z " />
<glyph glyph-name="uni01B3" unicode="&#x1b3;" horiz-adv-x="626" d="M522 743 Q655 743 669 576 L555 555 Q551 583 544 595.5 Q537 608 526 608 Q516 608 508.5 599 Q501 590 490 565 L354 234 L354 0 L206 0 L206 234 L7 724 L164 724 L283 392 L356 596 Q383 673 422.5 708 Q462 743 522 743 Z " />
<glyph glyph-name="uni1EF6" unicode="&#x1ef6;" horiz-adv-x="563" d="M260 886 Q237 886 197 866 L169 929 Q195 945 227 953.5 Q259 962 293 962 Q344 962 372 941.5 Q400 921 400 884 Q400 856 387 843.5 Q374 831 352 821 Q338 815 332 810.5 Q326 806 326 798 L328 781 L234 781 Q232 793 232 803 Q232 822 240.5 832 Q249 842 264 850 Q273 856 277.5 860 Q282 864 282 871 Q282 886 260 886 Z M556 724 L354 234 L354 0 L206 0 L206 234 L7 724 L164 724 L283 392 L401 724 L556 724 Z " />
<glyph glyph-name="uni1EFE" unicode="&#x1efe;" horiz-adv-x="587" d="M622 724 L369 151 Q328 58 276.5 16.5 Q225 -25 151 -25 Q86 -25 50.5 7.5 Q15 40 15 99 Q15 173 71.5 222.5 Q128 272 232 290 L29 724 L185 724 L331 375 L468 724 L622 724 Z M161 89 Q177 89 191.5 102.5 Q206 116 221 145 L246 197 Q189 186 162.5 167.5 Q136 149 136 119 Q136 89 161 89 Z " />
<glyph glyph-name="uni0232" unicode="&#x232;" horiz-adv-x="563" d="M440 807 L122 807 L122 901 L440 901 L440 807 Z M556 724 L354 234 L354 0 L206 0 L206 234 L7 724 L164 724 L283 392 L401 724 L556 724 Z " />
<glyph glyph-name="uni021C" unicode="&#x21c;" horiz-adv-x="510" d="M365 390 Q490 331 490 196 Q490 114 442 54.5 Q394 -5 292.5 -46.5 Q191 -88 28 -116 L5 1 Q129 24 201 51.5 Q273 79 305.5 116 Q338 153 338 205 Q338 286 263 323 Q202 290 110 256 L71 364 Q195 411 247 453 Q299 495 299 545 Q299 612 218 612 Q143 612 57 569 L13 684 Q64 709 123 722.5 Q182 736 238 736 Q339 736 394.5 690.5 Q450 645 450 562 Q450 465 365 390 Z " />
<glyph glyph-name="uni01A6" unicode="&#x1a6;" horiz-adv-x="585" d="M299 201 L215 201 L215 0 L67 0 L67 724 L215 724 L215 642 L317 642 Q426 642 486 584.5 Q546 527 546 423 Q546 355 520 306 Q494 257 444 230 L658 -110 L478 -110 L299 201 Z M215 324 L317 324 Q395 324 395 419 Q395 516 313 516 L215 516 L215 324 Z " />
<glyph glyph-name="uni024E" unicode="&#x24e;" horiz-adv-x="563" d="M509 611 L556 611 L556 507 L467 507 L355 234 L355 0 L207 0 L207 234 L95 507 L7 507 L7 611 L53 611 L7 724 L164 724 L205 611 L361 611 L401 724 L556 724 L509 611 Z M241 510 L284 392 L325 510 L241 510 Z " />
<glyph glyph-name="uni1EF8" unicode="&#x1ef8;" horiz-adv-x="563" d="M215 843 Q184 843 178 787 L102 787 Q104 860 132.5 900.5 Q161 941 213 941 Q239 941 258 932 Q277 923 301 905 Q317 893 326.5 887.5 Q336 882 347 882 Q378 882 384 939 L460 939 Q458 865 429.5 825 Q401 785 349 785 Q322 785 302 794.5 Q282 804 261 821 Q246 832 236 837.5 Q226 843 215 843 Z M556 724 L354 234 L354 0 L206 0 L206 234 L7 724 L164 724 L283 392 L401 724 L556 724 Z " />
<glyph glyph-name="Z" unicode="Z" horiz-adv-x="520" d="M493 126 L493 0 L24 0 L24 127 L320 598 L36 598 L36 724 L487 724 L487 598 L191 126 L493 126 Z " />
<glyph glyph-name="Zacute" unicode="&#x179;" horiz-adv-x="520" d="M291 781 L176 781 L176 793 L309 926 L463 926 L463 914 L291 781 Z M493 126 L493 0 L24 0 L24 127 L320 598 L36 598 L36 724 L487 724 L487 598 L191 126 L493 126 Z " />
<glyph glyph-name="Zcaron" unicode="&#x17d;" horiz-adv-x="520" d="M192 781 L81 914 L81 926 L182 926 L262 848 L340 926 L437 926 L437 914 L326 781 L192 781 Z M493 126 L493 0 L24 0 L24 127 L320 598 L36 598 L36 724 L487 724 L487 598 L191 126 L493 126 Z " />
<glyph glyph-name="uni1E90" unicode="&#x1e90;" horiz-adv-x="520" d="M178 781 L81 781 L81 793 L192 926 L326 926 L437 793 L437 781 L336 781 L256 859 L178 781 Z M493 126 L493 0 L24 0 L24 127 L320 598 L36 598 L36 724 L487 724 L487 598 L191 126 L493 126 Z " />
<glyph glyph-name="uni2C6B" unicode="&#x2c6b;" horiz-adv-x="520" d="M493 126 L493 0 L493 -157 L387 -157 L363 0 L24 0 L24 127 L320 598 L36 598 L36 724 L487 724 L487 598 L191 126 L493 126 Z " />
<glyph glyph-name="Zdotaccent" unicode="&#x17b;" horiz-adv-x="520" d="M259 786 Q220 786 198.5 808 Q177 830 177 867 Q177 905 198.5 926.5 Q220 948 259 948 Q298 948 319.5 926.5 Q341 905 341 868 Q341 829 319.5 807.5 Q298 786 259 786 Z M493 126 L493 0 L24 0 L24 127 L320 598 L36 598 L36 724 L487 724 L487 598 L191 126 L493 126 Z " />
<glyph glyph-name="uni1E92" unicode="&#x1e92;" horiz-adv-x="520" d="M493 126 L493 0 L24 0 L24 127 L320 598 L36 598 L36 724 L487 724 L487 598 L191 126 L493 126 Z M263 -232 Q224 -232 202.5 -210 Q181 -188 181 -151 Q181 -112 202.5 -90.5 Q224 -69 263 -69 Q302 -69 323.5 -91 Q345 -113 345 -150 Q345 -189 323.5 -210.5 Q302 -232 263 -232 Z " />
<glyph glyph-name="uni0224" unicode="&#x224;" horiz-adv-x="527" d="M334 126 Q422 126 467 77 Q512 28 512 -67 Q512 -92 508 -116 L380 -116 Q383 -85 383 -69 Q383 -33 371.5 -16.5 Q360 0 334 0 L311 0 L24 0 L24 127 L320 598 L36 598 L36 724 L487 724 L487 598 L191 126 L334 126 Z " />
<glyph glyph-name="uni1E94" unicode="&#x1e94;" horiz-adv-x="520" d="M493 126 L493 0 L24 0 L24 127 L320 598 L36 598 L36 724 L487 724 L487 598 L191 126 L493 126 Z M108 -97 L426 -97 L426 -191 L108 -191 L108 -97 Z " />
<glyph glyph-name="uni01B5" unicode="&#x1b5;" horiz-adv-x="520" d="M493 126 L493 0 L24 0 L24 127 L152 329 L63 329 L63 431 L215 431 L320 598 L36 598 L36 724 L487 724 L487 598 L381 428 L456 428 L456 327 L317 327 L191 126 L493 126 Z " />
<glyph glyph-name="uniA722" unicode="&#xa722;" horiz-adv-x="296" d="M44 724 L118 724 Q197 724 240 687.5 Q283 651 283 584 Q283 517 234 467.5 Q185 418 76 375 L34 452 Q103 486 131.5 513 Q160 540 160 571 Q160 621 102 621 L29 621 L44 724 Z M44 338 L118 338 Q197 338 240 301.5 Q283 265 283 198 Q283 131 234 81.5 Q185 32 76 -11 L34 66 Q103 100 131.5 127 Q160 154 160 186 Q160 236 102 236 L29 236 L44 338 Z " />
<glyph glyph-name="uniA724" unicode="&#xa724;" horiz-adv-x="296" d="M194 621 Q136 621 136 571 Q136 539 164 512.5 Q192 486 261 452 L219 375 Q110 418 61 467.5 Q12 517 12 584 Q12 651 55.5 687.5 Q99 724 177 724 L251 724 L266 621 L194 621 Z " />
<glyph glyph-name="uni1D01" unicode="&#x1d01;" horiz-adv-x="766" d="M752 123 L752 0 L367 0 L367 86 L183 86 L140 0 L-8 0 L275 549 L416 549 L740 549 L740 426 L509 426 L509 339 L674 339 L674 217 L509 217 L509 123 L752 123 Z M367 199 L367 452 L240 199 L367 199 Z " />
<glyph glyph-name="uni1D00" unicode="&#x1d00;" horiz-adv-x="556" d="M372 92 L179 92 L153 0 L7 0 L198 549 L356 549 L549 0 L398 0 L372 92 Z M339 207 L275 431 L212 207 L339 207 Z " />
<glyph glyph-name="uni1D03" unicode="&#x1d03;" horiz-adv-x="536" d="M538 237 L485 237 Q510 205 510 154 Q510 81 456.5 40.5 Q403 0 306 0 L138 0 L58 0 L58 234 L7 234 L7 325 L58 325 L58 549 L200 549 L285 549 Q377 549 428 510.5 Q479 472 479 402 Q479 352 453 322 L538 322 L538 237 Z M200 434 L200 329 L283 329 Q339 329 339 380 Q339 434 278 434 L200 434 Z M312 114 Q367 114 367 169 Q367 226 306 226 L200 226 L200 114 L312 114 Z " />
<glyph glyph-name="uni0299" unicode="&#x299;" horiz-adv-x="540" d="M402 288 Q460 272 487.5 239.5 Q515 207 515 154 Q515 80 461.5 40 Q408 0 311 0 L143 0 L63 0 L63 549 L205 549 L290 549 Q382 549 433 510.5 Q484 472 484 402 Q484 359 464.5 331 Q445 303 402 288 Z M205 434 L205 329 L288 329 Q344 329 344 380 Q344 434 283 434 L205 434 Z M317 114 Q372 114 372 169 Q372 226 311 226 L205 226 L205 114 L317 114 Z " />
<glyph glyph-name="uni1D04" unicode="&#x1d04;" horiz-adv-x="485" d="M298 -8 Q168 -8 97 62.5 Q26 133 26 262 Q26 350 59.5 417 Q93 484 153.5 521 Q214 558 295 558 Q339 558 384 546.5 Q429 535 466 515 L424 405 Q349 431 301 431 Q242 431 209.5 389.5 Q177 348 177 272 Q177 120 313 120 Q370 120 430 143 L471 36 Q442 15 396.5 3.5 Q351 -8 298 -8 Z " />
<glyph glyph-name="uni1D05" unicode="&#x1d05;" horiz-adv-x="577" d="M264 549 Q398 549 470 479.5 Q542 410 542 275 Q542 139 470.5 69.5 Q399 0 265 0 L63 0 L63 549 L264 549 Z M263 123 Q393 123 393 276 Q393 426 267 426 L209 426 L209 123 L263 123 Z " />
<glyph glyph-name="uni1D07" unicode="&#x1d07;" horiz-adv-x="476" d="M462 123 L462 0 L63 0 L63 549 L452 549 L452 426 L209 426 L209 339 L384 339 L384 217 L209 217 L209 123 L462 123 Z " />
<glyph glyph-name="uni1D06" unicode="&#x1d06;" horiz-adv-x="565" d="M262 549 Q392 549 461 480 Q530 411 530 275 Q530 138 461.5 69 Q393 0 264 0 L55 0 L55 227 L7 227 L7 327 L55 327 L55 549 L262 549 Z M260 125 Q322 125 351.5 162 Q381 199 381 275 Q381 351 352 387 Q323 423 264 423 L201 423 L201 327 L300 327 L300 227 L201 227 L201 125 L260 125 Z " />
<glyph glyph-name="uni1D23" unicode="&#x1d23;" horiz-adv-x="480" d="M285 332 Q370 321 415 283 Q460 245 460 183 Q460 126 427 82.5 Q394 39 335 15 Q276 -9 200 -9 Q146 -9 93.5 1 Q41 11 -2 29 L41 143 Q114 112 197 112 Q311 112 311 176 Q311 210 272.5 226 Q234 242 152 242 L116 242 L116 334 L256 428 L25 428 L25 549 L422 549 L422 426 L285 332 Z " />
<glyph glyph-name="uniA730" unicode="&#xa730;" horiz-adv-x="446" d="M209 426 L209 318 L398 318 L398 196 L209 196 L209 0 L63 0 L63 549 L444 549 L444 426 L209 426 Z " />
<glyph glyph-name="uni0262" unicode="&#x262;" horiz-adv-x="554" d="M511 324 L511 41 Q475 17 425.5 4 Q376 -9 320 -9 Q184 -9 109.5 65 Q35 139 35 274 Q35 409 109.5 483.5 Q184 558 320 558 Q373 558 422 546.5 Q471 535 506 514 L470 405 Q382 437 318 437 Q182 437 182 276 Q182 193 216 152.5 Q250 112 320 112 Q348 112 371 116 L371 211 L290 211 L290 324 L511 324 Z " />
<glyph glyph-name="uni029B" unicode="&#x29b;" horiz-adv-x="652" d="M579 691 Q603 691 628 688 L628 572 Q597 575 581 575 Q542 575 524.5 560 Q507 545 507 513 L507 491 L507 405 L470 405 Q382 437 318 437 Q182 437 182 276 Q182 193 216 152.5 Q250 112 320 112 Q348 112 371 116 L371 211 L290 211 L290 324 L511 324 L511 41 Q475 17 425.5 4 Q376 -9 320 -9 Q184 -9 109.5 65 Q35 139 35 274 Q35 409 109.5 483.5 Q184 558 320 558 Q356 558 389 552 Q400 620 448.5 655.5 Q497 691 579 691 Z " />
<glyph glyph-name="uni029C" unicode="&#x29c;" horiz-adv-x="566" d="M516 549 L516 0 L370 0 L370 217 L196 217 L196 0 L50 0 L50 549 L196 549 L196 340 L370 340 L370 549 L516 549 Z " />
<glyph glyph-name="uni026A" unicode="&#x26a;" horiz-adv-x="276" d="M65 549 L211 549 L211 0 L65 0 L65 549 Z " />
<glyph glyph-name="uni1D0A" unicode="&#x1d0a;" horiz-adv-x="393" d="M147 -9 Q54 -9 -8 36 L34 140 Q93 115 137 115 Q189 115 189 162 L189 549 L335 549 L335 148 Q335 73 286 32 Q237 -9 147 -9 Z " />
<glyph glyph-name="uni1D0B" unicode="&#x1d0b;" horiz-adv-x="538" d="M259 212 L209 154 L209 0 L63 0 L63 549 L209 549 L209 325 L376 549 L545 549 L351 321 L557 0 L386 0 L259 212 Z " />
<glyph glyph-name="uni029F" unicode="&#x29f;" horiz-adv-x="439" d="M425 124 L425 0 L63 0 L63 549 L209 549 L209 124 L425 124 Z " />
<glyph glyph-name="uni1D0C" unicode="&#x1d0c;" horiz-adv-x="431" d="M424 124 L424 0 L62 0 L62 167 L22 144 L14 144 L14 246 L62 272 L62 549 L208 549 L208 350 L330 414 L338 414 L338 311 L208 246 L208 124 L424 124 Z " />
<glyph glyph-name="uni1D0D" unicode="&#x1d0d;" horiz-adv-x="722" d="M659 549 L659 0 L519 0 L519 338 L427 99 L293 99 L200 339 L200 0 L63 0 L63 549 L243 549 L361 225 L476 549 L659 549 Z " />
<glyph glyph-name="uniA7FA" unicode="&#xa7fa;" horiz-adv-x="744" d="M681 549 L681 0 L63 0 L63 549 L208 549 L208 128 L300 128 L300 549 L444 549 L444 128 L537 128 L537 549 L681 549 Z " />
<glyph glyph-name="uni1D0E" unicode="&#x1d0e;" horiz-adv-x="610" d="M547 549 L547 0 L407 0 L407 324 L207 0 L63 0 L63 549 L204 549 L204 228 L403 549 L547 549 Z " />
<glyph glyph-name="uni0274" unicode="&#x274;" horiz-adv-x="610" d="M547 549 L547 0 L403 0 L203 324 L203 0 L63 0 L63 549 L207 549 L406 227 L406 549 L547 549 Z " />
<glyph glyph-name="uni0276" unicode="&#x276;" horiz-adv-x="774" d="M760 123 L760 0 L374 0 L290 0 Q165 0 97 69.5 Q29 139 29 274 Q29 410 96.5 479.5 Q164 549 290 549 L409 549 L748 549 L748 426 L517 426 L517 339 L682 339 L682 217 L517 217 L517 123 L760 123 Z M374 123 L374 426 L290 426 Q178 426 178 274 Q178 123 290 123 L374 123 Z " />
<glyph glyph-name="uni1D15" unicode="&#x1d15;" horiz-adv-x="529" d="M397 284 Q448 266 475.5 230.5 Q503 195 503 146 Q503 73 440 32 Q377 -9 264 -9 Q151 -9 88.5 31.5 Q26 72 26 146 Q26 195 53.5 230.5 Q81 266 131 284 Q87 301 63 334 Q39 367 39 409 Q39 464 77 502.5 Q115 541 185 558 L231 454 Q182 430 182 389 Q182 338 265 338 Q347 338 347 388 Q347 428 296 454 L343 558 Q413 541 451.5 502.5 Q490 464 490 409 Q490 367 466 334.5 Q442 302 397 284 Z M264 109 Q359 109 359 168 Q359 228 264 228 Q170 228 170 168 Q170 109 264 109 Z " />
<glyph glyph-name="uni1D10" unicode="&#x1d10;" horiz-adv-x="486" d="M187 557 Q317 557 388 486.5 Q459 416 459 287 Q459 199 425.5 132 Q392 65 331.5 28 Q271 -9 190 -9 Q146 -9 101 2.5 Q56 14 19 34 L61 144 Q136 118 184 118 Q243 118 275.5 159.5 Q308 201 308 277 Q308 429 172 429 Q115 429 55 406 L14 513 Q43 534 88.5 545.5 Q134 557 187 557 Z " />
<glyph glyph-name="uni1D0F" unicode="&#x1d0f;" horiz-adv-x="574" d="M287 -9 Q162 -9 94.5 62.5 Q27 134 27 274 Q27 414 94.5 486 Q162 558 287 558 Q412 558 479 486 Q546 414 546 274 Q546 134 479 62.5 Q412 -9 287 -9 Z M287 114 Q397 114 397 274 Q397 435 287 435 Q176 435 176 274 Q176 114 287 114 Z " />
<glyph glyph-name="uni1D18" unicode="&#x1d18;" horiz-adv-x="496" d="M289 549 Q388 549 442.5 496.5 Q497 444 497 349 Q497 253 441 200.5 Q385 148 284 148 L208 148 L208 0 L63 0 L63 549 L208 549 L289 549 Z M289 269 Q351 269 351 347 Q351 427 284 427 L208 427 L208 269 L289 269 Z " />
<glyph glyph-name="uni1D19" unicode="&#x1d19;" horiz-adv-x="525" d="M461 0 L317 0 L317 170 L271 170 L165 0 L-6 0 L132 193 Q85 216 60.5 258.5 Q36 301 36 361 Q36 450 90.5 499.5 Q145 549 243 549 L461 549 L461 0 Z M317 286 L317 428 L246 428 Q183 428 183 356 Q183 286 243 286 L317 286 Z " />
<glyph glyph-name="uni0280" unicode="&#x280;" horiz-adv-x="524" d="M253 170 L208 170 L208 0 L63 0 L63 549 L208 549 L281 549 Q380 549 434 499.5 Q488 450 488 361 Q488 301 463.5 258.5 Q439 216 392 193 L531 0 L360 0 L253 170 Z M208 286 L281 286 Q341 286 341 356 Q341 428 278 428 L208 428 L208 286 Z " />
<glyph glyph-name="uni0281" unicode="&#x281;" horiz-adv-x="524" d="M393 356 Q439 333 463.5 290.5 Q488 248 488 188 Q488 99 434 49.5 Q380 0 281 0 L140 0 L63 0 L63 549 L208 549 L208 379 L253 379 L360 549 L531 549 L393 356 Z M278 121 Q341 121 341 193 Q341 263 281 263 L208 263 L208 121 L278 121 Z " />
<glyph glyph-name="uniA731" unicode="&#xa731;" horiz-adv-x="452" d="M215 -8 Q161 -8 108.5 5.5 Q56 19 15 43 L54 151 Q141 110 215 110 Q292 110 292 152 Q292 169 277 180.5 Q262 192 228 201 L163 217 Q89 236 55.5 274 Q22 312 22 377 Q22 462 75.5 509.5 Q129 557 225 557 Q269 557 318.5 546.5 Q368 536 415 518 L376 410 Q278 438 223 438 Q160 438 160 403 Q160 386 175 374 Q190 362 223 354 L289 338 Q362 319 395.5 280.5 Q429 242 429 178 Q429 89 373 40.5 Q317 -8 215 -8 Z " />
<glyph glyph-name="uni1D1B" unicode="&#x1d1b;" horiz-adv-x="440" d="M431 426 L294 426 L294 0 L147 0 L147 426 L10 426 L10 549 L294 549 L431 549 L431 426 Z " />
<glyph glyph-name="uni1D1A" unicode="&#x1d1a;" horiz-adv-x="525" d="M461 549 L461 0 L316 0 L243 0 Q144 0 90 49.5 Q36 99 36 188 Q36 248 60.5 290.5 Q85 333 131 356 L-7 549 L164 549 L271 379 L316 379 L316 549 L461 549 Z M316 121 L316 263 L243 263 Q183 263 183 193 Q183 121 246 121 L316 121 Z " />
<glyph glyph-name="uni2C7B" unicode="&#x2c7b;" horiz-adv-x="476" d="M413 549 L413 0 L24 0 L24 123 L267 123 L267 210 L92 210 L92 332 L267 332 L267 426 L14 426 L14 549 L413 549 Z " />
<glyph glyph-name="uni1D1C" unicode="&#x1d1c;" horiz-adv-x="577" d="M287 -9 Q178 -9 118 42.5 Q58 94 58 187 L58 549 L204 549 L204 197 Q204 114 287 114 Q373 114 373 197 L373 549 L519 549 L519 187 Q519 94 458.5 42.5 Q398 -9 287 -9 Z " />
<glyph glyph-name="uni1D20" unicode="&#x1d20;" horiz-adv-x="514" d="M511 549 L337 0 L178 0 L3 549 L155 549 L260 135 L363 549 L511 549 Z " />
<glyph glyph-name="uni1D21" unicode="&#x1d21;" horiz-adv-x="741" d="M729 549 L596 0 L439 0 L370 377 L302 0 L145 0 L13 549 L160 549 L226 153 L295 539 L447 539 L519 152 L584 549 L729 549 Z " />
<glyph glyph-name="uni028F" unicode="&#x28f;" horiz-adv-x="493" d="M490 549 L318 166 L318 0 L173 0 L173 166 L3 549 L156 549 L249 306 L340 549 L490 549 Z " />
<glyph glyph-name="uni1D22" unicode="&#x1d22;" horiz-adv-x="447" d="M427 119 L427 0 L19 0 L19 120 L252 429 L31 429 L31 549 L421 549 L421 429 L187 119 L427 119 Z " />
<glyph glyph-name="a" unicode="a" horiz-adv-x="504" d="M245 561 Q342 561 396 515.5 Q450 470 450 388 L450 0 L324 0 L324 81 Q274 -10 171 -10 Q98 -10 58.5 32.5 Q19 75 19 152 Q19 250 87.5 295.5 Q156 341 307 344 L307 370 Q307 437 217 437 Q154 437 95 409 L63 516 Q151 561 245 561 Z M210 108 Q263 108 307 157 L307 255 Q227 253 190 231.5 Q153 210 153 166 Q153 108 210 108 Z " />
<glyph glyph-name="uniA733" unicode="&#xa733;" horiz-adv-x="781" d="M522 561 Q619 561 673 515.5 Q727 470 727 388 L727 0 L601 0 L601 82 Q550 -10 451 -10 Q357 -10 325 64 Q255 -10 167 -10 Q97 -10 58 32 Q19 74 19 150 Q19 245 86.5 290 Q154 335 304 338 L304 370 Q304 404 282.5 420.5 Q261 437 216 437 Q154 437 95 410 L63 517 Q104 538 151 549.5 Q198 561 244 561 Q321 561 369 524 Q441 561 522 561 Z M584 370 Q584 437 495 437 Q458 437 425 428 Q428 409 428 388 L428 316 Q484 334 584 337 L584 370 Z M208 108 Q259 108 304 160 L304 249 Q225 247 189 226.5 Q153 206 153 163 Q153 108 208 108 Z M491 108 Q516 108 538.5 119.5 Q561 131 584 157 L584 248 Q505 246 469.5 226.5 Q434 207 434 165 Q434 138 448.5 123 Q463 108 491 108 Z " />
<glyph glyph-name="aacute" unicode="&#xe1;" horiz-adv-x="504" d="M245 561 Q342 561 396 515.5 Q450 470 450 388 L450 0 L324 0 L324 81 Q274 -10 171 -10 Q98 -10 58.5 32.5 Q19 75 19 152 Q19 250 87.5 295.5 Q156 341 307 344 L307 370 Q307 437 217 437 Q154 437 95 409 L63 516 Q151 561 245 561 Z M210 108 Q263 108 307 157 L307 255 Q227 253 190 231.5 Q153 210 153 166 Q153 108 210 108 Z M174 625 L259 784 L402 784 L402 774 L277 615 L174 615 L174 625 Z " />
<glyph glyph-name="abreve" unicode="&#x103;" horiz-adv-x="504" d="M245 561 Q342 561 396 515.5 Q450 470 450 388 L450 0 L324 0 L324 81 Q274 -10 171 -10 Q98 -10 58.5 32.5 Q19 75 19 152 Q19 250 87.5 295.5 Q156 341 307 344 L307 370 Q307 437 217 437 Q154 437 95 409 L63 516 Q151 561 245 561 Z M210 108 Q263 108 307 157 L307 255 Q227 253 190 231.5 Q153 210 153 166 Q153 108 210 108 Z M242 612 Q170 612 129 657 Q88 702 85 785 L163 785 Q173 711 243 711 Q314 711 324 785 L399 785 Q396 702 355 657 Q314 612 242 612 Z " />
<glyph glyph-name="uni1EAF" unicode="&#x1eaf;" horiz-adv-x="504" d="M282 768 L194 768 L194 778 L260 905 L378 905 L378 895 L282 768 Z M242 611 Q171 611 130.5 653.5 Q90 696 87 774 L161 774 Q170 700 243 700 Q317 700 326 774 L397 774 Q394 696 353.5 653.5 Q313 611 242 611 Z M245 561 Q342 561 396 515.5 Q450 470 450 388 L450 0 L324 0 L324 81 Q274 -10 171 -10 Q98 -10 58.5 32.5 Q19 75 19 152 Q19 250 87.5 295.5 Q156 341 307 344 L307 370 Q307 437 217 437 Q154 437 95 409 L63 516 Q151 561 245 561 Z M210 108 Q263 108 307 157 L307 255 Q227 253 190 231.5 Q153 210 153 166 Q153 108 210 108 Z " />
<glyph glyph-name="uni1EB7" unicode="&#x1eb7;" horiz-adv-x="504" d="M245 561 Q342 561 396 515.5 Q450 470 450 388 L450 0 L324 0 L324 81 Q274 -10 171 -10 Q98 -10 58.5 32.5 Q19 75 19 152 Q19 250 87.5 295.5 Q156 341 307 344 L307 370 Q307 437 217 437 Q154 437 95 409 L63 516 Q151 561 245 561 Z M210 108 Q263 108 307 157 L307 255 Q227 253 190 231.5 Q153 210 153 166 Q153 108 210 108 Z M233 -232 Q194 -232 172.5 -210 Q151 -188 151 -151 Q151 -112 172.5 -90.5 Q194 -69 233 -69 Q272 -69 293.5 -91 Q315 -113 315 -150 Q315 -189 293.5 -210.5 Q272 -232 233 -232 Z M242 612 Q170 612 129 657 Q88 702 85 785 L163 785 Q173 711 243 711 Q314 711 324 785 L399 785 Q396 702 355 657 Q314 612 242 612 Z " />
<glyph glyph-name="uni1EB1" unicode="&#x1eb1;" horiz-adv-x="504" d="M202 768 L111 895 L111 905 L229 905 L289 778 L289 768 L202 768 Z M242 611 Q171 611 130.5 653.5 Q90 696 87 774 L161 774 Q170 700 243 700 Q317 700 326 774 L397 774 Q394 696 353.5 653.5 Q313 611 242 611 Z M245 561 Q342 561 396 515.5 Q450 470 450 388 L450 0 L324 0 L324 81 Q274 -10 171 -10 Q98 -10 58.5 32.5 Q19 75 19 152 Q19 250 87.5 295.5 Q156 341 307 344 L307 370 Q307 437 217 437 Q154 437 95 409 L63 516 Q151 561 245 561 Z M210 108 Q263 108 307 157 L307 255 Q227 253 190 231.5 Q153 210 153 166 Q153 108 210 108 Z " />
<glyph glyph-name="uni1EB3" unicode="&#x1eb3;" horiz-adv-x="504" d="M218 879 Q194 879 165 864 L140 922 Q163 936 192 943.5 Q221 951 250 951 Q299 951 326 930 Q353 909 353 871 Q353 844 341.5 831.5 Q330 819 310 810 Q298 804 291.5 798.5 Q285 793 285 784 L287 768 L198 768 Q196 780 196 788 Q196 809 203.5 820 Q211 831 224 840 Q233 846 237 850.5 Q241 855 241 863 Q241 879 218 879 Z M242 611 Q171 611 130.5 653.5 Q90 696 87 774 L161 774 Q170 700 243 700 Q317 700 326 774 L397 774 Q394 696 353.5 653.5 Q313 611 242 611 Z M245 561 Q342 561 396 515.5 Q450 470 450 388 L450 0 L324 0 L324 81 Q274 -10 171 -10 Q98 -10 58.5 32.5 Q19 75 19 152 Q19 250 87.5 295.5 Q156 341 307 344 L307 370 Q307 437 217 437 Q154 437 95 409 L63 516 Q151 561 245 561 Z M210 108 Q263 108 307 157 L307 255 Q227 253 190 231.5 Q153 210 153 166 Q153 108 210 108 Z " />
<glyph glyph-name="uni1EB5" unicode="&#x1eb5;" horiz-adv-x="504" d="M188 875 Q152 875 146 822 L78 822 Q78 889 107 926 Q136 963 188 963 Q214 963 228.5 954.5 Q243 946 258 930 Q269 918 276.5 913 Q284 908 296 908 Q333 908 338 961 L406 961 Q406 894 377.5 857 Q349 820 296 820 Q269 820 254.5 828.5 Q240 837 225 853 Q216 864 208 869.5 Q200 875 188 875 Z M243 700 Q317 700 326 774 L397 774 Q394 696 353.5 653.5 Q313 611 242 611 Q171 611 130.5 653.5 Q90 696 87 774 L161 774 Q170 700 243 700 Z M245 561 Q342 561 396 515.5 Q450 470 450 388 L450 0 L324 0 L324 81 Q274 -10 171 -10 Q98 -10 58.5 32.5 Q19 75 19 152 Q19 250 87.5 295.5 Q156 341 307 344 L307 370 Q307 437 217 437 Q154 437 95 409 L63 516 Q151 561 245 561 Z M210 108 Q263 108 307 157 L307 255 Q227 253 190 231.5 Q153 210 153 166 Q153 108 210 108 Z " />
<glyph glyph-name="uni01CE" unicode="&#x1ce;" horiz-adv-x="504" d="M245 561 Q342 561 396 515.5 Q450 470 450 388 L450 0 L324 0 L324 81 Q274 -10 171 -10 Q98 -10 58.5 32.5 Q19 75 19 152 Q19 250 87.5 295.5 Q156 341 307 344 L307 370 Q307 437 217 437 Q154 437 95 409 L63 516 Q151 561 245 561 Z M210 108 Q263 108 307 157 L307 255 Q227 253 190 231.5 Q153 210 153 166 Q153 108 210 108 Z M402 784 L402 774 L304 615 L180 615 L82 774 L82 784 L176 784 L243 694 L311 784 L402 784 Z " />
<glyph glyph-name="acircumflex" unicode="&#xe2;" horiz-adv-x="504" d="M245 561 Q342 561 396 515.5 Q450 470 450 388 L450 0 L324 0 L324 81 Q274 -10 171 -10 Q98 -10 58.5 32.5 Q19 75 19 152 Q19 250 87.5 295.5 Q156 341 307 344 L307 370 Q307 437 217 437 Q154 437 95 409 L63 516 Q151 561 245 561 Z M210 108 Q263 108 307 157 L307 255 Q227 253 190 231.5 Q153 210 153 166 Q153 108 210 108 Z M402 625 L402 615 L308 615 L240 705 L173 615 L82 615 L82 625 L180 784 L304 784 L402 625 Z " />
<glyph glyph-name="uni1EA5" unicode="&#x1ea5;" horiz-adv-x="504" d="M548 866 L548 856 L452 729 L364 729 L364 739 L430 866 L548 866 Z M170 615 L80 615 L80 625 L180 764 L304 764 L404 625 L404 615 L310 615 L240 694 L170 615 Z M245 561 Q342 561 396 515.5 Q450 470 450 388 L450 0 L324 0 L324 81 Q274 -10 171 -10 Q98 -10 58.5 32.5 Q19 75 19 152 Q19 250 87.5 295.5 Q156 341 307 344 L307 370 Q307 437 217 437 Q154 437 95 409 L63 516 Q151 561 245 561 Z M210 108 Q263 108 307 157 L307 255 Q227 253 190 231.5 Q153 210 153 166 Q153 108 210 108 Z " />
<glyph glyph-name="uni1EAD" unicode="&#x1ead;" horiz-adv-x="504" d="M245 561 Q342 561 396 515.5 Q450 470 450 388 L450 0 L324 0 L324 81 Q274 -10 171 -10 Q98 -10 58.5 32.5 Q19 75 19 152 Q19 250 87.5 295.5 Q156 341 307 344 L307 370 Q307 437 217 437 Q154 437 95 409 L63 516 Q151 561 245 561 Z M210 108 Q263 108 307 157 L307 255 Q227 253 190 231.5 Q153 210 153 166 Q153 108 210 108 Z M233 -232 Q194 -232 172.5 -210 Q151 -188 151 -151 Q151 -112 172.5 -90.5 Q194 -69 233 -69 Q272 -69 293.5 -91 Q315 -113 315 -150 Q315 -189 293.5 -210.5 Q272 -232 233 -232 Z M402 625 L402 615 L308 615 L240 705 L173 615 L82 615 L82 625 L180 784 L304 784 L402 625 Z " />
<glyph glyph-name="uni1EA7" unicode="&#x1ea7;" horiz-adv-x="504" d="M32 729 L-59 856 L-59 866 L59 866 L119 739 L119 729 L32 729 Z M80 625 L180 764 L304 764 L404 625 L404 615 L310 615 L240 694 L170 615 L80 615 L80 625 Z M245 561 Q342 561 396 515.5 Q450 470 450 388 L450 0 L324 0 L324 81 Q274 -10 171 -10 Q98 -10 58.5 32.5 Q19 75 19 152 Q19 250 87.5 295.5 Q156 341 307 344 L307 370 Q307 437 217 437 Q154 437 95 409 L63 516 Q151 561 245 561 Z M210 108 Q263 108 307 157 L307 255 Q227 253 190 231.5 Q153 210 153 166 Q153 108 210 108 Z " />
<glyph glyph-name="uni1EA9" unicode="&#x1ea9;" horiz-adv-x="504" d="M420 911 Q469 911 496 890 Q523 869 523 831 Q523 804 511.5 791.5 Q500 779 480 770 Q468 764 461.5 758.5 Q455 753 455 744 L457 728 L368 728 Q366 740 366 748 Q366 769 373.5 780 Q381 791 394 800 Q403 806 407 810.5 Q411 815 411 823 Q411 839 388 839 Q364 839 335 824 L310 882 Q333 896 362 903.5 Q391 911 420 911 Z M170 615 L80 615 L80 625 L180 764 L304 764 L404 625 L404 615 L310 615 L240 694 L170 615 Z M245 561 Q342 561 396 515.5 Q450 470 450 388 L450 0 L324 0 L324 81 Q274 -10 171 -10 Q98 -10 58.5 32.5 Q19 75 19 152 Q19 250 87.5 295.5 Q156 341 307 344 L307 370 Q307 437 217 437 Q154 437 95 409 L63 516 Q151 561 245 561 Z M210 108 Q263 108 307 157 L307 255 Q227 253 190 231.5 Q153 210 153 166 Q153 108 210 108 Z " />
<glyph glyph-name="uni1EAB" unicode="&#x1eab;" horiz-adv-x="504" d="M188 853 Q152 853 146 800 L78 800 Q78 867 107 904 Q136 941 188 941 Q214 941 228.5 932.5 Q243 924 258 908 Q269 896 276.5 891 Q284 886 296 886 Q333 886 338 939 L406 939 Q406 872 377.5 835 Q349 798 296 798 Q269 798 254.5 806.5 Q240 815 225 831 Q216 842 208 847.5 Q200 853 188 853 Z M304 764 L404 625 L404 615 L310 615 L240 694 L170 615 L80 615 L80 625 L180 764 L304 764 Z M245 561 Q342 561 396 515.5 Q450 470 450 388 L450 0 L324 0 L324 81 Q274 -10 171 -10 Q98 -10 58.5 32.5 Q19 75 19 152 Q19 250 87.5 295.5 Q156 341 307 344 L307 370 Q307 437 217 437 Q154 437 95 409 L63 516 Q151 561 245 561 Z M210 108 Q263 108 307 157 L307 255 Q227 253 190 231.5 Q153 210 153 166 Q153 108 210 108 Z " />
<glyph glyph-name="uni0201" unicode="&#x201;" horiz-adv-x="504" d="M245 561 Q342 561 396 515.5 Q450 470 450 388 L450 0 L324 0 L324 81 Q274 -10 171 -10 Q98 -10 58.5 32.5 Q19 75 19 152 Q19 250 87.5 295.5 Q156 341 307 344 L307 370 Q307 437 217 437 Q154 437 95 409 L63 516 Q151 561 245 561 Z M210 108 Q263 108 307 157 L307 255 Q227 253 190 231.5 Q153 210 153 166 Q153 108 210 108 Z M138 615 L61 774 L61 784 L181 784 L222 625 L222 615 L138 615 Z M293 615 L217 774 L217 784 L337 784 L377 625 L377 615 L293 615 Z " />
<glyph glyph-name="adieresis" unicode="&#xe4;" horiz-adv-x="504" d="M147 625 Q114 625 95 645 Q76 665 76 698 Q76 733 95 752.5 Q114 772 148 772 Q181 772 200 752 Q219 732 219 699 Q219 664 200 644.5 Q181 625 147 625 Z M336 625 Q303 625 284 645 Q265 665 265 698 Q265 733 284 752.5 Q303 772 337 772 Q370 772 389 752 Q408 732 408 699 Q408 664 389 644.5 Q370 625 336 625 Z M245 561 Q342 561 396 515.5 Q450 470 450 388 L450 0 L324 0 L324 81 Q274 -10 171 -10 Q98 -10 58.5 32.5 Q19 75 19 152 Q19 250 87.5 295.5 Q156 341 307 344 L307 370 Q307 437 217 437 Q154 437 95 409 L63 516 Q151 561 245 561 Z M210 108 Q263 108 307 157 L307 255 Q227 253 190 231.5 Q153 210 153 166 Q153 108 210 108 Z " />
<glyph glyph-name="uni01DF" unicode="&#x1df;" horiz-adv-x="504" d="M401 807 L83 807 L83 901 L401 901 L401 807 Z M147 625 Q114 625 95 645 Q76 665 76 698 Q76 733 95 752.5 Q114 772 148 772 Q181 772 200 752 Q219 732 219 699 Q219 664 200 644.5 Q181 625 147 625 Z M337 772 Q370 772 389 752 Q408 732 408 699 Q408 664 389 644.5 Q370 625 336 625 Q303 625 284 645 Q265 665 265 698 Q265 733 284 752.5 Q303 772 337 772 Z M245 561 Q342 561 396 515.5 Q450 470 450 388 L450 0 L324 0 L324 81 Q274 -10 171 -10 Q98 -10 58.5 32.5 Q19 75 19 152 Q19 250 87.5 295.5 Q156 341 307 344 L307 370 Q307 437 217 437 Q154 437 95 409 L63 516 Q151 561 245 561 Z M210 108 Q263 108 307 157 L307 255 Q227 253 190 231.5 Q153 210 153 166 Q153 108 210 108 Z " />
<glyph glyph-name="uni0227" unicode="&#x227;" horiz-adv-x="504" d="M245 561 Q342 561 396 515.5 Q450 470 450 388 L450 0 L324 0 L324 81 Q274 -10 171 -10 Q98 -10 58.5 32.5 Q19 75 19 152 Q19 250 87.5 295.5 Q156 341 307 344 L307 370 Q307 437 217 437 Q154 437 95 409 L63 516 Q151 561 245 561 Z M210 108 Q263 108 307 157 L307 255 Q227 253 190 231.5 Q153 210 153 166 Q153 108 210 108 Z M242 618 Q203 618 181.5 640 Q160 662 160 699 Q160 737 181.5 758.5 Q203 780 242 780 Q280 780 302 758.5 Q324 737 324 700 Q324 661 302.5 639.5 Q281 618 242 618 Z " />
<glyph glyph-name="uni1EA1" unicode="&#x1ea1;" horiz-adv-x="504" d="M245 561 Q342 561 396 515.5 Q450 470 450 388 L450 0 L324 0 L324 81 Q274 -10 171 -10 Q98 -10 58.5 32.5 Q19 75 19 152 Q19 250 87.5 295.5 Q156 341 307 344 L307 370 Q307 437 217 437 Q154 437 95 409 L63 516 Q151 561 245 561 Z M210 108 Q263 108 307 157 L307 255 Q227 253 190 231.5 Q153 210 153 166 Q153 108 210 108 Z M233 -232 Q194 -232 172.5 -210 Q151 -188 151 -151 Q151 -112 172.5 -90.5 Q194 -69 233 -69 Q272 -69 293.5 -91 Q315 -113 315 -150 Q315 -189 293.5 -210.5 Q272 -232 233 -232 Z " />
<glyph glyph-name="uni01E1" unicode="&#x1e1;" horiz-adv-x="504" d="M245 561 Q342 561 396 515.5 Q450 470 450 388 L450 0 L324 0 L324 81 Q274 -10 171 -10 Q98 -10 58.5 32.5 Q19 75 19 152 Q19 250 87.5 295.5 Q156 341 307 344 L307 370 Q307 437 217 437 Q154 437 95 409 L63 516 Q151 561 245 561 Z M210 108 Q263 108 307 157 L307 255 Q227 253 190 231.5 Q153 210 153 166 Q153 108 210 108 Z M242 618 Q203 618 181.5 640 Q160 662 160 699 Q160 737 181.5 758.5 Q203 780 242 780 Q280 780 302 758.5 Q324 737 324 700 Q324 661 302.5 639.5 Q281 618 242 618 Z M83 911 L401 911 L401 817 L83 817 L83 911 Z " />
<glyph glyph-name="uni1D02" unicode="&#x1d02;" horiz-adv-x="778" d="M758 399 Q758 304 690.5 259 Q623 214 473 211 L473 179 Q473 145 494.5 128.5 Q516 112 561 112 Q624 112 682 139 L714 32 Q673 11 626 -0.5 Q579 -12 533 -12 Q438 -12 390 45 Q336 -12 246 -12 Q141 -12 83.5 57 Q26 126 26 251 Q26 290 33 318 L334 318 Q327 377 297 405.5 Q267 434 214 434 Q160 434 92 404 L46 509 Q86 534 133.5 547 Q181 560 231 560 Q298 560 348.5 534.5 Q399 509 430 459 Q471 511 514.5 535 Q558 559 610 559 Q680 559 719 517 Q758 475 758 399 Z M569 441 Q514 441 463 379 Q473 341 474 300 Q553 302 588.5 322.5 Q624 343 624 386 Q624 441 569 441 Z M250 110 Q324 110 334 228 L165 228 Q166 172 188.5 141 Q211 110 250 110 Z " />
<glyph glyph-name="agrave" unicode="&#xe0;" horiz-adv-x="504" d="M245 561 Q342 561 396 515.5 Q450 470 450 388 L450 0 L324 0 L324 81 Q274 -10 171 -10 Q98 -10 58.5 32.5 Q19 75 19 152 Q19 250 87.5 295.5 Q156 341 307 344 L307 370 Q307 437 217 437 Q154 437 95 409 L63 516 Q151 561 245 561 Z M210 108 Q263 108 307 157 L307 255 Q227 253 190 231.5 Q153 210 153 166 Q153 108 210 108 Z M96 774 L96 784 L239 784 L317 625 L317 615 L213 615 L96 774 Z " />
<glyph glyph-name="uni1EA3" unicode="&#x1ea3;" horiz-adv-x="504" d="M245 561 Q342 561 396 515.5 Q450 470 450 388 L450 0 L324 0 L324 81 Q274 -10 171 -10 Q98 -10 58.5 32.5 Q19 75 19 152 Q19 250 87.5 295.5 Q156 341 307 344 L307 370 Q307 437 217 437 Q154 437 95 409 L63 516 Q151 561 245 561 Z M210 108 Q263 108 307 157 L307 255 Q227 253 190 231.5 Q153 210 153 166 Q153 108 210 108 Z M196 615 Q194 627 194 639 Q194 662 201.5 674.5 Q209 687 222 698 Q231 705 235.5 711 Q240 717 240 726 Q240 744 216 744 Q194 744 162 728 L135 790 Q159 804 189 812 Q219 820 250 820 Q299 820 326.5 798.5 Q354 777 354 738 Q354 712 344 699.5 Q334 687 314 673 Q300 665 293 657 Q286 649 286 635 Q286 627 288 615 L196 615 Z " />
<glyph glyph-name="uni1D25" unicode="&#x1d25;" horiz-adv-x="587" d="M145 -12 Q109 -12 73.5 0 Q38 12 9 33 L45 129 Q104 95 150 95 Q186 95 209 125 Q159 190 132 255.5 Q105 321 105 376 Q105 464 154.5 512.5 Q204 561 294 561 Q383 561 432.5 512.5 Q482 464 482 376 Q482 321 454.5 255 Q427 189 377 125 Q402 95 436 95 Q480 95 542 129 L578 33 Q549 12 513.5 0 Q478 -12 442 -12 Q398 -12 358.5 7.5 Q319 27 294 62 Q268 27 228.5 7.5 Q189 -12 145 -12 Z " />
<glyph glyph-name="uni0203" unicode="&#x203;" horiz-adv-x="504" d="M245 561 Q342 561 396 515.5 Q450 470 450 388 L450 0 L324 0 L324 81 Q274 -10 171 -10 Q98 -10 58.5 32.5 Q19 75 19 152 Q19 250 87.5 295.5 Q156 341 307 344 L307 370 Q307 437 217 437 Q154 437 95 409 L63 516 Q151 561 245 561 Z M210 108 Q263 108 307 157 L307 255 Q227 253 190 231.5 Q153 210 153 166 Q153 108 210 108 Z M242 793 Q314 793 355 748 Q396 703 399 620 L321 620 Q311 694 241 694 Q170 694 160 620 L85 620 Q88 703 129 748 Q170 793 242 793 Z " />
<glyph glyph-name="uni0251" unicode="&#x251;" horiz-adv-x="545" d="M484 549 L484 0 L354 0 L354 80 Q304 -12 211 -12 Q125 -12 78 62.5 Q31 137 31 273 Q31 410 78.5 485.5 Q126 561 212 561 Q250 561 282.5 546.5 Q315 532 338 505 L338 549 L484 549 Z M262 118 Q283 118 301 127.5 Q319 137 338 157 L338 394 Q303 434 258 434 Q179 434 179 278 Q179 118 262 118 Z " />
<glyph glyph-name="uni0252" unicode="&#x252;" horiz-adv-x="545" d="M334 561 Q420 561 467 486.5 Q514 412 514 276 Q514 139 466.5 63.5 Q419 -12 333 -12 Q254 -12 207 44 L207 0 L61 0 L61 549 L191 549 L191 470 Q241 561 334 561 Z M287 115 Q366 115 366 271 Q366 431 283 431 Q243 431 207 392 L207 154 Q243 115 287 115 Z " />
<glyph glyph-name="amacron" unicode="&#x101;" horiz-adv-x="504" d="M245 561 Q342 561 396 515.5 Q450 470 450 388 L450 0 L324 0 L324 81 Q274 -10 171 -10 Q98 -10 58.5 32.5 Q19 75 19 152 Q19 250 87.5 295.5 Q156 341 307 344 L307 370 Q307 437 217 437 Q154 437 95 409 L63 516 Q151 561 245 561 Z M210 108 Q263 108 307 157 L307 255 Q227 253 190 231.5 Q153 210 153 166 Q153 108 210 108 Z M83 731 L401 731 L401 637 L83 637 L83 731 Z " />
<glyph glyph-name="uniA735" unicode="&#xa735;" horiz-adv-x="788" d="M526 561 Q636 561 696.5 488.5 Q757 416 757 275 Q757 133 696.5 60.5 Q636 -12 525 -12 Q403 -12 344 87 Q304 37 261 13.5 Q218 -10 167 -10 Q97 -10 58 32 Q19 74 19 150 Q19 245 86.5 290 Q154 335 304 338 L304 370 Q304 404 282.5 420.5 Q261 437 216 437 Q154 437 95 410 L63 517 Q104 538 151 549.5 Q198 561 244 561 Q332 561 383 510 Q439 561 526 561 Z M525 113 Q610 113 610 275 Q610 435 526 435 Q441 435 441 275 Q441 113 525 113 Z M208 108 Q264 108 313 170 Q305 204 303 249 Q224 246 188.5 225.5 Q153 205 153 163 Q153 108 208 108 Z " />
<glyph glyph-name="aogonek" unicode="&#x105;" horiz-adv-x="504" d="M498 -201 Q447 -231 383 -231 Q325 -231 293 -204 Q261 -177 261 -127 Q261 -87 282 -54.5 Q303 -22 344 0 L325 0 L325 85 Q294 35 257.5 12.5 Q221 -10 171 -10 Q98 -10 58.5 32.5 Q19 75 19 152 Q19 250 87.5 295.5 Q156 341 307 344 L307 370 Q307 437 217 437 Q154 437 95 409 L63 516 Q151 561 245 561 Q342 561 396 515.5 Q450 470 450 388 L450 0 Q376 -49 376 -100 Q376 -142 419 -142 Q445 -142 469 -130 L498 -201 Z M210 108 Q263 108 307 157 L307 256 Q227 254 190 232.5 Q153 211 153 167 Q153 108 210 108 Z " />
<glyph glyph-name="uni1E9A" unicode="&#x1e9a;" horiz-adv-x="504" d="M245 561 Q342 561 396 515.5 Q450 470 450 388 L450 0 L324 0 L324 81 Q274 -10 171 -10 Q98 -10 58.5 32.5 Q19 75 19 152 Q19 250 87.5 295.5 Q156 341 307 344 L307 370 Q307 437 217 437 Q154 437 95 409 L63 516 Q151 561 245 561 Z M210 108 Q263 108 307 157 L307 255 Q227 253 190 231.5 Q153 210 153 166 Q153 108 210 108 Z M185 666 Q233 666 233 723 Q233 780 185 780 L185 843 Q247 843 281 812 Q315 781 315 723 Q315 665 281 634 Q247 603 185 603 L185 666 Z " />
<glyph glyph-name="aring" unicode="&#xe5;" horiz-adv-x="504" d="M245 561 Q342 561 396 515.5 Q450 470 450 388 L450 0 L324 0 L324 81 Q274 -10 171 -10 Q98 -10 58.5 32.5 Q19 75 19 152 Q19 250 87.5 295.5 Q156 341 307 344 L307 370 Q307 437 217 437 Q154 437 95 409 L63 516 Q151 561 245 561 Z M210 108 Q263 108 307 157 L307 255 Q227 253 190 231.5 Q153 210 153 166 Q153 108 210 108 Z M242 604 Q180 604 145.5 635 Q111 666 111 723 Q111 780 145.5 811.5 Q180 843 242 843 Q304 843 338.5 811.5 Q373 780 373 723 Q373 666 338.5 635 Q304 604 242 604 Z M242 667 Q290 667 290 723 Q290 780 242 780 Q195 780 195 723 Q195 667 242 667 Z " />
<glyph glyph-name="aringacute" unicode="&#x1fb;" horiz-adv-x="504" d="M282 879 L194 879 L194 889 L260 1016 L378 1016 L378 1006 L282 879 Z M242 604 Q180 604 145.5 635 Q111 666 111 723 Q111 780 145.5 811.5 Q180 843 242 843 Q304 843 338.5 811.5 Q373 780 373 723 Q373 666 338.5 635 Q304 604 242 604 Z M242 780 Q195 780 195 723 Q195 667 242 667 Q290 667 290 723 Q290 780 242 780 Z M245 561 Q342 561 396 515.5 Q450 470 450 388 L450 0 L324 0 L324 81 Q274 -10 171 -10 Q98 -10 58.5 32.5 Q19 75 19 152 Q19 250 87.5 295.5 Q156 341 307 344 L307 370 Q307 437 217 437 Q154 437 95 409 L63 516 Q151 561 245 561 Z M210 108 Q263 108 307 157 L307 255 Q227 253 190 231.5 Q153 210 153 166 Q153 108 210 108 Z " />
<glyph glyph-name="uni1E01" unicode="&#x1e01;" horiz-adv-x="504" d="M245 561 Q342 561 396 515.5 Q450 470 450 388 L450 0 L324 0 L324 81 Q274 -10 171 -10 Q98 -10 58.5 32.5 Q19 75 19 152 Q19 250 87.5 295.5 Q156 341 307 344 L307 370 Q307 437 217 437 Q154 437 95 409 L63 516 Q151 561 245 561 Z M210 108 Q263 108 307 157 L307 255 Q227 253 190 231.5 Q153 210 153 166 Q153 108 210 108 Z M233 -293 Q171 -293 136.5 -261.5 Q102 -230 102 -173 Q102 -116 136.5 -85 Q171 -54 233 -54 Q295 -54 329.5 -85 Q364 -116 364 -173 Q364 -230 329.5 -261.5 Q295 -293 233 -293 Z M233 -230 Q281 -230 281 -173 Q281 -117 233 -117 Q186 -117 186 -173 Q186 -230 233 -230 Z " />
<glyph glyph-name="uni2C65" unicode="&#x2c65;" horiz-adv-x="504" d="M355 540 Q401 521 425.5 482 Q450 443 450 388 L450 0 L324 0 L324 81 Q278 -3 188 -9 L158 -110 L81 -110 L114 -2 Q68 13 43.5 52.5 Q19 92 19 152 Q19 234 66.5 279 Q114 324 217 337 L247 435 Q229 437 217 437 Q154 437 95 409 L63 516 Q151 561 245 561 Q266 561 284 558 L314 655 L390 655 L355 540 Z M296 343 Q299 344 307 344 L307 370 L307 381 L296 343 Z M224 109 Q270 115 307 157 L307 255 Q292 255 268 253 L224 109 Z M153 166 Q153 156 157 140 L183 227 Q153 206 153 166 Z " />
<glyph glyph-name="atilde" unicode="&#xe3;" horiz-adv-x="504" d="M245 561 Q342 561 396 515.5 Q450 470 450 388 L450 0 L324 0 L324 81 Q274 -10 171 -10 Q98 -10 58.5 32.5 Q19 75 19 152 Q19 250 87.5 295.5 Q156 341 307 344 L307 370 Q307 437 217 437 Q154 437 95 409 L63 516 Q151 561 245 561 Z M210 108 Q263 108 307 157 L307 255 Q227 253 190 231.5 Q153 210 153 166 Q153 108 210 108 Z M310 615 Q283 615 263 624.5 Q243 634 222 651 Q207 662 197 667.5 Q187 673 176 673 Q145 673 139 617 L63 617 Q65 690 93.5 730.5 Q122 771 174 771 Q200 771 219 762 Q238 753 262 735 Q278 723 287.5 717.5 Q297 712 308 712 Q339 712 345 769 L421 769 Q419 695 390.5 655 Q362 615 310 615 Z " />
<glyph glyph-name="uni0250" unicode="&#x250;" horiz-adv-x="505" d="M287 112 Q350 112 409 140 L441 33 Q353 -12 259 -12 Q162 -12 108 33.5 Q54 79 54 161 L54 549 L180 549 L180 468 Q205 514 242.5 536.5 Q280 559 333 559 Q406 559 445.5 516.5 Q485 474 485 397 Q485 299 416.5 253.5 Q348 208 197 205 L197 179 Q197 112 287 112 Z M294 441 Q241 441 197 392 L197 294 Q278 297 314.5 318 Q351 339 351 383 Q351 441 294 441 Z " />
<glyph glyph-name="uniA737" unicode="&#xa737;" horiz-adv-x="792" d="M732 549 L732 0 L602 0 L602 78 Q544 -12 450 -12 Q405 -12 372.5 7 Q340 26 323 63 Q287 25 249 7.5 Q211 -10 167 -10 Q97 -10 58 32 Q19 74 19 150 Q19 245 86.5 290 Q154 335 304 338 L304 370 Q304 404 282.5 420.5 Q261 437 216 437 Q154 437 95 410 L63 517 Q104 538 151 549.5 Q198 561 244 561 Q334 561 391.5 514.5 Q449 468 449 388 L449 300 L449 182 Q449 119 511 119 Q533 119 550.5 128 Q568 137 585 157 L585 549 L732 549 Z M208 108 Q259 108 304 160 L304 249 Q225 247 189 226.5 Q153 206 153 163 Q153 108 208 108 Z " />
<glyph glyph-name="uniA739" unicode="&#xa739;" horiz-adv-x="711" d="M732 549 L518 0 L439 0 L324 0 L324 81 Q274 -10 171 -10 Q98 -10 58.5 32.5 Q19 75 19 152 Q19 250 87.5 295.5 Q156 341 307 344 L307 370 Q307 437 217 437 Q154 437 95 409 L63 516 Q151 561 245 561 Q342 561 396 515.5 Q450 470 450 388 L450 122 Q464 187 484 247 L585 549 L732 549 Z M210 108 Q263 108 307 157 L307 255 Q227 253 190 231.5 Q153 210 153 166 Q153 108 210 108 Z " />
<glyph glyph-name="uniA73B" unicode="&#xa73b;" horiz-adv-x="711" d="M732 549 L518 0 L439 0 L324 0 L324 81 Q274 -10 171 -10 Q98 -10 58.5 32.5 Q19 75 19 152 Q19 250 87.5 295.5 Q156 341 307 344 L307 370 Q307 437 217 437 Q154 437 95 409 L63 516 Q151 561 245 561 Q342 561 396 515.5 Q450 470 450 388 L450 345 L516 345 L585 549 L732 549 Z M450 122 Q464 187 484 247 L488 259 L450 259 L450 122 Z M210 108 Q263 108 307 157 L307 255 Q227 253 190 231.5 Q153 210 153 166 Q153 108 210 108 Z " />
<glyph glyph-name="uniA73D" unicode="&#xa73d;" horiz-adv-x="741" d="M732 549 L518 0 Q487 -81 424.5 -133.5 Q362 -186 252 -222 L205 -103 Q266 -81 305 -57.5 Q344 -34 373 0 L324 0 L324 81 Q274 -10 171 -10 Q98 -10 58.5 32.5 Q19 75 19 152 Q19 250 87.5 295.5 Q156 341 307 344 L307 370 Q307 437 217 437 Q154 437 95 409 L63 516 Q151 561 245 561 Q342 561 396 515.5 Q450 470 450 388 L450 122 Q464 187 484 247 L585 549 L732 549 Z M210 108 Q263 108 307 157 L307 255 Q227 253 190 231.5 Q153 210 153 166 Q153 108 210 108 Z " />
<glyph glyph-name="ae" unicode="&#xe6;" horiz-adv-x="777" d="M751 298 Q751 259 744 231 L443 231 Q451 172 480.5 143.5 Q510 115 563 115 Q617 115 685 145 L731 40 Q691 15 643.5 2 Q596 -11 546 -11 Q479 -11 428.5 14.5 Q378 40 347 90 Q306 38 262.5 14 Q219 -10 167 -10 Q97 -10 58 32 Q19 74 19 150 Q19 245 86.5 290 Q154 335 304 338 L304 370 Q304 404 282.5 420.5 Q261 437 216 437 Q154 437 95 410 L63 517 Q104 538 151 549.5 Q198 561 244 561 Q291 561 327 546 Q363 531 387 504 Q442 561 531 561 Q636 561 693.5 492 Q751 423 751 298 Z M527 439 Q453 439 443 321 L612 321 Q610 378 588.5 408.5 Q567 439 527 439 Z M208 108 Q263 108 314 171 Q304 209 303 249 Q224 247 188.5 226.5 Q153 206 153 163 Q153 108 208 108 Z " />
<glyph glyph-name="aeacute" unicode="&#x1fd;" horiz-adv-x="777" d="M751 298 Q751 259 744 231 L443 231 Q451 172 480.5 143.5 Q510 115 563 115 Q617 115 685 145 L731 40 Q691 15 643.5 2 Q596 -11 546 -11 Q479 -11 428.5 14.5 Q378 40 347 90 Q306 38 262.5 14 Q219 -10 167 -10 Q97 -10 58 32 Q19 74 19 150 Q19 245 86.5 290 Q154 335 304 338 L304 370 Q304 404 282.5 420.5 Q261 437 216 437 Q154 437 95 410 L63 517 Q104 538 151 549.5 Q198 561 244 561 Q291 561 327 546 Q363 531 387 504 Q442 561 531 561 Q636 561 693.5 492 Q751 423 751 298 Z M527 439 Q453 439 443 321 L612 321 Q610 378 588.5 408.5 Q567 439 527 439 Z M208 108 Q263 108 314 171 Q304 209 303 249 Q224 247 188.5 226.5 Q153 206 153 163 Q153 108 208 108 Z M334 625 L419 784 L562 784 L562 774 L437 615 L334 615 L334 625 Z " />
<glyph glyph-name="uni01E3" unicode="&#x1e3;" horiz-adv-x="777" d="M751 298 Q751 259 744 231 L443 231 Q451 172 480.5 143.5 Q510 115 563 115 Q617 115 685 145 L731 40 Q691 15 643.5 2 Q596 -11 546 -11 Q479 -11 428.5 14.5 Q378 40 347 90 Q306 38 262.5 14 Q219 -10 167 -10 Q97 -10 58 32 Q19 74 19 150 Q19 245 86.5 290 Q154 335 304 338 L304 370 Q304 404 282.5 420.5 Q261 437 216 437 Q154 437 95 410 L63 517 Q104 538 151 549.5 Q198 561 244 561 Q291 561 327 546 Q363 531 387 504 Q442 561 531 561 Q636 561 693.5 492 Q751 423 751 298 Z M527 439 Q453 439 443 321 L612 321 Q610 378 588.5 408.5 Q567 439 527 439 Z M208 108 Q263 108 314 171 Q304 209 303 249 Q224 247 188.5 226.5 Q153 206 153 163 Q153 108 208 108 Z M243 731 L561 731 L561 637 L243 637 L243 731 Z " />
<glyph glyph-name="b" unicode="b" horiz-adv-x="547" d="M334 561 Q421 561 468.5 486.5 Q516 412 516 275 Q516 139 468 63.5 Q420 -12 333 -12 Q287 -12 250 8.5 Q213 29 190 67 L190 0 L61 0 L61 770 L207 770 L207 494 Q253 561 334 561 Z M287 114 Q368 114 368 270 Q368 430 283 430 Q242 430 207 392 L207 154 Q242 114 287 114 Z " />
<glyph glyph-name="uni1E03" unicode="&#x1e03;" horiz-adv-x="547" d="M276 832 Q237 832 215.5 854 Q194 876 194 913 Q194 951 215.5 972.5 Q237 994 276 994 Q315 994 336.5 972.5 Q358 951 358 914 Q358 875 336.5 853.5 Q315 832 276 832 Z M334 561 Q421 561 468.5 486.5 Q516 412 516 275 Q516 139 468 63.5 Q420 -12 333 -12 Q287 -12 250 8.5 Q213 29 190 67 L190 0 L61 0 L61 770 L207 770 L207 494 Q253 561 334 561 Z M287 114 Q368 114 368 270 Q368 430 283 430 Q242 430 207 392 L207 154 Q242 114 287 114 Z " />
<glyph glyph-name="uni1E05" unicode="&#x1e05;" horiz-adv-x="547" d="M334 561 Q421 561 468.5 486.5 Q516 412 516 275 Q516 139 468 63.5 Q420 -12 333 -12 Q287 -12 250 8.5 Q213 29 190 67 L190 0 L61 0 L61 770 L207 770 L207 494 Q253 561 334 561 Z M287 114 Q368 114 368 270 Q368 430 283 430 Q242 430 207 392 L207 154 Q242 114 287 114 Z M282 -232 Q243 -232 221.5 -210 Q200 -188 200 -151 Q200 -112 221.5 -90.5 Q243 -69 282 -69 Q321 -69 342.5 -91 Q364 -113 364 -150 Q364 -189 342.5 -210.5 Q321 -232 282 -232 Z " />
<glyph glyph-name="uni0253" unicode="&#x253;" horiz-adv-x="547" d="M333 561 Q421 561 468.5 486.5 Q516 412 516 275 Q516 138 468 63 Q420 -12 332 -12 Q287 -12 250.5 8 Q214 28 190 66 L190 0 L61 0 L61 406 L61 565 L61 640 Q61 789 214 789 Q262 789 298 773 L278 661 Q245 666 237 666 Q222 666 214.5 658 Q207 650 207 628 L207 495 Q254 561 333 561 Z M286 114 Q368 114 368 270 Q368 430 283 430 Q262 430 244 421 Q226 412 207 392 L207 154 Q242 114 286 114 Z " />
<glyph glyph-name="uni02AD" unicode="&#x2ad;" horiz-adv-x="506" d="M47 724 L47 402 L159 402 L159 598 L347 598 L347 402 L459 402 L459 724 L47 724 Z M47 322 L47 0 L159 0 L159 195 L347 195 L347 0 L459 0 L459 322 L47 322 Z " />
<glyph glyph-name="uni0298" unicode="&#x298;" horiz-adv-x="807" d="M404 -12 Q293 -12 210.5 34.5 Q128 81 83.5 169.5 Q39 258 39 381 Q39 504 83.5 592.5 Q128 681 210.5 727.5 Q293 774 404 774 Q515 774 597 727.5 Q679 681 723.5 592.5 Q768 504 768 381 Q768 258 723.5 169.5 Q679 81 597 34.5 Q515 -12 404 -12 Z M404 117 Q505 117 560.5 186 Q616 255 616 381 Q616 507 560.5 576 Q505 645 404 645 Q303 645 247 576 Q191 507 191 381 Q191 255 247 186 Q303 117 404 117 Z M404 302 Q364 302 342 324 Q320 346 320 384 Q320 423 342 444.5 Q364 466 404 466 Q444 466 466 444.5 Q488 423 488 385 Q488 345 466 323.5 Q444 302 404 302 Z " />
<glyph glyph-name="uni02AC" unicode="&#x2ac;" horiz-adv-x="553" d="M111 403 L17 724 L127 724 L173 509 L220 724 L334 724 L382 508 L427 724 L536 724 L443 403 L322 403 L276 607 L233 403 L111 403 Z M427 321 L536 321 L443 0 L322 0 L276 204 L233 0 L111 0 L17 321 L127 321 L173 106 L220 321 L334 321 L382 105 L427 321 Z " />
<glyph glyph-name="uni1E07" unicode="&#x1e07;" horiz-adv-x="547" d="M334 561 Q421 561 468.5 486.5 Q516 412 516 275 Q516 139 468 63.5 Q420 -12 333 -12 Q287 -12 250 8.5 Q213 29 190 67 L190 0 L61 0 L61 770 L207 770 L207 494 Q253 561 334 561 Z M287 114 Q368 114 368 270 Q368 430 283 430 Q242 430 207 392 L207 154 Q242 114 287 114 Z M128 -97 L446 -97 L446 -191 L128 -191 L128 -97 Z " />
<glyph glyph-name="uni0180" unicode="&#x180;" horiz-adv-x="549" d="M333 544 Q421 544 469.5 471.5 Q518 399 518 267 Q518 133 469.5 60.5 Q421 -12 332 -12 Q287 -12 250.5 8 Q214 28 190 66 L190 0 L61 0 L61 603 L4 603 L4 696 L61 696 L61 770 L207 770 L207 696 L385 696 L385 603 L207 603 L207 478 Q254 544 333 544 Z M286 114 Q370 114 370 262 Q370 413 283 413 Q262 413 244 404 Q226 395 207 375 L207 154 Q242 114 286 114 Z " />
<glyph glyph-name="uni0183" unicode="&#x183;" horiz-adv-x="547" d="M334 561 Q421 561 468.5 486.5 Q516 412 516 275 Q516 139 468 63.5 Q420 -12 333 -12 Q287 -12 250 8.5 Q213 29 190 67 L190 0 L61 0 L61 770 L207 770 L455 770 L455 661 L207 661 L207 494 Q253 561 334 561 Z M287 114 Q368 114 368 270 Q368 430 283 430 Q242 430 207 392 L207 154 Q242 114 287 114 Z " />
<glyph glyph-name="c" unicode="c" horiz-adv-x="450" d="M280 -11 Q160 -11 94 60.5 Q28 132 28 262 Q28 351 59 419 Q90 487 146.5 524 Q203 561 277 561 Q321 561 361.5 548 Q402 535 432 512 L384 404 Q318 433 277 433 Q230 433 203.5 390.5 Q177 348 177 272 Q177 118 289 118 Q340 118 393 147 L438 39 Q378 -11 280 -11 Z " />
<glyph glyph-name="cacute" unicode="&#x107;" horiz-adv-x="450" d="M280 -11 Q160 -11 94 60.5 Q28 132 28 262 Q28 351 59 419 Q90 487 146.5 524 Q203 561 277 561 Q321 561 361.5 548 Q402 535 432 512 L384 404 Q318 433 277 433 Q230 433 203.5 390.5 Q177 348 177 272 Q177 118 289 118 Q340 118 393 147 L438 39 Q378 -11 280 -11 Z M184 625 L269 784 L412 784 L412 774 L287 615 L184 615 L184 625 Z " />
<glyph glyph-name="uniA793" unicode="&#xa793;" horiz-adv-x="451" d="M438 39 Q378 -11 280 -11 Q167 -11 101.5 53 Q36 117 29 234 L-26 234 L-26 327 L33 327 Q49 435 114.5 498 Q180 561 277 561 Q320 561 361 548 Q402 535 433 512 L384 404 Q318 433 278 433 Q240 433 215.5 405.5 Q191 378 182 327 L284 327 L284 234 L180 234 Q192 118 290 118 Q340 118 393 147 L438 39 Z " />
<glyph glyph-name="ccaron" unicode="&#x10d;" horiz-adv-x="450" d="M280 -11 Q160 -11 94 60.5 Q28 132 28 262 Q28 351 59 419 Q90 487 146.5 524 Q203 561 277 561 Q321 561 361.5 548 Q402 535 432 512 L384 404 Q318 433 277 433 Q230 433 203.5 390.5 Q177 348 177 272 Q177 118 289 118 Q340 118 393 147 L438 39 Q378 -11 280 -11 Z M412 784 L412 774 L314 615 L190 615 L92 774 L92 784 L186 784 L253 694 L321 784 L412 784 Z " />
<glyph glyph-name="ccedilla" unicode="&#xe7;" horiz-adv-x="450" d="M275 -50 Q327 -50 355 -72.5 Q383 -95 383 -136 Q383 -186 347.5 -213.5 Q312 -241 248 -241 Q185 -241 130 -216 L149 -156 Q200 -172 230 -172 Q276 -172 276 -138 Q276 -107 236 -107 Q216 -107 199 -113 L171 -82 L201 -2 Q117 20 72.5 87.5 Q28 155 28 262 Q28 351 59 419 Q90 487 146.5 524 Q203 561 277 561 Q321 561 361.5 548 Q402 535 432 512 L384 404 Q318 433 277 433 Q230 433 203.5 390.5 Q177 348 177 272 Q177 118 289 118 Q340 118 393 147 L438 39 Q378 -11 281 -11 L251 -53 Q263 -50 275 -50 Z " />
<glyph glyph-name="uni1E09" unicode="&#x1e09;" horiz-adv-x="450" d="M287 615 L184 615 L184 625 L269 784 L412 784 L412 774 L287 615 Z M275 -50 Q327 -50 355 -72.5 Q383 -95 383 -136 Q383 -186 347.5 -213.5 Q312 -241 248 -241 Q185 -241 130 -216 L149 -156 Q200 -172 230 -172 Q276 -172 276 -138 Q276 -107 236 -107 Q216 -107 199 -113 L171 -82 L201 -2 Q117 20 72.5 87.5 Q28 155 28 262 Q28 351 59 419 Q90 487 146.5 524 Q203 561 277 561 Q321 561 361.5 548 Q402 535 432 512 L384 404 Q318 433 277 433 Q230 433 203.5 390.5 Q177 348 177 272 Q177 118 289 118 Q340 118 393 147 L438 39 Q378 -11 281 -11 L251 -53 Q263 -50 275 -50 Z " />
</font>
</svg>
