<?xml version="1.0" encoding="UTF-8"?>
<svg xmlns="http://www.w3.org/2000/svg" xmlns:xlink="http://www.w3.org/1999/xlink" version="1.2" >
<font id="SamsungOneItalicLatinComp-300">
<font-face  font-family="SamsungOneItalicLatinComp" units-per-em="1024" ascent="794" descent="-230" font-style="normal" font-weight="300" font-stretch="normal" slope="-11" cap-height="724" x-height="530" underline-position="-113" underline-thickness="26" />
<missing-glyph  horiz-adv-x="658" d="M562 0 L509 0 L130 0 L96 0 L96 724 L150 724 L562 724 L562 0 Z M509 674 L174 674 L509 97 L509 674 Z M150 50 L484 50 L150 627 L150 50 Z " />
<glyph glyph-name="nonmarkingreturn" unicode="&#xd;" horiz-adv-x="2" d="" />
<glyph glyph-name="space" unicode="&#x20;" horiz-adv-x="168" d="" />
<glyph glyph-name="A" unicode="A" horiz-adv-x="636" d="M465 206 L154 206 L44 0 L-18 0 L375 724 L440 724 L552 0 L494 0 L465 206 Z M457 256 L399 665 L181 256 L457 256 Z " />
<glyph glyph-name="Aacute" unicode="&#xc1;" horiz-adv-x="636" d="M616 926 L615 916 L417 781 L363 781 L364 791 L542 926 L616 926 Z M440 724 L552 0 L494 0 L465 206 L154 206 L44 0 L-18 0 L375 724 L440 724 Z M457 256 L399 665 L181 256 L457 256 Z " />
<glyph glyph-name="Abreve" unicode="&#x102;" horiz-adv-x="636" d="M425 793 Q375 793 346 821 Q317 849 317 899 Q317 918 319 928 L359 925 Q355 839 428 839 Q468 839 496 861.5 Q524 884 538 928 L576 925 Q561 861 521.5 827 Q482 793 425 793 Z M440 724 L552 0 L494 0 L465 206 L154 206 L44 0 L-18 0 L375 724 L440 724 Z M457 256 L399 665 L181 256 L457 256 Z " />
<glyph glyph-name="uni1EAE" unicode="&#x1eae;" horiz-adv-x="636" d="M578 1032 L577 1024 L457 895 L416 895 L417 903 L523 1032 L578 1032 Z M425 825 Q465 825 493 845 Q521 865 534 903 L570 901 Q555 844 516.5 813 Q478 782 423 782 Q372 782 343 808 Q314 834 314 880 Q314 887 316 903 L353 901 Q349 825 425 825 Z M440 724 L552 0 L494 0 L465 206 L154 206 L44 0 L-18 0 L375 724 L440 724 Z M457 256 L399 665 L181 256 L457 256 Z " />
<glyph glyph-name="uni1EB6" unicode="&#x1eb6;" horiz-adv-x="636" d="M425 793 Q375 793 346 821 Q317 849 317 899 Q317 918 319 928 L359 925 Q355 839 428 839 Q468 839 496 861.5 Q524 884 538 928 L576 925 Q561 861 521.5 827 Q482 793 425 793 Z M440 724 L552 0 L494 0 L465 206 L154 206 L44 0 L-18 0 L375 724 L440 724 Z M457 256 L399 665 L181 256 L457 256 Z M244 -105 Q262 -105 271.5 -115 Q281 -125 281 -143 Q281 -165 268 -179 Q255 -193 234 -193 Q217 -193 207 -183.5 Q197 -174 197 -155 Q197 -133 210 -119 Q223 -105 244 -105 Z " />
<glyph glyph-name="uni1EB0" unicode="&#x1eb0;" horiz-adv-x="636" d="M428 895 L363 1024 L364 1032 L415 1032 L465 903 L464 895 L428 895 Z M423 782 Q372 782 343 808 Q314 834 314 880 Q314 887 316 903 L353 901 Q349 825 425 825 Q465 825 493 845 Q521 865 534 903 L570 901 Q555 844 516.5 813 Q478 782 423 782 Z M440 724 L552 0 L494 0 L465 206 L154 206 L44 0 L-18 0 L375 724 L440 724 Z M457 256 L399 665 L181 256 L457 256 Z " />
<glyph glyph-name="uni1EB2" unicode="&#x1eb2;" horiz-adv-x="636" d="M466 1008 Q437 1008 408 990 L396 1023 Q412 1033 433 1039 Q454 1045 473 1045 Q502 1045 518.5 1031 Q535 1017 535 993 Q535 969 524 957 Q513 945 492 935 Q477 927 469 920 Q461 913 460 902 Q459 898 459 890 L418 893 Q418 902 419 909 Q421 930 432 940.5 Q443 951 462 959 Q476 966 483.5 972.5 Q491 979 491 990 Q491 1008 466 1008 Z M423 782 Q372 782 343 808 Q314 834 314 880 Q314 887 316 903 L353 901 Q349 825 425 825 Q465 825 493 845 Q521 865 534 903 L570 901 Q555 844 516.5 813 Q478 782 423 782 Z M440 724 L552 0 L494 0 L465 206 L154 206 L44 0 L-18 0 L375 724 L440 724 Z M457 256 L399 665 L181 256 L457 256 Z " />
<glyph glyph-name="uni1EB4" unicode="&#x1eb4;" horiz-adv-x="636" d="M408 1004 Q387 1004 372 987 Q357 970 349 939 L314 943 Q324 992 349 1019 Q374 1046 411 1046 Q436 1046 449 1036 Q462 1026 474 1008 Q483 995 490.5 988 Q498 981 511 981 Q531 981 546.5 998 Q562 1015 570 1046 L604 1042 Q595 993 569.5 966 Q544 939 507 939 Q482 939 469 949 Q456 959 444 977 Q435 991 428 997.5 Q421 1004 408 1004 Z M425 825 Q465 825 493 845 Q521 865 534 903 L570 901 Q555 844 516.5 813 Q478 782 423 782 Q372 782 343 808 Q314 834 314 880 Q314 887 316 903 L353 901 Q349 825 425 825 Z M440 724 L552 0 L494 0 L465 206 L154 206 L44 0 L-18 0 L375 724 L440 724 Z M457 256 L399 665 L181 256 L457 256 Z " />
<glyph glyph-name="uni01CD" unicode="&#x1cd;" horiz-adv-x="636" d="M593 926 L592 916 L450 781 L390 781 L302 916 L303 926 L348 926 L427 822 L546 926 L593 926 Z M440 724 L552 0 L494 0 L465 206 L154 206 L44 0 L-18 0 L375 724 L440 724 Z M457 256 L399 665 L181 256 L457 256 Z " />
<glyph glyph-name="Acircumflex" unicode="&#xc2;" horiz-adv-x="636" d="M565 791 L564 781 L519 781 L440 885 L321 781 L274 781 L275 791 L417 926 L477 926 L565 791 Z M440 724 L552 0 L494 0 L465 206 L154 206 L44 0 L-18 0 L375 724 L440 724 Z M457 256 L399 665 L181 256 L457 256 Z " />
<glyph glyph-name="uni1EA4" unicode="&#x1ea4;" horiz-adv-x="636" d="M702 1027 L701 1019 L581 890 L540 890 L541 898 L647 1027 L702 1027 Z M476 934 L552 793 L550 785 L509 785 L442 893 L333 785 L289 785 L290 793 L420 934 L476 934 Z M440 724 L552 0 L494 0 L465 206 L154 206 L44 0 L-18 0 L375 724 L440 724 Z M457 256 L399 665 L181 256 L457 256 Z " />
<glyph glyph-name="uni1EAC" unicode="&#x1eac;" horiz-adv-x="636" d="M565 791 L564 781 L519 781 L440 885 L321 781 L274 781 L275 791 L417 926 L477 926 L565 791 Z M440 724 L552 0 L494 0 L465 206 L154 206 L44 0 L-18 0 L375 724 L440 724 Z M457 256 L399 665 L181 256 L457 256 Z M244 -105 Q262 -105 271.5 -115 Q281 -125 281 -143 Q281 -165 268 -179 Q255 -193 234 -193 Q217 -193 207 -183.5 Q197 -174 197 -155 Q197 -133 210 -119 Q223 -105 244 -105 Z " />
<glyph glyph-name="uni1EA6" unicode="&#x1ea6;" horiz-adv-x="636" d="M302 890 L237 1019 L238 1027 L289 1027 L339 898 L338 890 L302 890 Z M290 793 L420 934 L476 934 L552 793 L550 785 L509 785 L442 893 L333 785 L289 785 L290 793 Z M440 724 L552 0 L494 0 L465 206 L154 206 L44 0 L-18 0 L375 724 L440 724 Z M457 256 L399 665 L181 256 L457 256 Z " />
<glyph glyph-name="uni1EA8" unicode="&#x1ea8;" horiz-adv-x="636" d="M597 1040 Q626 1040 642.5 1026 Q659 1012 659 988 Q659 964 648 952 Q637 940 616 930 Q601 922 593 915 Q585 908 584 897 Q583 893 583 885 L542 888 Q542 897 543 904 Q545 925 556 935.5 Q567 946 586 954 Q600 961 607.5 967.5 Q615 974 615 985 Q615 1003 590 1003 Q561 1003 532 985 L520 1018 Q536 1028 557 1034 Q578 1040 597 1040 Z M476 934 L552 793 L550 785 L509 785 L442 893 L333 785 L289 785 L290 793 L420 934 L476 934 Z M440 724 L552 0 L494 0 L465 206 L154 206 L44 0 L-18 0 L375 724 L440 724 Z M457 256 L399 665 L181 256 L457 256 Z " />
<glyph glyph-name="uni1EAA" unicode="&#x1eaa;" horiz-adv-x="636" d="M604 1041 Q595 992 569.5 965 Q544 938 507 938 Q482 938 469 948 Q456 958 444 976 Q435 990 428 996.5 Q421 1003 408 1003 Q387 1003 372 986 Q357 969 349 938 L314 942 Q324 991 349 1018 Q374 1045 411 1045 Q436 1045 449 1035 Q462 1025 474 1007 Q483 994 490.5 987 Q498 980 511 980 Q531 980 546.5 997 Q562 1014 570 1045 L604 1041 Z M330 775 L286 775 L288 783 L417 915 L473 915 L550 783 L548 775 L507 775 L438 876 L330 775 Z M440 724 L552 0 L494 0 L465 206 L154 206 L44 0 L-18 0 L375 724 L440 724 Z M457 256 L399 665 L181 256 L457 256 Z " />
<glyph glyph-name="Adieresis" unicode="&#xc4;" horiz-adv-x="636" d="M339 806 Q322 806 313 815.5 Q304 825 304 843 Q304 864 316 877.5 Q328 891 348 891 Q365 891 374 881.5 Q383 872 383 854 Q383 833 371 819.5 Q359 806 339 806 Z M518 806 Q501 806 492 815.5 Q483 825 483 843 Q483 864 495 877.5 Q507 891 527 891 Q544 891 553 881.5 Q562 872 562 854 Q562 833 550 819.5 Q538 806 518 806 Z M440 724 L552 0 L494 0 L465 206 L154 206 L44 0 L-18 0 L375 724 L440 724 Z M457 256 L399 665 L181 256 L457 256 Z " />
<glyph glyph-name="uni1EA0" unicode="&#x1ea0;" horiz-adv-x="636" d="M465 206 L154 206 L44 0 L-18 0 L375 724 L440 724 L552 0 L494 0 L465 206 Z M457 256 L399 665 L181 256 L457 256 Z M235 -194 Q218 -194 208 -184 Q198 -174 198 -156 Q198 -134 210.5 -119.5 Q223 -105 244 -105 Q262 -105 271.5 -115 Q281 -125 281 -143 Q281 -165 268.5 -179.5 Q256 -194 235 -194 Z " />
<glyph glyph-name="Agrave" unicode="&#xc0;" horiz-adv-x="636" d="M424 781 L287 916 L288 926 L355 926 L472 791 L471 781 L424 781 Z M465 206 L154 206 L44 0 L-18 0 L375 724 L440 724 L552 0 L494 0 L465 206 Z M457 256 L399 665 L181 256 L457 256 Z " />
<glyph glyph-name="uni1EA2" unicode="&#x1ea2;" horiz-adv-x="636" d="M448 899 Q415 899 377 877 L363 913 Q406 940 456 940 Q525 940 525 884 Q525 859 512.5 847 Q500 835 477 825 Q461 819 451.5 811.5 Q442 804 441 791 Q440 788 440 779 L395 782 Q395 792 396 799 Q398 821 410.5 831.5 Q423 842 445 852 Q461 859 468.5 864.5 Q476 870 476 881 Q476 899 448 899 Z M465 206 L154 206 L44 0 L-18 0 L375 724 L440 724 L552 0 L494 0 L465 206 Z M457 256 L399 665 L181 256 L457 256 Z " />
<glyph glyph-name="Amacron" unicode="&#x100;" horiz-adv-x="636" d="M566 863 L557 818 L296 818 L304 863 L566 863 Z M440 724 L552 0 L494 0 L465 206 L154 206 L44 0 L-18 0 L375 724 L440 724 Z M457 256 L399 665 L181 256 L457 256 Z " />
<glyph glyph-name="Aogonek" unicode="&#x104;" horiz-adv-x="636" d="M561 -190 Q518 -217 469 -217 Q430 -217 408.5 -198 Q387 -179 387 -146 Q387 -105 415 -66.5 Q443 -28 494 2 L465 206 L154 206 L44 0 L-18 0 L375 724 L440 724 L552 0 Q502 -28 469.5 -65 Q437 -102 437 -136 Q437 -154 447.5 -163.5 Q458 -173 478 -173 Q512 -173 547 -153 L561 -190 Z M457 256 L399 665 L181 256 L457 256 Z " />
<glyph glyph-name="Aring" unicode="&#xc5;" horiz-adv-x="636" d="M417 769 Q376 769 354 789 Q332 809 332 846 Q332 899 366 934 Q400 969 456 969 Q497 969 519 949 Q541 929 541 892 Q541 839 507 804 Q473 769 417 769 Z M451 933 Q414 933 394.5 909.5 Q375 886 375 853 Q375 828 386.5 816.5 Q398 805 422 805 Q459 805 478.5 828.5 Q498 852 498 885 Q498 910 486.5 921.5 Q475 933 451 933 Z M465 206 L154 206 L44 0 L-18 0 L375 724 L440 724 L552 0 L494 0 L465 206 Z M457 256 L399 665 L181 256 L457 256 Z " />
<glyph glyph-name="Atilde" unicode="&#xc3;" horiz-adv-x="636" d="M373 868 Q352 868 335.5 848 Q319 828 308 790 L271 794 Q283 851 310.5 882 Q338 913 375 913 Q402 913 417.5 901 Q433 889 449 867 Q460 851 469.5 843 Q479 835 492 835 Q513 835 530.5 855.5 Q548 876 558 913 L596 909 Q583 852 555.5 821 Q528 790 490 790 Q464 790 448.5 801.5 Q433 813 415 836 Q404 852 394.5 860 Q385 868 373 868 Z M440 724 L552 0 L494 0 L465 206 L154 206 L44 0 L-18 0 L375 724 L440 724 Z M457 256 L399 665 L181 256 L457 256 Z " />
<glyph glyph-name="AE" unicode="&#xc6;" horiz-adv-x="856" d="M557 673 L503 396 L742 396 L732 345 L493 345 L436 51 L769 51 L759 0 L369 0 L408 198 L155 198 L10 0 L-54 0 L475 724 L539 724 L888 724 L878 673 L557 673 Z M418 248 L500 671 L192 248 L418 248 Z " />
<glyph glyph-name="B" unicode="B" horiz-adv-x="602" d="M447 379 Q499 368 525.5 333 Q552 298 552 241 Q552 173 522 118 Q492 63 437.5 31.5 Q383 0 311 0 L77 0 L45 0 L186 724 L242 724 L413 724 Q492 724 534.5 685.5 Q577 647 577 576 Q577 506 542.5 451.5 Q508 397 447 379 Z M179 397 L349 397 Q401 397 439.5 420 Q478 443 498.5 482.5 Q519 522 519 571 Q519 673 403 673 L232 673 L179 397 Z M321 51 Q374 51 413.5 77 Q453 103 473.5 146.5 Q494 190 494 241 Q494 347 378 347 L169 347 L111 51 L321 51 Z " />
<glyph glyph-name="C" unicode="C" horiz-adv-x="566" d="M305 -11 Q185 -11 121 54 Q57 119 57 241 Q57 365 104.5 479.5 Q152 594 238 665 Q324 736 435 736 Q480 736 524 723.5 Q568 711 603 689 L576 645 Q505 685 431 685 Q337 685 265 620.5 Q193 556 154.5 454.5 Q116 353 116 246 Q116 145 165 93 Q214 41 310 41 Q396 41 467 79 L483 32 Q449 11 402 0 Q355 -11 305 -11 Z " />
<glyph glyph-name="Cacute" unicode="&#x106;" horiz-adv-x="566" d="M378 791 L556 926 L630 926 L629 916 L431 781 L377 781 L378 791 Z M305 -11 Q185 -11 121 54 Q57 119 57 241 Q57 365 104.5 479.5 Q152 594 238 665 Q324 736 435 736 Q480 736 524 723.5 Q568 711 603 689 L576 645 Q505 685 431 685 Q337 685 265 620.5 Q193 556 154.5 454.5 Q116 353 116 246 Q116 145 165 93 Q214 41 310 41 Q396 41 467 79 L483 32 Q449 11 402 0 Q355 -11 305 -11 Z " />
<glyph glyph-name="Ccaron" unicode="&#x10c;" horiz-adv-x="566" d="M607 926 L606 916 L464 781 L404 781 L316 916 L317 926 L362 926 L441 822 L560 926 L607 926 Z M57 241 Q57 365 104.5 479.5 Q152 594 238 665 Q324 736 435 736 Q480 736 524 723.5 Q568 711 603 689 L576 645 Q505 685 431 685 Q337 685 265 620.5 Q193 556 154.5 454.5 Q116 353 116 246 Q116 145 165 93 Q214 41 310 41 Q396 41 467 79 L483 32 Q449 11 402 0 Q355 -11 305 -11 Q185 -11 121 54 Q57 119 57 241 Z " />
<glyph glyph-name="Ccedilla" unicode="&#xc7;" horiz-adv-x="566" d="M431 685 Q337 685 265 620.5 Q193 556 154.5 454.5 Q116 353 116 246 Q116 145 165 93 Q214 41 310 41 Q396 41 467 79 L483 32 Q449 11 402 0 Q355 -11 305 -11 L296 -11 L255 -66 Q269 -64 276 -64 Q314 -64 335 -82 Q356 -100 356 -131 Q356 -175 323.5 -201 Q291 -227 239 -227 Q214 -227 190.5 -220.5 Q167 -214 151 -203 L166 -171 Q202 -189 237 -189 Q270 -189 289.5 -172.5 Q309 -156 309 -130 Q309 -98 269 -98 Q243 -98 221 -108 L206 -90 L254 -8 Q158 5 107.5 69 Q57 133 57 241 Q57 365 104.5 479.5 Q152 594 238 665 Q324 736 435 736 Q480 736 524 723.5 Q568 711 603 689 L576 645 Q505 685 431 685 Z " />
<glyph glyph-name="Ccircumflex" unicode="&#x108;" horiz-adv-x="566" d="M335 781 L288 781 L289 791 L431 926 L491 926 L579 791 L578 781 L533 781 L454 885 L335 781 Z M431 685 Q337 685 265 620.5 Q193 556 154.5 454.5 Q116 353 116 246 Q116 145 165 93 Q214 41 310 41 Q396 41 467 79 L483 32 Q449 11 402 0 Q355 -11 305 -11 Q185 -11 121 54 Q57 119 57 241 Q57 365 104.5 479.5 Q152 594 238 665 Q324 736 435 736 Q480 736 524 723.5 Q568 711 603 689 L576 645 Q505 685 431 685 Z " />
<glyph glyph-name="Cdotaccent" unicode="&#x10a;" horiz-adv-x="566" d="M441 806 Q424 806 414 816 Q404 826 404 844 Q404 866 417 880 Q430 894 451 894 Q469 894 478.5 884.5 Q488 875 488 856 Q488 834 475 820 Q462 806 441 806 Z M305 -11 Q185 -11 121 54 Q57 119 57 241 Q57 365 104.5 479.5 Q152 594 238 665 Q324 736 435 736 Q480 736 524 723.5 Q568 711 603 689 L576 645 Q505 685 431 685 Q337 685 265 620.5 Q193 556 154.5 454.5 Q116 353 116 246 Q116 145 165 93 Q214 41 310 41 Q396 41 467 79 L483 32 Q449 11 402 0 Q355 -11 305 -11 Z " />
<glyph glyph-name="D" unicode="D" horiz-adv-x="656" d="M365 724 Q491 724 557.5 659 Q624 594 624 470 Q624 338 576.5 231 Q529 124 438.5 62 Q348 0 224 0 L45 0 L186 724 L365 724 Z M233 51 Q337 51 412 107.5 Q487 164 526 258.5 Q565 353 565 466 Q565 568 512 620.5 Q459 673 354 673 L232 673 L111 51 L233 51 Z " />
<glyph glyph-name="Eth" unicode="&#xd0;" horiz-adv-x="656" d="M364 724 Q489 724 555.5 659 Q622 594 622 470 Q622 338 574.5 231 Q527 124 437 62 Q347 0 223 0 L43 0 L110 342 L45 342 L54 391 L119 391 L184 724 L364 724 Z M232 51 Q335 51 410.5 107.5 Q486 164 525 258.5 Q564 353 564 466 Q564 568 510.5 620.5 Q457 673 352 673 L231 673 L176 391 L370 391 L361 342 L166 342 L110 51 L232 51 Z " />
<glyph glyph-name="Dcaron" unicode="&#x10e;" horiz-adv-x="656" d="M393 781 L305 916 L306 926 L351 926 L430 822 L549 926 L596 926 L595 916 L453 781 L393 781 Z M365 724 Q491 724 557.5 659 Q624 594 624 470 Q624 338 576.5 231 Q529 124 438.5 62 Q348 0 224 0 L45 0 L186 724 L365 724 Z M233 51 Q337 51 412 107.5 Q487 164 526 258.5 Q565 353 565 466 Q565 568 512 620.5 Q459 673 354 673 L232 673 L111 51 L233 51 Z " />
<glyph glyph-name="Dcroat" unicode="&#x110;" horiz-adv-x="656" d="M364 724 Q489 724 555.5 659 Q622 594 622 470 Q622 338 574.5 231 Q527 124 437 62 Q347 0 223 0 L43 0 L110 342 L45 342 L54 391 L119 391 L184 724 L364 724 Z M232 51 Q335 51 410.5 107.5 Q486 164 525 258.5 Q564 353 564 466 Q564 568 510.5 620.5 Q457 673 352 673 L231 673 L176 391 L370 391 L361 342 L166 342 L110 51 L232 51 Z " />
<glyph glyph-name="uni1E0C" unicode="&#x1e0c;" horiz-adv-x="656" d="M365 724 Q491 724 557.5 659 Q624 594 624 470 Q624 338 576.5 231 Q529 124 438.5 62 Q348 0 224 0 L45 0 L186 724 L365 724 Z M233 51 Q337 51 412 107.5 Q487 164 526 258.5 Q565 353 565 466 Q565 568 512 620.5 Q459 673 354 673 L232 673 L111 51 L233 51 Z M234 -194 Q217 -194 207 -184 Q197 -174 197 -156 Q197 -134 209.5 -119.5 Q222 -105 243 -105 Q261 -105 270.5 -115 Q280 -125 280 -143 Q280 -165 267.5 -179.5 Q255 -194 234 -194 Z " />
<glyph glyph-name="uni1E0E" unicode="&#x1e0e;" horiz-adv-x="656" d="M365 724 Q491 724 557.5 659 Q624 594 624 470 Q624 338 576.5 231 Q529 124 438.5 62 Q348 0 224 0 L45 0 L186 724 L365 724 Z M233 51 Q337 51 412 107.5 Q487 164 526 258.5 Q565 353 565 466 Q565 568 512 620.5 Q459 673 354 673 L232 673 L111 51 L233 51 Z M114 -114 L376 -114 L367 -159 L105 -159 L114 -114 Z " />
<glyph glyph-name="E" unicode="E" horiz-adv-x="545" d="M232 673 L178 396 L431 396 L421 345 L168 345 L111 51 L459 51 L449 0 L45 0 L186 724 L578 724 L568 673 L232 673 Z " />
<glyph glyph-name="Eacute" unicode="&#xc9;" horiz-adv-x="545" d="M595 926 L594 916 L396 781 L342 781 L343 791 L521 926 L595 926 Z M186 724 L578 724 L568 673 L232 673 L178 396 L431 396 L421 345 L168 345 L111 51 L459 51 L449 0 L45 0 L186 724 Z " />
<glyph glyph-name="Ebreve" unicode="&#x114;" horiz-adv-x="545" d="M404 793 Q354 793 325 821 Q296 849 296 899 Q296 918 298 928 L338 925 Q334 839 407 839 Q447 839 475 861.5 Q503 884 517 928 L555 925 Q540 861 500.5 827 Q461 793 404 793 Z M232 673 L178 396 L431 396 L421 345 L168 345 L111 51 L459 51 L449 0 L45 0 L186 724 L578 724 L568 673 L232 673 Z " />
<glyph glyph-name="Ecaron" unicode="&#x11a;" horiz-adv-x="545" d="M369 781 L281 916 L282 926 L327 926 L406 822 L525 926 L572 926 L571 916 L429 781 L369 781 Z M232 673 L178 396 L431 396 L421 345 L168 345 L111 51 L459 51 L449 0 L45 0 L186 724 L578 724 L568 673 L232 673 Z " />
<glyph glyph-name="Ecircumflex" unicode="&#xca;" horiz-adv-x="545" d="M300 781 L253 781 L254 791 L396 926 L456 926 L544 791 L543 781 L498 781 L419 885 L300 781 Z M232 673 L178 396 L431 396 L421 345 L168 345 L111 51 L459 51 L449 0 L45 0 L186 724 L578 724 L568 673 L232 673 Z " />
<glyph glyph-name="uni1EBE" unicode="&#x1ebe;" horiz-adv-x="545" d="M681 1027 L680 1019 L560 890 L519 890 L520 898 L626 1027 L681 1027 Z M312 785 L268 785 L269 793 L399 934 L455 934 L531 793 L529 785 L488 785 L421 893 L312 785 Z M186 724 L578 724 L568 673 L232 673 L178 396 L431 396 L421 345 L168 345 L111 51 L459 51 L449 0 L45 0 L186 724 Z " />
<glyph glyph-name="uni1EC6" unicode="&#x1ec6;" horiz-adv-x="545" d="M300 781 L253 781 L254 791 L396 926 L456 926 L544 791 L543 781 L498 781 L419 885 L300 781 Z M232 673 L178 396 L431 396 L421 345 L168 345 L111 51 L459 51 L449 0 L45 0 L186 724 L578 724 L568 673 L232 673 Z M225 -105 Q243 -105 252.5 -115 Q262 -125 262 -143 Q262 -165 249.5 -179.5 Q237 -194 216 -194 Q199 -194 189 -184 Q179 -174 179 -156 Q179 -134 191.5 -119.5 Q204 -105 225 -105 Z " />
<glyph glyph-name="uni1EC0" unicode="&#x1ec0;" horiz-adv-x="545" d="M281 890 L216 1019 L217 1027 L268 1027 L318 898 L317 890 L281 890 Z M269 793 L399 934 L455 934 L531 793 L529 785 L488 785 L421 893 L312 785 L268 785 L269 793 Z M232 673 L178 396 L431 396 L421 345 L168 345 L111 51 L459 51 L449 0 L45 0 L186 724 L578 724 L568 673 L232 673 Z " />
<glyph glyph-name="uni1EC2" unicode="&#x1ec2;" horiz-adv-x="545" d="M576 1040 Q605 1040 621.5 1026 Q638 1012 638 988 Q638 964 627 952 Q616 940 595 930 Q580 922 572 915 Q564 908 563 897 Q562 893 562 885 L521 888 Q521 897 522 904 Q524 925 535 935.5 Q546 946 565 954 Q579 961 586.5 967.5 Q594 974 594 985 Q594 1003 569 1003 Q540 1003 511 985 L499 1018 Q515 1028 536 1034 Q557 1040 576 1040 Z M312 785 L268 785 L269 793 L399 934 L455 934 L531 793 L529 785 L488 785 L421 893 L312 785 Z M186 724 L578 724 L568 673 L232 673 L178 396 L431 396 L421 345 L168 345 L111 51 L459 51 L449 0 L45 0 L186 724 Z " />
<glyph glyph-name="uni1EC4" unicode="&#x1ec4;" horiz-adv-x="545" d="M388 1003 Q367 1003 352 986 Q337 969 329 938 L294 942 Q304 991 329 1018 Q354 1045 391 1045 Q416 1045 429 1035 Q442 1025 454 1007 Q463 994 470.5 987 Q478 980 491 980 Q511 980 526.5 997 Q542 1014 550 1045 L584 1041 Q575 992 549.5 965 Q524 938 487 938 Q462 938 449 948 Q436 958 424 976 Q415 990 408 996.5 Q401 1003 388 1003 Z M309 775 L265 775 L267 783 L396 915 L452 915 L529 783 L527 775 L486 775 L417 876 L309 775 Z M186 724 L578 724 L568 673 L232 673 L178 396 L431 396 L421 345 L168 345 L111 51 L459 51 L449 0 L45 0 L186 724 Z " />
<glyph glyph-name="Edieresis" unicode="&#xcb;" horiz-adv-x="545" d="M318 806 Q301 806 292 815.5 Q283 825 283 843 Q283 864 295 877.5 Q307 891 327 891 Q344 891 353 881.5 Q362 872 362 854 Q362 833 350 819.5 Q338 806 318 806 Z M497 806 Q480 806 471 815.5 Q462 825 462 843 Q462 864 474 877.5 Q486 891 506 891 Q523 891 532 881.5 Q541 872 541 854 Q541 833 529 819.5 Q517 806 497 806 Z M232 673 L178 396 L431 396 L421 345 L168 345 L111 51 L459 51 L449 0 L45 0 L186 724 L578 724 L568 673 L232 673 Z " />
<glyph glyph-name="Edotaccent" unicode="&#x116;" horiz-adv-x="545" d="M406 806 Q389 806 379 816 Q369 826 369 844 Q369 866 382 880 Q395 894 416 894 Q434 894 443.5 884.5 Q453 875 453 856 Q453 834 440 820 Q427 806 406 806 Z M232 673 L178 396 L431 396 L421 345 L168 345 L111 51 L459 51 L449 0 L45 0 L186 724 L578 724 L568 673 L232 673 Z " />
<glyph glyph-name="uni1EB8" unicode="&#x1eb8;" horiz-adv-x="545" d="M232 673 L178 396 L431 396 L421 345 L168 345 L111 51 L459 51 L449 0 L45 0 L186 724 L578 724 L568 673 L232 673 Z M216 -194 Q199 -194 189 -184 Q179 -174 179 -156 Q179 -134 191.5 -119.5 Q204 -105 225 -105 Q243 -105 252.5 -115 Q262 -125 262 -143 Q262 -165 249.5 -179.5 Q237 -194 216 -194 Z " />
<glyph glyph-name="Egrave" unicode="&#xc8;" horiz-adv-x="545" d="M403 781 L266 916 L267 926 L334 926 L451 791 L450 781 L403 781 Z M232 673 L178 396 L431 396 L421 345 L168 345 L111 51 L459 51 L449 0 L45 0 L186 724 L578 724 L568 673 L232 673 Z " />
<glyph glyph-name="uni1EBA" unicode="&#x1eba;" horiz-adv-x="545" d="M427 899 Q394 899 356 877 L342 913 Q385 940 435 940 Q504 940 504 884 Q504 859 491.5 847 Q479 835 456 825 Q440 819 430.5 811.5 Q421 804 420 791 Q419 788 419 779 L374 782 Q374 792 375 799 Q377 821 389.5 831.5 Q402 842 424 852 Q440 859 447.5 864.5 Q455 870 455 881 Q455 899 427 899 Z M232 673 L178 396 L431 396 L421 345 L168 345 L111 51 L459 51 L449 0 L45 0 L186 724 L578 724 L568 673 L232 673 Z " />
<glyph glyph-name="Emacron" unicode="&#x112;" horiz-adv-x="545" d="M536 818 L275 818 L283 863 L545 863 L536 818 Z M232 673 L178 396 L431 396 L421 345 L168 345 L111 51 L459 51 L449 0 L45 0 L186 724 L578 724 L568 673 L232 673 Z " />
<glyph glyph-name="Eogonek" unicode="&#x118;" horiz-adv-x="545" d="M232 673 L178 396 L431 396 L421 345 L168 345 L111 51 L459 51 L449 0 Q399 -28 366.5 -65 Q334 -102 334 -136 Q334 -154 344.5 -163.5 Q355 -173 375 -173 Q409 -173 444 -153 L458 -190 Q415 -217 366 -217 Q327 -217 305.5 -198 Q284 -179 284 -146 Q284 -106 311.5 -67.5 Q339 -29 388 0 L45 0 L186 724 L578 724 L568 673 L232 673 Z " />
<glyph glyph-name="uni1EBC" unicode="&#x1ebc;" horiz-adv-x="545" d="M352 868 Q331 868 314.5 848 Q298 828 287 790 L250 794 Q262 851 289.5 882 Q317 913 354 913 Q381 913 396.5 901 Q412 889 428 867 Q439 851 448.5 843 Q458 835 471 835 Q492 835 509.5 855.5 Q527 876 537 913 L575 909 Q562 852 534.5 821 Q507 790 469 790 Q443 790 427.5 801.5 Q412 813 394 836 Q383 852 373.5 860 Q364 868 352 868 Z M232 673 L178 396 L431 396 L421 345 L168 345 L111 51 L459 51 L449 0 L45 0 L186 724 L578 724 L568 673 L232 673 Z " />
<glyph glyph-name="F" unicode="F" horiz-adv-x="507" d="M232 673 L176 383 L446 383 L436 332 L166 332 L101 0 L45 0 L186 724 L572 724 L562 673 L232 673 Z " />
<glyph glyph-name="G" unicode="G" horiz-adv-x="636" d="M451 685 Q349 685 275.5 623.5 Q202 562 164.5 461 Q127 360 127 244 Q127 143 175.5 90.5 Q224 38 318 38 Q386 38 464 65 L513 317 L380 317 L390 368 L579 368 L515 35 Q474 12 421 0 Q368 -12 316 -12 Q197 -12 133 55.5 Q69 123 69 248 Q69 378 115.5 490 Q162 602 249.5 669 Q337 736 454 736 Q504 736 549 723.5 Q594 711 624 690 L599 646 Q532 685 451 685 Z " />
<glyph glyph-name="Gbreve" unicode="&#x11e;" horiz-adv-x="636" d="M448 793 Q398 793 369 821 Q340 849 340 899 Q340 918 342 928 L382 925 Q378 839 451 839 Q491 839 519 861.5 Q547 884 561 928 L599 925 Q584 861 544.5 827 Q505 793 448 793 Z M451 685 Q349 685 275.5 623.5 Q202 562 164.5 461 Q127 360 127 244 Q127 143 175.5 90.5 Q224 38 318 38 Q386 38 464 65 L513 317 L380 317 L390 368 L579 368 L515 35 Q474 12 421 0 Q368 -12 316 -12 Q197 -12 133 55.5 Q69 123 69 248 Q69 378 115.5 490 Q162 602 249.5 669 Q337 736 454 736 Q504 736 549 723.5 Q594 711 624 690 L599 646 Q532 685 451 685 Z " />
<glyph glyph-name="Gcaron" unicode="&#x1e6;" horiz-adv-x="636" d="M413 781 L325 916 L326 926 L371 926 L450 822 L569 926 L616 926 L615 916 L473 781 L413 781 Z M451 685 Q349 685 275.5 623.5 Q202 562 164.5 461 Q127 360 127 244 Q127 143 175.5 90.5 Q224 38 318 38 Q386 38 464 65 L513 317 L380 317 L390 368 L579 368 L515 35 Q474 12 421 0 Q368 -12 316 -12 Q197 -12 133 55.5 Q69 123 69 248 Q69 378 115.5 490 Q162 602 249.5 669 Q337 736 454 736 Q504 736 549 723.5 Q594 711 624 690 L599 646 Q532 685 451 685 Z " />
<glyph glyph-name="Gcircumflex" unicode="&#x11c;" horiz-adv-x="636" d="M344 781 L297 781 L298 791 L440 926 L500 926 L588 791 L587 781 L542 781 L463 885 L344 781 Z M451 685 Q349 685 275.5 623.5 Q202 562 164.5 461 Q127 360 127 244 Q127 143 175.5 90.5 Q224 38 318 38 Q386 38 464 65 L513 317 L380 317 L390 368 L579 368 L515 35 Q474 12 421 0 Q368 -12 316 -12 Q197 -12 133 55.5 Q69 123 69 248 Q69 378 115.5 490 Q162 602 249.5 669 Q337 736 454 736 Q504 736 549 723.5 Q594 711 624 690 L599 646 Q532 685 451 685 Z " />
<glyph glyph-name="Gcommaaccent" unicode="&#x122;" horiz-adv-x="636" d="M451 685 Q349 685 275.5 623.5 Q202 562 164.5 461 Q127 360 127 244 Q127 143 175.5 90.5 Q224 38 318 38 Q386 38 464 65 L513 317 L380 317 L390 368 L579 368 L515 35 Q474 12 421 0 Q368 -12 316 -12 Q197 -12 133 55.5 Q69 123 69 248 Q69 378 115.5 490 Q162 602 249.5 669 Q337 736 454 736 Q504 736 549 723.5 Q594 711 624 690 L599 646 Q532 685 451 685 Z M167 -243 Q200 -214 216.5 -186.5 Q233 -159 242 -116 Q244 -102 246 -84 L300 -88 Q300 -94 296 -124 Q287 -168 262 -202.5 Q237 -237 188 -271 L167 -243 Z " />
<glyph glyph-name="Gdotaccent" unicode="&#x120;" horiz-adv-x="636" d="M450 806 Q433 806 423 816 Q413 826 413 844 Q413 866 426 880 Q439 894 460 894 Q478 894 487.5 884.5 Q497 875 497 856 Q497 834 484 820 Q471 806 450 806 Z M451 685 Q349 685 275.5 623.5 Q202 562 164.5 461 Q127 360 127 244 Q127 143 175.5 90.5 Q224 38 318 38 Q386 38 464 65 L513 317 L380 317 L390 368 L579 368 L515 35 Q474 12 421 0 Q368 -12 316 -12 Q197 -12 133 55.5 Q69 123 69 248 Q69 378 115.5 490 Q162 602 249.5 669 Q337 736 454 736 Q504 736 549 723.5 Q594 711 624 690 L599 646 Q532 685 451 685 Z " />
<glyph glyph-name="uni1E20" unicode="&#x1e20;" horiz-adv-x="636" d="M580 818 L319 818 L327 863 L589 863 L580 818 Z M451 685 Q349 685 275.5 623.5 Q202 562 164.5 461 Q127 360 127 244 Q127 143 175.5 90.5 Q224 38 318 38 Q386 38 464 65 L513 317 L380 317 L390 368 L579 368 L515 35 Q474 12 421 0 Q368 -12 316 -12 Q197 -12 133 55.5 Q69 123 69 248 Q69 378 115.5 490 Q162 602 249.5 669 Q337 736 454 736 Q504 736 549 723.5 Q594 711 624 690 L599 646 Q532 685 451 685 Z " />
<glyph glyph-name="H" unicode="H" horiz-adv-x="667" d="M660 724 L519 0 L463 0 L530 342 L168 342 L101 0 L45 0 L186 724 L242 724 L178 393 L539 393 L604 724 L660 724 Z " />
<glyph glyph-name="Hbar" unicode="&#x126;" horiz-adv-x="667" d="M690 536 L624 536 L519 0 L463 0 L530 342 L168 342 L101 0 L45 0 L149 536 L83 536 L92 583 L158 583 L186 724 L242 724 L215 583 L576 583 L604 724 L660 724 L633 583 L699 583 L690 536 Z M567 536 L206 536 L178 393 L539 393 L567 536 Z " />
<glyph glyph-name="uni1E2A" unicode="&#x1e2a;" horiz-adv-x="667" d="M660 724 L519 0 L463 0 L530 342 L168 342 L101 0 L45 0 L186 724 L242 724 L178 393 L539 393 L604 724 L660 724 Z M245 -214 Q194 -214 165 -186 Q136 -158 136 -108 Q136 -89 138 -79 L178 -82 Q174 -168 247 -168 Q287 -168 315 -145.5 Q343 -123 357 -79 L395 -82 Q380 -145 341 -179.5 Q302 -214 245 -214 Z " />
<glyph glyph-name="Hcircumflex" unicode="&#x124;" horiz-adv-x="667" d="M335 781 L288 781 L289 791 L431 926 L491 926 L579 791 L578 781 L533 781 L454 885 L335 781 Z M660 724 L519 0 L463 0 L530 342 L168 342 L101 0 L45 0 L186 724 L242 724 L178 393 L539 393 L604 724 L660 724 Z " />
<glyph glyph-name="uni1E24" unicode="&#x1e24;" horiz-adv-x="667" d="M660 724 L519 0 L463 0 L530 342 L168 342 L101 0 L45 0 L186 724 L242 724 L178 393 L539 393 L604 724 L660 724 Z M248 -194 Q231 -194 221 -184 Q211 -174 211 -156 Q211 -134 223.5 -119.5 Q236 -105 257 -105 Q275 -105 284.5 -115 Q294 -125 294 -143 Q294 -165 281.5 -179.5 Q269 -194 248 -194 Z " />
<glyph glyph-name="I" unicode="I" horiz-adv-x="253" d="M188 724 L244 724 L103 0 L47 0 L188 724 Z " />
<glyph glyph-name="IJ" unicode="&#x132;" horiz-adv-x="609" d="M186 724 L242 724 L101 0 L45 0 L186 724 Z M309 -12 Q277 -12 247 -4 Q217 4 193 19 L217 63 Q264 38 310 38 Q364 38 397.5 72 Q431 106 444 172 L552 724 L608 724 L499 167 Q482 79 433.5 33.5 Q385 -12 309 -12 Z " />
<glyph glyph-name="Iacute" unicode="&#xcd;" horiz-adv-x="253" d="M171 791 L349 926 L423 926 L422 916 L224 781 L170 781 L171 791 Z M188 724 L244 724 L103 0 L47 0 L188 724 Z " />
<glyph glyph-name="uni01CF" unicode="&#x1cf;" horiz-adv-x="253" d="M400 926 L399 916 L257 781 L197 781 L109 916 L110 926 L155 926 L234 822 L353 926 L400 926 Z M188 724 L244 724 L103 0 L47 0 L188 724 Z " />
<glyph glyph-name="Icircumflex" unicode="&#xce;" horiz-adv-x="253" d="M372 791 L371 781 L326 781 L247 885 L128 781 L81 781 L82 791 L224 926 L284 926 L372 791 Z M188 724 L244 724 L103 0 L47 0 L188 724 Z " />
<glyph glyph-name="Idieresis" unicode="&#xcf;" horiz-adv-x="253" d="M146 806 Q129 806 120 815.5 Q111 825 111 843 Q111 864 123 877.5 Q135 891 155 891 Q172 891 181 881.5 Q190 872 190 854 Q190 833 178 819.5 Q166 806 146 806 Z M325 806 Q308 806 299 815.5 Q290 825 290 843 Q290 864 302 877.5 Q314 891 334 891 Q351 891 360 881.5 Q369 872 369 854 Q369 833 357 819.5 Q345 806 325 806 Z M188 724 L244 724 L103 0 L47 0 L188 724 Z " />
<glyph glyph-name="Idot" unicode="&#x130;" horiz-adv-x="253" d="M234 806 Q217 806 207 816 Q197 826 197 844 Q197 866 210 880 Q223 894 244 894 Q262 894 271.5 884.5 Q281 875 281 856 Q281 834 268 820 Q255 806 234 806 Z M188 724 L244 724 L103 0 L47 0 L188 724 Z " />
<glyph glyph-name="uni1ECA" unicode="&#x1eca;" horiz-adv-x="253" d="M188 724 L244 724 L103 0 L47 0 L188 724 Z M41 -194 Q24 -194 14 -184 Q4 -174 4 -156 Q4 -134 16.5 -119.5 Q29 -105 50 -105 Q68 -105 77.5 -115 Q87 -125 87 -143 Q87 -165 74.5 -179.5 Q62 -194 41 -194 Z " />
<glyph glyph-name="Igrave" unicode="&#xcc;" horiz-adv-x="253" d="M94 916 L95 926 L162 926 L279 791 L278 781 L231 781 L94 916 Z M188 724 L244 724 L103 0 L47 0 L188 724 Z " />
<glyph glyph-name="uni1EC8" unicode="&#x1ec8;" horiz-adv-x="253" d="M202 782 Q202 792 203 799 Q205 821 217.5 831.5 Q230 842 252 852 Q268 859 275.5 864.5 Q283 870 283 881 Q283 899 255 899 Q222 899 184 877 L170 913 Q213 940 263 940 Q332 940 332 884 Q332 859 319.5 847 Q307 835 284 825 Q268 819 258.5 811.5 Q249 804 248 791 Q247 788 247 779 L202 782 Z M188 724 L244 724 L103 0 L47 0 L188 724 Z " />
<glyph glyph-name="Imacron" unicode="&#x12a;" horiz-adv-x="253" d="M111 863 L373 863 L364 818 L103 818 L111 863 Z M188 724 L244 724 L103 0 L47 0 L188 724 Z " />
<glyph glyph-name="Iogonek" unicode="&#x12e;" horiz-adv-x="253" d="M51 -173 Q84 -173 121 -153 L133 -190 Q91 -217 42 -217 Q3 -217 -18.5 -199 Q-40 -181 -40 -148 Q-40 -113 -16.5 -73 Q7 -33 48 0 L47 0 L188 724 L245 724 L104 0 L103 0 Q59 -37 35 -73 Q11 -109 11 -137 Q11 -173 51 -173 Z " />
<glyph glyph-name="Itilde" unicode="&#x128;" horiz-adv-x="253" d="M287 790 Q262 790 249 801.5 Q236 813 224 836 Q215 852 208 859.5 Q201 867 189 867 Q170 867 155 847 Q140 827 131 790 L94 794 Q104 851 130 882 Q156 913 193 913 Q217 913 229.5 901.5 Q242 890 255 868 Q264 852 271 844 Q278 836 291 836 Q310 836 325 856 Q340 876 350 913 L387 909 Q376 851 350 820.5 Q324 790 287 790 Z M188 724 L244 724 L103 0 L47 0 L188 724 Z " />
<glyph glyph-name="J" unicode="J" horiz-adv-x="422" d="M101 -12 Q58 -12 23 0 Q-12 12 -34 33 L-7 75 Q38 39 103 39 Q165 39 204.5 74 Q244 109 257 174 L364 724 L421 724 L312 169 Q296 82 240.5 35 Q185 -12 101 -12 Z " />
<glyph glyph-name="Jcircumflex" unicode="&#x134;" horiz-adv-x="422" d="M548 791 L547 781 L502 781 L423 885 L304 781 L257 781 L258 791 L400 926 L460 926 L548 791 Z M364 724 L421 724 L312 169 Q296 82 240.5 35 Q185 -12 101 -12 Q58 -12 23 0 Q-12 12 -34 33 L-7 75 Q38 39 103 39 Q165 39 204.5 74 Q244 109 257 174 L364 724 Z " />
<glyph glyph-name="K" unicode="K" horiz-adv-x="585" d="M320 398 L524 0 L459 0 L279 357 L146 227 L101 0 L45 0 L186 724 L242 724 L163 315 L587 724 L655 724 L320 398 Z " />
<glyph glyph-name="Kcommaaccent" unicode="&#x136;" horiz-adv-x="585" d="M320 398 L524 0 L459 0 L279 357 L146 227 L101 0 L45 0 L186 724 L242 724 L163 315 L587 724 L655 724 L320 398 Z M146 -243 Q179 -214 195.5 -186.5 Q212 -159 221 -116 Q223 -102 225 -84 L279 -88 Q279 -94 275 -124 Q266 -168 241 -202.5 Q216 -237 167 -271 L146 -243 Z " />
<glyph glyph-name="L" unicode="L" horiz-adv-x="498" d="M428 51 L418 0 L45 0 L186 724 L242 724 L111 51 L428 51 Z " />
<glyph glyph-name="Lacute" unicode="&#x139;" horiz-adv-x="498" d="M446 926 L445 916 L247 781 L193 781 L194 791 L372 926 L446 926 Z M111 51 L428 51 L418 0 L45 0 L186 724 L242 724 L111 51 Z " />
<glyph glyph-name="Lcaron" unicode="&#x13d;" horiz-adv-x="498" d="M438 770 L437 762 L378 560 L341 560 L382 770 L438 770 Z M111 51 L428 51 L418 0 L45 0 L186 724 L242 724 L111 51 Z " />
<glyph glyph-name="Lcommaaccent" unicode="&#x13b;" horiz-adv-x="498" d="M428 51 L418 0 L45 0 L186 724 L242 724 L111 51 L428 51 Z M111 -243 Q144 -214 160.5 -186.5 Q177 -159 186 -116 Q188 -102 190 -84 L244 -88 Q244 -94 240 -124 Q231 -168 206 -202.5 Q181 -237 132 -271 L111 -243 Z " />
<glyph glyph-name="Ldot" unicode="&#x13f;" horiz-adv-x="498" d="M428 51 L418 0 L45 0 L186 724 L242 724 L111 51 L428 51 Z M361 344 Q344 344 334 354 Q324 364 324 382 Q324 404 337 418 Q350 432 371 432 Q389 432 398.5 422.5 Q408 413 408 394 Q408 372 395 358 Q382 344 361 344 Z " />
<glyph glyph-name="uni1E36" unicode="&#x1e36;" horiz-adv-x="498" d="M428 51 L418 0 L45 0 L186 724 L242 724 L111 51 L428 51 Z M200 -194 Q183 -194 173 -184 Q163 -174 163 -156 Q163 -134 175.5 -119.5 Q188 -105 209 -105 Q227 -105 236.5 -115 Q246 -125 246 -143 Q246 -165 233.5 -179.5 Q221 -194 200 -194 Z " />
<glyph glyph-name="uni1E38" unicode="&#x1e38;" horiz-adv-x="498" d="M387 818 L126 818 L134 863 L396 863 L387 818 Z M428 51 L418 0 L45 0 L186 724 L242 724 L111 51 L428 51 Z M209 -105 Q227 -105 236.5 -115 Q246 -125 246 -143 Q246 -165 233.5 -179.5 Q221 -194 200 -194 Q183 -194 173 -184 Q163 -174 163 -156 Q163 -134 175.5 -119.5 Q188 -105 209 -105 Z " />
<glyph glyph-name="uni1E3A" unicode="&#x1e3a;" horiz-adv-x="498" d="M428 51 L418 0 L45 0 L186 724 L242 724 L111 51 L428 51 Z M80 -114 L342 -114 L333 -159 L71 -159 L80 -114 Z " />
<glyph glyph-name="Lslash" unicode="&#x141;" horiz-adv-x="502" d="M432 51 L422 0 L49 0 L102 274 L98 272 L98 275 L77 263 L87 318 L114 333 L190 724 L246 724 L177 369 L284 430 L283 426 L292 430 L294 411 L281 395 L280 394 L279 392 L245 350 L165 307 L115 51 L432 51 Z " />
<glyph glyph-name="M" unicode="M" horiz-adv-x="802" d="M796 724 L655 0 L600 0 L721 625 L410 153 L351 153 L223 641 L99 0 L45 0 L186 724 L254 724 L389 206 L725 724 L796 724 Z " />
<glyph glyph-name="uni1E42" unicode="&#x1e42;" horiz-adv-x="802" d="M796 724 L655 0 L600 0 L721 625 L410 153 L351 153 L223 641 L99 0 L45 0 L186 724 L254 724 L389 206 L725 724 L796 724 Z M315 -194 Q298 -194 288 -184 Q278 -174 278 -156 Q278 -134 290.5 -119.5 Q303 -105 324 -105 Q342 -105 351.5 -115 Q361 -125 361 -143 Q361 -165 348.5 -179.5 Q336 -194 315 -194 Z " />
<glyph glyph-name="N" unicode="N" horiz-adv-x="689" d="M682 724 L541 0 L489 0 L222 631 L99 0 L45 0 L186 724 L238 724 L505 93 L628 724 L682 724 Z " />
<glyph glyph-name="Nacute" unicode="&#x143;" horiz-adv-x="689" d="M442 781 L388 781 L389 791 L567 926 L641 926 L640 916 L442 781 Z M682 724 L541 0 L489 0 L222 631 L99 0 L45 0 L186 724 L238 724 L505 93 L628 724 L682 724 Z " />
<glyph glyph-name="Ncaron" unicode="&#x147;" horiz-adv-x="689" d="M415 781 L327 916 L328 926 L373 926 L452 822 L571 926 L618 926 L617 916 L475 781 L415 781 Z M682 724 L541 0 L489 0 L222 631 L99 0 L45 0 L186 724 L238 724 L505 93 L628 724 L682 724 Z " />
<glyph glyph-name="Ncommaaccent" unicode="&#x145;" horiz-adv-x="689" d="M682 724 L541 0 L489 0 L222 631 L99 0 L45 0 L186 724 L238 724 L505 93 L628 724 L682 724 Z M170 -243 Q203 -214 219.5 -186.5 Q236 -159 245 -116 Q247 -102 249 -84 L303 -88 Q303 -94 299 -124 Q290 -168 265 -202.5 Q240 -237 191 -271 L170 -243 Z " />
<glyph glyph-name="uni1E44" unicode="&#x1e44;" horiz-adv-x="689" d="M452 806 Q435 806 425 816 Q415 826 415 844 Q415 866 428 880 Q441 894 462 894 Q480 894 489.5 884.5 Q499 875 499 856 Q499 834 486 820 Q473 806 452 806 Z M682 724 L541 0 L489 0 L222 631 L99 0 L45 0 L186 724 L238 724 L505 93 L628 724 L682 724 Z " />
<glyph glyph-name="uni1E46" unicode="&#x1e46;" horiz-adv-x="689" d="M682 724 L541 0 L489 0 L222 631 L99 0 L45 0 L186 724 L238 724 L505 93 L628 724 L682 724 Z M259 -194 Q242 -194 232 -184 Q222 -174 222 -156 Q222 -134 234.5 -119.5 Q247 -105 268 -105 Q286 -105 295.5 -115 Q305 -125 305 -143 Q305 -165 292.5 -179.5 Q280 -194 259 -194 Z " />
<glyph glyph-name="uni1E48" unicode="&#x1e48;" horiz-adv-x="689" d="M682 724 L541 0 L489 0 L222 631 L99 0 L45 0 L186 724 L238 724 L505 93 L628 724 L682 724 Z M139 -114 L401 -114 L392 -159 L130 -159 L139 -114 Z " />
<glyph glyph-name="Ntilde" unicode="&#xd1;" horiz-adv-x="689" d="M398 868 Q377 868 360.5 848 Q344 828 333 790 L296 794 Q308 851 335.5 882 Q363 913 400 913 Q427 913 442.5 901 Q458 889 474 867 Q485 851 494.5 843 Q504 835 517 835 Q538 835 555.5 855.5 Q573 876 583 913 L621 909 Q608 852 580.5 821 Q553 790 515 790 Q489 790 473.5 801.5 Q458 813 440 836 Q429 852 419.5 860 Q410 868 398 868 Z M682 724 L541 0 L489 0 L222 631 L99 0 L45 0 L186 724 L238 724 L505 93 L628 724 L682 724 Z " />
<glyph glyph-name="O" unicode="O" horiz-adv-x="678" d="M286 -12 Q182 -12 125 50.5 Q68 113 68 229 Q68 363 108.5 478.5 Q149 594 230.5 665 Q312 736 429 736 Q534 736 591 673.5 Q648 611 648 495 Q648 361 607.5 245.5 Q567 130 485 59 Q403 -12 286 -12 Z M293 38 Q389 38 455.5 103 Q522 168 555.5 271.5 Q589 375 589 489 Q589 587 547 636.5 Q505 686 422 686 Q327 686 260 621 Q193 556 160 452.5 Q127 349 127 234 Q127 137 169 87.5 Q211 38 293 38 Z " />
<glyph glyph-name="Oacute" unicode="&#xd3;" horiz-adv-x="678" d="M383 791 L561 926 L635 926 L634 916 L436 781 L382 781 L383 791 Z M286 -12 Q182 -12 125 50.5 Q68 113 68 229 Q68 363 108.5 478.5 Q149 594 230.5 665 Q312 736 429 736 Q534 736 591 673.5 Q648 611 648 495 Q648 361 607.5 245.5 Q567 130 485 59 Q403 -12 286 -12 Z M293 38 Q389 38 455.5 103 Q522 168 555.5 271.5 Q589 375 589 489 Q589 587 547 636.5 Q505 686 422 686 Q327 686 260 621 Q193 556 160 452.5 Q127 349 127 234 Q127 137 169 87.5 Q211 38 293 38 Z " />
<glyph glyph-name="uni01D1" unicode="&#x1d1;" horiz-adv-x="678" d="M409 781 L321 916 L322 926 L367 926 L446 822 L565 926 L612 926 L611 916 L469 781 L409 781 Z M429 736 Q534 736 591 673.5 Q648 611 648 495 Q648 361 607.5 245.5 Q567 130 485 59 Q403 -12 286 -12 Q182 -12 125 50.5 Q68 113 68 229 Q68 363 108.5 478.5 Q149 594 230.5 665 Q312 736 429 736 Z M293 38 Q389 38 455.5 103 Q522 168 555.5 271.5 Q589 375 589 489 Q589 587 547 636.5 Q505 686 422 686 Q327 686 260 621 Q193 556 160 452.5 Q127 349 127 234 Q127 137 169 87.5 Q211 38 293 38 Z " />
<glyph glyph-name="Ocircumflex" unicode="&#xd4;" horiz-adv-x="678" d="M340 781 L293 781 L294 791 L436 926 L496 926 L584 791 L583 781 L538 781 L459 885 L340 781 Z M429 736 Q534 736 591 673.5 Q648 611 648 495 Q648 361 607.5 245.5 Q567 130 485 59 Q403 -12 286 -12 Q182 -12 125 50.5 Q68 113 68 229 Q68 363 108.5 478.5 Q149 594 230.5 665 Q312 736 429 736 Z M293 38 Q389 38 455.5 103 Q522 168 555.5 271.5 Q589 375 589 489 Q589 587 547 636.5 Q505 686 422 686 Q327 686 260 621 Q193 556 160 452.5 Q127 349 127 234 Q127 137 169 87.5 Q211 38 293 38 Z " />
<glyph glyph-name="uni1ED0" unicode="&#x1ed0;" horiz-adv-x="678" d="M721 1027 L720 1019 L600 890 L559 890 L560 898 L666 1027 L721 1027 Z M352 785 L308 785 L309 793 L439 934 L495 934 L571 793 L569 785 L528 785 L461 893 L352 785 Z M429 736 Q534 736 591 673.5 Q648 611 648 495 Q648 361 607.5 245.5 Q567 130 485 59 Q403 -12 286 -12 Q182 -12 125 50.5 Q68 113 68 229 Q68 363 108.5 478.5 Q149 594 230.5 665 Q312 736 429 736 Z M293 38 Q389 38 455.5 103 Q522 168 555.5 271.5 Q589 375 589 489 Q589 587 547 636.5 Q505 686 422 686 Q327 686 260 621 Q193 556 160 452.5 Q127 349 127 234 Q127 137 169 87.5 Q211 38 293 38 Z " />
<glyph glyph-name="uni1ED8" unicode="&#x1ed8;" horiz-adv-x="678" d="M340 781 L293 781 L294 791 L436 926 L496 926 L584 791 L583 781 L538 781 L459 885 L340 781 Z M429 736 Q534 736 591 673.5 Q648 611 648 495 Q648 361 607.5 245.5 Q567 130 485 59 Q403 -12 286 -12 Q182 -12 125 50.5 Q68 113 68 229 Q68 363 108.5 478.5 Q149 594 230.5 665 Q312 736 429 736 Z M293 38 Q389 38 455.5 103 Q522 168 555.5 271.5 Q589 375 589 489 Q589 587 547 636.5 Q505 686 422 686 Q327 686 260 621 Q193 556 160 452.5 Q127 349 127 234 Q127 137 169 87.5 Q211 38 293 38 Z M266 -105 Q284 -105 293.5 -115 Q303 -125 303 -143 Q303 -165 290.5 -179.5 Q278 -194 257 -194 Q240 -194 230 -184 Q220 -174 220 -156 Q220 -134 232.5 -119.5 Q245 -105 266 -105 Z " />
<glyph glyph-name="uni1ED2" unicode="&#x1ed2;" horiz-adv-x="678" d="M321 890 L256 1019 L257 1027 L308 1027 L358 898 L357 890 L321 890 Z M309 793 L439 934 L495 934 L571 793 L569 785 L528 785 L461 893 L352 785 L308 785 L309 793 Z M429 736 Q534 736 591 673.5 Q648 611 648 495 Q648 361 607.5 245.5 Q567 130 485 59 Q403 -12 286 -12 Q182 -12 125 50.5 Q68 113 68 229 Q68 363 108.5 478.5 Q149 594 230.5 665 Q312 736 429 736 Z M293 38 Q389 38 455.5 103 Q522 168 555.5 271.5 Q589 375 589 489 Q589 587 547 636.5 Q505 686 422 686 Q327 686 260 621 Q193 556 160 452.5 Q127 349 127 234 Q127 137 169 87.5 Q211 38 293 38 Z " />
<glyph glyph-name="uni1ED4" unicode="&#x1ed4;" horiz-adv-x="678" d="M616 1040 Q645 1040 661.5 1026 Q678 1012 678 988 Q678 964 667 952 Q656 940 635 930 Q620 922 612 915 Q604 908 603 897 Q602 893 602 885 L561 888 Q561 897 562 904 Q564 925 575 935.5 Q586 946 605 954 Q619 961 626.5 967.5 Q634 974 634 985 Q634 1003 609 1003 Q580 1003 551 985 L539 1018 Q555 1028 576 1034 Q597 1040 616 1040 Z M352 785 L308 785 L309 793 L439 934 L495 934 L571 793 L569 785 L528 785 L461 893 L352 785 Z M429 736 Q534 736 591 673.5 Q648 611 648 495 Q648 361 607.5 245.5 Q567 130 485 59 Q403 -12 286 -12 Q182 -12 125 50.5 Q68 113 68 229 Q68 363 108.5 478.5 Q149 594 230.5 665 Q312 736 429 736 Z M293 38 Q389 38 455.5 103 Q522 168 555.5 271.5 Q589 375 589 489 Q589 587 547 636.5 Q505 686 422 686 Q327 686 260 621 Q193 556 160 452.5 Q127 349 127 234 Q127 137 169 87.5 Q211 38 293 38 Z " />
<glyph glyph-name="uni1ED6" unicode="&#x1ed6;" horiz-adv-x="678" d="M428 1003 Q407 1003 392 986 Q377 969 369 938 L334 942 Q344 991 369 1018 Q394 1045 431 1045 Q456 1045 469 1035 Q482 1025 494 1007 Q503 994 510.5 987 Q518 980 531 980 Q551 980 566.5 997 Q582 1014 590 1045 L624 1041 Q615 992 589.5 965 Q564 938 527 938 Q502 938 489 948 Q476 958 464 976 Q455 990 448 996.5 Q441 1003 428 1003 Z M349 775 L305 775 L307 783 L436 915 L492 915 L569 783 L567 775 L526 775 L457 876 L349 775 Z M429 736 Q534 736 591 673.5 Q648 611 648 495 Q648 361 607.5 245.5 Q567 130 485 59 Q403 -12 286 -12 Q182 -12 125 50.5 Q68 113 68 229 Q68 363 108.5 478.5 Q149 594 230.5 665 Q312 736 429 736 Z M293 38 Q389 38 455.5 103 Q522 168 555.5 271.5 Q589 375 589 489 Q589 587 547 636.5 Q505 686 422 686 Q327 686 260 621 Q193 556 160 452.5 Q127 349 127 234 Q127 137 169 87.5 Q211 38 293 38 Z " />
<glyph glyph-name="Odieresis" unicode="&#xd6;" horiz-adv-x="678" d="M358 806 Q341 806 332 815.5 Q323 825 323 843 Q323 864 335 877.5 Q347 891 367 891 Q384 891 393 881.5 Q402 872 402 854 Q402 833 390 819.5 Q378 806 358 806 Z M537 806 Q520 806 511 815.5 Q502 825 502 843 Q502 864 514 877.5 Q526 891 546 891 Q563 891 572 881.5 Q581 872 581 854 Q581 833 569 819.5 Q557 806 537 806 Z M286 -12 Q182 -12 125 50.5 Q68 113 68 229 Q68 363 108.5 478.5 Q149 594 230.5 665 Q312 736 429 736 Q534 736 591 673.5 Q648 611 648 495 Q648 361 607.5 245.5 Q567 130 485 59 Q403 -12 286 -12 Z M293 38 Q389 38 455.5 103 Q522 168 555.5 271.5 Q589 375 589 489 Q589 587 547 636.5 Q505 686 422 686 Q327 686 260 621 Q193 556 160 452.5 Q127 349 127 234 Q127 137 169 87.5 Q211 38 293 38 Z " />
<glyph glyph-name="uni1ECC" unicode="&#x1ecc;" horiz-adv-x="678" d="M286 -12 Q182 -12 125 50.5 Q68 113 68 229 Q68 363 108.5 478.5 Q149 594 230.5 665 Q312 736 429 736 Q534 736 591 673.5 Q648 611 648 495 Q648 361 607.5 245.5 Q567 130 485 59 Q403 -12 286 -12 Z M293 38 Q389 38 455.5 103 Q522 168 555.5 271.5 Q589 375 589 489 Q589 587 547 636.5 Q505 686 422 686 Q327 686 260 621 Q193 556 160 452.5 Q127 349 127 234 Q127 137 169 87.5 Q211 38 293 38 Z M257 -194 Q240 -194 230 -184 Q220 -174 220 -156 Q220 -134 232.5 -119.5 Q245 -105 266 -105 Q284 -105 293.5 -115 Q303 -125 303 -143 Q303 -165 290.5 -179.5 Q278 -194 257 -194 Z " />
<glyph glyph-name="Ograve" unicode="&#xd2;" horiz-adv-x="678" d="M306 916 L307 926 L374 926 L491 791 L490 781 L443 781 L306 916 Z M286 -12 Q182 -12 125 50.5 Q68 113 68 229 Q68 363 108.5 478.5 Q149 594 230.5 665 Q312 736 429 736 Q534 736 591 673.5 Q648 611 648 495 Q648 361 607.5 245.5 Q567 130 485 59 Q403 -12 286 -12 Z M293 38 Q389 38 455.5 103 Q522 168 555.5 271.5 Q589 375 589 489 Q589 587 547 636.5 Q505 686 422 686 Q327 686 260 621 Q193 556 160 452.5 Q127 349 127 234 Q127 137 169 87.5 Q211 38 293 38 Z " />
<glyph glyph-name="uni1ECE" unicode="&#x1ece;" horiz-adv-x="678" d="M414 782 Q414 792 415 799 Q417 821 429.5 831.5 Q442 842 464 852 Q480 859 487.5 864.5 Q495 870 495 881 Q495 899 467 899 Q434 899 396 877 L382 913 Q425 940 475 940 Q544 940 544 884 Q544 859 531.5 847 Q519 835 496 825 Q480 819 470.5 811.5 Q461 804 460 791 Q459 788 459 779 L414 782 Z M286 -12 Q182 -12 125 50.5 Q68 113 68 229 Q68 363 108.5 478.5 Q149 594 230.5 665 Q312 736 429 736 Q534 736 591 673.5 Q648 611 648 495 Q648 361 607.5 245.5 Q567 130 485 59 Q403 -12 286 -12 Z M293 38 Q389 38 455.5 103 Q522 168 555.5 271.5 Q589 375 589 489 Q589 587 547 636.5 Q505 686 422 686 Q327 686 260 621 Q193 556 160 452.5 Q127 349 127 234 Q127 137 169 87.5 Q211 38 293 38 Z " />
<glyph glyph-name="Ohorn" unicode="&#x1a0;" horiz-adv-x="678" d="M764 862 Q764 829 758 797 Q744 734 705 705 Q666 676 588 676 Q648 614 648 488 Q648 357 607 243 Q566 129 483.5 58.5 Q401 -12 283 -12 Q180 -12 124 51.5 Q68 115 68 237 Q68 365 109 479 Q150 593 231.5 664.5 Q313 736 429 736 L430 736 Q467 736 509 725 Q526 721 546 717.5 Q566 714 590 714 Q643 714 670.5 735.5 Q698 757 708 807 Q713 832 714 865 L764 862 Z M290 38 Q387 38 454.5 103.5 Q522 169 555.5 271 Q589 373 589 482 Q589 585 548.5 635.5 Q508 686 425 686 Q329 686 261.5 621 Q194 556 160.5 454 Q127 352 127 242 Q127 38 290 38 Z " />
<glyph glyph-name="uni1EDA" unicode="&#x1eda;" horiz-adv-x="678" d="M438 781 L384 781 L385 791 L563 926 L637 926 L636 916 L438 781 Z M764 862 Q764 829 758 797 Q744 734 705 705 Q666 676 588 676 Q648 614 648 488 Q648 357 607 243 Q566 129 483.5 58.5 Q401 -12 283 -12 Q180 -12 124 51.5 Q68 115 68 237 Q68 365 109 479 Q150 593 231.5 664.5 Q313 736 429 736 L430 736 Q467 736 509 725 Q526 721 546 717.5 Q566 714 590 714 Q643 714 670.5 735.5 Q698 757 708 807 Q713 832 714 865 L764 862 Z M290 38 Q387 38 454.5 103.5 Q522 169 555.5 271 Q589 373 589 482 Q589 585 548.5 635.5 Q508 686 425 686 Q329 686 261.5 621 Q194 556 160.5 454 Q127 352 127 242 Q127 38 290 38 Z " />
<glyph glyph-name="uni1EE2" unicode="&#x1ee2;" horiz-adv-x="678" d="M764 862 Q764 829 758 797 Q744 734 705 705 Q666 676 588 676 Q648 614 648 488 Q648 357 607 243 Q566 129 483.5 58.5 Q401 -12 283 -12 Q180 -12 124 51.5 Q68 115 68 237 Q68 365 109 479 Q150 593 231.5 664.5 Q313 736 429 736 L430 736 Q467 736 509 725 Q526 721 546 717.5 Q566 714 590 714 Q643 714 670.5 735.5 Q698 757 708 807 Q713 832 714 865 L764 862 Z M290 38 Q387 38 454.5 103.5 Q522 169 555.5 271 Q589 373 589 482 Q589 585 548.5 635.5 Q508 686 425 686 Q329 686 261.5 621 Q194 556 160.5 454 Q127 352 127 242 Q127 38 290 38 Z M255 -194 Q238 -194 228 -184 Q218 -174 218 -156 Q218 -134 230.5 -119.5 Q243 -105 264 -105 Q282 -105 291.5 -115 Q301 -125 301 -143 Q301 -165 288.5 -179.5 Q276 -194 255 -194 Z " />
<glyph glyph-name="uni1EDC" unicode="&#x1edc;" horiz-adv-x="678" d="M445 781 L308 916 L309 926 L376 926 L493 791 L492 781 L445 781 Z M764 862 Q764 829 758 797 Q744 734 705 705 Q666 676 588 676 Q648 614 648 488 Q648 357 607 243 Q566 129 483.5 58.5 Q401 -12 283 -12 Q180 -12 124 51.5 Q68 115 68 237 Q68 365 109 479 Q150 593 231.5 664.5 Q313 736 429 736 L430 736 Q467 736 509 725 Q526 721 546 717.5 Q566 714 590 714 Q643 714 670.5 735.5 Q698 757 708 807 Q713 832 714 865 L764 862 Z M290 38 Q387 38 454.5 103.5 Q522 169 555.5 271 Q589 373 589 482 Q589 585 548.5 635.5 Q508 686 425 686 Q329 686 261.5 621 Q194 556 160.5 454 Q127 352 127 242 Q127 38 290 38 Z " />
<glyph glyph-name="uni1EDE" unicode="&#x1ede;" horiz-adv-x="678" d="M469 899 Q436 899 398 877 L384 913 Q427 940 477 940 Q546 940 546 884 Q546 859 533.5 847 Q521 835 498 825 Q482 819 472.5 811.5 Q463 804 462 791 Q461 788 461 779 L416 782 Q416 792 417 799 Q419 821 431.5 831.5 Q444 842 466 852 Q482 859 489.5 864.5 Q497 870 497 881 Q497 899 469 899 Z M764 862 Q764 829 758 797 Q744 734 705 705 Q666 676 588 676 Q648 614 648 488 Q648 357 607 243 Q566 129 483.5 58.5 Q401 -12 283 -12 Q180 -12 124 51.5 Q68 115 68 237 Q68 365 109 479 Q150 593 231.5 664.5 Q313 736 429 736 L430 736 Q467 736 509 725 Q526 721 546 717.5 Q566 714 590 714 Q643 714 670.5 735.5 Q698 757 708 807 Q713 832 714 865 L764 862 Z M290 38 Q387 38 454.5 103.5 Q522 169 555.5 271 Q589 373 589 482 Q589 585 548.5 635.5 Q508 686 425 686 Q329 686 261.5 621 Q194 556 160.5 454 Q127 352 127 242 Q127 38 290 38 Z " />
<glyph glyph-name="uni1EE0" unicode="&#x1ee0;" horiz-adv-x="678" d="M394 868 Q373 868 356.5 848 Q340 828 329 790 L292 794 Q304 851 331.5 882 Q359 913 396 913 Q423 913 438.5 901 Q454 889 470 867 Q481 851 490.5 843 Q500 835 513 835 Q534 835 551.5 855.5 Q569 876 579 913 L617 909 Q604 852 576.5 821 Q549 790 511 790 Q485 790 469.5 801.5 Q454 813 436 836 Q425 852 415.5 860 Q406 868 394 868 Z M764 862 Q764 829 758 797 Q744 734 705 705 Q666 676 588 676 Q648 614 648 488 Q648 357 607 243 Q566 129 483.5 58.5 Q401 -12 283 -12 Q180 -12 124 51.5 Q68 115 68 237 Q68 365 109 479 Q150 593 231.5 664.5 Q313 736 429 736 L430 736 Q467 736 509 725 Q526 721 546 717.5 Q566 714 590 714 Q643 714 670.5 735.5 Q698 757 708 807 Q713 832 714 865 L764 862 Z M290 38 Q387 38 454.5 103.5 Q522 169 555.5 271 Q589 373 589 482 Q589 585 548.5 635.5 Q508 686 425 686 Q329 686 261.5 621 Q194 556 160.5 454 Q127 352 127 242 Q127 38 290 38 Z " />
<glyph glyph-name="Ohungarumlaut" unicode="&#x150;" horiz-adv-x="678" d="M393 791 L522 926 L585 926 L596 926 L595 916 L447 781 L392 781 L393 791 Z M429 736 Q534 736 591 673.5 Q648 611 648 495 Q648 361 607.5 245.5 Q567 130 485 59 Q403 -12 286 -12 Q182 -12 125 50.5 Q68 113 68 229 Q68 363 108.5 478.5 Q149 594 230.5 665 Q312 736 429 736 Z M293 38 Q389 38 455.5 103 Q522 168 555.5 271.5 Q589 375 589 489 Q589 587 547 636.5 Q505 686 422 686 Q327 686 260 621 Q193 556 160 452.5 Q127 349 127 234 Q127 137 169 87.5 Q211 38 293 38 Z " />
<glyph glyph-name="Omacron" unicode="&#x14c;" horiz-adv-x="678" d="M323 863 L585 863 L576 818 L315 818 L323 863 Z M286 -12 Q182 -12 125 50.5 Q68 113 68 229 Q68 363 108.5 478.5 Q149 594 230.5 665 Q312 736 429 736 Q534 736 591 673.5 Q648 611 648 495 Q648 361 607.5 245.5 Q567 130 485 59 Q403 -12 286 -12 Z M293 38 Q389 38 455.5 103 Q522 168 555.5 271.5 Q589 375 589 489 Q589 587 547 636.5 Q505 686 422 686 Q327 686 260 621 Q193 556 160 452.5 Q127 349 127 234 Q127 137 169 87.5 Q211 38 293 38 Z " />
<glyph glyph-name="Oslash" unicode="&#xd8;" horiz-adv-x="678" d="M734 725 L626 611 Q645 559 645 494 Q645 475 641 431 Q629 301 586 201.5 Q543 102 467 45 Q391 -12 286 -12 Q165 -12 111 71 L34 -10 L-20 -10 L-19 -1 L89 114 Q71 164 71 230 Q71 249 75 293 Q87 423 130 522.5 Q173 622 248.5 679 Q324 736 429 736 Q550 736 605 654 L681 734 L736 734 L734 725 Z M132 296 Q128 264 128 228 Q128 191 134 161 L564 611 Q524 687 422 687 Q297 687 223 578 Q149 469 132 296 Z M584 428 Q588 459 588 492 Q588 534 581 563 L151 113 Q191 37 293 37 Q419 37 493 146 Q567 255 584 428 Z " />
<glyph glyph-name="Otilde" unicode="&#xd5;" horiz-adv-x="678" d="M290 794 Q302 851 329.5 882 Q357 913 394 913 Q421 913 436.5 901 Q452 889 468 867 Q479 851 488.5 843 Q498 835 511 835 Q532 835 549.5 855.5 Q567 876 577 913 L615 909 Q602 852 574.5 821 Q547 790 509 790 Q483 790 467.5 801.5 Q452 813 434 836 Q423 852 413.5 860 Q404 868 392 868 Q371 868 354.5 848 Q338 828 327 790 L290 794 Z M286 -12 Q182 -12 125 50.5 Q68 113 68 229 Q68 363 108.5 478.5 Q149 594 230.5 665 Q312 736 429 736 Q534 736 591 673.5 Q648 611 648 495 Q648 361 607.5 245.5 Q567 130 485 59 Q403 -12 286 -12 Z M293 38 Q389 38 455.5 103 Q522 168 555.5 271.5 Q589 375 589 489 Q589 587 547 636.5 Q505 686 422 686 Q327 686 260 621 Q193 556 160 452.5 Q127 349 127 234 Q127 137 169 87.5 Q211 38 293 38 Z " />
<glyph glyph-name="OE" unicode="&#x152;" horiz-adv-x="916" d="M617 673 L563 396 L802 396 L792 345 L553 345 L496 51 L830 51 L820 0 L430 0 L291 0 Q181 0 124.5 60.5 Q68 121 68 238 Q68 369 109 479.5 Q150 590 231 657 Q312 724 425 724 L598 724 L949 724 L939 673 L617 673 Z M440 51 L561 673 L419 673 Q325 673 259 611 Q193 549 160 449.5 Q127 350 127 239 Q127 144 169 97.5 Q211 51 297 51 L440 51 Z " />
<glyph glyph-name="P" unicode="P" horiz-adv-x="564" d="M416 724 Q500 724 545 680 Q590 636 590 552 Q590 474 558 409.5 Q526 345 466.5 307.5 Q407 270 329 270 L154 270 L101 0 L45 0 L186 724 L242 724 L416 724 Z M337 321 Q397 321 441.5 353 Q486 385 509 437.5 Q532 490 532 551 Q532 673 407 673 L232 673 L164 321 L337 321 Z " />
<glyph glyph-name="Thorn" unicode="&#xde;" horiz-adv-x="591" d="M386 593 Q470 593 515.5 548.5 Q561 504 561 421 Q561 344 529 281.5 Q497 219 438 183 Q379 147 301 147 L129 147 L101 0 L45 0 L186 724 L242 724 L216 593 L386 593 Z M309 198 Q369 198 413 228.5 Q457 259 479.5 309.5 Q502 360 502 420 Q502 542 377 542 L206 542 L139 198 L309 198 Z " />
<glyph glyph-name="Q" unicode="Q" horiz-adv-x="677" d="M648 495 Q648 345 597.5 220 Q547 95 452 34 L549 -113 L504 -147 L405 10 Q352 -12 286 -12 Q182 -12 125 50.5 Q68 113 68 229 Q68 363 108.5 478.5 Q149 594 230.5 665 Q312 736 429 736 Q534 736 591 673.5 Q648 611 648 495 Z M127 234 Q127 137 169 87.5 Q211 38 293 38 Q389 38 455.5 103 Q522 168 555.5 271.5 Q589 375 589 489 Q589 587 547 636.5 Q505 686 422 686 Q327 686 260 621 Q193 556 160 452.5 Q127 349 127 234 Z " />
<glyph glyph-name="R" unicode="R" horiz-adv-x="600" d="M581 562 Q581 456 525.5 383 Q470 310 375 294 L506 0 L442 0 L317 290 L158 290 L101 0 L45 0 L186 724 L242 724 L407 724 Q490 724 535.5 681 Q581 638 581 562 Z M168 341 L333 341 Q392 341 435 370 Q478 399 500.5 448.5 Q523 498 523 558 Q523 615 491.5 644 Q460 673 398 673 L232 673 L168 341 Z " />
<glyph glyph-name="Racute" unicode="&#x154;" horiz-adv-x="600" d="M596 926 L595 916 L397 781 L343 781 L344 791 L522 926 L596 926 Z M581 562 Q581 456 525.5 383 Q470 310 375 294 L506 0 L442 0 L317 290 L158 290 L101 0 L45 0 L186 724 L242 724 L407 724 Q490 724 535.5 681 Q581 638 581 562 Z M333 341 Q392 341 435 370 Q478 399 500.5 448.5 Q523 498 523 558 Q523 615 491.5 644 Q460 673 398 673 L232 673 L168 341 L333 341 Z " />
<glyph glyph-name="Rcaron" unicode="&#x158;" horiz-adv-x="600" d="M370 781 L282 916 L283 926 L328 926 L407 822 L526 926 L573 926 L572 916 L430 781 L370 781 Z M581 562 Q581 456 525.5 383 Q470 310 375 294 L506 0 L442 0 L317 290 L158 290 L101 0 L45 0 L186 724 L242 724 L407 724 Q490 724 535.5 681 Q581 638 581 562 Z M168 341 L333 341 Q392 341 435 370 Q478 399 500.5 448.5 Q523 498 523 558 Q523 615 491.5 644 Q460 673 398 673 L232 673 L168 341 Z " />
<glyph glyph-name="Rcommaaccent" unicode="&#x156;" horiz-adv-x="600" d="M581 562 Q581 456 525.5 383 Q470 310 375 294 L506 0 L442 0 L317 290 L158 290 L101 0 L45 0 L186 724 L242 724 L407 724 Q490 724 535.5 681 Q581 638 581 562 Z M168 341 L333 341 Q392 341 435 370 Q478 399 500.5 448.5 Q523 498 523 558 Q523 615 491.5 644 Q460 673 398 673 L232 673 L168 341 Z M142 -243 Q175 -214 191.5 -186.5 Q208 -159 217 -116 Q219 -102 221 -84 L275 -88 Q275 -94 271 -124 Q262 -168 237 -202.5 Q212 -237 163 -271 L142 -243 Z " />
<glyph glyph-name="uni1E5A" unicode="&#x1e5a;" horiz-adv-x="600" d="M581 562 Q581 456 525.5 383 Q470 310 375 294 L506 0 L442 0 L317 290 L158 290 L101 0 L45 0 L186 724 L242 724 L407 724 Q490 724 535.5 681 Q581 638 581 562 Z M168 341 L333 341 Q392 341 435 370 Q478 399 500.5 448.5 Q523 498 523 558 Q523 615 491.5 644 Q460 673 398 673 L232 673 L168 341 Z M232 -194 Q215 -194 205 -184 Q195 -174 195 -156 Q195 -134 207.5 -119.5 Q220 -105 241 -105 Q259 -105 268.5 -115 Q278 -125 278 -143 Q278 -165 265.5 -179.5 Q253 -194 232 -194 Z " />
<glyph glyph-name="uni1E5C" unicode="&#x1e5c;" horiz-adv-x="600" d="M537 818 L276 818 L284 863 L546 863 L537 818 Z M581 562 Q581 456 525.5 383 Q470 310 375 294 L506 0 L442 0 L317 290 L158 290 L101 0 L45 0 L186 724 L242 724 L407 724 Q490 724 535.5 681 Q581 638 581 562 Z M168 341 L333 341 Q392 341 435 370 Q478 399 500.5 448.5 Q523 498 523 558 Q523 615 491.5 644 Q460 673 398 673 L232 673 L168 341 Z M241 -105 Q259 -105 268.5 -115 Q278 -125 278 -143 Q278 -165 265.5 -179.5 Q253 -194 232 -194 Q215 -194 205 -184 Q195 -174 195 -156 Q195 -134 207.5 -119.5 Q220 -105 241 -105 Z " />
<glyph glyph-name="uni1E5E" unicode="&#x1e5e;" horiz-adv-x="600" d="M581 562 Q581 456 525.5 383 Q470 310 375 294 L506 0 L442 0 L317 290 L158 290 L101 0 L45 0 L186 724 L242 724 L407 724 Q490 724 535.5 681 Q581 638 581 562 Z M168 341 L333 341 Q392 341 435 370 Q478 399 500.5 448.5 Q523 498 523 558 Q523 615 491.5 644 Q460 673 398 673 L232 673 L168 341 Z M112 -114 L374 -114 L365 -159 L103 -159 L112 -114 Z " />
<glyph glyph-name="S" unicode="S" horiz-adv-x="531" d="M207 -11 Q151 -11 97.5 4 Q44 19 4 46 L30 92 Q110 40 210 40 Q270 40 315 62 Q360 84 385 123.5 Q410 163 410 214 Q410 259 387 286 Q364 313 313 327 L234 350 Q166 370 133 408.5 Q100 447 100 507 Q100 574 132 625.5 Q164 677 220.5 706 Q277 735 350 735 Q398 735 447.5 723 Q497 711 538 691 L512 645 Q425 684 345 684 Q289 684 246.5 663 Q204 642 180.5 604 Q157 566 157 518 Q157 475 181 447.5 Q205 420 255 406 L333 383 Q402 363 435 324.5 Q468 286 468 225 Q468 156 434.5 102.5 Q401 49 342 19 Q283 -11 207 -11 Z " />
<glyph glyph-name="Sacute" unicode="&#x15a;" horiz-adv-x="531" d="M301 791 L479 926 L553 926 L552 916 L354 781 L300 781 L301 791 Z M207 -11 Q151 -11 97.5 4 Q44 19 4 46 L30 92 Q110 40 210 40 Q270 40 315 62 Q360 84 385 123.5 Q410 163 410 214 Q410 259 387 286 Q364 313 313 327 L234 350 Q166 370 133 408.5 Q100 447 100 507 Q100 574 132 625.5 Q164 677 220.5 706 Q277 735 350 735 Q398 735 447.5 723 Q497 711 538 691 L512 645 Q425 684 345 684 Q289 684 246.5 663 Q204 642 180.5 604 Q157 566 157 518 Q157 475 181 447.5 Q205 420 255 406 L333 383 Q402 363 435 324.5 Q468 286 468 225 Q468 156 434.5 102.5 Q401 49 342 19 Q283 -11 207 -11 Z " />
<glyph glyph-name="Scaron" unicode="&#x160;" horiz-adv-x="531" d="M327 781 L239 916 L240 926 L285 926 L364 822 L483 926 L530 926 L529 916 L387 781 L327 781 Z M345 684 Q289 684 246.5 663 Q204 642 180.5 604 Q157 566 157 518 Q157 475 181 447.5 Q205 420 255 406 L333 383 Q402 363 435 324.5 Q468 286 468 225 Q468 156 434.5 102.5 Q401 49 342 19 Q283 -11 207 -11 Q151 -11 97.5 4 Q44 19 4 46 L30 92 Q110 40 210 40 Q270 40 315 62 Q360 84 385 123.5 Q410 163 410 214 Q410 259 387 286 Q364 313 313 327 L234 350 Q166 370 133 408.5 Q100 447 100 507 Q100 574 132 625.5 Q164 677 220.5 706 Q277 735 350 735 Q398 735 447.5 723 Q497 711 538 691 L512 645 Q425 684 345 684 Z " />
<glyph glyph-name="Scedilla" unicode="&#x15e;" horiz-adv-x="531" d="M345 684 Q289 684 246.5 663 Q204 642 180.5 604 Q157 566 157 518 Q157 475 181 447.5 Q205 420 255 406 L333 383 Q402 363 435 324.5 Q468 286 468 225 Q468 160 438.5 108.5 Q409 57 356 26 Q303 -5 234 -10 L192 -66 Q206 -64 213 -64 Q251 -64 272 -82 Q293 -100 293 -131 Q293 -175 260.5 -201 Q228 -227 176 -227 Q151 -227 127.5 -220.5 Q104 -214 88 -203 L103 -171 Q139 -189 174 -189 Q207 -189 226.5 -172.5 Q246 -156 246 -130 Q246 -98 206 -98 Q180 -98 158 -108 L143 -90 L190 -11 Q138 -9 89.5 6 Q41 21 4 46 L30 92 Q110 40 210 40 Q270 40 315 62 Q360 84 385 123.5 Q410 163 410 214 Q410 259 387 286 Q364 313 313 327 L234 350 Q166 370 133 408.5 Q100 447 100 507 Q100 574 132 625.5 Q164 677 220.5 706 Q277 735 350 735 Q398 735 447.5 723 Q497 711 538 691 L512 645 Q425 684 345 684 Z " />
<glyph glyph-name="Scircumflex" unicode="&#x15c;" horiz-adv-x="531" d="M258 781 L211 781 L212 791 L354 926 L414 926 L502 791 L501 781 L456 781 L377 885 L258 781 Z M345 684 Q289 684 246.5 663 Q204 642 180.5 604 Q157 566 157 518 Q157 475 181 447.5 Q205 420 255 406 L333 383 Q402 363 435 324.5 Q468 286 468 225 Q468 156 434.5 102.5 Q401 49 342 19 Q283 -11 207 -11 Q151 -11 97.5 4 Q44 19 4 46 L30 92 Q110 40 210 40 Q270 40 315 62 Q360 84 385 123.5 Q410 163 410 214 Q410 259 387 286 Q364 313 313 327 L234 350 Q166 370 133 408.5 Q100 447 100 507 Q100 574 132 625.5 Q164 677 220.5 706 Q277 735 350 735 Q398 735 447.5 723 Q497 711 538 691 L512 645 Q425 684 345 684 Z " />
<glyph glyph-name="Scommaaccent" unicode="&#x218;" horiz-adv-x="531" d="M207 -11 Q151 -11 97.5 4 Q44 19 4 46 L30 92 Q110 40 210 40 Q270 40 315 62 Q360 84 385 123.5 Q410 163 410 214 Q410 259 387 286 Q364 313 313 327 L234 350 Q166 370 133 408.5 Q100 447 100 507 Q100 574 132 625.5 Q164 677 220.5 706 Q277 735 350 735 Q398 735 447.5 723 Q497 711 538 691 L512 645 Q425 684 345 684 Q289 684 246.5 663 Q204 642 180.5 604 Q157 566 157 518 Q157 475 181 447.5 Q205 420 255 406 L333 383 Q402 363 435 324.5 Q468 286 468 225 Q468 156 434.5 102.5 Q401 49 342 19 Q283 -11 207 -11 Z M96 -243 Q129 -214 145.5 -186.5 Q162 -159 171 -116 Q173 -102 175 -84 L229 -88 Q229 -94 225 -124 Q216 -168 191 -202.5 Q166 -237 117 -271 L96 -243 Z " />
<glyph glyph-name="uni1E60" unicode="&#x1e60;" horiz-adv-x="531" d="M364 806 Q347 806 337 816 Q327 826 327 844 Q327 866 340 880 Q353 894 374 894 Q392 894 401.5 884.5 Q411 875 411 856 Q411 834 398 820 Q385 806 364 806 Z M207 -11 Q151 -11 97.5 4 Q44 19 4 46 L30 92 Q110 40 210 40 Q270 40 315 62 Q360 84 385 123.5 Q410 163 410 214 Q410 259 387 286 Q364 313 313 327 L234 350 Q166 370 133 408.5 Q100 447 100 507 Q100 574 132 625.5 Q164 677 220.5 706 Q277 735 350 735 Q398 735 447.5 723 Q497 711 538 691 L512 645 Q425 684 345 684 Q289 684 246.5 663 Q204 642 180.5 604 Q157 566 157 518 Q157 475 181 447.5 Q205 420 255 406 L333 383 Q402 363 435 324.5 Q468 286 468 225 Q468 156 434.5 102.5 Q401 49 342 19 Q283 -11 207 -11 Z " />
<glyph glyph-name="uni1E62" unicode="&#x1e62;" horiz-adv-x="531" d="M207 -11 Q151 -11 97.5 4 Q44 19 4 46 L30 92 Q110 40 210 40 Q270 40 315 62 Q360 84 385 123.5 Q410 163 410 214 Q410 259 387 286 Q364 313 313 327 L234 350 Q166 370 133 408.5 Q100 447 100 507 Q100 574 132 625.5 Q164 677 220.5 706 Q277 735 350 735 Q398 735 447.5 723 Q497 711 538 691 L512 645 Q425 684 345 684 Q289 684 246.5 663 Q204 642 180.5 604 Q157 566 157 518 Q157 475 181 447.5 Q205 420 255 406 L333 383 Q402 363 435 324.5 Q468 286 468 225 Q468 156 434.5 102.5 Q401 49 342 19 Q283 -11 207 -11 Z M186 -194 Q169 -194 159 -184 Q149 -174 149 -156 Q149 -134 161.5 -119.5 Q174 -105 195 -105 Q213 -105 222.5 -115 Q232 -125 232 -143 Q232 -165 219.5 -179.5 Q207 -194 186 -194 Z " />
<glyph glyph-name="uni1E9E" unicode="&#x1e9e;" horiz-adv-x="638" d="M383 389 Q481 376 531.5 331.5 Q582 287 582 208 Q582 144 549 95.5 Q516 47 457 20.5 Q398 -6 322 -6 Q247 -6 184 15 L203 64 Q268 44 326 44 Q416 44 470.5 88.5 Q525 133 525 205 Q525 274 470 309.5 Q415 345 303 351 L308 400 Q399 437 453.5 490 Q508 543 508 607 Q508 693 395 693 Q313 693 262 649.5 Q211 606 196 526 L93 0 L37 0 L140 530 Q160 633 227.5 688 Q295 743 399 743 Q479 743 521.5 710 Q564 677 564 613 Q564 543 514 484.5 Q464 426 383 389 Z " />
<glyph glyph-name="uni018F" unicode="&#x18f;" horiz-adv-x="660" d="M387 735 Q504 735 565.5 669 Q627 603 627 473 Q627 351 585 239.5 Q543 128 462.5 58.5 Q382 -11 274 -11 Q171 -11 114 52.5 Q57 116 57 233 Q57 270 63 309.5 Q69 349 79 382 L563 380 Q569 424 569 465 Q569 572 522 626 Q475 680 383 680 Q289 680 187 626 L169 674 Q216 704 273 719.5 Q330 735 387 735 Z M278 41 Q383 41 454.5 123.5 Q526 206 554 330 L125 330 Q113 275 113 228 Q113 138 156 89.5 Q199 41 278 41 Z " />
<glyph glyph-name="T" unicode="T" horiz-adv-x="497" d="M545 673 L356 673 L225 0 L169 0 L300 673 L111 673 L121 724 L366 724 L555 724 L545 673 Z " />
<glyph glyph-name="Tcaron" unicode="&#x164;" horiz-adv-x="497" d="M320 781 L232 916 L233 926 L278 926 L357 822 L476 926 L523 926 L522 916 L380 781 L320 781 Z M545 673 L356 673 L225 0 L169 0 L300 673 L111 673 L121 724 L366 724 L555 724 L545 673 Z " />
<glyph glyph-name="uni0162" unicode="&#x162;" horiz-adv-x="497" d="M356 673 L227 9 L225 0 L220 0 L170 -66 Q184 -64 191 -64 Q229 -64 250 -82 Q271 -100 271 -131 Q271 -175 238.5 -201 Q206 -227 154 -227 Q129 -227 105.5 -220.5 Q82 -214 66 -203 L81 -171 Q117 -189 152 -189 Q185 -189 204.5 -172.5 Q224 -156 224 -130 Q224 -98 184 -98 Q158 -98 136 -108 L121 -90 L174 0 L169 0 L300 673 L111 673 L121 724 L366 724 L555 724 L545 673 L356 673 Z " />
<glyph glyph-name="uni021A" unicode="&#x21a;" horiz-adv-x="497" d="M545 673 L356 673 L225 0 L169 0 L300 673 L111 673 L121 724 L366 724 L555 724 L545 673 Z M74 -243 Q107 -214 123.5 -186.5 Q140 -159 149 -116 Q151 -102 153 -84 L207 -88 Q207 -94 203 -124 Q194 -168 169 -202.5 Q144 -237 95 -271 L74 -243 Z " />
<glyph glyph-name="uni1E6C" unicode="&#x1e6c;" horiz-adv-x="497" d="M545 673 L356 673 L225 0 L169 0 L300 673 L111 673 L121 724 L366 724 L555 724 L545 673 Z M164 -194 Q147 -194 137 -184 Q127 -174 127 -156 Q127 -134 139.5 -119.5 Q152 -105 173 -105 Q191 -105 200.5 -115 Q210 -125 210 -143 Q210 -165 197.5 -179.5 Q185 -194 164 -194 Z " />
<glyph glyph-name="uni1E6E" unicode="&#x1e6e;" horiz-adv-x="497" d="M545 673 L356 673 L225 0 L169 0 L300 673 L111 673 L121 724 L366 724 L555 724 L545 673 Z M44 -114 L306 -114 L297 -159 L35 -159 L44 -114 Z " />
<glyph glyph-name="U" unicode="U" horiz-adv-x="643" d="M276 -12 Q180 -12 128.5 37.5 Q77 87 77 178 Q77 214 84 250 L176 724 L233 724 L140 247 Q133 213 133 180 Q133 110 170 74 Q207 38 278 38 Q366 38 421.5 92.5 Q477 147 497 251 L589 724 L646 724 L552 246 Q528 122 456.5 55 Q385 -12 276 -12 Z " />
<glyph glyph-name="Uacute" unicode="&#xda;" horiz-adv-x="643" d="M366 791 L544 926 L618 926 L617 916 L419 781 L365 781 L366 791 Z M276 -12 Q180 -12 128.5 37.5 Q77 87 77 178 Q77 214 84 250 L176 724 L233 724 L140 247 Q133 213 133 180 Q133 110 170 74 Q207 38 278 38 Q366 38 421.5 92.5 Q477 147 497 251 L589 724 L646 724 L552 246 Q528 122 456.5 55 Q385 -12 276 -12 Z " />
<glyph glyph-name="Ubreve" unicode="&#x16c;" horiz-adv-x="643" d="M427 793 Q377 793 348 821 Q319 849 319 899 Q319 918 321 928 L361 925 Q357 839 430 839 Q470 839 498 861.5 Q526 884 540 928 L578 925 Q563 861 523.5 827 Q484 793 427 793 Z M276 -12 Q180 -12 128.5 37.5 Q77 87 77 178 Q77 214 84 250 L176 724 L233 724 L140 247 Q133 213 133 180 Q133 110 170 74 Q207 38 278 38 Q366 38 421.5 92.5 Q477 147 497 251 L589 724 L646 724 L552 246 Q528 122 456.5 55 Q385 -12 276 -12 Z " />
<glyph glyph-name="uni01D3" unicode="&#x1d3;" horiz-adv-x="643" d="M392 781 L304 916 L305 926 L350 926 L429 822 L548 926 L595 926 L594 916 L452 781 L392 781 Z M646 724 L552 246 Q528 122 456.5 55 Q385 -12 276 -12 Q180 -12 128.5 37.5 Q77 87 77 178 Q77 214 84 250 L176 724 L233 724 L140 247 Q133 213 133 180 Q133 110 170 74 Q207 38 278 38 Q366 38 421.5 92.5 Q477 147 497 251 L589 724 L646 724 Z " />
<glyph glyph-name="Ucircumflex" unicode="&#xdb;" horiz-adv-x="643" d="M323 781 L276 781 L277 791 L419 926 L479 926 L567 791 L566 781 L521 781 L442 885 L323 781 Z M646 724 L552 246 Q528 122 456.5 55 Q385 -12 276 -12 Q180 -12 128.5 37.5 Q77 87 77 178 Q77 214 84 250 L176 724 L233 724 L140 247 Q133 213 133 180 Q133 110 170 74 Q207 38 278 38 Q366 38 421.5 92.5 Q477 147 497 251 L589 724 L646 724 Z " />
<glyph glyph-name="Udieresis" unicode="&#xdc;" horiz-adv-x="643" d="M341 806 Q324 806 315 815.5 Q306 825 306 843 Q306 864 318 877.5 Q330 891 350 891 Q367 891 376 881.5 Q385 872 385 854 Q385 833 373 819.5 Q361 806 341 806 Z M520 806 Q503 806 494 815.5 Q485 825 485 843 Q485 864 497 877.5 Q509 891 529 891 Q546 891 555 881.5 Q564 872 564 854 Q564 833 552 819.5 Q540 806 520 806 Z M276 -12 Q180 -12 128.5 37.5 Q77 87 77 178 Q77 214 84 250 L176 724 L233 724 L140 247 Q133 213 133 180 Q133 110 170 74 Q207 38 278 38 Q366 38 421.5 92.5 Q477 147 497 251 L589 724 L646 724 L552 246 Q528 122 456.5 55 Q385 -12 276 -12 Z " />
<glyph glyph-name="uni01D7" unicode="&#x1d7;" horiz-adv-x="643" d="M421 911 L527 1040 L582 1040 L581 1032 L461 903 L420 903 L421 911 Z M339 784 Q323 784 314 793 Q305 802 305 820 Q305 840 317 853.5 Q329 867 348 867 Q364 867 373 857.5 Q382 848 382 831 Q382 810 370.5 797 Q359 784 339 784 Z M512 784 Q496 784 487 793 Q478 802 478 820 Q478 840 490 853.5 Q502 867 521 867 Q537 867 546 857.5 Q555 848 555 831 Q555 810 543.5 797 Q532 784 512 784 Z M276 -12 Q180 -12 128.5 37.5 Q77 87 77 178 Q77 214 84 250 L176 724 L233 724 L140 247 Q133 213 133 180 Q133 110 170 74 Q207 38 278 38 Q366 38 421.5 92.5 Q477 147 497 251 L589 724 L646 724 L552 246 Q528 122 456.5 55 Q385 -12 276 -12 Z " />
<glyph glyph-name="uni01D9" unicode="&#x1d9;" horiz-adv-x="643" d="M418 904 L341 1036 L343 1044 L384 1044 L453 943 L561 1044 L605 1044 L603 1036 L474 904 L418 904 Z M339 784 Q323 784 314 793 Q305 802 305 820 Q305 840 317 853.5 Q329 867 348 867 Q364 867 373 857.5 Q382 848 382 831 Q382 810 370.5 797 Q359 784 339 784 Z M478 820 Q478 840 490 853.5 Q502 867 521 867 Q537 867 546 857.5 Q555 848 555 831 Q555 810 543.5 797 Q532 784 512 784 Q496 784 487 793 Q478 802 478 820 Z M646 724 L552 246 Q528 122 456.5 55 Q385 -12 276 -12 Q180 -12 128.5 37.5 Q77 87 77 178 Q77 214 84 250 L176 724 L233 724 L140 247 Q133 213 133 180 Q133 110 170 74 Q207 38 278 38 Q366 38 421.5 92.5 Q477 147 497 251 L589 724 L646 724 Z " />
<glyph glyph-name="uni01DB" unicode="&#x1db;" horiz-adv-x="643" d="M367 1032 L368 1040 L419 1040 L469 911 L468 903 L432 903 L367 1032 Z M339 784 Q323 784 314 793 Q305 802 305 820 Q305 840 317 853.5 Q329 867 348 867 Q364 867 373 857.5 Q382 848 382 831 Q382 810 370.5 797 Q359 784 339 784 Z M512 784 Q496 784 487 793 Q478 802 478 820 Q478 840 490 853.5 Q502 867 521 867 Q537 867 546 857.5 Q555 848 555 831 Q555 810 543.5 797 Q532 784 512 784 Z M276 -12 Q180 -12 128.5 37.5 Q77 87 77 178 Q77 214 84 250 L176 724 L233 724 L140 247 Q133 213 133 180 Q133 110 170 74 Q207 38 278 38 Q366 38 421.5 92.5 Q477 147 497 251 L589 724 L646 724 L552 246 Q528 122 456.5 55 Q385 -12 276 -12 Z " />
<glyph glyph-name="uni01D5" unicode="&#x1d5;" horiz-adv-x="643" d="M329 977 L590 977 L583 936 L321 936 L329 977 Z M339 784 Q323 784 314 793 Q305 802 305 820 Q305 840 317 853.5 Q329 867 348 867 Q364 867 373 857.5 Q382 848 382 831 Q382 810 370.5 797 Q359 784 339 784 Z M512 784 Q496 784 487 793 Q478 802 478 820 Q478 840 490 853.5 Q502 867 521 867 Q537 867 546 857.5 Q555 848 555 831 Q555 810 543.5 797 Q532 784 512 784 Z M276 -12 Q180 -12 128.5 37.5 Q77 87 77 178 Q77 214 84 250 L176 724 L233 724 L140 247 Q133 213 133 180 Q133 110 170 74 Q207 38 278 38 Q366 38 421.5 92.5 Q477 147 497 251 L589 724 L646 724 L552 246 Q528 122 456.5 55 Q385 -12 276 -12 Z " />
<glyph glyph-name="uni1EE4" unicode="&#x1ee4;" horiz-adv-x="643" d="M276 -12 Q180 -12 128.5 37.5 Q77 87 77 178 Q77 214 84 250 L176 724 L233 724 L140 247 Q133 213 133 180 Q133 110 170 74 Q207 38 278 38 Q366 38 421.5 92.5 Q477 147 497 251 L589 724 L646 724 L552 246 Q528 122 456.5 55 Q385 -12 276 -12 Z M236 -194 Q219 -194 209 -184 Q199 -174 199 -156 Q199 -134 211.5 -119.5 Q224 -105 245 -105 Q263 -105 272.5 -115 Q282 -125 282 -143 Q282 -165 269.5 -179.5 Q257 -194 236 -194 Z " />
<glyph glyph-name="Ugrave" unicode="&#xd9;" horiz-adv-x="643" d="M289 916 L290 926 L357 926 L474 791 L473 781 L426 781 L289 916 Z M276 -12 Q180 -12 128.5 37.5 Q77 87 77 178 Q77 214 84 250 L176 724 L233 724 L140 247 Q133 213 133 180 Q133 110 170 74 Q207 38 278 38 Q366 38 421.5 92.5 Q477 147 497 251 L589 724 L646 724 L552 246 Q528 122 456.5 55 Q385 -12 276 -12 Z " />
<glyph glyph-name="uni1EE6" unicode="&#x1ee6;" horiz-adv-x="643" d="M397 782 Q397 792 398 799 Q400 821 412.5 831.5 Q425 842 447 852 Q463 859 470.5 864.5 Q478 870 478 881 Q478 899 450 899 Q417 899 379 877 L365 913 Q408 940 458 940 Q527 940 527 884 Q527 859 514.5 847 Q502 835 479 825 Q463 819 453.5 811.5 Q444 804 443 791 Q442 788 442 779 L397 782 Z M276 -12 Q180 -12 128.5 37.5 Q77 87 77 178 Q77 214 84 250 L176 724 L233 724 L140 247 Q133 213 133 180 Q133 110 170 74 Q207 38 278 38 Q366 38 421.5 92.5 Q477 147 497 251 L589 724 L646 724 L552 246 Q528 122 456.5 55 Q385 -12 276 -12 Z " />
<glyph glyph-name="Uhorn" unicode="&#x1af;" horiz-adv-x="643" d="M781 862 Q781 831 775 799 Q764 744 732.5 717.5 Q701 691 638 686 L552 246 Q528 122 456.5 55 Q385 -12 276 -12 Q180 -12 128.5 37.5 Q77 87 77 178 Q77 214 84 250 L176 724 L233 724 L140 247 Q133 213 133 180 Q133 110 170 74 Q207 38 278 38 Q366 38 421.5 92.5 Q477 147 497 251 L589 724 L608 724 Q663 724 689 742.5 Q715 761 724 807 Q729 825 730 865 L781 862 Z " />
<glyph glyph-name="uni1EE8" unicode="&#x1ee8;" horiz-adv-x="643" d="M419 781 L365 781 L366 791 L544 926 L618 926 L617 916 L419 781 Z M781 862 Q781 831 775 799 Q764 744 732.5 717.5 Q701 691 638 686 L552 246 Q528 122 456.5 55 Q385 -12 276 -12 Q180 -12 128.5 37.5 Q77 87 77 178 Q77 214 84 250 L176 724 L233 724 L140 247 Q133 213 133 180 Q133 110 170 74 Q207 38 278 38 Q366 38 421.5 92.5 Q477 147 497 251 L589 724 L608 724 Q663 724 689 742.5 Q715 761 724 807 Q729 825 730 865 L781 862 Z " />
<glyph glyph-name="uni1EF0" unicode="&#x1ef0;" horiz-adv-x="643" d="M781 862 Q781 831 775 799 Q764 744 732.5 717.5 Q701 691 638 686 L552 246 Q528 122 456.5 55 Q385 -12 276 -12 Q180 -12 128.5 37.5 Q77 87 77 178 Q77 214 84 250 L176 724 L233 724 L140 247 Q133 213 133 180 Q133 110 170 74 Q207 38 278 38 Q366 38 421.5 92.5 Q477 147 497 251 L589 724 L608 724 Q663 724 689 742.5 Q715 761 724 807 Q729 825 730 865 L781 862 Z M236 -194 Q219 -194 209 -184 Q199 -174 199 -156 Q199 -134 211.5 -119.5 Q224 -105 245 -105 Q263 -105 272.5 -115 Q282 -125 282 -143 Q282 -165 269.5 -179.5 Q257 -194 236 -194 Z " />
<glyph glyph-name="uni1EEA" unicode="&#x1eea;" horiz-adv-x="643" d="M426 781 L289 916 L290 926 L357 926 L474 791 L473 781 L426 781 Z M781 862 Q781 831 775 799 Q764 744 732.5 717.5 Q701 691 638 686 L552 246 Q528 122 456.5 55 Q385 -12 276 -12 Q180 -12 128.5 37.5 Q77 87 77 178 Q77 214 84 250 L176 724 L233 724 L140 247 Q133 213 133 180 Q133 110 170 74 Q207 38 278 38 Q366 38 421.5 92.5 Q477 147 497 251 L589 724 L608 724 Q663 724 689 742.5 Q715 761 724 807 Q729 825 730 865 L781 862 Z " />
<glyph glyph-name="uni1EEC" unicode="&#x1eec;" horiz-adv-x="643" d="M450 899 Q417 899 379 877 L365 913 Q408 940 458 940 Q527 940 527 884 Q527 859 514.5 847 Q502 835 479 825 Q463 819 453.5 811.5 Q444 804 443 791 Q442 788 442 779 L397 782 Q397 792 398 799 Q400 821 412.5 831.5 Q425 842 447 852 Q463 859 470.5 864.5 Q478 870 478 881 Q478 899 450 899 Z M781 862 Q781 831 775 799 Q764 744 732.5 717.5 Q701 691 638 686 L552 246 Q528 122 456.5 55 Q385 -12 276 -12 Q180 -12 128.5 37.5 Q77 87 77 178 Q77 214 84 250 L176 724 L233 724 L140 247 Q133 213 133 180 Q133 110 170 74 Q207 38 278 38 Q366 38 421.5 92.5 Q477 147 497 251 L589 724 L608 724 Q663 724 689 742.5 Q715 761 724 807 Q729 825 730 865 L781 862 Z " />
<glyph glyph-name="uni1EEE" unicode="&#x1eee;" horiz-adv-x="643" d="M375 868 Q354 868 337.5 848 Q321 828 310 790 L273 794 Q285 851 312.5 882 Q340 913 377 913 Q404 913 419.5 901 Q435 889 451 867 Q462 851 471.5 843 Q481 835 494 835 Q515 835 532.5 855.5 Q550 876 560 913 L598 909 Q585 852 557.5 821 Q530 790 492 790 Q466 790 450.5 801.5 Q435 813 417 836 Q406 852 396.5 860 Q387 868 375 868 Z M781 862 Q781 831 775 799 Q764 744 732.5 717.5 Q701 691 638 686 L552 246 Q528 122 456.5 55 Q385 -12 276 -12 Q180 -12 128.5 37.5 Q77 87 77 178 Q77 214 84 250 L176 724 L233 724 L140 247 Q133 213 133 180 Q133 110 170 74 Q207 38 278 38 Q366 38 421.5 92.5 Q477 147 497 251 L589 724 L608 724 Q663 724 689 742.5 Q715 761 724 807 Q729 825 730 865 L781 862 Z " />
<glyph glyph-name="Uhungarumlaut" unicode="&#x170;" horiz-adv-x="643" d="M377 791 L506 926 L569 926 L580 926 L579 916 L431 781 L376 781 L377 791 Z M646 724 L552 246 Q528 122 456.5 55 Q385 -12 276 -12 Q180 -12 128.5 37.5 Q77 87 77 178 Q77 214 84 250 L176 724 L233 724 L140 247 Q133 213 133 180 Q133 110 170 74 Q207 38 278 38 Q366 38 421.5 92.5 Q477 147 497 251 L589 724 L646 724 Z " />
<glyph glyph-name="Umacron" unicode="&#x16a;" horiz-adv-x="643" d="M306 863 L568 863 L559 818 L298 818 L306 863 Z M276 -12 Q180 -12 128.5 37.5 Q77 87 77 178 Q77 214 84 250 L176 724 L233 724 L140 247 Q133 213 133 180 Q133 110 170 74 Q207 38 278 38 Q366 38 421.5 92.5 Q477 147 497 251 L589 724 L646 724 L552 246 Q528 122 456.5 55 Q385 -12 276 -12 Z " />
<glyph glyph-name="Uogonek" unicode="&#x172;" horiz-adv-x="651" d="M650 724 L556 246 Q529 100 426 31 L395 10 Q346 -22 317 -62.5 Q288 -103 288 -138 Q288 -173 328 -173 Q361 -173 398 -153 L410 -190 Q368 -217 319 -217 Q280 -217 258.5 -199 Q237 -181 237 -148 Q237 -115 258 -78.5 Q279 -42 316 -10 Q304 -12 280 -12 Q184 -12 132.5 37.5 Q81 87 81 178 Q81 214 88 250 L181 724 L237 724 L144 247 Q137 213 137 180 Q137 110 174 74 Q211 38 282 38 Q368 38 424.5 93 Q481 148 501 251 L593 724 L650 724 Z " />
<glyph glyph-name="Uring" unicode="&#x16e;" horiz-adv-x="643" d="M419 769 Q378 769 356 789 Q334 809 334 846 Q334 899 368 934 Q402 969 458 969 Q499 969 521 949 Q543 929 543 892 Q543 839 509 804 Q475 769 419 769 Z M424 805 Q461 805 480.5 828.5 Q500 852 500 885 Q500 910 488.5 921.5 Q477 933 453 933 Q416 933 396.5 909.5 Q377 886 377 853 Q377 828 388.5 816.5 Q400 805 424 805 Z M276 -12 Q180 -12 128.5 37.5 Q77 87 77 178 Q77 214 84 250 L176 724 L233 724 L140 247 Q133 213 133 180 Q133 110 170 74 Q207 38 278 38 Q366 38 421.5 92.5 Q477 147 497 251 L589 724 L646 724 L552 246 Q528 122 456.5 55 Q385 -12 276 -12 Z " />
<glyph glyph-name="Utilde" unicode="&#x168;" horiz-adv-x="643" d="M273 794 Q285 851 312.5 882 Q340 913 377 913 Q404 913 419.5 901 Q435 889 451 867 Q462 851 471.5 843 Q481 835 494 835 Q515 835 532.5 855.5 Q550 876 560 913 L598 909 Q585 852 557.5 821 Q530 790 492 790 Q466 790 450.5 801.5 Q435 813 417 836 Q406 852 396.5 860 Q387 868 375 868 Q354 868 337.5 848 Q321 828 310 790 L273 794 Z M276 -12 Q180 -12 128.5 37.5 Q77 87 77 178 Q77 214 84 250 L176 724 L233 724 L140 247 Q133 213 133 180 Q133 110 170 74 Q207 38 278 38 Q366 38 421.5 92.5 Q477 147 497 251 L589 724 L646 724 L552 246 Q528 122 456.5 55 Q385 -12 276 -12 Z " />
<glyph glyph-name="V" unicode="V" horiz-adv-x="602" d="M654 724 L282 0 L217 0 L127 724 L186 724 L261 66 L593 724 L654 724 Z " />
<glyph glyph-name="W" unicode="W" horiz-adv-x="856" d="M907 724 L587 0 L521 0 L500 637 L231 0 L165 0 L129 724 L186 724 L212 73 L484 723 L548 723 L566 70 L847 724 L907 724 Z " />
<glyph glyph-name="Wacute" unicode="&#x1e82;" horiz-adv-x="856" d="M526 781 L472 781 L473 791 L651 926 L725 926 L724 916 L526 781 Z M907 724 L587 0 L521 0 L500 637 L231 0 L165 0 L129 724 L186 724 L212 73 L484 723 L548 723 L566 70 L847 724 L907 724 Z " />
<glyph glyph-name="Wcircumflex" unicode="&#x174;" horiz-adv-x="856" d="M430 781 L383 781 L384 791 L526 926 L586 926 L674 791 L673 781 L628 781 L549 885 L430 781 Z M907 724 L587 0 L521 0 L500 637 L231 0 L165 0 L129 724 L186 724 L212 73 L484 723 L548 723 L566 70 L847 724 L907 724 Z " />
<glyph glyph-name="Wdieresis" unicode="&#x1e84;" horiz-adv-x="856" d="M448 806 Q431 806 422 815.5 Q413 825 413 843 Q413 864 425 877.5 Q437 891 457 891 Q474 891 483 881.5 Q492 872 492 854 Q492 833 480 819.5 Q468 806 448 806 Z M627 806 Q610 806 601 815.5 Q592 825 592 843 Q592 864 604 877.5 Q616 891 636 891 Q653 891 662 881.5 Q671 872 671 854 Q671 833 659 819.5 Q647 806 627 806 Z M907 724 L587 0 L521 0 L500 637 L231 0 L165 0 L129 724 L186 724 L212 73 L484 723 L548 723 L566 70 L847 724 L907 724 Z " />
<glyph glyph-name="Wgrave" unicode="&#x1e80;" horiz-adv-x="856" d="M533 781 L396 916 L397 926 L464 926 L581 791 L580 781 L533 781 Z M907 724 L587 0 L521 0 L500 637 L231 0 L165 0 L129 724 L186 724 L212 73 L484 723 L548 723 L566 70 L847 724 L907 724 Z " />
<glyph glyph-name="X" unicode="X" horiz-adv-x="573" d="M338 366 L489 0 L426 0 L298 321 L47 0 L-20 0 L274 367 L128 724 L191 724 L314 413 L563 724 L629 724 L338 366 Z " />
<glyph glyph-name="Y" unicode="Y" horiz-adv-x="558" d="M619 724 L307 263 L255 0 L199 0 L250 264 L119 724 L178 724 L288 326 L554 724 L619 724 Z " />
<glyph glyph-name="Yacute" unicode="&#xdd;" horiz-adv-x="558" d="M376 781 L322 781 L323 791 L501 926 L575 926 L574 916 L376 781 Z M619 724 L307 263 L255 0 L199 0 L250 264 L119 724 L178 724 L288 326 L554 724 L619 724 Z " />
<glyph glyph-name="Ycircumflex" unicode="&#x176;" horiz-adv-x="558" d="M280 781 L233 781 L234 791 L376 926 L436 926 L524 791 L523 781 L478 781 L399 885 L280 781 Z M619 724 L307 263 L255 0 L199 0 L250 264 L119 724 L178 724 L288 326 L554 724 L619 724 Z " />
<glyph glyph-name="Ydieresis" unicode="&#x178;" horiz-adv-x="558" d="M298 806 Q281 806 272 815.5 Q263 825 263 843 Q263 864 275 877.5 Q287 891 307 891 Q324 891 333 881.5 Q342 872 342 854 Q342 833 330 819.5 Q318 806 298 806 Z M477 806 Q460 806 451 815.5 Q442 825 442 843 Q442 864 454 877.5 Q466 891 486 891 Q503 891 512 881.5 Q521 872 521 854 Q521 833 509 819.5 Q497 806 477 806 Z M619 724 L307 263 L255 0 L199 0 L250 264 L119 724 L178 724 L288 326 L554 724 L619 724 Z " />
<glyph glyph-name="uni1E8E" unicode="&#x1e8e;" horiz-adv-x="558" d="M386 806 Q369 806 359 816 Q349 826 349 844 Q349 866 362 880 Q375 894 396 894 Q414 894 423.5 884.5 Q433 875 433 856 Q433 834 420 820 Q407 806 386 806 Z M619 724 L307 263 L255 0 L199 0 L250 264 L119 724 L178 724 L288 326 L554 724 L619 724 Z " />
<glyph glyph-name="uni1EF4" unicode="&#x1ef4;" horiz-adv-x="558" d="M619 724 L307 263 L255 0 L199 0 L250 264 L119 724 L178 724 L288 326 L554 724 L619 724 Z M193 -194 Q176 -194 166 -184 Q156 -174 156 -156 Q156 -134 168.5 -119.5 Q181 -105 202 -105 Q220 -105 229.5 -115 Q239 -125 239 -143 Q239 -165 226.5 -179.5 Q214 -194 193 -194 Z " />
<glyph glyph-name="Ygrave" unicode="&#x1ef2;" horiz-adv-x="558" d="M383 781 L246 916 L247 926 L314 926 L431 791 L430 781 L383 781 Z M619 724 L307 263 L255 0 L199 0 L250 264 L119 724 L178 724 L288 326 L554 724 L619 724 Z " />
<glyph glyph-name="uni1EF6" unicode="&#x1ef6;" horiz-adv-x="558" d="M407 899 Q374 899 336 877 L322 913 Q365 940 415 940 Q484 940 484 884 Q484 859 471.5 847 Q459 835 436 825 Q420 819 410.5 811.5 Q401 804 400 791 Q399 788 399 779 L354 782 Q354 792 355 799 Q357 821 369.5 831.5 Q382 842 404 852 Q420 859 427.5 864.5 Q435 870 435 881 Q435 899 407 899 Z M619 724 L307 263 L255 0 L199 0 L250 264 L119 724 L178 724 L288 326 L554 724 L619 724 Z " />
<glyph glyph-name="uni1EF8" unicode="&#x1ef8;" horiz-adv-x="558" d="M332 868 Q311 868 294.5 848 Q278 828 267 790 L230 794 Q242 851 269.5 882 Q297 913 334 913 Q361 913 376.5 901 Q392 889 408 867 Q419 851 428.5 843 Q438 835 451 835 Q472 835 489.5 855.5 Q507 876 517 913 L555 909 Q542 852 514.5 821 Q487 790 449 790 Q423 790 407.5 801.5 Q392 813 374 836 Q363 852 353.5 860 Q344 868 332 868 Z M619 724 L307 263 L255 0 L199 0 L250 264 L119 724 L178 724 L288 326 L554 724 L619 724 Z " />
<glyph glyph-name="Z" unicode="Z" horiz-adv-x="520" d="M550 674 L70 50 L433 50 L423 0 L-7 0 L2 51 L483 674 L135 674 L145 724 L559 724 L550 674 Z " />
<glyph glyph-name="Zacute" unicode="&#x179;" horiz-adv-x="520" d="M357 781 L303 781 L304 791 L482 926 L556 926 L555 916 L357 781 Z M550 674 L70 50 L433 50 L423 0 L-7 0 L2 51 L483 674 L135 674 L145 724 L559 724 L550 674 Z " />
<glyph glyph-name="Zcaron" unicode="&#x17d;" horiz-adv-x="520" d="M330 781 L242 916 L243 926 L288 926 L367 822 L486 926 L533 926 L532 916 L390 781 L330 781 Z M550 674 L70 50 L433 50 L423 0 L-7 0 L2 51 L483 674 L135 674 L145 724 L559 724 L550 674 Z " />
<glyph glyph-name="Zdotaccent" unicode="&#x17b;" horiz-adv-x="520" d="M367 806 Q350 806 340 816 Q330 826 330 844 Q330 866 343 880 Q356 894 377 894 Q395 894 404.5 884.5 Q414 875 414 856 Q414 834 401 820 Q388 806 367 806 Z M550 674 L70 50 L433 50 L423 0 L-7 0 L2 51 L483 674 L135 674 L145 724 L559 724 L550 674 Z " />
<glyph glyph-name="uni1E92" unicode="&#x1e92;" horiz-adv-x="520" d="M550 674 L70 50 L433 50 L423 0 L-7 0 L2 51 L483 674 L135 674 L145 724 L559 724 L550 674 Z M178 -194 Q161 -194 151 -184 Q141 -174 141 -156 Q141 -134 153.5 -119.5 Q166 -105 187 -105 Q205 -105 214.5 -115 Q224 -125 224 -143 Q224 -165 211.5 -179.5 Q199 -194 178 -194 Z " />
<glyph glyph-name="a" unicode="a" horiz-adv-x="540" d="M500 530 L396 0 L346 0 L359 70 Q286 -12 193 -12 Q121 -12 83.5 35 Q46 82 46 170 Q46 265 76 350.5 Q106 436 163.5 489.5 Q221 543 300 543 Q344 543 378.5 523.5 Q413 504 433 469 L445 530 L500 530 Z M423 421 Q404 455 371 473.5 Q338 492 298 492 Q236 492 191.5 444 Q147 396 124 322 Q101 248 101 172 Q101 40 207 40 Q249 40 287.5 60 Q326 80 365 122 L423 421 Z " />
<glyph glyph-name="aacute" unicode="&#xe1;" horiz-adv-x="540" d="M500 530 L396 0 L346 0 L359 70 Q286 -12 193 -12 Q121 -12 83.5 35 Q46 82 46 170 Q46 265 76 350.5 Q106 436 163.5 489.5 Q221 543 300 543 Q344 543 378.5 523.5 Q413 504 433 469 L445 530 L500 530 Z M423 421 Q404 455 371 473.5 Q338 492 298 492 Q236 492 191.5 444 Q147 396 124 322 Q101 248 101 172 Q101 40 207 40 Q249 40 287.5 60 Q326 80 365 122 L423 421 Z M297 623 L431 784 L498 784 L497 776 L342 615 L297 615 L297 623 Z " />
<glyph glyph-name="abreve" unicode="&#x103;" horiz-adv-x="540" d="M500 530 L396 0 L346 0 L359 70 Q286 -12 193 -12 Q121 -12 83.5 35 Q46 82 46 170 Q46 265 76 350.5 Q106 436 163.5 489.5 Q221 543 300 543 Q344 543 378.5 523.5 Q413 504 433 469 L445 530 L500 530 Z M423 421 Q404 455 371 473.5 Q338 492 298 492 Q236 492 191.5 444 Q147 396 124 322 Q101 248 101 172 Q101 40 207 40 Q249 40 287.5 60 Q326 80 365 122 L423 421 Z M346 623 Q295 623 266 651 Q237 679 237 730 Q237 738 239 758 L279 755 Q275 669 349 669 Q389 669 417 691.5 Q445 714 459 758 L497 755 Q482 692 442.5 657.5 Q403 623 346 623 Z " />
<glyph glyph-name="uni1EAF" unicode="&#x1eaf;" horiz-adv-x="540" d="M502 880 L501 872 L381 743 L340 743 L341 751 L447 880 L502 880 Z M346 623 Q295 623 266.5 650.5 Q238 678 238 726 Q238 733 240 751 L278 749 Q274 665 347 665 Q387 665 416 687 Q445 709 459 751 L495 749 Q480 688 441 655.5 Q402 623 346 623 Z M445 530 L500 530 L396 0 L346 0 L359 70 Q286 -12 193 -12 Q121 -12 83.5 35 Q46 82 46 170 Q46 265 76 350.5 Q106 436 163.5 489.5 Q221 543 300 543 Q344 543 378.5 523.5 Q413 504 433 469 L445 530 Z M423 421 Q404 455 371 473.5 Q338 492 298 492 Q236 492 191.5 444 Q147 396 124 322 Q101 248 101 172 Q101 40 207 40 Q249 40 287.5 60 Q326 80 365 122 L423 421 Z " />
<glyph glyph-name="uni1EB7" unicode="&#x1eb7;" horiz-adv-x="540" d="M500 530 L396 0 L346 0 L359 70 Q286 -12 193 -12 Q121 -12 83.5 35 Q46 82 46 170 Q46 265 76 350.5 Q106 436 163.5 489.5 Q221 543 300 543 Q344 543 378.5 523.5 Q413 504 433 469 L445 530 L500 530 Z M423 421 Q404 455 371 473.5 Q338 492 298 492 Q236 492 191.5 444 Q147 396 124 322 Q101 248 101 172 Q101 40 207 40 Q249 40 287.5 60 Q326 80 365 122 L423 421 Z M178 -194 Q161 -194 151 -184 Q141 -174 141 -156 Q141 -134 153.5 -119.5 Q166 -105 187 -105 Q205 -105 214.5 -115 Q224 -125 224 -143 Q224 -165 211.5 -179.5 Q199 -194 178 -194 Z M346 623 Q295 623 266 651 Q237 679 237 730 Q237 738 239 758 L279 755 Q275 669 349 669 Q389 669 417 691.5 Q445 714 459 758 L497 755 Q482 692 442.5 657.5 Q403 623 346 623 Z " />
<glyph glyph-name="uni1EB1" unicode="&#x1eb1;" horiz-adv-x="540" d="M352 743 L287 872 L288 880 L339 880 L389 751 L388 743 L352 743 Z M346 623 Q295 623 266.5 650.5 Q238 678 238 726 Q238 733 240 751 L278 749 Q274 665 347 665 Q387 665 416 687 Q445 709 459 751 L495 749 Q480 688 441 655.5 Q402 623 346 623 Z M500 530 L396 0 L346 0 L359 70 Q286 -12 193 -12 Q121 -12 83.5 35 Q46 82 46 170 Q46 265 76 350.5 Q106 436 163.5 489.5 Q221 543 300 543 Q344 543 378.5 523.5 Q413 504 433 469 L445 530 L500 530 Z M423 421 Q404 455 371 473.5 Q338 492 298 492 Q236 492 191.5 444 Q147 396 124 322 Q101 248 101 172 Q101 40 207 40 Q249 40 287.5 60 Q326 80 365 122 L423 421 Z " />
<glyph glyph-name="uni1EB3" unicode="&#x1eb3;" horiz-adv-x="540" d="M394 868 Q366 868 333 850 L320 884 Q359 906 402 906 Q433 906 449.5 892 Q466 878 466 852 Q466 827 454.5 815 Q443 803 421 792 Q404 783 396 775.5 Q388 768 387 755 Q386 751 386 743 L344 746 Q344 755 345 762 Q347 786 358.5 797 Q370 808 391 819 Q406 825 413 831.5 Q420 838 420 849 Q420 868 394 868 Z M346 623 Q295 623 266.5 650.5 Q238 678 238 726 Q238 733 240 751 L278 749 Q274 665 347 665 Q387 665 416 687 Q445 709 459 751 L495 749 Q480 688 441 655.5 Q402 623 346 623 Z M500 530 L396 0 L346 0 L359 70 Q286 -12 193 -12 Q121 -12 83.5 35 Q46 82 46 170 Q46 265 76 350.5 Q106 436 163.5 489.5 Q221 543 300 543 Q344 543 378.5 523.5 Q413 504 433 469 L445 530 L500 530 Z M423 421 Q404 455 371 473.5 Q338 492 298 492 Q236 492 191.5 444 Q147 396 124 322 Q101 248 101 172 Q101 40 207 40 Q249 40 287.5 60 Q326 80 365 122 L423 421 Z " />
<glyph glyph-name="uni1EB5" unicode="&#x1eb5;" horiz-adv-x="540" d="M336 862 Q295 862 276 793 L241 797 Q251 848 276.5 876 Q302 904 339 904 Q364 904 376.5 894 Q389 884 401 864 Q410 850 417.5 842.5 Q425 835 438 835 Q478 835 497 904 L532 900 Q522 849 496.5 821 Q471 793 434 793 Q409 793 396.5 803 Q384 813 372 833 Q364 848 356.5 855 Q349 862 336 862 Z M346 623 Q295 623 266.5 650.5 Q238 678 238 726 Q238 733 240 751 L278 749 Q274 665 347 665 Q387 665 416 687 Q445 709 459 751 L495 749 Q480 688 441 655.5 Q402 623 346 623 Z M445 530 L500 530 L396 0 L346 0 L359 70 Q286 -12 193 -12 Q121 -12 83.5 35 Q46 82 46 170 Q46 265 76 350.5 Q106 436 163.5 489.5 Q221 543 300 543 Q344 543 378.5 523.5 Q413 504 433 469 L445 530 Z M423 421 Q404 455 371 473.5 Q338 492 298 492 Q236 492 191.5 444 Q147 396 124 322 Q101 248 101 172 Q101 40 207 40 Q249 40 287.5 60 Q326 80 365 122 L423 421 Z " />
<glyph glyph-name="uni01CE" unicode="&#x1ce;" horiz-adv-x="540" d="M500 530 L396 0 L346 0 L359 70 Q286 -12 193 -12 Q121 -12 83.5 35 Q46 82 46 170 Q46 265 76 350.5 Q106 436 163.5 489.5 Q221 543 300 543 Q344 543 378.5 523.5 Q413 504 433 469 L445 530 L500 530 Z M423 421 Q404 455 371 473.5 Q338 492 298 492 Q236 492 191.5 444 Q147 396 124 322 Q101 248 101 172 Q101 40 207 40 Q249 40 287.5 60 Q326 80 365 122 L423 421 Z M502 784 L501 776 L369 615 L313 615 L243 776 L244 784 L286 784 L348 660 L458 784 L502 784 Z " />
<glyph glyph-name="acircumflex" unicode="&#xe2;" horiz-adv-x="540" d="M500 530 L396 0 L346 0 L359 70 Q286 -12 193 -12 Q121 -12 83.5 35 Q46 82 46 170 Q46 265 76 350.5 Q106 436 163.5 489.5 Q221 543 300 543 Q344 543 378.5 523.5 Q413 504 433 469 L445 530 L500 530 Z M423 421 Q404 455 371 473.5 Q338 492 298 492 Q236 492 191.5 444 Q147 396 124 322 Q101 248 101 172 Q101 40 207 40 Q249 40 287.5 60 Q326 80 365 122 L423 421 Z M470 623 L469 615 L428 615 L366 740 L255 615 L211 615 L212 623 L345 784 L401 784 L470 623 Z " />
<glyph glyph-name="uni1EA5" unicode="&#x1ea5;" horiz-adv-x="540" d="M623 857 L622 849 L502 720 L461 720 L462 728 L568 857 L623 857 Z M254 615 L210 615 L211 623 L341 764 L397 764 L473 623 L471 615 L430 615 L363 723 L254 615 Z M445 530 L500 530 L396 0 L346 0 L359 70 Q286 -12 193 -12 Q121 -12 83.5 35 Q46 82 46 170 Q46 265 76 350.5 Q106 436 163.5 489.5 Q221 543 300 543 Q344 543 378.5 523.5 Q413 504 433 469 L445 530 Z M423 421 Q404 455 371 473.5 Q338 492 298 492 Q236 492 191.5 444 Q147 396 124 322 Q101 248 101 172 Q101 40 207 40 Q249 40 287.5 60 Q326 80 365 122 L423 421 Z " />
<glyph glyph-name="uni1EAD" unicode="&#x1ead;" horiz-adv-x="540" d="M500 530 L396 0 L346 0 L359 70 Q286 -12 193 -12 Q121 -12 83.5 35 Q46 82 46 170 Q46 265 76 350.5 Q106 436 163.5 489.5 Q221 543 300 543 Q344 543 378.5 523.5 Q413 504 433 469 L445 530 L500 530 Z M423 421 Q404 455 371 473.5 Q338 492 298 492 Q236 492 191.5 444 Q147 396 124 322 Q101 248 101 172 Q101 40 207 40 Q249 40 287.5 60 Q326 80 365 122 L423 421 Z M178 -194 Q161 -194 151 -184 Q141 -174 141 -156 Q141 -134 153.5 -119.5 Q166 -105 187 -105 Q205 -105 214.5 -115 Q224 -125 224 -143 Q224 -165 211.5 -179.5 Q199 -194 178 -194 Z M470 623 L469 615 L428 615 L366 740 L255 615 L211 615 L212 623 L345 784 L401 784 L470 623 Z " />
<glyph glyph-name="uni1EA7" unicode="&#x1ea7;" horiz-adv-x="540" d="M222 720 L157 849 L158 857 L209 857 L259 728 L258 720 L222 720 Z M211 623 L341 764 L397 764 L473 623 L471 615 L430 615 L363 723 L254 615 L210 615 L211 623 Z M500 530 L396 0 L346 0 L359 70 Q286 -12 193 -12 Q121 -12 83.5 35 Q46 82 46 170 Q46 265 76 350.5 Q106 436 163.5 489.5 Q221 543 300 543 Q344 543 378.5 523.5 Q413 504 433 469 L445 530 L500 530 Z M423 421 Q404 455 371 473.5 Q338 492 298 492 Q236 492 191.5 444 Q147 396 124 322 Q101 248 101 172 Q101 40 207 40 Q249 40 287.5 60 Q326 80 365 122 L423 421 Z " />
<glyph glyph-name="uni1EA9" unicode="&#x1ea9;" horiz-adv-x="540" d="M523 882 Q554 882 570.5 868 Q587 854 587 828 Q587 803 575.5 791 Q564 779 542 768 Q525 759 517 751.5 Q509 744 508 731 Q507 727 507 719 L465 722 Q465 731 466 738 Q468 762 479.5 773 Q491 784 512 795 Q527 801 534 807.5 Q541 814 541 825 Q541 844 515 844 Q487 844 454 826 L441 860 Q480 882 523 882 Z M254 615 L210 615 L211 623 L341 764 L397 764 L473 623 L471 615 L430 615 L363 723 L254 615 Z M445 530 L500 530 L396 0 L346 0 L359 70 Q286 -12 193 -12 Q121 -12 83.5 35 Q46 82 46 170 Q46 265 76 350.5 Q106 436 163.5 489.5 Q221 543 300 543 Q344 543 378.5 523.5 Q413 504 433 469 L445 530 Z M423 421 Q404 455 371 473.5 Q338 492 298 492 Q236 492 191.5 444 Q147 396 124 322 Q101 248 101 172 Q101 40 207 40 Q249 40 287.5 60 Q326 80 365 122 L423 421 Z " />
<glyph glyph-name="uni1EAB" unicode="&#x1eab;" horiz-adv-x="540" d="M336 864 Q295 864 276 795 L241 799 Q251 850 276.5 878 Q302 906 339 906 Q364 906 376.5 896 Q389 886 401 866 Q410 852 417.5 844.5 Q425 837 438 837 Q478 837 497 906 L532 902 Q522 851 496.5 823 Q471 795 434 795 Q409 795 396.5 805 Q384 815 372 835 Q364 850 356.5 857 Q349 864 336 864 Z M254 615 L210 615 L211 623 L341 764 L397 764 L473 623 L471 615 L430 615 L363 723 L254 615 Z M445 530 L500 530 L396 0 L346 0 L359 70 Q286 -12 193 -12 Q121 -12 83.5 35 Q46 82 46 170 Q46 265 76 350.5 Q106 436 163.5 489.5 Q221 543 300 543 Q344 543 378.5 523.5 Q413 504 433 469 L445 530 Z M423 421 Q404 455 371 473.5 Q338 492 298 492 Q236 492 191.5 444 Q147 396 124 322 Q101 248 101 172 Q101 40 207 40 Q249 40 287.5 60 Q326 80 365 122 L423 421 Z " />
<glyph glyph-name="adieresis" unicode="&#xe4;" horiz-adv-x="540" d="M500 530 L396 0 L346 0 L359 70 Q286 -12 193 -12 Q121 -12 83.5 35 Q46 82 46 170 Q46 265 76 350.5 Q106 436 163.5 489.5 Q221 543 300 543 Q344 543 378.5 523.5 Q413 504 433 469 L445 530 L500 530 Z M423 421 Q404 455 371 473.5 Q338 492 298 492 Q236 492 191.5 444 Q147 396 124 322 Q101 248 101 172 Q101 40 207 40 Q249 40 287.5 60 Q326 80 365 122 L423 421 Z M262 636 Q245 636 236 645.5 Q227 655 227 673 Q227 694 239 707.5 Q251 721 271 721 Q288 721 297 711.5 Q306 702 306 684 Q306 663 294 649.5 Q282 636 262 636 Z M436 636 Q419 636 410 645.5 Q401 655 401 673 Q401 694 413 707.5 Q425 721 445 721 Q462 721 471 711.5 Q480 702 480 684 Q480 663 468 649.5 Q456 636 436 636 Z " />
<glyph glyph-name="uni1EA1" unicode="&#x1ea1;" horiz-adv-x="540" d="M500 530 L396 0 L346 0 L359 70 Q286 -12 193 -12 Q121 -12 83.5 35 Q46 82 46 170 Q46 265 76 350.5 Q106 436 163.5 489.5 Q221 543 300 543 Q344 543 378.5 523.5 Q413 504 433 469 L445 530 L500 530 Z M423 421 Q404 455 371 473.5 Q338 492 298 492 Q236 492 191.5 444 Q147 396 124 322 Q101 248 101 172 Q101 40 207 40 Q249 40 287.5 60 Q326 80 365 122 L423 421 Z M178 -194 Q161 -194 151 -184 Q141 -174 141 -156 Q141 -134 153.5 -119.5 Q166 -105 187 -105 Q205 -105 214.5 -115 Q224 -125 224 -143 Q224 -165 211.5 -179.5 Q199 -194 178 -194 Z " />
<glyph glyph-name="agrave" unicode="&#xe0;" horiz-adv-x="540" d="M500 530 L396 0 L346 0 L359 70 Q286 -12 193 -12 Q121 -12 83.5 35 Q46 82 46 170 Q46 265 76 350.5 Q106 436 163.5 489.5 Q221 543 300 543 Q344 543 378.5 523.5 Q413 504 433 469 L445 530 L500 530 Z M423 421 Q404 455 371 473.5 Q338 492 298 492 Q236 492 191.5 444 Q147 396 124 322 Q101 248 101 172 Q101 40 207 40 Q249 40 287.5 60 Q326 80 365 122 L423 421 Z M261 776 L262 784 L323 784 L389 623 L388 615 L345 615 L261 776 Z " />
<glyph glyph-name="uni1EA3" unicode="&#x1ea3;" horiz-adv-x="540" d="M500 530 L396 0 L346 0 L359 70 Q286 -12 193 -12 Q121 -12 83.5 35 Q46 82 46 170 Q46 265 76 350.5 Q106 436 163.5 489.5 Q221 543 300 543 Q344 543 378.5 523.5 Q413 504 433 469 L445 530 L500 530 Z M423 421 Q404 455 371 473.5 Q338 492 298 492 Q236 492 191.5 444 Q147 396 124 322 Q101 248 101 172 Q101 40 207 40 Q249 40 287.5 60 Q326 80 365 122 L423 421 Z M318 616 L320 634 Q322 657 334 670 Q346 683 368 698 Q384 709 392 717 Q400 725 400 737 Q400 758 372 758 Q342 758 307 737 L295 773 Q335 798 380 798 Q412 798 429 783.5 Q446 769 446 741 Q446 716 434.5 702 Q423 688 401 674 Q383 662 373.5 652 Q364 642 363 626 Q362 623 362 613 L318 616 Z " />
<glyph glyph-name="uni0251" unicode="&#x251;" horiz-adv-x="540" d="M500 530 L396 0 L346 0 L359 70 Q286 -12 193 -12 Q121 -12 83.5 35 Q46 82 46 170 Q46 265 76 350.5 Q106 436 163.5 489.5 Q221 543 300 543 Q344 543 378.5 523.5 Q413 504 433 469 L445 530 L500 530 Z M423 421 Q404 455 371 473.5 Q338 492 298 492 Q236 492 191.5 444 Q147 396 124 322 Q101 248 101 172 Q101 40 207 40 Q249 40 287.5 60 Q326 80 365 122 L423 421 Z " />
<glyph glyph-name="amacron" unicode="&#x101;" horiz-adv-x="540" d="M500 530 L396 0 L346 0 L359 70 Q286 -12 193 -12 Q121 -12 83.5 35 Q46 82 46 170 Q46 265 76 350.5 Q106 436 163.5 489.5 Q221 543 300 543 Q344 543 378.5 523.5 Q413 504 433 469 L445 530 L500 530 Z M423 421 Q404 455 371 473.5 Q338 492 298 492 Q236 492 191.5 444 Q147 396 124 322 Q101 248 101 172 Q101 40 207 40 Q249 40 287.5 60 Q326 80 365 122 L423 421 Z M225 693 L487 693 L478 648 L216 648 L225 693 Z " />
<glyph glyph-name="aogonek" unicode="&#x105;" horiz-adv-x="534" d="M323 -173 Q357 -173 392 -153 L406 -190 Q363 -217 314 -217 Q275 -217 253.5 -198 Q232 -179 232 -146 Q232 -104 262.5 -63.5 Q293 -23 348 7 L360 71 Q286 -12 193 -12 Q121 -12 83.5 35 Q46 82 46 170 Q46 265 76 350.5 Q106 436 163.5 489.5 Q221 543 300 543 Q345 543 379.5 523.5 Q414 504 433 469 L445 530 L500 530 L397 0 Q347 -28 314.5 -65 Q282 -102 282 -136 Q282 -154 292.5 -163.5 Q303 -173 323 -173 Z M207 40 Q249 40 288 60 Q327 80 366 122 L424 421 Q405 455 371.5 473.5 Q338 492 298 492 Q236 492 191.5 444 Q147 396 124.5 322 Q102 248 102 172 Q102 40 207 40 Z " />
<glyph glyph-name="aring" unicode="&#xe5;" horiz-adv-x="540" d="M500 530 L396 0 L346 0 L359 70 Q286 -12 193 -12 Q121 -12 83.5 35 Q46 82 46 170 Q46 265 76 350.5 Q106 436 163.5 489.5 Q221 543 300 543 Q344 543 378.5 523.5 Q413 504 433 469 L445 530 L500 530 Z M423 421 Q404 455 371 473.5 Q338 492 298 492 Q236 492 191.5 444 Q147 396 124 322 Q101 248 101 172 Q101 40 207 40 Q249 40 287.5 60 Q326 80 365 122 L423 421 Z M338 604 Q297 604 275.5 623.5 Q254 643 254 681 Q254 734 287.5 769 Q321 804 377 804 Q418 804 440 784 Q462 764 462 727 Q462 674 428 639 Q394 604 338 604 Z M344 640 Q380 640 399.5 664 Q419 688 419 721 Q419 767 372 767 Q335 767 315.5 743.5 Q296 720 296 687 Q296 640 344 640 Z " />
<glyph glyph-name="atilde" unicode="&#xe3;" horiz-adv-x="540" d="M500 530 L396 0 L346 0 L359 70 Q286 -12 193 -12 Q121 -12 83.5 35 Q46 82 46 170 Q46 265 76 350.5 Q106 436 163.5 489.5 Q221 543 300 543 Q344 543 378.5 523.5 Q413 504 433 469 L445 530 L500 530 Z M423 421 Q404 455 371 473.5 Q338 492 298 492 Q236 492 191.5 444 Q147 396 124 322 Q101 248 101 172 Q101 40 207 40 Q249 40 287.5 60 Q326 80 365 122 L423 421 Z M191 624 Q203 681 230.5 712 Q258 743 296 743 Q322 743 337.5 731 Q353 719 369 697 Q380 681 389.5 673 Q399 665 412 665 Q434 665 451 685 Q468 705 479 743 L516 739 Q503 682 475.5 651 Q448 620 410 620 Q384 620 368.5 632 Q353 644 336 666 Q323 683 314.5 690.5 Q306 698 293 698 Q251 698 229 620 L191 624 Z " />
<glyph glyph-name="ae" unicode="&#xe6;" horiz-adv-x="765" d="M391 255 Q385 221 385 188 Q385 40 510 40 Q580 40 647 82 L666 39 Q597 -11 505 -11 Q401 -11 357 63 Q314 24 272.5 6 Q231 -12 187 -12 Q117 -12 80 33 Q43 78 43 166 Q43 257 80.5 344.5 Q118 432 186.5 487.5 Q255 543 341 543 Q381 543 408.5 528.5 Q436 514 456 485 Q524 543 609 543 Q673 543 708.5 510 Q744 477 744 419 Q744 374 722 337 Q700 300 660 279 Q636 267 604.5 261 Q573 255 526 255 L391 255 Z M606 493 Q535 493 481 438 Q427 383 402 300 L522 300 Q564 300 591.5 305.5 Q619 311 639 323 Q663 337 676 360.5 Q689 384 689 414 Q689 452 667.5 472.5 Q646 493 606 493 Z M203 40 Q240 40 273 56 Q306 72 340 105 Q329 143 329 187 Q329 261 354.5 332.5 Q380 404 426 456 Q393 492 338 492 Q269 492 214 442.5 Q159 393 128.5 317 Q98 241 98 167 Q98 102 124 71 Q150 40 203 40 Z " />
<glyph glyph-name="b" unicode="b" horiz-adv-x="541" d="M347 543 Q419 543 457 495.5 Q495 448 495 359 Q495 265 465 179.5 Q435 94 377 41 Q319 -12 240 -12 Q194 -12 159.5 8 Q125 28 105 65 L92 0 L41 0 L191 770 L246 770 L187 467 Q259 543 347 543 Z M242 38 Q304 38 349 86 Q394 134 417 207.5 Q440 281 440 357 Q440 490 333 490 Q291 490 253.5 470.5 Q216 451 176 410 L117 107 Q137 74 170 56 Q203 38 242 38 Z " />
<glyph glyph-name="c" unicode="c" horiz-adv-x="453" d="M222 -11 Q135 -11 90 39 Q45 89 45 184 Q45 274 78 357 Q111 440 173 491.5 Q235 543 316 543 Q352 543 387 531 Q422 519 451 499 L424 457 Q369 492 312 492 Q247 492 199 446.5 Q151 401 126 330.5 Q101 260 101 187 Q101 40 227 40 Q293 40 352 75 L371 32 Q339 11 300 0 Q261 -11 222 -11 Z " />
<glyph glyph-name="cacute" unicode="&#x107;" horiz-adv-x="453" d="M222 -11 Q135 -11 90 39 Q45 89 45 184 Q45 274 78 357 Q111 440 173 491.5 Q235 543 316 543 Q352 543 387 531 Q422 519 451 499 L424 457 Q369 492 312 492 Q247 492 199 446.5 Q151 401 126 330.5 Q101 260 101 187 Q101 40 227 40 Q293 40 352 75 L371 32 Q339 11 300 0 Q261 -11 222 -11 Z M267 623 L401 784 L468 784 L467 776 L312 615 L267 615 L267 623 Z " />
<glyph glyph-name="ccaron" unicode="&#x10d;" horiz-adv-x="453" d="M222 -11 Q135 -11 90 39 Q45 89 45 184 Q45 274 78 357 Q111 440 173 491.5 Q235 543 316 543 Q352 543 387 531 Q422 519 451 499 L424 457 Q369 492 312 492 Q247 492 199 446.5 Q151 401 126 330.5 Q101 260 101 187 Q101 40 227 40 Q293 40 352 75 L371 32 Q339 11 300 0 Q261 -11 222 -11 Z M472 784 L471 776 L339 615 L283 615 L213 776 L214 784 L256 784 L318 660 L428 784 L472 784 Z " />
<glyph glyph-name="ccedilla" unicode="&#xe7;" horiz-adv-x="453" d="M312 492 Q247 492 199 446.5 Q151 401 126 330.5 Q101 260 101 187 Q101 40 227 40 Q293 40 352 75 L371 32 Q339 11 300 0 Q261 -11 222 -11 L213 -11 L171 -66 Q185 -64 192 -64 Q230 -64 251 -82 Q272 -100 272 -131 Q272 -175 239.5 -201 Q207 -227 155 -227 Q130 -227 106.5 -220.5 Q83 -214 67 -203 L82 -171 Q118 -189 153 -189 Q186 -189 205.5 -172.5 Q225 -156 225 -130 Q225 -98 185 -98 Q159 -98 137 -108 L122 -90 L171 -6 Q109 7 77 55.5 Q45 104 45 184 Q45 274 78 357 Q111 440 173 491.5 Q235 543 316 543 Q352 543 387 531 Q422 519 451 499 L424 457 Q369 492 312 492 Z " />
<glyph glyph-name="ccircumflex" unicode="&#x109;" horiz-adv-x="453" d="M222 -11 Q135 -11 90 39 Q45 89 45 184 Q45 274 78 357 Q111 440 173 491.5 Q235 543 316 543 Q352 543 387 531 Q422 519 451 499 L424 457 Q369 492 312 492 Q247 492 199 446.5 Q151 401 126 330.5 Q101 260 101 187 Q101 40 227 40 Q293 40 352 75 L371 32 Q339 11 300 0 Q261 -11 222 -11 Z M440 623 L439 615 L398 615 L336 740 L225 615 L181 615 L182 623 L315 784 L371 784 L440 623 Z " />
<glyph glyph-name="cdotaccent" unicode="&#x10b;" horiz-adv-x="453" d="M222 -11 Q135 -11 90 39 Q45 89 45 184 Q45 274 78 357 Q111 440 173 491.5 Q235 543 316 543 Q352 543 387 531 Q422 519 451 499 L424 457 Q369 492 312 492 Q247 492 199 446.5 Q151 401 126 330.5 Q101 260 101 187 Q101 40 227 40 Q293 40 352 75 L371 32 Q339 11 300 0 Q261 -11 222 -11 Z M319 636 Q301 636 291.5 646 Q282 656 282 674 Q282 696 295 710 Q308 724 329 724 Q365 724 365 686 Q365 664 352.5 650 Q340 636 319 636 Z " />
<glyph glyph-name="d" unicode="d" horiz-adv-x="541" d="M547 770 L397 0 L347 0 L360 71 Q289 -12 195 -12 Q123 -12 84.5 35.5 Q46 83 46 171 Q46 265 76 350.5 Q106 436 164 489.5 Q222 543 301 543 Q345 543 379.5 524 Q414 505 434 470 L492 770 L547 770 Z M425 422 Q405 456 372 474 Q339 492 299 492 Q237 492 192 444 Q147 396 124 322 Q101 248 101 172 Q101 107 128 73.5 Q155 40 208 40 Q250 40 288 59.5 Q326 79 366 120 L425 422 Z " />
<glyph glyph-name="eth" unicode="&#xf0;" horiz-adv-x="524" d="M392 681 Q440 635 463 571.5 Q486 508 486 423 Q486 311 455.5 212 Q425 113 362.5 50.5 Q300 -12 207 -12 Q126 -12 83 37.5 Q40 87 40 181 Q40 269 70.5 348.5 Q101 428 160 477.5 Q219 527 298 527 Q352 527 389 500 Q426 473 438 425 Q437 571 348 656 L212 576 L196 610 L319 681 Q284 707 237 726 L213 736 L233 777 L254 768 Q319 741 363 707 L470 770 L486 736 L392 681 Z M208 37 Q273 37 321 81 Q369 125 394 194 Q419 263 419 335 Q419 404 389.5 441.5 Q360 479 303 479 Q239 479 192 435 Q145 391 120.5 322 Q96 253 96 180 Q96 111 124.5 74 Q153 37 208 37 Z " />
<glyph glyph-name="dcaron" unicode="&#x10f;" horiz-adv-x="580" d="M468 770 L523 770 L373 0 L322 0 L336 70 Q264 -12 171 -12 Q99 -12 60.5 35.5 Q22 83 22 171 Q22 265 52 350.5 Q82 436 140 489.5 Q198 543 277 543 Q321 543 355.5 524 Q390 505 410 470 L468 770 Z M662 770 L661 762 L603 560 L566 560 L607 770 L662 770 Z M401 423 Q381 456 348 474 Q315 492 275 492 Q213 492 168 444 Q123 396 100 322 Q77 248 77 172 Q77 107 104 73.5 Q131 40 184 40 Q226 40 264 59.5 Q302 79 342 120 L401 423 Z " />
<glyph glyph-name="dslash" unicode="&#x111;" horiz-adv-x="544" d="M588 628 L523 628 L401 0 L349 0 L363 70 Q291 -12 198 -12 Q125 -12 86.5 34.5 Q48 81 48 168 Q48 192 51 217 Q59 306 91 377 Q123 448 177 489 Q231 530 302 530 Q346 530 380.5 511 Q415 492 435 457 L468 628 L244 628 L252 669 L476 669 L496 770 L551 770 L531 669 L596 669 L588 628 Z M425 409 Q406 443 373 461.5 Q340 480 300 480 Q220 480 169 405 Q118 330 107 216 Q104 191 104 169 Q104 106 131.5 73 Q159 40 212 40 Q252 40 290.5 60 Q329 80 370 122 L425 409 Z " />
<glyph glyph-name="uni1E0D" unicode="&#x1e0d;" horiz-adv-x="541" d="M547 770 L397 0 L347 0 L360 71 Q289 -12 195 -12 Q123 -12 84.5 35.5 Q46 83 46 171 Q46 265 76 350.5 Q106 436 164 489.5 Q222 543 301 543 Q345 543 379.5 524 Q414 505 434 470 L492 770 L547 770 Z M425 422 Q405 456 372 474 Q339 492 299 492 Q237 492 192 444 Q147 396 124 322 Q101 248 101 172 Q101 107 128 73.5 Q155 40 208 40 Q250 40 288 59.5 Q326 79 366 120 L425 422 Z M187 -194 Q170 -194 160 -184 Q150 -174 150 -156 Q150 -134 162.5 -119.5 Q175 -105 196 -105 Q214 -105 223.5 -115 Q233 -125 233 -143 Q233 -165 220.5 -179.5 Q208 -194 187 -194 Z " />
<glyph glyph-name="uni1E0F" unicode="&#x1e0f;" horiz-adv-x="541" d="M547 770 L397 0 L347 0 L360 71 Q289 -12 195 -12 Q123 -12 84.5 35.5 Q46 83 46 171 Q46 265 76 350.5 Q106 436 164 489.5 Q222 543 301 543 Q345 543 379.5 524 Q414 505 434 470 L492 770 L547 770 Z M425 422 Q405 456 372 474 Q339 492 299 492 Q237 492 192 444 Q147 396 124 322 Q101 248 101 172 Q101 107 128 73.5 Q155 40 208 40 Q250 40 288 59.5 Q326 79 366 120 L425 422 Z M67 -114 L329 -114 L320 -159 L58 -159 L67 -114 Z " />
<glyph glyph-name="e" unicode="e" horiz-adv-x="490" d="M106 255 Q100 221 100 188 Q100 40 230 40 Q304 40 372 83 L392 40 Q357 15 313.5 2 Q270 -11 225 -11 Q137 -11 90.5 39 Q44 89 44 187 Q44 275 79.5 357 Q115 439 180 491 Q245 543 329 543 Q396 543 432.5 510 Q469 477 469 419 Q469 374 447 337 Q425 300 385 279 Q340 255 251 255 L106 255 Z M326 493 Q252 493 197.5 438 Q143 383 117 300 L247 300 Q289 300 316.5 305.5 Q344 311 364 323 Q388 337 401 360.5 Q414 384 414 414 Q414 453 392 473 Q370 493 326 493 Z " />
<glyph glyph-name="eacute" unicode="&#xe9;" horiz-adv-x="490" d="M106 255 Q100 221 100 188 Q100 40 230 40 Q304 40 372 83 L392 40 Q357 15 313.5 2 Q270 -11 225 -11 Q137 -11 90.5 39 Q44 89 44 187 Q44 275 79.5 357 Q115 439 180 491 Q245 543 329 543 Q396 543 432.5 510 Q469 477 469 419 Q469 374 447 337 Q425 300 385 279 Q340 255 251 255 L106 255 Z M326 493 Q252 493 197.5 438 Q143 383 117 300 L247 300 Q289 300 316.5 305.5 Q344 311 364 323 Q388 337 401 360.5 Q414 384 414 414 Q414 453 392 473 Q370 493 326 493 Z M283 623 L417 784 L484 784 L483 776 L328 615 L283 615 L283 623 Z " />
<glyph glyph-name="ebreve" unicode="&#x115;" horiz-adv-x="490" d="M106 255 Q100 221 100 188 Q100 40 230 40 Q304 40 372 83 L392 40 Q357 15 313.5 2 Q270 -11 225 -11 Q137 -11 90.5 39 Q44 89 44 187 Q44 275 79.5 357 Q115 439 180 491 Q245 543 329 543 Q396 543 432.5 510 Q469 477 469 419 Q469 374 447 337 Q425 300 385 279 Q340 255 251 255 L106 255 Z M326 493 Q252 493 197.5 438 Q143 383 117 300 L247 300 Q289 300 316.5 305.5 Q344 311 364 323 Q388 337 401 360.5 Q414 384 414 414 Q414 453 392 473 Q370 493 326 493 Z M331 623 Q280 623 251 651 Q222 679 222 730 Q222 738 224 758 L264 755 Q260 669 334 669 Q374 669 402 691.5 Q430 714 444 758 L482 755 Q467 692 427.5 657.5 Q388 623 331 623 Z " />
<glyph glyph-name="ecaron" unicode="&#x11b;" horiz-adv-x="490" d="M106 255 Q100 221 100 188 Q100 40 230 40 Q304 40 372 83 L392 40 Q357 15 313.5 2 Q270 -11 225 -11 Q137 -11 90.5 39 Q44 89 44 187 Q44 275 79.5 357 Q115 439 180 491 Q245 543 329 543 Q396 543 432.5 510 Q469 477 469 419 Q469 374 447 337 Q425 300 385 279 Q340 255 251 255 L106 255 Z M326 493 Q252 493 197.5 438 Q143 383 117 300 L247 300 Q289 300 316.5 305.5 Q344 311 364 323 Q388 337 401 360.5 Q414 384 414 414 Q414 453 392 473 Q370 493 326 493 Z M487 784 L486 776 L354 615 L298 615 L228 776 L229 784 L271 784 L333 660 L443 784 L487 784 Z " />
<glyph glyph-name="ecircumflex" unicode="&#xea;" horiz-adv-x="490" d="M106 255 Q100 221 100 188 Q100 40 230 40 Q304 40 372 83 L392 40 Q357 15 313.5 2 Q270 -11 225 -11 Q137 -11 90.5 39 Q44 89 44 187 Q44 275 79.5 357 Q115 439 180 491 Q245 543 329 543 Q396 543 432.5 510 Q469 477 469 419 Q469 374 447 337 Q425 300 385 279 Q340 255 251 255 L106 255 Z M326 493 Q252 493 197.5 438 Q143 383 117 300 L247 300 Q289 300 316.5 305.5 Q344 311 364 323 Q388 337 401 360.5 Q414 384 414 414 Q414 453 392 473 Q370 493 326 493 Z M455 623 L454 615 L413 615 L351 740 L240 615 L196 615 L197 623 L330 784 L386 784 L455 623 Z " />
<glyph glyph-name="uni1EBF" unicode="&#x1ebf;" horiz-adv-x="490" d="M608 857 L607 849 L487 720 L446 720 L447 728 L553 857 L608 857 Z M239 615 L195 615 L196 623 L326 764 L382 764 L458 623 L456 615 L415 615 L348 723 L239 615 Z M329 543 Q396 543 432.5 510 Q469 477 469 419 Q469 374 447 337 Q425 300 385 279 Q340 255 251 255 L106 255 Q100 221 100 188 Q100 40 230 40 Q304 40 372 83 L392 40 Q357 15 313.5 2 Q270 -11 225 -11 Q137 -11 90.5 39 Q44 89 44 187 Q44 275 79.5 357 Q115 439 180 491 Q245 543 329 543 Z M364 323 Q388 337 401 360.5 Q414 384 414 414 Q414 453 392 473 Q370 493 326 493 Q252 493 197.5 438 Q143 383 117 300 L247 300 Q289 300 316.5 305.5 Q344 311 364 323 Z " />
<glyph glyph-name="uni1EC7" unicode="&#x1ec7;" horiz-adv-x="490" d="M106 255 Q100 221 100 188 Q100 40 230 40 Q304 40 372 83 L392 40 Q357 15 313.5 2 Q270 -11 225 -11 Q137 -11 90.5 39 Q44 89 44 187 Q44 275 79.5 357 Q115 439 180 491 Q245 543 329 543 Q396 543 432.5 510 Q469 477 469 419 Q469 374 447 337 Q425 300 385 279 Q340 255 251 255 L106 255 Z M326 493 Q252 493 197.5 438 Q143 383 117 300 L247 300 Q289 300 316.5 305.5 Q344 311 364 323 Q388 337 401 360.5 Q414 384 414 414 Q414 453 392 473 Q370 493 326 493 Z M175 -194 Q158 -194 148 -184 Q138 -174 138 -156 Q138 -134 150.5 -119.5 Q163 -105 184 -105 Q202 -105 211.5 -115 Q221 -125 221 -143 Q221 -165 208.5 -179.5 Q196 -194 175 -194 Z M455 623 L454 615 L413 615 L351 740 L240 615 L196 615 L197 623 L330 784 L386 784 L455 623 Z " />
<glyph glyph-name="uni1EC1" unicode="&#x1ec1;" horiz-adv-x="490" d="M208 720 L143 849 L144 857 L195 857 L245 728 L244 720 L208 720 Z M196 623 L326 764 L382 764 L458 623 L456 615 L415 615 L348 723 L239 615 L195 615 L196 623 Z M106 255 Q100 221 100 188 Q100 40 230 40 Q304 40 372 83 L392 40 Q357 15 313.5 2 Q270 -11 225 -11 Q137 -11 90.5 39 Q44 89 44 187 Q44 275 79.5 357 Q115 439 180 491 Q245 543 329 543 Q396 543 432.5 510 Q469 477 469 419 Q469 374 447 337 Q425 300 385 279 Q340 255 251 255 L106 255 Z M326 493 Q252 493 197.5 438 Q143 383 117 300 L247 300 Q289 300 316.5 305.5 Q344 311 364 323 Q388 337 401 360.5 Q414 384 414 414 Q414 453 392 473 Q370 493 326 493 Z " />
<glyph glyph-name="uni1EC3" unicode="&#x1ec3;" horiz-adv-x="490" d="M508 882 Q539 882 555.5 868 Q572 854 572 828 Q572 803 560.5 791 Q549 779 527 768 Q510 759 502 751.5 Q494 744 493 731 Q492 727 492 719 L450 722 Q450 731 451 738 Q453 762 464.5 773 Q476 784 497 795 Q512 801 519 807.5 Q526 814 526 825 Q526 844 500 844 Q472 844 439 826 L426 860 Q465 882 508 882 Z M239 615 L195 615 L196 623 L326 764 L382 764 L458 623 L456 615 L415 615 L348 723 L239 615 Z M329 543 Q396 543 432.5 510 Q469 477 469 419 Q469 374 447 337 Q425 300 385 279 Q340 255 251 255 L106 255 Q100 221 100 188 Q100 40 230 40 Q304 40 372 83 L392 40 Q357 15 313.5 2 Q270 -11 225 -11 Q137 -11 90.5 39 Q44 89 44 187 Q44 275 79.5 357 Q115 439 180 491 Q245 543 329 543 Z M364 323 Q388 337 401 360.5 Q414 384 414 414 Q414 453 392 473 Q370 493 326 493 Q252 493 197.5 438 Q143 383 117 300 L247 300 Q289 300 316.5 305.5 Q344 311 364 323 Z " />
<glyph glyph-name="uni1EC5" unicode="&#x1ec5;" horiz-adv-x="490" d="M517 902 Q507 851 481.5 823 Q456 795 419 795 Q394 795 381.5 805 Q369 815 357 835 Q349 850 341.5 857 Q334 864 321 864 Q280 864 261 795 L226 799 Q236 850 261.5 878 Q287 906 324 906 Q349 906 361.5 896 Q374 886 386 866 Q395 852 402.5 844.5 Q410 837 423 837 Q463 837 482 906 L517 902 Z M239 615 L195 615 L196 623 L326 764 L382 764 L458 623 L456 615 L415 615 L348 723 L239 615 Z M329 543 Q396 543 432.5 510 Q469 477 469 419 Q469 374 447 337 Q425 300 385 279 Q340 255 251 255 L106 255 Q100 221 100 188 Q100 40 230 40 Q304 40 372 83 L392 40 Q357 15 313.5 2 Q270 -11 225 -11 Q137 -11 90.5 39 Q44 89 44 187 Q44 275 79.5 357 Q115 439 180 491 Q245 543 329 543 Z M364 323 Q388 337 401 360.5 Q414 384 414 414 Q414 453 392 473 Q370 493 326 493 Q252 493 197.5 438 Q143 383 117 300 L247 300 Q289 300 316.5 305.5 Q344 311 364 323 Z " />
<glyph glyph-name="edieresis" unicode="&#xeb;" horiz-adv-x="490" d="M247 636 Q230 636 221 645.5 Q212 655 212 673 Q212 694 224 707.5 Q236 721 256 721 Q273 721 282 711.5 Q291 702 291 684 Q291 663 279 649.5 Q267 636 247 636 Z M421 636 Q404 636 395 645.5 Q386 655 386 673 Q386 694 398 707.5 Q410 721 430 721 Q447 721 456 711.5 Q465 702 465 684 Q465 663 453 649.5 Q441 636 421 636 Z M106 255 Q100 221 100 188 Q100 40 230 40 Q304 40 372 83 L392 40 Q357 15 313.5 2 Q270 -11 225 -11 Q137 -11 90.5 39 Q44 89 44 187 Q44 275 79.5 357 Q115 439 180 491 Q245 543 329 543 Q396 543 432.5 510 Q469 477 469 419 Q469 374 447 337 Q425 300 385 279 Q340 255 251 255 L106 255 Z M326 493 Q252 493 197.5 438 Q143 383 117 300 L247 300 Q289 300 316.5 305.5 Q344 311 364 323 Q388 337 401 360.5 Q414 384 414 414 Q414 453 392 473 Q370 493 326 493 Z " />
<glyph glyph-name="edotaccent" unicode="&#x117;" horiz-adv-x="490" d="M106 255 Q100 221 100 188 Q100 40 230 40 Q304 40 372 83 L392 40 Q357 15 313.5 2 Q270 -11 225 -11 Q137 -11 90.5 39 Q44 89 44 187 Q44 275 79.5 357 Q115 439 180 491 Q245 543 329 543 Q396 543 432.5 510 Q469 477 469 419 Q469 374 447 337 Q425 300 385 279 Q340 255 251 255 L106 255 Z M326 493 Q252 493 197.5 438 Q143 383 117 300 L247 300 Q289 300 316.5 305.5 Q344 311 364 323 Q388 337 401 360.5 Q414 384 414 414 Q414 453 392 473 Q370 493 326 493 Z M334 636 Q316 636 306.5 646 Q297 656 297 674 Q297 696 310 710 Q323 724 344 724 Q380 724 380 686 Q380 664 367.5 650 Q355 636 334 636 Z " />
<glyph glyph-name="uni1EB9" unicode="&#x1eb9;" horiz-adv-x="490" d="M106 255 Q100 221 100 188 Q100 40 230 40 Q304 40 372 83 L392 40 Q357 15 313.5 2 Q270 -11 225 -11 Q137 -11 90.5 39 Q44 89 44 187 Q44 275 79.5 357 Q115 439 180 491 Q245 543 329 543 Q396 543 432.5 510 Q469 477 469 419 Q469 374 447 337 Q425 300 385 279 Q340 255 251 255 L106 255 Z M326 493 Q252 493 197.5 438 Q143 383 117 300 L247 300 Q289 300 316.5 305.5 Q344 311 364 323 Q388 337 401 360.5 Q414 384 414 414 Q414 453 392 473 Q370 493 326 493 Z M175 -194 Q158 -194 148 -184 Q138 -174 138 -156 Q138 -134 150.5 -119.5 Q163 -105 184 -105 Q202 -105 211.5 -115 Q221 -125 221 -143 Q221 -165 208.5 -179.5 Q196 -194 175 -194 Z " />
<glyph glyph-name="egrave" unicode="&#xe8;" horiz-adv-x="490" d="M106 255 Q100 221 100 188 Q100 40 230 40 Q304 40 372 83 L392 40 Q357 15 313.5 2 Q270 -11 225 -11 Q137 -11 90.5 39 Q44 89 44 187 Q44 275 79.5 357 Q115 439 180 491 Q245 543 329 543 Q396 543 432.5 510 Q469 477 469 419 Q469 374 447 337 Q425 300 385 279 Q340 255 251 255 L106 255 Z M326 493 Q252 493 197.5 438 Q143 383 117 300 L247 300 Q289 300 316.5 305.5 Q344 311 364 323 Q388 337 401 360.5 Q414 384 414 414 Q414 453 392 473 Q370 493 326 493 Z M246 776 L247 784 L308 784 L374 623 L373 615 L330 615 L246 776 Z " />
<glyph glyph-name="uni1EBB" unicode="&#x1ebb;" horiz-adv-x="490" d="M106 255 Q100 221 100 188 Q100 40 230 40 Q304 40 372 83 L392 40 Q357 15 313.5 2 Q270 -11 225 -11 Q137 -11 90.5 39 Q44 89 44 187 Q44 275 79.5 357 Q115 439 180 491 Q245 543 329 543 Q396 543 432.5 510 Q469 477 469 419 Q469 374 447 337 Q425 300 385 279 Q340 255 251 255 L106 255 Z M326 493 Q252 493 197.5 438 Q143 383 117 300 L247 300 Q289 300 316.5 305.5 Q344 311 364 323 Q388 337 401 360.5 Q414 384 414 414 Q414 453 392 473 Q370 493 326 493 Z M304 616 L306 634 Q308 657 320 670 Q332 683 354 698 Q370 709 378 717 Q386 725 386 737 Q386 758 358 758 Q328 758 293 737 L281 773 Q321 798 366 798 Q398 798 415 783.5 Q432 769 432 741 Q432 716 420.5 702 Q409 688 387 674 Q369 662 359.5 652 Q350 642 349 626 Q348 623 348 613 L304 616 Z " />
<glyph glyph-name="emacron" unicode="&#x113;" horiz-adv-x="490" d="M106 255 Q100 221 100 188 Q100 40 230 40 Q304 40 372 83 L392 40 Q357 15 313.5 2 Q270 -11 225 -11 Q137 -11 90.5 39 Q44 89 44 187 Q44 275 79.5 357 Q115 439 180 491 Q245 543 329 543 Q396 543 432.5 510 Q469 477 469 419 Q469 374 447 337 Q425 300 385 279 Q340 255 251 255 L106 255 Z M326 493 Q252 493 197.5 438 Q143 383 117 300 L247 300 Q289 300 316.5 305.5 Q344 311 364 323 Q388 337 401 360.5 Q414 384 414 414 Q414 453 392 473 Q370 493 326 493 Z M210 693 L472 693 L463 648 L201 648 L210 693 Z " />
<glyph glyph-name="eogonek" unicode="&#x119;" horiz-adv-x="497" d="M106 255 Q100 221 100 188 Q100 40 230 40 Q303 40 373 83 L392 40 Q384 34 352 17 Q291 -17 255 -57.5 Q219 -98 219 -136 Q219 -173 259 -173 Q294 -173 329 -153 L342 -190 Q300 -217 251 -217 Q211 -217 190 -199 Q169 -181 169 -147 Q169 -111 191.5 -75.5 Q214 -40 255 -9 Q245 -11 224 -11 Q137 -11 91 39.5 Q45 90 45 188 Q45 275 80 357.5 Q115 440 180 491.5 Q245 543 330 543 Q397 543 433.5 510 Q470 477 470 419 Q470 374 448 337 Q426 300 386 279 Q338 254 251 254 L106 255 Z M326 493 Q253 493 198 438 Q143 383 118 300 L247 300 Q326 300 364 323 Q388 337 401 360.5 Q414 384 414 414 Q414 453 392 473 Q370 493 326 493 Z " />
<glyph glyph-name="uni1EBD" unicode="&#x1ebd;" horiz-adv-x="490" d="M106 255 Q100 221 100 188 Q100 40 230 40 Q304 40 372 83 L392 40 Q357 15 313.5 2 Q270 -11 225 -11 Q137 -11 90.5 39 Q44 89 44 187 Q44 275 79.5 357 Q115 439 180 491 Q245 543 329 543 Q396 543 432.5 510 Q469 477 469 419 Q469 374 447 337 Q425 300 385 279 Q340 255 251 255 L106 255 Z M326 493 Q252 493 197.5 438 Q143 383 117 300 L247 300 Q289 300 316.5 305.5 Q344 311 364 323 Q388 337 401 360.5 Q414 384 414 414 Q414 453 392 473 Q370 493 326 493 Z M176 624 Q188 681 215.5 712 Q243 743 281 743 Q307 743 322.5 731 Q338 719 354 697 Q365 681 374.5 673 Q384 665 397 665 Q419 665 436 685 Q453 705 464 743 L501 739 Q488 682 460.5 651 Q433 620 395 620 Q369 620 353.5 632 Q338 644 321 666 Q308 683 299.5 690.5 Q291 698 278 698 Q236 698 214 620 L176 624 Z " />
<glyph glyph-name="f" unicode="f" horiz-adv-x="315" d="M145 484 L57 484 L66 530 L154 530 L171 619 Q185 693 234.5 734 Q284 775 360 775 Q380 775 404 769 L395 721 Q373 725 358 725 Q304 725 270 696.5 Q236 668 226 615 L209 530 L340 530 L330 484 L200 484 L106 0 L51 0 L145 484 Z " />
<glyph glyph-name="g" unicode="g" horiz-adv-x="544" d="M503 530 L398 -11 Q379 -109 313.5 -162.5 Q248 -216 149 -216 Q111 -216 76 -208 Q41 -200 18 -186 L41 -139 Q88 -165 151 -165 Q230 -165 279.5 -124.5 Q329 -84 344 -7 L363 91 Q292 13 201 13 Q127 13 88 59.5 Q49 106 49 193 Q49 283 79 363.5 Q109 444 166.5 493.5 Q224 543 302 543 Q349 543 384.5 522 Q420 501 438 464 L452 530 L503 530 Z M427 422 Q407 456 374 474 Q341 492 301 492 Q239 492 194.5 448.5 Q150 405 127.5 336 Q105 267 105 193 Q105 130 132.5 97.5 Q160 65 215 65 Q256 65 294.5 84.5 Q333 104 373 146 L427 422 Z " />
<glyph glyph-name="gbreve" unicode="&#x11f;" horiz-adv-x="544" d="M503 530 L398 -11 Q379 -109 313.5 -162.5 Q248 -216 149 -216 Q111 -216 76 -208 Q41 -200 18 -186 L41 -139 Q88 -165 151 -165 Q230 -165 279.5 -124.5 Q329 -84 344 -7 L363 91 Q292 13 201 13 Q127 13 88 59.5 Q49 106 49 193 Q49 283 79 363.5 Q109 444 166.5 493.5 Q224 543 302 543 Q349 543 384.5 522 Q420 501 438 464 L452 530 L503 530 Z M427 422 Q407 456 374 474 Q341 492 301 492 Q239 492 194.5 448.5 Q150 405 127.5 336 Q105 267 105 193 Q105 130 132.5 97.5 Q160 65 215 65 Q256 65 294.5 84.5 Q333 104 373 146 L427 422 Z M341 623 Q290 623 261 651 Q232 679 232 730 Q232 738 234 758 L274 755 Q270 669 344 669 Q384 669 412 691.5 Q440 714 454 758 L492 755 Q477 692 437.5 657.5 Q398 623 341 623 Z " />
<glyph glyph-name="gcaron" unicode="&#x1e7;" horiz-adv-x="544" d="M503 530 L398 -11 Q379 -109 313.5 -162.5 Q248 -216 149 -216 Q111 -216 76 -208 Q41 -200 18 -186 L41 -139 Q88 -165 151 -165 Q230 -165 279.5 -124.5 Q329 -84 344 -7 L363 91 Q292 13 201 13 Q127 13 88 59.5 Q49 106 49 193 Q49 283 79 363.5 Q109 444 166.5 493.5 Q224 543 302 543 Q349 543 384.5 522 Q420 501 438 464 L452 530 L503 530 Z M427 422 Q407 456 374 474 Q341 492 301 492 Q239 492 194.5 448.5 Q150 405 127.5 336 Q105 267 105 193 Q105 130 132.5 97.5 Q160 65 215 65 Q256 65 294.5 84.5 Q333 104 373 146 L427 422 Z M497 784 L496 776 L364 615 L308 615 L238 776 L239 784 L281 784 L343 660 L453 784 L497 784 Z " />
<glyph glyph-name="gcircumflex" unicode="&#x11d;" horiz-adv-x="544" d="M503 530 L398 -11 Q379 -109 313.5 -162.5 Q248 -216 149 -216 Q111 -216 76 -208 Q41 -200 18 -186 L41 -139 Q88 -165 151 -165 Q230 -165 279.5 -124.5 Q329 -84 344 -7 L363 91 Q292 13 201 13 Q127 13 88 59.5 Q49 106 49 193 Q49 283 79 363.5 Q109 444 166.5 493.5 Q224 543 302 543 Q349 543 384.5 522 Q420 501 438 464 L452 530 L503 530 Z M427 422 Q407 456 374 474 Q341 492 301 492 Q239 492 194.5 448.5 Q150 405 127.5 336 Q105 267 105 193 Q105 130 132.5 97.5 Q160 65 215 65 Q256 65 294.5 84.5 Q333 104 373 146 L427 422 Z M465 623 L464 615 L423 615 L361 740 L250 615 L206 615 L207 623 L340 784 L396 784 L465 623 Z " />
<glyph glyph-name="gcommaaccent" unicode="&#x123;" horiz-adv-x="544" d="M503 530 L398 -11 Q379 -109 313.5 -162.5 Q248 -216 149 -216 Q111 -216 76 -208 Q41 -200 18 -186 L41 -139 Q88 -165 151 -165 Q230 -165 279.5 -124.5 Q329 -84 344 -7 L363 91 Q292 13 201 13 Q127 13 88 59.5 Q49 106 49 193 Q49 283 79 363.5 Q109 444 166.5 493.5 Q224 543 302 543 Q349 543 384.5 522 Q420 501 438 464 L452 530 L503 530 Z M427 422 Q407 456 374 474 Q341 492 301 492 Q239 492 194.5 448.5 Q150 405 127.5 336 Q105 267 105 193 Q105 130 132.5 97.5 Q160 65 215 65 Q256 65 294.5 84.5 Q333 104 373 146 L427 422 Z M436 777 Q404 748 387.5 720.5 Q371 693 362 650 Q360 636 358 618 L303 622 Q305 644 308 658 Q317 702 342 736.5 Q367 771 415 805 L436 777 Z " />
<glyph glyph-name="gdotaccent" unicode="&#x121;" horiz-adv-x="544" d="M503 530 L398 -11 Q379 -109 313.5 -162.5 Q248 -216 149 -216 Q111 -216 76 -208 Q41 -200 18 -186 L41 -139 Q88 -165 151 -165 Q230 -165 279.5 -124.5 Q329 -84 344 -7 L363 91 Q292 13 201 13 Q127 13 88 59.5 Q49 106 49 193 Q49 283 79 363.5 Q109 444 166.5 493.5 Q224 543 302 543 Q349 543 384.5 522 Q420 501 438 464 L452 530 L503 530 Z M427 422 Q407 456 374 474 Q341 492 301 492 Q239 492 194.5 448.5 Q150 405 127.5 336 Q105 267 105 193 Q105 130 132.5 97.5 Q160 65 215 65 Q256 65 294.5 84.5 Q333 104 373 146 L427 422 Z M344 636 Q326 636 316.5 646 Q307 656 307 674 Q307 696 320 710 Q333 724 354 724 Q390 724 390 686 Q390 664 377.5 650 Q365 636 344 636 Z " />
<glyph glyph-name="uni1E21" unicode="&#x1e21;" horiz-adv-x="544" d="M503 530 L398 -11 Q379 -109 313.5 -162.5 Q248 -216 149 -216 Q111 -216 76 -208 Q41 -200 18 -186 L41 -139 Q88 -165 151 -165 Q230 -165 279.5 -124.5 Q329 -84 344 -7 L363 91 Q292 13 201 13 Q127 13 88 59.5 Q49 106 49 193 Q49 283 79 363.5 Q109 444 166.5 493.5 Q224 543 302 543 Q349 543 384.5 522 Q420 501 438 464 L452 530 L503 530 Z M427 422 Q407 456 374 474 Q341 492 301 492 Q239 492 194.5 448.5 Q150 405 127.5 336 Q105 267 105 193 Q105 130 132.5 97.5 Q160 65 215 65 Q256 65 294.5 84.5 Q333 104 373 146 L427 422 Z M220 693 L482 693 L473 648 L211 648 L220 693 Z " />
<glyph glyph-name="uni0261" unicode="&#x261;" horiz-adv-x="544" d="M503 530 L398 -11 Q379 -109 313.5 -162.5 Q248 -216 149 -216 Q111 -216 76 -208 Q41 -200 18 -186 L41 -139 Q88 -165 151 -165 Q230 -165 279.5 -124.5 Q329 -84 344 -7 L363 91 Q292 13 201 13 Q127 13 88 59.5 Q49 106 49 193 Q49 283 79 363.5 Q109 444 166.5 493.5 Q224 543 302 543 Q349 543 384.5 522 Q420 501 438 464 L452 530 L503 530 Z M427 422 Q407 456 374 474 Q341 492 301 492 Q239 492 194.5 448.5 Q150 405 127.5 336 Q105 267 105 193 Q105 130 132.5 97.5 Q160 65 215 65 Q256 65 294.5 84.5 Q333 104 373 146 L427 422 Z " />
<glyph glyph-name="h" unicode="h" horiz-adv-x="550" d="M357 543 Q420 543 454.5 511 Q489 479 489 422 Q489 399 485 379 L411 0 L356 0 L430 379 Q434 395 434 413 Q434 490 343 490 Q301 490 261 473 Q221 456 178 421 L96 0 L41 0 L191 770 L246 770 L188 475 Q267 543 357 543 Z " />
<glyph glyph-name="hbar" unicode="&#x127;" horiz-adv-x="550" d="M354 530 Q418 530 452.5 498 Q487 466 487 409 Q487 387 483 368 L411 0 L356 0 L428 366 Q431 383 431 398 Q431 477 339 477 Q297 477 257 460.5 Q217 444 173 410 L94 0 L39 0 L161 628 L96 628 L104 669 L169 669 L189 770 L244 770 L224 669 L446 669 L438 628 L216 628 L184 463 Q262 530 354 530 Z " />
<glyph glyph-name="uni1E2B" unicode="&#x1e2b;" horiz-adv-x="550" d="M357 543 Q420 543 454.5 511 Q489 479 489 422 Q489 399 485 379 L411 0 L356 0 L430 379 Q434 395 434 413 Q434 490 343 490 Q301 490 261 473 Q221 456 178 421 L96 0 L41 0 L191 770 L246 770 L188 475 Q267 543 357 543 Z M188 -214 Q137 -214 108 -186 Q79 -158 79 -108 Q79 -89 81 -79 L121 -82 Q117 -168 190 -168 Q230 -168 258 -145.5 Q286 -123 300 -79 L338 -82 Q323 -145 284 -179.5 Q245 -214 188 -214 Z " />
<glyph glyph-name="hcircumflex" unicode="&#x125;" horiz-adv-x="550" d="M131 827 L84 827 L85 837 L227 972 L287 972 L375 837 L374 827 L329 827 L250 931 L131 827 Z M357 543 Q420 543 454.5 511 Q489 479 489 422 Q489 399 485 379 L411 0 L356 0 L430 379 Q434 395 434 413 Q434 490 343 490 Q301 490 261 473 Q221 456 178 421 L96 0 L41 0 L191 770 L246 770 L188 475 Q267 543 357 543 Z " />
<glyph glyph-name="uni1E25" unicode="&#x1e25;" horiz-adv-x="550" d="M357 543 Q420 543 454.5 511 Q489 479 489 422 Q489 399 485 379 L411 0 L356 0 L430 379 Q434 395 434 413 Q434 490 343 490 Q301 490 261 473 Q221 456 178 421 L96 0 L41 0 L191 770 L246 770 L188 475 Q267 543 357 543 Z M192 -194 Q175 -194 165 -184 Q155 -174 155 -156 Q155 -134 167.5 -119.5 Q180 -105 201 -105 Q219 -105 228.5 -115 Q238 -125 238 -143 Q238 -165 225.5 -179.5 Q213 -194 192 -194 Z " />
<glyph glyph-name="i" unicode="i" horiz-adv-x="244" d="M146 530 L201 530 L98 0 L43 0 L146 530 Z M198 636 Q180 636 170.5 646 Q161 656 161 674 Q161 696 174 710 Q187 724 208 724 Q244 724 244 686 Q244 664 231.5 650 Q219 636 198 636 Z " />
<glyph glyph-name="dotlessi" unicode="&#x131;" horiz-adv-x="244" d="M146 530 L201 530 L98 0 L43 0 L146 530 Z " />
<glyph glyph-name="iacute" unicode="&#xed;" horiz-adv-x="244" d="M146 530 L201 530 L98 0 L43 0 L146 530 Z M146 623 L280 784 L347 784 L346 776 L191 615 L146 615 L146 623 Z " />
<glyph glyph-name="uni01D0" unicode="&#x1d0;" horiz-adv-x="244" d="M146 530 L201 530 L98 0 L43 0 L146 530 Z M351 784 L350 776 L218 615 L162 615 L92 776 L93 784 L135 784 L197 660 L307 784 L351 784 Z " />
<glyph glyph-name="icircumflex" unicode="&#xee;" horiz-adv-x="244" d="M146 530 L201 530 L98 0 L43 0 L146 530 Z M319 623 L318 615 L277 615 L215 740 L104 615 L60 615 L61 623 L194 784 L250 784 L319 623 Z " />
<glyph glyph-name="idieresis" unicode="&#xef;" horiz-adv-x="244" d="M122 636 Q105 636 96 645.5 Q87 655 87 673 Q87 694 99 707.5 Q111 721 131 721 Q165 721 165 684 Q165 663 153.5 649.5 Q142 636 122 636 Z M272 636 Q255 636 246 645.5 Q237 655 237 673 Q237 694 249 707.5 Q261 721 281 721 Q315 721 315 684 Q315 663 303.5 649.5 Q292 636 272 636 Z M146 530 L201 530 L98 0 L43 0 L146 530 Z " />
<glyph glyph-name="uni1ECB" unicode="&#x1ecb;" horiz-adv-x="244" d="M146 530 L201 530 L98 0 L43 0 L146 530 Z M198 636 Q180 636 170.5 646 Q161 656 161 674 Q161 696 174 710 Q187 724 208 724 Q244 724 244 686 Q244 664 231.5 650 Q219 636 198 636 Z M36 -194 Q19 -194 9 -184 Q-1 -174 -1 -156 Q-1 -134 11.5 -119.5 Q24 -105 45 -105 Q63 -105 72.5 -115 Q82 -125 82 -143 Q82 -165 69.5 -179.5 Q57 -194 36 -194 Z " />
<glyph glyph-name="igrave" unicode="&#xec;" horiz-adv-x="244" d="M146 530 L201 530 L98 0 L43 0 L146 530 Z M110 776 L111 784 L172 784 L238 623 L237 615 L194 615 L110 776 Z " />
<glyph glyph-name="uni1EC9" unicode="&#x1ec9;" horiz-adv-x="244" d="M146 530 L201 530 L98 0 L43 0 L146 530 Z M167 616 L169 634 Q171 657 183 670 Q195 683 217 698 Q233 709 241 717 Q249 725 249 737 Q249 758 221 758 Q191 758 156 737 L144 773 Q184 798 229 798 Q261 798 278 783.5 Q295 769 295 741 Q295 716 283.5 702 Q272 688 250 674 Q232 662 222.5 652 Q213 642 212 626 Q211 623 211 613 L167 616 Z " />
<glyph glyph-name="ij" unicode="&#x133;" horiz-adv-x="487" d="M146 530 L201 530 L98 0 L43 0 L146 530 Z M198 636 Q180 636 170.5 646 Q161 656 161 674 Q161 696 174 710 Q187 724 208 724 Q244 724 244 686 Q244 664 231.5 650 Q219 636 198 636 Z M126 -171 Q179 -154 210.5 -130.5 Q242 -107 261 -70 Q280 -33 292 27 L390 530 L445 530 L346 23 Q332 -51 309 -95.5 Q286 -140 246.5 -168.5 Q207 -197 139 -219 L126 -171 Z M442 636 Q424 636 414.5 646 Q405 656 405 674 Q405 696 418 710 Q431 724 452 724 Q488 724 488 686 Q488 664 475.5 650 Q463 636 442 636 Z " />
<glyph glyph-name="imacron" unicode="&#x12b;" horiz-adv-x="244" d="M101 693 L306 693 L297 648 L92 648 L101 693 Z M146 530 L201 530 L98 0 L43 0 L146 530 Z " />
<glyph glyph-name="iogonek" unicode="&#x12f;" horiz-adv-x="243" d="M208 724 Q244 724 244 686 Q244 664 231.5 650 Q219 636 198 636 Q181 636 171 646 Q161 656 161 674 Q161 696 174 710 Q187 724 208 724 Z M98 0 Q53 -37 29 -73.5 Q5 -110 5 -139 Q5 -173 45 -173 Q80 -173 115 -153 L128 -190 Q86 -217 36 -217 Q-3 -217 -24 -198.5 Q-45 -180 -45 -147 Q-45 -111 -21 -72 Q3 -33 43 0 L146 530 L201 530 L98 0 Z " />
<glyph glyph-name="itilde" unicode="&#x129;" horiz-adv-x="244" d="M249 620 Q224 620 211 631.5 Q198 643 186 666 Q177 682 170 689.5 Q163 697 151 697 Q132 697 117 677 Q102 657 93 620 L56 624 Q66 681 92 712 Q118 743 155 743 Q179 743 191.5 731.5 Q204 720 217 698 Q226 682 233 674 Q240 666 253 666 Q272 666 287 686 Q302 706 312 743 L349 739 Q338 681 312 650.5 Q286 620 249 620 Z M146 530 L201 530 L98 0 L43 0 L146 530 Z " />
<glyph glyph-name="j" unicode="j" horiz-adv-x="243" d="M-118 -171 Q-65 -154 -33.5 -130.5 Q-2 -107 17 -70 Q36 -33 48 27 L146 530 L201 530 L102 23 Q88 -51 65 -95.5 Q42 -140 2.5 -168.5 Q-37 -197 -105 -219 L-118 -171 Z M198 636 Q180 636 170.5 646 Q161 656 161 674 Q161 696 174 710 Q187 724 208 724 Q244 724 244 686 Q244 664 231.5 650 Q219 636 198 636 Z " />
<glyph glyph-name="uni0237" unicode="&#x237;" horiz-adv-x="243" d="M-118 -171 Q-65 -154 -33.5 -130.5 Q-2 -107 17 -70 Q36 -33 48 27 L146 530 L201 530 L102 23 Q88 -51 65 -95.5 Q42 -140 2.5 -168.5 Q-37 -197 -105 -219 L-118 -171 Z " />
<glyph glyph-name="jcircumflex" unicode="&#x135;" horiz-adv-x="243" d="M-118 -171 Q-65 -154 -33.5 -130.5 Q-2 -107 17 -70 Q36 -33 48 27 L146 530 L201 530 L102 23 Q88 -51 65 -95.5 Q42 -140 2.5 -168.5 Q-37 -197 -105 -219 L-118 -171 Z M319 623 L318 615 L277 615 L215 740 L104 615 L60 615 L61 623 L194 784 L250 784 L319 623 Z " />
<glyph glyph-name="k" unicode="k" horiz-adv-x="499" d="M272 302 L424 0 L361 0 L230 263 L129 171 L96 0 L41 0 L191 770 L246 770 L143 244 L448 530 L518 530 L272 302 Z " />
<glyph glyph-name="kcommaaccent" unicode="&#x137;" horiz-adv-x="499" d="M272 302 L424 0 L361 0 L230 263 L129 171 L96 0 L41 0 L191 770 L246 770 L143 244 L448 530 L518 530 L272 302 Z M97 -243 Q130 -214 146.5 -186.5 Q163 -159 172 -116 Q174 -102 176 -84 L230 -88 Q230 -94 226 -124 Q217 -168 192 -202.5 Q167 -237 118 -271 L97 -243 Z " />
<glyph glyph-name="kgreenlandic" unicode="&#x138;" horiz-adv-x="499" d="M272 302 L424 0 L361 0 L230 263 L129 171 L96 0 L41 0 L144 530 L199 530 L143 244 L448 530 L518 530 L272 302 Z " />
<glyph glyph-name="l" unicode="l" horiz-adv-x="275" d="M138 -5 Q98 -5 76.5 14 Q55 33 55 67 Q55 79 58 92 L191 770 L246 770 L113 92 Q111 80 111 75 Q111 59 120.5 51.5 Q130 44 150 44 Q171 44 190 48 L189 2 Q159 -5 138 -5 Z " />
<glyph glyph-name="lacute" unicode="&#x13a;" horiz-adv-x="275" d="M175 837 L353 972 L427 972 L426 962 L228 827 L174 827 L175 837 Z M138 -5 Q98 -5 76.5 14 Q55 33 55 67 Q55 79 58 92 L191 770 L246 770 L113 92 Q111 80 111 75 Q111 59 120.5 51.5 Q130 44 150 44 Q171 44 190 48 L189 2 Q159 -5 138 -5 Z " />
<glyph glyph-name="lcaron" unicode="&#x13e;" horiz-adv-x="273" d="M87 -5 Q47 -5 25.5 13 Q4 31 4 66 Q4 79 7 92 L139 770 L194 770 L62 92 Q60 78 60 74 Q60 58 69.5 51 Q79 44 99 44 Q121 44 138 48 L138 2 Q107 -5 87 -5 Z M284 770 L340 770 L339 762 L280 560 L243 560 L284 770 Z " />
<glyph glyph-name="lcommaaccent" unicode="&#x13c;" horiz-adv-x="275" d="M138 -5 Q98 -5 76.5 14 Q55 33 55 67 Q55 79 58 92 L191 770 L246 770 L113 92 Q111 80 111 75 Q111 59 120.5 51.5 Q130 44 150 44 Q171 44 190 48 L189 2 Q159 -5 138 -5 Z M-15 -243 Q18 -214 34.5 -186.5 Q51 -159 60 -116 Q62 -102 64 -84 L118 -88 Q118 -94 114 -124 Q105 -168 80 -202.5 Q55 -237 6 -271 L-15 -243 Z " />
<glyph glyph-name="ldot" unicode="&#x140;" horiz-adv-x="331" d="M114 -5 Q74 -5 52.5 14 Q31 33 31 67 Q31 79 34 92 L167 770 L222 770 L89 92 Q87 80 87 75 Q87 59 96.5 51.5 Q106 44 126 44 Q147 44 166 48 L165 2 Q135 -5 114 -5 Z M278 343 Q261 343 251 353 Q241 363 241 381 Q241 403 254 417 Q267 431 288 431 Q306 431 315.5 421.5 Q325 412 325 393 Q325 371 312 357 Q299 343 278 343 Z " />
<glyph glyph-name="uni1E37" unicode="&#x1e37;" horiz-adv-x="275" d="M138 -5 Q98 -5 76.5 14 Q55 33 55 67 Q55 79 58 92 L191 770 L246 770 L113 92 Q111 80 111 75 Q111 59 120.5 51.5 Q130 44 150 44 Q171 44 190 48 L189 2 Q159 -5 138 -5 Z M74 -194 Q57 -194 47 -184 Q37 -174 37 -156 Q37 -134 49.5 -119.5 Q62 -105 83 -105 Q101 -105 110.5 -115 Q120 -125 120 -143 Q120 -165 107.5 -179.5 Q95 -194 74 -194 Z " />
<glyph glyph-name="uni1E39" unicode="&#x1e39;" horiz-adv-x="275" d="M143 909 L348 909 L339 864 L134 864 L143 909 Z M138 -5 Q98 -5 76.5 14 Q55 33 55 67 Q55 79 58 92 L191 770 L246 770 L113 92 Q111 80 111 75 Q111 59 120.5 51.5 Q130 44 150 44 Q171 44 190 48 L189 2 Q159 -5 138 -5 Z M74 -194 Q57 -194 47 -184 Q37 -174 37 -156 Q37 -134 49.5 -119.5 Q62 -105 83 -105 Q101 -105 110.5 -115 Q120 -125 120 -143 Q120 -165 107.5 -179.5 Q95 -194 74 -194 Z " />
<glyph glyph-name="uni1E3B" unicode="&#x1e3b;" horiz-adv-x="275" d="M138 -5 Q98 -5 76.5 14 Q55 33 55 67 Q55 79 58 92 L191 770 L246 770 L113 92 Q111 80 111 75 Q111 59 120.5 51.5 Q130 44 150 44 Q171 44 190 48 L189 2 Q159 -5 138 -5 Z M-16 -106 L189 -106 L180 -151 L-25 -151 L-16 -106 Z " />
<glyph glyph-name="lslash" unicode="&#x142;" horiz-adv-x="317" d="M137 92 Q135 80 135 75 Q135 59 144.5 51.5 Q154 44 174 44 Q195 44 214 48 L213 2 Q183 -5 162 -5 Q122 -5 100.5 14 Q79 33 79 67 Q79 79 82 92 L135 360 L48 300 L39 300 L48 352 L145 416 L215 770 L270 770 L209 458 L316 531 L324 531 L315 479 L198 402 L137 92 Z " />
<glyph glyph-name="m" unicode="m" horiz-adv-x="841" d="M656 543 Q716 543 748.5 511.5 Q781 480 781 424 Q781 406 776 379 L702 0 L647 0 L721 379 Q725 405 725 414 Q725 490 642 490 Q602 490 563 473 Q524 456 479 419 Q477 393 474 380 L400 0 L345 0 L419 379 Q423 405 423 414 Q423 490 338 490 Q298 490 259.5 473.5 Q221 457 178 422 L96 0 L41 0 L144 530 L195 530 L183 471 Q263 543 352 543 Q402 543 433.5 521.5 Q465 500 475 460 Q563 543 656 543 Z " />
<glyph glyph-name="uni1E43" unicode="&#x1e43;" horiz-adv-x="841" d="M656 543 Q716 543 748.5 511.5 Q781 480 781 424 Q781 406 776 379 L702 0 L647 0 L721 379 Q725 405 725 414 Q725 490 642 490 Q602 490 563 473 Q524 456 479 419 Q477 393 474 380 L400 0 L345 0 L419 379 Q423 405 423 414 Q423 490 338 490 Q298 490 259.5 473.5 Q221 457 178 422 L96 0 L41 0 L144 530 L195 530 L183 471 Q263 543 352 543 Q402 543 433.5 521.5 Q465 500 475 460 Q563 543 656 543 Z M338 -194 Q321 -194 311 -184 Q301 -174 301 -156 Q301 -134 313.5 -119.5 Q326 -105 347 -105 Q365 -105 374.5 -115 Q384 -125 384 -143 Q384 -165 371.5 -179.5 Q359 -194 338 -194 Z " />
<glyph glyph-name="n" unicode="n" horiz-adv-x="548" d="M356 543 Q419 543 453 511 Q487 479 487 422 Q487 399 483 379 L409 0 L354 0 L428 379 Q432 403 431 413 Q431 490 344 490 Q301 490 261 473.5 Q221 457 178 422 L96 0 L41 0 L144 530 L195 530 L183 471 Q261 543 356 543 Z " />
<glyph glyph-name="nacute" unicode="&#x144;" horiz-adv-x="548" d="M356 543 Q419 543 453 511 Q487 479 487 422 Q487 399 483 379 L409 0 L354 0 L428 379 Q432 403 431 413 Q431 490 344 490 Q301 490 261 473.5 Q221 457 178 422 L96 0 L41 0 L144 530 L195 530 L183 471 Q261 543 356 543 Z M302 623 L436 784 L503 784 L502 776 L347 615 L302 615 L302 623 Z " />
<glyph glyph-name="napostrophe" unicode="&#x149;" horiz-adv-x="548" d="M356 543 Q419 543 453 511 Q487 479 487 422 Q487 399 483 379 L409 0 L354 0 L428 379 Q432 403 431 413 Q431 490 344 490 Q301 490 261 473.5 Q221 457 178 422 L96 0 L41 0 L144 530 L195 530 L183 471 Q261 543 356 543 Z M-40 576 Q1 611 22.5 647 Q44 683 54 733 Q59 756 60 772 L111 767 Q109 746 105 724 Q94 671 65 629.5 Q36 588 -19 549 L-40 576 Z " />
<glyph glyph-name="ncaron" unicode="&#x148;" horiz-adv-x="548" d="M356 543 Q419 543 453 511 Q487 479 487 422 Q487 399 483 379 L409 0 L354 0 L428 379 Q432 403 431 413 Q431 490 344 490 Q301 490 261 473.5 Q221 457 178 422 L96 0 L41 0 L144 530 L195 530 L183 471 Q261 543 356 543 Z M506 784 L505 776 L373 615 L317 615 L247 776 L248 784 L290 784 L352 660 L462 784 L506 784 Z " />
<glyph glyph-name="ncommaaccent" unicode="&#x146;" horiz-adv-x="548" d="M356 543 Q419 543 453 511 Q487 479 487 422 Q487 399 483 379 L409 0 L354 0 L428 379 Q432 403 431 413 Q431 490 344 490 Q301 490 261 473.5 Q221 457 178 422 L96 0 L41 0 L144 530 L195 530 L183 471 Q261 543 356 543 Z M103 -243 Q136 -214 152.5 -186.5 Q169 -159 178 -116 Q180 -102 182 -84 L236 -88 Q236 -94 232 -124 Q223 -168 198 -202.5 Q173 -237 124 -271 L103 -243 Z " />
<glyph glyph-name="uni1E45" unicode="&#x1e45;" horiz-adv-x="548" d="M356 543 Q419 543 453 511 Q487 479 487 422 Q487 399 483 379 L409 0 L354 0 L428 379 Q432 403 431 413 Q431 490 344 490 Q301 490 261 473.5 Q221 457 178 422 L96 0 L41 0 L144 530 L195 530 L183 471 Q261 543 356 543 Z M353 636 Q335 636 325.5 646 Q316 656 316 674 Q316 696 329 710 Q342 724 363 724 Q399 724 399 686 Q399 664 386.5 650 Q374 636 353 636 Z " />
<glyph glyph-name="uni1E47" unicode="&#x1e47;" horiz-adv-x="548" d="M356 543 Q419 543 453 511 Q487 479 487 422 Q487 399 483 379 L409 0 L354 0 L428 379 Q432 403 431 413 Q431 490 344 490 Q301 490 261 473.5 Q221 457 178 422 L96 0 L41 0 L144 530 L195 530 L183 471 Q261 543 356 543 Z M193 -194 Q176 -194 166 -184 Q156 -174 156 -156 Q156 -134 168.5 -119.5 Q181 -105 202 -105 Q220 -105 229.5 -115 Q239 -125 239 -143 Q239 -165 226.5 -179.5 Q214 -194 193 -194 Z " />
<glyph glyph-name="uni1E49" unicode="&#x1e49;" horiz-adv-x="548" d="M356 543 Q419 543 453 511 Q487 479 487 422 Q487 399 483 379 L409 0 L354 0 L428 379 Q432 403 431 413 Q431 490 344 490 Q301 490 261 473.5 Q221 457 178 422 L96 0 L41 0 L144 530 L195 530 L183 471 Q261 543 356 543 Z M73 -114 L335 -114 L326 -159 L64 -159 L73 -114 Z " />
<glyph glyph-name="ntilde" unicode="&#xf1;" horiz-adv-x="548" d="M356 543 Q419 543 453 511 Q487 479 487 422 Q487 399 483 379 L409 0 L354 0 L428 379 Q432 403 431 413 Q431 490 344 490 Q301 490 261 473.5 Q221 457 178 422 L96 0 L41 0 L144 530 L195 530 L183 471 Q261 543 356 543 Z M195 624 Q207 681 234.5 712 Q262 743 300 743 Q326 743 341.5 731 Q357 719 373 697 Q384 681 393.5 673 Q403 665 416 665 Q438 665 455 685 Q472 705 483 743 L520 739 Q507 682 479.5 651 Q452 620 414 620 Q388 620 372.5 632 Q357 644 340 666 Q327 683 318.5 690.5 Q310 698 297 698 Q255 698 233 620 L195 624 Z " />
<glyph glyph-name="o" unicode="o" horiz-adv-x="524" d="M209 -12 Q131 -12 89 34.5 Q47 81 47 168 Q47 267 76.5 352.5 Q106 438 166.5 490.5 Q227 543 315 543 Q393 543 435.5 496 Q478 449 478 362 Q478 263 448 178 Q418 93 357.5 40.5 Q297 -12 209 -12 Z M216 36 Q282 36 328.5 83 Q375 130 398 203.5 Q421 277 421 357 Q421 425 392.5 459.5 Q364 494 308 494 Q242 494 195.5 447 Q149 400 126 326.5 Q103 253 103 173 Q103 106 132 71 Q161 36 216 36 Z " />
<glyph glyph-name="oacute" unicode="&#xf3;" horiz-adv-x="524" d="M209 -12 Q131 -12 89 34.5 Q47 81 47 168 Q47 267 76.5 352.5 Q106 438 166.5 490.5 Q227 543 315 543 Q393 543 435.5 496 Q478 449 478 362 Q478 263 448 178 Q418 93 357.5 40.5 Q297 -12 209 -12 Z M216 36 Q282 36 328.5 83 Q375 130 398 203.5 Q421 277 421 357 Q421 425 392.5 459.5 Q364 494 308 494 Q242 494 195.5 447 Q149 400 126 326.5 Q103 253 103 173 Q103 106 132 71 Q161 36 216 36 Z M287 623 L421 784 L488 784 L487 776 L332 615 L287 615 L287 623 Z " />
<glyph glyph-name="uni01D2" unicode="&#x1d2;" horiz-adv-x="524" d="M209 -12 Q131 -12 89 34.5 Q47 81 47 168 Q47 267 76.5 352.5 Q106 438 166.5 490.5 Q227 543 315 543 Q393 543 435.5 496 Q478 449 478 362 Q478 263 448 178 Q418 93 357.5 40.5 Q297 -12 209 -12 Z M216 36 Q282 36 328.5 83 Q375 130 398 203.5 Q421 277 421 357 Q421 425 392.5 459.5 Q364 494 308 494 Q242 494 195.5 447 Q149 400 126 326.5 Q103 253 103 173 Q103 106 132 71 Q161 36 216 36 Z M491 784 L490 776 L358 615 L302 615 L232 776 L233 784 L275 784 L337 660 L447 784 L491 784 Z " />
<glyph glyph-name="ocircumflex" unicode="&#xf4;" horiz-adv-x="524" d="M209 -12 Q131 -12 89 34.5 Q47 81 47 168 Q47 267 76.5 352.5 Q106 438 166.5 490.5 Q227 543 315 543 Q393 543 435.5 496 Q478 449 478 362 Q478 263 448 178 Q418 93 357.5 40.5 Q297 -12 209 -12 Z M216 36 Q282 36 328.5 83 Q375 130 398 203.5 Q421 277 421 357 Q421 425 392.5 459.5 Q364 494 308 494 Q242 494 195.5 447 Q149 400 126 326.5 Q103 253 103 173 Q103 106 132 71 Q161 36 216 36 Z M459 623 L458 615 L417 615 L355 740 L244 615 L200 615 L201 623 L334 784 L390 784 L459 623 Z " />
<glyph glyph-name="uni1ED1" unicode="&#x1ed1;" horiz-adv-x="524" d="M612 857 L611 849 L491 720 L450 720 L451 728 L557 857 L612 857 Z M243 615 L199 615 L200 623 L330 764 L386 764 L462 623 L460 615 L419 615 L352 723 L243 615 Z M315 543 Q393 543 435.5 496 Q478 449 478 362 Q478 263 448 178 Q418 93 357.5 40.5 Q297 -12 209 -12 Q131 -12 89 34.5 Q47 81 47 168 Q47 267 76.5 352.5 Q106 438 166.5 490.5 Q227 543 315 543 Z M216 36 Q282 36 328.5 83 Q375 130 398 203.5 Q421 277 421 357 Q421 425 392.5 459.5 Q364 494 308 494 Q242 494 195.5 447 Q149 400 126 326.5 Q103 253 103 173 Q103 106 132 71 Q161 36 216 36 Z " />
<glyph glyph-name="uni1ED9" unicode="&#x1ed9;" horiz-adv-x="524" d="M209 -12 Q131 -12 89 34.5 Q47 81 47 168 Q47 267 76.5 352.5 Q106 438 166.5 490.5 Q227 543 315 543 Q393 543 435.5 496 Q478 449 478 362 Q478 263 448 178 Q418 93 357.5 40.5 Q297 -12 209 -12 Z M216 36 Q282 36 328.5 83 Q375 130 398 203.5 Q421 277 421 357 Q421 425 392.5 459.5 Q364 494 308 494 Q242 494 195.5 447 Q149 400 126 326.5 Q103 253 103 173 Q103 106 132 71 Q161 36 216 36 Z M178 -194 Q161 -194 151 -184 Q141 -174 141 -156 Q141 -134 153.5 -119.5 Q166 -105 187 -105 Q205 -105 214.5 -115 Q224 -125 224 -143 Q224 -165 211.5 -179.5 Q199 -194 178 -194 Z M459 623 L458 615 L417 615 L355 740 L244 615 L200 615 L201 623 L334 784 L390 784 L459 623 Z " />
<glyph glyph-name="uni1ED3" unicode="&#x1ed3;" horiz-adv-x="524" d="M212 720 L147 849 L148 857 L199 857 L249 728 L248 720 L212 720 Z M200 623 L330 764 L386 764 L462 623 L460 615 L419 615 L352 723 L243 615 L199 615 L200 623 Z M315 543 Q393 543 435.5 496 Q478 449 478 362 Q478 263 448 178 Q418 93 357.5 40.5 Q297 -12 209 -12 Q131 -12 89 34.5 Q47 81 47 168 Q47 267 76.5 352.5 Q106 438 166.5 490.5 Q227 543 315 543 Z M216 36 Q282 36 328.5 83 Q375 130 398 203.5 Q421 277 421 357 Q421 425 392.5 459.5 Q364 494 308 494 Q242 494 195.5 447 Q149 400 126 326.5 Q103 253 103 173 Q103 106 132 71 Q161 36 216 36 Z " />
<glyph glyph-name="uni1ED5" unicode="&#x1ed5;" horiz-adv-x="524" d="M512 882 Q543 882 559.5 868 Q576 854 576 828 Q576 803 564.5 791 Q553 779 531 768 Q514 759 506 751.5 Q498 744 497 731 Q496 727 496 719 L454 722 Q454 731 455 738 Q457 762 468.5 773 Q480 784 501 795 Q516 801 523 807.5 Q530 814 530 825 Q530 844 504 844 Q476 844 443 826 L430 860 Q469 882 512 882 Z M243 615 L199 615 L200 623 L330 764 L386 764 L462 623 L460 615 L419 615 L352 723 L243 615 Z M315 543 Q393 543 435.5 496 Q478 449 478 362 Q478 263 448 178 Q418 93 357.5 40.5 Q297 -12 209 -12 Q131 -12 89 34.5 Q47 81 47 168 Q47 267 76.5 352.5 Q106 438 166.5 490.5 Q227 543 315 543 Z M216 36 Q282 36 328.5 83 Q375 130 398 203.5 Q421 277 421 357 Q421 425 392.5 459.5 Q364 494 308 494 Q242 494 195.5 447 Q149 400 126 326.5 Q103 253 103 173 Q103 106 132 71 Q161 36 216 36 Z " />
<glyph glyph-name="uni1ED7" unicode="&#x1ed7;" horiz-adv-x="524" d="M521 902 Q511 851 485.5 823 Q460 795 423 795 Q398 795 385.5 805 Q373 815 361 835 Q353 850 345.5 857 Q338 864 325 864 Q284 864 265 795 L230 799 Q240 850 265.5 878 Q291 906 328 906 Q353 906 365.5 896 Q378 886 390 866 Q399 852 406.5 844.5 Q414 837 427 837 Q467 837 486 906 L521 902 Z M243 615 L199 615 L200 623 L330 764 L386 764 L462 623 L460 615 L419 615 L352 723 L243 615 Z M315 543 Q393 543 435.5 496 Q478 449 478 362 Q478 263 448 178 Q418 93 357.5 40.5 Q297 -12 209 -12 Q131 -12 89 34.5 Q47 81 47 168 Q47 267 76.5 352.5 Q106 438 166.5 490.5 Q227 543 315 543 Z M216 36 Q282 36 328.5 83 Q375 130 398 203.5 Q421 277 421 357 Q421 425 392.5 459.5 Q364 494 308 494 Q242 494 195.5 447 Q149 400 126 326.5 Q103 253 103 173 Q103 106 132 71 Q161 36 216 36 Z " />
<glyph glyph-name="odieresis" unicode="&#xf6;" horiz-adv-x="524" d="M251 636 Q234 636 225 645.5 Q216 655 216 673 Q216 694 228 707.5 Q240 721 260 721 Q277 721 286 711.5 Q295 702 295 684 Q295 663 283 649.5 Q271 636 251 636 Z M425 636 Q408 636 399 645.5 Q390 655 390 673 Q390 694 402 707.5 Q414 721 434 721 Q451 721 460 711.5 Q469 702 469 684 Q469 663 457 649.5 Q445 636 425 636 Z M209 -12 Q131 -12 89 34.5 Q47 81 47 168 Q47 267 76.5 352.5 Q106 438 166.5 490.5 Q227 543 315 543 Q393 543 435.5 496 Q478 449 478 362 Q478 263 448 178 Q418 93 357.5 40.5 Q297 -12 209 -12 Z M216 36 Q282 36 328.5 83 Q375 130 398 203.5 Q421 277 421 357 Q421 425 392.5 459.5 Q364 494 308 494 Q242 494 195.5 447 Q149 400 126 326.5 Q103 253 103 173 Q103 106 132 71 Q161 36 216 36 Z " />
<glyph glyph-name="uni1ECD" unicode="&#x1ecd;" horiz-adv-x="524" d="M209 -12 Q131 -12 89 34.5 Q47 81 47 168 Q47 267 76.5 352.5 Q106 438 166.5 490.5 Q227 543 315 543 Q393 543 435.5 496 Q478 449 478 362 Q478 263 448 178 Q418 93 357.5 40.5 Q297 -12 209 -12 Z M216 36 Q282 36 328.5 83 Q375 130 398 203.5 Q421 277 421 357 Q421 425 392.5 459.5 Q364 494 308 494 Q242 494 195.5 447 Q149 400 126 326.5 Q103 253 103 173 Q103 106 132 71 Q161 36 216 36 Z M178 -194 Q161 -194 151 -184 Q141 -174 141 -156 Q141 -134 153.5 -119.5 Q166 -105 187 -105 Q205 -105 214.5 -115 Q224 -125 224 -143 Q224 -165 211.5 -179.5 Q199 -194 178 -194 Z " />
<glyph glyph-name="ograve" unicode="&#xf2;" horiz-adv-x="524" d="M209 -12 Q131 -12 89 34.5 Q47 81 47 168 Q47 267 76.5 352.5 Q106 438 166.5 490.5 Q227 543 315 543 Q393 543 435.5 496 Q478 449 478 362 Q478 263 448 178 Q418 93 357.5 40.5 Q297 -12 209 -12 Z M216 36 Q282 36 328.5 83 Q375 130 398 203.5 Q421 277 421 357 Q421 425 392.5 459.5 Q364 494 308 494 Q242 494 195.5 447 Q149 400 126 326.5 Q103 253 103 173 Q103 106 132 71 Q161 36 216 36 Z M250 776 L251 784 L312 784 L378 623 L377 615 L334 615 L250 776 Z " />
<glyph glyph-name="uni1ECF" unicode="&#x1ecf;" horiz-adv-x="524" d="M209 -12 Q131 -12 89 34.5 Q47 81 47 168 Q47 267 76.5 352.5 Q106 438 166.5 490.5 Q227 543 315 543 Q393 543 435.5 496 Q478 449 478 362 Q478 263 448 178 Q418 93 357.5 40.5 Q297 -12 209 -12 Z M216 36 Q282 36 328.5 83 Q375 130 398 203.5 Q421 277 421 357 Q421 425 392.5 459.5 Q364 494 308 494 Q242 494 195.5 447 Q149 400 126 326.5 Q103 253 103 173 Q103 106 132 71 Q161 36 216 36 Z M308 616 L310 634 Q312 657 324 670 Q336 683 358 698 Q374 709 382 717 Q390 725 390 737 Q390 758 362 758 Q332 758 297 737 L285 773 Q325 798 370 798 Q402 798 419 783.5 Q436 769 436 741 Q436 716 424.5 702 Q413 688 391 674 Q373 662 363.5 652 Q354 642 353 626 Q352 623 352 613 L308 616 Z " />
<glyph glyph-name="ohorn" unicode="&#x1a1;" horiz-adv-x="533" d="M602 672 Q602 646 595 609 Q583 548 546.5 521.5 Q510 495 437 493 Q478 446 478 358 Q478 261 448 176.5 Q418 92 357 40 Q296 -12 207 -12 Q130 -12 88.5 35 Q47 82 47 173 Q47 268 76.5 352.5 Q106 437 166.5 490 Q227 543 315 543 L316 543 Q336 543 366 537 Q369 536 386.5 533 Q404 530 430 530 Q484 530 511 549 Q538 568 548 617 Q551 634 554 675 L602 672 Z M214 36 Q281 36 328 83 Q375 130 398 202.5 Q421 275 421 352 Q421 494 310 494 Q243 494 196 447 Q149 400 126 327.5 Q103 255 103 178 Q103 36 214 36 Z " />
<glyph glyph-name="uni1EDB" unicode="&#x1edb;" horiz-adv-x="533" d="M602 672 Q602 646 595 609 Q583 548 546.5 521.5 Q510 495 437 493 Q478 446 478 358 Q478 261 448 176.5 Q418 92 357 40 Q296 -12 207 -12 Q130 -12 88.5 35 Q47 82 47 173 Q47 268 76.5 352.5 Q106 437 166.5 490 Q227 543 315 543 L316 543 Q336 543 366 537 Q369 536 386.5 533 Q404 530 430 530 Q484 530 511 549 Q538 568 548 617 Q551 634 554 675 L602 672 Z M214 36 Q281 36 328 83 Q375 130 398 202.5 Q421 275 421 352 Q421 494 310 494 Q243 494 196 447 Q149 400 126 327.5 Q103 255 103 178 Q103 36 214 36 Z M286 623 L420 784 L487 784 L486 776 L331 615 L286 615 L286 623 Z " />
<glyph glyph-name="uni1EE3" unicode="&#x1ee3;" horiz-adv-x="533" d="M602 672 Q602 646 595 609 Q583 548 546.5 521.5 Q510 495 437 493 Q478 446 478 358 Q478 261 448 176.5 Q418 92 357 40 Q296 -12 207 -12 Q130 -12 88.5 35 Q47 82 47 173 Q47 268 76.5 352.5 Q106 437 166.5 490 Q227 543 315 543 L316 543 Q336 543 366 537 Q369 536 386.5 533 Q404 530 430 530 Q484 530 511 549 Q538 568 548 617 Q551 634 554 675 L602 672 Z M214 36 Q281 36 328 83 Q375 130 398 202.5 Q421 275 421 352 Q421 494 310 494 Q243 494 196 447 Q149 400 126 327.5 Q103 255 103 178 Q103 36 214 36 Z M177 -194 Q160 -194 150 -184 Q140 -174 140 -156 Q140 -134 152.5 -119.5 Q165 -105 186 -105 Q204 -105 213.5 -115 Q223 -125 223 -143 Q223 -165 210.5 -179.5 Q198 -194 177 -194 Z " />
<glyph glyph-name="uni1EDD" unicode="&#x1edd;" horiz-adv-x="533" d="M602 672 Q602 646 595 609 Q583 548 546.5 521.5 Q510 495 437 493 Q478 446 478 358 Q478 261 448 176.5 Q418 92 357 40 Q296 -12 207 -12 Q130 -12 88.5 35 Q47 82 47 173 Q47 268 76.5 352.5 Q106 437 166.5 490 Q227 543 315 543 L316 543 Q336 543 366 537 Q369 536 386.5 533 Q404 530 430 530 Q484 530 511 549 Q538 568 548 617 Q551 634 554 675 L602 672 Z M214 36 Q281 36 328 83 Q375 130 398 202.5 Q421 275 421 352 Q421 494 310 494 Q243 494 196 447 Q149 400 126 327.5 Q103 255 103 178 Q103 36 214 36 Z M250 776 L251 784 L312 784 L378 623 L377 615 L334 615 L250 776 Z " />
<glyph glyph-name="uni1EDF" unicode="&#x1edf;" horiz-adv-x="533" d="M602 672 Q602 646 595 609 Q583 548 546.5 521.5 Q510 495 437 493 Q478 446 478 358 Q478 261 448 176.5 Q418 92 357 40 Q296 -12 207 -12 Q130 -12 88.5 35 Q47 82 47 173 Q47 268 76.5 352.5 Q106 437 166.5 490 Q227 543 315 543 L316 543 Q336 543 366 537 Q369 536 386.5 533 Q404 530 430 530 Q484 530 511 549 Q538 568 548 617 Q551 634 554 675 L602 672 Z M214 36 Q281 36 328 83 Q375 130 398 202.5 Q421 275 421 352 Q421 494 310 494 Q243 494 196 447 Q149 400 126 327.5 Q103 255 103 178 Q103 36 214 36 Z M307 616 L309 634 Q311 657 323 670 Q335 683 357 698 Q373 709 381 717 Q389 725 389 737 Q389 758 361 758 Q331 758 296 737 L284 773 Q324 798 369 798 Q401 798 418 783.5 Q435 769 435 741 Q435 716 423.5 702 Q412 688 390 674 Q372 662 362.5 652 Q353 642 352 626 Q351 623 351 613 L307 616 Z " />
<glyph glyph-name="uni1EE1" unicode="&#x1ee1;" horiz-adv-x="533" d="M602 672 Q602 646 595 609 Q583 548 546.5 521.5 Q510 495 437 493 Q478 446 478 358 Q478 261 448 176.5 Q418 92 357 40 Q296 -12 207 -12 Q130 -12 88.5 35 Q47 82 47 173 Q47 268 76.5 352.5 Q106 437 166.5 490 Q227 543 315 543 L316 543 Q336 543 366 537 Q369 536 386.5 533 Q404 530 430 530 Q484 530 511 549 Q538 568 548 617 Q551 634 554 675 L602 672 Z M214 36 Q281 36 328 83 Q375 130 398 202.5 Q421 275 421 352 Q421 494 310 494 Q243 494 196 447 Q149 400 126 327.5 Q103 255 103 178 Q103 36 214 36 Z M180 624 Q192 681 219.5 712 Q247 743 285 743 Q311 743 326.5 731 Q342 719 358 697 Q369 681 378.5 673 Q388 665 401 665 Q423 665 440 685 Q457 705 468 743 L505 739 Q492 682 464.5 651 Q437 620 399 620 Q373 620 357.5 632 Q342 644 325 666 Q312 683 303.5 690.5 Q295 698 282 698 Q240 698 218 620 L180 624 Z " />
<glyph glyph-name="ohungarumlaut" unicode="&#x151;" horiz-adv-x="524" d="M209 -12 Q131 -12 89 34.5 Q47 81 47 168 Q47 267 76.5 352.5 Q106 438 166.5 490.5 Q227 543 315 543 Q393 543 435.5 496 Q478 449 478 362 Q478 263 448 178 Q418 93 357.5 40.5 Q297 -12 209 -12 Z M216 36 Q282 36 328.5 83 Q375 130 398 203.5 Q421 277 421 357 Q421 425 392.5 459.5 Q364 494 308 494 Q242 494 195.5 447 Q149 400 126 326.5 Q103 253 103 173 Q103 106 132 71 Q161 36 216 36 Z M232 623 L327 784 L386 784 L386 776 L271 615 L231 615 L232 623 Z M369 623 L464 784 L523 784 L523 776 L408 615 L368 615 L369 623 Z " />
<glyph glyph-name="omacron" unicode="&#x14d;" horiz-adv-x="524" d="M209 -12 Q131 -12 89 34.5 Q47 81 47 168 Q47 267 76.5 352.5 Q106 438 166.5 490.5 Q227 543 315 543 Q393 543 435.5 496 Q478 449 478 362 Q478 263 448 178 Q418 93 357.5 40.5 Q297 -12 209 -12 Z M216 36 Q282 36 328.5 83 Q375 130 398 203.5 Q421 277 421 357 Q421 425 392.5 459.5 Q364 494 308 494 Q242 494 195.5 447 Q149 400 126 326.5 Q103 253 103 173 Q103 106 132 71 Q161 36 216 36 Z M214 693 L476 693 L467 648 L205 648 L214 693 Z " />
<glyph glyph-name="oslash" unicode="&#xf8;" horiz-adv-x="524" d="M550 536 L464 447 Q478 410 478 362 Q478 263 448 178 Q418 93 357.5 40.5 Q297 -12 209 -12 Q120 -12 79 47 L24 -10 L-27 -10 L-26 -2 L59 86 Q47 121 47 168 Q47 267 76.5 352.5 Q106 438 166.5 490.5 Q227 543 315 543 Q401 543 444 485 L501 544 L551 544 L550 536 Z M308 494 Q242 494 195 447 Q148 400 125 326 Q102 252 102 173 Q102 152 105 134 L404 444 Q375 494 308 494 Z M216 36 Q282 36 329 83 Q376 130 399 204 Q422 278 422 357 Q422 380 419 399 L119 89 Q148 36 216 36 Z " />
<glyph glyph-name="otilde" unicode="&#xf5;" horiz-adv-x="524" d="M209 -12 Q131 -12 89 34.5 Q47 81 47 168 Q47 267 76.5 352.5 Q106 438 166.5 490.5 Q227 543 315 543 Q393 543 435.5 496 Q478 449 478 362 Q478 263 448 178 Q418 93 357.5 40.5 Q297 -12 209 -12 Z M216 36 Q282 36 328.5 83 Q375 130 398 203.5 Q421 277 421 357 Q421 425 392.5 459.5 Q364 494 308 494 Q242 494 195.5 447 Q149 400 126 326.5 Q103 253 103 173 Q103 106 132 71 Q161 36 216 36 Z M180 624 Q192 681 219.5 712 Q247 743 285 743 Q311 743 326.5 731 Q342 719 358 697 Q369 681 378.5 673 Q388 665 401 665 Q423 665 440 685 Q457 705 468 743 L505 739 Q492 682 464.5 651 Q437 620 399 620 Q373 620 357.5 632 Q342 644 325 666 Q312 683 303.5 690.5 Q295 698 282 698 Q240 698 218 620 L180 624 Z " />
<glyph glyph-name="oe" unicode="&#x153;" horiz-adv-x="828" d="M455 255 Q449 221 449 188 Q449 40 574 40 Q644 40 711 82 L730 39 Q661 -11 569 -11 Q503 -11 461.5 19 Q420 49 404 108 Q371 51 321 19.5 Q271 -12 205 -12 Q129 -12 88 34.5 Q47 81 47 167 Q47 266 76.5 351.5 Q106 437 165.5 490 Q225 543 311 543 Q372 543 410 510.5 Q448 478 459 416 Q499 476 553.5 509.5 Q608 543 673 543 Q736 543 772 509.5 Q808 476 808 419 Q808 374 786 337 Q764 300 724 279 Q700 267 668.5 261 Q637 255 590 255 L455 255 Z M211 36 Q276 36 321.5 83 Q367 130 389.5 204 Q412 278 412 358 Q412 425 385 459.5 Q358 494 304 494 Q239 494 193.5 447 Q148 400 125.5 326 Q103 252 103 172 Q103 105 130.5 70.5 Q158 36 211 36 Z M670 493 Q599 493 545 438 Q491 383 466 300 L586 300 Q628 300 655.5 305.5 Q683 311 702 323 Q726 337 739.5 360.5 Q753 384 753 414 Q753 452 731.5 472.5 Q710 493 670 493 Z " />
<glyph glyph-name="p" unicode="p" horiz-adv-x="541" d="M347 543 Q419 543 457 495.5 Q495 448 495 359 Q495 265 465 179.5 Q435 94 377 41 Q319 -12 240 -12 Q196 -12 162 7 Q128 26 108 61 L56 -207 L1 -207 L144 530 L195 530 L181 461 Q256 543 347 543 Z M242 38 Q304 38 349 86 Q394 134 417 207.5 Q440 281 440 357 Q440 490 333 490 Q291 490 253.5 470.5 Q216 451 176 410 L117 108 Q136 74 169 56 Q202 38 242 38 Z " />
<glyph glyph-name="thorn" unicode="&#xfe;" horiz-adv-x="541" d="M347 543 Q419 543 457 495.5 Q495 448 495 359 Q495 265 465 179.5 Q435 94 377 41 Q319 -12 240 -12 Q196 -12 162 7 Q128 26 108 61 L56 -207 L1 -207 L144 530 L191 770 L246 770 L187 467 Q259 543 347 543 Z M242 38 Q304 38 349 86 Q394 134 417 207.5 Q440 281 440 357 Q440 490 333 490 Q291 490 253.5 470.5 Q216 451 176 410 L117 108 Q136 74 169 56 Q202 38 242 38 Z " />
<glyph glyph-name="q" unicode="q" horiz-adv-x="542" d="M501 530 L358 -207 L303 -207 L356 65 Q285 -12 195 -12 Q123 -12 84.5 35.5 Q46 83 46 171 Q46 265 76 350.5 Q106 436 164 489.5 Q222 543 301 543 Q347 543 382 523 Q417 503 436 466 L449 530 L501 530 Z M208 40 Q250 40 288 59.5 Q326 79 366 120 L425 422 Q405 456 372 474 Q339 492 299 492 Q237 492 192 444 Q147 396 124 322 Q101 248 101 172 Q101 107 128 73.5 Q155 40 208 40 Z " />
<glyph glyph-name="r" unicode="r" horiz-adv-x="369" d="M334 541 Q368 541 399 527 L379 476 Q348 486 318 486 Q280 486 244.5 465.5 Q209 445 174 402 L96 0 L41 0 L144 530 L195 530 L180 456 Q253 541 334 541 Z " />
<glyph glyph-name="racute" unicode="&#x155;" horiz-adv-x="369" d="M334 541 Q368 541 399 527 L379 476 Q348 486 318 486 Q280 486 244.5 465.5 Q209 445 174 402 L96 0 L41 0 L144 530 L195 530 L180 456 Q253 541 334 541 Z M242 623 L376 784 L443 784 L442 776 L287 615 L242 615 L242 623 Z " />
<glyph glyph-name="rcaron" unicode="&#x159;" horiz-adv-x="369" d="M334 541 Q368 541 399 527 L379 476 Q348 486 318 486 Q280 486 244.5 465.5 Q209 445 174 402 L96 0 L41 0 L144 530 L195 530 L180 456 Q253 541 334 541 Z M447 784 L446 776 L314 615 L258 615 L188 776 L189 784 L231 784 L293 660 L403 784 L447 784 Z " />
<glyph glyph-name="rcommaaccent" unicode="&#x157;" horiz-adv-x="369" d="M334 541 Q368 541 399 527 L379 476 Q348 486 318 486 Q280 486 244.5 465.5 Q209 445 174 402 L96 0 L41 0 L144 530 L195 530 L180 456 Q253 541 334 541 Z M-55 -243 Q-22 -214 -5.5 -186.5 Q11 -159 20 -116 Q22 -102 24 -84 L78 -88 Q78 -94 74 -124 Q65 -168 40 -202.5 Q15 -237 -34 -271 L-55 -243 Z " />
<glyph glyph-name="uni1E5B" unicode="&#x1e5b;" horiz-adv-x="369" d="M334 541 Q368 541 399 527 L379 476 Q348 486 318 486 Q280 486 244.5 465.5 Q209 445 174 402 L96 0 L41 0 L144 530 L195 530 L180 456 Q253 541 334 541 Z M34 -194 Q17 -194 7 -184 Q-3 -174 -3 -156 Q-3 -134 9.5 -119.5 Q22 -105 43 -105 Q61 -105 70.5 -115 Q80 -125 80 -143 Q80 -165 67.5 -179.5 Q55 -194 34 -194 Z " />
<glyph glyph-name="uni1E5D" unicode="&#x1e5d;" horiz-adv-x="369" d="M393 648 L188 648 L197 693 L402 693 L393 648 Z M180 456 Q253 541 334 541 Q368 541 399 527 L379 476 Q348 486 318 486 Q280 486 244.5 465.5 Q209 445 174 402 L96 0 L41 0 L144 530 L195 530 L180 456 Z M43 -105 Q61 -105 70.5 -115 Q80 -125 80 -143 Q80 -165 67.5 -179.5 Q55 -194 34 -194 Q17 -194 7 -184 Q-3 -174 -3 -156 Q-3 -134 9.5 -119.5 Q22 -105 43 -105 Z " />
<glyph glyph-name="uni1E5F" unicode="&#x1e5f;" horiz-adv-x="369" d="M334 541 Q368 541 399 527 L379 476 Q348 486 318 486 Q280 486 244.5 465.5 Q209 445 174 402 L96 0 L41 0 L144 530 L195 530 L180 456 Q253 541 334 541 Z M-56 -106 L149 -106 L140 -151 L-65 -151 L-56 -106 Z " />
<glyph glyph-name="s" unicode="s" horiz-adv-x="432" d="M158 -11 Q111 -11 68.5 2 Q26 15 -4 38 L22 80 Q78 37 159 37 Q227 37 267.5 72.5 Q308 108 308 167 Q308 194 292 211 Q276 228 242 237 L174 254 Q70 281 70 365 Q70 445 124.5 493.5 Q179 542 265 542 Q307 542 345.5 531 Q384 520 413 500 L387 457 Q326 492 262 492 Q200 492 162 460 Q124 428 124 374 Q124 348 140 331.5 Q156 315 190 306 L258 289 Q311 276 336.5 248 Q362 220 362 176 Q362 90 306 39.5 Q250 -11 158 -11 Z " />
<glyph glyph-name="sacute" unicode="&#x15b;" horiz-adv-x="432" d="M158 -11 Q111 -11 68.5 2 Q26 15 -4 38 L22 80 Q78 37 159 37 Q227 37 267.5 72.5 Q308 108 308 167 Q308 194 292 211 Q276 228 242 237 L174 254 Q70 281 70 365 Q70 445 124.5 493.5 Q179 542 265 542 Q307 542 345.5 531 Q384 520 413 500 L387 457 Q326 492 262 492 Q200 492 162 460 Q124 428 124 374 Q124 348 140 331.5 Q156 315 190 306 L258 289 Q311 276 336.5 248 Q362 220 362 176 Q362 90 306 39.5 Q250 -11 158 -11 Z M232 623 L366 784 L433 784 L432 776 L277 615 L232 615 L232 623 Z " />
<glyph glyph-name="scaron" unicode="&#x161;" horiz-adv-x="432" d="M158 -11 Q111 -11 68.5 2 Q26 15 -4 38 L22 80 Q78 37 159 37 Q227 37 267.5 72.5 Q308 108 308 167 Q308 194 292 211 Q276 228 242 237 L174 254 Q70 281 70 365 Q70 445 124.5 493.5 Q179 542 265 542 Q307 542 345.5 531 Q384 520 413 500 L387 457 Q326 492 262 492 Q200 492 162 460 Q124 428 124 374 Q124 348 140 331.5 Q156 315 190 306 L258 289 Q311 276 336.5 248 Q362 220 362 176 Q362 90 306 39.5 Q250 -11 158 -11 Z M437 784 L436 776 L304 615 L248 615 L178 776 L179 784 L221 784 L283 660 L393 784 L437 784 Z " />
<glyph glyph-name="scedilla" unicode="&#x15f;" horiz-adv-x="432" d="M262 492 Q200 492 162 460 Q124 428 124 374 Q124 348 140 331.5 Q156 315 190 306 L258 289 Q311 276 336.5 248 Q362 220 362 176 Q362 94 311 44 Q260 -6 175 -11 L133 -66 Q147 -64 154 -64 Q192 -64 213 -82 Q234 -100 234 -131 Q234 -175 201.5 -201 Q169 -227 117 -227 Q92 -227 68.5 -220.5 Q45 -214 29 -203 L44 -171 Q80 -189 115 -189 Q148 -189 167.5 -172.5 Q187 -156 187 -130 Q187 -98 147 -98 Q121 -98 99 -108 L84 -90 L131 -10 Q92 -7 57 5.5 Q22 18 -4 38 L22 80 Q78 37 159 37 Q227 37 267.5 72.5 Q308 108 308 167 Q308 194 292 211 Q276 228 242 237 L174 254 Q70 281 70 365 Q70 445 124.5 493.5 Q179 542 265 542 Q307 542 345.5 531 Q384 520 413 500 L387 457 Q326 492 262 492 Z " />
<glyph glyph-name="scircumflex" unicode="&#x15d;" horiz-adv-x="432" d="M158 -11 Q111 -11 68.5 2 Q26 15 -4 38 L22 80 Q78 37 159 37 Q227 37 267.5 72.5 Q308 108 308 167 Q308 194 292 211 Q276 228 242 237 L174 254 Q70 281 70 365 Q70 445 124.5 493.5 Q179 542 265 542 Q307 542 345.5 531 Q384 520 413 500 L387 457 Q326 492 262 492 Q200 492 162 460 Q124 428 124 374 Q124 348 140 331.5 Q156 315 190 306 L258 289 Q311 276 336.5 248 Q362 220 362 176 Q362 90 306 39.5 Q250 -11 158 -11 Z M405 623 L404 615 L363 615 L301 740 L190 615 L146 615 L147 623 L280 784 L336 784 L405 623 Z " />
<glyph glyph-name="scommaaccent" unicode="&#x219;" horiz-adv-x="432" d="M158 -11 Q111 -11 68.5 2 Q26 15 -4 38 L22 80 Q78 37 159 37 Q227 37 267.5 72.5 Q308 108 308 167 Q308 194 292 211 Q276 228 242 237 L174 254 Q70 281 70 365 Q70 445 124.5 493.5 Q179 542 265 542 Q307 542 345.5 531 Q384 520 413 500 L387 457 Q326 492 262 492 Q200 492 162 460 Q124 428 124 374 Q124 348 140 331.5 Q156 315 190 306 L258 289 Q311 276 336.5 248 Q362 220 362 176 Q362 90 306 39.5 Q250 -11 158 -11 Z M37 -243 Q70 -214 86.5 -186.5 Q103 -159 112 -116 Q114 -102 116 -84 L170 -88 Q170 -94 166 -124 Q157 -168 132 -202.5 Q107 -237 58 -271 L37 -243 Z " />
<glyph glyph-name="uni1E61" unicode="&#x1e61;" horiz-adv-x="432" d="M158 -11 Q111 -11 68.5 2 Q26 15 -4 38 L22 80 Q78 37 159 37 Q227 37 267.5 72.5 Q308 108 308 167 Q308 194 292 211 Q276 228 242 237 L174 254 Q70 281 70 365 Q70 445 124.5 493.5 Q179 542 265 542 Q307 542 345.5 531 Q384 520 413 500 L387 457 Q326 492 262 492 Q200 492 162 460 Q124 428 124 374 Q124 348 140 331.5 Q156 315 190 306 L258 289 Q311 276 336.5 248 Q362 220 362 176 Q362 90 306 39.5 Q250 -11 158 -11 Z M284 636 Q266 636 256.5 646 Q247 656 247 674 Q247 696 260 710 Q273 724 294 724 Q330 724 330 686 Q330 664 317.5 650 Q305 636 284 636 Z " />
<glyph glyph-name="uni1E63" unicode="&#x1e63;" horiz-adv-x="432" d="M158 -11 Q111 -11 68.5 2 Q26 15 -4 38 L22 80 Q78 37 159 37 Q227 37 267.5 72.5 Q308 108 308 167 Q308 194 292 211 Q276 228 242 237 L174 254 Q70 281 70 365 Q70 445 124.5 493.5 Q179 542 265 542 Q307 542 345.5 531 Q384 520 413 500 L387 457 Q326 492 262 492 Q200 492 162 460 Q124 428 124 374 Q124 348 140 331.5 Q156 315 190 306 L258 289 Q311 276 336.5 248 Q362 220 362 176 Q362 90 306 39.5 Q250 -11 158 -11 Z M126 -194 Q109 -194 99 -184 Q89 -174 89 -156 Q89 -134 101.5 -119.5 Q114 -105 135 -105 Q153 -105 162.5 -115 Q172 -125 172 -143 Q172 -165 159.5 -179.5 Q147 -194 126 -194 Z " />
<glyph glyph-name="germandbls" unicode="&#xdf;" horiz-adv-x="563" d="M350 408 Q426 394 466.5 349.5 Q507 305 507 232 Q507 164 479 110 Q451 56 398 25 Q345 -6 275 -6 Q214 -6 172 11 L189 58 Q233 42 278 42 Q331 42 370.5 67 Q410 92 431 134.5 Q452 177 452 229 Q452 296 407.5 332 Q363 368 273 375 L281 421 Q366 453 413.5 510.5 Q461 568 461 640 Q461 726 369 726 Q305 726 263 684 Q221 642 205 563 L96 0 L41 0 L151 567 Q171 668 227.5 721.5 Q284 775 372 775 Q440 775 477.5 741.5 Q515 708 515 643 Q515 566 471.5 503.5 Q428 441 350 408 Z " />
<glyph glyph-name="uni0259" unicode="&#x259;" horiz-adv-x="490" d="M265 541 Q353 541 399.5 491 Q446 441 446 343 Q446 255 410.5 173 Q375 91 310 39 Q245 -13 161 -13 Q94 -13 57.5 20 Q21 53 21 111 Q21 156 43 193 Q65 230 105 251 Q150 275 239 275 L384 275 Q390 310 390 342 Q390 490 260 490 Q186 490 118 447 L98 490 Q133 515 176.5 528 Q220 541 265 541 Z M164 37 Q238 37 292.5 92 Q347 147 373 230 L243 230 Q201 230 173.5 224.5 Q146 219 126 207 Q102 193 89 169.5 Q76 146 76 116 Q76 77 98 57 Q120 37 164 37 Z " />
<glyph glyph-name="t" unicode="t" horiz-adv-x="346" d="M199 -6 Q141 -6 110.5 21.5 Q80 49 80 102 Q80 120 85 148 L150 484 L62 484 L71 530 L159 530 L189 687 L244 687 L214 530 L365 530 L356 484 L205 484 L140 152 Q135 127 135 111 Q135 77 153 60.5 Q171 44 208 44 Q234 44 266 53 L270 5 Q241 -6 199 -6 Z " />
<glyph glyph-name="tcaron" unicode="&#x165;" horiz-adv-x="346" d="M347 770 L401 770 L399 762 L348 581 L310 581 L347 770 Z M175 -6 Q116 -6 85.5 22 Q55 50 55 103 Q55 121 60 148 L126 484 L38 484 L47 530 L135 530 L165 687 L220 687 L190 530 L341 530 L332 484 L181 484 L116 152 Q111 127 111 111 Q111 77 129 60.5 Q147 44 184 44 Q210 44 242 53 L245 5 Q216 -6 175 -6 Z " />
<glyph glyph-name="uni0163" unicode="&#x163;" horiz-adv-x="346" d="M140 152 Q135 127 135 111 Q135 77 153 60.5 Q171 44 208 44 Q234 44 266 53 L270 5 Q241 -6 199 -6 Q182 -6 174 -5 L127 -66 Q141 -64 148 -64 Q186 -64 207 -82 Q228 -100 228 -131 Q228 -175 195.5 -201 Q163 -227 111 -227 Q86 -227 62.5 -220.5 Q39 -214 23 -203 L38 -171 Q74 -189 109 -189 Q142 -189 161.5 -172.5 Q181 -156 181 -130 Q181 -98 141 -98 Q115 -98 93 -108 L78 -90 L135 6 Q80 30 80 102 Q80 120 85 148 L150 484 L62 484 L71 530 L159 530 L189 687 L244 687 L214 530 L365 530 L356 484 L205 484 L140 152 Z " />
<glyph glyph-name="uni021B" unicode="&#x21b;" horiz-adv-x="346" d="M199 -6 Q141 -6 110.5 21.5 Q80 49 80 102 Q80 120 85 148 L150 484 L62 484 L71 530 L159 530 L189 687 L244 687 L214 530 L365 530 L356 484 L205 484 L140 152 Q135 127 135 111 Q135 77 153 60.5 Q171 44 208 44 Q234 44 266 53 L270 5 Q241 -6 199 -6 Z M31 -243 Q64 -214 80.5 -186.5 Q97 -159 106 -116 Q108 -102 110 -84 L164 -88 Q164 -94 160 -124 Q151 -168 126 -202.5 Q101 -237 52 -271 L31 -243 Z " />
<glyph glyph-name="uni1E97" unicode="&#x1e97;" horiz-adv-x="346" d="M167 749 Q150 749 141 758.5 Q132 768 132 786 Q132 807 144 820.5 Q156 834 176 834 Q193 834 202 824.5 Q211 815 211 797 Q211 776 199 762.5 Q187 749 167 749 Z M341 749 Q324 749 315 758.5 Q306 768 306 786 Q306 807 318 820.5 Q330 834 350 834 Q367 834 376 824.5 Q385 815 385 797 Q385 776 373 762.5 Q361 749 341 749 Z M199 -6 Q141 -6 110.5 21.5 Q80 49 80 102 Q80 120 85 148 L150 484 L62 484 L71 530 L159 530 L189 687 L244 687 L214 530 L365 530 L356 484 L205 484 L140 152 Q135 127 135 111 Q135 77 153 60.5 Q171 44 208 44 Q234 44 266 53 L270 5 Q241 -6 199 -6 Z " />
<glyph glyph-name="uni1E6D" unicode="&#x1e6d;" horiz-adv-x="346" d="M199 -6 Q141 -6 110.5 21.5 Q80 49 80 102 Q80 120 85 148 L150 484 L62 484 L71 530 L159 530 L189 687 L244 687 L214 530 L365 530 L356 484 L205 484 L140 152 Q135 127 135 111 Q135 77 153 60.5 Q171 44 208 44 Q234 44 266 53 L270 5 Q241 -6 199 -6 Z M121 -194 Q104 -194 94 -184 Q84 -174 84 -156 Q84 -134 96.5 -119.5 Q109 -105 130 -105 Q148 -105 157.5 -115 Q167 -125 167 -143 Q167 -165 154.5 -179.5 Q142 -194 121 -194 Z " />
<glyph glyph-name="uni1E6F" unicode="&#x1e6f;" horiz-adv-x="346" d="M199 -6 Q141 -6 110.5 21.5 Q80 49 80 102 Q80 120 85 148 L150 484 L62 484 L71 530 L159 530 L189 687 L244 687 L214 530 L365 530 L356 484 L205 484 L140 152 Q135 127 135 111 Q135 77 153 60.5 Q171 44 208 44 Q234 44 266 53 L270 5 Q241 -6 199 -6 Z M31 -106 L236 -106 L227 -151 L22 -151 L31 -106 Z " />
<glyph glyph-name="u" unicode="u" horiz-adv-x="540" d="M500 530 L397 0 L346 0 L358 66 Q283 -12 187 -12 Q126 -12 92 19.5 Q58 51 58 107 Q58 125 63 150 L137 530 L192 530 L118 151 Q114 134 114 116 Q114 40 201 40 Q244 40 283.5 59 Q323 78 364 117 L445 530 L500 530 Z " />
<glyph glyph-name="uacute" unicode="&#xfa;" horiz-adv-x="540" d="M500 530 L397 0 L346 0 L358 66 Q283 -12 187 -12 Q126 -12 92 19.5 Q58 51 58 107 Q58 125 63 150 L137 530 L192 530 L118 151 Q114 134 114 116 Q114 40 201 40 Q244 40 283.5 59 Q323 78 364 117 L445 530 L500 530 Z M292 623 L426 784 L493 784 L492 776 L337 615 L292 615 L292 623 Z " />
<glyph glyph-name="ubreve" unicode="&#x16d;" horiz-adv-x="540" d="M500 530 L397 0 L346 0 L358 66 Q283 -12 187 -12 Q126 -12 92 19.5 Q58 51 58 107 Q58 125 63 150 L137 530 L192 530 L118 151 Q114 134 114 116 Q114 40 201 40 Q244 40 283.5 59 Q323 78 364 117 L445 530 L500 530 Z M340 623 Q289 623 260 651 Q231 679 231 730 Q231 738 233 758 L273 755 Q269 669 343 669 Q383 669 411 691.5 Q439 714 453 758 L491 755 Q476 692 436.5 657.5 Q397 623 340 623 Z " />
<glyph glyph-name="uni01D4" unicode="&#x1d4;" horiz-adv-x="540" d="M500 530 L397 0 L346 0 L358 66 Q283 -12 187 -12 Q126 -12 92 19.5 Q58 51 58 107 Q58 125 63 150 L137 530 L192 530 L118 151 Q114 134 114 116 Q114 40 201 40 Q244 40 283.5 59 Q323 78 364 117 L445 530 L500 530 Z M496 784 L495 776 L363 615 L307 615 L237 776 L238 784 L280 784 L342 660 L452 784 L496 784 Z " />
<glyph glyph-name="ucircumflex" unicode="&#xfb;" horiz-adv-x="540" d="M500 530 L397 0 L346 0 L358 66 Q283 -12 187 -12 Q126 -12 92 19.5 Q58 51 58 107 Q58 125 63 150 L137 530 L192 530 L118 151 Q114 134 114 116 Q114 40 201 40 Q244 40 283.5 59 Q323 78 364 117 L445 530 L500 530 Z M464 623 L463 615 L422 615 L360 740 L249 615 L205 615 L206 623 L339 784 L395 784 L464 623 Z " />
<glyph glyph-name="udieresis" unicode="&#xfc;" horiz-adv-x="540" d="M256 636 Q239 636 230 645.5 Q221 655 221 673 Q221 694 233 707.5 Q245 721 265 721 Q282 721 291 711.5 Q300 702 300 684 Q300 663 288 649.5 Q276 636 256 636 Z M430 636 Q413 636 404 645.5 Q395 655 395 673 Q395 694 407 707.5 Q419 721 439 721 Q456 721 465 711.5 Q474 702 474 684 Q474 663 462 649.5 Q450 636 430 636 Z M500 530 L397 0 L346 0 L358 66 Q283 -12 187 -12 Q126 -12 92 19.5 Q58 51 58 107 Q58 125 63 150 L137 530 L192 530 L118 151 Q114 134 114 116 Q114 40 201 40 Q244 40 283.5 59 Q323 78 364 117 L445 530 L500 530 Z " />
<glyph glyph-name="uni01D8" unicode="&#x1d8;" horiz-adv-x="540" d="M378 759 L337 759 L338 767 L444 896 L499 896 L498 888 L378 759 Z M256 636 Q239 636 230 645.5 Q221 655 221 673 Q221 694 233 707.5 Q245 721 265 721 Q282 721 291 711.5 Q300 702 300 684 Q300 663 288 649.5 Q276 636 256 636 Z M395 673 Q395 694 407 707.5 Q419 721 439 721 Q456 721 465 711.5 Q474 702 474 684 Q474 663 462 649.5 Q450 636 430 636 Q413 636 404 645.5 Q395 655 395 673 Z M500 530 L397 0 L346 0 L358 66 Q283 -12 187 -12 Q126 -12 92 19.5 Q58 51 58 107 Q58 125 63 150 L137 530 L192 530 L118 151 Q114 134 114 116 Q114 40 201 40 Q244 40 283.5 59 Q323 78 364 117 L445 530 L500 530 Z " />
<glyph glyph-name="uni01DA" unicode="&#x1da;" horiz-adv-x="540" d="M522 902 L521 894 L391 753 L335 753 L259 894 L261 902 L302 902 L369 794 L478 902 L522 902 Z M256 636 Q239 636 230 645.5 Q221 655 221 673 Q221 694 233 707.5 Q245 721 265 721 Q282 721 291 711.5 Q300 702 300 684 Q300 663 288 649.5 Q276 636 256 636 Z M474 684 Q474 663 462 649.5 Q450 636 430 636 Q413 636 404 645.5 Q395 655 395 673 Q395 694 407 707.5 Q419 721 439 721 Q456 721 465 711.5 Q474 702 474 684 Z M445 530 L500 530 L397 0 L346 0 L358 66 Q283 -12 187 -12 Q126 -12 92 19.5 Q58 51 58 107 Q58 125 63 150 L137 530 L192 530 L118 151 Q114 134 114 116 Q114 40 201 40 Q244 40 283.5 59 Q323 78 364 117 L445 530 Z " />
<glyph glyph-name="uni01DC" unicode="&#x1dc;" horiz-adv-x="540" d="M349 759 L284 888 L285 896 L336 896 L386 767 L385 759 L349 759 Z M256 636 Q239 636 230 645.5 Q221 655 221 673 Q221 694 233 707.5 Q245 721 265 721 Q282 721 291 711.5 Q300 702 300 684 Q300 663 288 649.5 Q276 636 256 636 Z M430 636 Q413 636 404 645.5 Q395 655 395 673 Q395 694 407 707.5 Q419 721 439 721 Q456 721 465 711.5 Q474 702 474 684 Q474 663 462 649.5 Q450 636 430 636 Z M500 530 L397 0 L346 0 L358 66 Q283 -12 187 -12 Q126 -12 92 19.5 Q58 51 58 107 Q58 125 63 150 L137 530 L192 530 L118 151 Q114 134 114 116 Q114 40 201 40 Q244 40 283.5 59 Q323 78 364 117 L445 530 L500 530 Z " />
<glyph glyph-name="uni01D6" unicode="&#x1d6;" horiz-adv-x="540" d="M509 840 L500 795 L238 795 L247 840 L509 840 Z M256 636 Q239 636 230 645.5 Q221 655 221 673 Q221 694 233 707.5 Q245 721 265 721 Q282 721 291 711.5 Q300 702 300 684 Q300 663 288 649.5 Q276 636 256 636 Z M474 684 Q474 663 462 649.5 Q450 636 430 636 Q413 636 404 645.5 Q395 655 395 673 Q395 694 407 707.5 Q419 721 439 721 Q456 721 465 711.5 Q474 702 474 684 Z M445 530 L500 530 L397 0 L346 0 L358 66 Q283 -12 187 -12 Q126 -12 92 19.5 Q58 51 58 107 Q58 125 63 150 L137 530 L192 530 L118 151 Q114 134 114 116 Q114 40 201 40 Q244 40 283.5 59 Q323 78 364 117 L445 530 Z " />
<glyph glyph-name="uni1EE5" unicode="&#x1ee5;" horiz-adv-x="540" d="M500 530 L397 0 L346 0 L358 66 Q283 -12 187 -12 Q126 -12 92 19.5 Q58 51 58 107 Q58 125 63 150 L137 530 L192 530 L118 151 Q114 134 114 116 Q114 40 201 40 Q244 40 283.5 59 Q323 78 364 117 L445 530 L500 530 Z M184 -194 Q167 -194 157 -184 Q147 -174 147 -156 Q147 -134 159.5 -119.5 Q172 -105 193 -105 Q211 -105 220.5 -115 Q230 -125 230 -143 Q230 -165 217.5 -179.5 Q205 -194 184 -194 Z " />
<glyph glyph-name="ugrave" unicode="&#xf9;" horiz-adv-x="540" d="M500 530 L397 0 L346 0 L358 66 Q283 -12 187 -12 Q126 -12 92 19.5 Q58 51 58 107 Q58 125 63 150 L137 530 L192 530 L118 151 Q114 134 114 116 Q114 40 201 40 Q244 40 283.5 59 Q323 78 364 117 L445 530 L500 530 Z M255 776 L256 784 L317 784 L383 623 L382 615 L339 615 L255 776 Z " />
<glyph glyph-name="uni1EE7" unicode="&#x1ee7;" horiz-adv-x="540" d="M500 530 L397 0 L346 0 L358 66 Q283 -12 187 -12 Q126 -12 92 19.5 Q58 51 58 107 Q58 125 63 150 L137 530 L192 530 L118 151 Q114 134 114 116 Q114 40 201 40 Q244 40 283.5 59 Q323 78 364 117 L445 530 L500 530 Z M313 616 L315 634 Q317 657 329 670 Q341 683 363 698 Q379 709 387 717 Q395 725 395 737 Q395 758 367 758 Q337 758 302 737 L290 773 Q330 798 375 798 Q407 798 424 783.5 Q441 769 441 741 Q441 716 429.5 702 Q418 688 396 674 Q378 662 368.5 652 Q359 642 358 626 Q357 623 357 613 L313 616 Z " />
<glyph glyph-name="uhorn" unicode="&#x1b0;" horiz-adv-x="540" d="M632 672 Q633 648 627 609 Q616 554 584.5 526.5 Q553 499 492 493 L397 0 L346 0 L358 66 Q283 -12 187 -12 Q126 -12 92 19.5 Q58 51 58 107 Q58 125 63 150 L137 530 L192 530 L118 151 Q114 134 114 116 Q114 40 201 40 Q244 40 283.5 59 Q323 78 364 117 L445 530 L472 530 Q520 532 545 552 Q570 572 579 617 Q584 647 583 675 L632 672 Z " />
<glyph glyph-name="uni1EE9" unicode="&#x1ee9;" horiz-adv-x="540" d="M632 672 Q633 648 627 609 Q616 554 584.5 526.5 Q553 499 492 493 L397 0 L346 0 L358 66 Q283 -12 187 -12 Q126 -12 92 19.5 Q58 51 58 107 Q58 125 63 150 L137 530 L192 530 L118 151 Q114 134 114 116 Q114 40 201 40 Q244 40 283.5 59 Q323 78 364 117 L445 530 L472 530 Q520 532 545 552 Q570 572 579 617 Q584 647 583 675 L632 672 Z M292 623 L426 784 L493 784 L492 776 L337 615 L292 615 L292 623 Z " />
<glyph glyph-name="uni1EF1" unicode="&#x1ef1;" horiz-adv-x="540" d="M632 672 Q633 648 627 609 Q616 554 584.5 526.5 Q553 499 492 493 L397 0 L346 0 L358 66 Q283 -12 187 -12 Q126 -12 92 19.5 Q58 51 58 107 Q58 125 63 150 L137 530 L192 530 L118 151 Q114 134 114 116 Q114 40 201 40 Q244 40 283.5 59 Q323 78 364 117 L445 530 L472 530 Q520 532 545 552 Q570 572 579 617 Q584 647 583 675 L632 672 Z M184 -194 Q167 -194 157 -184 Q147 -174 147 -156 Q147 -134 159.5 -119.5 Q172 -105 193 -105 Q211 -105 220.5 -115 Q230 -125 230 -143 Q230 -165 217.5 -179.5 Q205 -194 184 -194 Z " />
<glyph glyph-name="uni1EEB" unicode="&#x1eeb;" horiz-adv-x="540" d="M632 672 Q633 648 627 609 Q616 554 584.5 526.5 Q553 499 492 493 L397 0 L346 0 L358 66 Q283 -12 187 -12 Q126 -12 92 19.5 Q58 51 58 107 Q58 125 63 150 L137 530 L192 530 L118 151 Q114 134 114 116 Q114 40 201 40 Q244 40 283.5 59 Q323 78 364 117 L445 530 L472 530 Q520 532 545 552 Q570 572 579 617 Q584 647 583 675 L632 672 Z M255 776 L256 784 L317 784 L383 623 L382 615 L339 615 L255 776 Z " />
<glyph glyph-name="uni1EED" unicode="&#x1eed;" horiz-adv-x="540" d="M632 672 Q633 648 627 609 Q616 554 584.5 526.5 Q553 499 492 493 L397 0 L346 0 L358 66 Q283 -12 187 -12 Q126 -12 92 19.5 Q58 51 58 107 Q58 125 63 150 L137 530 L192 530 L118 151 Q114 134 114 116 Q114 40 201 40 Q244 40 283.5 59 Q323 78 364 117 L445 530 L472 530 Q520 532 545 552 Q570 572 579 617 Q584 647 583 675 L632 672 Z M313 616 L315 634 Q317 657 329 670 Q341 683 363 698 Q379 709 387 717 Q395 725 395 737 Q395 758 367 758 Q337 758 302 737 L290 773 Q330 798 375 798 Q407 798 424 783.5 Q441 769 441 741 Q441 716 429.5 702 Q418 688 396 674 Q378 662 368.5 652 Q359 642 358 626 Q357 623 357 613 L313 616 Z " />
<glyph glyph-name="uni1EEF" unicode="&#x1eef;" horiz-adv-x="540" d="M632 672 Q633 648 627 609 Q616 554 584.5 526.5 Q553 499 492 493 L397 0 L346 0 L358 66 Q283 -12 187 -12 Q126 -12 92 19.5 Q58 51 58 107 Q58 125 63 150 L137 530 L192 530 L118 151 Q114 134 114 116 Q114 40 201 40 Q244 40 283.5 59 Q323 78 364 117 L445 530 L472 530 Q520 532 545 552 Q570 572 579 617 Q584 647 583 675 L632 672 Z M185 624 Q197 681 224.5 712 Q252 743 290 743 Q316 743 331.5 731 Q347 719 363 697 Q374 681 383.5 673 Q393 665 406 665 Q428 665 445 685 Q462 705 473 743 L510 739 Q497 682 469.5 651 Q442 620 404 620 Q378 620 362.5 632 Q347 644 330 666 Q317 683 308.5 690.5 Q300 698 287 698 Q245 698 223 620 L185 624 Z " />
<glyph glyph-name="uhungarumlaut" unicode="&#x171;" horiz-adv-x="540" d="M500 530 L397 0 L346 0 L358 66 Q283 -12 187 -12 Q126 -12 92 19.5 Q58 51 58 107 Q58 125 63 150 L137 530 L192 530 L118 151 Q114 134 114 116 Q114 40 201 40 Q244 40 283.5 59 Q323 78 364 117 L445 530 L500 530 Z M237 623 L332 784 L391 784 L391 776 L276 615 L236 615 L237 623 Z M374 623 L469 784 L528 784 L528 776 L413 615 L373 615 L374 623 Z " />
<glyph glyph-name="umacron" unicode="&#x16b;" horiz-adv-x="540" d="M500 530 L397 0 L346 0 L358 66 Q283 -12 187 -12 Q126 -12 92 19.5 Q58 51 58 107 Q58 125 63 150 L137 530 L192 530 L118 151 Q114 134 114 116 Q114 40 201 40 Q244 40 283.5 59 Q323 78 364 117 L445 530 L500 530 Z M219 693 L481 693 L472 648 L210 648 L219 693 Z " />
<glyph glyph-name="uogonek" unicode="&#x173;" horiz-adv-x="540" d="M323 -173 Q357 -173 392 -153 L406 -190 Q363 -217 314 -217 Q275 -217 253.5 -198 Q232 -179 232 -146 Q232 -104 262.5 -63.5 Q293 -23 348 7 L359 67 Q284 -12 187 -12 Q126 -12 92 19.5 Q58 51 58 107 Q58 125 63 150 L137 530 L192 530 L118 151 Q114 134 114 116 Q114 40 201 40 Q244 40 283.5 59 Q323 78 364 117 L445 530 L500 530 L397 0 Q347 -28 314.5 -65 Q282 -102 282 -136 Q282 -154 292.5 -163.5 Q303 -173 323 -173 Z " />
<glyph glyph-name="uring" unicode="&#x16f;" horiz-adv-x="540" d="M500 530 L397 0 L346 0 L358 66 Q283 -12 187 -12 Q126 -12 92 19.5 Q58 51 58 107 Q58 125 63 150 L137 530 L192 530 L118 151 Q114 134 114 116 Q114 40 201 40 Q244 40 283.5 59 Q323 78 364 117 L445 530 L500 530 Z M332 604 Q291 604 269.5 623.5 Q248 643 248 681 Q248 734 281.5 769 Q315 804 371 804 Q412 804 434 784 Q456 764 456 727 Q456 674 422 639 Q388 604 332 604 Z M338 640 Q374 640 393.5 664 Q413 688 413 721 Q413 767 366 767 Q329 767 309.5 743.5 Q290 720 290 687 Q290 640 338 640 Z " />
<glyph glyph-name="utilde" unicode="&#x169;" horiz-adv-x="540" d="M500 530 L397 0 L346 0 L358 66 Q283 -12 187 -12 Q126 -12 92 19.5 Q58 51 58 107 Q58 125 63 150 L137 530 L192 530 L118 151 Q114 134 114 116 Q114 40 201 40 Q244 40 283.5 59 Q323 78 364 117 L445 530 L500 530 Z M185 624 Q197 681 224.5 712 Q252 743 290 743 Q316 743 331.5 731 Q347 719 363 697 Q374 681 383.5 673 Q393 665 406 665 Q428 665 445 685 Q462 705 473 743 L510 739 Q497 682 469.5 651 Q442 620 404 620 Q378 620 362.5 632 Q347 644 330 666 Q317 683 308.5 690.5 Q300 698 287 698 Q245 698 223 620 L185 624 Z " />
<glyph glyph-name="v" unicode="v" horiz-adv-x="491" d="M505 530 L226 0 L164 0 L89 530 L146 530 L205 60 L444 530 L505 530 Z " />
<glyph glyph-name="w" unicode="w" horiz-adv-x="742" d="M754 530 L501 0 L439 0 L407 454 L199 0 L137 0 L91 530 L147 530 L179 60 L392 530 L451 530 L481 60 L695 530 L754 530 Z " />
<glyph glyph-name="wacute" unicode="&#x1e83;" horiz-adv-x="742" d="M754 530 L501 0 L439 0 L407 454 L199 0 L137 0 L91 530 L147 530 L179 60 L392 530 L451 530 L481 60 L695 530 L754 530 Z M396 623 L530 784 L597 784 L596 776 L441 615 L396 615 L396 623 Z " />
<glyph glyph-name="wcircumflex" unicode="&#x175;" horiz-adv-x="742" d="M754 530 L501 0 L439 0 L407 454 L199 0 L137 0 L91 530 L147 530 L179 60 L392 530 L451 530 L481 60 L695 530 L754 530 Z M568 623 L567 615 L526 615 L464 740 L353 615 L309 615 L310 623 L443 784 L499 784 L568 623 Z " />
<glyph glyph-name="wdieresis" unicode="&#x1e85;" horiz-adv-x="742" d="M360 636 Q343 636 334 645.5 Q325 655 325 673 Q325 694 337 707.5 Q349 721 369 721 Q386 721 395 711.5 Q404 702 404 684 Q404 663 392 649.5 Q380 636 360 636 Z M534 636 Q517 636 508 645.5 Q499 655 499 673 Q499 694 511 707.5 Q523 721 543 721 Q560 721 569 711.5 Q578 702 578 684 Q578 663 566 649.5 Q554 636 534 636 Z M754 530 L501 0 L439 0 L407 454 L199 0 L137 0 L91 530 L147 530 L179 60 L392 530 L451 530 L481 60 L695 530 L754 530 Z " />
<glyph glyph-name="wgrave" unicode="&#x1e81;" horiz-adv-x="742" d="M754 530 L501 0 L439 0 L407 454 L199 0 L137 0 L91 530 L147 530 L179 60 L392 530 L451 530 L481 60 L695 530 L754 530 Z M359 776 L360 784 L421 784 L487 623 L486 615 L443 615 L359 776 Z " />
<glyph glyph-name="x" unicode="x" horiz-adv-x="472" d="M268 269 L387 0 L325 0 L229 227 L47 0 L-18 0 L206 271 L93 530 L155 530 L245 314 L423 530 L489 530 L268 269 Z " />
<glyph glyph-name="y" unicode="y" horiz-adv-x="490" d="M504 530 L219 -10 Q138 -162 -32 -218 L-47 -169 Q26 -144 78 -103 Q130 -62 166 0 L90 530 L148 530 L206 68 L443 530 L504 530 Z " />
<glyph glyph-name="yacute" unicode="&#xfd;" horiz-adv-x="490" d="M504 530 L219 -10 Q138 -162 -32 -218 L-47 -169 Q26 -144 78 -103 Q130 -62 166 0 L90 530 L148 530 L206 68 L443 530 L504 530 Z M272 623 L406 784 L473 784 L472 776 L317 615 L272 615 L272 623 Z " />
<glyph glyph-name="ycircumflex" unicode="&#x177;" horiz-adv-x="490" d="M504 530 L219 -10 Q138 -162 -32 -218 L-47 -169 Q26 -144 78 -103 Q130 -62 166 0 L90 530 L148 530 L206 68 L443 530 L504 530 Z M444 623 L443 615 L402 615 L340 740 L229 615 L185 615 L186 623 L319 784 L375 784 L444 623 Z " />
<glyph glyph-name="ydieresis" unicode="&#xff;" horiz-adv-x="490" d="M236 636 Q219 636 210 645.5 Q201 655 201 673 Q201 694 213 707.5 Q225 721 245 721 Q262 721 271 711.5 Q280 702 280 684 Q280 663 268 649.5 Q256 636 236 636 Z M410 636 Q393 636 384 645.5 Q375 655 375 673 Q375 694 387 707.5 Q399 721 419 721 Q436 721 445 711.5 Q454 702 454 684 Q454 663 442 649.5 Q430 636 410 636 Z M504 530 L219 -10 Q138 -162 -32 -218 L-47 -169 Q26 -144 78 -103 Q130 -62 166 0 L90 530 L148 530 L206 68 L443 530 L504 530 Z " />
<glyph glyph-name="uni1E8F" unicode="&#x1e8f;" horiz-adv-x="490" d="M504 530 L219 -10 Q138 -162 -32 -218 L-47 -169 Q26 -144 78 -103 Q130 -62 166 0 L90 530 L148 530 L206 68 L443 530 L504 530 Z M323 636 Q305 636 295.5 646 Q286 656 286 674 Q286 696 299 710 Q312 724 333 724 Q369 724 369 686 Q369 664 356.5 650 Q344 636 323 636 Z " />
<glyph glyph-name="uni1EF5" unicode="&#x1ef5;" horiz-adv-x="490" d="M504 530 L219 -10 Q138 -162 -32 -218 L-47 -169 Q26 -144 78 -103 Q130 -62 166 0 L90 530 L148 530 L206 68 L443 530 L504 530 Z M256 -194 Q239 -194 229 -184 Q219 -174 219 -156 Q219 -134 231.5 -119.5 Q244 -105 265 -105 Q283 -105 292.5 -115 Q302 -125 302 -143 Q302 -165 289.5 -179.5 Q277 -194 256 -194 Z " />
<glyph glyph-name="ygrave" unicode="&#x1ef3;" horiz-adv-x="490" d="M504 530 L219 -10 Q138 -162 -32 -218 L-47 -169 Q26 -144 78 -103 Q130 -62 166 0 L90 530 L148 530 L206 68 L443 530 L504 530 Z M235 776 L236 784 L297 784 L363 623 L362 615 L319 615 L235 776 Z " />
<glyph glyph-name="uni1EF7" unicode="&#x1ef7;" horiz-adv-x="490" d="M504 530 L219 -10 Q138 -162 -32 -218 L-47 -169 Q26 -144 78 -103 Q130 -62 166 0 L90 530 L148 530 L206 68 L443 530 L504 530 Z M293 616 L295 634 Q297 657 309 670 Q321 683 343 698 Q359 709 367 717 Q375 725 375 737 Q375 758 347 758 Q317 758 282 737 L270 773 Q310 798 355 798 Q387 798 404 783.5 Q421 769 421 741 Q421 716 409.5 702 Q398 688 376 674 Q358 662 348.5 652 Q339 642 338 626 Q337 623 337 613 L293 616 Z " />
<glyph glyph-name="uni1EF9" unicode="&#x1ef9;" horiz-adv-x="490" d="M504 530 L219 -10 Q138 -162 -32 -218 L-47 -169 Q26 -144 78 -103 Q130 -62 166 0 L90 530 L148 530 L206 68 L443 530 L504 530 Z M165 624 Q177 681 204.5 712 Q232 743 270 743 Q296 743 311.5 731 Q327 719 343 697 Q354 681 363.5 673 Q373 665 386 665 Q408 665 425 685 Q442 705 453 743 L490 739 Q477 682 449.5 651 Q422 620 384 620 Q358 620 342.5 632 Q327 644 310 666 Q297 683 288.5 690.5 Q280 698 267 698 Q225 698 203 620 L165 624 Z " />
<glyph glyph-name="z" unicode="z" horiz-adv-x="432" d="M426 484 L64 46 L344 46 L335 0 L-8 0 L0 46 L362 484 L93 484 L102 530 L434 530 L426 484 Z " />
<glyph glyph-name="zacute" unicode="&#x17a;" horiz-adv-x="432" d="M426 484 L64 46 L344 46 L335 0 L-8 0 L0 46 L362 484 L93 484 L102 530 L434 530 L426 484 Z M238 623 L372 784 L439 784 L438 776 L283 615 L238 615 L238 623 Z " />
<glyph glyph-name="zcaron" unicode="&#x17e;" horiz-adv-x="432" d="M426 484 L64 46 L344 46 L335 0 L-8 0 L0 46 L362 484 L93 484 L102 530 L434 530 L426 484 Z M442 784 L441 776 L309 615 L253 615 L183 776 L184 784 L226 784 L288 660 L398 784 L442 784 Z " />
<glyph glyph-name="zdotaccent" unicode="&#x17c;" horiz-adv-x="432" d="M426 484 L64 46 L344 46 L335 0 L-8 0 L0 46 L362 484 L93 484 L102 530 L434 530 L426 484 Z M289 636 Q271 636 261.5 646 Q252 656 252 674 Q252 696 265 710 Q278 724 299 724 Q335 724 335 686 Q335 664 322.5 650 Q310 636 289 636 Z " />
<glyph glyph-name="uni1E93" unicode="&#x1e93;" horiz-adv-x="432" d="M426 484 L64 46 L344 46 L335 0 L-8 0 L0 46 L362 484 L93 484 L102 530 L434 530 L426 484 Z M130 -194 Q113 -194 103 -184 Q93 -174 93 -156 Q93 -134 105.5 -119.5 Q118 -105 139 -105 Q157 -105 166.5 -115 Q176 -125 176 -143 Q176 -165 163.5 -179.5 Q151 -194 130 -194 Z " />
<glyph glyph-name="fi" unicode="&#xfb01;" horiz-adv-x="559" d="M145 484 L57 484 L66 530 L154 530 L171 619 Q185 693 234.5 734 Q284 775 360 775 Q380 775 404 769 L395 721 Q373 725 358 725 Q304 725 270 696.5 Q236 668 226 615 L209 530 L340 530 L330 484 L200 484 L106 0 L51 0 L145 484 Z M461 530 L516 530 L413 0 L358 0 L461 530 Z M513 636 Q495 636 485.5 646 Q476 656 476 674 Q476 696 489 710 Q502 724 523 724 Q559 724 559 686 Q559 664 546.5 650 Q534 636 513 636 Z " />
<glyph glyph-name="fl" unicode="&#xfb02;" horiz-adv-x="590" d="M145 484 L57 484 L66 530 L154 530 L171 619 Q185 693 234.5 734 Q284 775 360 775 Q380 775 404 769 L395 721 Q373 725 358 725 Q304 725 270 696.5 Q236 668 226 615 L209 530 L340 530 L330 484 L200 484 L106 0 L51 0 L145 484 Z M453 -5 Q413 -5 391.5 14 Q370 33 370 67 Q370 79 373 92 L506 770 L561 770 L428 92 Q426 80 426 75 Q426 59 435.5 51.5 Q445 44 465 44 Q486 44 505 48 L504 2 Q474 -5 453 -5 Z " />
<glyph glyph-name="ordfeminine" unicode="&#xaa;" horiz-adv-x="494" d="M329 729 Q389 729 422.5 703 Q456 677 456 629 Q456 615 453 600 L402 330 Q366 312 324 302.5 Q282 293 245 293 Q178 293 142.5 319.5 Q107 346 107 399 Q107 485 180.5 522.5 Q254 560 394 558 L401 596 Q404 610 404 622 Q404 683 321 683 Q276 683 211 655 L199 698 Q265 729 329 729 Z M159 401 Q159 370 180.5 354.5 Q202 339 248 339 Q304 339 356 361 L386 516 Q277 517 218 490 Q159 463 159 401 Z M82 180 L371 180 L362 135 L73 135 L82 180 Z " />
<glyph glyph-name="ordmasculine" unicode="&#xba;" horiz-adv-x="493" d="M256 292 Q189 292 153 330 Q117 368 117 441 Q117 518 142.5 584 Q168 650 217 690 Q266 730 334 730 Q401 730 437 692 Q473 654 473 582 Q473 505 447.5 438.5 Q422 372 373 332 Q324 292 256 292 Z M257 338 Q309 338 346 373.5 Q383 409 401.5 465.5 Q420 522 420 582 Q420 685 333 685 Q281 685 244 649.5 Q207 614 188 557.5 Q169 501 169 441 Q169 338 257 338 Z M85 180 L375 180 L366 135 L76 135 L85 180 Z " />
<glyph glyph-name="uni207F" unicode="&#x207f;" horiz-adv-x="493" d="M365 733 Q414 733 440 709.5 Q466 686 466 643 Q466 630 463 613 L410 341 L359 341 L410 608 Q412 616 412 630 Q412 684 344 684 Q287 684 227 640 L169 341 L117 341 L192 724 L240 724 L231 680 Q295 733 365 733 Z " />
<glyph glyph-name="pi" unicode="&#x3c0;" horiz-adv-x="585" d="M406 107 Q403 91 403 79 Q403 60 412.5 51.5 Q422 43 444 43 Q460 43 485 50 L488 3 Q458 -6 430 -6 Q347 -6 347 69 Q347 88 351 105 L425 484 L247 484 Q212 309 176 201 Q140 93 84 0 L22 0 Q85 104 121.5 206.5 Q158 309 192 484 L56 484 L66 530 L622 530 L613 484 L480 484 L406 107 Z " />
<glyph glyph-name="zero" unicode="0" horiz-adv-x="584" d="M242 -12 Q69 -12 69 200 Q69 331 104 454 Q139 577 209.5 656.5 Q280 736 380 736 Q553 736 553 523 Q553 394 518 270.5 Q483 147 412.5 67.5 Q342 -12 242 -12 Z M244 37 Q324 37 381.5 112.5 Q439 188 467.5 301.5 Q496 415 496 524 Q496 608 467 647.5 Q438 687 378 687 Q298 687 240.5 611.5 Q183 536 154 422.5 Q125 309 125 200 Q125 117 154.5 77 Q184 37 244 37 Z " />
<glyph glyph-name="one" unicode="1" horiz-adv-x="409" d="M366 724 L226 0 L170 0 L299 662 L122 601 L113 648 L318 724 L366 724 Z " />
<glyph glyph-name="two" unicode="2" horiz-adv-x="501" d="M69 49 L394 49 L384 0 L-8 0 L2 49 L309 371 Q369 434 400 483.5 Q431 533 431 584 Q431 632 402.5 658 Q374 684 319 684 Q277 684 229.5 668.5 Q182 653 143 626 L121 672 Q162 702 217.5 719 Q273 736 325 736 Q401 736 444 697.5 Q487 659 487 590 Q487 527 451 466.5 Q415 406 349 338 L69 49 Z " />
<glyph glyph-name="three" unicode="3" horiz-adv-x="523" d="M509 675 L264 426 L275 426 Q356 426 401 380 Q446 334 446 252 Q446 180 412 119.5 Q378 59 318 23.5 Q258 -12 183 -12 Q132 -12 82 3.5 Q32 19 -1 44 L29 89 Q60 65 102 52 Q144 39 185 39 Q246 39 292.5 68.5 Q339 98 363.5 146.5 Q388 195 388 250 Q388 313 356 346 Q324 379 262 379 Q222 379 192 370 L172 399 L442 675 L131 675 L141 724 L520 724 L509 675 Z " />
<glyph glyph-name="four" unicode="4" horiz-adv-x="539" d="M387 215 L477 215 L468 165 L377 165 L345 0 L291 0 L323 165 L11 165 L21 215 L407 724 L486 724 L387 215 Z M420 663 L85 215 L333 215 L420 663 Z " />
<glyph glyph-name="five" unicode="5" horiz-adv-x="515" d="M225 675 L159 420 Q212 445 277 445 Q356 445 400 398.5 Q444 352 444 267 Q444 192 410 128 Q376 64 315.5 26 Q255 -12 178 -12 Q129 -12 81.5 2.5 Q34 17 5 40 L34 85 Q63 63 102.5 51 Q142 39 181 39 Q243 39 289.5 70.5 Q336 102 361.5 154 Q387 206 387 263 Q387 327 355 361 Q323 395 264 395 Q229 395 193 384 Q157 373 129 355 L97 376 L186 724 L508 724 L497 675 L225 675 Z " />
<glyph glyph-name="six" unicode="6" horiz-adv-x="534" d="M315 441 Q396 441 440.5 394 Q485 347 485 263 Q485 191 452.5 127.5 Q420 64 361 26 Q302 -12 227 -12 Q141 -12 93 37.5 Q45 87 45 174 Q45 259 89.5 340.5 Q134 422 218 516 L419 736 L458 702 L260 483 Q249 472 201 416 Q254 441 315 441 Z M230 37 Q289 37 334.5 69.5 Q380 102 404 153.5 Q428 205 428 262 Q428 327 395.5 361 Q363 395 300 395 Q265 395 229 385 Q193 375 161 356 Q136 318 119 266.5 Q102 215 102 170 Q102 107 135 72 Q168 37 230 37 Z " />
<glyph glyph-name="seven" unicode="7" horiz-adv-x="456" d="M509 724 L499 675 L92 -9 L44 13 L440 675 L99 675 L108 724 L509 724 Z " />
<glyph glyph-name="eight" unicode="8" horiz-adv-x="550" d="M225 -12 Q136 -12 84 30.5 Q32 73 32 146 Q32 223 89 286.5 Q146 350 236 379 Q189 396 163.5 434 Q138 472 138 527 Q138 587 167 634.5 Q196 682 246.5 709 Q297 736 361 736 Q437 736 481.5 697.5 Q526 659 526 592 Q526 521 479 461 Q432 401 358 378 Q418 358 451 313.5 Q484 269 484 209 Q484 146 450 95.5 Q416 45 356.5 16.5 Q297 -12 225 -12 Z M300 400 Q376 422 422.5 472 Q469 522 469 585 Q469 635 440 661.5 Q411 688 358 688 Q310 688 272.5 666 Q235 644 214 607 Q193 570 193 528 Q193 479 221.5 447 Q250 415 300 400 Z M227 36 Q284 36 329.5 59 Q375 82 400.5 121 Q426 160 426 206 Q426 257 392 295.5 Q358 334 293 357 Q199 328 144 273.5 Q89 219 89 150 Q89 95 125 65.5 Q161 36 227 36 Z " />
<glyph glyph-name="nine" unicode="9" horiz-adv-x="534" d="M345 736 Q431 736 479 686.5 Q527 637 527 550 Q527 465 482.5 383.5 Q438 302 354 208 L153 -12 L114 22 L312 241 Q347 278 371 309 Q319 283 257 283 Q176 283 131.5 330 Q87 377 87 461 Q87 533 119.5 596.5 Q152 660 211 698 Q270 736 345 736 Z M411 367 Q436 405 453 457 Q470 509 470 554 Q470 617 437 652 Q404 687 342 687 Q283 687 237.5 654.5 Q192 622 168 570.5 Q144 519 144 462 Q144 397 177 363 Q210 329 272 329 Q306 329 342.5 339 Q379 349 411 367 Z " />
<glyph glyph-name="fraction" unicode="&#x2044;" horiz-adv-x="214" d="M-171 15 L384 734 L422 709 L-132 -10 L-171 15 Z " />
<glyph glyph-name="onehalf" unicode="&#xbd;" horiz-adv-x="832" d="M685 709 L131 -10 L92 15 L647 734 L685 709 Z M116 634 L109 676 L243 724 L283 724 L198 285 L148 285 L223 669 L116 634 Z M530 44 L737 44 L729 0 L461 0 L469 44 L663 229 Q698 261 716.5 288.5 Q735 316 735 346 Q735 398 673 398 Q646 398 614.5 388 Q583 378 555 360 L536 402 Q567 423 605 434.5 Q643 446 679 446 Q731 446 759 422 Q787 398 787 352 Q787 313 765.5 277.5 Q744 242 697 198 L530 44 Z " />
<glyph glyph-name="uni2153" unicode="&#x2153;" horiz-adv-x="851" d="M685 709 L131 -10 L92 15 L647 734 L685 709 Z M116 634 L109 676 L243 724 L283 724 L198 285 L148 285 L223 669 L116 634 Z M800 395 L653 262 L656 262 Q710 262 739.5 234 Q769 206 769 155 Q769 109 746.5 72.5 Q724 36 683.5 15 Q643 -6 592 -6 Q556 -6 522.5 4 Q489 14 467 31 L491 72 Q512 57 539 49 Q566 41 593 41 Q649 41 682 72 Q715 103 715 151 Q715 221 638 221 Q611 221 591 215 L574 239 L739 395 L544 395 L553 439 L809 439 L800 395 Z " />
<glyph glyph-name="uni2154" unicode="&#x2154;" horiz-adv-x="942" d="M777 709 L223 -10 L184 15 L739 734 L777 709 Z M307 285 L39 285 L47 329 L241 514 Q276 546 294.5 573.5 Q313 601 313 631 Q313 683 251 683 Q224 683 192.5 673 Q161 663 133 645 L114 687 Q145 708 183 719.5 Q221 731 257 731 Q309 731 337 707 Q365 683 365 637 Q365 598 343.5 562.5 Q322 527 275 483 L108 329 L315 329 L307 285 Z M891 395 L744 262 L747 262 Q801 262 830.5 234 Q860 206 860 155 Q860 109 837.5 72.5 Q815 36 774.5 15 Q734 -6 683 -6 Q647 -6 613.5 4 Q580 14 558 31 L582 72 Q603 57 630 49 Q657 41 684 41 Q740 41 773 72 Q806 103 806 151 Q806 221 729 221 Q702 221 682 215 L665 239 L830 395 L635 395 L644 439 L900 439 L891 395 Z " />
<glyph glyph-name="onequarter" unicode="&#xbc;" horiz-adv-x="803" d="M685 709 L131 -10 L92 15 L647 734 L685 709 Z M116 634 L109 676 L243 724 L283 724 L198 285 L148 285 L223 669 L116 634 Z M679 137 L736 137 L727 94 L671 94 L653 0 L604 0 L622 94 L420 94 L428 137 L665 439 L738 439 L679 137 Z M679 390 L485 137 L630 137 L679 390 Z " />
<glyph glyph-name="threequarters" unicode="&#xbe;" horiz-adv-x="893" d="M775 709 L221 -10 L182 15 L737 734 L775 709 Z M346 440 Q346 394 323.5 357.5 Q301 321 260.5 300 Q220 279 169 279 Q133 279 99.5 289 Q66 299 44 316 L68 357 Q89 342 116 334 Q143 326 170 326 Q226 326 259 357 Q292 388 292 436 Q292 506 215 506 Q187 506 168 500 L151 524 L316 680 L121 680 L130 724 L386 724 L377 680 L230 547 L233 547 Q287 547 316.5 519 Q346 491 346 440 Z M769 137 L826 137 L817 94 L761 94 L743 0 L694 0 L712 94 L510 94 L518 137 L755 439 L828 439 L769 137 Z M769 390 L575 137 L720 137 L769 390 Z " />
<glyph glyph-name="oneeighth" unicode="&#x215b;" horiz-adv-x="845" d="M685 709 L131 -10 L92 15 L647 734 L685 709 Z M116 634 L109 676 L243 724 L283 724 L198 285 L148 285 L223 669 L116 634 Z M797 356 Q797 313 769.5 278 Q742 243 694 228 Q732 217 753 192 Q774 167 774 131 Q774 72 728 33 Q682 -6 602 -6 Q539 -6 504 19 Q469 44 469 90 Q469 139 503.5 176 Q538 213 595 231 Q566 240 549.5 262.5 Q533 285 533 316 Q533 371 573.5 408.5 Q614 446 684 446 Q738 446 767.5 422.5 Q797 399 797 356 Z M746 353 Q746 377 729.5 389.5 Q713 402 682 402 Q636 402 610 376.5 Q584 351 584 312 Q584 264 646 246 Q688 257 715 283 Q742 309 745 343 L746 353 Z M722 125 Q727 185 642 212 Q586 197 554 165.5 Q522 134 522 95 Q522 68 543 53 Q564 38 603 38 Q655 38 686 62 Q717 86 722 125 Z " />
<glyph glyph-name="threeeighths" unicode="&#x215c;" horiz-adv-x="934" d="M775 709 L221 -10 L182 15 L737 734 L775 709 Z M346 440 Q346 394 323.5 357.5 Q301 321 260.5 300 Q220 279 169 279 Q133 279 99.5 289 Q66 299 44 316 L68 357 Q89 342 116 334 Q143 326 170 326 Q226 326 259 357 Q292 388 292 436 Q292 506 215 506 Q187 506 168 500 L151 524 L316 680 L121 680 L130 724 L386 724 L377 680 L230 547 L233 547 Q287 547 316.5 519 Q346 491 346 440 Z M887 356 Q887 313 859.5 278 Q832 243 784 228 Q822 217 843 192 Q864 167 864 131 Q864 72 818 33 Q772 -6 692 -6 Q629 -6 594 19 Q559 44 559 90 Q559 139 593.5 176 Q628 213 685 231 Q656 240 639.5 262.5 Q623 285 623 316 Q623 371 663.5 408.5 Q704 446 774 446 Q828 446 857.5 422.5 Q887 399 887 356 Z M836 353 Q836 377 819.5 389.5 Q803 402 772 402 Q726 402 700 376.5 Q674 351 674 312 Q674 264 736 246 Q778 257 805 283 Q832 309 835 343 L836 353 Z M812 125 Q817 185 732 212 Q676 197 644 165.5 Q612 134 612 95 Q612 68 633 53 Q654 38 693 38 Q745 38 776 62 Q807 86 812 125 Z " />
<glyph glyph-name="fiveeighths" unicode="&#x215d;" horiz-adv-x="932" d="M773 709 L219 -10 L180 15 L735 734 L773 709 Z M348 447 Q348 400 325.5 361.5 Q303 323 262 301 Q221 279 169 279 Q134 279 102.5 288.5 Q71 298 51 314 L76 354 Q95 341 119.5 333.5 Q144 326 170 326 Q228 326 262 360 Q296 394 296 444 Q296 478 276.5 495.5 Q257 513 220 513 Q174 513 132 491 L104 507 L161 724 L380 724 L372 680 L196 680 L159 546 Q192 559 231 559 Q286 559 317 530 Q348 501 348 447 Z M884 356 Q884 313 856.5 278 Q829 243 781 228 Q819 217 840 192 Q861 167 861 131 Q861 72 815 33 Q769 -6 689 -6 Q626 -6 591 19 Q556 44 556 90 Q556 139 590.5 176 Q625 213 682 231 Q653 240 636.5 262.5 Q620 285 620 316 Q620 371 660.5 408.5 Q701 446 771 446 Q825 446 854.5 422.5 Q884 399 884 356 Z M833 353 Q833 377 816.5 389.5 Q800 402 769 402 Q723 402 697 376.5 Q671 351 671 312 Q671 264 733 246 Q775 257 802 283 Q829 309 832 343 L833 353 Z M809 125 Q814 185 729 212 Q673 197 641 165.5 Q609 134 609 95 Q609 68 630 53 Q651 38 690 38 Q742 38 773 62 Q804 86 809 125 Z " />
<glyph glyph-name="seveneighths" unicode="&#x215e;" horiz-adv-x="828" d="M669 709 L115 -10 L76 15 L631 734 L669 709 Z M69 303 L314 680 L95 680 L104 724 L376 724 L368 680 L111 279 L69 303 Z M780 356 Q780 313 752.5 278 Q725 243 677 228 Q715 217 736 192 Q757 167 757 131 Q757 72 711 33 Q665 -6 585 -6 Q522 -6 487 19 Q452 44 452 90 Q452 139 486.5 176 Q521 213 578 231 Q549 240 532.5 262.5 Q516 285 516 316 Q516 371 556.5 408.5 Q597 446 667 446 Q721 446 750.5 422.5 Q780 399 780 356 Z M729 353 Q729 377 712.5 389.5 Q696 402 665 402 Q619 402 593 376.5 Q567 351 567 312 Q567 264 629 246 Q671 257 698 283 Q725 309 728 343 L729 353 Z M705 125 Q710 185 625 212 Q569 197 537 165.5 Q505 134 505 95 Q505 68 526 53 Q547 38 586 38 Q638 38 669 62 Q700 86 705 125 Z " />
<glyph glyph-name="uni2080" unicode="&#x2080;" horiz-adv-x="414" d="M144 -79 Q24 -79 24 68 Q24 140 45 210 Q66 280 111 326 Q156 372 224 372 Q344 372 344 226 Q344 154 323 83.5 Q302 13 257 -33 Q212 -79 144 -79 Z M146 -34 Q195 -34 228 7.5 Q261 49 276.5 110 Q292 171 292 230 Q292 280 275.5 303.5 Q259 327 222 327 Q173 327 140 285.5 Q107 244 91.5 183 Q76 122 76 63 Q76 13 93 -10.5 Q110 -34 146 -34 Z " />
<glyph glyph-name="uni2081" unicode="&#x2081;" horiz-adv-x="304" d="M214 366 L129 -73 L79 -73 L153 312 L47 276 L40 318 L174 366 L214 366 Z " />
<glyph glyph-name="uni2082" unicode="&#x2082;" horiz-adv-x="354" d="M39 -29 L245 -29 L237 -73 L-31 -73 L-23 -29 L171 156 Q206 188 224.5 215.5 Q243 243 243 273 Q243 325 181 325 Q154 325 122.5 315 Q91 305 63 287 L44 329 Q75 350 113 361.5 Q151 373 187 373 Q239 373 267 349 Q295 325 295 279 Q295 240 273.5 204.5 Q252 169 205 125 L39 -29 Z " />
<glyph glyph-name="uni2083" unicode="&#x2083;" horiz-adv-x="373" d="M308 322 L161 189 L164 189 Q218 189 247.5 161 Q277 133 277 82 Q277 36 254.5 -0.5 Q232 -37 191.5 -58 Q151 -79 100 -79 Q64 -79 30.5 -69 Q-3 -59 -25 -42 L-1 -1 Q20 -16 47 -24 Q74 -32 101 -32 Q157 -32 190 -1 Q223 30 223 78 Q223 148 146 148 Q119 148 99 142 L82 166 L247 322 L52 322 L61 366 L317 366 L308 322 Z " />
<glyph glyph-name="uni2084" unicode="&#x2084;" horiz-adv-x="375" d="M237 64 L294 64 L285 21 L229 21 L211 -73 L162 -73 L180 21 L-22 21 L-14 64 L223 366 L296 366 L237 64 Z M238 318 L42 64 L188 64 L238 318 Z " />
</font>
</svg>
