<?xml version="1.0" standalone="no"?>
<!DOCTYPE svg PUBLIC "-//W3C//DTD SVG 1.1//EN" "http://www.w3.org/Graphics/SVG/1.1/DTD/svg11.dtd" >
<svg xmlns="http://www.w3.org/2000/svg" xmlns:xlink="http://www.w3.org/1999/xlink" version="1.1">
<metadata>
Created by FontForge 20190801 at Thu Feb  5 22:34:12 2015
 By Jimmy Wärting
Samsung Sharp Sans is a customized version of Sharp Sans, which is copyright (c) 2015 by Lucas Sharp. All rights reserved.
</metadata>
<defs>
<font id="SamsungSharpSans-Medium" horiz-adv-x="461" >
  <font-face 
    font-family="Samsung Sharp Sans Medium"
    font-weight="664"
    font-stretch="normal"
    units-per-em="1000"
    panose-1="0 0 0 0 0 0 0 0 0 0"
    ascent="800"
    descent="-200"
    x-height="585"
    cap-height="730"
    bbox="-75 -285 1370.01 1085"
    underline-thickness="50"
    underline-position="-100"
    unicode-range="U+0020-FB79"
  />
<missing-glyph horiz-adv-x="926" 
d="M100 0v730h726v-730h-726zM236 600v-470h454v470h-454zM340 162l-80 78l123 127l-124 129l80 78l122 -126l124 127l80 -78l-126 -130l125 -128l-80 -78l-123 126z" />
    <glyph glyph-name="interrobang" unicode="&#x21;&#x3f;" horiz-adv-x="533" 
d="M223 189c-4 106 -7 290 -7 424v39c-48 -12 -77 -45 -95 -87l-88 34c31 81 111 141 226 141c133 0 227 -77 227 -193c0 -189 -192 -136 -192 -348v-10h-71zM179 63c0 43 29 72 72 72c47 0 74 -29 74 -72s-27 -72 -74 -72c-45 0 -72 29 -72 72zM389 548
c0 50 -33 89 -86 103v-38c0 -67 -3 -144 -7 -217c42 51 93 72 93 152z" />
    <glyph glyph-name="interrobangdown" unicode="&#xa1;&#xbf;" horiz-adv-x="533" 
d="M275 -240c-132 0 -227 77 -227 193c0 189 192 137 192 348v10h72c3 -106 6 -290 6 -424v-39c47 12 77 45 96 87l88 -34c-31 -81 -112 -141 -227 -141zM206 431c0 43 29 72 72 72c47 0 74 -29 74 -72s-27 -72 -74 -72c-45 0 -72 29 -72 72zM146 -48c0 -50 32 -89 85 -103
v38c0 66 3 143 7 216c-42 -51 -92 -72 -92 -151z" />
    <glyph glyph-name="r.smcp.alt" unicode="&#x683;" horiz-adv-x="512" arabic-form="isolated" 
d="M57 0v596h205c129 0 212 -87 212 -196c0 -75 -41 -142 -112 -175l123 -225h-108l-104 199h-120v-199h-96zM256 508h-103v-220h100c80 0 123 52 123 111c0 65 -40 109 -120 109z" />
    <glyph glyph-name="racute.smcp.alt" unicode="&#x683;" horiz-adv-x="512" arabic-form="final" 
d="M57 0v596h205c129 0 212 -87 212 -196c0 -75 -41 -142 -112 -175l123 -225h-108l-104 199h-120v-199h-96zM256 508h-103v-220h100c80 0 123 52 123 111c0 65 -40 109 -120 109zM193 653l116 163h105l-146 -163h-75z" />
    <glyph glyph-name="rcaron.smcp.alt" unicode="&#x683;" horiz-adv-x="512" arabic-form="initial" 
d="M57 0v596h205c129 0 212 -87 212 -196c0 -75 -41 -142 -112 -175l123 -225h-108l-104 199h-120v-199h-96zM256 508h-103v-220h100c80 0 123 52 123 111c0 65 -40 109 -120 109zM219 653l-119 163h85l68 -98l70 98h84l-119 -163h-69z" />
    <glyph glyph-name="rcommaaccent.smcp.alt" unicode="&#x683;" horiz-adv-x="512" arabic-form="medial" 
d="M57 0v596h205c129 0 212 -87 212 -196c0 -75 -41 -142 -112 -175l123 -225h-108l-104 199h-120v-199h-96zM256 508h-103v-220h100c80 0 123 52 123 111c0 65 -40 109 -120 109zM237 -255h-63l40 204h86z" />
    <glyph glyph-name=".notdef" horiz-adv-x="926" 
d="M100 0v730h726v-730h-726zM236 600v-470h454v470h-454zM340 162l-80 78l123 127l-124 129l80 78l122 -126l124 127l80 -78l-126 -130l125 -128l-80 -78l-123 126z" />
    <glyph glyph-name="A" unicode="A" horiz-adv-x="696" 
d="M27 0l271 730h101l270 -730h-101l-62 167h-316l-61 -167h-102zM348 597l-124 -337h248z" />
    <glyph glyph-name="AE" unicode="&#xc6;" horiz-adv-x="993" 
d="M23 0l346 730h565v-92h-441l54 -226h387v-92h-365l54 -227h311v-93h-390l-39 164h-300l-77 -164h-105zM405 589l-158 -335h237z" />
    <glyph glyph-name="AEacute" unicode="&#x1fc;" horiz-adv-x="993" 
d="M23 0l346 730h565v-92h-441l54 -226h387v-92h-365l54 -227h311v-93h-390l-39 164h-300l-77 -164h-105zM405 589l-158 -335h237zM498 797l116 163h105l-146 -163h-75z" />
    <glyph glyph-name="acute" unicode="&#xb4;" horiz-adv-x="489" 
d="M125 557l116 163h105l-146 -163h-75z" />
    <glyph glyph-name="Aacute" unicode="&#xc1;" horiz-adv-x="696" 
d="M27 0l271 730h101l270 -730h-101l-62 167h-316l-61 -167h-102zM348 597l-124 -337h248zM305 787l116 163h105l-146 -163h-75z" />
    <glyph glyph-name="Abreve" unicode="&#x102;" horiz-adv-x="696" 
d="M27 0l271 730h101l270 -730h-101l-62 167h-316l-61 -167h-102zM348 597l-124 -337h248zM344 782c-110 0 -161 73 -161 164h70c0 -63 32 -102 91 -103c58 1 91 40 91 103h71c0 -91 -62 -164 -162 -164z" />
    <glyph glyph-name="breve" unicode="&#x2d8;" horiz-adv-x="489" 
d="M243 551c-110 0 -161 73 -161 164h70c0 -63 32 -102 91 -103c58 1 91 40 91 103h71c0 -91 -62 -164 -162 -164z" />
    <glyph glyph-name="Acircumflex" unicode="&#xc2;" horiz-adv-x="696" 
d="M27 0l271 730h101l270 -730h-101l-62 167h-316l-61 -167h-102zM348 597l-124 -337h248zM190 787l119 163h69l119 -163h-84l-70 98l-68 -98h-85z" />
    <glyph glyph-name="circumflex" unicode="&#x2c6;" horiz-adv-x="489" 
d="M91 557l119 163h69l119 -163h-84l-70 98l-68 -98h-85z" />
    <glyph glyph-name="Adieresis" unicode="&#xc4;" horiz-adv-x="696" 
d="M27 0l271 730h101l270 -730h-101l-62 167h-316l-61 -167h-102zM348 597l-124 -337h248zM185 861c0 37 25 62 63 62c41 0 64 -25 64 -62c0 -38 -23 -63 -64 -63c-40 0 -63 25 -63 63zM380 861c0 37 25 62 63 62c41 0 64 -25 64 -62c0 -38 -23 -63 -64 -63
c-40 0 -63 25 -63 63z" />
    <glyph glyph-name="dieresis" unicode="&#xa8;" horiz-adv-x="492" 
d="M82 631c0 37 25 62 63 62c41 0 64 -25 64 -62c0 -38 -23 -63 -64 -63c-40 0 -63 25 -63 63zM277 631c0 37 25 62 63 62c41 0 64 -25 64 -62c0 -38 -23 -63 -64 -63c-40 0 -63 25 -63 63z" />
    <glyph glyph-name="Agrave" unicode="&#xc0;" horiz-adv-x="696" 
d="M27 0l271 730h101l270 -730h-101l-62 167h-316l-61 -167h-102zM348 597l-124 -337h248zM309 787l-146 163h104l117 -163h-75z" />
    <glyph glyph-name="grave" unicode="`" horiz-adv-x="489" 
d="M271 557l-146 163h104l117 -163h-75z" />
    <glyph glyph-name="Amacron" unicode="&#x100;" horiz-adv-x="696" 
d="M27 0l271 730h101l270 -730h-101l-62 167h-316l-61 -167h-102zM348 597l-124 -337h248zM214 787v70h264v-70h-264z" />
    <glyph glyph-name="macron" unicode="&#xaf;" horiz-adv-x="489" 
d="M113 557v70h264v-70h-264z" />
    <glyph glyph-name="Anocross" unicode="&#xe731;" horiz-adv-x="696" 
d="M27 0l271 730h101l270 -730h-101l-220 597l-219 -597h-102z" />
    <glyph glyph-name="Aogonek" unicode="&#x104;" horiz-adv-x="696" 
d="M597 -219c-82 0 -137 45 -137 103c0 44 24 84 103 129l-57 154h-316l-61 -167h-102l271 730h101l270 -730h-3l2 -1c-102 -63 -125 -83 -125 -112c0 -25 23 -38 54 -38s51 15 71 33l65 -44c-34 -31 -87 -57 -136 -57zM348 597l-124 -337h248z" />
    <glyph glyph-name="ogonek" unicode="&#x2db;" horiz-adv-x="489" 
d="M239 -219c-82 0 -137 45 -137 103c0 50 32 96 142 150l66 -35c-102 -63 -125 -83 -125 -112c0 -25 23 -38 54 -38s51 15 71 33l65 -44c-34 -31 -87 -57 -136 -57z" />
    <glyph glyph-name="Aring" unicode="&#xc5;" horiz-adv-x="696" 
d="M27 0l256 690c-29 19 -47 52 -47 90c0 61 48 110 108 110c62 0 111 -49 111 -110c0 -36 -17 -66 -43 -86l257 -694h-101l-62 167h-316l-61 -167h-102zM348 597l-124 -337h248zM344 734c26 0 47 20 47 46c0 25 -21 47 -47 47c-25 0 -46 -22 -46 -47c0 -26 21 -46 46 -46z
" />
    <glyph glyph-name="ring" unicode="&#x2da;" horiz-adv-x="489" 
d="M242 553c-60 0 -108 48 -108 109s48 110 108 110c62 0 111 -49 111 -110s-49 -109 -111 -109zM242 616c26 0 47 20 47 46c0 25 -21 47 -47 47c-25 0 -46 -22 -46 -47c0 -26 21 -46 46 -46z" />
    <glyph glyph-name="Aringacute" unicode="&#x1fa;" horiz-adv-x="696" 
d="M27 0l256 691c-26 20 -42 51 -42 87c0 61 48 110 108 110c62 0 111 -49 111 -110c0 -37 -18 -69 -46 -89l255 -689h-101l-62 167h-316l-61 -167h-102zM348 597l-124 -337h248zM310 922l116 163h105l-146 -163h-75zM349 732c26 0 47 20 47 46c0 25 -21 47 -47 47
c-25 0 -46 -22 -46 -47c0 -26 21 -46 46 -46z" />
    <glyph glyph-name="Atilde" unicode="&#xc3;" horiz-adv-x="696" 
d="M27 0l271 730h101l270 -730h-101l-62 167h-316l-61 -167h-102zM348 597l-124 -337h248zM173 787c0 74 39 123 100 123c33 0 57 -13 80 -27c21 -13 40 -27 61 -27c23 0 36 16 36 50h66c0 -75 -35 -123 -101 -123c-38 0 -66 18 -91 32c-18 11 -32 21 -51 21
c-22 0 -35 -15 -35 -49h-65z" />
    <glyph glyph-name="tilde" unicode="&#x2dc;" horiz-adv-x="489" 
d="M71 557c0 74 39 123 100 123c33 0 57 -13 80 -27c21 -13 40 -27 61 -27c23 0 36 16 36 50h66c0 -75 -35 -123 -101 -123c-38 0 -66 18 -91 32c-18 11 -32 21 -51 21c-22 0 -35 -15 -35 -49h-65z" />
    <glyph glyph-name="Aumlaut" unicode="&#xf176;" horiz-adv-x="696" 
d="M27 0l271 730h101l270 -730h-101l-62 167h-316l-61 -167h-102zM348 597l-124 -337h248zM504 592v138h96v-138h-96zM100 592v138h95v-138h-95z" />
    <glyph glyph-name="B" unicode="B" horiz-adv-x="610" 
d="M60 0v730h255c142 0 233 -75 233 -197c0 -66 -30 -121 -89 -152c71 -29 111 -90 111 -172c0 -132 -95 -209 -239 -209h-271zM327 331h-171v-242h175c88 0 142 50 142 121c0 73 -46 121 -146 121zM314 642h-158v-221h164c88 0 131 47 131 112c0 67 -49 109 -137 109z" />
    <glyph glyph-name="C" unicode="C" horiz-adv-x="769" 
d="M414 -10c-214 0 -375 168 -375 375c0 212 167 375 375 375c138 0 258 -74 323 -184l-85 -52c-47 86 -131 143 -238 143c-158 0 -277 -126 -277 -282c0 -154 119 -280 276 -280c117 0 202 63 247 154l87 -46c-63 -121 -184 -203 -333 -203z" />
    <glyph glyph-name="Cacute" unicode="&#x106;" horiz-adv-x="769" 
d="M371 787l116 163h105l-146 -163h-75zM414 -10c-214 0 -375 168 -375 375c0 212 167 375 375 375c138 0 258 -74 323 -184l-85 -52c-47 86 -131 143 -238 143c-158 0 -277 -126 -277 -282c0 -154 119 -280 276 -280c117 0 202 63 247 154l87 -46
c-63 -121 -184 -203 -333 -203z" />
    <glyph glyph-name="Ccaron" unicode="&#x10c;" horiz-adv-x="769" 
d="M414 -10c-214 0 -375 168 -375 375c0 212 167 375 375 375c138 0 258 -74 323 -184l-85 -52c-47 86 -131 143 -238 143c-158 0 -277 -126 -277 -282c0 -154 119 -280 276 -280c117 0 202 63 247 154l87 -46c-63 -121 -184 -203 -333 -203zM377 787l-119 163h85l68 -98
l70 98h84l-119 -163h-69z" />
    <glyph glyph-name="caron" unicode="&#x2c7;" horiz-adv-x="489" 
d="M209 557l-119 163h85l68 -98l70 98h84l-119 -163h-69z" />
    <glyph glyph-name="Ccedilla" unicode="&#xc7;" horiz-adv-x="769" 
d="M411 -235c-58 0 -107 23 -143 56l64 39c24 -20 45 -35 84 -35c36 0 65 17 65 39s-24 34 -68 34h-43v95c-192 21 -331 179 -331 372c0 212 167 375 375 375c138 0 258 -74 323 -184l-85 -52c-47 86 -131 143 -238 143c-158 0 -277 -126 -277 -282
c0 -154 119 -280 276 -280c117 0 202 63 247 154l87 -46c-60 -114 -171 -193 -308 -202v-44c72 1 118 -33 118 -80c0 -60 -66 -102 -146 -102z" />
    <glyph glyph-name="cedilla" unicode="&#xb8;" horiz-adv-x="489" 
d="M231 -235c-58 0 -107 23 -143 56l64 39c24 -20 45 -35 84 -35c36 0 65 17 65 39s-24 34 -68 34h-43v102h69v-53c72 1 118 -33 118 -80c0 -60 -66 -102 -146 -102z" />
    <glyph glyph-name="Ccircumflex" unicode="&#x108;" horiz-adv-x="769" 
d="M414 -10c-214 0 -375 168 -375 375c0 212 167 375 375 375c138 0 258 -74 323 -184l-85 -52c-47 86 -131 143 -238 143c-158 0 -277 -126 -277 -282c0 -154 119 -280 276 -280c117 0 202 63 247 154l87 -46c-63 -121 -184 -203 -333 -203zM261 787l119 163h69l119 -163
h-84l-70 98l-68 -98h-85z" />
    <glyph glyph-name="Cdotaccent" unicode="&#x10a;" horiz-adv-x="769" 
d="M414 -10c-214 0 -375 168 -375 375c0 212 167 375 375 375c138 0 258 -74 323 -184l-85 -52c-47 86 -131 143 -238 143c-158 0 -277 -126 -277 -282c0 -154 119 -280 276 -280c117 0 202 63 247 154l87 -46c-63 -121 -184 -203 -333 -203zM356 861c0 38 26 64 65 64
c42 0 66 -26 66 -64c0 -39 -24 -65 -66 -65c-41 0 -65 26 -65 65z" />
    <glyph glyph-name="dotaccent" unicode="&#x2d9;" horiz-adv-x="492" 
d="M171 631c0 38 26 64 65 64c42 0 66 -26 66 -64c0 -39 -24 -65 -66 -65c-41 0 -65 26 -65 65z" />
    <glyph glyph-name="D" unicode="D" horiz-adv-x="684" 
d="M60 0v730h203c233 0 382 -158 382 -365c0 -208 -161 -365 -378 -365h-207zM254 641h-98v-551h101c172 0 290 119 290 275c0 158 -109 276 -293 276z" />
    <glyph glyph-name="Dcaron" unicode="&#x10e;" horiz-adv-x="684" 
d="M60 0v730h203c233 0 382 -158 382 -365c0 -208 -161 -365 -378 -365h-207zM254 641h-98v-551h101c172 0 290 119 290 275c0 158 -109 276 -293 276zM249 787l-119 163h85l68 -98l70 98h84l-119 -163h-69z" />
    <glyph glyph-name="Dcroat" unicode="&#x110;" horiz-adv-x="717" 
d="M22 323v88h73v319h201c233 0 382 -158 382 -365c0 -208 -161 -365 -378 -365h-205v323h-73zM286 641h-94v-230h198v-88h-198v-233h97c172 0 292 119 292 275c0 158 -110 276 -295 276z" />
    <glyph glyph-name="Eth" unicode="&#xd0;" horiz-adv-x="717" 
d="M22 323v88h73v319h201c233 0 382 -158 382 -365c0 -208 -161 -365 -378 -365h-205v323h-73zM286 641h-94v-230h198v-88h-198v-233h97c172 0 292 119 292 275c0 158 -110 276 -295 276z" />
    <glyph glyph-name="E" unicode="E" horiz-adv-x="550" 
d="M60 0v730h440v-92h-344v-226h344v-92h-344v-227h344v-93h-440z" />
    <glyph glyph-name="Eacute" unicode="&#xc9;" horiz-adv-x="551" 
d="M60 0v730h440v-92h-344v-226h344v-92h-344v-227h344v-93h-440zM226 787l116 163h105l-146 -163h-75z" />
    <glyph glyph-name="Ebreve" unicode="&#x114;" horiz-adv-x="551" 
d="M60 0v730h440v-92h-344v-226h344v-92h-344v-227h344v-93h-440zM280 782c-110 0 -161 73 -161 164h70c0 -63 32 -102 91 -103c58 1 91 40 91 103h71c0 -91 -62 -164 -162 -164z" />
    <glyph glyph-name="Ecaron" unicode="&#x11a;" horiz-adv-x="552" 
d="M60 0v730h440v-92h-344v-226h344v-92h-344v-227h344v-93h-440zM241 787l-119 163h85l68 -98l70 98h84l-119 -163h-69z" />
    <glyph glyph-name="Ecircumflex" unicode="&#xca;" horiz-adv-x="551" 
d="M60 0v730h440v-92h-344v-226h344v-92h-344v-227h344v-93h-440zM123 787l119 163h69l119 -163h-84l-70 98l-68 -98h-85z" />
    <glyph glyph-name="Edieresis" unicode="&#xcb;" horiz-adv-x="551" 
d="M60 0v730h440v-92h-344v-226h344v-92h-344v-227h344v-93h-440zM316 861c0 37 25 62 63 62c41 0 64 -25 64 -62c0 -38 -23 -63 -64 -63c-40 0 -63 25 -63 63zM121 861c0 37 25 62 63 62c41 0 64 -25 64 -62c0 -38 -23 -63 -64 -63c-40 0 -63 25 -63 63z" />
    <glyph glyph-name="Edotaccent" unicode="&#x116;" horiz-adv-x="551" 
d="M60 0v730h440v-92h-344v-226h344v-92h-344v-227h344v-93h-440zM227 861c0 38 26 64 65 64c42 0 66 -26 66 -64c0 -39 -24 -65 -66 -65c-41 0 -65 26 -65 65z" />
    <glyph glyph-name="Egrave" unicode="&#xc8;" horiz-adv-x="551" 
d="M60 0v730h440v-92h-344v-226h344v-92h-344v-227h344v-93h-440zM251 787l-146 163h104l117 -163h-75z" />
    <glyph glyph-name="Emacron" unicode="&#x112;" horiz-adv-x="551" 
d="M60 0v730h440v-92h-344v-226h344v-92h-344v-227h344v-93h-440zM145 787v70h264v-70h-264z" />
    <glyph glyph-name="Eng" unicode="&#x14a;" horiz-adv-x="720" 
d="M449 -213v94h21c72 1 93 26 93 101v29l-405 571v-582h-98v730h110l393 -556v556h96v-747c0 -135 -47 -196 -180 -196h-30z" />
    <glyph glyph-name="Eogonek" unicode="&#x118;" horiz-adv-x="551" 
d="M60 0v730h440v-92h-344v-226h344v-92h-344v-227h344v-93h-2l2 -1c-102 -63 -125 -83 -125 -112c0 -25 23 -38 54 -38s51 15 71 33l65 -44c-34 -31 -87 -57 -136 -57c-82 0 -137 45 -137 103c0 39 20 76 81 116h-313z" />
    <glyph glyph-name="Euro" unicode="&#x20ac;" horiz-adv-x="588" 
d="M30 433v77h75c5 133 100 230 238 230c76 0 138 -29 179 -76l-70 -63c-25 30 -61 47 -109 47c-88 0 -136 -57 -141 -138h252l-14 -77h-238v-136h217l-12 -76h-205c2 -84 49 -138 139 -138c53 0 90 21 113 54l81 -59c-40 -55 -104 -88 -193 -88c-153 0 -236 92 -237 231
h-75v76h75v136h-75z" />
    <glyph glyph-name="Euro.LP" unicode="&#xe521;" horiz-adv-x="843" 
d="M30 431v79h100c56 136 190 230 348 230c121 0 224 -54 292 -138l-73 -62c-46 67 -126 107 -219 107c-105 0 -193 -55 -239 -137h356l-21 -79h-363c-6 -21 -10 -43 -10 -66s4 -45 10 -66h328l-22 -78h-278c46 -83 133 -137 238 -137s180 47 227 123l81 -52
c-68 -101 -170 -165 -305 -165c-162 0 -294 95 -349 231h-101v78h78c-3 21 -5 43 -5 66c0 22 2 45 5 66h-78z" />
    <glyph glyph-name="Euro.LT" unicode="&#xf467;" horiz-adv-x="588" 
d="M30 433v77h75c5 133 100 230 238 230c76 0 138 -29 179 -76l-70 -63c-25 30 -61 47 -109 47c-88 0 -136 -57 -141 -138h252l-14 -77h-238v-136h217l-12 -76h-205c2 -84 49 -138 139 -138c53 0 90 21 113 54l81 -59c-40 -55 -104 -88 -193 -88c-153 0 -236 92 -237 231
h-75v76h75v136h-75z" />
    <glyph glyph-name="F" unicode="F" horiz-adv-x="524" 
d="M60 0v730h413v-92h-317v-226h317v-92h-317v-320h-96z" />
    <glyph glyph-name="G" unicode="G" horiz-adv-x="820" 
d="M418 -10c-219 0 -379 170 -379 375c0 208 160 375 379 375c144 0 263 -75 326 -187l-84 -51c-49 90 -134 145 -242 145c-165 0 -281 -128 -281 -282c0 -155 117 -281 281 -281c149 0 240 92 262 220h-274v92h375v-34c0 -199 -135 -372 -363 -372z" />
    <glyph glyph-name="Gbreve" unicode="&#x11e;" horiz-adv-x="820" 
d="M418 -10c-219 0 -379 170 -379 375c0 208 160 375 379 375c144 0 263 -75 326 -187l-84 -51c-49 90 -134 145 -242 145c-165 0 -281 -128 -281 -282c0 -155 117 -281 281 -281c149 0 240 92 262 220h-274v92h375v-34c0 -199 -135 -372 -363 -372zM410 782
c-110 0 -161 73 -161 164h70c0 -63 32 -102 91 -103c58 1 91 40 91 103h71c0 -91 -62 -164 -162 -164z" />
    <glyph glyph-name="Gcircumflex" unicode="&#x11c;" horiz-adv-x="820" 
d="M418 -10c-219 0 -379 170 -379 375c0 208 160 375 379 375c144 0 263 -75 326 -187l-84 -51c-49 90 -134 145 -242 145c-165 0 -281 -128 -281 -282c0 -155 117 -281 281 -281c149 0 240 92 262 220h-274v92h375v-34c0 -199 -135 -372 -363 -372zM258 787l119 163h69
l119 -163h-84l-70 98l-68 -98h-85z" />
    <glyph glyph-name="Gcommaaccent" unicode="&#x122;" horiz-adv-x="820" 
d="M418 -10c-219 0 -379 170 -379 375c0 208 160 375 379 375c144 0 263 -75 326 -187l-84 -51c-49 90 -134 145 -242 145c-165 0 -281 -128 -281 -282c0 -155 117 -281 281 -281c149 0 240 92 262 220h-274v92h375v-34c0 -199 -135 -372 -363 -372zM402 -259h-63l40 204h86
z" />
    <glyph glyph-name="commaaccent" unicode="&#xe414;" horiz-adv-x="492" 
d="M238 -249h-63l40 204h86z" />
    <glyph glyph-name="commaaccent" unicode="&#xf6c3;" horiz-adv-x="492" 
d="M238 -249h-63l40 204h86z" />
    <glyph glyph-name="Gdotaccent" unicode="&#x120;" horiz-adv-x="820" 
d="M418 -10c-219 0 -379 170 -379 375c0 208 160 375 379 375c144 0 263 -75 326 -187l-84 -51c-49 90 -134 145 -242 145c-165 0 -281 -128 -281 -282c0 -155 117 -281 281 -281c149 0 240 92 262 220h-274v92h375v-34c0 -199 -135 -372 -363 -372zM348 861
c0 38 26 64 65 64c42 0 66 -26 66 -64c0 -39 -24 -65 -66 -65c-41 0 -65 26 -65 65z" />
    <glyph glyph-name="H" unicode="H" horiz-adv-x="665" 
d="M508 0v320h-352v-320h-96v730h96v-317h352v317h97v-730h-97z" />
    <glyph glyph-name="Hbar" unicode="&#x126;" horiz-adv-x="712" 
d="M18 535v74h64v121h96v-121h352v121h97v-121h61v-74h-61v-535h-97v320h-352v-320h-96v535h-64zM178 535v-122h352v122h-352z" />
    <glyph glyph-name="Hcircumflex" unicode="&#x124;" horiz-adv-x="666" 
d="M508 0v320h-352v-320h-96v730h96v-317h352v317h97v-730h-97zM178 787l119 163h69l119 -163h-84l-70 98l-68 -98h-85z" />
    <glyph glyph-name="I" unicode="I" horiz-adv-x="233" 
d="M68 0v730h97v-730h-97z" />
    <glyph glyph-name="IJ" unicode="&#x132;" horiz-adv-x="538" 
d="M233 0v93h56c70 0 98 30 98 107v530h97v-528c0 -138 -49 -202 -187 -202h-64zM54 0v730h98v-730h-98z" />
    <glyph glyph-name="Iacute" unicode="&#xcd;" horiz-adv-x="233" 
d="M68 0v730h97v-730h-97zM76 787l116 163h105l-146 -163h-75z" />
    <glyph glyph-name="Ibreve" unicode="&#x12c;" horiz-adv-x="233" 
d="M68 0v730h97v-730h-97zM114 782c-110 0 -161 73 -161 164h70c0 -63 32 -102 91 -103c58 1 91 40 91 103h71c0 -91 -62 -164 -162 -164z" />
    <glyph glyph-name="Icircumflex" unicode="&#xce;" horiz-adv-x="233" 
d="M68 0v730h97v-730h-97zM-38 787l119 163h69l119 -163h-84l-70 98l-68 -98h-85z" />
    <glyph glyph-name="Idieresis" unicode="&#xcf;" horiz-adv-x="233" 
d="M170 791v138h96v-138h-96zM-33 791v138h96v-138h-96zM68 0v730h97v-730h-97z" />
    <glyph glyph-name="Idotaccent" unicode="&#x130;" horiz-adv-x="233" 
d="M68 0v730h97v-730h-97zM51 861c0 38 26 64 65 64c42 0 66 -26 66 -64c0 -39 -24 -65 -66 -65c-41 0 -65 26 -65 65z" />
    <glyph glyph-name="Igrave" unicode="&#xcc;" horiz-adv-x="233" 
d="M68 0v730h97v-730h-97zM79 787l-146 163h104l117 -163h-75z" />
    <glyph glyph-name="Imacron" unicode="&#x12a;" horiz-adv-x="233" 
d="M68 0v730h97v-730h-97zM-16 787v70h264v-70h-264z" />
    <glyph glyph-name="Iogonek" unicode="&#x12e;" horiz-adv-x="233" 
d="M118 -223c-80 0 -123 50 -124 108c-1 48 28 88 74 125v720h97v-730h-2c-62 -45 -89 -81 -89 -110c0 -26 19 -43 46 -43c26 0 44 13 61 30l55 -52c-31 -27 -72 -48 -118 -48z" />
    <glyph glyph-name="uni0328" unicode="&#x328;" horiz-adv-x="489" 
d="M267 -223c-80 0 -123 50 -124 108s43 105 106 149l63 -34c-62 -45 -89 -81 -89 -110c0 -26 19 -43 46 -43c26 0 44 13 61 30l55 -52c-31 -27 -72 -48 -118 -48z" />
    <glyph glyph-name="Itilde" unicode="&#x128;" horiz-adv-x="232" 
d="M68 0v730h97v-730h-97zM-47 787c0 74 39 123 100 123c33 0 57 -13 80 -27c21 -13 40 -27 61 -27c23 0 36 16 36 50h66c0 -75 -35 -123 -101 -123c-38 0 -66 18 -91 32c-18 11 -32 21 -51 21c-22 0 -35 -15 -35 -49h-65z" />
    <glyph glyph-name="J" unicode="J" horiz-adv-x="484" 
d="M230 -10c-99 0 -173 52 -201 128l92 43c16 -47 54 -81 107 -81c65 0 101 47 101 118v532h97v-526c0 -134 -74 -214 -196 -214z" />
    <glyph glyph-name="Jcircumflex" unicode="&#x134;" horiz-adv-x="484" 
d="M230 -10c-99 0 -173 52 -201 128l92 43c16 -47 54 -81 107 -81c65 0 101 47 101 118v532h97v-526c0 -134 -74 -214 -196 -214zM221 787l119 163h69l119 -163h-84l-70 98l-68 -98h-85z" />
    <glyph glyph-name="K" unicode="K" horiz-adv-x="634" 
d="M504 0l-228 375l-120 -142v-233h-96v730h96v-370l312 370h119l-243 -289l272 -441h-112z" />
    <glyph glyph-name="Kcommaaccent" unicode="&#x136;" horiz-adv-x="635" 
d="M505 0l-228 375l-120 -142v-233h-96v730h96v-370l312 370h119l-243 -289l272 -441h-112zM308 -259h-63l40 204h86z" />
    <glyph glyph-name="L" unicode="L" horiz-adv-x="512" 
d="M60 0v730h96v-637h309v-93h-405z" />
    <glyph glyph-name="Lacute" unicode="&#x139;" horiz-adv-x="512" 
d="M60 0v730h96v-637h309v-93h-405zM67 787l116 163h105l-146 -163h-75z" />
    <glyph glyph-name="Lcaron" unicode="&#x13d;" horiz-adv-x="512" 
d="M60 0v730h96v-637h309v-93h-405zM266 554l36 176h82l-56 -176h-62z" />
    <glyph glyph-name="caronSlovak" unicode="&#xe413;" horiz-adv-x="489" 
d="M199 545l36 176h82l-56 -176h-62z" />
    <glyph glyph-name="Lcommaaccent" unicode="&#x13b;" horiz-adv-x="512" 
d="M60 0v730h96v-637h309v-93h-405zM241 -259h-63l40 204h86z" />
    <glyph glyph-name="Ldot" unicode="&#x13f;" horiz-adv-x="516" 
d="M60 0v730h96v-637h309v-93h-405zM351 362c0 38 26 64 65 64c42 0 66 -26 66 -64c0 -39 -24 -65 -66 -65c-41 0 -65 26 -65 65z" />
    <glyph glyph-name="Lslash" unicode="&#x141;" horiz-adv-x="546" 
d="M14 322v70l80 24v314h96v-284l132 40v-70l-132 -40v-283h309v-93h-405v346z" />
    <glyph glyph-name="M" unicode="M" horiz-adv-x="836" 
d="M60 0v730h97l259 -359l263 353v6h96v-730h-96v575l-265 -358l-258 353v-570h-96z" />
    <glyph glyph-name="N" unicode="N" horiz-adv-x="720" 
d="M60 0v730h110l393 -574v574h96v-730h-103l-400 582v-582h-96z" />
    <glyph glyph-name="Nacute" unicode="&#x143;" horiz-adv-x="720" 
d="M60 0v730h110l393 -574v574h96v-730h-103l-400 582v-582h-96zM327 787l116 163h105l-146 -163h-75z" />
    <glyph glyph-name="Ncaron" unicode="&#x147;" horiz-adv-x="720" 
d="M60 0v730h110l393 -574v574h96v-730h-103l-400 582v-582h-96zM326 787l-119 163h85l68 -98l70 98h84l-119 -163h-69z" />
    <glyph glyph-name="Ncommaaccent" unicode="&#x145;" horiz-adv-x="720" 
d="M60 0v730h110l393 -574v574h96v-730h-103l-400 582v-582h-96zM337 -259h-63l40 204h86z" />
    <glyph glyph-name="Ntilde" unicode="&#xd1;" horiz-adv-x="720" 
d="M60 0v730h110l393 -574v574h96v-730h-103l-400 582v-582h-96zM187 787c0 74 39 123 100 123c33 0 57 -13 80 -27c21 -13 40 -27 61 -27c23 0 36 16 36 50h66c0 -75 -35 -123 -101 -123c-38 0 -66 18 -91 32c-18 11 -32 21 -51 21c-22 0 -35 -15 -35 -49h-65z" />
    <glyph glyph-name="O" unicode="O" horiz-adv-x="827" 
d="M413 -10c-207 0 -374 168 -374 375s167 375 374 375c208 0 375 -168 375 -375s-167 -375 -375 -375zM413 84c157 0 278 127 278 281s-121 281 -278 281c-155 0 -276 -127 -276 -281s121 -281 276 -281z" />
    <glyph glyph-name="OE" unicode="&#x152;" horiz-adv-x="1181" 
d="M691 0v122c-64 -81 -162 -132 -278 -132c-207 0 -374 168 -374 375s167 375 374 375c116 0 214 -52 278 -133v123h440v-92h-343v-226h343v-92h-343v-227h343v-93h-440zM413 86c155 0 278 126 278 279v11c-6 149 -127 269 -278 269c-154 0 -277 -126 -277 -280
c0 -153 123 -279 277 -279z" />
    <glyph glyph-name="Oacute" unicode="&#xd3;" horiz-adv-x="827" 
d="M368 787l116 163h105l-146 -163h-75zM413 -10c-207 0 -374 168 -374 375s167 375 374 375c208 0 375 -168 375 -375s-167 -375 -375 -375zM413 84c157 0 278 127 278 281s-121 281 -278 281c-155 0 -276 -127 -276 -281s121 -281 276 -281z" />
    <glyph glyph-name="Obreve" unicode="&#x14e;" horiz-adv-x="827" 
d="M413 -10c-207 0 -374 168 -374 375s167 375 374 375c208 0 375 -168 375 -375s-167 -375 -375 -375zM413 84c157 0 278 127 278 281s-121 281 -278 281c-155 0 -276 -127 -276 -281s121 -281 276 -281zM408 783c-110 0 -161 73 -161 164h70c0 -63 32 -102 91 -103
c58 1 91 40 91 103h71c0 -91 -62 -164 -162 -164z" />
    <glyph glyph-name="Ocircumflex" unicode="&#xd4;" horiz-adv-x="827" 
d="M413 -10c-207 0 -374 168 -374 375s167 375 374 375c208 0 375 -168 375 -375s-167 -375 -375 -375zM413 84c157 0 278 127 278 281s-121 281 -278 281c-155 0 -276 -127 -276 -281s121 -281 276 -281zM256 787l119 163h69l119 -163h-84l-70 98l-68 -98h-85z" />
    <glyph glyph-name="Odieresis" unicode="&#xd6;" horiz-adv-x="827" 
d="M249 861c0 37 25 62 63 62c41 0 64 -25 64 -62c0 -38 -23 -63 -64 -63c-40 0 -63 25 -63 63zM444 861c0 37 25 62 63 62c41 0 64 -25 64 -62c0 -38 -23 -63 -64 -63c-40 0 -63 25 -63 63zM413 -10c-207 0 -374 168 -374 375s167 375 374 375c208 0 375 -168 375 -375
s-167 -375 -375 -375zM413 84c157 0 278 127 278 281s-121 281 -278 281c-155 0 -276 -127 -276 -281s121 -281 276 -281z" />
    <glyph glyph-name="Ograve" unicode="&#xd2;" horiz-adv-x="827" 
d="M413 -10c-207 0 -374 168 -374 375s167 375 374 375c208 0 375 -168 375 -375s-167 -375 -375 -375zM413 84c157 0 278 127 278 281s-121 281 -278 281c-155 0 -276 -127 -276 -281s121 -281 276 -281zM374 787l-146 163h104l117 -163h-75z" />
    <glyph glyph-name="Ohungarumlaut" unicode="&#x150;" horiz-adv-x="827" 
d="M291 787l116 163h100l-147 -163h-69zM438 787l117 163h99l-146 -163h-70zM413 -10c-207 0 -374 168 -374 375s167 375 374 375c208 0 375 -168 375 -375s-167 -375 -375 -375zM413 84c157 0 278 127 278 281s-121 281 -278 281c-155 0 -276 -127 -276 -281
s121 -281 276 -281z" />
    <glyph glyph-name="hungarumlaut" unicode="&#x2dd;" horiz-adv-x="489" 
d="M62 557l116 163h100l-147 -163h-69zM209 557l117 163h99l-146 -163h-70z" />
    <glyph glyph-name="Omacron" unicode="&#x14c;" horiz-adv-x="827" 
d="M277 787v70h264v-70h-264zM413 -10c-207 0 -374 168 -374 375s167 375 374 375c208 0 375 -168 375 -375s-167 -375 -375 -375zM413 84c157 0 278 127 278 281s-121 281 -278 281c-155 0 -276 -127 -276 -281s121 -281 276 -281z" />
    <glyph glyph-name="Oslash" unicode="&#xd8;" horiz-adv-x="827" 
d="M74 0l76 98c-69 68 -111 162 -111 267c0 207 167 375 374 375c72 0 139 -20 196 -55l35 45h112l-78 -100c68 -68 110 -161 110 -265c0 -207 -167 -375 -375 -375c-71 0 -137 19 -193 53l-34 -43h-112zM137 365c0 -74 27 -141 73 -191l340 436c-40 23 -87 36 -137 36
c-155 0 -276 -127 -276 -281zM413 84c157 0 278 127 278 281c0 72 -27 139 -72 189l-340 -435c39 -22 85 -35 134 -35z" />
    <glyph glyph-name="Oslashacute" unicode="&#x1fe;" horiz-adv-x="827" 
d="M74 0l76 98c-69 68 -111 162 -111 267c0 207 167 375 374 375c72 0 139 -20 196 -55l35 45h112l-78 -100c68 -68 110 -161 110 -265c0 -207 -167 -375 -375 -375c-71 0 -137 19 -193 53l-34 -43h-112zM137 365c0 -74 27 -141 73 -191l340 436c-40 23 -87 36 -137 36
c-155 0 -276 -127 -276 -281zM413 84c157 0 278 127 278 281c0 72 -27 139 -72 189l-340 -435c39 -22 85 -35 134 -35zM364 787l116 163h105l-146 -163h-75z" />
    <glyph glyph-name="Otilde" unicode="&#xd5;" horiz-adv-x="827" 
d="M413 -10c-207 0 -374 168 -374 375s167 375 374 375c208 0 375 -168 375 -375s-167 -375 -375 -375zM413 84c157 0 278 127 278 281s-121 281 -278 281c-155 0 -276 -127 -276 -281s121 -281 276 -281zM236 787c0 74 39 123 100 123c33 0 57 -13 80 -27
c21 -13 40 -27 61 -27c23 0 36 16 36 50h66c0 -75 -35 -123 -101 -123c-38 0 -66 18 -91 32c-18 11 -32 21 -51 21c-22 0 -35 -15 -35 -49h-65z" />
    <glyph glyph-name="Oumlaut" unicode="&#xf177;" horiz-adv-x="827" 
d="M53 600v130h97v-49c-30 -21 -56 -49 -76 -81h-21zM749 600c-19 32 -46 60 -76 81v49h98v-130h-22zM413 -10c-207 0 -374 168 -374 375s167 375 374 375c208 0 375 -168 375 -375s-167 -375 -375 -375zM413 84c157 0 278 127 278 281s-121 281 -278 281
c-155 0 -276 -127 -276 -281s121 -281 276 -281z" />
    <glyph glyph-name="P" unicode="P" horiz-adv-x="603" 
d="M60 0v730h236c156 0 265 -111 265 -254s-109 -255 -266 -255h-139v-221h-96zM289 641h-133v-329h133c107 0 174 72 174 164c0 93 -67 165 -174 165z" />
    <glyph glyph-name="Q" unicode="Q" horiz-adv-x="827" 
d="M662 0l-264 330h117l113 -139c38 47 63 107 63 174c0 154 -121 281 -278 281c-155 0 -276 -127 -276 -281s121 -281 276 -281c41 0 76 9 109 24l60 -76c-50 -27 -108 -42 -169 -42c-207 0 -374 168 -374 375s167 375 374 375c208 0 375 -168 375 -375
c0 -97 -38 -184 -98 -251l93 -114h-121z" />
    <glyph glyph-name="R" unicode="R" horiz-adv-x="593" 
d="M60 0v730h234c151 0 254 -104 254 -236c0 -96 -61 -182 -149 -218l160 -276h-109l-144 254h-151v-254h-95zM284 640h-129v-297h128c110 0 167 79 167 151c0 86 -58 146 -166 146z" />
    <glyph glyph-name="R.alt" unicode="&#xe141;" horiz-adv-x="593" 
d="M60 0v730h234c151 0 254 -104 254 -236c0 -96 -61 -181 -148 -217l162 -277h-109l-146 254h-149v-254h-98zM284 640h-126v-297h125c110 0 167 79 167 151c0 86 -58 146 -166 146z" />
    <glyph glyph-name="Racute" unicode="&#x154;" horiz-adv-x="593" 
d="M60 0v730h234c151 0 254 -104 254 -236c0 -96 -61 -182 -149 -218l160 -276h-109l-144 254h-151v-254h-95zM284 640h-129v-297h128c110 0 167 79 167 151c0 86 -58 146 -166 146zM216 787l116 163h105l-146 -163h-75z" />
    <glyph glyph-name="Racute.alt" unicode="&#xe142;" horiz-adv-x="593" 
d="M60 0v730h234c151 0 254 -104 254 -236c0 -96 -61 -181 -148 -217l162 -277h-109l-146 254h-149v-254h-98zM284 640h-126v-297h125c110 0 167 79 167 151c0 86 -58 146 -166 146zM216 787l116 163h105l-146 -163h-75z" />
    <glyph glyph-name="Rcaron" unicode="&#x158;" horiz-adv-x="593" 
d="M60 0v730h234c151 0 254 -104 254 -236c0 -96 -61 -182 -149 -218l160 -276h-109l-144 254h-151v-254h-95zM284 640h-129v-297h128c110 0 167 79 167 151c0 86 -58 146 -166 146zM266 787l-119 163h85l68 -98l70 98h84l-119 -163h-69z" />
    <glyph glyph-name="Rcaron.alt" unicode="&#xe143;" horiz-adv-x="593" 
d="M60 0v730h234c151 0 254 -104 254 -236c0 -96 -61 -181 -148 -217l162 -277h-109l-146 254h-149v-254h-98zM284 640h-126v-297h125c110 0 167 79 167 151c0 86 -58 146 -166 146zM266 787l-119 163h85l68 -98l70 98h84l-119 -163h-69z" />
    <glyph glyph-name="Rcommaaccent" unicode="&#x156;" horiz-adv-x="593" 
d="M60 0v730h234c151 0 254 -104 254 -236c0 -96 -61 -182 -149 -218l160 -276h-109l-144 254h-151v-254h-95zM284 640h-129v-297h128c110 0 167 79 167 151c0 86 -58 146 -166 146zM290 -281h-63l40 204h86z" />
    <glyph glyph-name="Rcommaaccent.alt" unicode="&#xe146;" horiz-adv-x="593" 
d="M60 0v730h234c151 0 254 -104 254 -236c0 -96 -61 -181 -148 -217l162 -277h-109l-146 254h-149v-254h-98zM284 640h-126v-297h125c110 0 167 79 167 151c0 86 -58 146 -166 146zM290 -281h-63l40 204h86z" />
    <glyph glyph-name="S" unicode="S" horiz-adv-x="562" 
d="M282 -10c-121 0 -205 52 -265 130l85 66c44 -68 104 -105 179 -105c85 0 142 54 142 125c0 81 -82 106 -169 134c-99 32 -205 72 -205 204c0 110 98 196 230 196c108 0 177 -42 231 -106l-79 -59c-34 52 -85 79 -152 79c-78 0 -131 -46 -131 -108c0 -76 80 -100 166 -128
c101 -34 209 -77 209 -212c0 -112 -93 -216 -241 -216z" />
    <glyph glyph-name="Sacute" unicode="&#x15a;" horiz-adv-x="562" 
d="M235 787l116 163h105l-146 -163h-75zM282 -10c-121 0 -205 52 -265 130l85 66c44 -68 104 -105 179 -105c85 0 142 54 142 125c0 81 -82 106 -169 134c-99 32 -205 72 -205 204c0 110 98 196 230 196c108 0 177 -42 231 -106l-79 -59c-34 52 -85 79 -152 79
c-78 0 -131 -46 -131 -108c0 -76 80 -100 166 -128c101 -34 209 -77 209 -212c0 -112 -93 -216 -241 -216z" />
    <glyph glyph-name="Scaron" unicode="&#x160;" horiz-adv-x="562" 
d="M282 -10c-121 0 -205 52 -265 130l85 66c44 -68 104 -105 179 -105c85 0 142 54 142 125c0 81 -82 106 -169 134c-99 32 -205 72 -205 204c0 110 98 196 230 196c108 0 177 -42 231 -106l-79 -59c-34 52 -85 79 -152 79c-78 0 -131 -46 -131 -108c0 -76 80 -100 166 -128
c101 -34 209 -77 209 -212c0 -112 -93 -216 -241 -216zM249 787l-119 163h85l68 -98l70 98h84l-119 -163h-69z" />
    <glyph glyph-name="Scedilla" unicode="&#x15e;" horiz-adv-x="562" 
d="M279 -235c-58 0 -107 23 -143 56l64 39c24 -20 45 -35 84 -35c36 0 65 17 65 39s-24 34 -68 34h-43v95c-98 10 -169 59 -221 127l85 66c44 -68 104 -105 179 -105c85 0 142 54 142 125c0 81 -82 106 -169 134c-99 32 -205 72 -205 204c0 110 98 196 230 196
c108 0 177 -42 231 -106l-79 -59c-34 52 -85 79 -152 79c-78 0 -131 -46 -131 -108c0 -76 80 -100 166 -128c101 -34 209 -77 209 -212c0 -106 -83 -204 -216 -215v-44c72 1 118 -33 118 -80c0 -60 -66 -102 -146 -102z" />
    <glyph glyph-name="Scircumflex" unicode="&#x15c;" horiz-adv-x="562" 
d="M282 -10c-121 0 -205 52 -265 130l85 66c44 -68 104 -105 179 -105c85 0 142 54 142 125c0 81 -82 106 -169 134c-99 32 -205 72 -205 204c0 110 98 196 230 196c108 0 177 -42 231 -106l-79 -59c-34 52 -85 79 -152 79c-78 0 -131 -46 -131 -108c0 -76 80 -100 166 -128
c101 -34 209 -77 209 -212c0 -112 -93 -216 -241 -216zM126 787l119 163h69l119 -163h-84l-70 98l-68 -98h-85z" />
    <glyph glyph-name="Scommaaccent" unicode="&#x218;" horiz-adv-x="562" 
d="M265 -252h-63l40 204h86zM282 -10c-121 0 -205 52 -265 130l85 66c44 -68 104 -105 179 -105c85 0 142 54 142 125c0 81 -82 106 -169 134c-99 32 -205 72 -205 204c0 110 98 196 230 196c108 0 177 -42 231 -106l-79 -59c-34 52 -85 79 -152 79
c-78 0 -131 -46 -131 -108c0 -76 80 -100 166 -128c101 -34 209 -77 209 -212c0 -112 -93 -216 -241 -216z" />
    <glyph glyph-name="T" unicode="T" horiz-adv-x="597" 
d="M251 0v639h-212v91h520v-91h-212v-639h-96z" />
    <glyph glyph-name="Tbar" unicode="&#x166;" horiz-adv-x="605" 
d="M145 346v91h111v202h-212v91h520v-91h-212v-202h109v-91h-109v-346h-96v346h-111z" />
    <glyph glyph-name="Tcaron" unicode="&#x164;" horiz-adv-x="605" 
d="M256 0v639h-212v91h520v-91h-212v-639h-96zM264 787l-119 163h85l68 -98l70 98h84l-119 -163h-69z" />
    <glyph glyph-name="Tcommaaccent" unicode="&#x162;" horiz-adv-x="605" 
d="M284 -259h-63l40 204h86zM256 0v639h-212v91h520v-91h-212v-639h-96z" />
    <glyph glyph-name="Thorn" unicode="&#xde;" horiz-adv-x="565" 
d="M60 0v730h97v-142h139c134 0 227 -92 227 -215s-92 -215 -227 -215h-139v-158h-97zM289 498h-132v-251h132c84 0 137 53 137 126c0 72 -53 125 -137 125z" />
    <glyph glyph-name="U" unicode="U" horiz-adv-x="625" 
d="M312 -10c-146 0 -254 101 -254 254v486h96v-492c0 -86 69 -157 158 -157s159 71 159 157v492h96v-486c0 -153 -109 -254 -255 -254z" />
    <glyph glyph-name="Uacute" unicode="&#xda;" horiz-adv-x="625" 
d="M263 787l116 163h105l-146 -163h-75zM312 -10c-146 0 -254 101 -254 254v486h96v-492c0 -86 69 -157 158 -157s159 71 159 157v492h96v-486c0 -153 -109 -254 -255 -254z" />
    <glyph glyph-name="Ubreve" unicode="&#x16c;" horiz-adv-x="625" 
d="M312 -10c-146 0 -254 101 -254 254v486h96v-492c0 -86 69 -157 158 -157s159 71 159 157v492h96v-486c0 -153 -109 -254 -255 -254zM311 782c-110 0 -161 73 -161 164h70c0 -63 32 -102 91 -103c58 1 91 40 91 103h71c0 -91 -62 -164 -162 -164z" />
    <glyph glyph-name="Ucircumflex" unicode="&#xdb;" horiz-adv-x="625" 
d="M312 -10c-146 0 -254 101 -254 254v486h96v-492c0 -86 69 -157 158 -157s159 71 159 157v492h96v-486c0 -153 -109 -254 -255 -254zM156 787l119 163h69l119 -163h-84l-70 98l-68 -98h-85z" />
    <glyph glyph-name="Udieresis" unicode="&#xdc;" horiz-adv-x="625" 
d="M153 861c0 37 25 62 63 62c41 0 64 -25 64 -62c0 -38 -23 -63 -64 -63c-40 0 -63 25 -63 63zM348 861c0 37 25 62 63 62c41 0 64 -25 64 -62c0 -38 -23 -63 -64 -63c-40 0 -63 25 -63 63zM312 -10c-146 0 -254 101 -254 254v486h96v-492c0 -86 69 -157 158 -157
s159 71 159 157v492h96v-486c0 -153 -109 -254 -255 -254z" />
    <glyph glyph-name="Ugrave" unicode="&#xd9;" horiz-adv-x="625" 
d="M312 -10c-146 0 -254 101 -254 254v486h96v-492c0 -86 69 -157 158 -157s159 71 159 157v492h96v-486c0 -153 -109 -254 -255 -254zM280 787l-146 163h104l117 -163h-75z" />
    <glyph glyph-name="Uhungarumlaut" unicode="&#x170;" horiz-adv-x="625" 
d="M312 -10c-146 0 -254 101 -254 254v486h96v-492c0 -86 69 -157 158 -157s159 71 159 157v492h96v-486c0 -153 -109 -254 -255 -254zM185 787l116 163h100l-147 -163h-69zM332 787l117 163h99l-146 -163h-70z" />
    <glyph glyph-name="Umacron" unicode="&#x16a;" horiz-adv-x="625" 
d="M312 -10c-146 0 -254 101 -254 254v486h96v-492c0 -86 69 -157 158 -157s159 71 159 157v492h96v-486c0 -153 -109 -254 -255 -254zM178 787v70h264v-70h-264z" />
    <glyph glyph-name="Uogonek" unicode="&#x172;" horiz-adv-x="625" 
d="M319 -217c-82 0 -137 45 -137 103c0 37 17 72 71 110c-115 23 -195 116 -195 248v486h96v-492c0 -86 69 -157 158 -157s159 71 159 157v492h96v-486c0 -125 -73 -215 -179 -244c-101 -62 -123 -82 -123 -111c0 -25 23 -38 54 -38s51 15 71 33l65 -44
c-34 -31 -87 -57 -136 -57z" />
    <glyph glyph-name="Uring" unicode="&#x16e;" horiz-adv-x="625" 
d="M308 764c-60 0 -108 48 -108 109s48 110 108 110c62 0 111 -49 111 -110s-49 -109 -111 -109zM308 827c26 0 47 20 47 46c0 25 -21 47 -47 47c-25 0 -46 -22 -46 -47c0 -26 21 -46 46 -46zM312 -10c-146 0 -254 101 -254 254v486h96v-492c0 -86 69 -157 158 -157
s159 71 159 157v492h96v-486c0 -153 -109 -254 -255 -254z" />
    <glyph glyph-name="Utilde" unicode="&#x168;" horiz-adv-x="625" 
d="M312 -10c-146 0 -254 101 -254 254v486h96v-492c0 -86 69 -157 158 -157s159 71 159 157v492h96v-486c0 -153 -109 -254 -255 -254zM139 787c0 74 39 123 100 123c33 0 57 -13 80 -27c21 -13 40 -27 61 -27c23 0 36 16 36 50h66c0 -75 -35 -123 -101 -123
c-38 0 -66 18 -91 32c-18 11 -32 21 -51 21c-22 0 -35 -15 -35 -49h-65z" />
    <glyph glyph-name="Uumlaut" unicode="&#xf178;" horiz-adv-x="666" 
d="M367 588v142h80v-142h-80zM219 588v142h81v-142h-81zM332 -9c-157 0 -273 99 -273 273v466h96v-469c0 -108 75 -179 178 -179c102 0 178 71 178 179v469h96v-466c0 -174 -116 -273 -275 -273z" />
    <glyph glyph-name="V" unicode="V" horiz-adv-x="671" 
d="M286 0l-259 730h101l208 -589l207 589h101l-260 -730h-98z" />
    <glyph glyph-name="W" unicode="W" horiz-adv-x="1051" 
d="M240 0l-211 730h102l162 -578l185 578h95l184 -579l167 579h99l-217 -730h-97l-184 579l-186 -579h-99z" />
    <glyph glyph-name="Wacute" unicode="&#x1e82;" horiz-adv-x="1051" 
d="M240 0l-211 730h102l162 -578l185 578h95l184 -579l167 579h99l-217 -730h-97l-184 579l-186 -579h-99zM482 787l116 163h105l-146 -163h-75z" />
    <glyph glyph-name="Wcircumflex" unicode="&#x174;" horiz-adv-x="1051" 
d="M240 0l-211 730h102l162 -578l185 578h95l184 -579l167 579h99l-217 -730h-97l-184 579l-186 -579h-99zM370 787l119 163h69l119 -163h-84l-70 98l-68 -98h-85z" />
    <glyph glyph-name="Wdieresis" unicode="&#x1e84;" horiz-adv-x="1051" 
d="M240 0l-211 730h102l162 -578l185 578h95l184 -579l167 579h99l-217 -730h-97l-184 579l-186 -579h-99zM559 861c0 37 25 62 63 62c41 0 64 -25 64 -62c0 -38 -23 -63 -64 -63c-40 0 -63 25 -63 63zM364 861c0 37 25 62 63 62c41 0 64 -25 64 -62c0 -38 -23 -63 -64 -63
c-40 0 -63 25 -63 63z" />
    <glyph glyph-name="Wgrave" unicode="&#x1e80;" horiz-adv-x="1051" 
d="M240 0l-211 730h102l162 -578l185 578h95l184 -579l167 579h99l-217 -730h-97l-184 579l-186 -579h-99zM484 787l-146 163h104l117 -163h-75z" />
    <glyph glyph-name="X" unicode="X" horiz-adv-x="644" 
d="M511 0l-189 292l-188 -292h-109l241 373l-229 357h109l177 -274l176 274h109l-228 -355l240 -375h-109z" />
    <glyph glyph-name="Y" unicode="Y" horiz-adv-x="621" 
d="M263 0v346l-239 384h107l180 -291l180 291h107l-239 -384v-346h-96z" />
    <glyph glyph-name="Yacute" unicode="&#xdd;" horiz-adv-x="621" 
d="M263 0v346l-239 384h107l180 -291l180 291h107l-239 -384v-346h-96zM266 787l116 163h105l-146 -163h-75z" />
    <glyph glyph-name="Ycircumflex" unicode="&#x176;" horiz-adv-x="621" 
d="M263 0v346l-239 384h107l180 -291l180 291h107l-239 -384v-346h-96zM156 787l119 163h69l119 -163h-84l-70 98l-68 -98h-85z" />
    <glyph glyph-name="Ydieresis" unicode="&#x178;" horiz-adv-x="621" 
d="M263 0v346l-239 384h107l180 -291l180 291h107l-239 -384v-346h-96zM344 861c0 37 25 62 63 62c41 0 64 -25 64 -62c0 -38 -23 -63 -64 -63c-40 0 -63 25 -63 63zM149 861c0 37 25 62 63 62c41 0 64 -25 64 -62c0 -38 -23 -63 -64 -63c-40 0 -63 25 -63 63z" />
    <glyph glyph-name="Ygrave" unicode="&#x1ef2;" horiz-adv-x="621" 
d="M263 0v346l-239 384h107l180 -291l180 291h107l-239 -384v-346h-96zM271 774l-146 163h104l117 -163h-75z" />
    <glyph glyph-name="Z" unicode="Z" horiz-adv-x="583" 
d="M50 0v89l369 549h-357v92h471v-88l-369 -549h370v-93h-484z" />
    <glyph glyph-name="Zacute" unicode="&#x179;" horiz-adv-x="583" 
d="M50 0v89l369 549h-357v92h471v-88l-369 -549h370v-93h-484zM244 787l116 163h105l-146 -163h-75z" />
    <glyph glyph-name="Zcaron" unicode="&#x17d;" horiz-adv-x="583" 
d="M50 0v89l369 549h-357v92h471v-88l-369 -549h370v-93h-484zM260 787l-119 163h85l68 -98l70 98h84l-119 -163h-69z" />
    <glyph glyph-name="Zdotaccent" unicode="&#x17b;" horiz-adv-x="583" 
d="M50 0v89l369 549h-357v92h471v-88l-369 -549h370v-93h-484zM231 861c0 38 26 64 65 64c42 0 66 -26 66 -64c0 -39 -24 -65 -66 -65c-41 0 -65 26 -65 65z" />
    <glyph glyph-name="a" unicode="a" horiz-adv-x="712" 
d="M339 -12c-163 0 -298 130 -298 304c0 175 132 305 298 305c82 0 168 -40 215 -109v97h94v-585h-94v99c-47 -70 -134 -111 -215 -111zM348 76c121 0 213 96 213 217c0 119 -92 217 -213 217c-118 0 -211 -97 -211 -217c0 -121 93 -217 211 -217z" />
    <glyph glyph-name="a.alt" unicode="&#xe4c0;" horiz-adv-x="534" 
d="M205 -10c-112 0 -168 58 -168 134c0 93 66 137 188 165c79 18 157 30 157 78c0 39 -30 67 -109 67c-89 0 -127 -40 -127 -97v-3h-91v2c0 110 79 174 214 174c137 0 210 -62 210 -163v-347h-92v69c-42 -45 -102 -79 -182 -79zM209 70c81 0 147 54 179 115v78
c-15 -18 -75 -35 -137 -48c-81 -17 -122 -37 -122 -84c0 -37 30 -61 80 -61z" />
    <glyph glyph-name="a.smcp" unicode="&#xe201;" horiz-adv-x="580" 
d="M26 0l216 596h96l217 -596h-98l-44 123h-246l-44 -123h-97zM290 466l-91 -253h182z" />
    <glyph glyph-name="a.smcp" unicode="&#xf761;" horiz-adv-x="580" 
d="M26 0l216 596h96l217 -596h-98l-44 123h-246l-44 -123h-97zM290 466l-91 -253h182z" />
    <glyph glyph-name="aacute" unicode="&#xe1;" horiz-adv-x="712" 
d="M339 -12c-163 0 -298 130 -298 304c0 175 132 305 298 305c82 0 168 -40 215 -109v97h94v-585h-94v99c-47 -70 -134 -111 -215 -111zM348 76c121 0 213 96 213 217c0 119 -92 217 -213 217c-118 0 -211 -97 -211 -217c0 -121 93 -217 211 -217zM298 652l116 163h105
l-146 -163h-75z" />
    <glyph glyph-name="aacute.alt" unicode="&#xe891;" horiz-adv-x="534" 
d="M205 -10c-112 0 -168 58 -168 134c0 93 66 137 188 165c79 18 157 30 157 78c0 39 -30 67 -109 67c-89 0 -127 -40 -127 -97v-3h-91v2c0 110 79 174 214 174c137 0 210 -62 210 -163v-347h-92v69c-42 -45 -102 -79 -182 -79zM209 70c81 0 147 54 179 115v78
c-15 -18 -75 -35 -137 -48c-81 -17 -122 -37 -122 -84c0 -37 30 -61 80 -61zM233 557l116 163h105l-146 -163h-75z" />
    <glyph glyph-name="aacute.smcp" unicode="&#xe221;" horiz-adv-x="580" 
d="M26 0l216 596h96l217 -596h-98l-44 123h-246l-44 -123h-97zM290 466l-91 -253h182zM251 653l116 163h105l-146 -163h-75z" />
    <glyph glyph-name="aacute.smcp" unicode="&#xf7e1;" horiz-adv-x="580" 
d="M26 0l216 596h96l217 -596h-98l-44 123h-246l-44 -123h-97zM290 466l-91 -253h182zM251 653l116 163h105l-146 -163h-75z" />
    <glyph glyph-name="abreve" unicode="&#x103;" horiz-adv-x="712" 
d="M339 -12c-163 0 -298 130 -298 304c0 175 132 305 298 305c82 0 168 -40 215 -109v97h94v-585h-94v99c-47 -70 -134 -111 -215 -111zM348 76c121 0 213 96 213 217c0 119 -92 217 -213 217c-118 0 -211 -97 -211 -217c0 -121 93 -217 211 -217zM347 647
c-110 0 -161 73 -161 164h70c0 -63 32 -102 91 -103c58 1 91 40 91 103h71c0 -91 -62 -164 -162 -164z" />
    <glyph glyph-name="abreve.alt" unicode="&#xe896;" horiz-adv-x="534" 
d="M205 -10c-112 0 -168 58 -168 134c0 93 66 137 188 165c79 18 157 30 157 78c0 39 -30 67 -109 67c-89 0 -127 -40 -127 -97v-3h-91v2c0 110 79 174 214 174c137 0 210 -62 210 -163v-347h-92v69c-42 -45 -102 -79 -182 -79zM209 70c81 0 147 54 179 115v78
c-15 -18 -75 -35 -137 -48c-81 -17 -122 -37 -122 -84c0 -37 30 -61 80 -61zM268 551c-110 0 -161 73 -161 164h70c0 -63 32 -102 91 -103c58 1 91 40 91 103h71c0 -91 -62 -164 -162 -164z" />
    <glyph glyph-name="abreve.smcp" unicode="&#xe229;" horiz-adv-x="580" 
d="M26 0l216 596h96l217 -596h-98l-44 123h-246l-44 -123h-97zM287 645c-110 0 -161 73 -161 164h70c0 -63 32 -102 91 -103c58 1 91 40 91 103h71c0 -91 -62 -164 -162 -164zM290 466l-91 -253h182z" />
    <glyph glyph-name="abreve.smcp" unicode="&#xf640;" horiz-adv-x="580" 
d="M26 0l216 596h96l217 -596h-98l-44 123h-246l-44 -123h-97zM287 645c-110 0 -161 73 -161 164h70c0 -63 32 -102 91 -103c58 1 91 40 91 103h71c0 -91 -62 -164 -162 -164zM290 466l-91 -253h182z" />
    <glyph glyph-name="acircumflex" unicode="&#xe2;" horiz-adv-x="712" 
d="M339 -12c-163 0 -298 130 -298 304c0 175 132 305 298 305c82 0 168 -40 215 -109v97h94v-585h-94v99c-47 -70 -134 -111 -215 -111zM348 76c121 0 213 96 213 217c0 119 -92 217 -213 217c-118 0 -211 -97 -211 -217c0 -121 93 -217 211 -217zM188 648l119 163h69
l119 -163h-84l-70 98l-68 -98h-85z" />
    <glyph glyph-name="acircumflex.alt" unicode="&#xe893;" horiz-adv-x="534" 
d="M205 -10c-112 0 -168 58 -168 134c0 93 66 137 188 165c79 18 157 30 157 78c0 39 -30 67 -109 67c-89 0 -127 -40 -127 -97v-3h-91v2c0 110 79 174 214 174c137 0 210 -62 210 -163v-347h-92v69c-42 -45 -102 -79 -182 -79zM209 70c81 0 147 54 179 115v78
c-15 -18 -75 -35 -137 -48c-81 -17 -122 -37 -122 -84c0 -37 30 -61 80 -61zM114 557l119 163h69l119 -163h-84l-70 98l-68 -98h-85z" />
    <glyph glyph-name="acircumflex.smcp" unicode="&#xe223;" horiz-adv-x="580" 
d="M26 0l216 596h96l217 -596h-98l-44 123h-246l-44 -123h-97zM135 648l119 163h69l119 -163h-84l-70 98l-68 -98h-85zM290 466l-91 -253h182z" />
    <glyph glyph-name="acircumflex.smcp" unicode="&#xf7e2;" horiz-adv-x="580" 
d="M26 0l216 596h96l217 -596h-98l-44 123h-246l-44 -123h-97zM135 648l119 163h69l119 -163h-84l-70 98l-68 -98h-85zM290 466l-91 -253h182z" />
    <glyph glyph-name="adieresis" unicode="&#xe4;" horiz-adv-x="712" 
d="M339 -12c-163 0 -298 130 -298 304c0 175 132 305 298 305c82 0 168 -40 215 -109v97h94v-585h-94v99c-47 -70 -134 -111 -215 -111zM348 76c121 0 213 96 213 217c0 119 -92 217 -213 217c-118 0 -211 -97 -211 -217c0 -121 93 -217 211 -217zM185 713c0 37 25 62 63 62
c41 0 64 -25 64 -62c0 -38 -23 -63 -64 -63c-40 0 -63 25 -63 63zM380 713c0 37 25 62 63 62c41 0 64 -25 64 -62c0 -38 -23 -63 -64 -63c-40 0 -63 25 -63 63z" />
    <glyph glyph-name="adieresis.alt" unicode="&#xe894;" horiz-adv-x="534" 
d="M205 -10c-112 0 -168 58 -168 134c0 93 66 137 188 165c79 18 157 30 157 78c0 39 -30 67 -109 67c-89 0 -127 -40 -127 -97v-3h-91v2c0 110 79 174 214 174c137 0 210 -62 210 -163v-347h-92v69c-42 -45 -102 -79 -182 -79zM209 70c81 0 147 54 179 115v78
c-15 -18 -75 -35 -137 -48c-81 -17 -122 -37 -122 -84c0 -37 30 -61 80 -61zM299 631c0 37 25 62 63 62c41 0 64 -25 64 -62c0 -38 -23 -63 -64 -63c-40 0 -63 25 -63 63zM104 631c0 37 25 62 63 62c41 0 64 -25 64 -62c0 -38 -23 -63 -64 -63c-40 0 -63 25 -63 63z" />
    <glyph glyph-name="adieresis.smcp" unicode="&#xe224;" horiz-adv-x="580" 
d="M26 0l216 596h96l217 -596h-98l-44 123h-246l-44 -123h-97zM290 466l-91 -253h182zM324 727c0 37 25 62 63 62c41 0 64 -25 64 -62c0 -38 -23 -63 -64 -63c-40 0 -63 25 -63 63zM129 727c0 37 25 62 63 62c41 0 64 -25 64 -62c0 -38 -23 -63 -64 -63c-40 0 -63 25 -63 63
z" />
    <glyph glyph-name="adieresis.smcp" unicode="&#xf7e4;" horiz-adv-x="580" 
d="M26 0l216 596h96l217 -596h-98l-44 123h-246l-44 -123h-97zM290 466l-91 -253h182zM324 727c0 37 25 62 63 62c41 0 64 -25 64 -62c0 -38 -23 -63 -64 -63c-40 0 -63 25 -63 63zM129 727c0 37 25 62 63 62c41 0 64 -25 64 -62c0 -38 -23 -63 -64 -63c-40 0 -63 25 -63 63
z" />
    <glyph glyph-name="ae" unicode="&#xe6;" horiz-adv-x="1094" 
d="M756 -12c-118 0 -210 53 -262 135c-38 -70 -128 -135 -247 -135c-147 0 -207 69 -209 161c0 113 92 156 208 182c102 24 205 37 205 100c0 51 -48 90 -144 90c-108 0 -167 -58 -167 -135v-3h-88v2c0 130 96 212 252 212c108 0 185 -38 219 -101c54 62 133 101 227 101
c170 0 301 -121 301 -297v-37h-512c12 -112 100 -190 217 -190c94 0 163 52 197 128l82 -38c-50 -108 -147 -175 -279 -175zM750 512c-103 0 -182 -69 -205 -165h409c-18 103 -95 165 -204 165zM252 68c112 0 187 89 204 148c-5 23 -7 47 -7 73c0 11 0 22 1 33
c-16 -29 -73 -43 -160 -61c-96 -19 -155 -42 -155 -110c0 -46 34 -83 117 -83z" />
    <glyph glyph-name="ae.smcp" unicode="&#xe231;" horiz-adv-x="832" 
d="M24 0l282 596h480v-90h-358l32 -161h326v-91h-308l33 -163h275v-91h-355l-24 120h-223l-56 -120h-104zM341 455l-116 -247h165z" />
    <glyph glyph-name="ae.smcp" unicode="&#xf7e6;" horiz-adv-x="832" 
d="M24 0l282 596h480v-90h-358l32 -161h326v-91h-308l33 -163h275v-91h-355l-24 120h-223l-56 -120h-104zM341 455l-116 -247h165z" />
    <glyph glyph-name="aeacute" unicode="&#x1fd;" horiz-adv-x="1094" 
d="M756 -12c-118 0 -210 53 -262 135c-38 -70 -128 -135 -247 -135c-147 0 -207 69 -209 161c0 113 92 156 208 182c102 24 205 37 205 100c0 51 -48 90 -144 90c-108 0 -167 -58 -167 -135v-3h-88v2c0 130 96 212 252 212c108 0 185 -38 219 -101c54 62 133 101 227 101
c170 0 301 -121 301 -297v-37h-512c12 -112 100 -190 217 -190c94 0 163 52 197 128l82 -38c-50 -108 -147 -175 -279 -175zM750 512c-103 0 -182 -69 -205 -165h409c-18 103 -95 165 -204 165zM252 68c112 0 187 89 204 148c-5 23 -7 47 -7 73c0 11 0 22 1 33
c-16 -29 -73 -43 -160 -61c-96 -19 -155 -42 -155 -110c0 -46 34 -83 117 -83zM497 648l116 163h105l-146 -163h-75z" />
    <glyph glyph-name="aeacute.smcp" unicode="&#xe232;" horiz-adv-x="835" 
d="M24 0l282 596h480v-90h-358l32 -161h326v-91h-308l33 -163h275v-91h-355l-24 120h-223l-56 -120h-104zM341 455l-116 -247h165zM450 653l116 163h105l-146 -163h-75z" />
    <glyph glyph-name="aeacute.smcp" unicode="&#xf624;" horiz-adv-x="835" 
d="M24 0l282 596h480v-90h-358l32 -161h326v-91h-308l33 -163h275v-91h-355l-24 120h-223l-56 -120h-104zM341 455l-116 -247h165zM450 653l116 163h105l-146 -163h-75z" />
    <glyph glyph-name="agrave" unicode="&#xe0;" horiz-adv-x="712" 
d="M339 -12c-163 0 -298 130 -298 304c0 175 132 305 298 305c82 0 168 -40 215 -109v97h94v-585h-94v99c-47 -70 -134 -111 -215 -111zM348 76c121 0 213 96 213 217c0 119 -92 217 -213 217c-118 0 -211 -97 -211 -217c0 -121 93 -217 211 -217zM313 652l-146 163h104
l117 -163h-75z" />
    <glyph glyph-name="agrave.alt" unicode="&#xe892;" horiz-adv-x="534" 
d="M205 -10c-112 0 -168 58 -168 134c0 93 66 137 188 165c79 18 157 30 157 78c0 39 -30 67 -109 67c-89 0 -127 -40 -127 -97v-3h-91v2c0 110 79 174 214 174c137 0 210 -62 210 -163v-347h-92v69c-42 -45 -102 -79 -182 -79zM209 70c81 0 147 54 179 115v78
c-15 -18 -75 -35 -137 -48c-81 -17 -122 -37 -122 -84c0 -37 30 -61 80 -61zM234 557l-146 163h104l117 -163h-75z" />
    <glyph glyph-name="agrave.smcp" unicode="&#xe222;" horiz-adv-x="580" 
d="M26 0l216 596h96l217 -596h-98l-44 123h-246l-44 -123h-97zM290 466l-91 -253h182zM252 653l-146 163h104l117 -163h-75z" />
    <glyph glyph-name="agrave.smcp" unicode="&#xf7e0;" horiz-adv-x="580" 
d="M26 0l216 596h96l217 -596h-98l-44 123h-246l-44 -123h-97zM290 466l-91 -253h182zM252 653l-146 163h104l117 -163h-75z" />
    <glyph glyph-name="altcedilla" unicode="&#xe416;" horiz-adv-x="489" 
d="M236 -235c-67 0 -110 18 -146 56l64 40c22 -21 44 -36 82 -36c36 0 65 16 65 39c0 22 -23 34 -69 34h-12v49h22c84 2 135 -33 135 -81c0 -60 -62 -101 -141 -101z" />
    <glyph glyph-name="amacron" unicode="&#x101;" horiz-adv-x="712" 
d="M339 -12c-163 0 -298 130 -298 304c0 175 132 305 298 305c82 0 168 -40 215 -109v97h94v-585h-94v99c-47 -70 -134 -111 -215 -111zM348 76c121 0 213 96 213 217c0 119 -92 217 -213 217c-118 0 -211 -97 -211 -217c0 -121 93 -217 211 -217zM215 653v70h264v-70h-264z
" />
    <glyph glyph-name="amacron.alt" unicode="&#xe895;" horiz-adv-x="534" 
d="M205 -10c-112 0 -168 58 -168 134c0 93 66 137 188 165c79 18 157 30 157 78c0 39 -30 67 -109 67c-89 0 -127 -40 -127 -97v-3h-91v2c0 110 79 174 214 174c137 0 210 -62 210 -163v-347h-92v69c-42 -45 -102 -79 -182 -79zM209 70c81 0 147 54 179 115v78
c-15 -18 -75 -35 -137 -48c-81 -17 -122 -37 -122 -84c0 -37 30 -61 80 -61zM138 557v70h264v-70h-264z" />
    <glyph glyph-name="amacron.smcp" unicode="&#xe228;" horiz-adv-x="580" 
d="M26 0l216 596h96l217 -596h-98l-44 123h-246l-44 -123h-97zM290 466l-91 -253h182zM156 653v70h264v-70h-264z" />
    <glyph glyph-name="amacron.smcp" unicode="&#xf641;" horiz-adv-x="580" 
d="M26 0l216 596h96l217 -596h-98l-44 123h-246l-44 -123h-97zM290 466l-91 -253h182zM156 653v70h264v-70h-264z" />
    <glyph glyph-name="ampersand" unicode="&#x26;" horiz-adv-x="756" 
d="M599 0l-67 66c-59 -47 -131 -77 -210 -77c-207 0 -285 127 -285 238c0 96 55 170 132 214c-25 37 -39 75 -39 123c0 97 76 176 195 176c100 0 160 -51 191 -110l-88 -41c-18 35 -50 66 -102 66c-58 0 -96 -41 -96 -91c0 -59 31 -92 121 -183l188 -188
c41 52 68 115 78 175h-127v91h222v-42c0 -92 -42 -200 -112 -285l131 -132h-132zM321 75c56 0 107 20 150 51l-199 200c-17 17 -33 32 -47 48c-59 -34 -92 -80 -92 -146c0 -74 61 -153 188 -153z" />
    <glyph glyph-name="ampersand.smcp" unicode="&#xe401;" horiz-adv-x="651" 
d="M489 0l-49 48c-48 -35 -106 -57 -169 -57c-165 0 -232 99 -232 194c0 76 43 136 103 172c-20 29 -31 60 -31 98c0 83 65 149 165 149c87 0 137 -43 163 -93l-88 -42c-13 27 -36 50 -73 50c-42 0 -69 -28 -69 -64c0 -43 24 -68 102 -145l136 -138c30 38 51 83 59 128h-103
v89h198v-42c0 -77 -35 -166 -93 -235l110 -112h-129zM271 77c39 0 75 12 107 32l-144 146l-37 36c-41 -24 -63 -56 -63 -103c0 -58 45 -111 137 -111z" />
    <glyph glyph-name="ampersand.smcp" unicode="&#xf726;" horiz-adv-x="651" 
d="M489 0l-49 48c-48 -35 -106 -57 -169 -57c-165 0 -232 99 -232 194c0 76 43 136 103 172c-20 29 -31 60 -31 98c0 83 65 149 165 149c87 0 137 -43 163 -93l-88 -42c-13 27 -36 50 -73 50c-42 0 -69 -28 -69 -64c0 -43 24 -68 102 -145l136 -138c30 38 51 83 59 128h-103
v89h198v-42c0 -77 -35 -166 -93 -235l110 -112h-129zM271 77c39 0 75 12 107 32l-144 146l-37 36c-41 -24 -63 -56 -63 -103c0 -58 45 -111 137 -111z" />
    <glyph glyph-name="anglebracketleft" unicode="&#x3008;" horiz-adv-x="376" 
d="M252 -230l-227 480l227 480h103l-228 -480l228 -480h-103z" />
    <glyph glyph-name="anglebracketleft.cap" unicode="&#xe497;" horiz-adv-x="376" 
d="M252 -120l-227 480l227 480h103l-228 -480l228 -480h-103z" />
    <glyph glyph-name="anglebracketleft.smcp" unicode="&#xe49f;" horiz-adv-x="340" 
d="M311 -98h-101l-185 392l186 392h100l-186 -392z" />
    <glyph glyph-name="anglebracketright" unicode="&#x3009;" horiz-adv-x="376" 
d="M127 -230h-103l228 480l-228 480h103l227 -480z" />
    <glyph glyph-name="anglebracketright.cap" unicode="&#xe498;" horiz-adv-x="376" 
d="M127 -120h-103l228 480l-228 480h103l227 -480z" />
    <glyph glyph-name="anglebracketright.smcp" unicode="&#xe490;" horiz-adv-x="340" 
d="M132 -98h-100l186 392l-187 392h101l186 -392z" />
    <glyph glyph-name="anocross.smcp" unicode="&#xe220;" horiz-adv-x="580" 
d="M26 0l216 596h96l217 -596h-98l-167 466l-167 -466h-97z" />
    <glyph glyph-name="aogonek" unicode="&#x105;" horiz-adv-x="712" 
d="M339 -12c-163 0 -298 130 -298 304c0 175 132 305 298 305c82 0 168 -40 215 -109v97h94v-585c-62 -45 -89 -81 -89 -110c0 -26 19 -43 46 -43c26 0 44 13 61 30l55 -52c-31 -27 -72 -48 -118 -48c-80 0 -123 50 -124 108c-1 48 29 89 75 126v88
c-47 -70 -134 -111 -215 -111zM348 76c121 0 213 96 213 217c0 119 -92 217 -213 217c-118 0 -211 -97 -211 -217c0 -121 93 -217 211 -217z" />
    <glyph glyph-name="aogonek.alt" unicode="&#xe899;" horiz-adv-x="534" 
d="M435 -223c-80 0 -123 50 -124 108c-1 48 29 89 76 126v58c-42 -45 -102 -79 -182 -79c-112 0 -168 58 -168 134c0 93 66 137 188 165c79 18 157 30 157 78c0 39 -30 67 -109 67c-89 0 -127 -40 -127 -97v-3h-91v2c0 110 79 174 214 174c137 0 210 -62 210 -163v-347h1
c-62 -45 -89 -81 -89 -110c0 -26 19 -43 46 -43c26 0 44 13 61 30l55 -52c-31 -27 -72 -48 -118 -48zM209 70c81 0 147 54 179 115v78c-15 -18 -75 -35 -137 -48c-81 -17 -122 -37 -122 -84c0 -37 30 -61 80 -61z" />
    <glyph glyph-name="aogonek.smcp" unicode="&#xe22f;" horiz-adv-x="580" 
d="M26 0l216 596h96l217 -596h-3l2 -1c-102 -63 -125 -83 -125 -112c0 -25 23 -38 54 -38s51 15 71 33l65 -44c-34 -31 -87 -57 -136 -57c-82 0 -137 45 -137 103c0 44 25 85 105 131l-38 108h-246l-44 -123h-97zM290 466l-91 -253h182z" />
    <glyph glyph-name="aogonek.smcp" unicode="&#xf642;" horiz-adv-x="580" 
d="M26 0l216 596h96l217 -596h-3l2 -1c-102 -63 -125 -83 -125 -112c0 -25 23 -38 54 -38s51 15 71 33l65 -44c-34 -31 -87 -57 -136 -57c-82 0 -137 45 -137 103c0 44 25 85 105 131l-38 108h-246l-44 -123h-97zM290 466l-91 -253h182z" />
    <glyph glyph-name="approxequal" unicode="&#x2248;" horiz-adv-x="454" 
d="M42 398v84c29 14 56 26 97 26c60 0 125 -38 177 -38c39 0 62 9 96 25v-84c-28 -16 -52 -25 -96 -25c-56 0 -126 38 -177 38c-40 0 -67 -12 -97 -26zM42 232v83c29 14 53 27 94 27c60 0 130 -37 182 -37c39 0 60 8 94 23v-83c-28 -16 -50 -23 -94 -23
c-56 0 -131 37 -182 37c-40 0 -64 -13 -94 -27z" />
    <glyph glyph-name="aring" unicode="&#xe5;" horiz-adv-x="712" 
d="M339 -12c-163 0 -298 130 -298 304c0 175 132 305 298 305c82 0 168 -40 215 -109v97h94v-585h-94v99c-47 -70 -134 -111 -215 -111zM348 76c121 0 213 96 213 217c0 119 -92 217 -213 217c-118 0 -211 -97 -211 -217c0 -121 93 -217 211 -217zM349 646
c-60 0 -108 48 -108 109s48 110 108 110c62 0 111 -49 111 -110s-49 -109 -111 -109zM349 709c26 0 47 20 47 46c0 25 -21 47 -47 47c-25 0 -46 -22 -46 -47c0 -26 21 -46 46 -46z" />
    <glyph glyph-name="aring.alt" unicode="&#xe897;" horiz-adv-x="533" 
d="M205 -10c-112 0 -168 58 -168 134c0 93 66 137 188 165c79 18 157 30 157 78c0 39 -30 67 -109 67c-89 0 -127 -40 -127 -97v-3h-91v2c0 110 79 174 214 174c137 0 210 -62 210 -163v-347h-92v69c-42 -45 -102 -79 -182 -79zM265 550c-60 0 -108 48 -108 109
s48 110 108 110c62 0 111 -49 111 -110s-49 -109 -111 -109zM209 70c81 0 147 54 179 115v78c-15 -18 -75 -35 -137 -48c-81 -17 -122 -37 -122 -84c0 -37 30 -61 80 -61zM265 613c26 0 47 20 47 46c0 25 -21 47 -47 47c-25 0 -46 -22 -46 -47c0 -26 21 -46 46 -46z" />
    <glyph glyph-name="aring.smcp" unicode="&#xe226;" horiz-adv-x="580" 
d="M26 0l204 563c-30 19 -50 53 -50 92c0 61 48 110 108 110c62 0 111 -49 111 -110c0 -39 -20 -72 -50 -91l206 -564h-98l-44 123h-246l-44 -123h-97zM290 466l-91 -253h182zM288 609c26 0 47 20 47 46c0 25 -21 47 -47 47c-25 0 -46 -22 -46 -47c0 -26 21 -46 46 -46z" />
    <glyph glyph-name="aring.smcp" unicode="&#xf7e5;" horiz-adv-x="580" 
d="M26 0l204 563c-30 19 -50 53 -50 92c0 61 48 110 108 110c62 0 111 -49 111 -110c0 -39 -20 -72 -50 -91l206 -564h-98l-44 123h-246l-44 -123h-97zM290 466l-91 -253h182zM288 609c26 0 47 20 47 46c0 25 -21 47 -47 47c-25 0 -46 -22 -46 -47c0 -26 21 -46 46 -46z" />
    <glyph glyph-name="aringacute" unicode="&#x1fb;" horiz-adv-x="712" 
d="M339 -12c-163 0 -298 130 -298 304c0 142 87 254 209 291c-11 17 -17 38 -17 60c0 61 48 110 108 110c62 0 111 -49 111 -110c0 -24 -7 -45 -20 -63c49 -18 93 -49 122 -92v97h94v-585h-94v99c-47 -70 -134 -111 -215 -111zM348 76c121 0 213 96 213 217
c0 119 -92 217 -213 217c-118 0 -211 -97 -211 -217c0 -121 93 -217 211 -217zM300 785l116 163h105l-146 -163h-75zM341 597c26 0 47 20 47 46c0 25 -21 47 -47 47c-25 0 -46 -22 -46 -47c0 -26 20 -45 44 -46h2z" />
    <glyph glyph-name="aringacute.alt" unicode="&#xf458;" horiz-adv-x="534" 
d="M205 -10c-112 0 -168 58 -168 134c0 93 66 137 188 165c79 18 157 30 157 78c0 39 -30 67 -109 67c-89 0 -127 -40 -127 -97v-3h-91v2c0 110 79 174 214 174c137 0 210 -62 210 -163v-347h-92v69c-42 -45 -102 -79 -182 -79zM268 553c-60 0 -108 48 -108 109
s48 110 108 110c62 0 111 -49 111 -110s-49 -109 -111 -109zM209 70c81 0 147 54 179 115v78c-15 -18 -75 -35 -137 -48c-81 -17 -122 -37 -122 -84c0 -37 30 -61 80 -61zM230 805l116 163h105l-146 -163h-75zM268 616c26 0 47 20 47 46c0 25 -21 47 -47 47
c-25 0 -46 -22 -46 -47c0 -26 21 -46 46 -46z" />
    <glyph glyph-name="aringacute.smcp" unicode="&#xe22d;" horiz-adv-x="580" 
d="M26 0l204 563c-30 19 -50 53 -50 92c0 61 48 110 108 110c62 0 111 -49 111 -110c0 -39 -20 -72 -50 -91l206 -564h-98l-44 123h-246l-44 -123h-97zM290 466l-91 -253h182zM248 804l116 163h105l-146 -163h-75zM288 609c26 0 47 20 47 46c0 25 -21 47 -47 47
c-25 0 -46 -22 -46 -47c0 -26 21 -46 46 -46z" />
    <glyph glyph-name="aringacute.smcp" unicode="&#xf625;" horiz-adv-x="580" 
d="M26 0l204 563c-30 19 -50 53 -50 92c0 61 48 110 108 110c62 0 111 -49 111 -110c0 -39 -20 -72 -50 -91l206 -564h-98l-44 123h-246l-44 -123h-97zM290 466l-91 -253h182zM248 804l116 163h105l-146 -163h-75zM288 609c26 0 47 20 47 46c0 25 -21 47 -47 47
c-25 0 -46 -22 -46 -47c0 -26 21 -46 46 -46z" />
    <glyph glyph-name="arrowdown" unicode="&#x2193;" horiz-adv-x="896" 
d="M415 -17c-53 89 -163 177 -244 211l48 85c66 -32 130 -90 171 -143v594h95v-598c40 54 105 115 172 147l49 -85c-81 -34 -191 -122 -244 -211h-47z" />
    <glyph glyph-name="arrowdown.alt" unicode="&#xf459;" horiz-adv-x="1068" 
d="M805 156c-94 -46 -195 -130 -243 -218h-48c-50 88 -160 172 -242 206l46 84c67 -32 132 -89 173 -141v643h93v-640c38 53 103 110 167 145zM777 673l-150 -71v36l150 89v-54zM777 581l-150 -72v36l150 89v-53zM777 766l-150 -71v36l150 88v-53zM450 603l-145 68v54
l145 -86v-36zM450 696l-145 68v54l145 -86v-36zM450 510l-145 69v53l145 -86v-36z" />
    <glyph glyph-name="arrowleft" unicode="&#x2190;" horiz-adv-x="896" 
d="M279 98c-46 95 -131 191 -220 243v48c89 55 177 163 211 246l85 -50c-32 -66 -93 -132 -146 -172h608v-93h-608c54 -37 114 -102 149 -167z" />
    <glyph glyph-name="arrowleft.alt" unicode="&#xf460;" horiz-adv-x="1068" 
d="M265 99c-45 94 -129 195 -217 243v48c89 50 172 160 206 242l84 -46c-31 -67 -90 -133 -142 -173h745v-93h-741c53 -38 111 -104 145 -167zM791 127l-71 150h36l88 -150h-53zM977 127l-71 150h35l89 -150h-53zM884 127l-71 150h35l89 -150h-53zM721 454l68 145h54
l-86 -145h-36zM907 454l68 145h53l-86 -145h-35zM814 454l68 145h53l-86 -145h-35z" />
    <glyph glyph-name="arrowright" unicode="&#x2192;" horiz-adv-x="896" 
d="M598 98l-79 54c34 65 94 131 149 168h-608v93h607c-54 40 -113 105 -144 172l84 50c34 -83 122 -192 211 -246v-48c-88 -52 -175 -148 -220 -243z" />
    <glyph glyph-name="arrowright.alt" unicode="&#xf461;" horiz-adv-x="1068" 
d="M810 634c45 -95 129 -195 217 -243v-48c-89 -51 -172 -160 -206 -242l-84 46c31 66 88 131 140 172h-743v93h741c-53 37 -111 103 -145 167zM284 605l71 -149h-36l-89 149h54zM191 605l71 -149h-36l-88 149h53zM98 605l71 -149h-35l-89 149h53zM354 279l-68 -145h-54
l86 145h36zM261 279l-68 -145h-54l86 145h36zM168 279l-68 -145h-53l86 145h35z" />
    <glyph glyph-name="arrowup" unicode="&#x2191;" horiz-adv-x="896" 
d="M392 0v596c-41 -53 -106 -113 -172 -144l-49 84c82 34 191 122 245 211h47c53 -89 162 -177 244 -211l-49 -84c-67 31 -132 91 -172 144v-596h-94z" />
    <glyph glyph-name="arrowup.alt" unicode="&#xf462;" horiz-adv-x="1068" 
d="M273 584c93 45 195 129 242 217h49c49 -89 160 -172 241 -206l-46 -84c-68 31 -133 89 -173 142v-653h-93v647c-38 -52 -103 -109 -167 -143zM301 -36l149 72v-37l-149 -88v53zM301 57l149 71v-35l-149 -90v54zM301 149l149 72v-35l-149 -90v53zM628 35l144 -69v-54
l-144 86v37zM628 128l144 -69v-54l-144 87v36zM628 220l144 -69v-53l-144 87v35z" />
    <glyph glyph-name="asciicircum" unicode="^" horiz-adv-x="489" 
d="M90 535l120 169h67l123 -169h-84l-72 101l-70 -101h-84z" />
    <glyph glyph-name="asciitilde" unicode="~" horiz-adv-x="468" 
d="M66 566c2 72 39 120 99 120c33 0 56 -13 77 -25c20 -12 37 -26 57 -26c22 0 34 14 36 46h64c-1 -73 -35 -120 -99 -120c-39 0 -64 18 -87 31c-16 10 -31 19 -48 19c-21 0 -31 -14 -33 -45h-66z" />
    <glyph glyph-name="asterisk" unicode="*" horiz-adv-x="424" 
d="M342 429l-108 86l20 -138h-84l19 138l-110 -86l-42 74l129 51l-129 53l43 73l110 -88l-20 139h84l-20 -138l110 86l42 -74l-131 -51l131 -52z" />
    <glyph glyph-name="at" unicode="@" horiz-adv-x="825" 
d="M412 -125c-207 0 -373 167 -373 375c0 207 171 375 378 375c221 0 369 -164 369 -337c0 -113 -58 -209 -162 -209c-59 0 -96 26 -116 58c-25 -34 -69 -59 -129 -59c-82 0 -167 64 -155 181c14 121 103 179 180 179c48 0 85 -19 106 -47c4 37 4 41 4 41h84l-20 -181
c-6 -63 11 -90 52 -90c47 0 74 52 74 126c0 131 -113 258 -288 258c-162 0 -293 -132 -293 -295s127 -295 289 -295c86 0 159 34 213 91l62 -52c-64 -69 -164 -119 -275 -119zM397 156c57 0 95 48 100 104c7 54 -24 102 -80 102c-53 0 -102 -40 -106 -102
c-8 -58 30 -104 86 -104z" />
    <glyph glyph-name="at.cap" unicode="&#xe513;" horiz-adv-x="825" 
d="M412 -11c-207 0 -373 168 -373 376c0 207 171 375 378 375c221 0 369 -164 369 -337c0 -112 -58 -210 -162 -210c-58 0 -96 26 -116 58c-25 -34 -69 -59 -129 -59c-82 0 -167 64 -155 181c14 122 103 179 180 179c48 0 85 -19 106 -47c4 37 4 41 4 41h84l-20 -181
c-6 -63 11 -90 52 -90c47 0 74 52 74 127c0 131 -113 257 -288 257c-162 0 -293 -132 -293 -295s127 -294 289 -294c84 0 158 34 212 91l63 -52c-66 -71 -164 -120 -275 -120zM397 270c57 0 95 49 100 105c7 54 -24 102 -80 102c-53 0 -102 -40 -106 -102
c-8 -58 30 -105 86 -105z" />
    <glyph glyph-name="at.smcp" unicode="&#xf60b;" horiz-adv-x="825" 
d="M412 -75c-207 0 -373 167 -373 375c0 207 171 375 378 375c221 0 369 -164 369 -337c0 -112 -58 -209 -162 -209c-58 0 -96 25 -116 58c-25 -35 -69 -60 -129 -60c-82 0 -167 65 -155 181c14 122 103 179 180 179c48 0 85 -19 106 -47c4 37 4 41 4 41h84l-20 -181
c-6 -62 11 -90 52 -90c47 0 74 52 74 127c0 131 -113 258 -288 258c-162 0 -293 -133 -293 -295c0 -163 127 -296 289 -296c84 0 158 36 212 92l63 -52c-66 -71 -164 -119 -275 -119zM397 205c57 0 95 48 100 104c7 55 -24 103 -80 103c-53 0 -102 -41 -106 -102
c-8 -58 30 -105 86 -105z" />
    <glyph glyph-name="atilde" unicode="&#xe3;" horiz-adv-x="712" 
d="M339 -12c-163 0 -298 130 -298 304c0 175 132 305 298 305c82 0 168 -40 215 -109v97h94v-585h-94v99c-47 -70 -134 -111 -215 -111zM348 76c121 0 213 96 213 217c0 119 -92 217 -213 217c-118 0 -211 -97 -211 -217c0 -121 93 -217 211 -217zM179 652
c0 74 39 123 100 123c33 0 57 -13 80 -27c21 -13 40 -27 61 -27c23 0 36 16 36 50h66c0 -75 -35 -123 -101 -123c-38 0 -66 18 -91 32c-18 11 -32 21 -51 21c-22 0 -35 -15 -35 -49h-65z" />
    <glyph glyph-name="atilde.alt" unicode="&#xe898;" horiz-adv-x="533" 
d="M205 -10c-112 0 -168 58 -168 134c0 93 66 137 188 165c79 18 157 30 157 78c0 39 -30 67 -109 67c-89 0 -127 -40 -127 -97v-3h-91v2c0 110 79 174 214 174c137 0 210 -62 210 -163v-347h-92v69c-42 -45 -102 -79 -182 -79zM209 70c81 0 147 54 179 115v78
c-15 -18 -75 -35 -137 -48c-81 -17 -122 -37 -122 -84c0 -37 30 -61 80 -61zM105 557c0 74 39 123 100 123c33 0 57 -13 80 -27c21 -13 40 -27 61 -27c23 0 36 16 36 50h66c0 -75 -35 -123 -101 -123c-38 0 -66 18 -91 32c-18 11 -32 21 -51 21c-22 0 -35 -15 -35 -49h-65z
" />
    <glyph glyph-name="atilde.smcp" unicode="&#xe225;" horiz-adv-x="580" 
d="M26 0l216 596h96l217 -596h-98l-44 123h-246l-44 -123h-97zM118 653c0 74 39 123 100 123c33 0 57 -13 80 -27c21 -13 40 -27 61 -27c23 0 36 16 36 50h66c0 -75 -35 -123 -101 -123c-38 0 -66 18 -91 32c-18 11 -32 21 -51 21c-22 0 -35 -15 -35 -49h-65zM290 466
l-91 -253h182z" />
    <glyph glyph-name="atilde.smcp" unicode="&#xf7e3;" horiz-adv-x="580" 
d="M26 0l216 596h96l217 -596h-98l-44 123h-246l-44 -123h-97zM118 653c0 74 39 123 100 123c33 0 57 -13 80 -27c21 -13 40 -27 61 -27c23 0 36 16 36 50h66c0 -75 -35 -123 -101 -123c-38 0 -66 18 -91 32c-18 11 -32 21 -51 21c-22 0 -35 -15 -35 -49h-65zM290 466
l-91 -253h182z" />
    <glyph glyph-name="aumlaut.smcp" unicode="&#xf179;" horiz-adv-x="580" 
d="M26 0l216 596h96l217 -596h-98l-44 123h-246l-44 -123h-97zM290 466l-91 -253h182zM56 460v136h90v-136h-90zM433 460v136h90v-136h-90z" />
    <glyph glyph-name="b" unicode="b" horiz-adv-x="710" 
d="M373 -12c-82 0 -169 40 -216 110v-98h-92v740h93v-252c46 69 132 109 214 109c167 0 298 -130 298 -305c0 -174 -134 -304 -297 -304zM364 76c118 0 210 96 210 217c0 120 -92 217 -210 217c-122 0 -213 -98 -213 -217c0 -121 91 -217 213 -217z" />
    <glyph glyph-name="b.smcp" unicode="&#xe202;" horiz-adv-x="517" 
d="M57 0v596h208c123 0 197 -60 197 -162c0 -55 -25 -98 -69 -123c56 -24 87 -71 87 -138c1 -112 -80 -173 -204 -173h-219zM275 261h-122v-174h125c66 0 105 35 105 88s-31 86 -108 86zM267 510h-114v-160h118c65 0 97 34 97 82s-36 78 -101 78z" />
    <glyph glyph-name="b.smcp" unicode="&#xf762;" horiz-adv-x="517" 
d="M57 0v596h208c123 0 197 -60 197 -162c0 -55 -25 -98 -69 -123c56 -24 87 -71 87 -138c1 -112 -80 -173 -204 -173h-219zM275 261h-122v-174h125c66 0 105 35 105 88s-31 86 -108 86zM267 510h-114v-160h118c65 0 97 34 97 82s-36 78 -101 78z" />
    <glyph glyph-name="backslash" unicode="\" horiz-adv-x="489" 
d="M367 0l-346 730h103l346 -730h-103z" />
    <glyph glyph-name="backslash.cap" unicode="&#xe462;" horiz-adv-x="489" 
d="M367 0l-346 730h103l346 -730h-103z" />
    <glyph glyph-name="backslash.smcp" unicode="&#xe468;" horiz-adv-x="439" 
d="M312 0l-283 596h100l283 -596h-100z" />
    <glyph glyph-name="ballotboxwithx" unicode="&#x2612;" horiz-adv-x="700" 
d="M100 0v500h500v-500h-500zM190 413v-326h320v326h-320zM271 377l78 -77l78 80l51 -51l-78 -80l80 -78l-51 -51l-79 77l-77 -79l-51 51l77 79l-79 78z" />
    <glyph glyph-name="bar" unicode="|" horiz-adv-x="202" 
d="M53 -230v960h96v-960h-96z" />
    <glyph glyph-name="bar.cap" unicode="&#xe463;" horiz-adv-x="202" 
d="M53 -120v960h96v-960h-96z" />
    <glyph glyph-name="bar.smcp" unicode="&#xe469;" horiz-adv-x="200" 
d="M53 -98v784h95v-784h-95z" />
    <glyph glyph-name="blackcircle" unicode="&#x25cf;" horiz-adv-x="927" 
d="M464 -10c-207 0 -374 168 -374 375s167 375 374 375s374 -168 374 -375s-167 -375 -374 -375z" />
    <glyph glyph-name="blacksmallsquare" unicode="&#x25aa;" horiz-adv-x="700" 
d="M100 0v500h500v-500h-500z" />
    <glyph glyph-name="blacksquare" unicode="&#x25a0;" horiz-adv-x="926" 
d="M100 0v730h726v-730h-726z" />
    <glyph glyph-name="blacksquare" unicode="&#xe740;" horiz-adv-x="926" 
d="M100 0v730h726v-730h-726z" />
    <glyph glyph-name="braceleft" unicode="{" horiz-adv-x="391" 
d="M356 -230h-11c-167 0 -220 54 -220 217v113c0 78 -10 103 -94 103v90c84 0 94 26 94 104v116c0 163 53 217 220 217h11v-88c-114 0 -135 -25 -135 -130v-116c0 -78 -19 -125 -71 -148c53 -22 71 -69 71 -147v-113c0 -105 21 -130 135 -130v-88z" />
    <glyph glyph-name="braceleft.cap" unicode="&#xe495;" horiz-adv-x="391" 
d="M356 -120h-11c-167 0 -220 54 -220 217v113c0 78 -10 103 -94 103v90c84 0 94 26 94 104v116c0 163 53 217 220 217h11v-88c-114 0 -135 -25 -135 -130v-116c0 -78 -19 -125 -71 -148c53 -22 71 -69 71 -147v-113c0 -105 21 -130 135 -130v-88z" />
    <glyph glyph-name="braceleft.smcp" unicode="&#xe49d;" horiz-adv-x="357" 
d="M302 -98c-139 0 -182 42 -182 177v85c0 66 -7 84 -73 84v88c66 0 73 18 73 83v90c0 134 43 177 182 177h10v-87c-82 0 -99 -18 -99 -93v-88c0 -66 -13 -106 -56 -126c43 -20 56 -60 56 -127v-83c0 -75 17 -93 99 -93v-87h-10z" />
    <glyph glyph-name="braceleft.smcp" unicode="&#xf60c;" horiz-adv-x="357" 
d="M302 -98c-139 0 -182 42 -182 177v85c0 66 -7 84 -73 84v88c66 0 73 18 73 83v90c0 134 43 177 182 177h10v-87c-82 0 -99 -18 -99 -93v-88c0 -66 -13 -106 -56 -126c43 -20 56 -60 56 -127v-83c0 -75 17 -93 99 -93v-87h-10z" />
    <glyph glyph-name="braceright" unicode="}" horiz-adv-x="391" 
d="M36 -230v89c114 0 135 24 135 129v113c0 77 17 124 70 147c-52 23 -70 70 -70 148v116c0 105 -21 129 -135 129v89h11c167 0 220 -54 220 -217v-116c0 -78 10 -104 94 -104v-90c-84 0 -94 -25 -94 -103v-113c0 -163 -53 -217 -220 -217h-11z" />
    <glyph glyph-name="braceright.cap" unicode="&#xe496;" horiz-adv-x="391" 
d="M36 -120v89c114 0 135 24 135 129v113c0 77 17 124 70 147c-52 23 -70 70 -70 148v116c0 105 -21 129 -135 129v89h11c167 0 220 -54 220 -217v-116c0 -78 10 -104 94 -104v-90c-84 0 -94 -25 -94 -103v-113c0 -163 -53 -217 -220 -217h-11z" />
    <glyph glyph-name="braceright.smcp" unicode="&#xe49e;" horiz-adv-x="358" 
d="M47 -98v87c80 0 97 16 97 91v85c0 67 12 107 55 127c-42 20 -55 60 -55 126v90c0 74 -17 90 -97 90v88h9c139 0 181 -43 181 -177v-90c0 -65 8 -83 75 -83v-88c-67 0 -75 -18 -75 -84v-85c0 -135 -42 -177 -181 -177h-9z" />
    <glyph glyph-name="braceright.smcp" unicode="&#xf60d;" horiz-adv-x="358" 
d="M47 -98v87c80 0 97 16 97 91v85c0 67 12 107 55 127c-42 20 -55 60 -55 126v90c0 74 -17 90 -97 90v88h9c139 0 181 -43 181 -177v-90c0 -65 8 -83 75 -83v-88c-67 0 -75 -18 -75 -84v-85c0 -135 -42 -177 -181 -177h-9z" />
    <glyph glyph-name="bracketleft" unicode="[" horiz-adv-x="364" 
d="M46 -230v960h273v-92h-176v-776h176v-92h-273z" />
    <glyph glyph-name="bracketleft.cap" unicode="&#xe493;" horiz-adv-x="364" 
d="M46 -120v960h273v-92h-176v-776h176v-92h-273z" />
    <glyph glyph-name="bracketleft.smcp" unicode="&#xe49b;" horiz-adv-x="328" 
d="M53 -98v784h228v-90h-133v-604h133v-90h-228z" />
    <glyph glyph-name="bracketleft.smcp" unicode="&#xf60e;" horiz-adv-x="328" 
d="M53 -98v784h228v-90h-133v-604h133v-90h-228z" />
    <glyph glyph-name="bracketright" unicode="]" horiz-adv-x="364" 
d="M46 -230v92h176v776h-176v92h273v-960h-273z" />
    <glyph glyph-name="bracketright.cap" unicode="&#xe494;" horiz-adv-x="364" 
d="M46 -120v92h176v776h-176v92h273v-960h-273z" />
    <glyph glyph-name="bracketright.smcp" unicode="&#xe49c;" horiz-adv-x="328" 
d="M47 -98v90h133v604h-133v90h228v-784h-228z" />
    <glyph glyph-name="bracketright.smcp" unicode="&#xf60f;" horiz-adv-x="328" 
d="M47 -98v90h133v604h-133v90h228v-784h-228z" />
    <glyph glyph-name="brokenbar" unicode="&#xa6;" horiz-adv-x="224" 
d="M53 310v420h96v-420h-96zM53 -230v420h96v-420h-96z" />
    <glyph glyph-name="brokenbar.cap" unicode="&#xe465;" horiz-adv-x="224" 
d="M53 420v420h96v-420h-96zM53 -120v420h96v-420h-96z" />
    <glyph glyph-name="bullet" unicode="&#x2022;" horiz-adv-x="353" 
d="M177 167c-47 0 -86 39 -86 86c0 46 39 85 86 85s85 -39 85 -85c0 -47 -38 -86 -85 -86z" />
    <glyph glyph-name="bullet.cap" unicode="&#xe466;" horiz-adv-x="353" 
d="M177 278c-47 0 -86 39 -86 86s39 85 86 85s85 -38 85 -85s-38 -86 -85 -86z" />
    <glyph glyph-name="bullseye" unicode="&#x25ce;" horiz-adv-x="927" 
d="M753 279c-47 -159 -215 -251 -375 -203c-159 47 -251 215 -203 375c47 159 215 251 375 203c159 -47 251 -215 203 -375zM678 292c41 120 -25 243 -142 284c-117 40 -246 -17 -286 -138c-41 -120 24 -243 142 -284c116 -40 246 17 286 138zM644 316
c-27 -100 -125 -159 -228 -132c-103 28 -157 130 -130 230c27 98 125 159 228 132c102 -27 157 -131 130 -230zM569 328c20 56 -8 119 -68 139c-60 21 -121 -9 -141 -66s9 -117 69 -138s120 8 140 65zM525 365c0 -47 -25 -85 -60 -85s-62 38 -62 85c0 46 27 85 62 85
s60 -39 60 -85z" />
    <glyph glyph-name="c" unicode="c" horiz-adv-x="659" 
d="M348 -12c-176 0 -307 136 -307 304c0 174 135 305 307 305c128 0 231 -73 274 -178l-85 -36c-34 78 -102 126 -190 126c-120 0 -210 -96 -210 -217c0 -119 91 -216 213 -216c93 0 158 57 190 133l87 -38c-46 -107 -142 -183 -279 -183z" />
    <glyph glyph-name="c.smcp" unicode="&#xe203;" horiz-adv-x="646" 
d="M348 -8c-178 0 -307 138 -307 306c0 172 134 306 306 306c114 0 217 -63 268 -155l-85 -49c-34 66 -101 112 -182 112c-122 0 -210 -98 -210 -214c0 -118 90 -214 208 -214c89 0 154 51 187 123l89 -43c-52 -103 -150 -172 -274 -172z" />
    <glyph glyph-name="c.smcp" unicode="&#xf763;" horiz-adv-x="646" 
d="M348 -8c-178 0 -307 138 -307 306c0 172 134 306 306 306c114 0 217 -63 268 -155l-85 -49c-34 66 -101 112 -182 112c-122 0 -210 -98 -210 -214c0 -118 90 -214 208 -214c89 0 154 51 187 123l89 -43c-52 -103 -150 -172 -274 -172z" />
    <glyph glyph-name="cacute" unicode="&#x107;" horiz-adv-x="659" 
d="M303 652l116 163h105l-146 -163h-75zM348 -12c-176 0 -307 136 -307 304c0 174 135 305 307 305c128 0 231 -73 274 -178l-85 -36c-34 78 -102 126 -190 126c-120 0 -210 -96 -210 -217c0 -119 91 -216 213 -216c93 0 158 57 190 133l87 -38
c-46 -107 -142 -183 -279 -183z" />
    <glyph glyph-name="cacute.smcp" unicode="&#xe234;" horiz-adv-x="646" 
d="M306 653l116 163h105l-146 -163h-75zM348 -8c-178 0 -307 138 -307 306c0 172 134 306 306 306c114 0 217 -63 268 -155l-85 -49c-34 66 -101 112 -182 112c-122 0 -210 -98 -210 -214c0 -118 90 -214 208 -214c89 0 154 51 187 123l89 -43c-52 -103 -150 -172 -274 -172
z" />
    <glyph glyph-name="cacute.smcp" unicode="&#xf643;" horiz-adv-x="646" 
d="M306 653l116 163h105l-146 -163h-75zM348 -8c-178 0 -307 138 -307 306c0 172 134 306 306 306c114 0 217 -63 268 -155l-85 -49c-34 66 -101 112 -182 112c-122 0 -210 -98 -210 -214c0 -118 90 -214 208 -214c89 0 154 51 187 123l89 -43c-52 -103 -150 -172 -274 -172
z" />
    <glyph glyph-name="ccaron" unicode="&#x10d;" horiz-adv-x="659" 
d="M348 -12c-176 0 -307 136 -307 304c0 174 135 305 307 305c128 0 231 -73 274 -178l-85 -36c-34 78 -102 126 -190 126c-120 0 -210 -96 -210 -217c0 -119 91 -216 213 -216c93 0 158 57 190 133l87 -38c-46 -107 -142 -183 -279 -183zM317 652l-119 163h85l68 -98l70 98
h84l-119 -163h-69z" />
    <glyph glyph-name="ccaron.smcp" unicode="&#xe236;" horiz-adv-x="646" 
d="M348 -8c-178 0 -307 138 -307 306c0 172 134 306 306 306c114 0 217 -63 268 -155l-85 -49c-34 66 -101 112 -182 112c-122 0 -210 -98 -210 -214c0 -118 90 -214 208 -214c89 0 154 51 187 123l89 -43c-52 -103 -150 -172 -274 -172zM315 653l-119 163h85l68 -98l70 98
h84l-119 -163h-69z" />
    <glyph glyph-name="ccaron.smcp" unicode="&#xf644;" horiz-adv-x="646" 
d="M348 -8c-178 0 -307 138 -307 306c0 172 134 306 306 306c114 0 217 -63 268 -155l-85 -49c-34 66 -101 112 -182 112c-122 0 -210 -98 -210 -214c0 -118 90 -214 208 -214c89 0 154 51 187 123l89 -43c-52 -103 -150 -172 -274 -172zM315 653l-119 163h85l68 -98l70 98
h84l-119 -163h-69z" />
    <glyph glyph-name="ccedilla" unicode="&#xe7;" horiz-adv-x="659" 
d="M341 -235c-58 0 -107 23 -143 56l64 39c24 -20 45 -35 84 -35c36 0 65 17 65 39s-24 34 -68 34h-43v94c-152 21 -259 147 -259 300c0 174 135 305 307 305c128 0 231 -73 274 -178l-85 -36c-34 78 -102 126 -190 126c-120 0 -210 -96 -210 -217c0 -119 91 -216 213 -216
c93 0 158 57 190 133l87 -38c-44 -102 -133 -175 -258 -182v-42c72 1 118 -33 118 -80c0 -60 -66 -102 -146 -102z" />
    <glyph glyph-name="ccedilla.smcp" unicode="&#xe238;" horiz-adv-x="646" 
d="M341 -235c-58 0 -107 23 -143 56l64 39c24 -20 45 -35 84 -35c36 0 65 17 65 39s-24 34 -68 34h-43v98c-153 22 -259 149 -259 302c0 172 134 306 306 306c114 0 217 -63 268 -155l-85 -49c-34 66 -101 112 -182 112c-122 0 -210 -98 -210 -214c0 -118 90 -214 208 -214
c89 0 154 51 187 123l89 -43c-49 -97 -139 -164 -253 -171v-46c72 1 118 -33 118 -80c0 -60 -66 -102 -146 -102z" />
    <glyph glyph-name="ccedilla.smcp" unicode="&#xf7e7;" horiz-adv-x="646" 
d="M341 -235c-58 0 -107 23 -143 56l64 39c24 -20 45 -35 84 -35c36 0 65 17 65 39s-24 34 -68 34h-43v98c-153 22 -259 149 -259 302c0 172 134 306 306 306c114 0 217 -63 268 -155l-85 -49c-34 66 -101 112 -182 112c-122 0 -210 -98 -210 -214c0 -118 90 -214 208 -214
c89 0 154 51 187 123l89 -43c-49 -97 -139 -164 -253 -171v-46c72 1 118 -33 118 -80c0 -60 -66 -102 -146 -102z" />
    <glyph glyph-name="ccircumflex" unicode="&#x109;" horiz-adv-x="659" 
d="M348 -12c-176 0 -307 136 -307 304c0 174 135 305 307 305c128 0 231 -73 274 -178l-85 -36c-34 78 -102 126 -190 126c-120 0 -210 -96 -210 -217c0 -119 91 -216 213 -216c93 0 158 57 190 133l87 -38c-46 -107 -142 -183 -279 -183zM199 648l119 163h69l119 -163h-84
l-70 98l-68 -98h-85z" />
    <glyph glyph-name="ccircumflex.smcp" unicode="&#xe235;" horiz-adv-x="646" 
d="M348 -8c-178 0 -307 138 -307 306c0 172 134 306 306 306c114 0 217 -63 268 -155l-85 -49c-34 66 -101 112 -182 112c-122 0 -210 -98 -210 -214c0 -118 90 -214 208 -214c89 0 154 51 187 123l89 -43c-52 -103 -150 -172 -274 -172zM197 651l119 163h69l119 -163h-84
l-70 98l-68 -98h-85z" />
    <glyph glyph-name="ccircumflex.smcp" unicode="&#xf628;" horiz-adv-x="646" 
d="M348 -8c-178 0 -307 138 -307 306c0 172 134 306 306 306c114 0 217 -63 268 -155l-85 -49c-34 66 -101 112 -182 112c-122 0 -210 -98 -210 -214c0 -118 90 -214 208 -214c89 0 154 51 187 123l89 -43c-52 -103 -150 -172 -274 -172zM197 651l119 163h69l119 -163h-84
l-70 98l-68 -98h-85z" />
    <glyph glyph-name="cdotaccent" unicode="&#x10b;" horiz-adv-x="659" 
d="M348 -12c-176 0 -307 136 -307 304c0 174 135 305 307 305c128 0 231 -73 274 -178l-85 -36c-34 78 -102 126 -190 126c-120 0 -210 -96 -210 -217c0 -119 91 -216 213 -216c93 0 158 57 190 133l87 -38c-46 -107 -142 -183 -279 -183zM283 715c0 38 26 64 65 64
c42 0 66 -26 66 -64c0 -39 -24 -65 -66 -65c-41 0 -65 26 -65 65z" />
    <glyph glyph-name="cdotaccent.smcp" unicode="&#xe237;" horiz-adv-x="646" 
d="M348 -8c-178 0 -307 138 -307 306c0 172 134 306 306 306c114 0 217 -63 268 -155l-85 -49c-34 66 -101 112 -182 112c-122 0 -210 -98 -210 -214c0 -118 90 -214 208 -214c89 0 154 51 187 123l89 -43c-52 -103 -150 -172 -274 -172zM286 727c0 38 26 64 65 64
c42 0 66 -26 66 -64c0 -39 -24 -65 -66 -65c-41 0 -65 26 -65 65z" />
    <glyph glyph-name="cdotaccent.smcp" unicode="&#xf629;" horiz-adv-x="646" 
d="M348 -8c-178 0 -307 138 -307 306c0 172 134 306 306 306c114 0 217 -63 268 -155l-85 -49c-34 66 -101 112 -182 112c-122 0 -210 -98 -210 -214c0 -118 90 -214 208 -214c89 0 154 51 187 123l89 -43c-52 -103 -150 -172 -274 -172zM286 727c0 38 26 64 65 64
c42 0 66 -26 66 -64c0 -39 -24 -65 -66 -65c-41 0 -65 26 -65 65z" />
    <glyph glyph-name="cent" unicode="&#xa2;" horiz-adv-x="588" 
d="M258 -130v125c-125 23 -216 129 -216 262c0 135 93 239 216 261v126h97v-125c93 -14 166 -72 199 -153l-86 -38c-28 67 -86 106 -159 106c-96 0 -172 -76 -172 -177c0 -102 76 -178 174 -178c76 0 133 45 159 109l87 -37c-35 -84 -106 -143 -202 -157v-124h-97z" />
    <glyph glyph-name="cent.LP" unicode="&#xe523;" horiz-adv-x="572" 
d="M246 -130v125c-122 22 -208 127 -208 255c0 129 88 231 208 255v125h98v-124c90 -14 159 -71 192 -150l-86 -36c-27 61 -81 101 -152 101c-93 0 -166 -76 -166 -171c0 -96 72 -170 167 -170c73 0 126 44 151 104l87 -37c-35 -79 -102 -138 -193 -153v-124h-98z" />
    <glyph glyph-name="cent.LT" unicode="&#xf464;" horiz-adv-x="588" 
d="M258 -130v125c-125 23 -216 129 -216 262c0 135 93 239 216 261v126h97v-125c93 -14 166 -72 199 -153l-86 -38c-28 67 -86 106 -159 106c-96 0 -172 -76 -172 -177c0 -102 76 -178 174 -178c76 0 133 45 159 109l87 -37c-35 -84 -106 -143 -202 -157v-124h-97z" />
    <glyph glyph-name="club" unicode="&#x2663;" horiz-adv-x="920" 
d="M595 0h-259c24 45 79 142 91 248c-28 -69 -90 -118 -167 -118c-98 0 -177 79 -177 177s79 177 177 177c15 0 29 -3 42 -7c-12 26 -19 57 -19 87c0 97 78 176 175 176s176 -79 176 -176c0 -31 -7 -61 -19 -88c14 5 29 8 46 8c98 0 176 -79 176 -177s-79 -177 -177 -177
c-77 0 -136 49 -163 117c14 -105 74 -202 98 -247z" />
    <glyph glyph-name="colon.T" unicode="&#xf184;" horiz-adv-x="294" 
d="M99 0v137h95v-137h-95zM99 363v137h95v-137h-95z" />
    <glyph glyph-name="comma" unicode="," horiz-adv-x="202" 
d="M21 -117l47 204h106l-86 -204h-67z" />
    <glyph glyph-name="comma.T" unicode="&#xf183;" horiz-adv-x="294" 
d="M76 -117l39 204h93l-65 -204h-67z" />
    <glyph glyph-name="copyright" unicode="&#xa9;" horiz-adv-x="826" 
d="M414 -10c-207 0 -375 168 -375 375s168 375 375 375s374 -168 374 -375s-167 -375 -374 -375zM414 70c163 0 291 132 291 295s-128 296 -291 296c-166 0 -291 -133 -291 -296s125 -295 291 -295zM418 165c-116 0 -201 89 -201 200s86 200 201 200c78 0 145 -44 175 -103
c-41 -18 -77 -41 -77 -41c-15 34 -51 62 -99 62c-64 0 -116 -53 -116 -118c0 -66 52 -118 116 -118c49 0 87 29 101 65l79 -35c-31 -64 -98 -112 -179 -112z" />
    <glyph glyph-name="copyright.LT" unicode="&#xf465;" horiz-adv-x="580" 
d="M290 -10c-153 0 -237 94 -237 235v274c0 139 96 241 237 241c145 0 238 -105 238 -240v-276c0 -144 -88 -234 -238 -234zM289 64c103 0 159 64 159 159v276c0 104 -56 168 -157 168c-102 0 -159 -69 -159 -168v-274c0 -97 55 -161 157 -161zM291 113
c-70 0 -112 46 -112 109v284c0 63 44 111 112 111c69 0 110 -47 110 -111v-102h-80v99c0 18 -12 31 -30 31c-19 0 -31 -14 -31 -31v-283c0 -18 12 -29 31 -29c18 0 30 11 30 29v116h80v-115c0 -63 -43 -108 -110 -108z" />
    <glyph glyph-name="cordinal" unicode="&#xe181;" horiz-adv-x="367" 
d="M191 435c-83 0 -150 67 -150 150c0 84 67 151 150 151c61 0 111 -34 135 -82l-62 -32c-13 28 -40 46 -73 46c-45 0 -80 -37 -80 -83c0 -45 35 -82 80 -82c36 0 62 19 74 48l63 -30c-24 -50 -74 -86 -137 -86z" />
    <glyph glyph-name="cordinal.smcp" unicode="&#xe353;" horiz-adv-x="367" 
d="M191 435c-83 0 -150 67 -150 150c0 84 67 151 150 151c61 0 111 -34 135 -82l-62 -32c-13 28 -40 46 -73 46c-45 0 -80 -37 -80 -83c0 -45 35 -82 80 -82c36 0 62 19 74 48l63 -30c-24 -50 -74 -86 -137 -86z" />
    <glyph glyph-name="currency" unicode="&#xa4;" horiz-adv-x="773" 
d="M391 102c-55 0 -106 17 -148 46l-107 -110l-64 64l107 110c-30 42 -47 94 -47 150c0 57 17 108 47 151l-109 114l65 63l109 -113c41 28 92 45 147 45c54 0 104 -17 145 -45l103 106l64 -63l-102 -105c31 -42 49 -95 49 -153c0 -59 -19 -112 -50 -155l102 -105l-65 -63
l-103 106c-41 -27 -90 -43 -143 -43zM391 191c92 0 165 77 165 171s-73 171 -165 171c-93 0 -164 -77 -164 -171s71 -171 164 -171z" />
    <glyph glyph-name="d" unicode="d" horiz-adv-x="711" 
d="M339 -12c-163 0 -298 130 -298 304c0 175 132 305 298 305c81 0 167 -39 214 -108v251h94v-740h-93v99c-47 -70 -134 -111 -215 -111zM348 76c121 0 213 96 213 217c0 119 -92 217 -213 217c-118 0 -211 -97 -211 -217c0 -121 93 -217 211 -217z" />
    <glyph glyph-name="d.smcp" unicode="&#xe204;" horiz-adv-x="578" 
d="M57 0v596h170c187 0 310 -129 310 -298c0 -170 -130 -298 -308 -298h-172zM220 508h-68v-419h71c129 0 217 91 217 209c0 120 -81 210 -220 210z" />
    <glyph glyph-name="d.smcp" unicode="&#xf764;" horiz-adv-x="578" 
d="M57 0v596h170c187 0 310 -129 310 -298c0 -170 -130 -298 -308 -298h-172zM220 508h-68v-419h71c129 0 217 91 217 209c0 120 -81 210 -220 210z" />
    <glyph glyph-name="dagger" unicode="&#x2020;" horiz-adv-x="558" 
d="M53 414v86h177v230h97v-230h179v-86h-179v-414h-97v414h-177z" />
    <glyph glyph-name="daggerdbl" unicode="&#x2021;" horiz-adv-x="558" 
d="M53 452v85h177v193h97v-193h179v-85h-179v-165h179v-85h-179v-202h-97v202h-177v85h177v165h-177z" />
    <glyph glyph-name="dcaron" unicode="&#x10f;" horiz-adv-x="761" 
d="M339 -12c-163 0 -298 130 -298 304c0 175 132 305 298 305c81 0 167 -39 214 -108v251h94v-740h-93v99c-47 -70 -134 -111 -215 -111zM348 76c121 0 213 96 213 217c0 119 -92 217 -213 217c-118 0 -211 -97 -211 -217c0 -121 93 -217 211 -217zM689 565l36 176h82
l-56 -176h-62z" />
    <glyph glyph-name="dcaron.smcp" unicode="&#xe239;" horiz-adv-x="578" 
d="M57 0v596h170c187 0 310 -129 310 -298c0 -170 -130 -298 -308 -298h-172zM220 508h-68v-419h71c129 0 217 91 217 209c0 120 -81 210 -220 210zM224 653l-119 163h85l68 -98l70 98h84l-119 -163h-69z" />
    <glyph glyph-name="dcaron.smcp" unicode="&#xf645;" horiz-adv-x="578" 
d="M57 0v596h170c187 0 310 -129 310 -298c0 -170 -130 -298 -308 -298h-172zM220 508h-68v-419h71c129 0 217 91 217 209c0 120 -81 210 -220 210zM224 653l-119 163h85l68 -98l70 98h84l-119 -163h-69z" />
    <glyph glyph-name="dcroat" unicode="&#x111;" horiz-adv-x="715" 
d="M456 610v69h97v61h94v-61h68v-69h-68v-610h-93v99c-47 -70 -134 -111 -215 -111c-163 0 -298 130 -298 304c0 175 132 305 298 305c81 0 167 -39 214 -108v121h-97zM348 76c121 0 213 96 213 217c0 119 -92 217 -213 217c-118 0 -211 -97 -211 -217
c0 -121 93 -217 211 -217z" />
    <glyph glyph-name="dcroat.smcp" unicode="&#xe23c;" horiz-adv-x="607" 
d="M25 258v82h61v256h170c188 0 311 -129 311 -298c0 -170 -131 -298 -308 -298h-173v258h-61zM319 258h-137v-169h71c129 0 216 91 216 209c0 120 -80 210 -219 210h-68v-168h137v-82z" />
    <glyph glyph-name="dcroat.smcp" unicode="&#xf646;" horiz-adv-x="607" 
d="M25 258v82h61v256h170c188 0 311 -129 311 -298c0 -170 -131 -298 -308 -298h-173v258h-61zM319 258h-137v-169h71c129 0 216 91 216 209c0 120 -80 210 -219 210h-68v-168h137v-82z" />
    <glyph glyph-name="eth.smcp" unicode="&#xe32c;" horiz-adv-x="607" 
d="M25 258v82h61v256h170c188 0 311 -129 311 -298c0 -170 -131 -298 -308 -298h-173v258h-61zM319 258h-137v-169h71c129 0 216 91 216 209c0 120 -80 210 -219 210h-68v-168h137v-82z" />
    <glyph glyph-name="eth.smcp" unicode="&#xf7f0;" horiz-adv-x="607" 
d="M25 258v82h61v256h170c188 0 311 -129 311 -298c0 -170 -131 -298 -308 -298h-173v258h-61zM319 258h-137v-169h71c129 0 216 91 216 209c0 120 -80 210 -219 210h-68v-168h137v-82z" />
    <glyph glyph-name="degree" unicode="&#xb0;" horiz-adv-x="419" 
d="M210 452c-80 0 -144 65 -144 145c0 79 64 143 144 143s143 -64 143 -143c0 -80 -63 -145 -143 -145zM210 533c34 0 63 29 63 63s-29 63 -63 63s-63 -29 -63 -63s29 -63 63 -63z" />
    <glyph glyph-name="diamond" unicode="&#x2666;" horiz-adv-x="920" 
d="M133 390l327 401l327 -401l-327 -400z" />
    <glyph glyph-name="divide" unicode="&#xf7;" 
d="M46 324v82h370v-82h-370zM191 453v119h81v-119h-81zM191 157v119h81v-119h-81z" />
    <glyph glyph-name="dollar" unicode="$" horiz-adv-x="588" 
d="M552 206c0 -101 -77 -195 -204 -213v-113h-97v113c-100 12 -170 58 -223 120l81 70c35 -52 82 -86 144 -98v263c-94 30 -198 75 -198 196c0 102 76 179 196 193v103h97v-104c86 -12 143 -51 188 -105l-79 -59c-26 38 -62 65 -111 77v-233c97 -32 206 -78 206 -210z
M454 206c0 61 -49 91 -108 112v-233c67 14 108 62 108 121zM152 547c0 -54 44 -81 101 -101v205c-62 -11 -101 -51 -101 -104z" />
    <glyph glyph-name="dollar.LP" unicode="&#xe522;" horiz-adv-x="560" 
d="M528 206c0 -100 -72 -194 -196 -212v-114h-94v113c-93 12 -167 62 -217 127l85 66c31 -51 80 -87 133 -100v261c-93 29 -188 73 -188 197c0 100 78 176 187 192v104h94v-103c80 -11 136 -49 180 -102l-79 -60c-26 38 -60 64 -103 74v-233c95 -32 198 -77 198 -210z
M430 206c0 60 -44 90 -100 112v-232c61 16 100 62 100 120zM148 547c0 -53 38 -80 91 -100v203c-55 -14 -91 -53 -91 -103z" />
    <glyph glyph-name="dollar.LT" unicode="&#xf466;" horiz-adv-x="588" 
d="M552 206c0 -101 -77 -195 -204 -213v-113h-97v113c-100 12 -170 58 -223 120l81 70c35 -52 82 -86 144 -98v263c-94 30 -198 75 -198 196c0 102 76 179 196 193v103h97v-104c86 -12 143 -51 188 -105l-79 -59c-26 38 -62 65 -111 77v-233c97 -32 206 -78 206 -210z
M454 206c0 61 -49 91 -108 112v-233c67 14 108 62 108 121zM152 547c0 -54 44 -81 101 -101v205c-62 -11 -101 -51 -101 -104z" />
    <glyph glyph-name="dotbelow" unicode="&#xe415;" horiz-adv-x="492" 
d="M171 -116c0 38 26 64 65 64c42 0 66 -26 66 -64c0 -39 -24 -65 -66 -65c-41 0 -65 26 -65 65z" />
    <glyph glyph-name="dotlessi" unicode="&#x131;" horiz-adv-x="224" 
d="M64 0v585h96v-585h-96z" />
    <glyph glyph-name="dotlessj" unicode="&#x237;" horiz-adv-x="224" 
d="M-75 -268v91c116 0 139 17 139 136v626h96v-627c0 -176 -51 -226 -220 -226h-15z" />
    <glyph glyph-name="doublebar" unicode="&#x2016;" horiz-adv-x="382" 
d="M53 -230v960h96v-960h-96zM232 -230v960h97v-960h-97z" />
    <glyph glyph-name="doublebar.cap" unicode="&#xe464;" horiz-adv-x="382" 
d="M53 -120v960h96v-960h-96zM232 -120v960h97v-960h-97z" />
    <glyph glyph-name="doublebar.smcp" unicode="&#xe46a;" horiz-adv-x="378" 
d="M53 -98v784h95v-784h-95zM230 -98v784h96v-784h-96z" />
    <glyph glyph-name="doublegrave" unicode="&#xe412;" horiz-adv-x="489" 
d="M206 557l-141 163h100l113 -163h-72zM352 557l-140 163h101l111 -163h-72z" />
    <glyph glyph-name="e" unicode="e" horiz-adv-x="688" 
d="M350 -12c-187 0 -309 130 -309 301c0 174 130 308 304 308c171 0 300 -121 300 -297v-40h-511c13 -111 98 -187 216 -187c93 0 160 49 195 124l81 -43c-53 -103 -144 -166 -276 -166zM345 512c-104 0 -184 -70 -206 -167h409c-17 103 -92 167 -203 167z" />
    <glyph glyph-name="e.smcp" unicode="&#xe205;" horiz-adv-x="462" 
d="M58 0v596h357v-89h-263v-163h263v-90h-263v-164h263v-90h-357z" />
    <glyph glyph-name="e.smcp" unicode="&#xf765;" horiz-adv-x="462" 
d="M58 0v596h357v-89h-263v-163h263v-90h-263v-164h263v-90h-357z" />
    <glyph glyph-name="eacute" unicode="&#xe9;" horiz-adv-x="688" 
d="M350 -12c-187 0 -309 130 -309 301c0 174 130 308 304 308c171 0 300 -121 300 -297v-40h-511c13 -111 98 -187 216 -187c93 0 160 49 195 124l81 -43c-53 -103 -144 -166 -276 -166zM345 512c-104 0 -184 -70 -206 -167h409c-17 103 -92 167 -203 167zM315 652l116 163
h105l-146 -163h-75z" />
    <glyph glyph-name="eacute.smcp" unicode="&#xe23d;" 
d="M58 0v596h357v-89h-263v-163h263v-90h-263v-164h263v-90h-357zM185 653l116 163h105l-146 -163h-75z" />
    <glyph glyph-name="eacute.smcp" unicode="&#xf7e9;" 
d="M58 0v596h357v-89h-263v-163h263v-90h-263v-164h263v-90h-357zM185 653l116 163h105l-146 -163h-75z" />
    <glyph glyph-name="ebreve" unicode="&#x115;" horiz-adv-x="688" 
d="M350 -12c-187 0 -309 130 -309 301c0 174 130 308 304 308c171 0 300 -121 300 -297v-40h-511c13 -111 98 -187 216 -187c93 0 160 49 195 124l81 -43c-53 -103 -144 -166 -276 -166zM345 512c-104 0 -184 -70 -206 -167h409c-17 103 -92 167 -203 167zM350 647
c-110 0 -161 73 -161 164h70c0 -63 32 -102 91 -103c58 1 91 40 91 103h71c0 -91 -62 -164 -162 -164z" />
    <glyph glyph-name="ebreve.smcp" unicode="&#xe243;" 
d="M58 0v596h357v-89h-263v-163h263v-90h-263v-164h263v-90h-357zM241 646c-110 0 -161 73 -161 164h70c0 -63 32 -102 91 -103c58 1 91 40 91 103h71c0 -91 -62 -164 -162 -164z" />
    <glyph glyph-name="ebreve.smcp" unicode="&#xf62a;" 
d="M58 0v596h357v-89h-263v-163h263v-90h-263v-164h263v-90h-357zM241 646c-110 0 -161 73 -161 164h70c0 -63 32 -102 91 -103c58 1 91 40 91 103h71c0 -91 -62 -164 -162 -164z" />
    <glyph glyph-name="ecaron" unicode="&#x11b;" horiz-adv-x="688" 
d="M350 -12c-187 0 -309 130 -309 301c0 174 130 308 304 308c171 0 300 -121 300 -297v-40h-511c13 -111 98 -187 216 -187c93 0 160 49 195 124l81 -43c-53 -103 -144 -166 -276 -166zM345 512c-104 0 -184 -70 -206 -167h409c-17 103 -92 167 -203 167zM316 652l-119 163
h85l68 -98l70 98h84l-119 -163h-69z" />
    <glyph glyph-name="ecaron.smcp" unicode="&#xe241;" 
d="M58 0v596h357v-89h-263v-163h263v-90h-263v-164h263v-90h-357zM205 653l-119 163h85l68 -98l70 98h84l-119 -163h-69z" />
    <glyph glyph-name="ecaron.smcp" unicode="&#xf647;" 
d="M58 0v596h357v-89h-263v-163h263v-90h-263v-164h263v-90h-357zM205 653l-119 163h85l68 -98l70 98h84l-119 -163h-69z" />
    <glyph glyph-name="ecircumflex" unicode="&#xea;" horiz-adv-x="688" 
d="M350 -12c-187 0 -309 130 -309 301c0 174 130 308 304 308c171 0 300 -121 300 -297v-40h-511c13 -111 98 -187 216 -187c93 0 160 49 195 124l81 -43c-53 -103 -144 -166 -276 -166zM345 512c-104 0 -184 -70 -206 -167h409c-17 103 -92 167 -203 167zM196 642l119 163
h69l119 -163h-84l-70 98l-68 -98h-85z" />
    <glyph glyph-name="ecircumflex.smcp" unicode="&#xe23f;" 
d="M58 0v596h357v-89h-263v-163h263v-90h-263v-164h263v-90h-357zM86 653l119 163h69l119 -163h-84l-70 98l-68 -98h-85z" />
    <glyph glyph-name="ecircumflex.smcp" unicode="&#xf7ea;" 
d="M58 0v596h357v-89h-263v-163h263v-90h-263v-164h263v-90h-357zM86 653l119 163h69l119 -163h-84l-70 98l-68 -98h-85z" />
    <glyph glyph-name="edieresis" unicode="&#xeb;" horiz-adv-x="688" 
d="M350 -12c-187 0 -309 130 -309 301c0 174 130 308 304 308c171 0 300 -121 300 -297v-40h-511c13 -111 98 -187 216 -187c93 0 160 49 195 124l81 -43c-53 -103 -144 -166 -276 -166zM345 512c-104 0 -184 -70 -206 -167h409c-17 103 -92 167 -203 167zM387 709
c0 37 25 62 63 62c41 0 64 -25 64 -62c0 -38 -23 -63 -64 -63c-40 0 -63 25 -63 63zM192 709c0 37 25 62 63 62c41 0 64 -25 64 -62c0 -38 -23 -63 -64 -63c-40 0 -63 25 -63 63z" />
    <glyph glyph-name="edieresis.smcp" unicode="&#xe230;" 
d="M58 0v596h357v-89h-263v-163h263v-90h-263v-164h263v-90h-357zM275 727c0 37 25 62 63 62c41 0 64 -25 64 -62c0 -38 -23 -63 -64 -63c-40 0 -63 25 -63 63zM80 727c0 37 25 62 63 62c41 0 64 -25 64 -62c0 -38 -23 -63 -64 -63c-40 0 -63 25 -63 63z" />
    <glyph glyph-name="edieresis.smcp" unicode="&#xf7eb;" 
d="M58 0v596h357v-89h-263v-163h263v-90h-263v-164h263v-90h-357zM275 727c0 37 25 62 63 62c41 0 64 -25 64 -62c0 -38 -23 -63 -64 -63c-40 0 -63 25 -63 63zM80 727c0 37 25 62 63 62c41 0 64 -25 64 -62c0 -38 -23 -63 -64 -63c-40 0 -63 25 -63 63z" />
    <glyph glyph-name="edotaccent" unicode="&#x117;" horiz-adv-x="688" 
d="M350 -12c-187 0 -309 130 -309 301c0 174 130 308 304 308c171 0 300 -121 300 -297v-40h-511c13 -111 98 -187 216 -187c93 0 160 49 195 124l81 -43c-53 -103 -144 -166 -276 -166zM345 512c-104 0 -184 -70 -206 -167h409c-17 103 -92 167 -203 167zM283 713
c0 38 26 64 65 64c42 0 66 -26 66 -64c0 -39 -24 -65 -66 -65c-41 0 -65 26 -65 65z" />
    <glyph glyph-name="edotaccent.smcp" unicode="&#xe246;" 
d="M58 0v596h357v-89h-263v-163h263v-90h-263v-164h263v-90h-357zM177 727c0 38 26 64 65 64c42 0 66 -26 66 -64c0 -39 -24 -65 -66 -65c-41 0 -65 26 -65 65z" />
    <glyph glyph-name="edotaccent.smcp" unicode="&#xf648;" 
d="M58 0v596h357v-89h-263v-163h263v-90h-263v-164h263v-90h-357zM177 727c0 38 26 64 65 64c42 0 66 -26 66 -64c0 -39 -24 -65 -66 -65c-41 0 -65 26 -65 65z" />
    <glyph glyph-name="egrave" unicode="&#xe8;" horiz-adv-x="688" 
d="M350 -12c-187 0 -309 130 -309 301c0 174 130 308 304 308c171 0 300 -121 300 -297v-40h-511c13 -111 98 -187 216 -187c93 0 160 49 195 124l81 -43c-53 -103 -144 -166 -276 -166zM345 512c-104 0 -184 -70 -206 -167h409c-17 103 -92 167 -203 167zM315 652l-146 163
h104l117 -163h-75z" />
    <glyph glyph-name="egrave.smcp" unicode="&#xe23e;" 
d="M58 0v596h357v-89h-263v-163h263v-90h-263v-164h263v-90h-357zM220 653l-146 163h104l117 -163h-75z" />
    <glyph glyph-name="egrave.smcp" unicode="&#xf7e8;" 
d="M58 0v596h357v-89h-263v-163h263v-90h-263v-164h263v-90h-357zM220 653l-146 163h104l117 -163h-75z" />
    <glyph glyph-name="eight.LP" unicode="&#xe53d;" horiz-adv-x="549" 
d="M275 -10c-143 0 -234 93 -234 220c0 77 41 142 101 179c-46 34 -77 88 -77 153c0 116 89 198 212 198c120 0 211 -82 211 -198c0 -66 -32 -119 -79 -153c59 -37 100 -102 100 -179c0 -127 -92 -220 -234 -220zM274 78c84 0 141 59 141 132s-55 133 -139 133
s-141 -60 -141 -133s56 -132 139 -132zM275 427c72 0 122 51 122 115s-48 115 -120 115s-122 -51 -122 -115c0 -65 48 -115 120 -115z" />
    <glyph glyph-name="eight.LT" unicode="&#xe548;" horiz-adv-x="588" 
d="M294 -10c-162 0 -250 90 -250 220c0 78 40 141 106 178c-52 35 -82 88 -82 154c0 116 90 198 228 198c135 0 228 -82 228 -198c0 -67 -33 -120 -86 -154c66 -38 107 -100 107 -178c0 -130 -93 -220 -251 -220zM294 77c102 0 158 60 158 133s-54 133 -157 133
s-158 -61 -158 -133c0 -73 55 -133 157 -133zM295 427c92 0 139 50 139 115c0 63 -49 115 -138 115c-88 0 -139 -52 -139 -115c0 -65 45 -115 138 -115z" />
    <glyph glyph-name="eight.inf" unicode="&#xe579;" horiz-adv-x="335" 
d="M167 -6c-84 0 -140 56 -140 133c0 40 19 75 49 97c-22 20 -35 47 -35 83c0 71 51 121 126 121s128 -50 128 -121c0 -34 -14 -62 -35 -81c28 -22 47 -56 47 -99c0 -77 -55 -133 -140 -133zM167 67c37 0 61 27 61 60s-24 60 -61 60s-60 -28 -60 -60c0 -33 23 -60 60 -60z
M167 258c30 0 49 21 49 49c0 27 -18 49 -49 49c-30 0 -48 -22 -48 -49c0 -28 18 -49 48 -49z" />
    <glyph glyph-name="elevensixteenths" unicode="&#xf220;" horiz-adv-x="1373" 
d="M1195 -6c-91 0 -156 66 -156 150c0 40 15 81 36 112l107 166h95l-85 -132c5 1 11 2 17 2c79 0 142 -61 142 -148c0 -86 -67 -150 -156 -150zM367 0l527 730h113l-527 -730h-113zM776 0v78h82v222c-13 -19 -41 -31 -67 -31h-6v83h3c56 0 73 40 73 70h81v-344h79v-78h-245z
M26 308v78h83v222c-13 -19 -41 -31 -67 -31h-6v83h3c56 0 72 40 72 70h81v-344h80v-78h-246zM294 308v78h83v222c-13 -19 -41 -31 -67 -31h-6v83h3c56 0 73 40 73 70h80v-344h80v-78h-246zM1194 71c41 0 75 33 75 75c0 41 -34 73 -75 73s-73 -32 -73 -74
c0 -41 32 -74 73 -74z" />
    <glyph glyph-name="ellipsis" unicode="&#x2026;" horiz-adv-x="521" 
d="M32 54c0 37 25 62 63 62c40 0 64 -25 64 -62c0 -38 -24 -63 -64 -63s-63 25 -63 63zM364 54c0 37 25 62 63 62c40 0 64 -25 64 -62c0 -38 -24 -63 -64 -63s-63 25 -63 63zM198 54c0 37 25 62 63 62c40 0 64 -25 64 -62c0 -38 -24 -63 -64 -63s-63 25 -63 63z" />
    <glyph glyph-name="emacron" unicode="&#x113;" horiz-adv-x="688" 
d="M350 -12c-187 0 -309 130 -309 301c0 174 130 308 304 308c171 0 300 -121 300 -297v-40h-511c13 -111 98 -187 216 -187c93 0 160 49 195 124l81 -43c-53 -103 -144 -166 -276 -166zM345 512c-104 0 -184 -70 -206 -167h409c-17 103 -92 167 -203 167zM219 654v70h264
v-70h-264z" />
    <glyph glyph-name="emacron.smcp" unicode="&#xe242;" 
d="M58 0v596h357v-89h-263v-163h263v-90h-263v-164h263v-90h-357zM106 653v70h264v-70h-264z" />
    <glyph glyph-name="emacron.smcp" unicode="&#xf649;" 
d="M58 0v596h357v-89h-263v-163h263v-90h-263v-164h263v-90h-357zM106 653v70h264v-70h-264z" />
    <glyph glyph-name="emdash" unicode="&#x2014;" horiz-adv-x="704" 
d="M46 211v83h612v-83h-612z" />
    <glyph glyph-name="emdash.cap" unicode="&#xe486;" horiz-adv-x="704" 
d="M46 262v83h612v-83h-612z" />
    <glyph glyph-name="endash" unicode="&#x2013;" horiz-adv-x="504" 
d="M46 211v83h412v-83h-412z" />
    <glyph glyph-name="endash.cap" unicode="&#xe484;" horiz-adv-x="504" 
d="M46 262v83h412v-83h-412z" />
    <glyph glyph-name="eng" unicode="&#x14b;" horiz-adv-x="667" 
d="M370 -268v91c115 0 139 17 139 136v369c0 111 -59 184 -171 184c-102 0 -179 -79 -179 -188v-324h-95v585h94v-90c40 61 110 102 198 102c153 0 249 -100 249 -265v-374c0 -176 -52 -226 -221 -226h-14z" />
    <glyph glyph-name="eng.smcp" unicode="&#xe32b;" horiz-adv-x="609" 
d="M343 -230v91c95 0 113 13 113 109v30l-304 446v-446h-95v596h105l295 -434v434h95v-627c0 -153 -47 -199 -195 -199h-14z" />
    <glyph glyph-name="eng.smcp" unicode="&#xf62b;" horiz-adv-x="609" 
d="M343 -230v91c95 0 113 13 113 109v30l-304 446v-446h-95v596h105l295 -434v434h95v-627c0 -153 -47 -199 -195 -199h-14z" />
    <glyph glyph-name="eogonek" unicode="&#x119;" horiz-adv-x="688" 
d="M360 -219c-82 0 -137 45 -137 103c0 37 17 72 70 109c-155 23 -252 143 -252 296c0 174 130 308 304 308c171 0 300 -121 300 -297v-40h-511c13 -111 98 -187 216 -187c93 0 160 49 195 124l81 -43c-42 -82 -109 -139 -201 -158c-97 -60 -119 -80 -119 -109
c0 -25 23 -38 54 -38s51 15 71 33l65 -44c-34 -31 -87 -57 -136 -57zM345 512c-104 0 -184 -70 -206 -167h409c-17 103 -92 167 -203 167z" />
    <glyph glyph-name="eogonek.smcp" unicode="&#xe249;" 
d="M58 0v596h357v-89h-263v-163h263v-90h-263v-164h263v-90h-3l2 -1c-102 -63 -125 -83 -125 -112c0 -25 23 -38 54 -38s51 15 71 33l65 -44c-34 -31 -87 -57 -136 -57c-82 0 -137 45 -137 103c0 39 20 76 81 116h-229z" />
    <glyph glyph-name="eogonek.smcp" unicode="&#xf64a;" 
d="M58 0v596h357v-89h-263v-163h263v-90h-263v-164h263v-90h-3l2 -1c-102 -63 -125 -83 -125 -112c0 -25 23 -38 54 -38s51 15 71 33l65 -44c-34 -31 -87 -57 -136 -57c-82 0 -137 45 -137 103c0 39 20 76 81 116h-229z" />
    <glyph glyph-name="equal" unicode="=" 
d="M46 404v83h370v-83h-370zM46 240v82h370v-82h-370z" />
    <glyph glyph-name="equal.inf" unicode="&#xe57d;" horiz-adv-x="265" 
d="M27 226v66h213v-66h-213zM27 127v67h213v-67h-213z" />
    <glyph glyph-name="equivalence" unicode="&#x2261;" 
d="M46 322v82h370v-82h-370zM46 159v81h370v-81h-370zM46 486v82h370v-82h-370z" />
    <glyph glyph-name="eth" unicode="&#xf0;" horiz-adv-x="682" 
d="M159 621l139 109c-46 39 -100 80 -162 124h143c30 -24 59 -48 85 -71l90 71h99l-143 -114c156 -152 226 -302 226 -455c0 -163 -129 -292 -296 -292c-162 0 -295 124 -295 290s128 290 284 290c72 0 122 -22 158 -55c-32 55 -78 111 -142 170l-85 -67h-101zM341 81
c109 0 200 91 200 202c0 110 -87 202 -199 202c-109 0 -201 -89 -201 -202c0 -112 92 -202 200 -202z" />
    <glyph glyph-name="exclam" unicode="!" horiz-adv-x="228" 
d="M88 195c-12 103 -21 284 -21 418v117h96v-117c0 -134 -10 -315 -22 -418h-53zM42 63c0 43 29 72 72 72c47 0 74 -29 74 -72s-27 -72 -74 -72c-45 0 -72 29 -72 72z" />
    <glyph glyph-name="exclamdown" unicode="&#xa1;" horiz-adv-x="228" 
d="M67 -230v117c0 134 9 316 21 419h53c12 -103 22 -285 22 -419v-117h-96zM42 430c0 43 29 72 72 72c47 0 74 -29 74 -72s-27 -72 -74 -72c-45 0 -72 29 -72 72z" />
    <glyph glyph-name="exclamdown.cap" unicode="&#xe441;" horiz-adv-x="228" 
d="M67 0v117c0 134 9 316 21 419h53c12 -103 22 -285 22 -419v-117h-96zM42 663c0 43 29 72 72 72c47 0 74 -29 74 -72s-27 -72 -74 -72c-45 0 -72 29 -72 72z" />
    <glyph glyph-name="f" unicode="f" horiz-adv-x="393" 
d="M27 499v86h102v9c0 176 50 226 223 226h9v-89c-121 0 -137 -20 -137 -138v-8h137v-86h-137v-499h-95v499h-102z" />
    <glyph glyph-name="f.smcp" unicode="&#xe206;" horiz-adv-x="438" 
d="M57 0v596h338v-89h-243v-163h243v-90h-243v-254h-95z" />
    <glyph glyph-name="f.smcp" unicode="&#xf766;" horiz-adv-x="438" 
d="M57 0v596h338v-89h-243v-163h243v-90h-243v-254h-95z" />
    <glyph glyph-name="fifteensixteenths" unicode="&#xf222;" horiz-adv-x="1380" 
d="M1203 -6c-91 0 -156 66 -156 150c0 40 15 81 36 112l107 166h96l-86 -132c6 1 12 2 18 2c78 0 141 -61 141 -148c0 -86 -66 -150 -156 -150zM376 0l527 730h112l-527 -730h-112zM436 302c-69 0 -121 34 -145 79l78 44c12 -26 34 -45 68 -45c37 0 64 26 64 65
c0 40 -28 66 -65 66c-31 0 -54 -17 -66 -41l-76 30l32 230h235v-77h-170l-11 -84c17 10 38 17 66 17c77 0 139 -49 139 -141c0 -85 -63 -143 -149 -143zM783 0v78h84v223c-13 -20 -40 -32 -67 -32h-7v83h3c56 0 73 40 73 70h81v-344h79v-78h-246zM26 308v78h83v222
c-13 -19 -41 -31 -67 -31h-6v83h3c56 0 72 40 72 70h81v-344h80v-78h-246zM1203 71c39 0 74 33 74 75c0 41 -35 73 -74 73c-41 0 -74 -32 -74 -74c0 -41 33 -74 74 -74z" />
    <glyph glyph-name="figuredash" unicode="&#x2012;" horiz-adv-x="654" 
d="M46 211v83h562v-83h-562z" />
    <glyph glyph-name="figuredash.cap" unicode="&#xe487;" horiz-adv-x="654" 
d="M46 262v83h562v-83h-562z" />
    <glyph glyph-name="five.LP" unicode="&#xe53a;" horiz-adv-x="579" 
d="M291 -10c-118 0 -206 58 -247 136l90 54c28 -56 79 -100 157 -100c84 0 152 62 152 152c0 97 -72 156 -153 156c-75 0 -124 -38 -153 -95l-89 39l56 398h394v-91h-314l-31 -214c34 29 82 51 143 51c128 0 245 -81 245 -244c0 -143 -106 -242 -250 -242z" />
    <glyph glyph-name="five.LT" unicode="&#xe545;" horiz-adv-x="588" 
d="M294 -10c-119 0 -206 55 -250 133l92 56c29 -58 81 -99 159 -99c86 0 153 65 153 159c0 100 -73 160 -157 160c-67 0 -116 -31 -146 -75l-91 39l54 367h396v-91h-317l-31 -196c34 26 82 45 142 45c129 0 249 -80 249 -250c0 -145 -105 -248 -253 -248z" />
    <glyph glyph-name="five.inf" unicode="&#xe576;" horiz-adv-x="336" 
d="M167 -6c-70 0 -122 34 -147 79l78 44c13 -26 35 -45 69 -45c36 0 65 26 65 65c0 40 -29 66 -66 66c-31 0 -54 -17 -66 -41l-75 30l31 230h235v-77h-170l-12 -85c17 10 39 18 67 18c77 0 139 -49 139 -141c0 -85 -62 -143 -148 -143z" />
    <glyph glyph-name="fivesixteenths" unicode="&#xf217;" horiz-adv-x="1110" 
d="M932 -6c-91 0 -156 66 -156 150c0 40 16 81 36 112l107 166h96l-86 -132c6 1 12 2 18 2c78 0 141 -61 141 -148c0 -86 -66 -150 -156 -150zM105 0l527 730h112l-527 -730h-112zM167 302c-70 0 -122 34 -147 79l78 44c13 -26 35 -45 69 -45c36 0 65 26 65 65
c0 40 -29 66 -66 66c-31 0 -54 -17 -66 -41l-75 30l31 230h235v-77h-170l-12 -85c17 10 39 18 67 18c77 0 139 -49 139 -141c0 -85 -62 -143 -148 -143zM513 0v78h83v222c-13 -19 -41 -31 -67 -31h-6v83h3c56 0 72 40 72 70h81v-344h80v-78h-246zM931 71c41 0 75 33 75 75
c0 41 -34 73 -75 73s-73 -32 -73 -74c0 -41 32 -74 73 -74z" />
    <glyph glyph-name="uni2081" unicode="&#x2081;" horiz-adv-x="294" 
d="M26 0v78h83v222c-13 -19 -41 -31 -67 -31h-6v83h3c56 0 72 40 72 70h81v-344h80v-78h-246z" />
    <glyph glyph-name="uni2085" unicode="&#x2085;" horiz-adv-x="336" 
d="M167 -6c-70 0 -122 34 -147 79l78 44c13 -26 35 -45 69 -45c36 0 65 26 65 65c0 40 -29 66 -66 66c-31 0 -54 -17 -66 -41l-75 30l31 230h235v-77h-170l-12 -85c17 10 39 18 67 18c77 0 139 -49 139 -141c0 -85 -62 -143 -148 -143z" />
    <glyph glyph-name="fraction" unicode="&#x2044;" horiz-adv-x="679" 
d="M21 0l527 730h112l-527 -730h-112z" />
    <glyph glyph-name="uni2086" unicode="&#x2086;" horiz-adv-x="356" 
d="M178 -6c-91 0 -156 66 -156 150c0 40 16 81 36 112l107 166h96l-86 -132c6 1 12 2 18 2c78 0 141 -61 141 -148c0 -86 -66 -150 -156 -150zM177 71c41 0 75 33 75 75c0 41 -34 73 -75 73s-73 -32 -73 -74c0 -41 32 -74 73 -74z" />
    <glyph glyph-name="florin" unicode="&#x192;" horiz-adv-x="588" 
d="M89 329v86h172l35 114c45 155 115 201 230 201h8v-88c-79 0 -113 -25 -140 -117l-34 -110h152v-86h-178l-39 -128c-45 -151 -99 -201 -228 -201h-12v89c85 0 114 25 143 117l37 123h-146z" />
    <glyph glyph-name="florin.LP" unicode="&#xe525;" horiz-adv-x="542" 
d="M75 329v86h161l31 115c40 159 113 200 216 200h8v-88c-60 0 -103 -17 -127 -114l-29 -113h142v-86h-164l-33 -129c-40 -155 -96 -200 -221 -200h-8v89c74 0 106 16 130 114l33 126h-139z" />
    <glyph glyph-name="florin.LT" unicode="&#xf468;" horiz-adv-x="588" 
d="M89 329v86h172l35 114c45 155 115 201 230 201h8v-88c-79 0 -113 -25 -140 -117l-34 -110h152v-86h-178l-39 -128c-45 -151 -99 -201 -228 -201h-12v89c85 0 114 25 143 117l37 123h-146z" />
    <glyph glyph-name="four.LP" unicode="&#xe539;" horiz-adv-x="617" 
d="M374 0v168h-333v89l330 473h99v-474h107v-88h-107v-168h-96zM146 256h228v325z" />
    <glyph glyph-name="four.LT" unicode="&#xe544;" horiz-adv-x="588" 
d="M357 0v163h-314l-1 89l308 478h102v-479h94v-88h-94v-163h-95zM146 251h211v328z" />
    <glyph glyph-name="four.inf" unicode="&#xe575;" horiz-adv-x="372" 
d="M206 0v92h-180v75l178 255h82v-257h61v-73h-61v-92h-80zM113 165h93v133z" />
    <glyph glyph-name="franc" unicode="&#x20a3;" horiz-adv-x="517" 
d="M53 0v730h413v-92h-317v-150h317v-86h-317v-84h317v-85h-317v-233h-96z" />
    <glyph glyph-name="g" unicode="g" horiz-adv-x="714" 
d="M339 -12c-163 0 -298 130 -298 304c0 175 132 305 298 305c82 0 168 -41 215 -111v99h95v-574c0 -181 -122 -296 -300 -296c-142 0 -230 59 -284 155l84 50c43 -71 91 -119 201 -119c126 0 204 85 204 207v91c-47 -70 -134 -111 -215 -111zM348 76c121 0 213 96 213 217
c0 119 -92 217 -213 217c-118 0 -211 -97 -211 -217c0 -121 93 -217 211 -217z" />
    <glyph glyph-name="g.alt" unicode="&#xe4c6;" horiz-adv-x="558" 
d="M275 -259c-174 0 -234 59 -234 132c0 44 23 73 55 91c-40 18 -59 50 -59 94c0 51 35 85 86 99c-44 34 -71 88 -71 151c0 113 89 203 201 203c76 0 138 -39 170 -99c9 59 41 84 99 84h12v-105h-14c-42 0 -64 -6 -64 -83c0 -113 -84 -203 -196 -203h-72
c-50 0 -71 -18 -71 -39c0 -22 18 -37 67 -37h157c117 0 184 -48 184 -132c0 -91 -84 -156 -250 -156zM252 190c65 0 117 53 117 118s-52 118 -117 118c-62 0 -114 -53 -114 -118c0 -64 52 -118 114 -118zM337 -53h-119c-60 1 -93 -24 -93 -59c0 -34 24 -62 130 -62h43
c103 0 141 34 141 67c0 36 -30 54 -102 54z" />
    <glyph glyph-name="g.smcp" unicode="&#xe207;" horiz-adv-x="681" 
d="M347 -8c-181 0 -309 140 -309 306c0 171 132 306 308 306c120 0 216 -61 267 -151l-84 -48c-36 67 -100 109 -183 109c-121 0 -212 -97 -212 -216c0 -120 88 -216 212 -216c106 0 175 66 194 159h-209v90h312v-38c0 -163 -116 -301 -296 -301z" />
    <glyph glyph-name="g.smcp" unicode="&#xf767;" horiz-adv-x="681" 
d="M347 -8c-181 0 -309 140 -309 306c0 171 132 306 308 306c120 0 216 -61 267 -151l-84 -48c-36 67 -100 109 -183 109c-121 0 -212 -97 -212 -216c0 -120 88 -216 212 -216c106 0 175 66 194 159h-209v90h312v-38c0 -163 -116 -301 -296 -301z" />
    <glyph glyph-name="gbreve" unicode="&#x11f;" horiz-adv-x="714" 
d="M339 -12c-163 0 -298 130 -298 304c0 175 132 305 298 305c82 0 168 -41 215 -111v99h95v-574c0 -181 -122 -296 -300 -296c-142 0 -230 59 -284 155l84 50c43 -71 91 -119 201 -119c126 0 204 85 204 207v91c-47 -70 -134 -111 -215 -111zM348 76c121 0 213 96 213 217
c0 119 -92 217 -213 217c-118 0 -211 -97 -211 -217c0 -121 93 -217 211 -217zM359 650c-110 0 -161 73 -161 164h70c0 -63 32 -102 91 -103c58 1 91 40 91 103h71c0 -91 -62 -164 -162 -164z" />
    <glyph glyph-name="gbreve.alt" unicode="&#xe910;" horiz-adv-x="558" 
d="M275 -259c-174 0 -234 59 -234 132c0 44 23 73 55 91c-40 18 -59 50 -59 94c0 51 35 85 86 99c-44 34 -71 88 -71 151c0 113 89 203 201 203c76 0 138 -39 170 -99c9 59 41 84 99 84h12v-105h-14c-42 0 -64 -6 -64 -83c0 -113 -84 -203 -196 -203h-72
c-50 0 -71 -18 -71 -39c0 -22 18 -37 67 -37h157c117 0 184 -48 184 -132c0 -91 -84 -156 -250 -156zM252 190c65 0 117 53 117 118s-52 118 -117 118c-62 0 -114 -53 -114 -118c0 -64 52 -118 114 -118zM205 -53c-52 -2 -80 -26 -80 -59c0 -34 24 -62 130 -62h43
c103 0 141 34 141 67c0 36 -30 54 -102 54h-132zM255 551c-110 0 -161 73 -161 164h70c0 -63 32 -102 91 -103c58 1 91 40 91 103h71c0 -91 -62 -164 -162 -164z" />
    <glyph glyph-name="gbreve.smcp" unicode="&#xe24e;" horiz-adv-x="681" 
d="M347 -8c-181 0 -309 140 -309 306c0 171 132 306 308 306c120 0 216 -61 267 -151l-84 -48c-36 67 -100 109 -183 109c-121 0 -212 -97 -212 -216c0 -120 88 -216 212 -216c106 0 175 66 194 159h-209v90h312v-38c0 -163 -116 -301 -296 -301zM345 649
c-110 0 -161 73 -161 164h70c0 -63 32 -102 91 -103c58 1 91 40 91 103h71c0 -91 -62 -164 -162 -164z" />
    <glyph glyph-name="gbreve.smcp" unicode="&#xf64b;" horiz-adv-x="681" 
d="M347 -8c-181 0 -309 140 -309 306c0 171 132 306 308 306c120 0 216 -61 267 -151l-84 -48c-36 67 -100 109 -183 109c-121 0 -212 -97 -212 -216c0 -120 88 -216 212 -216c106 0 175 66 194 159h-209v90h312v-38c0 -163 -116 -301 -296 -301zM345 649
c-110 0 -161 73 -161 164h70c0 -63 32 -102 91 -103c58 1 91 40 91 103h71c0 -91 -62 -164 -162 -164z" />
    <glyph glyph-name="gcircumflex" unicode="&#x11d;" horiz-adv-x="714" 
d="M339 -12c-163 0 -298 130 -298 304c0 175 132 305 298 305c82 0 168 -41 215 -111v99h95v-574c0 -181 -122 -296 -300 -296c-142 0 -230 59 -284 155l84 50c43 -71 91 -119 201 -119c126 0 204 85 204 207v91c-47 -70 -134 -111 -215 -111zM348 76c121 0 213 96 213 217
c0 119 -92 217 -213 217c-118 0 -211 -97 -211 -217c0 -121 93 -217 211 -217zM190 650l119 163h69l119 -163h-84l-70 98l-68 -98h-85z" />
    <glyph glyph-name="gcircumflex.alt" unicode="&#xe90e;" horiz-adv-x="558" 
d="M275 -259c-174 0 -234 59 -234 132c0 44 23 73 55 91c-40 18 -59 50 -59 94c0 51 35 85 86 99c-44 34 -71 88 -71 151c0 113 89 203 201 203c76 0 138 -39 170 -99c9 59 41 84 99 84h12v-105h-14c-42 0 -64 -6 -64 -83c0 -113 -84 -203 -196 -203h-72
c-50 0 -71 -18 -71 -39c0 -22 18 -37 67 -37h157c117 0 184 -48 184 -132c0 -91 -84 -156 -250 -156zM252 190c65 0 117 53 117 118s-52 118 -117 118c-62 0 -114 -53 -114 -118c0 -64 52 -118 114 -118zM205 -53c-52 -2 -80 -26 -80 -59c0 -34 24 -62 130 -62h43
c103 0 141 34 141 67c0 36 -30 54 -102 54h-132zM95 557l119 163h69l119 -163h-84l-70 98l-68 -98h-85z" />
    <glyph glyph-name="gcircumflex.smcp" unicode="&#xe24b;" horiz-adv-x="681" 
d="M347 -8c-181 0 -309 140 -309 306c0 171 132 306 308 306c120 0 216 -61 267 -151l-84 -48c-36 67 -100 109 -183 109c-121 0 -212 -97 -212 -216c0 -120 88 -216 212 -216c106 0 175 66 194 159h-209v90h312v-38c0 -163 -116 -301 -296 -301zM191 652l119 163h69
l119 -163h-84l-70 98l-68 -98h-85z" />
    <glyph glyph-name="gcircumflex.smcp" unicode="&#xf62c;" horiz-adv-x="681" 
d="M347 -8c-181 0 -309 140 -309 306c0 171 132 306 308 306c120 0 216 -61 267 -151l-84 -48c-36 67 -100 109 -183 109c-121 0 -212 -97 -212 -216c0 -120 88 -216 212 -216c106 0 175 66 194 159h-209v90h312v-38c0 -163 -116 -301 -296 -301zM191 652l119 163h69
l119 -163h-84l-70 98l-68 -98h-85z" />
    <glyph glyph-name="gcommaaccent" unicode="&#x123;" horiz-adv-x="714" 
d="M339 -12c-163 0 -298 130 -298 304c0 175 132 305 298 305c82 0 168 -41 215 -111v99h95v-574c0 -181 -122 -296 -300 -296c-142 0 -230 59 -284 155l84 50c43 -71 91 -119 201 -119c126 0 204 85 204 207v91c-47 -70 -134 -111 -215 -111zM348 76c121 0 213 96 213 217
c0 119 -92 217 -213 217c-118 0 -211 -97 -211 -217c0 -121 93 -217 211 -217zM367 652h-63l40 204h86z" />
    <glyph glyph-name="gcommaaccent.alt" unicode="&#xe911;" horiz-adv-x="558" 
d="M275 -259c-174 0 -234 59 -234 132c0 44 23 73 55 91c-40 18 -59 50 -59 94c0 51 35 85 86 99c-44 34 -71 88 -71 151c0 113 89 203 201 203c76 0 138 -39 170 -99c9 59 41 84 99 84h12v-105h-14c-42 0 -64 -6 -64 -83c0 -113 -84 -203 -196 -203h-72
c-50 0 -71 -18 -71 -39c0 -22 18 -37 67 -37h157c117 0 184 -48 184 -132c0 -91 -84 -156 -250 -156zM252 190c65 0 117 53 117 118s-52 118 -117 118c-62 0 -114 -53 -114 -118c0 -64 52 -118 114 -118zM205 -53c-52 -2 -80 -26 -80 -59c0 -34 24 -62 130 -62h43
c103 0 141 34 141 67c0 36 -30 54 -102 54h-132zM289 560h-63l40 204h86z" />
    <glyph glyph-name="gcommaaccent.smcp" unicode="&#xe240;" horiz-adv-x="681" 
d="M347 -8c-181 0 -309 140 -309 306c0 171 132 306 308 306c120 0 216 -61 267 -151l-84 -48c-36 67 -100 109 -183 109c-121 0 -212 -97 -212 -216c0 -120 88 -216 212 -216c106 0 175 66 194 159h-209v90h312v-38c0 -163 -116 -301 -296 -301zM326 -265h-63l40 204h86z
" />
    <glyph glyph-name="gcommaaccent.smcp" unicode="&#xf64c;" horiz-adv-x="681" 
d="M347 -8c-181 0 -309 140 -309 306c0 171 132 306 308 306c120 0 216 -61 267 -151l-84 -48c-36 67 -100 109 -183 109c-121 0 -212 -97 -212 -216c0 -120 88 -216 212 -216c106 0 175 66 194 159h-209v90h312v-38c0 -163 -116 -301 -296 -301zM326 -265h-63l40 204h86z
" />
    <glyph glyph-name="gdotaccent" unicode="&#x121;" horiz-adv-x="714" 
d="M339 -12c-163 0 -298 130 -298 304c0 175 132 305 298 305c82 0 168 -41 215 -111v99h95v-574c0 -181 -122 -296 -300 -296c-142 0 -230 59 -284 155l84 50c43 -71 91 -119 201 -119c126 0 204 85 204 207v91c-47 -70 -134 -111 -215 -111zM348 76c121 0 213 96 213 217
c0 119 -92 217 -213 217c-118 0 -211 -97 -211 -217c0 -121 93 -217 211 -217zM275 716c0 38 26 64 65 64c42 0 66 -26 66 -64c0 -39 -24 -65 -66 -65c-41 0 -65 26 -65 65z" />
    <glyph glyph-name="gdotaccent.alt" unicode="&#xe90f;" horiz-adv-x="558" 
d="M275 -259c-174 0 -234 59 -234 132c0 44 23 73 55 91c-40 18 -59 50 -59 94c0 51 35 85 86 99c-44 34 -71 88 -71 151c0 113 89 203 201 203c76 0 138 -39 170 -99c9 59 41 84 99 84h12v-105h-14c-42 0 -64 -6 -64 -83c0 -113 -84 -203 -196 -203h-72
c-50 0 -71 -18 -71 -39c0 -22 18 -37 67 -37h157c117 0 184 -48 184 -132c0 -91 -84 -156 -250 -156zM252 190c65 0 117 53 117 118s-52 118 -117 118c-62 0 -114 -53 -114 -118c0 -64 52 -118 114 -118zM337 -53h-124c-57 0 -88 -25 -88 -59s24 -62 130 -62h43
c103 0 141 34 141 67c0 36 -30 54 -102 54zM193 631c0 38 26 64 65 64c42 0 66 -26 66 -64c0 -39 -24 -65 -66 -65c-41 0 -65 26 -65 65z" />
    <glyph glyph-name="gdotaccent.smcp" unicode="&#xe24f;" horiz-adv-x="681" 
d="M347 -8c-181 0 -309 140 -309 306c0 171 132 306 308 306c120 0 216 -61 267 -151l-84 -48c-36 67 -100 109 -183 109c-121 0 -212 -97 -212 -216c0 -120 88 -216 212 -216c106 0 175 66 194 159h-209v90h312v-38c0 -163 -116 -301 -296 -301zM282 727c0 38 26 64 65 64
c42 0 66 -26 66 -64c0 -39 -24 -65 -66 -65c-41 0 -65 26 -65 65z" />
    <glyph glyph-name="gdotaccent.smcp" unicode="&#xf62d;" horiz-adv-x="681" 
d="M347 -8c-181 0 -309 140 -309 306c0 171 132 306 308 306c120 0 216 -61 267 -151l-84 -48c-36 67 -100 109 -183 109c-121 0 -212 -97 -212 -216c0 -120 88 -216 212 -216c106 0 175 66 194 159h-209v90h312v-38c0 -163 -116 -301 -296 -301zM282 727c0 38 26 64 65 64
c42 0 66 -26 66 -64c0 -39 -24 -65 -66 -65c-41 0 -65 26 -65 65z" />
    <glyph glyph-name="germandbls" unicode="&#xdf;" horiz-adv-x="620" 
d="M-68 -268v89c106 0 132 39 132 140v658c-2 140 89 239 239 239c139 0 237 -96 237 -227c0 -82 -43 -148 -115 -181c90 -32 153 -108 153 -211c0 -143 -98 -249 -250 -249c-43 0 -80 7 -106 22l1 89c25 -15 64 -23 105 -23c84 0 153 70 153 161c0 87 -71 160 -181 160h-23
v88h23c80 0 145 61 145 146c0 78 -58 144 -143 144c-83 0 -147 -55 -147 -148v-667c0 -164 -53 -230 -207 -230h-16z" />
    <glyph glyph-name="greater" unicode="&#x3e;" 
d="M46 184v86l270 95l-270 94v85l370 -138v-82z" />
    <glyph glyph-name="greaterequal" unicode="&#x2265;" 
d="M45 267v85l268 96l-268 93v85l370 -137v-83zM45 145v82h370v-82h-370z" />
    <glyph glyph-name="guillemotleft" unicode="&#xab;" horiz-adv-x="466" 
d="M227 110l-169 114v56l169 115v-68l-111 -75l111 -75v-67zM408 110l-168 114v56l168 115v-68l-110 -75l110 -75v-67z" />
    <glyph glyph-name="guillemotleft.cap" unicode="&#xe453;" horiz-adv-x="466" 
d="M227 223l-169 115v56l169 114v-68l-111 -75l111 -75v-67zM408 223l-168 115v56l168 114v-68l-110 -75l110 -75v-67z" />
    <glyph glyph-name="guillemotright" unicode="&#xbb;" horiz-adv-x="466" 
d="M58 110v68l111 74l-111 76v68l169 -116v-55zM240 110v68l111 74l-111 76v68l168 -116v-55z" />
    <glyph glyph-name="guillemotright.cap" unicode="&#xe454;" horiz-adv-x="466" 
d="M58 223v67l110 75l-110 75v68l169 -114v-56zM240 223v67l110 75l-110 75v68l168 -114v-56z" />
    <glyph glyph-name="guilsinglleft" unicode="&#x2039;" horiz-adv-x="284" 
d="M222 103l-159 119v61l159 119v-75l-102 -75l102 -74v-75z" />
    <glyph glyph-name="guilsinglleft.cap" unicode="&#xe451;" horiz-adv-x="284" 
d="M222 216l-159 119v61l159 119v-75l-102 -75l102 -74v-75z" />
    <glyph glyph-name="guilsinglright" unicode="&#x203a;" horiz-adv-x="284" 
d="M63 104v74l103 74l-103 76v75l159 -119v-61z" />
    <glyph glyph-name="guilsinglright.cap" unicode="&#xe452;" horiz-adv-x="284" 
d="M63 217v74l103 74l-103 76v74l159 -119v-60z" />
    <glyph glyph-name="h" unicode="h" horiz-adv-x="669" 
d="M65 0v740h94v-243c41 60 111 100 198 100c153 0 250 -100 250 -265v-332h-97v327c0 112 -59 185 -171 185c-102 0 -178 -79 -178 -188v-324h-96z" />
    <glyph glyph-name="h.smcp" unicode="&#xe208;" horiz-adv-x="562" 
d="M410 0v253h-257v-253h-96v596h96v-250h257v250h96v-596h-96z" />
    <glyph glyph-name="h.smcp" unicode="&#xf768;" horiz-adv-x="562" 
d="M410 0v253h-257v-253h-96v596h96v-250h257v250h96v-596h-96z" />
    <glyph glyph-name="hbar" unicode="&#x127;" horiz-adv-x="680" 
d="M8 624v65h68v51h94v-51h86v-65h-86v-127c41 60 111 100 198 100c153 0 250 -100 250 -265v-332h-97v327c0 112 -59 185 -171 185c-102 0 -178 -79 -178 -188v-324h-96v624h-68z" />
    <glyph glyph-name="hbar.smcp" unicode="&#xe257;" horiz-adv-x="599" 
d="M428 0v246h-257v-246h-95v423h-56v93h56v80h95v-80h257v80h96v-80h55v-93h-55v-423h-96zM171 423v-85h257v85h-257z" />
    <glyph glyph-name="hbar.smcp" unicode="&#xf62e;" horiz-adv-x="599" 
d="M428 0v246h-257v-246h-95v423h-56v93h56v80h95v-80h257v80h96v-80h55v-93h-55v-423h-96zM171 423v-85h257v85h-257z" />
    <glyph glyph-name="hcircumflex" unicode="&#x125;" horiz-adv-x="669" 
d="M65 0v740h94v-243c41 60 111 100 198 100c153 0 250 -100 250 -265v-332h-97v327c0 112 -59 185 -171 185c-102 0 -178 -79 -178 -188v-324h-96zM-46 788l119 163h69l119 -163h-84l-70 98l-68 -98h-85z" />
    <glyph glyph-name="hcircumflex.smcp" unicode="&#xe253;" horiz-adv-x="562" 
d="M410 0v253h-257v-253h-96v596h96v-250h257v250h96v-596h-96zM126 652l119 163h69l119 -163h-84l-70 98l-68 -98h-85z" />
    <glyph glyph-name="hcircumflex.smcp" unicode="&#xf62f;" horiz-adv-x="562" 
d="M410 0v253h-257v-253h-96v596h96v-250h257v250h96v-596h-96zM126 652l119 163h69l119 -163h-84l-70 98l-68 -98h-85z" />
    <glyph glyph-name="heart" unicode="&#x2665;" horiz-adv-x="920" 
d="M89 550c0 103 80 190 183 190c102 0 174 -70 185 -161c12 91 82 161 185 161s189 -87 189 -190c0 -115 -66 -225 -232 -410l-142 -157l-141 157c-166 185 -227 295 -227 410z" />
    <glyph glyph-name="house" unicode="&#x2302;" horiz-adv-x="874" 
d="M774 0h-674v427l337 323l337 -323v-427z" />
    <glyph glyph-name="hyphen" unicode="-" 
d="M46 211v83h370v-83h-370z" />
    <glyph glyph-name="hyphen.cap" unicode="&#xe482;" 
d="M46 262v83h370v-83h-370z" />
    <glyph glyph-name="i" unicode="i" horiz-adv-x="224" 
d="M64 0v585h96v-585h-96zM44 728c0 40 27 67 68 67c44 0 69 -27 69 -67c0 -41 -25 -68 -69 -68c-43 0 -68 27 -68 68z" />
    <glyph glyph-name="i.smcp" unicode="&#xe209;" horiz-adv-x="221" 
d="M62 0v596h97v-596h-97z" />
    <glyph glyph-name="i.smcp" unicode="&#xf769;" horiz-adv-x="221" 
d="M62 0v596h97v-596h-97z" />
    <glyph glyph-name="iacute" unicode="&#xed;" horiz-adv-x="224" 
d="M75 642l116 163h105l-146 -163h-75zM64 0v585h96v-585h-96z" />
    <glyph glyph-name="iacute.smcp" unicode="&#xe258;" horiz-adv-x="221" 
d="M69 653l116 163h105l-146 -163h-75zM62 0v596h97v-596h-97z" />
    <glyph glyph-name="iacute.smcp" unicode="&#xf7ed;" horiz-adv-x="221" 
d="M69 653l116 163h105l-146 -163h-75zM62 0v596h97v-596h-97z" />
    <glyph glyph-name="ibreve" unicode="&#x12d;" horiz-adv-x="224" 
d="M64 0v585h96v-585h-96zM113 638c-110 0 -161 73 -161 164h70c0 -63 32 -102 91 -103c58 1 91 40 91 103h71c0 -91 -62 -164 -162 -164z" />
    <glyph glyph-name="ibreve.smcp" unicode="&#xe25f;" horiz-adv-x="221" 
d="M62 0v596h97v-596h-97zM110 646c-110 0 -161 73 -161 164h70c0 -63 32 -102 91 -103c58 1 91 40 91 103h71c0 -91 -62 -164 -162 -164z" />
    <glyph glyph-name="ibreve.smcp" unicode="&#xf630;" horiz-adv-x="221" 
d="M62 0v596h97v-596h-97zM110 646c-110 0 -161 73 -161 164h70c0 -63 32 -102 91 -103c58 1 91 40 91 103h71c0 -91 -62 -164 -162 -164z" />
    <glyph glyph-name="icircumflex" unicode="&#xee;" horiz-adv-x="224" 
d="M64 0v585h96v-585h-96zM-41 636l119 163h69l119 -163h-84l-70 98l-68 -98h-85z" />
    <glyph glyph-name="icircumflex.smcp" unicode="&#xe25a;" horiz-adv-x="221" 
d="M62 0v596h97v-596h-97zM-40 648l119 163h69l119 -163h-84l-70 98l-68 -98h-85z" />
    <glyph glyph-name="icircumflex.smcp" unicode="&#xf7ee;" horiz-adv-x="221" 
d="M62 0v596h97v-596h-97zM-40 648l119 163h69l119 -163h-84l-70 98l-68 -98h-85z" />
    <glyph glyph-name="idieresis" unicode="&#xef;" horiz-adv-x="224" 
d="M177 652v162h96v-162h-96zM-48 652v162h96v-162h-96zM64 0v585h96v-585h-96z" />
    <glyph glyph-name="idieresis.smcp" unicode="&#xe25b;" horiz-adv-x="221" 
d="M174 657v138h95v-138h-95zM-39 657v138h95v-138h-95zM62 0v596h97v-596h-97z" />
    <glyph glyph-name="idieresis.smcp" unicode="&#xf7ef;" horiz-adv-x="221" 
d="M174 657v138h95v-138h-95zM-39 657v138h95v-138h-95zM62 0v596h97v-596h-97z" />
    <glyph glyph-name="idotaccent" unicode="&#xe785;" horiz-adv-x="224" 
d="M64 0v585h96v-585h-96zM44 728c0 40 27 67 68 67c44 0 69 -27 69 -67c0 -41 -25 -68 -69 -68c-43 0 -68 27 -68 68z" />
    <glyph glyph-name="idotaccent.smcp" unicode="&#xe262;" horiz-adv-x="221" 
d="M62 0v596h97v-596h-97zM45 723c0 38 26 64 65 64c42 0 66 -26 66 -64c0 -39 -24 -65 -66 -65c-41 0 -65 26 -65 65z" />
    <glyph glyph-name="idotaccent.smcp" unicode="&#xf666;" horiz-adv-x="221" 
d="M62 0v596h97v-596h-97zM45 723c0 38 26 64 65 64c42 0 66 -26 66 -64c0 -39 -24 -65 -66 -65c-41 0 -65 26 -65 65z" />
    <glyph glyph-name="igrave" unicode="&#xec;" horiz-adv-x="224" 
d="M64 0v585h96v-585h-96zM79 642l-146 163h104l117 -163h-75z" />
    <glyph glyph-name="igrave.smcp" unicode="&#xe259;" horiz-adv-x="221" 
d="M75 653l-146 163h104l117 -163h-75zM62 0v596h97v-596h-97z" />
    <glyph glyph-name="igrave.smcp" unicode="&#xf7ec;" horiz-adv-x="221" 
d="M75 653l-146 163h104l117 -163h-75zM62 0v596h97v-596h-97z" />
    <glyph glyph-name="ij" unicode="&#x133;" horiz-adv-x="445" 
d="M64 0v585h96v-585h-96zM44 728c0 40 27 67 68 67c44 0 69 -27 69 -67c0 -41 -25 -68 -69 -68c-43 0 -68 27 -68 68zM381 585v-610c0 -170 -52 -224 -217 -224h-100v91h85c115 0 136 19 136 134v609h96zM265 728c0 40 27 67 68 67c44 0 69 -27 69 -67
c0 -41 -25 -68 -69 -68c-43 0 -68 27 -68 68z" />
    <glyph glyph-name="ij.smcp" unicode="&#xe327;" horiz-adv-x="457" 
d="M215 0v88h17c61 1 76 28 76 87v421h96v-418c0 -126 -42 -178 -170 -178h-19zM53 0v596h96v-596h-96z" />
    <glyph glyph-name="ij.smcp" unicode="&#xf631;" horiz-adv-x="457" 
d="M215 0v88h17c61 1 76 28 76 87v421h96v-418c0 -126 -42 -178 -170 -178h-19zM53 0v596h96v-596h-96z" />
    <glyph glyph-name="imacron" unicode="&#x12b;" horiz-adv-x="224" 
d="M64 0v585h96v-585h-96zM-20 642v70h264v-70h-264z" />
    <glyph glyph-name="imacron.smcp" unicode="&#xe25e;" horiz-adv-x="221" 
d="M-23 653v70h264v-70h-264zM62 0v596h97v-596h-97z" />
    <glyph glyph-name="imacron.smcp" unicode="&#xf64d;" horiz-adv-x="221" 
d="M-23 653v70h264v-70h-264zM62 0v596h97v-596h-97z" />
    <glyph glyph-name="increment" unicode="&#x2206;" horiz-adv-x="897" 
d="M877 0h-857l429 742zM448 556l-265 -463h532z" />
    <glyph glyph-name="infinity" unicode="&#x221e;" horiz-adv-x="921" 
d="M252 215c-93 0 -170 76 -170 169c0 94 77 170 170 170c78 0 147 -54 210 -112c63 59 131 112 208 112c94 0 170 -76 170 -170c0 -93 -76 -169 -170 -169c-77 0 -144 54 -208 112c-63 -58 -132 -112 -210 -112zM253 298c48 0 97 39 149 87c-51 46 -100 84 -149 84
c-46 0 -86 -40 -86 -85c0 -46 40 -86 86 -86zM670 299c46 0 85 40 85 86c0 45 -39 85 -85 85c-48 0 -96 -38 -148 -84c52 -48 101 -87 148 -87z" />
    <glyph glyph-name="integral" unicode="&#x222b;" horiz-adv-x="355" 
d="M5 -204v88c98 0 111 17 111 111v536c0 153 46 199 199 199h8v-88c-98 0 -111 -17 -111 -112v-534c0 -154 -46 -200 -199 -200h-8z" />
    <glyph glyph-name="interrobangdown.cap" unicode="&#xe99b;" horiz-adv-x="533" 
d="M275 -10c-132 0 -227 77 -227 193c0 189 192 137 192 348v10h72c3 -106 6 -290 6 -424v-39c47 12 77 46 96 88l88 -35c-31 -80 -112 -141 -227 -141zM208 662c0 43 29 72 72 72c47 0 74 -29 74 -72s-27 -72 -74 -72c-45 0 -72 29 -72 72zM146 182c0 -50 32 -90 85 -104
v39c0 66 3 143 7 216c-42 -51 -92 -72 -92 -151z" />
    <glyph glyph-name="invertedbreve" unicode="&#xe411;" horiz-adv-x="489" 
d="M82 556c0 91 51 164 161 164c100 0 162 -73 162 -164h-71c0 63 -33 102 -91 103c-59 -1 -91 -40 -91 -103h-70z" />
    <glyph glyph-name="iogonek" unicode="&#x12f;" horiz-adv-x="224" 
d="M116 -223c-80 0 -123 50 -124 108c-1 47 27 87 72 123v577h96v-585h1c-62 -45 -89 -81 -89 -110c0 -26 19 -43 46 -43c26 0 44 13 61 30l55 -52c-31 -27 -72 -48 -118 -48zM44 728c0 40 27 67 68 67c44 0 69 -27 69 -67c0 -41 -25 -68 -69 -68c-43 0 -68 27 -68 68z" />
    <glyph glyph-name="iogonek.smcp" unicode="&#xe264;" horiz-adv-x="221" 
d="M114 -223c-80 0 -123 50 -124 108c-1 47 27 87 72 123v588h97v-596c-62 -45 -89 -81 -89 -110c0 -26 19 -43 46 -43c26 0 44 13 61 30l55 -52c-31 -27 -72 -48 -118 -48z" />
    <glyph glyph-name="iogonek.smcp" unicode="&#xf64e;" horiz-adv-x="221" 
d="M114 -223c-80 0 -123 50 -124 108c-1 47 27 87 72 123v588h97v-596c-62 -45 -89 -81 -89 -110c0 -26 19 -43 46 -43c26 0 44 13 61 30l55 -52c-31 -27 -72 -48 -118 -48z" />
    <glyph glyph-name="itilde" unicode="&#x129;" horiz-adv-x="224" 
d="M64 0v585h96v-585h-96zM-58 652c0 74 39 123 100 123c33 0 57 -13 80 -27c21 -13 40 -27 61 -27c23 0 36 16 36 50h66c0 -75 -35 -123 -101 -123c-38 0 -66 18 -91 32c-18 11 -32 21 -51 21c-22 0 -35 -15 -35 -49h-65z" />
    <glyph glyph-name="itilde.smcp" unicode="&#xe25c;" horiz-adv-x="221" 
d="M62 0v596h97v-596h-97zM-57 653c0 74 39 123 100 123c33 0 57 -13 80 -27c21 -13 40 -27 61 -27c23 0 36 16 36 50h66c0 -75 -35 -123 -101 -123c-38 0 -66 18 -91 32c-18 11 -32 21 -51 21c-22 0 -35 -15 -35 -49h-65z" />
    <glyph glyph-name="itilde.smcp" unicode="&#xf632;" horiz-adv-x="221" 
d="M62 0v596h97v-596h-97zM-57 653c0 74 39 123 100 123c33 0 57 -13 80 -27c21 -13 40 -27 61 -27c23 0 36 16 36 50h66c0 -75 -35 -123 -101 -123c-38 0 -66 18 -91 32c-18 11 -32 21 -51 21c-22 0 -35 -15 -35 -49h-65z" />
    <glyph glyph-name="j" unicode="j" horiz-adv-x="224" 
d="M-75 -268v91c116 0 139 17 139 136v626h96v-627c0 -173 -53 -226 -220 -226h-15zM44 728c0 40 27 67 68 67c44 0 69 -27 69 -67c0 -41 -25 -68 -69 -68c-43 0 -68 27 -68 68z" />
    <glyph glyph-name="j.smcp" unicode="&#xe20a;" horiz-adv-x="416" 
d="M193 -8c-86 0 -149 45 -172 111l91 39c12 -36 39 -62 80 -62c47 0 74 35 74 87v429h96v-424c0 -113 -60 -180 -169 -180z" />
    <glyph glyph-name="j.smcp" unicode="&#xf76a;" horiz-adv-x="416" 
d="M193 -8c-86 0 -149 45 -172 111l91 39c12 -36 39 -62 80 -62c47 0 74 35 74 87v429h96v-424c0 -113 -60 -180 -169 -180z" />
    <glyph glyph-name="jcircumflex" unicode="&#x135;" horiz-adv-x="225" 
d="M-75 -268v91c116 0 139 17 139 136v626h96v-627c0 -176 -51 -226 -220 -226h-15zM-41 642l119 163h69l119 -163h-84l-70 98l-68 -98h-85z" />
    <glyph glyph-name="jcircumflex.smcp" unicode="&#xe265;" horiz-adv-x="416" 
d="M193 -8c-86 0 -149 45 -172 111l91 39c12 -36 39 -62 80 -62c47 0 74 35 74 87v429h96v-424c0 -113 -60 -180 -169 -180zM157 647l119 163h69l119 -163h-84l-70 98l-68 -98h-85z" />
    <glyph glyph-name="jcircumflex.smcp" unicode="&#xf633;" horiz-adv-x="416" 
d="M193 -8c-86 0 -149 45 -172 111l91 39c12 -36 39 -62 80 -62c47 0 74 35 74 87v429h96v-424c0 -113 -60 -180 -169 -180zM157 647l119 163h69l119 -163h-84l-70 98l-68 -98h-85z" />
    <glyph glyph-name="k" unicode="k" horiz-adv-x="606" 
d="M65 0v740h94v-472l301 317h118l-236 -248l242 -337h-109l-201 280l-115 -120v-160h-94z" />
    <glyph glyph-name="k.smcp" unicode="&#xe20b;" horiz-adv-x="541" 
d="M411 0l-173 292l-85 -98v-194h-95v596h95v-282l238 282h116l-200 -237l212 -359h-108z" />
    <glyph glyph-name="k.smcp" unicode="&#xf76b;" horiz-adv-x="541" 
d="M411 0l-173 292l-85 -98v-194h-95v596h95v-282l238 282h116l-200 -237l212 -359h-108z" />
    <glyph glyph-name="kcommaaccent" unicode="&#x137;" horiz-adv-x="606" 
d="M65 0v740h94v-472l301 317h118l-236 -248l242 -337h-109l-201 280l-115 -120v-160h-94zM243 -254h-63l40 204h86z" />
    <glyph glyph-name="kcommaaccent.smcp" unicode="&#xe268;" horiz-adv-x="541" 
d="M411 0l-173 292l-85 -98v-194h-95v596h95v-282l238 282h116l-200 -237l212 -359h-108zM260 -252h-63l40 204h86z" />
    <glyph glyph-name="kcommaaccent.smcp" unicode="&#xf64f;" horiz-adv-x="541" 
d="M411 0l-173 292l-85 -98v-194h-95v596h95v-282l238 282h116l-200 -237l212 -359h-108zM260 -252h-63l40 204h86z" />
    <glyph glyph-name="kgreenlandic" unicode="&#x138;" horiz-adv-x="606" 
d="M474 0l-200 279l-115 -119v-160h-94v585h94v-317l300 317h118l-235 -248l242 -337h-110z" />
    <glyph glyph-name="l" unicode="l" horiz-adv-x="226" 
d="M65 0v740h96v-740h-96z" />
    <glyph glyph-name="l.smcp" unicode="&#xe20c;" horiz-adv-x="429" 
d="M57 0v596h96v-504h236v-92h-332z" />
    <glyph glyph-name="l.smcp" unicode="&#xf76c;" horiz-adv-x="429" 
d="M57 0v596h96v-504h236v-92h-332z" />
    <glyph glyph-name="lacute" unicode="&#x13a;" horiz-adv-x="226" 
d="M77 807l116 163h105l-146 -163h-75zM65 0v740h96v-740h-96z" />
    <glyph glyph-name="lacute.smcp" unicode="&#xe26b;" horiz-adv-x="429" 
d="M57 0v596h96v-504h236v-92h-332zM64 653l116 163h105l-146 -163h-75z" />
    <glyph glyph-name="lacute.smcp" unicode="&#xf650;" horiz-adv-x="429" 
d="M57 0v596h96v-504h236v-92h-332zM64 653l116 163h105l-146 -163h-75z" />
    <glyph glyph-name="lcaron" unicode="&#x13e;" horiz-adv-x="270" 
d="M192 564l36 176h82l-56 -176h-62zM60 0v740h96v-740h-96z" />
    <glyph glyph-name="lcaron.smcp" unicode="&#xe26c;" horiz-adv-x="429" 
d="M57 0v596h96v-504h236v-92h-332zM271 420l36 176h82l-56 -176h-62z" />
    <glyph glyph-name="lcaron.smcp" unicode="&#xf651;" horiz-adv-x="429" 
d="M57 0v596h96v-504h236v-92h-332zM271 420l36 176h82l-56 -176h-62z" />
    <glyph glyph-name="lcommaaccent" unicode="&#x13c;" horiz-adv-x="226" 
d="M92 -254h-63l40 204h86zM65 0v740h96v-740h-96z" />
    <glyph glyph-name="lcommaaccent.smcp" unicode="&#xe26d;" horiz-adv-x="429" 
d="M57 0v596h96v-504h236v-92h-332zM207 -256h-63l40 204h86z" />
    <glyph glyph-name="lcommaaccent.smcp" unicode="&#xf652;" horiz-adv-x="429" 
d="M57 0v596h96v-504h236v-92h-332zM207 -256h-63l40 204h86z" />
    <glyph glyph-name="ldot" unicode="&#x140;" horiz-adv-x="366" 
d="M65 0v740h96v-740h-96zM230 294c0 38 26 64 65 64c42 0 66 -26 66 -64c0 -39 -24 -65 -66 -65c-41 0 -65 26 -65 65z" />
    <glyph glyph-name="ldot.smcp" unicode="&#xe271;" horiz-adv-x="430" 
d="M57 0v596h96v-504h236v-92h-332zM275 319c0 38 26 64 65 64c42 0 66 -26 66 -64c0 -39 -24 -65 -66 -65c-41 0 -65 26 -65 65z" />
    <glyph glyph-name="ldot.smcp" unicode="&#xf634;" horiz-adv-x="430" 
d="M57 0v596h96v-504h236v-92h-332zM275 319c0 38 26 64 65 64c42 0 66 -26 66 -64c0 -39 -24 -65 -66 -65c-41 0 -65 26 -65 65z" />
    <glyph glyph-name="less" unicode="&#x3c;" 
d="M416 184l-370 140v82l370 138v-85l-270 -94l270 -95v-86z" />
    <glyph glyph-name="lessequal" unicode="&#x2264;" 
d="M415 267l-370 139v83l370 137v-85l-269 -93l269 -96v-85zM45 145v82h370v-82h-370z" />
    <glyph glyph-name="lira" unicode="&#x20a4;" horiz-adv-x="694" 
d="M78 338v80h103c-15 34 -25 73 -25 118c0 121 88 204 218 204c108 0 178 -46 216 -118l-86 -46c-25 52 -65 80 -130 80c-75 0 -124 -50 -124 -119c0 -44 11 -83 27 -119h203v-80h-166c22 -48 42 -98 42 -159c0 -23 -3 -44 -10 -64c35 -26 70 -47 112 -47
c63 0 91 30 91 112v30h98v-42c0 -116 -51 -178 -171 -178c-70 0 -120 30 -163 63c-32 -39 -79 -64 -134 -64c-89 0 -133 42 -133 106c0 61 48 106 120 107c47 0 86 -20 121 -43c0 5 1 11 1 17c0 61 -32 109 -64 162h-146zM179 55c34 0 63 15 82 39c-29 23 -58 40 -90 40
s-47 -16 -47 -39c0 -24 21 -40 55 -40z" />
    <glyph glyph-name="logicalnot" unicode="&#xac;" horiz-adv-x="603" 
d="M470 183v244h-441v92h538v-336h-97z" />
    <glyph glyph-name="lowline" unicode="&#xe511;" horiz-adv-x="515" 
d="M46 -182v82h424v-82h-424z" />
    <glyph glyph-name="lozenge" unicode="&#x25ca;" horiz-adv-x="843" 
d="M415 -16l-382 382l380 380l382 -382zM157 367l259 -259l255 256l-259 258z" />
    <glyph glyph-name="lslash" unicode="&#x142;" horiz-adv-x="329" 
d="M8 365v71l107 34v384h97v-353l110 36v-71l-110 -36v-430h-97v399z" />
    <glyph glyph-name="lslash.smcp" unicode="&#xe272;" horiz-adv-x="455" 
d="M16 216v76l67 26v278h96v-241l159 61v-76l-159 -61v-187h236v-92h-332v242z" />
    <glyph glyph-name="lslash.smcp" unicode="&#xf6f9;" horiz-adv-x="455" 
d="M16 216v76l67 26v278h96v-241l159 61v-76l-159 -61v-187h236v-92h-332v242z" />
    <glyph glyph-name="m" unicode="m" horiz-adv-x="1080" 
d="M64 0v585h94v-82c38 58 104 94 187 94c104 0 174 -47 207 -119c39 71 116 119 211 119c165 0 254 -101 254 -252v-345h-96v346c0 98 -62 167 -166 167c-94 0 -168 -65 -168 -176v-337h-96v355c0 95 -61 158 -160 158s-172 -68 -172 -184v-329h-95z" />
    <glyph glyph-name="m.smcp" unicode="&#xe20d;" horiz-adv-x="698" 
d="M57 0v596h95l198 -275l200 275h91v-596h-95v437l-197 -268l-197 272v-441h-95z" />
    <glyph glyph-name="m.smcp" unicode="&#xf76d;" horiz-adv-x="698" 
d="M57 0v596h95l198 -275l200 275h91v-596h-95v437l-197 -268l-197 272v-441h-95z" />
    <glyph glyph-name="mediumblackcircle" unicode="&#x26ab;" horiz-adv-x="698" 
d="M349 -10c-144 0 -259 116 -259 260s115 260 259 260s259 -116 259 -260s-115 -260 -259 -260z" />
    <glyph glyph-name="mediumwhitecircle" unicode="&#x26aa;" horiz-adv-x="698" 
d="M349 -10c-144 0 -259 115 -259 260c0 146 115 260 259 260s260 -114 260 -260c0 -145 -116 -260 -260 -260zM349 79c92 0 165 77 165 171s-73 171 -165 171s-164 -77 -164 -171s72 -171 164 -171z" />
    <glyph glyph-name="minus" unicode="&#x2212;" 
d="M46 324v82h370v-82h-370z" />
    <glyph glyph-name="minus.inf" unicode="&#xe57c;" horiz-adv-x="268" 
d="M27 177v69h213v-69h-213z" />
    <glyph glyph-name="minute" unicode="&#x2032;" horiz-adv-x="201" 
d="M98 526h-61l39 204h89z" />
    <glyph glyph-name="mu" unicode="&#xb5;" horiz-adv-x="571" 
d="M54 -230v730h97v-268c0 -98 52 -158 132 -158c79 0 138 60 138 150v276h96v-500h-95v67c-33 -47 -86 -77 -153 -77c-48 0 -89 17 -119 43v-263h-96z" />
    <glyph glyph-name="mu" unicode="&#x3bc;" horiz-adv-x="571" 
d="M54 -230v730h97v-268c0 -98 52 -158 132 -158c79 0 138 60 138 150v276h96v-500h-95v67c-33 -47 -86 -77 -153 -77c-48 0 -89 17 -119 43v-263h-96z" />
    <glyph glyph-name="multiply" unicode="&#xd7;" 
d="M115 190l-58 58l116 116l-116 117l57 57l116 -117l117 117l58 -58l-117 -117l116 -115l-57 -57l-116 115z" />
    <glyph glyph-name="n" unicode="n" horiz-adv-x="667" 
d="M64 0v585h94v-90c40 61 110 102 198 102c153 0 249 -100 249 -265v-332h-96v328c0 111 -59 184 -171 184c-102 0 -179 -79 -179 -188v-324h-95z" />
    <glyph glyph-name="n.smcp" unicode="&#xe20e;" horiz-adv-x="609" 
d="M57 0v596h105l295 -437v437h95v-596h-98l-302 445v-445h-95z" />
    <glyph glyph-name="n.smcp" unicode="&#xf76e;" horiz-adv-x="609" 
d="M57 0v596h105l295 -437v437h95v-596h-98l-302 445v-445h-95z" />
    <glyph glyph-name="nacute" unicode="&#x144;" horiz-adv-x="667" 
d="M64 0v585h94v-90c40 61 110 102 198 102c153 0 249 -100 249 -265v-332h-96v328c0 111 -59 184 -171 184c-102 0 -179 -79 -179 -188v-324h-95zM310 652l116 163h105l-146 -163h-75z" />
    <glyph glyph-name="nacute.smcp" unicode="&#xe276;" horiz-adv-x="609" 
d="M57 0v596h105l295 -437v437h95v-596h-98l-302 445v-445h-95zM270 647l116 163h105l-146 -163h-75z" />
    <glyph glyph-name="nacute.smcp" unicode="&#xf653;" horiz-adv-x="609" 
d="M57 0v596h105l295 -437v437h95v-596h-98l-302 445v-445h-95zM270 647l116 163h105l-146 -163h-75z" />
    <glyph glyph-name="ncaron" unicode="&#x148;" horiz-adv-x="667" 
d="M64 0v585h94v-90c40 61 110 102 198 102c153 0 249 -100 249 -265v-332h-96v328c0 111 -59 184 -171 184c-102 0 -179 -79 -179 -188v-324h-95zM320 652l-119 163h85l68 -98l70 98h84l-119 -163h-69z" />
    <glyph glyph-name="ncaron.smcp" unicode="&#xe27a;" horiz-adv-x="609" 
d="M57 0v596h105l295 -437v437h95v-596h-98l-302 445v-445h-95zM273 645l-119 163h85l68 -98l70 98h84l-119 -163h-69z" />
    <glyph glyph-name="ncaron.smcp" unicode="&#xf654;" horiz-adv-x="609" 
d="M57 0v596h105l295 -437v437h95v-596h-98l-302 445v-445h-95zM273 645l-119 163h85l68 -98l70 98h84l-119 -163h-69z" />
    <glyph glyph-name="ncommaaccent" unicode="&#x146;" horiz-adv-x="667" 
d="M64 0v585h94v-90c40 61 110 102 198 102c153 0 249 -100 249 -265v-332h-96v328c0 111 -59 184 -171 184c-102 0 -179 -79 -179 -188v-324h-95zM316 -254h-63l40 204h86z" />
    <glyph glyph-name="ncommaaccent.smcp" unicode="&#xe27d;" horiz-adv-x="609" 
d="M57 0v596h105l295 -437v437h95v-596h-98l-302 445v-445h-95zM295 -255h-63l40 204h86z" />
    <glyph glyph-name="ncommaaccent.smcp" unicode="&#xf655;" horiz-adv-x="609" 
d="M57 0v596h105l295 -437v437h95v-596h-98l-302 445v-445h-95zM295 -255h-63l40 204h86z" />
    <glyph glyph-name="nine.LP" unicode="&#xe53e;" horiz-adv-x="591" 
d="M178 0l167 248c-21 -6 -44 -10 -67 -10c-134 0 -241 107 -241 250c0 146 113 252 258 252c148 0 258 -111 258 -251c0 -64 -21 -129 -55 -177l-205 -312h-115zM296 325c90 0 162 73 162 163c0 91 -72 165 -162 165c-89 0 -163 -75 -163 -165c0 -91 74 -163 163 -163z" />
    <glyph glyph-name="nine.LT" unicode="&#xe549;" horiz-adv-x="588" 
d="M286 0h-115l166 256c-19 -5 -39 -8 -60 -8c-131 0 -235 104 -235 246c0 141 109 246 252 246c146 0 253 -109 253 -245c0 -63 -22 -124 -54 -171zM296 334c86 0 156 72 156 159s-70 159 -156 159c-87 0 -159 -71 -159 -159c0 -87 72 -159 159 -159z" />
    <glyph glyph-name="nine.inf" unicode="&#xe57a;" horiz-adv-x="353" 
d="M93 0l86 133c-6 -1 -12 -1 -17 -1c-77 0 -141 59 -141 147c0 86 66 149 155 149c90 0 156 -66 156 -149c0 -39 -15 -81 -35 -111l-107 -168h-97zM177 204c41 0 73 34 73 75c0 40 -32 73 -73 73c-40 0 -73 -33 -73 -74s33 -74 73 -74z" />
    <glyph glyph-name="ninesixteenths" unicode="&#xf219;" horiz-adv-x="1104" 
d="M926 -6c-91 0 -156 66 -156 150c0 40 16 81 36 112l107 166h96l-86 -132c6 1 12 2 18 2c78 0 141 -61 141 -148c0 -86 -66 -150 -156 -150zM93 308l86 133c-6 -1 -12 -1 -17 -1c-77 0 -141 59 -141 147c0 86 66 149 155 149c90 0 156 -66 156 -149
c0 -39 -15 -81 -35 -111l-107 -168h-97zM98 0l527 730h112l-527 -730h-112zM507 0v78h83v222c-13 -19 -41 -31 -67 -31h-6v83h3c56 0 72 40 72 70h81v-344h80v-78h-246zM925 71c41 0 75 33 75 75c0 41 -34 73 -75 73s-73 -32 -73 -74c0 -41 32 -74 73 -74zM177 512
c41 0 73 34 73 75c0 40 -32 73 -73 73c-40 0 -73 -33 -73 -74s33 -74 73 -74z" />
    <glyph glyph-name="uni2089" unicode="&#x2089;" horiz-adv-x="353" 
d="M93 0l86 133c-6 -1 -12 -1 -17 -1c-77 0 -141 59 -141 147c0 86 66 149 155 149c90 0 156 -66 156 -149c0 -39 -15 -81 -35 -111l-107 -168h-97zM177 204c41 0 73 34 73 75c0 40 -32 73 -73 73c-40 0 -73 -33 -73 -74s33 -74 73 -74z" />
    <glyph glyph-name="notequal" unicode="&#x2260;" 
d="M356 555l-32 -68h92v-83h-131l-38 -82h169v-82h-208l-31 -67h-77l31 67h-85v82h123l38 82h-161v83h199l32 68h79z" />
    <glyph glyph-name="ntilde" unicode="&#xf1;" horiz-adv-x="667" 
d="M64 0v585h94v-90c40 61 110 102 198 102c153 0 249 -100 249 -265v-332h-96v328c0 111 -59 184 -171 184c-102 0 -179 -79 -179 -188v-324h-95zM175 652c0 74 39 123 100 123c33 0 57 -13 80 -27c21 -13 40 -27 61 -27c23 0 36 16 36 50h66c0 -75 -35 -123 -101 -123
c-38 0 -66 18 -91 32c-18 11 -32 21 -51 21c-22 0 -35 -15 -35 -49h-65z" />
    <glyph glyph-name="ntilde.smcp" unicode="&#xe279;" horiz-adv-x="609" 
d="M57 0v596h105l295 -437v437h95v-596h-98l-302 445v-445h-95zM137 653c0 74 39 123 100 123c33 0 57 -13 80 -27c21 -13 40 -27 61 -27c23 0 36 16 36 50h66c0 -75 -35 -123 -101 -123c-38 0 -66 18 -91 32c-18 11 -32 21 -51 21c-22 0 -35 -15 -35 -49h-65z" />
    <glyph glyph-name="numbersign" unicode="#" horiz-adv-x="821" 
d="M506 0v179h-195v-179h-96v179h-177v92h177v196h-177v93h177v170h96v-170h195v170h98v-170h179v-93h-179v-196h179v-92h-179v-179h-98zM311 467v-196h195v196h-195z" />
    <glyph glyph-name="numbersign.alt" unicode="&#xf463;" horiz-adv-x="821" 
d="M380 0l58 155l-190 72l-86 -227h-99l99 261l-117 44l1 99l152 -58l68 178l-220 84v98l253 -96l46 120h99l-58 -154l189 -71l86 225h98l-99 -258l116 -44v-98l-151 57l-68 -179l218 -83v-98l-252 95l-46 -122h-97zM352 491l-68 -178l188 -71l67 178z" />
    <glyph glyph-name="o" unicode="o" horiz-adv-x="691" 
d="M344 -12c-168 0 -303 134 -303 304c0 172 135 305 303 305c169 0 304 -133 304 -305c0 -170 -135 -304 -304 -304zM344 76c117 0 209 97 209 216c0 120 -92 217 -209 217c-116 0 -207 -97 -207 -217c0 -119 91 -216 207 -216z" />
    <glyph glyph-name="o.smcp" unicode="&#xe20f;" horiz-adv-x="686" 
d="M343 -8c-170 0 -305 137 -305 306s135 306 305 306c169 0 306 -137 306 -306s-136 -306 -306 -306zM343 84c118 0 208 97 208 214s-90 214 -208 214s-208 -97 -208 -214s89 -214 208 -214z" />
    <glyph glyph-name="o.smcp" unicode="&#xf76f;" horiz-adv-x="686" 
d="M343 -8c-170 0 -305 137 -305 306s135 306 305 306c169 0 306 -137 306 -306s-136 -306 -306 -306zM343 84c118 0 208 97 208 214s-90 214 -208 214s-208 -97 -208 -214s89 -214 208 -214z" />
    <glyph glyph-name="oacute" unicode="&#xf3;" horiz-adv-x="691" 
d="M302 652l116 163h105l-146 -163h-75zM344 -12c-168 0 -303 134 -303 304c0 172 135 305 303 305c169 0 304 -133 304 -305c0 -170 -135 -304 -304 -304zM344 76c117 0 209 97 209 216c0 120 -92 217 -209 217c-116 0 -207 -97 -207 -217c0 -119 91 -216 207 -216z" />
    <glyph glyph-name="oacute.smcp" unicode="&#xe281;" horiz-adv-x="686" 
d="M343 -8c-170 0 -305 137 -305 306s135 306 305 306c169 0 306 -137 306 -306s-136 -306 -306 -306zM343 84c118 0 208 97 208 214s-90 214 -208 214s-208 -97 -208 -214s89 -214 208 -214zM296 653l116 163h105l-146 -163h-75z" />
    <glyph glyph-name="oacute.smcp" unicode="&#xf7f3;" horiz-adv-x="686" 
d="M343 -8c-170 0 -305 137 -305 306s135 306 305 306c169 0 306 -137 306 -306s-136 -306 -306 -306zM343 84c118 0 208 97 208 214s-90 214 -208 214s-208 -97 -208 -214s89 -214 208 -214zM296 653l116 163h105l-146 -163h-75z" />
    <glyph glyph-name="obreve" unicode="&#x14f;" horiz-adv-x="691" 
d="M344 -12c-168 0 -303 134 -303 304c0 172 135 305 303 305c169 0 304 -133 304 -305c0 -170 -135 -304 -304 -304zM344 76c117 0 209 97 209 216c0 120 -92 217 -209 217c-116 0 -207 -97 -207 -217c0 -119 91 -216 207 -216zM344 651c-110 0 -161 73 -161 164h70
c0 -63 32 -102 91 -103c58 1 91 40 91 103h71c0 -91 -62 -164 -162 -164z" />
    <glyph glyph-name="obreve.smcp" unicode="&#xe288;" horiz-adv-x="686" 
d="M343 -8c-170 0 -305 137 -305 306s135 306 305 306c169 0 306 -137 306 -306s-136 -306 -306 -306zM343 84c118 0 208 97 208 214s-90 214 -208 214s-208 -97 -208 -214s89 -214 208 -214zM342 649c-110 0 -161 73 -161 164h70c0 -63 32 -102 91 -103c58 1 91 40 91 103
h71c0 -91 -62 -164 -162 -164z" />
    <glyph glyph-name="obreve.smcp" unicode="&#xf635;" horiz-adv-x="686" 
d="M343 -8c-170 0 -305 137 -305 306s135 306 305 306c169 0 306 -137 306 -306s-136 -306 -306 -306zM343 84c118 0 208 97 208 214s-90 214 -208 214s-208 -97 -208 -214s89 -214 208 -214zM342 649c-110 0 -161 73 -161 164h70c0 -63 32 -102 91 -103c58 1 91 40 91 103
h71c0 -91 -62 -164 -162 -164z" />
    <glyph glyph-name="ocircumflex" unicode="&#xf4;" horiz-adv-x="691" 
d="M344 -12c-168 0 -303 134 -303 304c0 172 135 305 303 305c169 0 304 -133 304 -305c0 -170 -135 -304 -304 -304zM344 76c117 0 209 97 209 216c0 120 -92 217 -209 217c-116 0 -207 -97 -207 -217c0 -119 91 -216 207 -216zM190 652l119 163h69l119 -163h-84l-70 98
l-68 -98h-85z" />
    <glyph glyph-name="ocircumflex.smcp" unicode="&#xe283;" horiz-adv-x="686" 
d="M343 -8c-170 0 -305 137 -305 306s135 306 305 306c169 0 306 -137 306 -306s-136 -306 -306 -306zM343 84c118 0 208 97 208 214s-90 214 -208 214s-208 -97 -208 -214s89 -214 208 -214zM189 651l119 163h69l119 -163h-84l-70 98l-68 -98h-85z" />
    <glyph glyph-name="ocircumflex.smcp" unicode="&#xf7f4;" horiz-adv-x="686" 
d="M343 -8c-170 0 -305 137 -305 306s135 306 305 306c169 0 306 -137 306 -306s-136 -306 -306 -306zM343 84c118 0 208 97 208 214s-90 214 -208 214s-208 -97 -208 -214s89 -214 208 -214zM189 651l119 163h69l119 -163h-84l-70 98l-68 -98h-85z" />
    <glyph glyph-name="odieresis" unicode="&#xf6;" horiz-adv-x="691" 
d="M181 704c0 37 25 62 63 62c41 0 64 -25 64 -62c0 -38 -23 -63 -64 -63c-40 0 -63 25 -63 63zM376 704c0 37 25 62 63 62c41 0 64 -25 64 -62c0 -38 -23 -63 -64 -63c-40 0 -63 25 -63 63zM344 -12c-168 0 -303 134 -303 304c0 172 135 305 303 305
c169 0 304 -133 304 -305c0 -170 -135 -304 -304 -304zM344 76c117 0 209 97 209 216c0 120 -92 217 -209 217c-116 0 -207 -97 -207 -217c0 -119 91 -216 207 -216z" />
    <glyph glyph-name="odieresis.smcp" unicode="&#xe284;" horiz-adv-x="686" 
d="M343 -8c-170 0 -305 137 -305 306s135 306 305 306c169 0 306 -137 306 -306s-136 -306 -306 -306zM343 84c118 0 208 97 208 214s-90 214 -208 214s-208 -97 -208 -214s89 -214 208 -214zM183 726c0 37 25 62 63 62c41 0 64 -25 64 -62c0 -38 -23 -63 -64 -63
c-40 0 -63 25 -63 63zM378 726c0 37 25 62 63 62c41 0 64 -25 64 -62c0 -38 -23 -63 -64 -63c-40 0 -63 25 -63 63z" />
    <glyph glyph-name="odieresis.smcp" unicode="&#xf7f6;" horiz-adv-x="686" 
d="M343 -8c-170 0 -305 137 -305 306s135 306 305 306c169 0 306 -137 306 -306s-136 -306 -306 -306zM343 84c118 0 208 97 208 214s-90 214 -208 214s-208 -97 -208 -214s89 -214 208 -214zM183 726c0 37 25 62 63 62c41 0 64 -25 64 -62c0 -38 -23 -63 -64 -63
c-40 0 -63 25 -63 63zM378 726c0 37 25 62 63 62c41 0 64 -25 64 -62c0 -38 -23 -63 -64 -63c-40 0 -63 25 -63 63z" />
    <glyph glyph-name="oe" unicode="&#x153;" horiz-adv-x="1203" 
d="M344 -12c-168 0 -303 134 -303 304c0 172 135 305 303 305c112 0 207 -58 258 -145c50 88 142 145 257 145c170 0 300 -121 300 -297v-37h-512c12 -112 101 -190 217 -190c95 0 165 52 198 128l82 -38c-49 -108 -146 -175 -280 -175c-121 0 -214 55 -264 141
c-52 -86 -145 -141 -256 -141zM344 76c118 0 209 97 209 216c0 121 -91 217 -209 217c-117 0 -207 -96 -207 -217c0 -119 90 -216 207 -216zM860 512c-104 0 -184 -69 -207 -165h410c-18 103 -95 165 -203 165z" />
    <glyph glyph-name="oe.smcp" unicode="&#xe298;" horiz-adv-x="956" 
d="M553 0v85c-51 -58 -123 -93 -210 -93c-170 0 -305 137 -305 306s135 306 305 306c86 0 159 -36 210 -94v86h357v-89h-263v-163h263v-90h-263v-164h263v-90h-357zM343 84c118 0 208 97 208 214s-90 214 -208 214s-208 -97 -208 -214s89 -214 208 -214z" />
    <glyph glyph-name="oe.smcp" unicode="&#xf6fa;" horiz-adv-x="956" 
d="M553 0v85c-51 -58 -123 -93 -210 -93c-170 0 -305 137 -305 306s135 306 305 306c86 0 159 -36 210 -94v86h357v-89h-263v-163h263v-90h-263v-164h263v-90h-357zM343 84c118 0 208 97 208 214s-90 214 -208 214s-208 -97 -208 -214s89 -214 208 -214z" />
    <glyph glyph-name="ograve" unicode="&#xf2;" horiz-adv-x="691" 
d="M344 -12c-168 0 -303 134 -303 304c0 172 135 305 303 305c169 0 304 -133 304 -305c0 -170 -135 -304 -304 -304zM344 76c117 0 209 97 209 216c0 120 -92 217 -209 217c-116 0 -207 -97 -207 -217c0 -119 91 -216 207 -216zM317 652l-146 163h104l117 -163h-75z" />
    <glyph glyph-name="ograve.smcp" unicode="&#xe282;" horiz-adv-x="686" 
d="M343 -8c-170 0 -305 137 -305 306s135 306 305 306c169 0 306 -137 306 -306s-136 -306 -306 -306zM343 84c118 0 208 97 208 214s-90 214 -208 214s-208 -97 -208 -214s89 -214 208 -214zM311 653l-146 163h104l117 -163h-75z" />
    <glyph glyph-name="ograve.smcp" unicode="&#xf7f2;" horiz-adv-x="686" 
d="M343 -8c-170 0 -305 137 -305 306s135 306 305 306c169 0 306 -137 306 -306s-136 -306 -306 -306zM343 84c118 0 208 97 208 214s-90 214 -208 214s-208 -97 -208 -214s89 -214 208 -214zM311 653l-146 163h104l117 -163h-75z" />
    <glyph glyph-name="ohm" unicode="&#xe821;" horiz-adv-x="829" 
d="M26 0v93h208c-69 78 -141 189 -141 324c0 179 141 324 321 324c179 0 323 -144 323 -324c0 -135 -73 -246 -142 -324h208v-93h-295l-41 81c89 107 171 202 171 338c0 132 -97 233 -224 233c-126 0 -222 -101 -222 -233c0 -136 81 -232 171 -338l-37 -81h-300z" />
    <glyph glyph-name="ohungarumlaut" unicode="&#x151;" horiz-adv-x="691" 
d="M238 652l116 163h100l-147 -163h-69zM385 652l117 163h99l-146 -163h-70zM344 -12c-168 0 -303 134 -303 304c0 172 135 305 303 305c169 0 304 -133 304 -305c0 -170 -135 -304 -304 -304zM344 76c117 0 209 97 209 216c0 120 -92 217 -209 217
c-116 0 -207 -97 -207 -217c0 -119 91 -216 207 -216z" />
    <glyph glyph-name="ohungarumlaut.smcp" unicode="&#xe28a;" horiz-adv-x="686" 
d="M343 -8c-170 0 -305 137 -305 306s135 306 305 306c169 0 306 -137 306 -306s-136 -306 -306 -306zM343 84c118 0 208 97 208 214s-90 214 -208 214s-208 -97 -208 -214s89 -214 208 -214zM228 651l116 163h100l-147 -163h-69zM375 651l117 163h99l-146 -163h-70z" />
    <glyph glyph-name="ohungarumlaut.smcp" unicode="&#xf656;" horiz-adv-x="686" 
d="M343 -8c-170 0 -305 137 -305 306s135 306 305 306c169 0 306 -137 306 -306s-136 -306 -306 -306zM343 84c118 0 208 97 208 214s-90 214 -208 214s-208 -97 -208 -214s89 -214 208 -214zM228 651l116 163h100l-147 -163h-69zM375 651l117 163h99l-146 -163h-70z" />
    <glyph glyph-name="omacron" unicode="&#x14d;" horiz-adv-x="691" 
d="M216 655v70h264v-70h-264zM344 -12c-168 0 -303 134 -303 304c0 172 135 305 303 305c169 0 304 -133 304 -305c0 -170 -135 -304 -304 -304zM344 76c117 0 209 97 209 216c0 120 -92 217 -209 217c-116 0 -207 -97 -207 -217c0 -119 91 -216 207 -216z" />
    <glyph glyph-name="omacron.smcp" unicode="&#xe287;" horiz-adv-x="686" 
d="M343 -8c-170 0 -305 137 -305 306s135 306 305 306c169 0 306 -137 306 -306s-136 -306 -306 -306zM343 84c118 0 208 97 208 214s-90 214 -208 214s-208 -97 -208 -214s89 -214 208 -214zM211 653v70h264v-70h-264z" />
    <glyph glyph-name="omacron.smcp" unicode="&#xf657;" horiz-adv-x="686" 
d="M343 -8c-170 0 -305 137 -305 306s135 306 305 306c169 0 306 -137 306 -306s-136 -306 -306 -306zM343 84c118 0 208 97 208 214s-90 214 -208 214s-208 -97 -208 -214s89 -214 208 -214zM211 653v70h264v-70h-264z" />
    <glyph glyph-name="one.LP" unicode="&#xe536;" horiz-adv-x="463" 
d="M42 0v93h146v470c-21 -33 -73 -54 -119 -54h-12v101h5c96 0 129 68 129 120h94v-637h143v-93h-386z" />
    <glyph glyph-name="one.LT" unicode="&#xe541;" horiz-adv-x="588" 
d="M45 0v93h199v470c-21 -33 -73 -54 -119 -54h-11v101h5c96 0 129 68 129 120h93v-637h203v-93h-499z" />
    <glyph glyph-name="one.inf" unicode="&#xe572;" horiz-adv-x="294" 
d="M26 0v78h83v222c-13 -19 -41 -31 -67 -31h-6v83h3c56 0 72 40 72 70h81v-344h80v-78h-246z" />
    <glyph glyph-name="onehalf" unicode="&#xbd;" horiz-adv-x="853" 
d="M99 0l527 730h112l-527 -730h-112zM540 0v69c0 76 61 118 115 153c44 27 83 51 83 85c0 27 -21 49 -58 49s-62 -26 -76 -59l-71 37c27 57 77 94 147 94c87 0 144 -53 144 -121c0 -73 -60 -111 -113 -145c-42 -26 -83 -50 -84 -83h196v-79h-283zM26 308v78h83v222
c-13 -19 -41 -31 -67 -31h-6v83h3c56 0 72 40 72 70h81v-344h80v-78h-246z" />
    <glyph glyph-name="uni2082" unicode="&#x2082;" horiz-adv-x="336" 
d="M27 0v69c0 76 61 118 115 153c44 27 83 51 83 85c0 27 -21 49 -58 49s-62 -26 -76 -59l-71 37c27 57 77 94 147 94c87 0 144 -53 144 -121c0 -73 -60 -111 -113 -145c-42 -26 -83 -50 -84 -83h196v-79h-283z" />
    <glyph glyph-name="onequarter" unicode="&#xbc;" horiz-adv-x="820" 
d="M99 0l527 730h112l-527 -730h-112zM653 0v92h-180v75l178 255h82v-257h61v-73h-61v-92h-80zM26 308v78h83v222c-13 -19 -41 -31 -67 -31h-6v83h3c56 0 72 40 72 70h81v-344h80v-78h-246zM560 165h93v133z" />
    <glyph glyph-name="uni2084" unicode="&#x2084;" horiz-adv-x="372" 
d="M206 0v92h-180v75l178 255h82v-257h61v-73h-61v-92h-80zM113 165h93v133z" />
    <glyph glyph-name="onesixteenth" unicode="&#xf215;" horiz-adv-x="1104" 
d="M926 -6c-91 0 -156 66 -156 150c0 40 15 81 36 112l107 166h96l-86 -132c6 1 12 2 18 2c78 0 140 -61 140 -148c1 -86 -65 -150 -155 -150zM99 0l527 730h112l-527 -730h-112zM506 0v78h84v222c-13 -19 -41 -31 -67 -31h-7v83h3c56 0 73 40 73 70h81v-344h79v-78h-246z
M26 308v78h83v222c-13 -19 -41 -31 -67 -31h-6v83h3c56 0 72 40 72 70h81v-344h80v-78h-246zM925 71c40 0 75 33 75 75c0 41 -35 73 -75 73s-73 -32 -73 -74c0 -41 33 -74 73 -74z" />
    <glyph glyph-name="onesuperior" unicode="&#xb9;" horiz-adv-x="294" 
d="M26 308v78h83v222c-13 -19 -41 -31 -67 -31h-6v83h3c56 0 72 40 72 70h81v-344h80v-78h-246z" />
    <glyph glyph-name="onethirdemdash" unicode="&#xe471;" horiz-adv-x="411" 
d="M46 211v83h320v-83h-320z" />
    <glyph glyph-name="onethirdemdash.cap" unicode="&#xe483;" horiz-adv-x="411" 
d="M46 262v83h320v-83h-320z" />
    <glyph glyph-name="ordfeminine" unicode="&#xaa;" horiz-adv-x="393" 
d="M180 435c-64 0 -139 51 -139 150c0 101 77 151 140 151c41 0 73 -17 94 -40v34h71v-289h-71v36c-22 -25 -55 -42 -95 -42zM196 501c47 0 81 39 81 85c0 47 -34 84 -81 84c-48 0 -84 -35 -84 -84c0 -48 36 -85 84 -85z" />
    <glyph glyph-name="ordfeminine.alt" unicode="&#xe926;" horiz-adv-x="370" 
d="M146 435c-68 0 -107 32 -107 83c0 60 52 84 125 99c44 8 86 15 86 34c0 17 -19 29 -60 29c-43 0 -69 -16 -69 -44v-2h-75c0 61 56 102 144 102c95 0 133 -40 133 -98v-197h-70v35c-25 -24 -60 -41 -107 -41zM155 492c51 0 92 40 100 64v35c-13 -11 -44 -19 -76 -28
c-43 -11 -64 -22 -64 -44c0 -15 17 -27 40 -27z" />
    <glyph glyph-name="ordfeminine.smcp" unicode="&#xe351;" horiz-adv-x="375" 
d="M40 440l108 290h80l108 -290h-74l-19 51h-111l-18 -51h-74zM188 642l-33 -88h65z" />
    <glyph glyph-name="ordmasculine" unicode="&#xba;" horiz-adv-x="382" 
d="M191 435c-83 0 -150 67 -150 150c0 84 67 151 150 151c84 0 150 -67 150 -151c0 -83 -66 -150 -150 -150zM191 503c46 0 80 38 80 82c0 46 -34 83 -80 83c-44 0 -80 -37 -80 -83c0 -44 36 -82 80 -82z" />
    <glyph glyph-name="ordmasculine.smcp" unicode="&#xe352;" horiz-adv-x="382" 
d="M191 435c-83 0 -150 67 -150 150c0 84 67 151 150 151c84 0 150 -67 150 -151c0 -83 -66 -150 -150 -150zM191 503c46 0 80 38 80 82c0 46 -34 83 -80 83c-44 0 -80 -37 -80 -83c0 -44 36 -82 80 -82z" />
    <glyph glyph-name="oslash" unicode="&#xf8;" horiz-adv-x="691" 
d="M344 -12c-56 0 -108 15 -152 40l-22 -28h-101l59 77c-54 55 -87 130 -87 215c0 172 135 305 303 305c56 0 108 -15 153 -41l22 29h102l-60 -78c54 -55 87 -130 87 -215c0 -170 -135 -304 -304 -304zM344 76c118 0 209 97 209 216c0 54 -19 103 -49 141l-257 -333
c28 -16 61 -24 97 -24zM137 292c0 -54 18 -103 48 -140l256 332c-29 16 -62 25 -97 25c-117 0 -207 -96 -207 -217z" />
    <glyph glyph-name="oslash.smcp" unicode="&#xe295;" horiz-adv-x="686" 
d="M343 -8c-56 0 -109 15 -154 41l-26 -33h-110l69 86c-52 55 -84 130 -84 212c0 169 135 306 305 306c57 0 110 -16 156 -43l28 35h109l-70 -88c51 -55 83 -129 83 -210c0 -169 -136 -306 -306 -306zM134 298c0 -52 18 -99 48 -136l257 324c-28 15 -61 24 -96 24
c-118 0 -209 -96 -209 -212zM343 86c118 0 208 96 208 212c0 50 -17 97 -46 133l-257 -323c28 -14 60 -22 95 -22z" />
    <glyph glyph-name="oslash.smcp" unicode="&#xf7f8;" horiz-adv-x="686" 
d="M343 -8c-56 0 -109 15 -154 41l-26 -33h-110l69 86c-52 55 -84 130 -84 212c0 169 135 306 305 306c57 0 110 -16 156 -43l28 35h109l-70 -88c51 -55 83 -129 83 -210c0 -169 -136 -306 -306 -306zM134 298c0 -52 18 -99 48 -136l257 324c-28 15 -61 24 -96 24
c-118 0 -209 -96 -209 -212zM343 86c118 0 208 96 208 212c0 50 -17 97 -46 133l-257 -323c28 -14 60 -22 95 -22z" />
    <glyph glyph-name="oslashacute" unicode="&#x1ff;" horiz-adv-x="691" 
d="M344 -12c-56 0 -108 15 -152 40l-22 -28h-101l59 77c-54 55 -87 130 -87 215c0 172 135 305 303 305c56 0 108 -15 153 -41l22 29h102l-60 -78c54 -55 87 -130 87 -215c0 -170 -135 -304 -304 -304zM344 76c118 0 209 97 209 216c0 54 -19 103 -49 141l-257 -333
c28 -16 61 -24 97 -24zM137 292c0 -54 18 -103 48 -140l256 332c-29 16 -62 25 -97 25c-117 0 -207 -96 -207 -217zM313 648l116 163h105l-146 -163h-75z" />
    <glyph glyph-name="oslashacute.smcp" unicode="&#xe296;" horiz-adv-x="687" 
d="M343 -8c-56 0 -109 15 -154 41l-26 -33h-110l69 86c-52 55 -84 130 -84 212c0 169 135 306 305 306c57 0 110 -16 156 -43l28 35h109l-70 -88c51 -55 83 -129 83 -210c0 -169 -136 -306 -306 -306zM134 298c0 -52 18 -99 48 -136l257 324c-28 15 -61 24 -96 24
c-118 0 -209 -96 -209 -212zM343 86c118 0 208 96 208 212c0 50 -17 97 -46 133l-257 -323c28 -14 60 -22 95 -22zM296 653l116 163h105l-146 -163h-75z" />
    <glyph glyph-name="oslashacute.smcp" unicode="&#xf627;" horiz-adv-x="687" 
d="M343 -8c-56 0 -109 15 -154 41l-26 -33h-110l69 86c-52 55 -84 130 -84 212c0 169 135 306 305 306c57 0 110 -16 156 -43l28 35h109l-70 -88c51 -55 83 -129 83 -210c0 -169 -136 -306 -306 -306zM134 298c0 -52 18 -99 48 -136l257 324c-28 15 -61 24 -96 24
c-118 0 -209 -96 -209 -212zM343 86c118 0 208 96 208 212c0 50 -17 97 -46 133l-257 -323c28 -14 60 -22 95 -22zM296 653l116 163h105l-146 -163h-75z" />
    <glyph glyph-name="otilde" unicode="&#xf5;" horiz-adv-x="691" 
d="M344 -12c-168 0 -303 134 -303 304c0 172 135 305 303 305c169 0 304 -133 304 -305c0 -170 -135 -304 -304 -304zM344 76c117 0 209 97 209 216c0 120 -92 217 -209 217c-116 0 -207 -97 -207 -217c0 -119 91 -216 207 -216zM183 652c0 74 39 123 100 123
c33 0 57 -13 80 -27c21 -13 40 -27 61 -27c23 0 36 16 36 50h66c0 -75 -35 -123 -101 -123c-38 0 -66 18 -91 32c-18 11 -32 21 -51 21c-22 0 -35 -15 -35 -49h-65z" />
    <glyph glyph-name="otilde.smcp" unicode="&#xe285;" horiz-adv-x="686" 
d="M343 -8c-170 0 -305 137 -305 306s135 306 305 306c169 0 306 -137 306 -306s-136 -306 -306 -306zM343 84c118 0 208 97 208 214s-90 214 -208 214s-208 -97 -208 -214s89 -214 208 -214zM176 653c0 74 39 123 100 123c33 0 57 -13 80 -27c21 -13 40 -27 61 -27
c23 0 36 16 36 50h66c0 -75 -35 -123 -101 -123c-38 0 -66 18 -91 32c-18 11 -32 21 -51 21c-22 0 -35 -15 -35 -49h-65z" />
    <glyph glyph-name="otilde.smcp" unicode="&#xf7f5;" horiz-adv-x="686" 
d="M343 -8c-170 0 -305 137 -305 306s135 306 305 306c169 0 306 -137 306 -306s-136 -306 -306 -306zM343 84c118 0 208 97 208 214s-90 214 -208 214s-208 -97 -208 -214s89 -214 208 -214zM176 653c0 74 39 123 100 123c33 0 57 -13 80 -27c21 -13 40 -27 61 -27
c23 0 36 16 36 50h66c0 -75 -35 -123 -101 -123c-38 0 -66 18 -91 32c-18 11 -32 21 -51 21c-22 0 -35 -15 -35 -49h-65z" />
    <glyph glyph-name="oumlaut.smcp" unicode="&#xf180;" horiz-adv-x="686" 
d="M616 499c-18 27 -39 50 -66 68v29h86v-97h-20zM52 499v97h87v-29c-27 -18 -49 -41 -67 -68h-20zM343 -8c-170 0 -305 137 -305 306s135 306 305 306c169 0 306 -137 306 -306s-136 -306 -306 -306zM343 84c118 0 208 97 208 214s-90 214 -208 214s-208 -97 -208 -214
s89 -214 208 -214z" />
    <glyph glyph-name="p" unicode="p" horiz-adv-x="710" 
d="M372 -12c-86 0 -170 36 -215 104v-361h-93v854h93v-99c47 70 133 111 215 111c165 0 296 -130 296 -305c0 -174 -133 -304 -296 -304zM363 76c117 0 210 96 210 217c0 120 -93 217 -210 217c-123 0 -214 -98 -214 -217c0 -121 91 -217 214 -217z" />
    <glyph glyph-name="p.smcp" unicode="&#xe200;" horiz-adv-x="510" 
d="M57 0v596h194c132 0 220 -93 220 -210c0 -118 -88 -212 -221 -212h-97v-174h-96zM247 508h-94v-245h94c77 0 128 53 128 123s-51 122 -128 122z" />
    <glyph glyph-name="p.smcp" unicode="&#xf770;" horiz-adv-x="510" 
d="M57 0v596h194c132 0 220 -93 220 -210c0 -118 -88 -212 -221 -212h-97v-174h-96zM247 508h-94v-245h94c77 0 128 53 128 123s-51 122 -128 122z" />
    <glyph glyph-name="paragraph" unicode="&#xb6;" horiz-adv-x="619" 
d="M339 0v302h-91c-124 0 -217 94 -217 214c0 119 93 214 216 214h320v-730h-85v641h-60v-641h-83z" />
    <glyph glyph-name="parenleft" unicode="(" horiz-adv-x="411" 
d="M316 -250c-157 108 -277 266 -277 500s116 384 271 496l66 -72c-136 -94 -235 -226 -235 -423c0 -195 94 -329 238 -423z" />
    <glyph glyph-name="parenleft.cap" unicode="&#xe491;" horiz-adv-x="411" 
d="M316 -141c-157 109 -277 267 -277 501s116 384 271 496l66 -72c-136 -94 -235 -226 -235 -423c0 -195 94 -328 238 -423z" />
    <glyph glyph-name="parenleft.inf" unicode="&#xe57e;" horiz-adv-x="269" 
d="M181 -77c-98 72 -153 164 -153 291c0 128 58 220 152 290l51 -67c-74 -53 -119 -124 -119 -223c0 -97 47 -169 120 -222z" />
    <glyph glyph-name="parenleft.smcp" unicode="&#xe499;" horiz-adv-x="317" 
d="M256 -94c-136 93 -217 216 -217 391c0 176 79 291 208 383l58 -75c-98 -68 -169 -167 -169 -308c0 -138 67 -239 172 -307z" />
    <glyph glyph-name="parenleft.smcp" unicode="&#xf618;" horiz-adv-x="317" 
d="M256 -94c-136 93 -217 216 -217 391c0 176 79 291 208 383l58 -75c-98 -68 -169 -167 -169 -308c0 -138 67 -239 172 -307z" />
    <glyph glyph-name="parenright" unicode=")" horiz-adv-x="411" 
d="M270 249c0 198 -98 331 -234 424l65 72c155 -112 271 -262 271 -496s-120 -392 -277 -500l-62 77c144 96 237 229 237 423z" />
    <glyph glyph-name="parenright.cap" unicode="&#xe492;" horiz-adv-x="411" 
d="M95 -141l-62 79c144 95 237 228 237 422c0 198 -98 330 -234 424l65 72c155 -112 271 -262 271 -496s-120 -392 -277 -501z" />
    <glyph glyph-name="parenright.inf" unicode="&#xe57f;" horiz-adv-x="269" 
d="M89 -77l-52 69c74 53 120 125 120 222c0 99 -45 170 -119 223l52 67c94 -71 152 -162 152 -290c0 -127 -56 -219 -153 -291z" />
    <glyph glyph-name="parenright.smcp" unicode="&#xe49a;" horiz-adv-x="317" 
d="M61 -94l-53 84c105 68 172 169 172 307c0 141 -70 240 -169 308l59 75c128 -92 207 -207 207 -383c0 -175 -81 -298 -216 -391z" />
    <glyph glyph-name="parenright.smcp" unicode="&#xf619;" horiz-adv-x="317" 
d="M61 -94l-53 84c105 68 172 169 172 307c0 141 -70 240 -169 308l59 75c128 -92 207 -207 207 -383c0 -175 -81 -298 -216 -391z" />
    <glyph glyph-name="partialdiff" unicode="&#x2202;" horiz-adv-x="589" 
d="M293 -8c-138 0 -253 108 -253 252c0 142 109 247 243 247c54 0 93 -15 122 -38c-52 84 -145 170 -297 277h145c212 -165 295 -324 295 -483c0 -142 -111 -255 -255 -255zM294 82c88 0 160 74 160 162s-70 162 -159 162c-87 0 -160 -70 -160 -162c0 -91 73 -162 159 -162z
" />
    <glyph glyph-name="percent" unicode="%" horiz-adv-x="844" 
d="M133 568c0 -51 41 -92 90 -92s89 41 89 92s-40 91 -89 91s-90 -40 -90 -91zM458 162c0 95 76 172 172 172c95 0 172 -77 172 -172c0 -96 -77 -173 -172 -173c-96 0 -172 77 -172 173zM52 0l627 730h122l-627 -730h-122zM540 162c0 -51 40 -92 90 -92c49 0 89 41 89 92
s-40 91 -89 91c-50 0 -90 -40 -90 -91zM51 568c0 96 77 172 172 172s172 -76 172 -172c0 -95 -77 -173 -172 -173s-172 78 -172 173z" />
    <glyph glyph-name="percent.LT" unicode="&#xf469;" horiz-adv-x="580" 
d="M26 0l417 730h112l-418 -730h-111zM168 483c-71 0 -128 58 -128 128c0 72 57 129 128 129s129 -57 129 -129c0 -70 -58 -128 -129 -128zM168 565c26 0 46 21 46 46c0 26 -20 47 -46 47c-25 0 -46 -21 -46 -47c0 -25 21 -46 46 -46zM413 -11c-71 0 -129 59 -129 129
c0 72 58 129 129 129s129 -57 129 -129c0 -70 -58 -129 -129 -129zM413 72c25 0 46 21 46 46c0 26 -21 46 -46 46s-45 -20 -45 -46c0 -25 20 -46 45 -46z" />
    <glyph glyph-name="period" unicode="." horiz-adv-x="230" 
d="M42 63c0 43 29 72 72 72c47 0 74 -29 74 -72s-27 -72 -74 -72c-45 0 -72 29 -72 72z" />
    <glyph glyph-name="period.T" unicode="&#xf182;" horiz-adv-x="294" 
d="M98 0v137h96v-137h-96z" />
    <glyph glyph-name="periodcentered" unicode="&#xb7;" horiz-adv-x="202" 
d="M53 183v137h96v-137h-96z" />
    <glyph glyph-name="periodcentered.cap" unicode="&#xe481;" horiz-adv-x="202" 
d="M53 234v137h96v-137h-96z" />
    <glyph glyph-name="perthousand" unicode="&#x2030;" horiz-adv-x="1240" 
d="M52 0l627 730h122l-627 -730h-122zM630 -11c-96 0 -172 77 -172 173c0 95 76 172 172 172c95 0 172 -77 172 -172c0 -96 -77 -173 -172 -173zM630 70c49 0 89 41 89 92s-40 91 -89 91c-50 0 -90 -40 -90 -91s40 -92 90 -92zM223 395c-95 0 -172 78 -172 173
c0 96 77 172 172 172s172 -76 172 -172c0 -95 -77 -173 -172 -173zM223 476c49 0 89 41 89 92s-40 91 -89 91s-90 -40 -90 -91s41 -92 90 -92zM1018 -11c-95 0 -173 77 -173 173c0 95 78 172 173 172c96 0 173 -77 173 -172c0 -96 -77 -173 -173 -173zM1018 70
c49 0 90 41 90 92s-41 91 -90 91s-90 -40 -90 -91s41 -92 90 -92z" />
    <glyph glyph-name="peseta" unicode="&#x20a7;" horiz-adv-x="1324" 
d="M1051 0h-228c-152 0 -197 48 -197 201v213h-80c-27 -112 -126 -193 -258 -193h-139v-221h-96v730h235c147 0 252 -99 263 -230h75v118l96 53v-171h114v-86h-114v-212c0 -95 18 -112 114 -112h219c69 0 103 26 103 66c0 44 -58 53 -121 65c-81 15 -175 36 -175 140
c0 82 72 151 187 150c91 0 158 -35 199 -92l-79 -46c-26 36 -65 58 -118 58c-61 0 -93 -29 -93 -65c0 -44 59 -52 124 -65c81 -16 173 -40 173 -144c0 -81 -51 -158 -204 -157zM282 641h-133v-329h133c106 0 173 72 173 164c0 93 -67 165 -173 165z" />
    <glyph glyph-name="pi" unicode="&#x3c0;" horiz-adv-x="760" 
d="M41 637v93h680v-93h-138v-440c0 -76 20 -104 87 -104h36v-93h-44c-136 0 -176 63 -176 198v439h-222v-637h-96v637h-127z" />
    <glyph glyph-name="pi" unicode="&#x3d6;" horiz-adv-x="760" 
d="M41 637v93h680v-93h-138v-440c0 -76 20 -104 87 -104h36v-93h-44c-136 0 -176 63 -176 198v439h-222v-637h-96v637h-127z" />
    <glyph glyph-name="plus" unicode="+" 
d="M46 324v82h145v143h80v-143h145v-82h-145v-145h-80v145h-145z" />
    <glyph glyph-name="plus.inf" unicode="&#xe57b;" horiz-adv-x="268" 
d="M27 177v68h74v72h67v-72h72v-68h-72v-73h-67v73h-74z" />
    <glyph glyph-name="plusminus" unicode="&#xb1;" 
d="M46 427v82h145v144h80v-144h145v-82h-145v-144h-80v144h-145zM46 124v82h370v-82h-370z" />
    <glyph glyph-name="product" unicode="&#x220f;" horiz-adv-x="760" 
d="M41 637v93h680v-93h-129v-637h-96v637h-232v-637h-96v637h-127z" />
    <glyph glyph-name="published" unicode="&#x2117;" horiz-adv-x="826" 
d="M414 -81c-207 0 -375 168 -375 376c0 207 168 375 375 375s374 -168 374 -375c0 -208 -167 -376 -374 -376zM414 -1c163 0 291 133 291 296c0 162 -128 295 -291 295c-166 0 -291 -133 -291 -295c0 -163 125 -296 291 -296zM280 103v384h170c82 0 142 -61 142 -139
c0 -77 -54 -144 -140 -144h-87v-101h-85zM438 415h-73v-138h73c41 0 69 33 69 71c0 37 -29 67 -69 67z" />
    <glyph glyph-name="q" unicode="q" horiz-adv-x="711" 
d="M339 -12c-163 0 -298 130 -298 304c0 175 132 305 298 305c82 0 168 -41 215 -111v99h93v-854h-94v361c-46 -68 -130 -104 -214 -104zM348 76c121 0 213 96 213 217c0 119 -92 217 -213 217c-118 0 -211 -97 -211 -217c0 -121 93 -217 211 -217z" />
    <glyph glyph-name="q.smcp" unicode="&#xe211;" horiz-adv-x="692" 
d="M345 -8c-169 0 -304 137 -304 306s135 306 304 306c170 0 306 -137 306 -306c0 -78 -29 -149 -77 -202l77 -96h-112l-217 276h109l83 -104c25 35 39 78 39 126c0 117 -90 214 -208 214s-208 -97 -208 -214s90 -214 208 -214c30 0 56 6 79 16l59 -75
c-41 -21 -87 -33 -138 -33z" />
    <glyph glyph-name="q.smcp" unicode="&#xf771;" horiz-adv-x="692" 
d="M345 -8c-169 0 -304 137 -304 306s135 306 304 306c170 0 306 -137 306 -306c0 -78 -29 -149 -77 -202l77 -96h-112l-217 276h109l83 -104c25 35 39 78 39 126c0 117 -90 214 -208 214s-208 -97 -208 -214s90 -214 208 -214c30 0 56 6 79 16l59 -75
c-41 -21 -87 -33 -138 -33z" />
    <glyph glyph-name="question" unicode="?" horiz-adv-x="533" 
d="M207 189v10c0 248 181 212 181 350c0 62 -52 107 -124 107c-70 0 -110 -38 -133 -91l-88 34c31 81 107 141 222 141c128 0 221 -77 221 -192c0 -190 -192 -143 -192 -349v-10h-87zM179 63c0 43 29 72 72 72c47 0 74 -29 74 -72s-27 -72 -74 -72c-45 0 -72 29 -72 72z" />
    <glyph glyph-name="questiondown" unicode="&#xbf;" horiz-adv-x="533" 
d="M267 -240c-128 0 -221 77 -221 192c0 190 192 143 192 349v10h87v-10c0 -248 -181 -212 -181 -350c0 -62 52 -107 125 -107c69 0 109 38 132 91l88 -34c-31 -81 -107 -141 -222 -141zM209 431c0 43 29 72 72 72c47 0 74 -29 74 -72s-27 -72 -74 -72c-45 0 -72 29 -72 72z
" />
    <glyph glyph-name="questiondown.cap" unicode="&#xe444;" horiz-adv-x="533" 
d="M267 -10c-128 0 -221 77 -221 193c0 189 192 142 192 348v10h87v-10c0 -248 -181 -212 -181 -350c0 -62 52 -106 125 -106c69 0 109 38 132 91l88 -35c-31 -80 -107 -141 -222 -141zM210 662c0 43 29 72 72 72c47 0 74 -29 74 -72s-27 -72 -74 -72c-45 0 -72 29 -72 72z
" />
    <glyph glyph-name="quotedbl" unicode="&#x22;" horiz-adv-x="307" 
d="M76 500c-7 25 -25 106 -25 146v84h79v-84c0 -39 -18 -122 -25 -146h-29zM202 500c-7 25 -25 106 -25 146v84h80v-84c0 -39 -19 -122 -26 -146h-29z" />
    <glyph glyph-name="quotedblbase" unicode="&#x201e;" horiz-adv-x="334" 
d="M91 -117h-61l39 204h89zM225 -117h-63l40 204h89z" />
    <glyph glyph-name="quotedblleft" unicode="&#x201c;" horiz-adv-x="333" 
d="M124 730l39 -204h-61l-65 204h87zM256 730l40 -204h-62l-64 204h86z" />
    <glyph glyph-name="quotedblright" unicode="&#x201d;" horiz-adv-x="333" 
d="M98 526h-61l39 204h89zM232 526h-62l39 204h89z" />
    <glyph glyph-name="quoteleft" unicode="&#x2018;" horiz-adv-x="201" 
d="M122 730l40 -204h-63l-65 204h88z" />
    <glyph glyph-name="quoteright" unicode="&#x2019;" horiz-adv-x="201" 
d="M98 526h-61l39 204h89z" />
    <glyph glyph-name="quotesinglbase" unicode="&#x201a;" horiz-adv-x="201" 
d="M90 -117h-62l39 204h89z" />
    <glyph glyph-name="quotesingle" unicode="'" horiz-adv-x="181" 
d="M105 500h-29c-7 25 -25 106 -25 146v84h79v-84c0 -39 -18 -122 -25 -146z" />
    <glyph glyph-name="r" unicode="r" horiz-adv-x="436" 
d="M64 0v585h94v-84c28 56 79 85 148 85c51 0 85 -14 114 -30l-40 -89c-22 14 -41 26 -89 26c-78 0 -132 -51 -132 -163c0 -12 1 -330 1 -330h-96z" />
    <glyph glyph-name="r.smcp" unicode="&#xe212;" horiz-adv-x="501" 
d="M57 0v596h194c128 0 212 -87 212 -196c0 -79 -46 -152 -130 -178l141 -222h-111l-175 288h53c80 0 123 57 123 111c0 65 -40 109 -119 109h-92v-508h-96z" />
    <glyph glyph-name="r.smcp" unicode="&#xf772;" horiz-adv-x="501" 
d="M57 0v596h194c128 0 212 -87 212 -196c0 -79 -46 -152 -130 -178l141 -222h-111l-175 288h53c80 0 123 57 123 111c0 65 -40 109 -119 109h-92v-508h-96z" />
    <glyph glyph-name="racute" unicode="&#x155;" horiz-adv-x="434" 
d="M64 0v585h94v-84c28 56 79 85 148 85c51 0 85 -14 114 -30l-40 -89c-22 14 -41 26 -89 26c-78 0 -132 -51 -132 -163c0 -12 1 -330 1 -330h-96zM190 642l116 163h105l-146 -163h-75z" />
    <glyph glyph-name="racute.smcp" unicode="&#xe29a;" horiz-adv-x="501" 
d="M57 0v596h194c128 0 212 -87 212 -196c0 -79 -46 -152 -130 -178l141 -222h-111l-175 288h53c80 0 123 57 123 111c0 65 -40 109 -119 109h-92v-508h-96zM193 653l116 163h105l-146 -163h-75z" />
    <glyph glyph-name="racute.smcp" unicode="&#xf658;" horiz-adv-x="501" 
d="M57 0v596h194c128 0 212 -87 212 -196c0 -79 -46 -152 -130 -178l141 -222h-111l-175 288h53c80 0 123 57 123 111c0 65 -40 109 -119 109h-92v-508h-96zM193 653l116 163h105l-146 -163h-75z" />
    <glyph glyph-name="radical" unicode="&#x221a;" horiz-adv-x="786" 
d="M296 0l-158 410h-93v90h160l146 -391l287 621h104l-343 -730h-103z" />
    <glyph glyph-name="rcaron" unicode="&#x159;" horiz-adv-x="434" 
d="M64 0v585h94v-84c28 56 79 85 148 85c51 0 85 -14 114 -30l-40 -89c-22 14 -41 26 -89 26c-78 0 -132 -51 -132 -163c0 -12 1 -330 1 -330h-96zM202 644l-119 163h85l68 -98l70 98h84l-119 -163h-69z" />
    <glyph glyph-name="rcaron.smcp" unicode="&#xe29b;" horiz-adv-x="501" 
d="M57 0v596h194c128 0 212 -87 212 -196c0 -79 -46 -152 -130 -178l141 -222h-111l-175 288h53c80 0 123 57 123 111c0 65 -40 109 -119 109h-92v-508h-96zM219 653l-119 163h85l68 -98l70 98h84l-119 -163h-69z" />
    <glyph glyph-name="rcaron.smcp" unicode="&#xf659;" horiz-adv-x="501" 
d="M57 0v596h194c128 0 212 -87 212 -196c0 -79 -46 -152 -130 -178l141 -222h-111l-175 288h53c80 0 123 57 123 111c0 65 -40 109 -119 109h-92v-508h-96zM219 653l-119 163h85l68 -98l70 98h84l-119 -163h-69z" />
    <glyph glyph-name="rcommaaccent" unicode="&#x157;" horiz-adv-x="434" 
d="M64 0v585h94v-84c28 56 79 85 148 85c51 0 85 -14 114 -30l-40 -89c-22 14 -41 26 -89 26c-78 0 -132 -51 -132 -163c0 -12 1 -330 1 -330h-96zM90 -254h-63l40 204h86z" />
    <glyph glyph-name="rcommaaccent.smcp" unicode="&#xe29e;" horiz-adv-x="501" 
d="M57 0v596h194c128 0 212 -87 212 -196c0 -79 -46 -152 -130 -178l141 -222h-111l-175 288h53c80 0 123 57 123 111c0 65 -40 109 -119 109h-92v-508h-96zM237 -255h-63l40 204h86z" />
    <glyph glyph-name="rcommaaccent.smcp" unicode="&#xf65a;" horiz-adv-x="501" 
d="M57 0v596h194c128 0 212 -87 212 -196c0 -79 -46 -152 -130 -178l141 -222h-111l-175 288h53c80 0 123 57 123 111c0 65 -40 109 -119 109h-92v-508h-96zM237 -255h-63l40 204h86z" />
    <glyph glyph-name="registered" unicode="&#xae;" horiz-adv-x="826" 
d="M414 -125c-207 0 -375 168 -375 375s168 375 375 375s374 -168 374 -375s-167 -375 -374 -375zM414 -46c163 0 291 133 291 296s-128 296 -291 296c-166 0 -291 -133 -291 -296s125 -296 291 -296zM270 68v374h158c96 0 154 -59 154 -126c0 -56 -28 -103 -82 -120
l80 -128h-96l-103 178h39c42 0 74 24 74 66s-34 59 -74 59h-65v-303h-85z" />
    <glyph glyph-name="registered.LT" unicode="&#xf470;" horiz-adv-x="580" 
d="M290 -10c-153 0 -237 94 -237 235v274c0 139 96 241 237 241c145 0 238 -105 238 -240v-276c0 -144 -88 -234 -238 -234zM289 64c103 0 159 64 159 159v276c0 103 -56 168 -157 168c-102 0 -159 -69 -159 -168v-274c0 -97 55 -161 157 -161zM183 122v487h116
c74 0 105 -40 105 -107v-79c0 -32 -10 -54 -29 -68c16 -15 25 -36 25 -63v-143c0 -12 4 -22 11 -27h-82c-7 3 -9 10 -9 21v144c0 21 -9 33 -33 33h-23v-198h-81zM291 536h-27v-143h24c23 0 35 13 35 37v72c0 22 -9 34 -32 34z" />
    <glyph glyph-name="registered.cap" unicode="&#xe99c;" horiz-adv-x="826" 
d="M414 -10c-207 0 -375 168 -375 375s168 375 375 375s374 -168 374 -375s-167 -375 -374 -375zM414 70c163 0 291 132 291 295s-128 296 -291 296c-166 0 -291 -133 -291 -296s125 -295 291 -295zM270 183v374h158c96 0 154 -59 154 -126c0 -56 -28 -103 -82 -120l80 -128
h-96l-103 178h39c42 0 74 24 74 66s-34 59 -74 59h-65v-303h-85z" />
    <glyph glyph-name="reversequotedblleft" unicode="&#x201f;" horiz-adv-x="333" 
d="M98 526h-61l39 204h89zM232 526h-62l39 204h89z" />
    <glyph glyph-name="reversequoteleft" unicode="&#x201b;" horiz-adv-x="201" 
d="M98 526h-61l39 204h89z" />
    <glyph glyph-name="s" unicode="s" horiz-adv-x="533" 
d="M264 -12c-109 0 -193 45 -246 121l81 53c37 -54 96 -90 168 -90c86 0 130 45 130 97c0 60 -76 72 -155 90c-96 23 -197 54 -197 169c0 89 83 170 215 170c94 0 176 -36 223 -97l-75 -52c-36 43 -84 68 -148 68c-78 0 -120 -39 -120 -87c0 -57 67 -70 151 -90
c94 -23 200 -53 200 -170c0 -78 -66 -182 -227 -182z" />
    <glyph glyph-name="s.smcp" unicode="&#xe213;" horiz-adv-x="480" 
d="M239 -8c-103 0 -172 45 -221 105l84 66c32 -52 80 -82 136 -82c62 0 104 40 104 90c0 59 -63 77 -131 98c-80 26 -168 58 -168 169c0 96 81 167 191 167c93 0 152 -37 196 -89l-77 -59c-26 41 -66 64 -118 64c-56 0 -95 -34 -95 -79c0 -56 61 -73 130 -96
c80 -25 172 -60 172 -173c0 -94 -77 -181 -203 -181z" />
    <glyph glyph-name="s.smcp" unicode="&#xf773;" horiz-adv-x="480" 
d="M239 -8c-103 0 -172 45 -221 105l84 66c32 -52 80 -82 136 -82c62 0 104 40 104 90c0 59 -63 77 -131 98c-80 26 -168 58 -168 169c0 96 81 167 191 167c93 0 152 -37 196 -89l-77 -59c-26 41 -66 64 -118 64c-56 0 -95 -34 -95 -79c0 -56 61 -73 130 -96
c80 -25 172 -60 172 -173c0 -94 -77 -181 -203 -181z" />
    <glyph glyph-name="sacute" unicode="&#x15b;" horiz-adv-x="533" 
d="M227 652l116 163h105l-146 -163h-75zM264 -12c-109 0 -193 45 -246 121l81 53c37 -54 96 -90 168 -90c86 0 130 45 130 97c0 60 -76 72 -155 90c-96 23 -197 54 -197 169c0 89 83 170 215 170c94 0 176 -36 223 -97l-75 -52c-36 43 -84 68 -148 68
c-78 0 -120 -39 -120 -87c0 -57 67 -70 151 -90c94 -23 200 -53 200 -170c0 -78 -66 -182 -227 -182z" />
    <glyph glyph-name="sacute.smcp" unicode="&#xe302;" horiz-adv-x="480" 
d="M193 653l116 163h105l-146 -163h-75zM239 -8c-103 0 -172 45 -221 105l84 66c32 -52 80 -82 136 -82c62 0 104 40 104 90c0 59 -63 77 -131 98c-80 26 -168 58 -168 169c0 96 81 167 191 167c93 0 152 -37 196 -89l-77 -59c-26 41 -66 64 -118 64c-56 0 -95 -34 -95 -79
c0 -56 61 -73 130 -96c80 -25 172 -60 172 -173c0 -94 -77 -181 -203 -181z" />
    <glyph glyph-name="sacute.smcp" unicode="&#xf65b;" horiz-adv-x="480" 
d="M193 653l116 163h105l-146 -163h-75zM239 -8c-103 0 -172 45 -221 105l84 66c32 -52 80 -82 136 -82c62 0 104 40 104 90c0 59 -63 77 -131 98c-80 26 -168 58 -168 169c0 96 81 167 191 167c93 0 152 -37 196 -89l-77 -59c-26 41 -66 64 -118 64c-56 0 -95 -34 -95 -79
c0 -56 61 -73 130 -96c80 -25 172 -60 172 -173c0 -94 -77 -181 -203 -181z" />
    <glyph glyph-name="scaron" unicode="&#x161;" horiz-adv-x="533" 
d="M264 -12c-109 0 -193 45 -246 121l81 53c37 -54 96 -90 168 -90c86 0 130 45 130 97c0 60 -76 72 -155 90c-96 23 -197 54 -197 169c0 89 83 170 215 170c94 0 176 -36 223 -97l-75 -52c-36 43 -84 68 -148 68c-78 0 -120 -39 -120 -87c0 -57 67 -70 151 -90
c94 -23 200 -53 200 -170c0 -78 -66 -182 -227 -182zM227 652l-119 163h85l68 -98l70 98h84l-119 -163h-69z" />
    <glyph glyph-name="scaron.smcp" unicode="&#xe304;" horiz-adv-x="480" 
d="M239 -8c-103 0 -172 45 -221 105l84 66c32 -52 80 -82 136 -82c62 0 104 40 104 90c0 59 -63 77 -131 98c-80 26 -168 58 -168 169c0 96 81 167 191 167c93 0 152 -37 196 -89l-77 -59c-26 41 -66 64 -118 64c-56 0 -95 -34 -95 -79c0 -56 61 -73 130 -96
c80 -25 172 -60 172 -173c0 -94 -77 -181 -203 -181zM206 653l-119 163h85l68 -98l70 98h84l-119 -163h-69z" />
    <glyph glyph-name="scaron.smcp" unicode="&#xf6fd;" horiz-adv-x="480" 
d="M239 -8c-103 0 -172 45 -221 105l84 66c32 -52 80 -82 136 -82c62 0 104 40 104 90c0 59 -63 77 -131 98c-80 26 -168 58 -168 169c0 96 81 167 191 167c93 0 152 -37 196 -89l-77 -59c-26 41 -66 64 -118 64c-56 0 -95 -34 -95 -79c0 -56 61 -73 130 -96
c80 -25 172 -60 172 -173c0 -94 -77 -181 -203 -181zM206 653l-119 163h85l68 -98l70 98h84l-119 -163h-69z" />
    <glyph glyph-name="scedilla" unicode="&#x15f;" horiz-adv-x="533" 
d="M255 -238c-58 0 -107 23 -143 56l64 39c24 -20 45 -35 84 -35c36 0 65 17 65 39s-24 34 -68 34h-43v97c-85 11 -152 53 -196 117l81 53c37 -54 96 -90 168 -90c86 0 130 45 130 97c0 60 -76 72 -155 90c-96 23 -197 54 -197 169c0 89 83 170 215 170
c94 0 176 -36 223 -97l-75 -52c-36 43 -84 68 -148 68c-78 0 -120 -39 -120 -87c0 -57 67 -70 151 -90c94 -23 200 -53 200 -170c0 -75 -61 -173 -208 -181v-45c72 1 118 -33 118 -80c0 -60 -66 -102 -146 -102z" />
    <glyph glyph-name="scedilla.smcp" unicode="&#xe306;" horiz-adv-x="480" 
d="M231 -235c-58 0 -107 23 -143 56l64 39c24 -20 45 -35 84 -35c36 0 65 17 65 39s-24 34 -68 34h-43v98c-77 11 -131 51 -172 101l84 66c32 -52 80 -82 136 -82c62 0 104 40 104 90c0 59 -63 77 -131 98c-80 26 -168 58 -168 169c0 96 81 167 191 167
c93 0 152 -37 196 -89l-77 -59c-26 41 -66 64 -118 64c-56 0 -95 -34 -95 -79c0 -56 61 -73 130 -96c80 -25 172 -60 172 -173c0 -89 -69 -172 -183 -180v-46c72 1 118 -33 118 -80c0 -60 -66 -102 -146 -102z" />
    <glyph glyph-name="scedilla.smcp" unicode="&#xf65c;" horiz-adv-x="480" 
d="M231 -235c-58 0 -107 23 -143 56l64 39c24 -20 45 -35 84 -35c36 0 65 17 65 39s-24 34 -68 34h-43v98c-77 11 -131 51 -172 101l84 66c32 -52 80 -82 136 -82c62 0 104 40 104 90c0 59 -63 77 -131 98c-80 26 -168 58 -168 169c0 96 81 167 191 167
c93 0 152 -37 196 -89l-77 -59c-26 41 -66 64 -118 64c-56 0 -95 -34 -95 -79c0 -56 61 -73 130 -96c80 -25 172 -60 172 -173c0 -89 -69 -172 -183 -180v-46c72 1 118 -33 118 -80c0 -60 -66 -102 -146 -102z" />
    <glyph glyph-name="scircumflex" unicode="&#x15d;" horiz-adv-x="533" 
d="M264 -12c-109 0 -193 45 -246 121l81 53c37 -54 96 -90 168 -90c86 0 130 45 130 97c0 60 -76 72 -155 90c-96 23 -197 54 -197 169c0 89 83 170 215 170c94 0 176 -36 223 -97l-75 -52c-36 43 -84 68 -148 68c-78 0 -120 -39 -120 -87c0 -57 67 -70 151 -90
c94 -23 200 -53 200 -170c0 -78 -66 -182 -227 -182zM114 647l119 163h69l119 -163h-84l-70 98l-68 -98h-85z" />
    <glyph glyph-name="scircumflex.smcp" unicode="&#xe303;" horiz-adv-x="480" 
d="M239 -8c-103 0 -172 45 -221 105l84 66c32 -52 80 -82 136 -82c62 0 104 40 104 90c0 59 -63 77 -131 98c-80 26 -168 58 -168 169c0 96 81 167 191 167c93 0 152 -37 196 -89l-77 -59c-26 41 -66 64 -118 64c-56 0 -95 -34 -95 -79c0 -56 61 -73 130 -96
c80 -25 172 -60 172 -173c0 -94 -77 -181 -203 -181zM85 652l119 163h69l119 -163h-84l-70 98l-68 -98h-85z" />
    <glyph glyph-name="scircumflex.smcp" unicode="&#xf636;" horiz-adv-x="480" 
d="M239 -8c-103 0 -172 45 -221 105l84 66c32 -52 80 -82 136 -82c62 0 104 40 104 90c0 59 -63 77 -131 98c-80 26 -168 58 -168 169c0 96 81 167 191 167c93 0 152 -37 196 -89l-77 -59c-26 41 -66 64 -118 64c-56 0 -95 -34 -95 -79c0 -56 61 -73 130 -96
c80 -25 172 -60 172 -173c0 -94 -77 -181 -203 -181zM85 652l119 163h69l119 -163h-84l-70 98l-68 -98h-85z" />
    <glyph glyph-name="scommaaccent" unicode="&#x219;" horiz-adv-x="533" 
d="M243 -259h-63l40 204h86zM264 -12c-109 0 -193 45 -246 121l81 53c37 -54 96 -90 168 -90c86 0 130 45 130 97c0 60 -76 72 -155 90c-96 23 -197 54 -197 169c0 89 83 170 215 170c94 0 176 -36 223 -97l-75 -52c-36 43 -84 68 -148 68c-78 0 -120 -39 -120 -87
c0 -57 67 -70 151 -90c94 -23 200 -53 200 -170c0 -78 -66 -182 -227 -182z" />
    <glyph glyph-name="scommaaccent.smcp" unicode="&#xe305;" horiz-adv-x="480" 
d="M218 -254h-63l40 204h86zM239 -8c-103 0 -172 45 -221 105l84 66c32 -52 80 -82 136 -82c62 0 104 40 104 90c0 59 -63 77 -131 98c-80 26 -168 58 -168 169c0 96 81 167 191 167c93 0 152 -37 196 -89l-77 -59c-26 41 -66 64 -118 64c-56 0 -95 -34 -95 -79
c0 -56 61 -73 130 -96c80 -25 172 -60 172 -173c0 -94 -77 -181 -203 -181z" />
    <glyph glyph-name="scommaaccent.smcp" unicode="&#xf65d;" horiz-adv-x="480" 
d="M218 -254h-63l40 204h86zM239 -8c-103 0 -172 45 -221 105l84 66c32 -52 80 -82 136 -82c62 0 104 40 104 90c0 59 -63 77 -131 98c-80 26 -168 58 -168 169c0 96 81 167 191 167c93 0 152 -37 196 -89l-77 -59c-26 41 -66 64 -118 64c-56 0 -95 -34 -95 -79
c0 -56 61 -73 130 -96c80 -25 172 -60 172 -173c0 -94 -77 -181 -203 -181z" />
    <glyph glyph-name="second" unicode="&#x2033;" horiz-adv-x="333" 
d="M98 526h-61l39 204h89zM232 526h-62l39 204h89z" />
    <glyph glyph-name="section" unicode="&#xa7;" horiz-adv-x="593" 
d="M294 -10c-138 0 -221 77 -236 155l97 24c8 -55 58 -100 145 -100c62 0 116 23 116 73s-67 60 -163 82c-131 30 -212 65 -212 151c0 54 37 100 91 119c-30 24 -46 55 -46 95c0 90 79 153 203 151c132 0 207 -70 221 -144l-92 -23c-8 53 -48 92 -130 92
c-62 0 -111 -23 -111 -72s65 -65 160 -87c131 -30 212 -65 212 -150c0 -52 -36 -97 -87 -117c31 -22 48 -52 48 -93c0 -92 -90 -158 -216 -156zM306 297c29 -7 55 -14 79 -22c46 13 69 41 69 70c0 45 -68 65 -169 88c-29 6 -56 14 -79 22c-44 -7 -70 -36 -70 -68
c0 -49 69 -67 170 -90z" />
    <glyph glyph-name="semicolon" unicode=";" horiz-adv-x="230" 
d="M42 426c0 43 29 72 72 72c47 0 74 -29 74 -72s-27 -72 -74 -72c-45 0 -72 29 -72 72zM21 -117l47 204h106l-86 -204h-67z" />
    <glyph glyph-name="semicolon.T" unicode="&#xf185;" horiz-adv-x="294" 
d="M99 363v137h95v-137h-95zM73 -117l39 204h93l-64 -204h-68z" />
    <glyph glyph-name="servicemark" unicode="&#x2120;" horiz-adv-x="642" 
d="M276 440v290h65l95 -124l99 124h60v-290h-70v178l-90 -109l-90 109v-178h-69zM133 433c-50 0 -87 19 -111 52l61 42c11 -19 28 -32 50 -32c20 0 34 13 34 31c0 45 -134 19 -134 124c0 48 42 82 99 82c44 0 76 -19 98 -46l-57 -36c-10 15 -24 24 -42 24
c-20 0 -31 -11 -31 -24c0 -38 135 -20 135 -121c0 -55 -40 -96 -102 -96z" />
    <glyph glyph-name="seven.LP" unicode="&#xe53c;" horiz-adv-x="530" 
d="M97 0l293 637h-352v93h452v-84l-290 -646h-103z" />
    <glyph glyph-name="seven.LT" unicode="&#xe547;" horiz-adv-x="588" 
d="M140 0l298 637h-393v93h499v-84l-300 -646h-104z" />
    <glyph glyph-name="seven.inf" unicode="&#xe578;" horiz-adv-x="319" 
d="M51 0l157 344h-183v78h269v-72l-153 -350h-90z" />
    <glyph glyph-name="sevensixteenths" unicode="&#xf218;" horiz-adv-x="1052" 
d="M873 -6c-91 0 -156 66 -156 150c0 40 16 81 36 112l107 166h96l-86 -132c6 1 12 2 18 2c78 0 141 -61 141 -148c0 -86 -66 -150 -156 -150zM47 0l527 730h112l-527 -730h-112zM455 0v78h83v222c-13 -19 -41 -31 -67 -31h-6v83h3c56 0 72 40 72 70h81v-344h80v-78h-246z
M56 308l157 344h-183v78h269v-72l-153 -350h-90zM872 71c41 0 75 33 75 75c0 41 -34 73 -75 73s-73 -32 -73 -74c0 -41 32 -74 73 -74z" />
    <glyph glyph-name="uni2087" unicode="&#x2087;" horiz-adv-x="319" 
d="M51 0l157 344h-183v78h269v-72l-153 -350h-90z" />
    <glyph glyph-name="six.LP" unicode="&#xe53b;" horiz-adv-x="594" 
d="M297 -10c-150 0 -259 111 -259 251c0 67 22 133 56 181l205 308h115l-166 -245c21 6 43 10 67 10c134 0 241 -107 241 -253c0 -144 -112 -252 -259 -252zM296 78c90 0 164 74 164 166c0 90 -74 164 -164 164c-91 0 -163 -73 -163 -164s72 -166 163 -166z" />
    <glyph glyph-name="six.LT" unicode="&#xe546;" horiz-adv-x="588" 
d="M295 -10c-147 0 -253 109 -253 246c0 63 21 123 53 170l208 324h115l-167 -257c19 5 39 9 60 9c132 0 236 -104 236 -246c0 -141 -110 -246 -252 -246zM293 78c87 0 158 72 158 159c0 88 -71 159 -158 159s-156 -71 -156 -158c0 -88 69 -160 156 -160z" />
    <glyph glyph-name="six.inf" unicode="&#xe577;" horiz-adv-x="356" 
d="M178 -6c-91 0 -156 66 -156 150c0 40 16 81 36 112l107 166h96l-86 -132c6 1 12 2 18 2c78 0 141 -61 141 -148c0 -86 -66 -150 -156 -150zM177 71c41 0 75 33 75 75c0 41 -34 73 -75 73s-73 -32 -73 -74c0 -41 32 -74 73 -74z" />
    <glyph glyph-name="slash" unicode="/" horiz-adv-x="489" 
d="M21 0l346 730h103l-346 -730h-103z" />
    <glyph glyph-name="slash.cap" unicode="&#xe461;" horiz-adv-x="489" 
d="M21 0l346 730h103l-346 -730h-103z" />
    <glyph glyph-name="slash.smcp" unicode="&#xe467;" horiz-adv-x="439" 
d="M29 0l283 596h100l-283 -596h-100z" />
    <glyph glyph-name="space" unicode=" " horiz-adv-x="249" 
 />
    <glyph glyph-name="spade" unicode="&#x2660;" horiz-adv-x="920" 
d="M594 0h-259c27 51 94 169 94 290c-25 -70 -79 -136 -170 -136c-93 0 -171 72 -171 158c0 115 70 191 235 323l140 112h1l140 -112c165 -132 228 -208 228 -323c0 -86 -71 -157 -157 -157c-98 0 -156 65 -181 135c0 -121 73 -239 100 -290z" />
    <glyph glyph-name="squaremultiply" unicode="&#x22a0;" horiz-adv-x="926" 
d="M100 0v730h726v-730h-726zM197 637v-544h532v544h-532zM324 163l-58 57l141 146l-142 148l57 56l141 -146l141 147l57 -56l-142 -149l141 -145l-57 -57l-140 144z" />
    <glyph glyph-name="sterling" unicode="&#xa3;" horiz-adv-x="588" 
d="M61 335v78h78c-19 37 -33 78 -33 129c0 118 87 198 205 198c108 0 174 -51 210 -124l-89 -42c-25 52 -61 80 -121 80c-62 0 -107 -45 -107 -111c0 -48 18 -89 41 -130h210v-78h-166c24 -46 44 -98 44 -163c0 -20 -3 -40 -9 -59c25 -23 47 -41 71 -41c30 0 38 16 38 55v81
h99v-79c0 -102 -41 -139 -125 -139c-45 0 -83 26 -118 56c-27 -34 -67 -57 -116 -57c-87 0 -133 45 -133 108c0 61 44 107 114 107c41 0 75 -16 104 -36v4c0 64 -34 112 -69 163h-128zM169 60c29 0 52 12 67 33c-25 21 -50 37 -76 37c-23 0 -37 -15 -37 -35
c0 -22 19 -35 46 -35z" />
    <glyph glyph-name="sterling.LP" unicode="&#xe524;" horiz-adv-x="694" 
d="M72 322v78h104c-18 38 -31 82 -31 135c0 122 91 205 220 205c108 0 182 -51 219 -123l-85 -44c-25 51 -68 83 -133 83c-73 0 -123 -51 -123 -119c0 -51 18 -95 40 -137h192v-78h-150c20 -40 36 -81 36 -127c0 -27 -4 -54 -12 -78c34 -27 69 -49 109 -49
c63 0 91 30 91 112v30h98v-42c0 -116 -51 -178 -171 -178c-63 0 -114 32 -159 66c-31 -41 -78 -67 -139 -67c-98 0 -140 46 -140 112c0 63 45 111 122 112c46 0 84 -18 118 -42v8c0 50 -28 94 -59 143h-147zM177 56c34 0 63 18 81 47c-30 22 -59 39 -90 39
c-34 0 -50 -18 -50 -42c0 -26 22 -44 59 -44z" />
    <glyph glyph-name="sterling.LT" unicode="&#xf471;" horiz-adv-x="588" 
d="M61 335v78h78c-19 37 -33 78 -33 129c0 118 87 198 205 198c108 0 174 -51 210 -124l-89 -42c-25 52 -61 80 -121 80c-62 0 -107 -45 -107 -111c0 -48 18 -89 41 -130h210v-78h-166c24 -46 44 -98 44 -163c0 -20 -3 -40 -9 -59c25 -23 47 -41 71 -41c30 0 38 16 38 55v81
h99v-79c0 -102 -41 -139 -125 -139c-45 0 -83 26 -118 56c-27 -34 -67 -57 -116 -57c-87 0 -133 45 -133 108c0 61 44 107 114 107c41 0 75 -16 104 -36v4c0 64 -34 112 -69 163h-128zM169 60c29 0 52 12 67 33c-25 21 -50 37 -76 37c-23 0 -37 -15 -37 -35
c0 -22 19 -35 46 -35z" />
    <glyph glyph-name="summation" unicode="&#x2211;" horiz-adv-x="566" 
d="M37 0v102l246 275l-238 258v95h483v-92h-361l240 -262l-256 -283h377v-93h-491z" />
    <glyph glyph-name="t" unicode="t" horiz-adv-x="403" 
d="M28 499v86h102v111l94 65v-176h137v-86h-137v-272c0 -118 22 -137 137 -137v-90h-14c-171 0 -217 50 -217 226v273h-102z" />
    <glyph glyph-name="t.smcp" unicode="&#xe214;" horiz-adv-x="504" 
d="M206 0v506h-167v90h427v-90h-166v-506h-94z" />
    <glyph glyph-name="t.smcp" unicode="&#xf774;" horiz-adv-x="504" 
d="M206 0v506h-167v90h427v-90h-166v-506h-94z" />
    <glyph glyph-name="tbar" unicode="&#x167;" horiz-adv-x="403" 
d="M28 499v86h101v111l95 65v-176h137v-86h-137v-152h137v-81h-137v-39c0 -118 22 -137 137 -137v-90h-14c-171 0 -218 50 -218 226v40h-101v81h101v152h-101z" />
    <glyph glyph-name="tbar.smcp" unicode="&#xe30d;" horiz-adv-x="504" 
d="M402 246h-102v-246h-94v246h-103v90h103v170h-167v90h427v-90h-166v-170h102v-90z" />
    <glyph glyph-name="tbar.smcp" unicode="&#xf637;" horiz-adv-x="504" 
d="M402 246h-102v-246h-94v246h-103v90h103v170h-167v90h427v-90h-166v-170h102v-90z" />
    <glyph glyph-name="tcaron" unicode="&#x165;" horiz-adv-x="403" 
d="M28 499v86h102v111l94 65v-176h137v-86h-137v-272c0 -118 22 -137 137 -137v-90h-14c-171 0 -217 50 -217 226v273h-102zM268 634l36 176h82l-56 -176h-62z" />
    <glyph glyph-name="tcaron.smcp" unicode="&#xe309;" horiz-adv-x="504" 
d="M207 0v506h-167v90h427v-90h-166v-506h-94zM219 653l-119 163h85l68 -98l70 98h84l-119 -163h-69z" />
    <glyph glyph-name="tcaron.smcp" unicode="&#xf65e;" horiz-adv-x="504" 
d="M207 0v506h-167v90h427v-90h-166v-506h-94zM219 653l-119 163h85l68 -98l70 98h84l-119 -163h-69z" />
    <glyph glyph-name="tcommaaccent" unicode="&#x163;" horiz-adv-x="403" 
d="M28 499v86h102v111l94 65v-176h137v-86h-137v-272c0 -118 22 -137 137 -137v-90h-14c-171 0 -217 50 -217 226v273h-102zM223 -257h-63l40 204h86z" />
    <glyph glyph-name="tcommaaccent.smcp" unicode="&#xe30a;" horiz-adv-x="504" 
d="M234 -260h-63l40 204h86zM207 0v506h-167v90h427v-90h-166v-506h-94z" />
    <glyph glyph-name="tcommaaccent.smcp" unicode="&#xf65f;" horiz-adv-x="504" 
d="M234 -260h-63l40 204h86zM207 0v506h-167v90h427v-90h-166v-506h-94z" />
    <glyph glyph-name="thirteensixteenths" unicode="&#xf221;" horiz-adv-x="1392" 
d="M1214 -6c-90 0 -156 66 -156 150c0 40 15 81 36 112l107 166h97l-87 -132c6 1 12 2 18 2c78 0 141 -61 141 -148c1 -86 -66 -150 -156 -150zM387 0l527 730h112l-527 -730h-112zM435 302c-55 0 -107 17 -143 57l68 55c18 -24 43 -36 73 -36c37 0 63 22 63 55
c0 35 -31 54 -74 54h-43v75h42c43 0 68 22 68 52s-24 50 -62 50c-29 0 -52 -15 -65 -37l-65 46c28 38 79 63 132 63c86 0 144 -47 144 -119c0 -38 -18 -69 -49 -90c36 -20 58 -52 58 -96c0 -73 -55 -129 -147 -129zM26 308v78h83v222c-13 -19 -41 -31 -67 -31h-6v83h3
c56 0 72 40 72 70h81v-344h80v-78h-246zM795 0v78h83v222c-13 -19 -41 -31 -67 -31h-7v83h3c56 0 74 40 74 70h80v-344h79v-78h-245zM1214 71c40 0 74 33 74 75c0 41 -34 73 -74 73c-41 0 -73 -32 -73 -74c0 -41 32 -74 73 -74z" />
    <glyph glyph-name="thorn" unicode="&#xfe;" horiz-adv-x="710" 
d="M373 -12c-93 0 -171 45 -216 108v-365h-92v1123h92v-368c47 65 127 111 218 111c166 0 295 -127 295 -302c0 -176 -132 -307 -297 -307zM365 76c123 0 210 100 210 219c0 117 -85 215 -209 215c-120 0 -213 -97 -213 -217c0 -118 94 -217 212 -217z" />
    <glyph glyph-name="thorn.smcp" unicode="&#xe32d;" horiz-adv-x="502" 
d="M60 0v596h95v-111h115c116 0 194 -82 194 -185c0 -104 -76 -187 -195 -187h-114v-113h-95zM267 397h-112v-194h112c62 0 102 42 102 96c0 56 -40 98 -102 98z" />
    <glyph glyph-name="thorn.smcp" unicode="&#xf7fe;" horiz-adv-x="502" 
d="M60 0v596h95v-111h115c116 0 194 -82 194 -185c0 -104 -76 -187 -195 -187h-114v-113h-95zM267 397h-112v-194h112c62 0 102 42 102 96c0 56 -40 98 -102 98z" />
    <glyph glyph-name="three.LP" unicode="&#xe538;" horiz-adv-x="543" 
d="M260 -10c-93 0 -176 33 -234 103l82 63c37 -50 88 -78 152 -78c87 0 145 53 145 127c0 78 -69 127 -159 127h-72v90h72c90 0 144 49 144 118c0 70 -54 115 -138 115c-62 0 -109 -32 -138 -77l-81 49c44 66 122 113 220 113c144 0 232 -81 232 -199
c0 -72 -36 -128 -96 -161c69 -33 113 -93 113 -175c0 -124 -90 -215 -242 -215z" />
    <glyph glyph-name="three.LT" unicode="&#xe543;" horiz-adv-x="588" 
d="M291 -10c-118 0 -196 40 -256 117l80 62c42 -60 99 -91 176 -91c91 0 154 54 154 129c0 76 -62 124 -153 124h-82v90h81c90 0 142 50 142 119c0 66 -54 115 -143 115c-72 0 -130 -33 -162 -85l-82 49c48 73 137 121 245 121c144 0 237 -81 237 -198
c0 -75 -37 -131 -99 -164c70 -31 113 -89 113 -172c0 -124 -94 -216 -251 -216z" />
    <glyph glyph-name="three.inf" unicode="&#xe574;" horiz-adv-x="324" 
d="M156 -6c-55 0 -107 17 -142 57l67 55c19 -24 44 -36 72 -36c37 0 64 22 64 55c0 35 -31 54 -74 54h-43v75h42c43 0 67 22 67 52s-23 50 -60 50c-30 0 -52 -15 -66 -37l-64 46c28 38 78 63 132 63c86 0 142 -47 142 -119c0 -37 -18 -68 -47 -89c35 -20 57 -53 57 -97
c0 -73 -55 -129 -147 -129z" />
    <glyph glyph-name="threequarteremdash" unicode="&#xe472;" horiz-adv-x="604" 
d="M46 211v83h512v-83h-512z" />
    <glyph glyph-name="threequarteremdash.cap" unicode="&#xe485;" horiz-adv-x="604" 
d="M46 262v83h512v-83h-512z" />
    <glyph glyph-name="threequarters" unicode="&#xbe;" horiz-adv-x="830" 
d="M108 0l527 730h112l-527 -730h-112zM662 0v92h-180v75l178 255h82v-257h61v-73h-61v-92h-80zM156 302c-55 0 -107 17 -142 57l67 55c19 -24 44 -36 72 -36c37 0 64 22 64 55c0 35 -31 54 -74 54h-43v75h42c43 0 67 22 67 52s-23 50 -60 50c-30 0 -52 -15 -66 -37l-64 46
c28 38 78 63 132 63c86 0 142 -47 142 -119c0 -37 -18 -68 -47 -89c35 -20 57 -53 57 -97c0 -73 -55 -129 -147 -129zM569 165h93v133z" />
    <glyph glyph-name="uni2083" unicode="&#x2083;" horiz-adv-x="324" 
d="M156 -6c-55 0 -107 17 -142 57l67 55c19 -24 44 -36 72 -36c37 0 64 22 64 55c0 35 -31 54 -74 54h-43v75h42c43 0 67 22 67 52s-23 50 -60 50c-30 0 -52 -15 -66 -37l-64 46c28 38 78 63 132 63c86 0 142 -47 142 -119c0 -37 -18 -68 -47 -89c35 -20 57 -53 57 -97
c0 -73 -55 -129 -147 -129z" />
    <glyph glyph-name="threesixteenths" unicode="&#xf216;" horiz-adv-x="1113" 
d="M935 -6c-91 0 -156 66 -156 150c0 40 16 81 36 112l107 166h96l-86 -132c6 1 12 2 18 2c78 0 141 -61 141 -148c0 -86 -66 -150 -156 -150zM108 0l527 730h112l-527 -730h-112zM156 302c-55 0 -107 17 -142 57l67 55c19 -24 44 -36 72 -36c37 0 64 22 64 55
c0 35 -31 54 -74 54h-43v75h42c43 0 67 22 67 52s-23 50 -60 50c-30 0 -52 -15 -66 -37l-64 46c28 38 78 63 132 63c86 0 142 -47 142 -119c0 -37 -18 -68 -47 -89c35 -20 57 -53 57 -97c0 -73 -55 -129 -147 -129zM516 0v78h83v222c-13 -19 -41 -31 -67 -31h-6v83h3
c56 0 72 40 72 70h81v-344h80v-78h-246zM934 71c41 0 75 33 75 75c0 41 -34 73 -75 73s-73 -32 -73 -74c0 -41 32 -74 73 -74z" />
    <glyph glyph-name="threesuperior" unicode="&#xb3;" horiz-adv-x="324" 
d="M156 302c-55 0 -107 17 -142 57l67 55c19 -24 44 -36 72 -36c37 0 64 22 64 55c0 35 -31 54 -74 54h-43v75h42c43 0 67 22 67 52s-23 50 -60 50c-30 0 -52 -15 -66 -37l-64 46c28 38 78 63 132 63c86 0 142 -47 142 -119c0 -37 -18 -68 -47 -89c35 -20 57 -53 57 -97
c0 -73 -55 -129 -147 -129z" />
    <glyph glyph-name="trademark" unicode="&#x2122;" horiz-adv-x="669" 
d="M303 440v290h65l95 -124l99 124h60v-290h-69v179l-91 -110l-90 109v-178h-69zM119 440v226h-85v64h237v-64h-83v-226h-69z" />
    <glyph glyph-name="triagdn" unicode="&#x25bc;" horiz-adv-x="897" 
d="M20 730h857l-428 -742z" />
    <glyph glyph-name="triaglf" unicode="&#x25c4;" horiz-adv-x="897" 
d="M797 800v-857l-742 429z" />
    <glyph glyph-name="triagrt" unicode="&#x25ba;" horiz-adv-x="897" 
d="M100 -57v857l742 -428z" />
    <glyph glyph-name="triagup" unicode="&#x25b2;" horiz-adv-x="897" 
d="M877 0h-857l429 742z" />
    <glyph glyph-name="tripleprime" unicode="&#x2034;" horiz-adv-x="433" 
d="M76 500c-7 25 -25 106 -25 146v84h79v-84c0 -39 -18 -122 -25 -146h-29zM202 500c-7 25 -25 106 -25 146v84h80v-84c0 -39 -19 -122 -26 -146h-29zM329 500c-7 25 -26 106 -26 146v84h80v-84c0 -39 -19 -122 -26 -146h-28z" />
    <glyph glyph-name="two.LP" unicode="&#xe537;" horiz-adv-x="565" 
d="M52 0v94c0 118 102 194 198 260c84 60 163 112 163 184c0 67 -50 117 -134 117c-72 0 -121 -44 -151 -108l-84 44c42 88 125 149 235 149c143 0 233 -90 233 -203c0 -114 -99 -183 -193 -248c-86 -59 -168 -115 -168 -195v-1h367v-93h-466z" />
    <glyph glyph-name="two.LT" unicode="&#xe542;" horiz-adv-x="588" 
d="M55 0v94c0 118 107 194 206 260c85 60 170 112 170 184c0 67 -51 117 -138 117c-76 0 -130 -45 -161 -108l-84 43c43 89 130 150 244 150c146 0 239 -90 239 -203s-106 -183 -203 -248c-89 -59 -174 -115 -174 -195v-1h383v-93h-482z" />
    <glyph glyph-name="two.inf" unicode="&#xe573;" horiz-adv-x="336" 
d="M27 0v69c0 76 61 118 115 153c44 27 83 51 83 85c0 27 -21 49 -58 49s-62 -26 -76 -59l-71 37c27 57 77 94 147 94c87 0 144 -53 144 -121c0 -73 -60 -111 -113 -145c-42 -26 -83 -50 -84 -83h196v-79h-283z" />
    <glyph glyph-name="twosuperior" unicode="&#xb2;" horiz-adv-x="336" 
d="M27 308v69c0 76 61 118 115 153c44 27 83 51 83 85c0 27 -21 49 -58 49s-62 -26 -76 -59l-71 37c27 57 77 94 147 94c87 0 144 -53 144 -121c0 -73 -60 -111 -113 -145c-42 -26 -83 -50 -84 -83h196v-79h-283z" />
    <glyph glyph-name="u" unicode="u" horiz-adv-x="636" 
d="M302 -12c-152 0 -240 100 -240 265v332h96v-328c0 -111 50 -184 160 -184c100 0 159 76 159 187v325h95v-585h-93v82c-35 -57 -94 -94 -177 -94z" />
    <glyph glyph-name="u.smcp" unicode="&#xe215;" horiz-adv-x="532" 
d="M266 -8c-125 0 -212 78 -212 210v394h96v-398c0 -71 47 -118 116 -118c68 0 116 47 116 119v397h96v-394c0 -132 -88 -210 -212 -210z" />
    <glyph glyph-name="u.smcp" unicode="&#xf775;" horiz-adv-x="532" 
d="M266 -8c-125 0 -212 78 -212 210v394h96v-398c0 -71 47 -118 116 -118c68 0 116 47 116 119v397h96v-394c0 -132 -88 -210 -212 -210z" />
    <glyph glyph-name="uacute" unicode="&#xfa;" horiz-adv-x="636" 
d="M302 -12c-152 0 -240 100 -240 265v332h96v-328c0 -111 50 -184 160 -184c100 0 159 76 159 187v325h95v-585h-93v82c-35 -57 -94 -94 -177 -94zM268 621l116 163h105l-146 -163h-75z" />
    <glyph glyph-name="uacute.smcp" unicode="&#xe30e;" horiz-adv-x="532" 
d="M212 647l116 163h105l-146 -163h-75zM266 -8c-125 0 -212 78 -212 210v394h96v-398c0 -71 47 -118 116 -118c68 0 116 47 116 119v397h96v-394c0 -132 -88 -210 -212 -210z" />
    <glyph glyph-name="uacute.smcp" unicode="&#xf7fa;" horiz-adv-x="532" 
d="M212 647l116 163h105l-146 -163h-75zM266 -8c-125 0 -212 78 -212 210v394h96v-398c0 -71 47 -118 116 -118c68 0 116 47 116 119v397h96v-394c0 -132 -88 -210 -212 -210z" />
    <glyph glyph-name="ubreve" unicode="&#x16d;" horiz-adv-x="636" 
d="M302 -12c-152 0 -240 100 -240 265v332h96v-328c0 -111 50 -184 160 -184c100 0 159 76 159 187v325h95v-585h-93v82c-35 -57 -94 -94 -177 -94zM322 618c-110 0 -161 73 -161 164h70c0 -63 32 -102 91 -103c58 1 91 40 91 103h71c0 -91 -62 -164 -162 -164z" />
    <glyph glyph-name="ubreve.smcp" unicode="&#xe316;" horiz-adv-x="532" 
d="M266 -8c-125 0 -212 78 -212 210v394h96v-398c0 -71 47 -118 116 -118c68 0 116 47 116 119v397h96v-394c0 -132 -88 -210 -212 -210zM267 642c-110 0 -161 73 -161 164h70c0 -63 32 -102 91 -103c58 1 91 40 91 103h71c0 -91 -62 -164 -162 -164z" />
    <glyph glyph-name="ubreve.smcp" unicode="&#xf638;" horiz-adv-x="532" 
d="M266 -8c-125 0 -212 78 -212 210v394h96v-398c0 -71 47 -118 116 -118c68 0 116 47 116 119v397h96v-394c0 -132 -88 -210 -212 -210zM267 642c-110 0 -161 73 -161 164h70c0 -63 32 -102 91 -103c58 1 91 40 91 103h71c0 -91 -62 -164 -162 -164z" />
    <glyph glyph-name="ucircumflex" unicode="&#xfb;" horiz-adv-x="636" 
d="M302 -12c-152 0 -240 100 -240 265v332h96v-328c0 -111 50 -184 160 -184c100 0 159 76 159 187v325h95v-585h-93v82c-35 -57 -94 -94 -177 -94zM167 642l119 163h69l119 -163h-84l-70 98l-68 -98h-85z" />
    <glyph glyph-name="ucircumflex.smcp" unicode="&#xe300;" horiz-adv-x="532" 
d="M266 -8c-125 0 -212 78 -212 210v394h96v-398c0 -71 47 -118 116 -118c68 0 116 47 116 119v397h96v-394c0 -132 -88 -210 -212 -210zM110 653l119 163h69l119 -163h-84l-70 98l-68 -98h-85z" />
    <glyph glyph-name="ucircumflex.smcp" unicode="&#xf7fb;" horiz-adv-x="532" 
d="M266 -8c-125 0 -212 78 -212 210v394h96v-398c0 -71 47 -118 116 -118c68 0 116 47 116 119v397h96v-394c0 -132 -88 -210 -212 -210zM110 653l119 163h69l119 -163h-84l-70 98l-68 -98h-85z" />
    </font>
</defs>
</svg>
