<?xml version="1.0" standalone="no"?>
<!DOCTYPE svg PUBLIC "-//W3C//DTD SVG 1.1//EN" "http://www.w3.org/Graphics/SVG/1.1/DTD/svg11.dtd" >
<svg xmlns="http://www.w3.org/2000/svg">
<metadata></metadata>
<defs>
<font id="samsungonelatin900" horiz-adv-x="1130" >
<font-face units-per-em="2048" ascent="1588" descent="-460" />
<missing-glyph horiz-adv-x="402" />
<glyph unicode="&#xfb01;" horiz-adv-x="1326" d="M2 844v254h166v76q0 194 121 300t341 106q72 0 128 -10v-250q-56 8 -118 8q-174 0 -174 -154v-76h254v-254h-254v-844h-302v844h-162zM864 1398q0 78 46 122t128 44t128 -44t46 -120q0 -80 -46 -123t-128 -43t-128 44t-46 120zM888 0v1098h302v-1098h-302z" />
<glyph unicode="&#xfb02;" horiz-adv-x="1406" d="M2 844v254h166v76q0 194 121 300t341 106q72 0 128 -10v-250q-56 8 -118 8q-174 0 -174 -154v-76h254v-254h-254v-844h-302v844h-162zM880 290v1250h302v-1184q0 -58 21 -83t69 -25q32 0 64 6l20 -250q-80 -18 -168 -18q-156 0 -232 75t-76 229z" />
<glyph horiz-adv-x="0" />
<glyph horiz-adv-x="0" />
<glyph unicode="&#xd;" horiz-adv-x="0" />
<glyph horiz-adv-x="0" />
<glyph horiz-adv-x="520" />
<glyph unicode="&#x9;" horiz-adv-x="1024" />
<glyph horiz-adv-x="400" />
<glyph unicode=" "  horiz-adv-x="402" />
<glyph unicode="&#x09;" horiz-adv-x="402" />
<glyph unicode="&#xa0;" horiz-adv-x="402" />
<glyph unicode="!" horiz-adv-x="734" d="M184 146q0 82 48 128t136 46q86 0 134 -46t48 -126q0 -82 -48 -128t-134 -46t-135 46t-49 126zM202 1448h330l-46 -994h-238z" />
<glyph unicode="&#x22;" horiz-adv-x="848" d="M84 1448h278l-44 -560h-190zM438 1448h278l-44 -560h-190z" />
<glyph unicode="#" horiz-adv-x="1444" d="M42 344v214h294l56 332h-274v214h310l58 344h240l-58 -344h240l58 344h238l-58 -344h256v-214h-292l-54 -332h264v-214h-300l-58 -344h-240l58 344h-240l-58 -344h-238l58 344h-260zM576 558h240l56 332h-240z" />
<glyph unicode="$" horiz-adv-x="1128" d="M60 140l92 228q88 -46 163 -70t153 -30l2 336l-52 14q-180 50 -259 142t-79 250q0 180 100 289t284 131v188h194v-186q182 -18 350 -90l-90 -230q-154 50 -262 64l-2 -314l54 -16q180 -52 259 -144t79 -252q0 -180 -101 -291t-287 -139v-190h-194v184q-114 10 -218 42 t-186 84zM360 1054q0 -50 27 -82t89 -58v264q-60 -10 -88 -40t-28 -84zM648 550l2 -274q116 24 116 128q0 52 -27 86t-91 60z" />
<glyph unicode="%" horiz-adv-x="1932" d="M88 1024q0 226 87 338t263 112t263 -112t87 -338q0 -228 -86 -339t-264 -111t-264 111t-86 339zM326 1024q0 -130 28 -189t84 -59t83 59t27 189q0 128 -27 187t-83 59t-84 -59t-28 -187zM510 0l672 1448h240l-672 -1448h-240zM1144 424q0 228 86 339t264 111t264 -111 t86 -339q0 -226 -87 -338t-263 -112t-263 112t-87 338zM1384 424q0 -128 27 -187t83 -59t83 59t27 187q0 130 -27 189t-83 59t-83 -59t-27 -189z" />
<glyph unicode="&#x26;" horiz-adv-x="1350" d="M86 340q0 110 47 193t153 161l80 60l-40 42q-76 84 -108 155t-32 159q0 176 110 270t316 94q196 0 305 -88t109 -248q0 -100 -50 -179t-168 -169l-62 -46l182 -194l94 212h278l-168 -376l-18 -36l190 -204l-204 -180l-144 156q-80 -76 -180 -112t-230 -36q-218 0 -339 96 t-121 270zM394 392q0 -150 188 -150q122 0 200 66l-254 272l-48 -34q-46 -36 -66 -71t-20 -83zM476 1106q0 -42 23 -80t87 -108l60 44q66 50 86 78t20 70q0 114 -138 114t-138 -118z" />
<glyph unicode="'" horiz-adv-x="448" d="M84 1448h278l-44 -560h-190z" />
<glyph unicode="(" horiz-adv-x="680" d="M80 682q0 262 86 496t266 462l202 -152q-136 -178 -202 -375t-66 -429t66 -429t202 -375l-202 -152q-180 228 -266 461t-86 493z" />
<glyph unicode=")" horiz-adv-x="680" d="M46 -120q134 178 201 376t67 428t-67 428t-201 376l202 152q180 -228 266 -462t86 -496q0 -260 -86 -493t-266 -461z" />
<glyph unicode="*" horiz-adv-x="1088" d="M92 1022l78 234l274 -112l-24 304h248l-24 -304l274 112l78 -234l-288 -72l192 -232l-194 -154l-162 258l-162 -258l-192 154l192 232z" />
<glyph unicode="+" horiz-adv-x="1166" d="M74 606v262h374v408h270v-408h374v-262h-374v-408h-270v408h-374z" />
<glyph unicode="," horiz-adv-x="512" d="M-10 -250q78 84 110 165t32 199q0 80 -12 166h288q12 -84 12 -162q0 -148 -73 -266t-235 -232z" />
<glyph unicode="-" horiz-adv-x="836" d="M72 494v226h692v-226h-692z" />
<glyph unicode="." horiz-adv-x="544" d="M90 146q0 82 48 128t134 46t134 -46t48 -126q0 -82 -48 -128t-134 -46t-134 46t-48 126z" />
<glyph unicode="/" horiz-adv-x="930" d="M20 -172l656 1676h248l-656 -1676h-248z" />
<glyph unicode="0" horiz-adv-x="1264" d="M108 724q0 390 128 570t394 180q268 0 398 -180t130 -570q0 -388 -130 -569t-396 -181t-395 181t-129 569zM416 722q0 -252 51 -366t165 -114t165 114t51 366q0 254 -52 369t-166 115q-112 0 -163 -116t-51 -368z" />
<glyph unicode="1" horiz-adv-x="940" d="M30 1288l422 160h266v-1448h-304v1144l-298 -102z" />
<glyph unicode="2" horiz-adv-x="1078" d="M34 1318q98 70 230 113t266 43q142 0 246 -51t160 -143t56 -212q0 -114 -56 -218t-190 -246l-326 -344h578v-260h-946v262l472 516q94 102 128 159t34 109q0 72 -50 112t-142 40q-158 0 -330 -106z" />
<glyph unicode="3" d="M28 116l108 238q198 -104 358 -104q112 0 172 56t60 158q0 98 -56 152t-158 54q-52 0 -126 -16l-118 156l392 378h-588v260h914v-260l-298 -280q162 -34 255 -152t93 -292q0 -146 -67 -257t-190 -172t-285 -61q-130 0 -258 39t-208 103z" />
<glyph unicode="4" horiz-adv-x="1180" d="M30 268v258l496 922h426v-922h166v-258h-166v-268h-296v268h-626zM332 526h324v654z" />
<glyph unicode="5" horiz-adv-x="1116" d="M42 108l108 238q88 -48 176 -73t160 -25q112 0 173 60t61 164q0 100 -55 154t-155 54q-102 0 -214 -46l-184 102l34 712h814v-260h-544l-20 -254q70 18 154 18q144 0 253 -58t168 -165t59 -249q0 -152 -67 -266t-190 -177t-283 -63q-128 0 -252 37t-196 97z" />
<glyph unicode="6" horiz-adv-x="1148" d="M76 488q0 184 69 341t237 347l264 302l238 -186l-262 -278l-80 -84q54 12 110 12q132 0 232 -58t155 -164t55 -246q0 -150 -63 -263t-177 -175t-264 -62q-154 0 -271 64t-180 180t-63 270zM380 486q0 -118 55 -184t155 -66q92 0 145 62t53 170q0 112 -57 175t-159 63 q-74 0 -150 -26q-42 -90 -42 -194z" />
<glyph unicode="7" horiz-adv-x="1004" d="M12 1184v264h954v-264l-550 -1206l-284 118l514 1088h-634z" />
<glyph unicode="8" horiz-adv-x="1192" d="M76 388q0 122 77 221t207 145q-108 38 -173 131t-65 205q0 114 58 201t165 135t249 48t250 -48t166 -135t58 -201t-66 -203t-176 -127q130 -38 210 -140t80 -232q0 -122 -65 -216t-182 -146t-273 -52t-274 52t-182 146t-64 216zM376 412q0 -86 58 -136t160 -50t162 50 t60 134q0 72 -60 134t-168 102q-102 -32 -157 -94t-55 -140zM420 1062q0 -62 49 -114t135 -80q80 26 124 76t44 116q0 76 -47 120t-129 44t-129 -43t-47 -119z" />
<glyph unicode="9" horiz-adv-x="1148" d="M56 974q0 150 62 263t176 175t266 62q154 0 270 -64t180 -180t64 -270q0 -184 -70 -340t-238 -348l-264 -302l-236 186l262 278q40 40 78 84q-54 -12 -108 -12q-132 0 -232 58t-155 164t-55 246zM360 980q0 -112 58 -175t160 -63q76 0 148 26q44 88 44 194q0 118 -55 184 t-155 66q-94 0 -147 -62t-53 -170z" />
<glyph unicode=":" horiz-adv-x="624" d="M130 146q0 82 48 128t134 46t134 -46t48 -126q0 -82 -48 -128t-134 -46t-134 46t-48 126zM130 798q0 82 48 128t134 46t134 -46t48 -126q0 -82 -48 -128t-134 -46t-134 46t-48 126z" />
<glyph unicode=";" horiz-adv-x="624" d="M40 -250q78 84 110 165t32 199q0 80 -12 166h288q12 -84 12 -162q0 -148 -73 -266t-235 -232zM130 798q0 82 48 128t134 46t134 -46t48 -126q0 -82 -48 -128t-134 -46t-134 46t-48 126z" />
<glyph unicode="&#x3c;" horiz-adv-x="864" d="M50 730l552 598l212 -202l-374 -396l374 -396l-212 -202z" />
<glyph unicode="=" horiz-adv-x="1168" d="M118 358v266h932v-266h-932zM118 838v264h932v-264h-932z" />
<glyph unicode="&#x3e;" horiz-adv-x="864" d="M50 334l376 396l-376 396l214 202l550 -598l-550 -598z" />
<glyph unicode="?" horiz-adv-x="1054" d="M64 1342q94 62 217 97t247 35q210 0 326 -100t116 -280q0 -104 -44 -176t-160 -158q-102 -78 -136 -122t-34 -100q0 -24 6 -84h-270q-4 88 -4 92q0 124 40 200t150 158q84 66 111 102t27 78q0 112 -154 112q-142 0 -320 -98zM286 146q0 82 48 128t134 46t134 -46t48 -126 q0 -82 -48 -128t-134 -46t-134 46t-48 126z" />
<glyph unicode="@" horiz-adv-x="1638" d="M110 724q0 232 90 407t254 271t380 96q210 0 370 -86t247 -244t87 -364q0 -134 -40 -236t-113 -158t-169 -56q-118 0 -176 84q-68 -98 -216 -98q-154 0 -239 102t-85 288q0 182 93 280t263 98q150 0 260 -78v-392q0 -110 82 -110q66 0 102 72t36 204q0 238 -131 367 t-371 129q-244 0 -379 -151t-135 -425q0 -278 138 -429t394 -151q188 0 326 82l78 -168q-72 -52 -177 -80t-227 -28q-230 0 -398 95t-256 270t-88 409zM700 730q0 -208 148 -208q38 0 74 14v378q-34 12 -72 12q-76 0 -113 -48t-37 -148z" />
<glyph unicode="A" horiz-adv-x="1344" d="M18 0l488 1448h332l486 -1448h-318l-86 294h-502l-84 -294h-316zM492 554h354l-178 610z" />
<glyph unicode="B" horiz-adv-x="1300" d="M144 0v1448h302h238q224 0 347 -107t123 -301q0 -206 -194 -278q140 -40 207 -122t67 -210q0 -206 -128 -318t-360 -112h-434h-168zM446 262h314q166 0 166 172q0 180 -180 180h-300v-352zM446 862h236q166 0 166 158q0 84 -44 125t-136 41h-222v-324z" />
<glyph unicode="C" horiz-adv-x="1206" d="M68 694q0 238 81 414t232 271t353 95q112 0 222 -31t192 -85l-98 -234q-164 78 -314 78q-168 0 -260 -127t-92 -359q0 -462 380 -462q172 0 300 68l96 -230q-68 -56 -177 -86t-239 -30q-322 0 -499 188t-177 530z" />
<glyph unicode="D" horiz-adv-x="1390" d="M144 0v1448h492q324 0 496 -182t172 -540q0 -360 -171 -543t-495 -183h-494zM450 270h180q358 0 358 456q0 452 -354 452h-184v-908z" />
<glyph unicode="E" horiz-adv-x="1158" d="M144 0v1448h936v-270h-630v-304h462v-270h-462v-334h658v-270h-964z" />
<glyph unicode="F" horiz-adv-x="1082" d="M144 0v1448h918v-270h-612v-348h496v-270h-496v-560h-306z" />
<glyph unicode="G" horiz-adv-x="1340" d="M86 724q0 358 181 554t513 196q128 0 244 -30t198 -84l-84 -242q-198 88 -362 88q-378 0 -378 -482t382 -482q82 0 154 18v318h-226v260h528v-744q-86 -56 -206 -88t-250 -32q-332 0 -513 196t-181 554z" />
<glyph unicode="H" horiz-adv-x="1412" d="M144 0v1448h306v-578h512v578h306v-1448h-306v600h-512v-600h-306z" />
<glyph unicode="I" horiz-adv-x="604" d="M148 0v1448h306v-1448h-306z" />
<glyph unicode="J" horiz-adv-x="948" d="M-6 88l100 230q142 -72 252 -72q162 0 162 158v1044h306v-1070q0 -192 -119 -298t-333 -106q-112 0 -206 29t-162 85z" />
<glyph unicode="K" horiz-adv-x="1286" d="M144 0v1448h306v-654l484 654h356l-502 -622l534 -826h-360l-366 586l-146 -178v-408h-306z" />
<glyph unicode="L" horiz-adv-x="1064" d="M144 0v1448h306v-1178h570v-270h-876z" />
<glyph unicode="M" horiz-adv-x="1722" d="M144 0v1448h370l348 -886l340 886h374v-1448h-296v970l-268 -694h-304l-272 694v-970h-292z" />
<glyph unicode="N" horiz-adv-x="1456" d="M144 0v1448h296l572 -940v940h300v-1448h-296l-572 942v-942h-300z" />
<glyph unicode="O" horiz-adv-x="1436" d="M86 724q0 372 163 561t469 189t469 -189t163 -561t-163 -561t-469 -189t-469 189t-163 561zM400 724q0 -480 318 -480t318 480t-318 480t-318 -480z" />
<glyph unicode="P" horiz-adv-x="1202" d="M144 0v1448h306h244q236 0 366 -132t130 -372q0 -242 -133 -376t-377 -134h-230v-434h-306zM450 702h244q184 0 184 236q0 242 -198 242h-230v-478z" />
<glyph unicode="Q" horiz-adv-x="1436" d="M86 724q0 372 163 561t469 189t469 -189t163 -561q0 -426 -214 -612l242 -256l-190 -188l-282 326q-82 -20 -188 -20q-306 0 -469 189t-163 561zM400 724q0 -480 318 -480t318 480t-318 480t-318 -480z" />
<glyph unicode="R" horiz-adv-x="1274" d="M144 0v1448h306h226q236 0 364 -125t128 -353q0 -162 -66 -276t-192 -166l354 -528h-362l-298 486h-154v-486h-306zM450 742h226q180 0 180 220q0 222 -188 222h-218v-442z" />
<glyph unicode="S" d="M50 110l92 236q196 -110 394 -110q234 0 234 154q0 64 -44 105t-140 69l-164 46q-186 50 -269 147t-83 263q0 214 129 333t363 119q112 0 232 -26t230 -74l-94 -238q-214 78 -372 78q-198 0 -198 -140q0 -64 43 -104t139 -68l164 -46q188 -50 271 -148t83 -264 q0 -222 -137 -344t-387 -122q-134 0 -261 35t-225 99z" />
<glyph unicode="T" horiz-adv-x="1076" d="M28 1178v270h662h356v-270h-356v-1178h-306v1178h-356z" />
<glyph unicode="U" horiz-adv-x="1380" d="M134 496v952h306v-928q0 -276 248 -276q126 0 188 68t62 208v928h306v-952q0 -250 -145 -386t-411 -136q-264 0 -409 137t-145 385z" />
<glyph unicode="V" horiz-adv-x="1270" d="M26 1448h320l294 -1132l288 1132h316l-442 -1448h-332z" />
<glyph unicode="W" horiz-adv-x="1804" d="M30 1448h314l196 -1090l200 1082h324l204 -1082l196 1090h308l-340 -1448h-332l-200 1038l-200 -1038h-330z" />
<glyph unicode="X" horiz-adv-x="1224" d="M22 0l420 736l-404 712h338l244 -464l246 464h332l-416 -714l420 -734h-338l-258 484l-252 -484h-332z" />
<glyph unicode="Y" horiz-adv-x="1188" d="M10 1448h324l264 -654l260 654h318l-432 -980v-468h-306v468z" />
<glyph unicode="Z" horiz-adv-x="1114" d="M60 0v266l630 918h-602v264h950v-264l-630 -920h644v-264h-992z" />
<glyph unicode="[" horiz-adv-x="724" d="M144 -240v1852h550v-228h-276v-1394h276v-230h-550z" />
<glyph unicode="\" horiz-adv-x="930" d="M8 1504h246l656 -1676h-248z" />
<glyph unicode="]" horiz-adv-x="724" d="M30 -10h276v1394h-276v228h548v-1852h-548v230z" />
<glyph unicode="^" horiz-adv-x="916" d="M4 988l332 460h244l332 -460h-278l-174 272l-180 -272h-276z" />
<glyph unicode="_" horiz-adv-x="1202" d="M144 -106h914v-236h-914v236z" />
<glyph unicode="`" horiz-adv-x="1000" d="M190 1548v20h304l170 -318v-20h-222z" />
<glyph unicode="a" horiz-adv-x="1074" d="M40 306q0 196 147 288t473 98v32q0 72 -48 106t-148 34q-128 0 -260 -54l-70 224q192 90 390 90q206 0 319 -95t113 -267v-762h-266v162q-104 -184 -324 -184q-154 0 -240 87t-86 241zM320 338q0 -112 128 -112q120 0 212 98v182q-178 -4 -259 -44t-81 -124z" />
<glyph unicode="b" horiz-adv-x="1166" d="M132 0v1540h302v-556q102 140 276 140q186 0 288 -149t102 -421q0 -276 -102 -428t-290 -152q-92 0 -171 39t-129 111h-4v-124h-272zM434 320q38 -40 84 -61t94 -21q182 0 182 302q0 312 -190 312q-46 0 -87 -19t-83 -63v-450z" />
<glyph unicode="c" horiz-adv-x="966" d="M62 530q0 178 65 312t185 208t278 74q92 0 180 -26t154 -72l-98 -230q-144 60 -236 60q-106 0 -163 -81t-57 -229q0 -300 246 -300q110 0 226 58l94 -226q-132 -102 -340 -102q-254 0 -394 145t-140 409z" />
<glyph unicode="d" horiz-adv-x="1166" d="M66 544q0 276 102 428t290 152q82 0 152 -30t122 -88v534h302v-1540h-272v160q-108 -186 -306 -186q-186 0 -288 149t-102 421zM372 556q0 -310 190 -310q46 0 87 19t83 63v450q-38 40 -84 61t-94 21q-182 0 -182 -304z" />
<glyph unicode="e" horiz-adv-x="1092" d="M62 548q0 274 130 425t368 151q226 0 350 -138t124 -390q0 -80 -14 -138h-656q36 -218 264 -218q128 0 264 60l98 -222q-82 -50 -185 -76t-211 -26q-252 0 -392 150t-140 422zM362 646h384q-4 106 -54 164t-138 58q-166 0 -192 -222z" />
<glyph unicode="f" horiz-adv-x="752" d="M2 844v254h166v76q0 194 121 300t341 106q72 0 128 -10v-250q-56 8 -118 8q-174 0 -174 -154v-76h254v-254h-254v-844h-302v844h-162z" />
<glyph unicode="g" horiz-adv-x="1170" d="M66 574q0 262 104 406t292 144q96 0 174 -40t130 -116v130h272v-1046q0 -234 -135 -363t-381 -129q-100 0 -199 22t-179 62l78 232q140 -58 264 -58q250 0 250 234v122q-102 -140 -276 -140q-188 0 -291 141t-103 399zM372 586q0 -280 194 -280q48 0 89 19t81 63v390 q-76 82 -178 82q-186 0 -186 -274z" />
<glyph unicode="h" horiz-adv-x="1184" d="M132 0v1540h302v-552q126 136 306 136q154 0 238 -93t84 -265v-766h-302v718q0 132 -146 132q-96 0 -180 -66v-784h-302z" />
<glyph unicode="i" horiz-adv-x="574" d="M112 1398q0 78 46 122t128 44t128 -44t46 -120q0 -80 -46 -123t-128 -43t-128 44t-46 120zM136 0v1098h302v-1098h-302z" />
<glyph unicode="j" horiz-adv-x="574" d="M-152 -210q118 40 179 80t85 95t24 145v988h302v-1000q0 -154 -45 -252t-150 -167t-299 -131zM112 1398q0 78 46 122t128 44t128 -44t46 -120q0 -80 -46 -123t-128 -43t-128 44t-46 120z" />
<glyph unicode="k" horiz-adv-x="1146" d="M132 0v1540h300v-884l342 442h340l-380 -462l410 -636h-342l-260 416l-110 -128v-288h-300z" />
<glyph unicode="l" horiz-adv-x="654" d="M128 290v1250h302v-1184q0 -58 21 -83t69 -25q32 0 64 6l20 -250q-80 -18 -168 -18q-156 0 -232 75t-76 229z" />
<glyph unicode="m" horiz-adv-x="1780" d="M132 0v1098h272v-144q134 170 330 170q102 0 174 -45t108 -131q138 176 330 176q148 0 230 -94t82 -264v-766h-302v718q0 132 -136 132q-46 0 -87 -16t-85 -50v-18v-766h-302v718q0 132 -138 132q-46 0 -87 -16t-87 -50v-784h-302z" />
<glyph unicode="n" horiz-adv-x="1180" d="M132 0v1098h272v-144q138 170 334 170q152 0 236 -93t84 -265v-766h-302v718q0 132 -144 132q-50 0 -92 -16t-86 -50v-784h-302z" />
<glyph unicode="o" d="M66 548q0 284 130 430t370 146q238 0 367 -146t129 -430t-129 -429t-369 -145t-369 145t-129 429zM372 548q0 -312 192 -312q194 0 194 312q0 314 -192 314q-194 0 -194 -314z" />
<glyph unicode="p" horiz-adv-x="1166" d="M132 -414v1512h272v-160q108 186 306 186q186 0 288 -149t102 -421q0 -276 -102 -428t-290 -152q-82 0 -152 30t-122 88v-506h-302zM434 320q38 -40 84 -61t94 -21q182 0 182 302q0 312 -190 312q-46 0 -87 -19t-83 -63v-450z" />
<glyph unicode="q" horiz-adv-x="1166" d="M66 544q0 276 102 428t290 152q94 0 173 -39t129 -113h2v126h272v-1512h-302v528q-102 -140 -276 -140q-186 0 -288 149t-102 421zM372 556q0 -310 190 -310q46 0 87 19t83 63v450q-38 40 -84 61t-94 21q-182 0 -182 -304z" />
<glyph unicode="r" horiz-adv-x="816" d="M132 0v1098h272v-178q96 200 284 200q66 0 116 -26l-52 -276q-64 16 -132 16q-64 0 -109 -21t-77 -67v-746h-302z" />
<glyph unicode="s" horiz-adv-x="944" d="M32 86l94 234q154 -92 324 -92q160 0 160 88q0 36 -29 60t-93 38l-142 34q-156 36 -226 111t-70 205q0 170 111 264t315 94q102 0 204 -25t184 -71l-98 -226q-162 70 -294 70q-72 0 -106 -19t-34 -59q0 -34 29 -57t93 -37l142 -32q156 -38 226 -113t70 -207 q0 -176 -116 -273t-326 -97q-116 0 -226 29t-192 81z" />
<glyph unicode="t" horiz-adv-x="818" d="M16 844v254h166v296h298v-296h294v-254h-294v-456q0 -76 34 -109t110 -33q54 0 118 16l44 -250q-106 -28 -212 -28q-396 0 -396 348v512h-162z" />
<glyph unicode="u" horiz-adv-x="1164" d="M118 330v768h302v-718q0 -132 138 -132q50 0 91 19t81 61v770h302v-1098h-272v158q-126 -184 -328 -184q-150 0 -232 93t-82 263z" />
<glyph unicode="v" horiz-adv-x="1056" d="M16 1098h302l214 -806l210 806h298l-350 -1098h-324z" />
<glyph unicode="w" horiz-adv-x="1590" d="M20 1098h300l162 -794l160 788h310l166 -788l156 794h294l-292 -1098h-324l-160 748l-154 -748h-322z" />
<glyph unicode="x" horiz-adv-x="1032" d="M10 0l344 560l-328 538h324l174 -310l178 310h316l-340 -540l344 -558h-324l-188 330l-182 -330h-318z" />
<glyph unicode="y" horiz-adv-x="1050" d="M16 1098h302l210 -792l208 792h296l-326 -1036q-62 -196 -197 -315t-383 -193l-100 248q136 46 214 92t128 106z" />
<glyph unicode="z" horiz-adv-x="948" d="M48 0v246l500 606h-478v246h812v-246l-498 -606h512v-246h-848z" />
<glyph unicode="{" horiz-adv-x="774" d="M8 574v228q114 2 169 40t55 118v188q0 152 41 243t139 148t278 97l60 -216q-102 -24 -153 -55t-72 -81t-21 -138v-186q0 -222 -178 -270q178 -52 178 -274v-192q0 -88 21 -138t72 -82t153 -56l-60 -216q-180 42 -278 99t-139 148t-41 243v194q0 80 -55 118t-169 40z" />
<glyph unicode="|" horiz-adv-x="512" d="M144 -500v2132h224v-2132h-224z" />
<glyph unicode="}" horiz-adv-x="774" d="M24 -52q102 24 153 56t72 82t21 138v192q0 222 178 274q-178 48 -178 270v186q0 88 -21 138t-72 81t-153 55l60 216q180 -40 278 -97t139 -148t41 -243v-188q0 -80 55 -118t169 -40v-228q-114 -2 -169 -40t-55 -118v-194q0 -152 -41 -243t-139 -148t-278 -99z" />
<glyph unicode="~" horiz-adv-x="1168" d="M72 722q158 194 338 194q58 0 102 -17t96 -49q44 -26 74 -39t64 -13q46 0 87 25t89 83l174 -178q-158 -194 -338 -194q-58 0 -102 17t-96 49q-46 26 -75 38t-63 12q-46 0 -87 -25t-89 -83z" />
<glyph unicode="&#xa1;" horiz-adv-x="734" d="M184 928q0 82 48 128t134 46t135 -46t49 -126q0 -82 -48 -128t-136 -46q-86 0 -134 46t-48 126zM202 -372l46 994h238l46 -994h-330z" />
<glyph unicode="&#xa2;" horiz-adv-x="980" d="M62 566q0 212 116 352t314 170v228h194v-230q140 -18 240 -86l-98 -226q-80 34 -142 48v-504q84 8 160 46l92 -216q-102 -74 -252 -92v-226h-194v228q-208 26 -319 157t-111 351zM358 570q0 -100 33 -159t103 -81v490q-136 -48 -136 -250z" />
<glyph unicode="&#xa3;" horiz-adv-x="1076" d="M90 602v248h142q-28 60 -43 113t-15 123q0 186 116 287t326 101q118 0 223 -33t173 -91l-138 -240q-144 88 -254 88q-142 0 -142 -136q0 -42 13 -82t28 -78t21 -52h340v-248h-288q-6 -94 -53 -175t-145 -161h618v-266h-902v264l56 50q78 70 108 131t30 143v14h-214z" />
<glyph unicode="&#xa4;" horiz-adv-x="1200" d="M66 124l138 170q-94 124 -94 332q0 206 94 330l-138 170l150 116l134 -166q110 50 250 50t250 -50l134 166l148 -116l-136 -170q94 -124 94 -330q0 -208 -94 -332l136 -170l-148 -116l-134 166q-110 -50 -250 -50t-250 50l-134 -166zM398 626q0 -120 51 -180t151 -60 q200 0 200 240q0 238 -200 238q-202 0 -202 -238z" />
<glyph unicode="&#xa5;" horiz-adv-x="1088" d="M10 1448h320l222 -666l210 666h316l-310 -762h190v-186h-266v-122h266v-186h-266v-192h-302v192h-264v186h264v122h-264v186h190z" />
<glyph unicode="&#xa6;" horiz-adv-x="512" d="M144 408h224v-908h-224v908zM144 726v906h224v-906h-224z" />
<glyph unicode="&#xa7;" horiz-adv-x="1078" d="M98 -318l98 248q212 -94 338 -94q156 0 156 138q0 54 -32 88t-114 58l-124 34q-168 46 -245 135t-77 231q0 164 94 282q-82 88 -82 242q0 204 117 316t333 112q96 0 196 -22t186 -64l-98 -238q-174 62 -288 62q-160 0 -160 -142q0 -58 32 -90t110 -54l124 -32 q166 -46 243 -135t77 -235q0 -160 -90 -278q84 -90 84 -252q0 -200 -115 -309t-327 -109q-110 0 -224 28t-212 80zM366 576q0 -68 40 -107t138 -69l124 -36l18 -4q26 50 26 110q0 68 -39 107t-135 67l-124 36l-20 6q-28 -48 -28 -110z" />
<glyph unicode="&#xa8;" horiz-adv-x="1000" d="M148 1396q0 72 40 111t112 39t112 -40t40 -108q0 -72 -41 -112t-113 -40q-70 0 -110 41t-40 109zM548 1396q0 72 40 111t112 39t112 -40t40 -108q0 -72 -40 -112t-112 -40t-112 41t-40 109z" />
<glyph unicode="&#xa9;" horiz-adv-x="1686" d="M144 724q0 236 85 404t243 257t372 89q212 0 370 -89t243 -257t85 -404t-85 -404t-243 -257t-370 -89q-214 0 -372 89t-243 257t-85 404zM322 724q0 -276 136 -427t386 -151q248 0 384 151t136 427t-136 427t-384 151q-250 0 -386 -151t-136 -427zM532 712q0 178 90 279 t250 101q64 0 122 -16t98 -46l-70 -150q-84 38 -150 38q-142 0 -142 -196q0 -192 158 -192q72 0 146 40l66 -150q-86 -64 -222 -64q-164 0 -255 94t-91 262z" />
<glyph unicode="&#xaa;" horiz-adv-x="1034" d="M100 840q0 148 126 214t404 64v28q0 50 -37 74t-117 24q-118 0 -244 -46l-60 186q82 36 175 56t179 20q168 0 260 -68t92 -192v-560q-74 -38 -175 -58t-209 -20q-188 0 -291 72t-103 206zM164 202v200h684v-200h-684zM346 854q0 -92 150 -92q74 0 134 14v194 q-150 2 -217 -26t-67 -90z" />
<glyph unicode="&#xab;" horiz-adv-x="1240" d="M24 596l496 568l178 -172l-350 -394l350 -400l-180 -172zM540 596l496 568l178 -172l-350 -394l350 -400l-180 -172z" />
<glyph unicode="&#xac;" horiz-adv-x="1172" d="M102 778v266h968v-266v-354h-272v354h-696z" />
<glyph unicode="&#xad;" horiz-adv-x="836" d="M72 494v226h692v-226h-692z" />
<glyph unicode="&#xae;" horiz-adv-x="1686" d="M144 724q0 236 85 404t243 257t372 89q212 0 370 -89t243 -257t85 -404t-85 -404t-243 -257t-370 -89q-214 0 -372 89t-243 257t-85 404zM322 724q0 -276 136 -427t386 -151q248 0 384 151t136 427t-136 427t-384 151q-250 0 -386 -151t-136 -427zM592 370v710h272 q120 0 187 -66t67 -184q0 -154 -110 -216l140 -244h-206l-108 212h-62v-212h-180zM772 734h82q78 0 78 96q0 92 -80 92h-80v-188z" />
<glyph unicode="&#xaf;" horiz-adv-x="1000" d="M164 1270v198h672v-198h-672z" />
<glyph unicode="&#xb0;" horiz-adv-x="920" d="M68 1082q0 114 49 203t138 138t205 49t205 -49t138 -138t49 -203t-49 -202t-138 -137t-205 -49t-205 49t-138 137t-49 202zM312 1082q0 -70 41 -113t107 -43t107 43t41 113t-41 113t-107 43t-107 -43t-41 -113z" />
<glyph unicode="&#xb1;" horiz-adv-x="1168" d="M74 94v256h1020v-256h-1020zM76 802v260h372v346h272v-346h372v-260h-372v-348h-272v348h-372z" />
<glyph unicode="&#xb2;" horiz-adv-x="790" d="M52 1452q166 102 354 102q152 0 233 -69t81 -181q0 -82 -41 -154t-133 -154l-190 -170h368v-186h-662l2 186l316 298q64 58 87 92t23 62q0 34 -31 53t-89 19q-98 0 -228 -70z" />
<glyph unicode="&#xb3;" horiz-adv-x="814" d="M34 716l82 174q138 -66 240 -66q74 0 112 30t38 80q0 48 -35 74t-101 26q-46 0 -86 -14l-86 120l262 210h-388v188h628v-188l-184 -144q102 -24 162 -96t60 -176q0 -140 -104 -225t-276 -85q-88 0 -176 25t-148 67z" />
<glyph unicode="&#xb4;" horiz-adv-x="1000" d="M342 1230v20l188 318h302v-20l-266 -318h-224z" />
<glyph unicode="&#xb5;" horiz-adv-x="1188" d="M132 -414v850v662h302v-718q0 -66 36 -100t104 -34q54 0 97 19t83 63v770h302v-1098h-272v158q-112 -168 -302 -168q-34 0 -48 2v-406h-302z" />
<glyph unicode="&#xb6;" horiz-adv-x="1154" d="M26 1022q0 202 127 314t361 112h496v-1448h-206v1260h-136v-1260h-198v598q-212 10 -328 120t-116 304z" />
<glyph unicode="&#xb7;" horiz-adv-x="544" d="M90 682q0 82 47 127t135 45q86 0 134 -45t48 -125q0 -82 -48 -128t-134 -46t-134 46t-48 126z" />
<glyph unicode="&#xb8;" horiz-adv-x="1000" d="M238 -434l42 132q98 -32 170 -32q100 0 100 58q0 56 -86 56q-42 0 -76 -14l-64 72l82 202l188 -12l-98 -128q32 4 48 4q110 0 169 -45t59 -127q0 -104 -74 -160t-210 -56q-134 0 -250 50z" />
<glyph unicode="&#xb9;" horiz-adv-x="642" d="M34 1442l280 96h198v-898h-228v674l-186 -56z" />
<glyph unicode="&#xba;" horiz-adv-x="1046" d="M106 1012q0 222 110 336t308 114t307 -114t109 -336q0 -224 -109 -338t-309 -114q-198 0 -307 115t-109 337zM184 202v200h682v-200h-682zM360 1012q0 -240 164 -240q162 0 162 240q0 238 -160 238q-166 0 -166 -238z" />
<glyph unicode="&#xbb;" horiz-adv-x="1240" d="M24 198l350 394l-350 400l180 172l494 -570l-496 -568zM542 198l350 394l-350 400l180 172l494 -570l-496 -568z" />
<glyph unicode="&#xbc;" horiz-adv-x="1926" d="M34 1350l280 96h198v-898h-228v674l-186 -56zM372 54l790 1448l188 -108l-790 -1446zM1110 172v190l328 538h318v-538h112v-190h-112v-170h-220v170h-426zM1328 362h208v362z" />
<glyph unicode="&#xbd;" horiz-adv-x="1950" d="M34 1350l280 96h198v-898h-228v674l-186 -56zM372 54l790 1448l188 -108l-790 -1446zM1212 814q160 102 354 102q152 0 233 -68t81 -182q0 -82 -41 -154t-133 -154l-190 -170h368v-186h-662l2 186l316 298q64 58 87 92t23 62q0 36 -30 55t-90 19q-92 0 -228 -70z" />
<glyph unicode="&#xbe;" horiz-adv-x="2136" d="M34 626l82 174q142 -68 240 -68q72 0 111 30t39 80q0 48 -35 74t-101 26q-46 0 -86 -12l-86 120l264 210h-390v186h628v-188l-184 -142q104 -26 163 -98t59 -176q0 -140 -104 -225t-276 -85q-88 0 -176 25t-148 69zM584 54l790 1448l188 -108l-790 -1446zM1322 172v190 l328 538h318v-538h112v-190h-112v-170h-220v170h-426zM1540 362h208v362z" />
<glyph unicode="&#xbf;" horiz-adv-x="960" d="M84 -18q0 104 44 176t160 160q102 76 136 120t34 100q0 24 -6 84h270q6 -66 6 -92q0 -122 -40 -198t-150 -160q-86 -66 -113 -101t-27 -79q0 -112 154 -112q146 0 320 98l118 -244q-94 -62 -216 -97t-248 -35q-210 0 -326 100t-116 280zM404 928q0 82 48 128t134 46 t134 -46t48 -126q0 -82 -48 -128t-134 -46t-134 46t-48 126z" />
<glyph unicode="&#xc0;" horiz-adv-x="1344" d="M18 0l488 1448h332l486 -1448h-318l-86 294h-502l-84 -294h-316zM256 1828v24h326l270 -266v-24h-246zM492 554h354l-178 610z" />
<glyph unicode="&#xc1;" horiz-adv-x="1344" d="M18 0l488 1448h332l486 -1448h-318l-86 294h-502l-84 -294h-316zM490 1562v24l288 266h324v-24l-366 -266h-246zM492 554h354l-178 610z" />
<glyph unicode="&#xc2;" horiz-adv-x="1344" d="M18 0l488 1448h332l486 -1448h-318l-86 294h-502l-84 -294h-316zM296 1562v24l234 266h284l234 -266v-24h-216l-164 146l-162 -146h-210zM492 554h354l-178 610z" />
<glyph unicode="&#xc3;" horiz-adv-x="1344" d="M18 0l488 1448h332l486 -1448h-318l-86 294h-502l-84 -294h-316zM294 1572q4 148 65 229t171 81q54 0 93 -17t91 -49q32 -22 54 -33t44 -11q66 0 78 106h160q-4 -148 -65 -229t-171 -81q-54 0 -94 18t-90 50q-32 22 -53 33t-45 11q-66 0 -76 -108h-162zM492 554h354 l-178 610z" />
<glyph unicode="&#xc4;" horiz-adv-x="1344" d="M18 0l488 1448h332l486 -1448h-318l-86 294h-502l-84 -294h-316zM306 1712q0 72 40 111t112 39t112 -40t40 -108q0 -74 -40 -113t-112 -39t-112 40t-40 110zM492 554h354l-178 610zM732 1712q0 72 40 111t112 39t112 -40t40 -108q0 -74 -40 -113t-112 -39t-112 40 t-40 110z" />
<glyph unicode="&#xc5;" horiz-adv-x="1344" d="M18 0l488 1448h332l486 -1448h-318l-86 294h-502l-84 -294h-316zM392 1776q0 116 73 180t207 64t207 -64t73 -180t-73 -179t-207 -63t-207 63t-73 179zM492 554h354l-178 610zM570 1776q0 -104 102 -104t102 104t-102 104t-102 -104z" />
<glyph unicode="&#xc6;" horiz-adv-x="1886" d="M-12 0l730 1448h302h788v-270h-602v-304h434v-270h-434v-334h630v-270h-926v276h-468l-136 -276h-318zM570 534h340v690z" />
<glyph unicode="&#xc7;" horiz-adv-x="1206" d="M68 694q0 238 81 414t232 271t353 95q112 0 222 -31t192 -85l-98 -234q-164 78 -314 78q-168 0 -260 -127t-92 -359q0 -462 380 -462q172 0 300 68l96 -230q-66 -54 -173 -84t-233 -32l-58 -78q24 6 48 6q110 0 169 -45t59 -127q0 -104 -74 -160t-210 -56q-134 0 -250 50 l42 132q98 -32 170 -32q100 0 100 58q0 56 -86 56q-42 0 -76 -14l-64 72l62 152q-250 44 -384 225t-134 479z" />
<glyph unicode="&#xc8;" horiz-adv-x="1158" d="M144 0v1448h936v-270h-630v-304h462v-270h-462v-334h658v-270h-964zM194 1828v24h326l270 -266v-24h-246z" />
<glyph unicode="&#xc9;" horiz-adv-x="1158" d="M144 0v1448h936v-270h-630v-304h462v-270h-462v-334h658v-270h-964zM428 1562v24l288 266h324v-24l-366 -266h-246z" />
<glyph unicode="&#xca;" horiz-adv-x="1158" d="M144 0v1448h936v-270h-630v-304h462v-270h-462v-334h658v-270h-964zM234 1562v24l234 266h284l234 -266v-24h-216l-164 146l-162 -146h-210z" />
<glyph unicode="&#xcb;" horiz-adv-x="1158" d="M144 0v1448h936v-270h-630v-304h462v-270h-462v-334h658v-270h-964zM244 1712q0 72 40 111t112 39t112 -40t40 -108q0 -74 -40 -113t-112 -39t-112 40t-40 110zM670 1712q0 72 40 111t112 39t112 -40t40 -108q0 -74 -40 -113t-112 -39t-112 40t-40 110z" />
<glyph unicode="&#xcc;" horiz-adv-x="604" d="M-114 1828v24h326l270 -266v-24h-246zM148 0v1448h306v-1448h-306z" />
<glyph unicode="&#xcd;" horiz-adv-x="604" d="M120 1562v24l288 266h324v-24l-366 -266h-246zM148 0v1448h306v-1448h-306z" />
<glyph unicode="&#xce;" horiz-adv-x="604" d="M-74 1562v24l234 266h284l234 -266v-24h-216l-164 146l-162 -146h-210zM148 0v1448h306v-1448h-306z" />
<glyph unicode="&#xcf;" horiz-adv-x="604" d="M-64 1712q0 72 40 111t112 39t112 -40t40 -108q0 -74 -40 -113t-112 -39t-112 40t-40 110zM148 0v1448h306v-1448h-306zM362 1712q0 72 40 111t112 39t112 -40t40 -108q0 -74 -40 -113t-112 -39t-112 40t-40 110z" />
<glyph unicode="&#xd0;" horiz-adv-x="1398" d="M28 622v222h126v604h490q326 0 497 -182t171 -540q0 -360 -171 -543t-495 -183h-492v622h-126zM460 270h178q360 0 360 456q0 452 -356 452h-182v-334h292v-222h-292v-352z" />
<glyph unicode="&#xd1;" horiz-adv-x="1456" d="M144 0v1448h296l572 -940v940h300v-1448h-296l-572 942v-942h-300zM350 1572q4 148 65 229t171 81q54 0 93 -17t91 -49q32 -22 54 -33t44 -11q66 0 78 106h160q-4 -148 -65 -229t-171 -81q-54 0 -94 17t-90 51q-32 22 -53 33t-45 11q-66 0 -76 -108h-162z" />
<glyph unicode="&#xd2;" horiz-adv-x="1436" d="M86 724q0 372 163 561t469 189t469 -189t163 -561t-163 -561t-469 -189t-469 189t-163 561zM302 1828v24h326l270 -266v-24h-246zM400 724q0 -480 318 -480t318 480t-318 480t-318 -480z" />
<glyph unicode="&#xd3;" horiz-adv-x="1436" d="M86 724q0 372 163 561t469 189t469 -189t163 -561t-163 -561t-469 -189t-469 189t-163 561zM400 724q0 -480 318 -480t318 480t-318 480t-318 -480zM536 1562v24l288 266h324v-24l-366 -266h-246z" />
<glyph unicode="&#xd4;" horiz-adv-x="1436" d="M86 724q0 372 163 561t469 189t469 -189t163 -561t-163 -561t-469 -189t-469 189t-163 561zM342 1562v24l234 266h284l234 -266v-24h-216l-164 146l-162 -146h-210zM400 724q0 -480 318 -480t318 480t-318 480t-318 -480z" />
<glyph unicode="&#xd5;" horiz-adv-x="1436" d="M86 724q0 372 163 561t469 189t469 -189t163 -561t-163 -561t-469 -189t-469 189t-163 561zM340 1572q4 148 65 229t171 81q54 0 93 -17t91 -49q32 -22 54 -33t44 -11q66 0 78 106h160q-4 -148 -65 -229t-171 -81q-54 0 -94 18t-90 50q-32 22 -53 33t-45 11 q-66 0 -76 -108h-162zM400 724q0 -480 318 -480t318 480t-318 480t-318 -480z" />
<glyph unicode="&#xd6;" horiz-adv-x="1436" d="M86 724q0 372 163 561t469 189t469 -189t163 -561t-163 -561t-469 -189t-469 189t-163 561zM352 1712q0 72 40 111t112 39t112 -40t40 -108q0 -74 -40 -113t-112 -39t-112 40t-40 110zM400 724q0 -480 318 -480t318 480t-318 480t-318 -480zM778 1712q0 72 40 111t112 39 t112 -40t40 -108q0 -74 -40 -113t-112 -39t-112 40t-40 110z" />
<glyph unicode="&#xd7;" horiz-adv-x="1162" d="M104 434l290 302l-290 302l188 194l288 -302l288 302l190 -194l-290 -302l290 -302l-190 -194l-288 302l-288 -302z" />
<glyph unicode="&#xd8;" horiz-adv-x="1436" d="M32 4l180 220q-126 190 -126 500q0 372 163 561t469 189q226 0 378 -112l78 106h230v-24l-180 -220q126 -190 126 -500q0 -372 -163 -561t-469 -189q-226 0 -378 112l-78 -106h-230v24zM390 724q0 -144 24 -244l518 664q-76 70 -214 70q-328 0 -328 -490zM504 304 q76 -70 214 -70q328 0 328 490q0 146 -24 244z" />
<glyph unicode="&#xd9;" horiz-adv-x="1380" d="M134 496v952h306v-928q0 -276 248 -276q126 0 188 68t62 208v928h306v-952q0 -250 -145 -386t-411 -136q-264 0 -409 137t-145 385zM274 1828v24h326l270 -266v-24h-246z" />
<glyph unicode="&#xda;" horiz-adv-x="1380" d="M134 496v952h306v-928q0 -276 248 -276q126 0 188 68t62 208v928h306v-952q0 -250 -145 -386t-411 -136q-264 0 -409 137t-145 385zM508 1562v24l288 266h324v-24l-366 -266h-246z" />
<glyph unicode="&#xdb;" horiz-adv-x="1380" d="M134 496v952h306v-928q0 -276 248 -276q126 0 188 68t62 208v928h306v-952q0 -250 -145 -386t-411 -136q-264 0 -409 137t-145 385zM314 1562v24l234 266h284l234 -266v-24h-216l-164 146l-162 -146h-210z" />
<glyph unicode="&#xdc;" horiz-adv-x="1380" d="M134 496v952h306v-928q0 -276 248 -276q126 0 188 68t62 208v928h306v-952q0 -250 -145 -386t-411 -136q-264 0 -409 137t-145 385zM324 1712q0 72 40 111t112 39t112 -40t40 -108q0 -74 -40 -113t-112 -39t-112 40t-40 110zM750 1712q0 72 40 111t112 39t112 -40 t40 -108q0 -74 -40 -113t-112 -39t-112 40t-40 110z" />
<glyph unicode="&#xdd;" horiz-adv-x="1188" d="M10 1448h324l264 -654l260 654h318l-432 -980v-468h-306v468zM410 1562v24l288 266h324v-24l-366 -266h-246z" />
<glyph unicode="&#xde;" horiz-adv-x="1246" d="M144 0v1448h306v-210h236q236 0 365 -130t129 -366q0 -238 -133 -370t-375 -130h-222v-242h-306zM450 510h236q182 0 182 226q0 234 -196 234h-222v-460z" />
<glyph unicode="&#xdf;" horiz-adv-x="1218" d="M132 0v1086q0 232 122 360t346 128q198 0 307 -98t109 -280q0 -218 -174 -338q324 -84 324 -422q0 -214 -123 -332t-347 -118q-80 0 -170 24l44 236q58 -14 126 -14q186 0 186 184q0 250 -324 268v220q94 44 137 104t43 148q0 162 -138 162q-166 0 -166 -232v-1086h-302z " />
<glyph unicode="&#xe0;" horiz-adv-x="1074" d="M40 306q0 196 147 288t473 98v32q0 72 -48 106t-148 34q-128 0 -260 -54l-70 224q192 90 390 90q206 0 319 -95t113 -267v-762h-266v162q-104 -184 -324 -184q-154 0 -240 87t-86 241zM206 1548v20h304l170 -318v-20h-222zM320 338q0 -112 128 -112q120 0 212 98v182 q-178 -4 -259 -44t-81 -124z" />
<glyph unicode="&#xe1;" horiz-adv-x="1074" d="M40 306q0 196 147 288t473 98v32q0 72 -48 106t-148 34q-128 0 -260 -54l-70 224q192 90 390 90q206 0 319 -95t113 -267v-762h-266v162q-104 -184 -324 -184q-154 0 -240 87t-86 241zM320 338q0 -112 128 -112q120 0 212 98v182q-178 -4 -259 -44t-81 -124zM358 1230v20 l188 318h302v-20l-266 -318h-224z" />
<glyph unicode="&#xe2;" horiz-adv-x="1074" d="M40 306q0 196 147 288t473 98v32q0 72 -48 106t-148 34q-128 0 -260 -54l-70 224q192 90 390 90q206 0 319 -95t113 -267v-762h-266v162q-104 -184 -324 -184q-154 0 -240 87t-86 241zM178 1230v20l206 318h264l206 -318v-20h-204l-138 168l-136 -168h-198zM320 338 q0 -112 128 -112q120 0 212 98v182q-178 -4 -259 -44t-81 -124z" />
<glyph unicode="&#xe3;" horiz-adv-x="1074" d="M40 306q0 196 147 288t473 98v32q0 72 -48 106t-148 34q-128 0 -260 -54l-70 224q192 90 390 90q206 0 319 -95t113 -267v-762h-266v162q-104 -184 -324 -184q-154 0 -240 87t-86 241zM138 1232q4 148 65 229t171 81q54 0 93 -17t91 -49q32 -22 53 -33t45 -11 q66 0 78 106h160q-4 -148 -65 -229t-171 -81q-54 0 -94 18t-90 50q-32 22 -54 33t-44 11q-68 0 -76 -108h-162zM320 338q0 -112 128 -112q120 0 212 98v182q-178 -4 -259 -44t-81 -124z" />
<glyph unicode="&#xe4;" horiz-adv-x="1074" d="M40 306q0 196 147 288t473 98v32q0 72 -48 106t-148 34q-128 0 -260 -54l-70 224q192 90 390 90q206 0 319 -95t113 -267v-762h-266v162q-104 -184 -324 -184q-154 0 -240 87t-86 241zM162 1396q0 72 40 111t112 39t112 -40t40 -108q0 -74 -40 -113t-112 -39t-112 40 t-40 110zM320 338q0 -112 128 -112q120 0 212 98v182q-178 -4 -259 -44t-81 -124zM564 1396q0 72 40 111t112 39t112 -40t40 -108q0 -74 -40 -113t-112 -39t-112 40t-40 110z" />
<glyph unicode="&#xe5;" horiz-adv-x="1074" d="M40 306q0 196 147 288t473 98v32q0 72 -48 106t-148 34q-128 0 -260 -54l-70 224q192 90 390 90q206 0 319 -95t113 -267v-762h-266v162q-104 -184 -324 -184q-154 0 -240 87t-86 241zM238 1446q0 116 73 180t205 64t205 -64t73 -180t-73 -179t-205 -63t-205 63t-73 179z M320 338q0 -112 128 -112q120 0 212 98v182q-178 -4 -259 -44t-81 -124zM414 1446q0 -106 102 -106t102 106t-102 106t-102 -106z" />
<glyph unicode="&#xe6;" horiz-adv-x="1656" d="M40 298q0 196 145 286t465 96v44q0 72 -47 106t-145 34q-122 0 -254 -54l-70 226q188 88 384 88q100 0 178 -30t128 -86q120 116 306 116q224 0 346 -138t122 -390q0 -64 -14 -138h-646q32 -218 258 -218q126 0 260 60l98 -222q-82 -50 -184 -76t-208 -26q-144 0 -251 52 t-171 152q-86 -104 -179 -153t-205 -49q-150 0 -233 84t-83 236zM320 330q0 -104 122 -104q124 0 226 120q-16 72 -22 148q-172 -4 -249 -43t-77 -121zM938 646h370q-4 106 -52 164t-134 58q-160 0 -184 -222z" />
<glyph unicode="&#xe7;" horiz-adv-x="966" d="M62 530q0 178 65 312t185 208t278 74q92 0 180 -26t154 -72l-98 -230q-144 60 -236 60q-106 0 -163 -81t-57 -229q0 -300 246 -300q110 0 226 58l94 -226q-132 -102 -340 -102h-4l-58 -78q24 6 48 6q110 0 169 -45t59 -127q0 -104 -74 -160t-210 -56q-134 0 -250 50 l42 132q98 -32 170 -32q100 0 100 58q0 56 -86 56q-42 0 -76 -14l-64 72l64 158q-176 44 -270 181t-94 353z" />
<glyph unicode="&#xe8;" horiz-adv-x="1092" d="M62 548q0 274 130 425t368 151q226 0 350 -138t124 -390q0 -80 -14 -138h-656q36 -218 264 -218q128 0 264 60l98 -222q-82 -50 -185 -76t-211 -26q-252 0 -392 150t-140 422zM246 1548v20h304l170 -318v-20h-222zM362 646h384q-4 106 -54 164t-138 58q-166 0 -192 -222z " />
<glyph unicode="&#xe9;" horiz-adv-x="1092" d="M62 548q0 274 130 425t368 151q226 0 350 -138t124 -390q0 -80 -14 -138h-656q36 -218 264 -218q128 0 264 60l98 -222q-82 -50 -185 -76t-211 -26q-252 0 -392 150t-140 422zM362 646h384q-4 106 -54 164t-138 58q-166 0 -192 -222zM398 1230v20l188 318h302v-20 l-266 -318h-224z" />
<glyph unicode="&#xea;" horiz-adv-x="1092" d="M62 548q0 274 130 425t368 151q226 0 350 -138t124 -390q0 -80 -14 -138h-656q36 -218 264 -218q128 0 264 60l98 -222q-82 -50 -185 -76t-211 -26q-252 0 -392 150t-140 422zM218 1230v20l206 318h264l206 -318v-20h-204l-138 168l-136 -168h-198zM362 646h384 q-4 106 -54 164t-138 58q-166 0 -192 -222z" />
<glyph unicode="&#xeb;" horiz-adv-x="1092" d="M62 548q0 274 130 425t368 151q226 0 350 -138t124 -390q0 -80 -14 -138h-656q36 -218 264 -218q128 0 264 60l98 -222q-82 -50 -185 -76t-211 -26q-252 0 -392 150t-140 422zM202 1396q0 72 40 111t112 39t112 -40t40 -108q0 -74 -40 -113t-112 -39t-112 40t-40 110z M362 646h384q-4 106 -54 164t-138 58q-166 0 -192 -222zM604 1396q0 72 40 111t112 39t112 -40t40 -108q0 -74 -40 -113t-112 -39t-112 40t-40 110z" />
<glyph unicode="&#xec;" horiz-adv-x="574" d="M-24 1548v20h304l170 -318v-20h-222zM136 0v1098h302v-1098h-302z" />
<glyph unicode="&#xed;" horiz-adv-x="574" d="M128 1230v20l188 318h302v-20l-266 -318h-224zM136 0v1098h302v-1098h-302z" />
<glyph unicode="&#xee;" horiz-adv-x="574" d="M-52 1230v20l206 318h264l206 -318v-20h-204l-138 168l-136 -168h-198zM136 0v1098h302v-1098h-302z" />
<glyph unicode="&#xef;" horiz-adv-x="574" d="M-58 1396q0 72 39 111t109 39q68 0 108 -40t40 -108q0 -72 -39 -112t-109 -40t-109 40t-39 110zM136 0v1098h302v-1098h-302zM336 1396q0 72 39 111t109 39q68 0 108 -40t40 -108q0 -72 -39 -112t-109 -40t-109 40t-39 110z" />
<glyph unicode="&#xf0;" horiz-adv-x="1132" d="M60 530q0 254 122 396t340 142q124 0 200 -64q-70 138 -196 238l-236 -142l-84 148l172 84q-40 22 -132 58l-58 20l64 180l56 -20q166 -60 278 -124l214 130l82 -148l-150 -76q172 -134 252 -318t80 -438q0 -310 -127 -466t-375 -156q-242 0 -372 140t-130 416zM368 530 q0 -294 194 -294q196 0 196 308q0 134 -51 208t-143 74q-196 0 -196 -296z" />
<glyph unicode="&#xf1;" horiz-adv-x="1180" d="M132 0v1098h272v-144q138 170 334 170q152 0 236 -93t84 -265v-766h-302v718q0 132 -144 132q-50 0 -92 -16t-86 -50v-784h-302zM218 1232q4 148 65 229t171 81q54 0 93 -17t91 -49q32 -22 53 -33t45 -11q66 0 78 106h160q-4 -148 -65 -229t-171 -81q-54 0 -94 18t-90 50 q-32 22 -54 33t-44 11q-68 0 -76 -108h-162z" />
<glyph unicode="&#xf2;" d="M66 548q0 284 130 430t370 146q238 0 367 -146t129 -430t-129 -429t-369 -145t-369 145t-129 429zM256 1548v20h304l170 -318v-20h-222zM372 548q0 -312 192 -312q194 0 194 312q0 314 -192 314q-194 0 -194 -314z" />
<glyph unicode="&#xf3;" d="M66 548q0 284 130 430t370 146q238 0 367 -146t129 -430t-129 -429t-369 -145t-369 145t-129 429zM372 548q0 -312 192 -312q194 0 194 312q0 314 -192 314q-194 0 -194 -314zM408 1230v20l188 318h302v-20l-266 -318h-224z" />
<glyph unicode="&#xf4;" d="M66 548q0 284 130 430t370 146q238 0 367 -146t129 -430t-129 -429t-369 -145t-369 145t-129 429zM228 1230v20l206 318h264l206 -318v-20h-204l-138 168l-136 -168h-198zM372 548q0 -312 192 -312q194 0 194 312q0 314 -192 314q-194 0 -194 -314z" />
<glyph unicode="&#xf5;" d="M66 548q0 284 130 430t370 146q238 0 367 -146t129 -430t-129 -429t-369 -145t-369 145t-129 429zM188 1232q4 148 65 229t171 81q54 0 93 -17t91 -49q32 -22 53 -33t45 -11q66 0 78 106h160q-4 -148 -65 -229t-171 -81q-54 0 -94 18t-90 50q-32 22 -54 33t-44 11 q-68 0 -76 -108h-162zM372 548q0 -312 192 -312q194 0 194 312q0 314 -192 314q-194 0 -194 -314z" />
<glyph unicode="&#xf6;" d="M66 548q0 284 130 430t370 146q238 0 367 -146t129 -430t-129 -429t-369 -145t-369 145t-129 429zM212 1396q0 72 40 111t112 39t112 -40t40 -108q0 -74 -40 -113t-112 -39t-112 40t-40 110zM372 548q0 -312 192 -312q194 0 194 312q0 314 -192 314q-194 0 -194 -314z M614 1396q0 72 40 111t112 39t112 -40t40 -108q0 -74 -40 -113t-112 -39t-112 40t-40 110z" />
<glyph unicode="&#xf7;" horiz-adv-x="1174" d="M102 608v258h966v-258h-966zM420 338q0 74 45 118t121 44q74 0 119 -44t45 -118q0 -72 -45 -116t-119 -44t-120 44t-46 116zM420 1134q0 74 45 117t121 43t120 -43t44 -117t-44 -117t-120 -43t-121 43t-45 117z" />
<glyph unicode="&#xf8;" d="M12 0l150 174q-96 146 -96 374q0 284 130 430t370 146q170 0 286 -82l56 76h210v-20l-150 -176q94 -142 94 -374q0 -284 -129 -429t-369 -145q-168 0 -288 80l-54 -74h-210v20zM358 548q0 -74 8 -122l326 410q-50 40 -126 40q-208 0 -208 -328zM438 262q42 -40 126 -40 q208 0 208 326q0 76 -8 122z" />
<glyph unicode="&#xf9;" horiz-adv-x="1164" d="M118 330v768h302v-718q0 -132 138 -132q50 0 91 19t81 61v770h302v-1098h-272v158q-126 -184 -328 -184q-150 0 -232 93t-82 263zM266 1548v20h304l170 -318v-20h-222z" />
<glyph unicode="&#xfa;" horiz-adv-x="1164" d="M118 330v768h302v-718q0 -132 138 -132q50 0 91 19t81 61v770h302v-1098h-272v158q-126 -184 -328 -184q-150 0 -232 93t-82 263zM418 1230v20l188 318h302v-20l-266 -318h-224z" />
<glyph unicode="&#xfb;" horiz-adv-x="1164" d="M118 330v768h302v-718q0 -132 138 -132q50 0 91 19t81 61v770h302v-1098h-272v158q-126 -184 -328 -184q-150 0 -232 93t-82 263zM238 1230v20l206 318h264l206 -318v-20h-204l-138 168l-136 -168h-198z" />
<glyph unicode="&#xfc;" horiz-adv-x="1164" d="M118 330v768h302v-718q0 -132 138 -132q50 0 91 19t81 61v770h302v-1098h-272v158q-126 -184 -328 -184q-150 0 -232 93t-82 263zM222 1396q0 72 40 111t112 39t112 -40t40 -108q0 -74 -40 -113t-112 -39t-112 40t-40 110zM624 1396q0 72 40 111t112 39t112 -40t40 -108 q0 -74 -40 -113t-112 -39t-112 40t-40 110z" />
<glyph unicode="&#xfd;" horiz-adv-x="1050" d="M16 1098h302l210 -792l208 792h296l-326 -1036q-62 -196 -197 -315t-383 -193l-100 248q136 46 214 92t128 106zM370 1230v20l188 318h302v-20l-266 -318h-224z" />
<glyph unicode="&#xfe;" horiz-adv-x="1166" d="M132 -414v1954h302v-556q102 140 276 140q186 0 288 -149t102 -421q0 -276 -102 -428t-290 -152q-82 0 -152 30t-122 88v-506h-302zM434 320q38 -40 84 -61t94 -21q182 0 182 302q0 312 -190 312q-46 0 -87 -19t-83 -63v-450z" />
<glyph unicode="&#xff;" horiz-adv-x="1050" d="M16 1098h302l210 -792l208 792h296l-326 -1036q-62 -196 -197 -315t-383 -193l-100 248q136 46 214 92t128 106zM174 1396q0 72 40 111t112 39t112 -40t40 -108q0 -74 -40 -113t-112 -39t-112 40t-40 110zM576 1396q0 72 40 111t112 39t112 -40t40 -108q0 -74 -40 -113 t-112 -39t-112 40t-40 110z" />
<glyph unicode="&#x152;" horiz-adv-x="1932" d="M86 724q0 360 163 542t469 182h316h820v-270h-600v-304h432v-270h-432v-334h628v-270h-926h-238q-306 0 -469 182t-163 542zM400 724q0 -454 318 -454h238v908h-238q-318 0 -318 -454z" />
<glyph unicode="&#x153;" horiz-adv-x="1762" d="M66 548q0 282 131 429t363 147q220 0 344 -146q58 70 143 108t189 38q224 0 346 -138t122 -390q0 -74 -12 -138h-646q32 -218 258 -218q122 0 260 60l98 -222q-82 -50 -184 -76t-208 -26q-238 0 -372 138q-122 -140 -340 -140q-232 0 -362 146t-130 428zM372 548 q0 -312 186 -312q96 0 142 78t46 234q0 158 -46 236t-140 78q-188 0 -188 -314zM1044 646h372q-4 106 -52 164t-134 58q-80 0 -126 -55t-60 -167z" />
<glyph unicode="&#x178;" horiz-adv-x="1188" d="M10 1448h324l264 -654l260 654h318l-432 -980v-468h-306v468zM226 1712q0 72 40 111t112 39t112 -40t40 -108q0 -74 -40 -113t-112 -39t-112 40t-40 110zM652 1712q0 72 40 111t112 39t112 -40t40 -108q0 -74 -40 -113t-112 -39t-112 40t-40 110z" />
<glyph unicode="&#x2c6;" horiz-adv-x="1000" d="M162 1230v20l206 318h264l206 -318v-20h-204l-138 168l-136 -168h-198z" />
<glyph unicode="&#x2dc;" horiz-adv-x="1000" d="M122 1232q4 148 65 229t171 81q54 0 93 -17t91 -49q32 -22 54 -33t44 -11q66 0 78 106h160q-4 -148 -65 -229t-171 -81q-54 0 -94 18t-90 50q-32 22 -53 33t-45 11q-66 0 -76 -108h-162z" />
<glyph unicode="&#x2000;" horiz-adv-x="1010" />
<glyph unicode="&#x2001;" horiz-adv-x="2020" />
<glyph unicode="&#x2002;" horiz-adv-x="1010" />
<glyph unicode="&#x2003;" horiz-adv-x="2020" />
<glyph unicode="&#x2004;" horiz-adv-x="673" />
<glyph unicode="&#x2005;" horiz-adv-x="505" />
<glyph unicode="&#x2006;" horiz-adv-x="336" />
<glyph unicode="&#x2007;" horiz-adv-x="336" />
<glyph unicode="&#x2008;" horiz-adv-x="252" />
<glyph unicode="&#x2009;" horiz-adv-x="404" />
<glyph unicode="&#x200a;" horiz-adv-x="112" />
<glyph unicode="&#x2010;" horiz-adv-x="836" d="M72 494v226h692v-226h-692z" />
<glyph unicode="&#x2011;" horiz-adv-x="836" d="M72 494v226h692v-226h-692z" />
<glyph unicode="&#x2012;" horiz-adv-x="836" d="M72 494v226h692v-226h-692z" />
<glyph unicode="&#x2013;" horiz-adv-x="1240" d="M72 506v210h1096v-210h-1096z" />
<glyph unicode="&#x2014;" horiz-adv-x="1856" d="M72 506v210h1714v-210h-1714z" />
<glyph unicode="&#x2018;" horiz-adv-x="444" d="M34 1132q0 126 67 230t217 214l114 -118q-68 -72 -95 -144t-27 -180q0 -58 14 -166h-278q-12 94 -12 164z" />
<glyph unicode="&#x2019;" horiz-adv-x="444" d="M12 1010q68 72 94 144t26 182q0 74 -12 164h278q12 -90 12 -162q0 -126 -67 -230t-217 -214z" />
<glyph unicode="&#x201a;" horiz-adv-x="480" d="M-8 -228q68 72 94 144t26 182q0 74 -12 164h278q12 -90 12 -162q0 -126 -67 -230t-217 -214z" />
<glyph unicode="&#x201c;" horiz-adv-x="868" d="M64 1130q0 126 67 230t217 214l114 -116q-68 -72 -94 -144t-26 -182q0 -74 12 -164h-278q-12 90 -12 162zM458 1130q0 126 67 230t217 214l114 -116q-68 -72 -94 -144t-26 -182q0 -74 12 -164h-278q-12 90 -12 162z" />
<glyph unicode="&#x201d;" horiz-adv-x="838" d="M12 1010q68 72 94 144t26 182q0 74 -12 164h278q12 -90 12 -162q0 -126 -67 -230t-217 -214zM406 1010q68 72 94 144t26 182q0 74 -12 164h278q12 -90 12 -162q0 -126 -67 -230t-217 -214z" />
<glyph unicode="&#x201e;" horiz-adv-x="874" d="M-8 -228q68 72 94 144t26 182q0 74 -12 164h278q12 -90 12 -162q0 -126 -67 -230t-217 -214zM386 -228q68 72 94 144t26 182q0 74 -12 164h278q12 -90 12 -162q0 -126 -67 -230t-217 -214z" />
<glyph unicode="&#x2022;" horiz-adv-x="934" d="M136 694q0 158 87 245t243 87q158 0 245 -87t87 -245q0 -156 -87 -244t-245 -88q-156 0 -243 88t-87 244z" />
<glyph unicode="&#x2026;" horiz-adv-x="1576" d="M90 146q0 82 48 128t134 46t134 -46t48 -126q0 -82 -48 -128t-134 -46t-134 46t-48 126zM606 146q0 82 48 128t134 46t134 -46t48 -126q0 -82 -48 -128t-134 -46t-134 46t-48 126zM1122 146q0 82 48 128t134 46t134 -46t48 -126q0 -82 -48 -128t-134 -46t-134 46t-48 126 z" />
<glyph unicode="&#x202f;" horiz-adv-x="404" />
<glyph unicode="&#x2039;" horiz-adv-x="722" d="M24 596l496 568l178 -172l-350 -394l350 -400l-180 -172z" />
<glyph unicode="&#x203a;" horiz-adv-x="722" d="M26 198l350 394l-350 400l180 172l494 -568l-496 -570z" />
<glyph unicode="&#x205f;" horiz-adv-x="505" />
<glyph unicode="&#x20ac;" horiz-adv-x="1224" d="M78 478v186h146q-2 18 -2 58q0 38 2 58h-146v186h166q46 246 191 377t373 131q88 0 177 -28t165 -78l-102 -226q-140 64 -238 64q-198 0 -254 -240h362v-186h-384q-2 -18 -2 -58t2 -58h384v-186h-360q56 -232 252 -232q98 0 240 56l98 -226q-160 -102 -344 -102 q-226 0 -370 130t-190 374h-166z" />
<glyph unicode="&#x2122;" horiz-adv-x="1940" d="M48 1240v208h680v-208h-222v-706h-232v706h-226zM842 536v912h272l204 -526l202 526h274v-912h-226v554l-148 -386h-204l-152 388v-556h-222z" />
<glyph unicode="&#x25fc;" horiz-adv-x="1100" d="M0 0v1100h1100v-1100h-1100z" />
<glyph unicode="&#xfb03;" horiz-adv-x="2078" d="M2 844v254h166v76q0 194 121 300t341 106q72 0 128 -10v-250q-56 8 -118 8q-174 0 -174 -154v-76h254v-254h-254v-844h-302v844h-162zM754 844v254h166v76q0 194 121 300t341 106q72 0 128 -10v-250q-56 8 -118 8q-174 0 -174 -154v-76h254v-254h-254v-844h-302v844h-162 zM1616 1398q0 78 46 122t128 44t128 -44t46 -120q0 -80 -46 -123t-128 -43t-128 44t-46 120zM1640 0v1098h302v-1098h-302z" />
<glyph unicode="&#xfb04;" horiz-adv-x="2158" d="M2 844v254h166v76q0 194 121 300t341 106q72 0 128 -10v-250q-56 8 -118 8q-174 0 -174 -154v-76h254v-254h-254v-844h-302v844h-162zM754 844v254h166v76q0 194 121 300t341 106q72 0 128 -10v-250q-56 8 -118 8q-174 0 -174 -154v-76h254v-254h-254v-844h-302v844h-162 zM1632 290v1250h302v-1184q0 -58 21 -83t69 -25q32 0 64 6l20 -250q-80 -18 -168 -18q-156 0 -232 75t-76 229z" />
</font>
</defs>
</svg>
