<?xml version="1.0" standalone="no"?>
<!DOCTYPE svg PUBLIC "-//W3C//DTD SVG 1.1//EN" "http://www.w3.org/Graphics/SVG/1.1/DTD/svg11.dtd" >
<svg xmlns="http://www.w3.org/2000/svg" xmlns:xlink="http://www.w3.org/1999/xlink" version="1.1">
<metadata>
Created by FontForge 20190801 at Thu Feb  5 22:34:11 2015
 By Jimmy Wärting
Samsung Sharp Sans is a customized version of Sharp Sans, which is copyright (c) 2015 by Lucas Sharp. All rights reserved.
</metadata>
<defs>
<font id="SamsungSharpSans-Bold" horiz-adv-x="646" >
  <font-face 
    font-family="Samsung Sharp Sans Bold"
    font-weight="666"
    font-stretch="normal"
    units-per-em="1000"
    panose-1="0 0 0 0 0 0 0 0 0 0"
    ascent="800"
    descent="-200"
    x-height="585"
    cap-height="730"
    bbox="-91 -283 1414.01 1100"
    underline-thickness="50"
    underline-position="-100"
    unicode-range="U+0020-FB79"
  />
<missing-glyph horiz-adv-x="926" 
d="M100 0v730h726v-730h-726zM236 600v-470h454v470h-454zM340 162l-80 78l123 127l-124 129l80 78l122 -126l124 127l80 -78l-126 -130l125 -128l-80 -78l-123 126z" />
    <glyph glyph-name="interrobang" unicode="&#x21;&#x3f;" horiz-adv-x="517" 
d="M197 187c-6 120 -12 292 -12 426v2c-32 -16 -51 -46 -59 -79l-126 43c25 95 111 161 238 161c147 0 246 -83 246 -209c0 -190 -192 -135 -192 -332v-12h-95zM163 69c0 49 32 82 82 82c51 0 81 -33 81 -82c0 -48 -31 -81 -82 -81c-50 0 -81 33 -81 81zM348 533
c0 34 -16 63 -49 80c0 -60 -2 -125 -6 -190c29 32 55 56 55 110z" />
    <glyph glyph-name="interrobangdown" unicode="&#xa1;&#xbf;" horiz-adv-x="517" 
d="M279 -240c-147 0 -247 83 -247 209c0 190 193 135 193 332v12h95c5 -120 12 -292 12 -426v-2c31 16 51 46 59 79l126 -43c-25 -95 -111 -161 -238 -161zM194 431c0 49 32 82 82 82c51 0 81 -33 81 -82c0 -48 -31 -81 -82 -81c-50 0 -81 33 -81 81zM168 -33
c0 -34 17 -63 50 -80c0 60 1 125 5 190c-29 -32 -55 -56 -55 -110z" />
    <glyph glyph-name="r.smcp.alt" unicode="&#x683;" horiz-adv-x="493" arabic-form="isolated" 
d="M171 0h-136v596h214c142 0 224 -84 224 -209c0 -68 -31 -133 -90 -169l107 -218h-147l-83 179h-89v-179zM171 304h65c74 0 97 39 97 87s-29 79 -97 79h-65v-166z" />
    <glyph glyph-name="racute.smcp.alt" unicode="&#x683;" horiz-adv-x="493" arabic-form="final" 
d="M171 0h-136v596h214c142 0 224 -84 224 -209c0 -68 -31 -133 -90 -169l107 -218h-147l-83 179h-89v-179zM171 304h65c74 0 97 39 97 87s-29 79 -97 79h-65v-166zM171 646l115 170h126l-150 -170h-91z" />
    <glyph glyph-name="rcaron.smcp.alt" unicode="&#x683;" horiz-adv-x="493" arabic-form="initial" 
d="M171 0h-136v596h214c142 0 224 -84 224 -209c0 -68 -31 -133 -90 -169l107 -218h-147l-83 179h-89v-179zM195 646l-119 170h102l59 -89l59 89h102l-119 -170h-84zM171 304h65c74 0 97 39 97 87s-29 79 -97 79h-65v-166z" />
    <glyph glyph-name="rcommaaccent.smcp.alt" unicode="&#x683;" horiz-adv-x="493" arabic-form="medial" 
d="M171 0h-136v596h214c142 0 224 -84 224 -209c0 -68 -31 -133 -90 -169l107 -218h-147l-83 179h-89v-179zM171 304h65c74 0 97 39 97 87s-29 79 -97 79h-65v-166zM237 -252h-83l34 204h119z" />
    <glyph glyph-name=".notdef" horiz-adv-x="926" 
d="M100 0v730h726v-730h-726zM236 600v-470h454v470h-454zM340 162l-80 78l123 127l-124 129l80 78l122 -126l124 127l80 -78l-126 -130l125 -128l-80 -78l-123 126z" />
    <glyph glyph-name="A" unicode="A" horiz-adv-x="687" 
d="M15 0l260 730h137l260 -730h-142l-45 130h-283l-45 -130h-142zM344 537l-96 -277h192z" />
    <glyph glyph-name="AE" unicode="&#xc6;" horiz-adv-x="938" 
d="M13 0l333 730h558v-130h-386l42 -168h344v-130h-311l43 -172h268v-130h-378l-32 129h-281l-58 -129h-142zM395 534l-126 -279h194z" />
    <glyph glyph-name="AEacute" unicode="&#x1fc;" horiz-adv-x="938" 
d="M13 0l333 730h558v-130h-386l42 -168h344v-130h-311l43 -172h268v-130h-378l-32 129h-281l-58 -129h-142zM395 534l-126 -279h194zM490 780l115 170h126l-150 -170h-91z" />
    <glyph glyph-name="acute" unicode="&#xb4;" horiz-adv-x="472" 
d="M105 550l115 170h126l-150 -170h-91z" />
    <glyph glyph-name="Aacute" unicode="&#xc1;" horiz-adv-x="687" 
d="M15 0l260 730h137l260 -730h-142l-45 130h-283l-45 -130h-142zM344 537l-96 -277h192zM297 780l115 170h126l-150 -170h-91z" />
    <glyph glyph-name="Abreve" unicode="&#x102;" horiz-adv-x="687" 
d="M15 0l260 730h137l260 -730h-142l-45 130h-283l-45 -130h-142zM343 775c-110 0 -161 73 -161 170h85c0 -64 27 -94 76 -96c48 2 76 32 76 96h86c0 -97 -62 -170 -162 -170zM344 537l-96 -277h192z" />
    <glyph glyph-name="breve" unicode="&#x2d8;" horiz-adv-x="472" 
d="M235 545c-110 0 -161 73 -161 170h85c0 -64 27 -94 76 -96c48 2 76 32 76 96h86c0 -97 -62 -170 -162 -170z" />
    <glyph glyph-name="Acircumflex" unicode="&#xc2;" horiz-adv-x="687" 
d="M15 0l260 730h137l260 -730h-142l-45 130h-283l-45 -130h-142zM181 780l119 170h84l119 -170h-102l-59 89l-59 -89h-102zM344 537l-96 -277h192z" />
    <glyph glyph-name="circumflex" unicode="&#x2c6;" horiz-adv-x="472" 
d="M75 550l119 170h84l119 -170h-102l-59 89l-59 -89h-102z" />
    <glyph glyph-name="Adieresis" unicode="&#xc4;" horiz-adv-x="687" 
d="M15 0l260 730h137l260 -730h-142l-45 130h-283l-45 -130h-142zM344 537l-96 -277h192zM176 849c0 43 28 72 72 72c45 0 72 -29 72 -72c0 -42 -27 -71 -72 -71s-72 29 -72 71zM367 849c0 43 28 72 72 72s72 -29 72 -72c0 -42 -28 -71 -72 -71c-46 0 -72 29 -72 71z" />
    <glyph glyph-name="dieresis" unicode="&#xa8;" horiz-adv-x="473" 
d="M69 619c0 43 28 72 72 72c45 0 72 -29 72 -72c0 -42 -27 -71 -72 -71s-72 29 -72 71zM260 619c0 43 28 72 72 72s72 -29 72 -72c0 -42 -28 -71 -72 -71c-46 0 -72 29 -72 71z" />
    <glyph glyph-name="Agrave" unicode="&#xc0;" horiz-adv-x="687" 
d="M15 0l260 730h137l260 -730h-142l-45 130h-283l-45 -130h-142zM344 537l-96 -277h192zM300 780l-150 170h127l114 -170h-91z" />
    <glyph glyph-name="grave" unicode="`" horiz-adv-x="472" 
d="M255 550l-150 170h127l114 -170h-91z" />
    <glyph glyph-name="Amacron" unicode="&#x100;" horiz-adv-x="687" 
d="M15 0l260 730h137l260 -730h-142l-45 130h-283l-45 -130h-142zM344 537l-96 -277h192zM213 780v86h264v-86h-264z" />
    <glyph glyph-name="macron" unicode="&#xaf;" horiz-adv-x="472" 
d="M105 550v86h264v-86h-264z" />
    <glyph glyph-name="Anocross" unicode="&#xe731;" horiz-adv-x="687" 
d="M15 0l260 730h137l260 -730h-142l-186 537l-187 -537h-142z" />
    <glyph glyph-name="Aogonek" unicode="&#x104;" horiz-adv-x="687" 
d="M585 -227c-86 0 -144 48 -144 109c0 42 20 81 87 124l-43 124h-283l-45 -130h-142l260 730h137l260 -730c-109 -72 -130 -87 -130 -113c0 -22 20 -31 43 -31c27 0 42 15 60 29l79 -54c-35 -32 -91 -58 -139 -58zM344 537l-96 -277h192z" />
    <glyph glyph-name="ogonek" unicode="&#x2db;" horiz-adv-x="472" 
d="M232 -227c-86 0 -144 48 -144 109c0 53 32 101 150 160l81 -42c-109 -72 -130 -87 -130 -113c0 -22 20 -31 43 -31c27 0 42 15 60 29l79 -54c-35 -32 -91 -58 -139 -58z" />
    <glyph glyph-name="Aring" unicode="&#xc5;" horiz-adv-x="687" 
d="M15 0l245 688c-20 21 -33 50 -33 82c0 66 52 118 116 118c65 0 117 -52 117 -118c0 -32 -13 -61 -34 -82l246 -688h-142l-45 130h-283l-45 -130h-142zM344 537l-96 -277h192zM343 731c22 0 41 18 41 39c0 22 -19 41 -41 41s-40 -19 -40 -41c0 -21 18 -39 40 -39z" />
    <glyph glyph-name="ring" unicode="&#x2da;" horiz-adv-x="472" 
d="M235 546c-64 0 -116 52 -116 116c0 66 52 118 116 118c65 0 117 -52 117 -118c0 -64 -52 -116 -117 -116zM235 623c22 0 41 18 41 39c0 22 -19 41 -41 41s-40 -19 -40 -41c0 -21 18 -39 40 -39z" />
    <glyph glyph-name="Aringacute" unicode="&#x1fa;" horiz-adv-x="687" 
d="M15 0l246 691c-19 20 -31 48 -31 79c0 66 52 118 116 118c65 0 117 -52 117 -118c0 -33 -14 -63 -36 -84l245 -686h-142l-45 130h-283l-45 -130h-142zM344 536l-96 -276h192zM299 930l115 170h126l-150 -170h-91zM346 731c22 0 41 18 41 39c0 22 -19 41 -41 41
s-40 -19 -40 -41c0 -21 18 -39 40 -39z" />
    <glyph glyph-name="Atilde" unicode="&#xc3;" horiz-adv-x="687" 
d="M15 0l260 730h137l260 -730h-142l-45 130h-283l-45 -130h-142zM173 780c0 81 39 135 104 135c33 0 56 -12 77 -24c19 -13 35 -25 52 -25c18 0 28 15 28 45h78c0 -82 -35 -135 -105 -135c-39 0 -65 18 -87 31c-15 9 -28 17 -43 17c-18 0 -26 -13 -26 -44h-78zM344 537
l-96 -277h192z" />
    <glyph glyph-name="tilde" unicode="&#x2dc;" horiz-adv-x="472" 
d="M64 550c0 81 39 135 104 135c33 0 56 -12 77 -24c19 -13 35 -25 52 -25c18 0 28 15 28 45h78c0 -82 -35 -135 -105 -135c-39 0 -65 18 -87 31c-15 9 -28 17 -43 17c-18 0 -26 -13 -26 -44h-78z" />
    <glyph glyph-name="Aumlaut" unicode="&#xf176;" horiz-adv-x="687" 
d="M15 0l260 730h137l260 -730h-142l-45 130h-283l-45 -130h-142zM344 537l-96 -277h192zM58 593v137h134v-137h-134zM495 593v137h134v-137h-134z" />
    <glyph glyph-name="B" unicode="B" horiz-adv-x="573" 
d="M42 0v730h230c160 0 254 -72 254 -204c0 -62 -27 -111 -80 -142c68 -30 106 -87 106 -168c0 -144 -101 -216 -262 -216h-248zM284 312h-106v-187h112c82 0 125 34 125 94s-30 93 -131 93zM272 605h-94v-166h94c86 0 117 35 117 87c0 54 -34 79 -117 79z" />
    <glyph glyph-name="C" unicode="C" horiz-adv-x="738" 
d="M397 -10c-225 0 -375 167 -375 375c0 218 164 375 375 375c137 0 256 -72 320 -181l-119 -76c-42 76 -107 123 -201 123c-138 0 -240 -105 -240 -241c0 -133 101 -239 237 -239c101 0 172 58 210 137l124 -65c-64 -124 -186 -208 -331 -208z" />
    <glyph glyph-name="Cacute" unicode="&#x106;" horiz-adv-x="738" 
d="M349 780l115 170h126l-150 -170h-91zM397 -10c-225 0 -375 167 -375 375c0 218 164 375 375 375c137 0 256 -72 320 -181l-119 -76c-42 76 -107 123 -201 123c-138 0 -240 -105 -240 -241c0 -133 101 -239 237 -239c101 0 172 58 210 137l124 -65
c-64 -124 -186 -208 -331 -208z" />
    <glyph glyph-name="Ccaron" unicode="&#x10c;" horiz-adv-x="738" 
d="M397 -10c-225 0 -375 167 -375 375c0 218 164 375 375 375c137 0 256 -72 320 -181l-119 -76c-42 76 -107 123 -201 123c-138 0 -240 -105 -240 -241c0 -133 101 -239 237 -239c101 0 172 58 210 137l124 -65c-64 -124 -186 -208 -331 -208zM356 780l-119 170h102l59 -89
l59 89h102l-119 -170h-84z" />
    <glyph glyph-name="caron" unicode="&#x2c7;" horiz-adv-x="472" 
d="M193 550l-119 170h102l59 -89l59 89h102l-119 -170h-84z" />
    <glyph glyph-name="Ccedilla" unicode="&#xc7;" horiz-adv-x="738" 
d="M388 -240c-53 0 -106 25 -144 59l78 47c23 -19 42 -34 76 -34c29 0 55 14 55 31c0 18 -20 27 -58 27h-50v104c-196 23 -323 179 -323 371c0 218 164 375 375 375c137 0 256 -72 320 -181l-119 -76c-42 76 -107 123 -201 123c-138 0 -240 -105 -240 -241
c0 -133 101 -239 237 -239c101 0 172 58 210 137l124 -65c-59 -115 -168 -195 -299 -206v-45c74 3 115 -31 115 -80c0 -62 -69 -107 -156 -107z" />
    <glyph glyph-name="cedilla" unicode="&#xb8;" horiz-adv-x="472" 
d="M213 -240c-53 0 -106 25 -144 59l78 47c23 -19 42 -34 76 -34c29 0 55 14 55 31c0 18 -20 27 -58 27h-50v110h84v-53c74 3 115 -31 115 -80c0 -62 -69 -107 -156 -107z" />
    <glyph glyph-name="Ccircumflex" unicode="&#x108;" horiz-adv-x="738" 
d="M397 -10c-225 0 -375 167 -375 375c0 218 164 375 375 375c137 0 256 -72 320 -181l-119 -76c-42 76 -107 123 -201 123c-138 0 -240 -105 -240 -241c0 -133 101 -239 237 -239c101 0 172 58 210 137l124 -65c-64 -124 -186 -208 -331 -208zM240 780l119 170h84l119 -170
h-102l-59 89l-59 -89h-102z" />
    <glyph glyph-name="Cdotaccent" unicode="&#x10a;" horiz-adv-x="738" 
d="M397 -10c-225 0 -375 167 -375 375c0 218 164 375 375 375c137 0 256 -72 320 -181l-119 -76c-42 76 -107 123 -201 123c-138 0 -240 -105 -240 -241c0 -133 101 -239 237 -239c101 0 172 58 210 137l124 -65c-64 -124 -186 -208 -331 -208zM324 849c0 47 31 79 79 79
c49 0 79 -32 79 -79c0 -46 -30 -78 -79 -78c-50 0 -79 32 -79 78z" />
    <glyph glyph-name="dotaccent" unicode="&#x2d9;" horiz-adv-x="473" 
d="M147 619c0 47 31 79 79 79c49 0 79 -32 79 -79c0 -46 -30 -78 -79 -78c-50 0 -79 32 -79 78z" />
    <glyph glyph-name="D" unicode="D" horiz-adv-x="648" 
d="M42 0v730h199c246 0 386 -158 386 -365c0 -208 -158 -365 -380 -365h-205zM225 604h-47v-478h53c159 0 260 103 260 239c0 140 -86 239 -266 239z" />
    <glyph glyph-name="Dcaron" unicode="&#x10e;" horiz-adv-x="648" 
d="M42 0v730h199c246 0 386 -158 386 -365c0 -208 -158 -365 -380 -365h-205zM225 604h-47v-478h53c159 0 260 103 260 239c0 140 -86 239 -266 239zM224 780l-119 170h102l59 -89l59 89h102l-119 -170h-84z" />
    <glyph glyph-name="Dcroat" unicode="&#x110;" horiz-adv-x="695" 
d="M20 309v115h69v306h199c246 0 386 -158 386 -365c0 -208 -158 -365 -380 -365h-205v309h-69zM272 604h-47v-180h165v-115h-165v-183h53c159 0 260 103 260 239c0 140 -86 239 -266 239z" />
    <glyph glyph-name="Eth" unicode="&#xd0;" horiz-adv-x="695" 
d="M20 309v115h69v306h199c246 0 386 -158 386 -365c0 -208 -158 -365 -380 -365h-205v309h-69zM272 604h-47v-180h165v-115h-165v-183h53c159 0 260 103 260 239c0 140 -86 239 -266 239z" />
    <glyph glyph-name="E" unicode="E" horiz-adv-x="509" 
d="M42 0v730h433v-130h-297v-168h297v-130h-297v-172h297v-130h-433z" />
    <glyph glyph-name="Eacute" unicode="&#xc9;" horiz-adv-x="509" 
d="M42 0v730h433v-130h-297v-168h297v-130h-297v-172h297v-130h-433zM202 780l115 170h126l-150 -170h-91z" />
    <glyph glyph-name="Ebreve" unicode="&#x114;" horiz-adv-x="509" 
d="M42 0v730h433v-130h-297v-168h297v-130h-297v-172h297v-130h-433zM262 775c-110 0 -161 73 -161 170h85c0 -64 27 -94 76 -96c48 2 76 32 76 96h86c0 -97 -62 -170 -162 -170z" />
    <glyph glyph-name="Ecaron" unicode="&#x11a;" horiz-adv-x="509" 
d="M42 0v730h433v-130h-297v-168h297v-130h-297v-172h297v-130h-433zM215 780l-119 170h102l59 -89l59 89h102l-119 -170h-84z" />
    <glyph glyph-name="Ecircumflex" unicode="&#xca;" horiz-adv-x="509" 
d="M42 0v730h433v-130h-297v-168h297v-130h-297v-172h297v-130h-433zM97 780l119 170h84l119 -170h-102l-59 89l-59 -89h-102z" />
    <glyph glyph-name="Edieresis" unicode="&#xcb;" horiz-adv-x="509" 
d="M42 0v730h433v-130h-297v-168h297v-130h-297v-172h297v-130h-433zM95 849c0 43 28 72 72 72c45 0 72 -29 72 -72c0 -42 -27 -71 -72 -71s-72 29 -72 71zM286 849c0 43 28 72 72 72s72 -29 72 -72c0 -42 -28 -71 -72 -71c-46 0 -72 29 -72 71z" />
    <glyph glyph-name="Edotaccent" unicode="&#x116;" horiz-adv-x="509" 
d="M42 0v730h433v-130h-297v-168h297v-130h-297v-172h297v-130h-433zM197 849c0 47 31 79 79 79c49 0 79 -32 79 -79c0 -46 -30 -78 -79 -78c-50 0 -79 32 -79 78z" />
    <glyph glyph-name="Egrave" unicode="&#xc8;" horiz-adv-x="509" 
d="M42 0v730h433v-130h-297v-168h297v-130h-297v-172h297v-130h-433zM222 780l-150 170h127l114 -170h-91z" />
    <glyph glyph-name="Emacron" unicode="&#x112;" horiz-adv-x="509" 
d="M42 0v730h433v-130h-297v-168h297v-130h-297v-172h297v-130h-433zM127 780v86h264v-86h-264z" />
    <glyph glyph-name="Eng" unicode="&#x14a;" horiz-adv-x="690" 
d="M436 -208v133h6c58 1 70 13 70 69v33l-334 494v-521h-136v730h154l316 -466v466h136v-731c-1 -157 -51 -207 -192 -207h-20z" />
    <glyph glyph-name="Eogonek" unicode="&#x118;" horiz-adv-x="509" 
d="M42 0v730h433v-130h-297v-168h297v-130h-297v-172h297v-130h1c-109 -72 -130 -87 -130 -113c0 -22 20 -31 43 -31c27 0 42 15 60 29l79 -54c-35 -32 -91 -58 -139 -58c-86 0 -144 48 -144 109c0 40 18 77 77 118h-280z" />
    <glyph glyph-name="Euro" unicode="&#x20ac;" horiz-adv-x="588" 
d="M31 411v106h91c9 127 107 223 247 223c78 0 142 -30 186 -78l-102 -91c-20 21 -48 35 -84 35c-63 0 -101 -38 -110 -89h224l-18 -106h-208v-92h194l-17 -106h-176c8 -52 43 -88 108 -88c43 0 67 21 85 46l122 -80c-41 -62 -109 -101 -206 -101c-155 0 -240 91 -246 223
h-90v106h90v92h-90z" />
    <glyph glyph-name="Euro.LP" unicode="&#xe521;" horiz-adv-x="811" 
d="M35 407v110h95c56 134 188 223 349 223c135 0 246 -64 315 -162l-107 -85c-38 74 -118 115 -210 115c-81 0 -149 -34 -191 -91h297l-30 -110h-308c-4 -14 -5 -28 -5 -42c0 -15 2 -29 5 -42h285l-30 -110h-212c41 -57 107 -90 185 -90c109 0 175 49 212 134l121 -67
c-68 -122 -171 -200 -326 -200c-164 0 -293 91 -349 223h-96v110h68c-2 14 -2 27 -2 42c0 14 0 28 2 42h-68z" />
    <glyph glyph-name="Euro.LT" unicode="&#xf467;" horiz-adv-x="588" 
d="M31 411v106h91c9 127 107 223 247 223c78 0 142 -30 186 -78l-102 -91c-20 21 -48 35 -84 35c-63 0 -101 -38 -110 -89h224l-18 -106h-208v-92h194l-17 -106h-176c8 -52 43 -88 108 -88c43 0 67 21 85 46l122 -80c-41 -62 -109 -101 -206 -101c-155 0 -240 91 -246 223
h-90v106h90v92h-90z" />
    <glyph glyph-name="F" unicode="F" horiz-adv-x="491" 
d="M42 0v730h413v-130h-277v-168h277v-130h-277v-302h-136z" />
    <glyph glyph-name="G" unicode="G" horiz-adv-x="780" 
d="M401 -10c-228 0 -379 173 -379 375c0 208 157 375 373 375c151 0 270 -77 332 -187l-120 -72c-45 83 -115 127 -211 127c-136 0 -239 -110 -239 -243c0 -135 102 -243 244 -243c109 0 185 62 211 158h-233v130h379v-54c0 -197 -139 -366 -357 -366z" />
    <glyph glyph-name="Gbreve" unicode="&#x11e;" horiz-adv-x="780" 
d="M401 -10c-228 0 -379 173 -379 375c0 208 157 375 373 375c151 0 270 -77 332 -187l-120 -72c-45 83 -115 127 -211 127c-136 0 -239 -110 -239 -243c0 -135 102 -243 244 -243c109 0 185 62 211 158h-233v130h379v-54c0 -197 -139 -366 -357 -366zM394 775
c-110 0 -161 73 -161 170h85c0 -64 27 -94 76 -96c48 2 76 32 76 96h86c0 -97 -62 -170 -162 -170z" />
    <glyph glyph-name="Gcircumflex" unicode="&#x11c;" horiz-adv-x="780" 
d="M401 -10c-228 0 -379 173 -379 375c0 208 157 375 373 375c151 0 270 -77 332 -187l-120 -72c-45 83 -115 127 -211 127c-136 0 -239 -110 -239 -243c0 -135 102 -243 244 -243c109 0 185 62 211 158h-233v130h379v-54c0 -197 -139 -366 -357 -366zM234 780l119 170h84
l119 -170h-102l-59 89l-59 -89h-102z" />
    <glyph glyph-name="Gcommaaccent" unicode="&#x122;" horiz-adv-x="780" 
d="M401 -10c-228 0 -379 173 -379 375c0 208 157 375 373 375c151 0 270 -77 332 -187l-120 -72c-45 83 -115 127 -211 127c-136 0 -239 -110 -239 -243c0 -135 102 -243 244 -243c109 0 185 62 211 158h-233v130h379v-54c0 -197 -139 -366 -357 -366zM397 -250h-83l34 204
h119z" />
    <glyph glyph-name="commaaccent" unicode="&#xe414;" horiz-adv-x="473" 
d="M238 -249h-83l34 204h119z" />
    <glyph glyph-name="commaaccent" unicode="&#xf6c3;" horiz-adv-x="473" 
d="M238 -249h-83l34 204h119z" />
    <glyph glyph-name="Gdotaccent" unicode="&#x120;" horiz-adv-x="780" 
d="M401 -10c-228 0 -379 173 -379 375c0 208 157 375 373 375c151 0 270 -77 332 -187l-120 -72c-45 83 -115 127 -211 127c-136 0 -239 -110 -239 -243c0 -135 102 -243 244 -243c109 0 185 62 211 158h-233v130h379v-54c0 -197 -139 -366 -357 -366zM319 849
c0 47 31 79 79 79c49 0 79 -32 79 -79c0 -46 -30 -78 -79 -78c-50 0 -79 32 -79 78z" />
    <glyph glyph-name="H" unicode="H" horiz-adv-x="636" 
d="M458 0v301h-280v-301h-136v730h136v-299h280v299h136v-730h-136z" />
    <glyph glyph-name="Hbar" unicode="&#x126;" horiz-adv-x="695" 
d="M14 529v103h57v98h136v-98h280v98h136v-98h57v-103h-57v-529h-136v301h-280v-301h-136v529h-57zM207 529v-98h280v98h-280z" />
    <glyph glyph-name="Hcircumflex" unicode="&#x124;" horiz-adv-x="636" 
d="M458 0v301h-280v-301h-136v730h136v-299h280v299h136v-730h-136zM156 780l119 170h84l119 -170h-102l-59 89l-59 -89h-102z" />
    <glyph glyph-name="I" unicode="I" horiz-adv-x="230" 
d="M47 0v730h136v-730h-136z" />
    <glyph glyph-name="IJ" unicode="&#x132;" horiz-adv-x="495" 
d="M237 0v133h8c61 0 73 10 73 73v524h136v-520c-1 -156 -33 -210 -194 -210h-23zM41 0v730h136v-730h-136z" />
    <glyph glyph-name="Iacute" unicode="&#xcd;" horiz-adv-x="230" 
d="M47 0v730h136v-730h-136zM70 780l115 170h126l-150 -170h-91z" />
    <glyph glyph-name="Ibreve" unicode="&#x12c;" horiz-adv-x="230" 
d="M47 0v730h136v-730h-136zM113 775c-110 0 -161 73 -161 170h85c0 -64 27 -94 76 -96c48 2 76 32 76 96h86c0 -97 -62 -170 -162 -170z" />
    <glyph glyph-name="Icircumflex" unicode="&#xce;" horiz-adv-x="230" 
d="M47 0v730h136v-730h-136zM-46 780l119 170h84l119 -170h-102l-59 89l-59 -89h-102z" />
    <glyph glyph-name="Idieresis" unicode="&#xcf;" horiz-adv-x="230" 
d="M152 781v137h134v-137h-134zM-55 781v137h134v-137h-134zM47 0v730h136v-730h-136z" />
    <glyph glyph-name="Idotaccent" unicode="&#x130;" horiz-adv-x="230" 
d="M47 0v730h136v-730h-136zM34 849c0 47 31 79 79 79c49 0 79 -32 79 -79c0 -46 -30 -78 -79 -78c-50 0 -79 32 -79 78z" />
    <glyph glyph-name="Igrave" unicode="&#xcc;" horiz-adv-x="230" 
d="M47 0v730h136v-730h-136zM70 780l-150 170h127l114 -170h-91z" />
    <glyph glyph-name="Imacron" unicode="&#x12a;" horiz-adv-x="230" 
d="M47 0v730h136v-730h-136zM-17 780v86h264v-86h-264z" />
    <glyph glyph-name="Iogonek" unicode="&#x12e;" horiz-adv-x="230" 
d="M107 -229c-77 0 -131 46 -132 108c-1 52 26 91 72 127v724h136v-730h-4c-76 -46 -105 -87 -105 -111c0 -22 16 -33 38 -33c20 0 37 14 50 30l79 -55c-35 -36 -76 -60 -134 -60z" />
    <glyph glyph-name="uni0328" unicode="&#x328;" horiz-adv-x="472" 
d="M248 -229c-77 0 -131 46 -132 108c-1 69 47 114 122 163l82 -42c-76 -46 -105 -87 -105 -111c0 -22 16 -33 38 -33c20 0 37 14 50 30l79 -55c-35 -36 -76 -60 -134 -60z" />
    <glyph glyph-name="Itilde" unicode="&#x128;" horiz-adv-x="230" 
d="M47 0v730h136v-730h-136zM-47 780c0 81 39 135 104 135c33 0 56 -12 77 -24c19 -13 35 -25 52 -25c18 0 28 15 28 45h78c0 -82 -35 -135 -105 -135c-39 0 -65 18 -87 31c-15 9 -28 17 -43 17c-18 0 -26 -13 -26 -44h-78z" />
    <glyph glyph-name="J" unicode="J" horiz-adv-x="501" 
d="M247 -10c-117 0 -204 64 -228 165l134 44c10 -47 45 -82 92 -82c55 0 79 42 79 93v520h136v-508c0 -146 -78 -232 -213 -232z" />
    <glyph glyph-name="Jcircumflex" unicode="&#x134;" horiz-adv-x="501" 
d="M247 -10c-117 0 -204 64 -228 165l134 44c10 -47 45 -82 92 -82c55 0 79 42 79 93v520h136v-508c0 -146 -78 -232 -213 -232zM226 780l119 170h84l119 -170h-102l-59 89l-59 -89h-102z" />
    <glyph glyph-name="K" unicode="K" horiz-adv-x="618" 
d="M450 0l-193 351l-79 -98v-253h-136v730h136v-299l241 299h165l-231 -284l252 -446h-155z" />
    <glyph glyph-name="Kcommaaccent" unicode="&#x136;" horiz-adv-x="618" 
d="M450 0l-193 351l-79 -98v-253h-136v730h136v-299l241 299h165l-231 -284l252 -446h-155zM306 -250h-83l34 204h119z" />
    <glyph glyph-name="L" unicode="L" horiz-adv-x="481" 
d="M42 0v730h136v-600h267v-130h-403z" />
    <glyph glyph-name="Lacute" unicode="&#x139;" horiz-adv-x="481" 
d="M42 0v730h136v-600h267v-130h-403zM62 780l115 170h126l-150 -170h-91z" />
    <glyph glyph-name="Lcaron" unicode="&#x13d;" horiz-adv-x="481" 
d="M42 0v730h136v-600h267v-130h-403zM233 559l25 171h109l-51 -171h-83z" />
    <glyph glyph-name="caronSlovak" unicode="&#xe413;" horiz-adv-x="472" 
d="M189 549l25 171h109l-51 -171h-83z" />
    <glyph glyph-name="Lcommaaccent" unicode="&#x13b;" horiz-adv-x="481" 
d="M42 0v730h136v-600h267v-130h-403zM233 -250h-83l34 204h119z" />
    <glyph glyph-name="Ldot" unicode="&#x13f;" horiz-adv-x="481" 
d="M42 0v730h136v-600h267v-130h-403zM298 360c0 47 31 79 79 79c49 0 79 -32 79 -79c0 -46 -30 -78 -79 -78c-50 0 -79 32 -79 78z" />
    <glyph glyph-name="Lslash" unicode="&#x141;" horiz-adv-x="525" 
d="M17 285v96l69 22v327h136v-284l155 50v-97l-155 -49v-220h267v-130h-403v307z" />
    <glyph glyph-name="M" unicode="M" horiz-adv-x="798" 
d="M42 0v730h135l221 -307l230 307h129v-730h-136v512l-224 -302l-219 297v-507h-136z" />
    <glyph glyph-name="N" unicode="N" horiz-adv-x="690" 
d="M42 0v730h154l316 -497v497h136v-730h-145l-325 513v-513h-136z" />
    <glyph glyph-name="Nacute" unicode="&#x143;" horiz-adv-x="690" 
d="M42 0v730h154l316 -497v497h136v-730h-145l-325 513v-513h-136zM307 780l115 170h126l-150 -170h-91z" />
    <glyph glyph-name="Ncaron" unicode="&#x147;" horiz-adv-x="690" 
d="M42 0v730h154l316 -497v497h136v-730h-145l-325 513v-513h-136zM305 780l-119 170h102l59 -89l59 89h102l-119 -170h-84z" />
    <glyph glyph-name="Ncommaaccent" unicode="&#x145;" horiz-adv-x="690" 
d="M42 0v730h154l316 -497v497h136v-730h-145l-325 513v-513h-136zM332 -250h-83l34 204h119z" />
    <glyph glyph-name="Ntilde" unicode="&#xd1;" horiz-adv-x="690" 
d="M42 0v730h154l316 -497v497h136v-730h-145l-325 513v-513h-136zM174 780c0 81 39 135 104 135c33 0 56 -12 77 -24c19 -13 35 -25 52 -25c18 0 28 15 28 45h78c0 -82 -35 -135 -105 -135c-39 0 -65 18 -87 31c-15 9 -28 17 -43 17c-18 0 -26 -13 -26 -44h-78z" />
    <glyph glyph-name="O" unicode="O" horiz-adv-x="790" 
d="M395 -10c-207 0 -373 167 -373 375c0 207 166 375 373 375c208 0 374 -168 374 -375c0 -208 -166 -375 -374 -375zM395 124c133 0 239 108 239 241s-106 241 -239 241s-238 -108 -238 -241s105 -241 238 -241z" />
    <glyph glyph-name="OE" unicode="&#x152;" horiz-adv-x="1101" 
d="M634 0v83c-61 -58 -144 -93 -239 -93c-207 0 -373 167 -373 375c0 207 166 375 373 375c95 0 178 -36 239 -94v84h433v-130h-297v-168h297v-130h-297v-172h297v-130h-433zM395 124c128 0 234 102 239 231v20c-5 128 -111 231 -239 231c-133 0 -238 -108 -238 -241
s105 -241 238 -241z" />
    <glyph glyph-name="Oacute" unicode="&#xd3;" horiz-adv-x="790" 
d="M343 780l115 170h126l-150 -170h-91zM395 -10c-207 0 -373 167 -373 375c0 207 166 375 373 375c208 0 374 -168 374 -375c0 -208 -166 -375 -374 -375zM395 124c133 0 239 108 239 241s-106 241 -239 241s-238 -108 -238 -241s105 -241 238 -241z" />
    <glyph glyph-name="Obreve" unicode="&#x14e;" horiz-adv-x="790" 
d="M395 -10c-207 0 -373 167 -373 375c0 207 166 375 373 375c208 0 374 -168 374 -375c0 -208 -166 -375 -374 -375zM395 124c133 0 239 108 239 241s-106 241 -239 241s-238 -108 -238 -241s105 -241 238 -241zM388 775c-110 0 -161 73 -161 170h85c0 -64 27 -94 76 -96
c48 2 76 32 76 96h86c0 -97 -62 -170 -162 -170z" />
    <glyph glyph-name="Ocircumflex" unicode="&#xd4;" horiz-adv-x="790" 
d="M395 -10c-207 0 -373 167 -373 375c0 207 166 375 373 375c208 0 374 -168 374 -375c0 -208 -166 -375 -374 -375zM395 124c133 0 239 108 239 241s-106 241 -239 241s-238 -108 -238 -241s105 -241 238 -241zM230 780l119 170h84l119 -170h-102l-59 89l-59 -89h-102z
" />
    <glyph glyph-name="Odieresis" unicode="&#xd6;" horiz-adv-x="790" 
d="M221 849c0 43 28 72 72 72c45 0 72 -29 72 -72c0 -42 -27 -71 -72 -71s-72 29 -72 71zM412 849c0 43 28 72 72 72s72 -29 72 -72c0 -42 -28 -71 -72 -71c-46 0 -72 29 -72 71zM395 -10c-207 0 -373 167 -373 375c0 207 166 375 373 375c208 0 374 -168 374 -375
c0 -208 -166 -375 -374 -375zM395 124c133 0 239 108 239 241s-106 241 -239 241s-238 -108 -238 -241s105 -241 238 -241z" />
    <glyph glyph-name="Ograve" unicode="&#xd2;" horiz-adv-x="790" 
d="M395 -10c-207 0 -373 167 -373 375c0 207 166 375 373 375c208 0 374 -168 374 -375c0 -208 -166 -375 -374 -375zM395 124c133 0 239 108 239 241s-106 241 -239 241s-238 -108 -238 -241s105 -241 238 -241zM349 780l-150 170h127l114 -170h-91z" />
    <glyph glyph-name="Ohungarumlaut" unicode="&#x150;" horiz-adv-x="790" 
d="M256 780l114 170h120l-150 -170h-84zM422 780l114 170h120l-150 -170h-84zM395 -10c-207 0 -373 167 -373 375c0 207 166 375 373 375c208 0 374 -168 374 -375c0 -208 -166 -375 -374 -375zM395 124c133 0 239 108 239 241s-106 241 -239 241s-238 -108 -238 -241
s105 -241 238 -241z" />
    <glyph glyph-name="hungarumlaut" unicode="&#x2dd;" horiz-adv-x="472" 
d="M36 550l114 170h120l-150 -170h-84zM202 550l114 170h120l-150 -170h-84z" />
    <glyph glyph-name="Omacron" unicode="&#x14c;" horiz-adv-x="790" 
d="M258 780v86h264v-86h-264zM395 -10c-207 0 -373 167 -373 375c0 207 166 375 373 375c208 0 374 -168 374 -375c0 -208 -166 -375 -374 -375zM395 124c133 0 239 108 239 241s-106 241 -239 241s-238 -108 -238 -241s105 -241 238 -241z" />
    <glyph glyph-name="Oslash" unicode="&#xd8;" horiz-adv-x="790" 
d="M24 0l92 114c-59 67 -94 154 -94 251c0 207 166 375 373 375c68 0 131 -19 186 -50l33 40h157l-95 -117c58 -66 93 -153 93 -248c0 -208 -166 -375 -374 -375c-67 0 -130 17 -184 48l-30 -38h-157zM157 365c0 -54 17 -104 46 -144l292 362c-30 14 -64 23 -100 23
c-133 0 -238 -108 -238 -241zM395 124c133 0 239 108 239 241c0 52 -17 101 -45 140l-291 -361c29 -13 62 -20 97 -20z" />
    <glyph glyph-name="Oslashacute" unicode="&#x1fe;" horiz-adv-x="790" 
d="M24 0l92 114c-59 67 -94 154 -94 251c0 207 166 375 373 375c68 0 131 -19 186 -50l33 40h157l-95 -117c58 -66 93 -153 93 -248c0 -208 -166 -375 -374 -375c-67 0 -130 17 -184 48l-30 -38h-157zM157 365c0 -54 17 -104 46 -144l292 362c-30 14 -64 23 -100 23
c-133 0 -238 -108 -238 -241zM395 124c133 0 239 108 239 241c0 52 -17 101 -45 140l-291 -361c29 -13 62 -20 97 -20zM333 780l115 170h126l-150 -170h-91z" />
    <glyph glyph-name="Otilde" unicode="&#xd5;" horiz-adv-x="790" 
d="M395 -10c-207 0 -373 167 -373 375c0 207 166 375 373 375c208 0 374 -168 374 -375c0 -208 -166 -375 -374 -375zM395 124c133 0 239 108 239 241s-106 241 -239 241s-238 -108 -238 -241s105 -241 238 -241zM220 780c0 81 39 135 104 135c33 0 56 -12 77 -24
c19 -13 35 -25 52 -25c18 0 28 15 28 45h78c0 -82 -35 -135 -105 -135c-39 0 -65 18 -87 31c-15 9 -28 17 -43 17c-18 0 -26 -13 -26 -44h-78z" />
    <glyph glyph-name="Oumlaut" unicode="&#xf177;" horiz-adv-x="790" 
d="M36 593v137h137v-27c-44 -29 -84 -65 -110 -110h-27zM727 593c-26 45 -66 81 -110 110v27h137v-137h-27zM395 -10c-207 0 -373 167 -373 375c0 207 166 375 373 375c208 0 374 -168 374 -375c0 -208 -166 -375 -374 -375zM395 124c133 0 239 108 239 241
s-106 241 -239 241s-238 -108 -238 -241s105 -241 238 -241z" />
    <glyph glyph-name="P" unicode="P" horiz-adv-x="581" 
d="M42 0v730h250c151 0 263 -116 263 -260c0 -145 -112 -261 -264 -261h-113v-209h-136zM282 604h-104v-269h104c81 0 136 60 136 135c0 74 -55 134 -136 134z" />
    <glyph glyph-name="Q" unicode="Q" horiz-adv-x="790" 
d="M617 0l-275 359h163l92 -120c23 37 37 80 37 126c0 133 -106 241 -239 241s-238 -108 -238 -241s105 -241 238 -241c25 0 49 4 71 11l85 -111c-48 -22 -101 -34 -156 -34c-207 0 -373 167 -373 375c0 207 166 375 373 375c208 0 374 -168 374 -375
c0 -91 -32 -173 -84 -238l98 -127h-166z" />
    <glyph glyph-name="R" unicode="R" horiz-adv-x="584" 
d="M178 0h-136v730h234c173 0 273 -103 273 -254c0 -88 -44 -170 -123 -213l146 -263h-155l-117 223h-122v-223zM178 348h86c112 0 149 61 149 133c0 74 -45 122 -149 122h-86v-255z" />
    <glyph glyph-name="Racute" unicode="&#x154;" horiz-adv-x="584" 
d="M178 0h-136v730h234c173 0 273 -103 273 -254c0 -88 -44 -170 -123 -213l146 -263h-155l-117 223h-122v-223zM178 348h86c112 0 149 61 149 133c0 74 -45 122 -149 122h-86v-255zM196 780l115 170h126l-150 -170h-91z" />
    <glyph glyph-name="Rcaron" unicode="&#x158;" horiz-adv-x="584" 
d="M178 0h-136v730h234c173 0 273 -103 273 -254c0 -88 -44 -170 -123 -213l146 -263h-155l-117 223h-122v-223zM178 348h86c112 0 149 61 149 133c0 74 -45 122 -149 122h-86v-255zM250 780l-119 170h102l59 -89l59 89h102l-119 -170h-84z" />
    <glyph glyph-name="Rcommaaccent" unicode="&#x156;" horiz-adv-x="584" 
d="M178 0h-136v730h234c173 0 273 -103 273 -254c0 -88 -44 -170 -123 -213l146 -263h-155l-117 223h-122v-223zM178 348h86c112 0 149 61 149 133c0 74 -45 122 -149 122h-86v-255zM290 -281h-83l34 204h119z" />
    <glyph glyph-name="S" unicode="S" horiz-adv-x="563" 
d="M288 -10c-132 0 -219 56 -285 131l124 98c37 -63 94 -99 160 -99c72 0 111 47 111 98c0 62 -74 81 -152 105c-98 31 -207 69 -207 208c0 117 102 209 242 209c118 0 186 -45 245 -106l-112 -85c-31 46 -74 70 -132 70c-66 0 -102 -36 -102 -83c0 -58 70 -77 149 -103
c99 -32 211 -76 211 -216c0 -115 -92 -227 -252 -227z" />
    <glyph glyph-name="Sacute" unicode="&#x15a;" horiz-adv-x="563" 
d="M222 780l115 170h126l-150 -170h-91zM288 -10c-132 0 -219 56 -285 131l124 98c37 -63 94 -99 160 -99c72 0 111 47 111 98c0 62 -74 81 -152 105c-98 31 -207 69 -207 208c0 117 102 209 242 209c118 0 186 -45 245 -106l-112 -85c-31 46 -74 70 -132 70
c-66 0 -102 -36 -102 -83c0 -58 70 -77 149 -103c99 -32 211 -76 211 -216c0 -115 -92 -227 -252 -227z" />
    <glyph glyph-name="Scaron" unicode="&#x160;" horiz-adv-x="563" 
d="M288 -10c-132 0 -219 56 -285 131l124 98c37 -63 94 -99 160 -99c72 0 111 47 111 98c0 62 -74 81 -152 105c-98 31 -207 69 -207 208c0 117 102 209 242 209c118 0 186 -45 245 -106l-112 -85c-31 46 -74 70 -132 70c-66 0 -102 -36 -102 -83c0 -58 70 -77 149 -103
c99 -32 211 -76 211 -216c0 -115 -92 -227 -252 -227zM241 780l-119 170h102l59 -89l59 89h102l-119 -170h-84z" />
    <glyph glyph-name="Scedilla" unicode="&#x15e;" horiz-adv-x="563" 
d="M273 -240c-53 0 -106 25 -144 59l78 47c23 -19 42 -34 76 -34c29 0 55 14 55 31c0 18 -20 27 -58 27h-50v104c-101 13 -171 63 -227 127l124 98c37 -63 94 -99 160 -99c72 0 111 47 111 98c0 62 -74 81 -152 105c-98 31 -207 69 -207 208c0 117 102 209 242 209
c118 0 186 -45 245 -106l-112 -85c-31 46 -74 70 -132 70c-66 0 -102 -36 -102 -83c0 -58 70 -77 149 -103c99 -32 211 -76 211 -216c0 -109 -82 -215 -226 -226v-44c74 3 115 -31 115 -80c0 -62 -69 -107 -156 -107z" />
    <glyph glyph-name="Scircumflex" unicode="&#x15c;" horiz-adv-x="563" 
d="M288 -10c-132 0 -219 56 -285 131l124 98c37 -63 94 -99 160 -99c72 0 111 47 111 98c0 62 -74 81 -152 105c-98 31 -207 69 -207 208c0 117 102 209 242 209c118 0 186 -45 245 -106l-112 -85c-31 46 -74 70 -132 70c-66 0 -102 -36 -102 -83c0 -58 70 -77 149 -103
c99 -32 211 -76 211 -216c0 -115 -92 -227 -252 -227zM116 780l119 170h84l119 -170h-102l-59 89l-59 -89h-102z" />
    <glyph glyph-name="Scommaaccent" unicode="&#x218;" horiz-adv-x="563" 
d="M270 -249h-83l34 204h119zM288 -10c-132 0 -219 56 -285 131l124 98c37 -63 94 -99 160 -99c72 0 111 47 111 98c0 62 -74 81 -152 105c-98 31 -207 69 -207 208c0 117 102 209 242 209c118 0 186 -45 245 -106l-112 -85c-31 46 -74 70 -132 70c-66 0 -102 -36 -102 -83
c0 -58 70 -77 149 -103c99 -32 211 -76 211 -216c0 -115 -92 -227 -252 -227z" />
    <glyph glyph-name="T" unicode="T" horiz-adv-x="579" 
d="M221 0v600h-195v130h527v-130h-196v-600h-136z" />
    <glyph glyph-name="Tbar" unicode="&#x166;" horiz-adv-x="598" 
d="M108 303v130h125v167h-195v130h527v-130h-196v-167h120v-130h-120v-303h-136v303h-125z" />
    <glyph glyph-name="Tcaron" unicode="&#x164;" horiz-adv-x="598" 
d="M233 0v600h-195v130h527v-130h-196v-600h-136zM254 780l-119 170h102l59 -89l59 89h102l-119 -170h-84z" />
    <glyph glyph-name="Tcommaaccent" unicode="&#x162;" horiz-adv-x="598" 
d="M289 -250h-83l34 204h119zM233 0v600h-195v130h527v-130h-196v-600h-136z" />
    <glyph glyph-name="Thorn" unicode="&#xde;" horiz-adv-x="558" 
d="M42 0v730h136v-127h121c135 0 232 -103 232 -232s-97 -232 -233 -232h-120v-139h-136zM291 477h-113v-212h113c64 0 105 47 105 106c0 58 -41 106 -105 106z" />
    <glyph glyph-name="U" unicode="U" horiz-adv-x="608" 
d="M304 -10c-152 0 -263 90 -263 262v478h136v-486c0 -72 54 -128 126 -128c71 0 128 56 128 128v486h136v-478c0 -172 -112 -262 -263 -262z" />
    <glyph glyph-name="Uacute" unicode="&#xda;" horiz-adv-x="608" 
d="M250 780l115 170h126l-150 -170h-91zM304 -10c-152 0 -263 90 -263 262v478h136v-486c0 -72 54 -128 126 -128c71 0 128 56 128 128v486h136v-478c0 -172 -112 -262 -263 -262z" />
    <glyph glyph-name="Ubreve" unicode="&#x16c;" horiz-adv-x="608" 
d="M304 -10c-152 0 -263 90 -263 262v478h136v-486c0 -72 54 -128 126 -128c71 0 128 56 128 128v486h136v-478c0 -172 -112 -262 -263 -262zM308 775c-110 0 -161 73 -161 170h85c0 -64 27 -94 76 -96c48 2 76 32 76 96h86c0 -97 -62 -170 -162 -170z" />
    <glyph glyph-name="Ucircumflex" unicode="&#xdb;" horiz-adv-x="608" 
d="M304 -10c-152 0 -263 90 -263 262v478h136v-486c0 -72 54 -128 126 -128c71 0 128 56 128 128v486h136v-478c0 -172 -112 -262 -263 -262zM143 780l119 170h84l119 -170h-102l-59 89l-59 -89h-102z" />
    <glyph glyph-name="Udieresis" unicode="&#xdc;" horiz-adv-x="608" 
d="M141 849c0 43 28 72 72 72c45 0 72 -29 72 -72c0 -42 -27 -71 -72 -71s-72 29 -72 71zM332 849c0 43 28 72 72 72s72 -29 72 -72c0 -42 -28 -71 -72 -71c-46 0 -72 29 -72 71zM304 -10c-152 0 -263 90 -263 262v478h136v-486c0 -72 54 -128 126 -128c71 0 128 56 128 128
v486h136v-478c0 -172 -112 -262 -263 -262z" />
    <glyph glyph-name="Ugrave" unicode="&#xd9;" horiz-adv-x="608" 
d="M304 -10c-152 0 -263 90 -263 262v478h136v-486c0 -72 54 -128 126 -128c71 0 128 56 128 128v486h136v-478c0 -172 -112 -262 -263 -262zM267 780l-150 170h127l114 -170h-91z" />
    <glyph glyph-name="Uhungarumlaut" unicode="&#x170;" horiz-adv-x="608" 
d="M304 -10c-152 0 -263 90 -263 262v478h136v-486c0 -72 54 -128 126 -128c71 0 128 56 128 128v486h136v-478c0 -172 -112 -262 -263 -262zM161 780l114 170h120l-150 -170h-84zM327 780l114 170h120l-150 -170h-84z" />
    <glyph glyph-name="Umacron" unicode="&#x16a;" horiz-adv-x="608" 
d="M304 -10c-152 0 -263 90 -263 262v478h136v-486c0 -72 54 -128 126 -128c71 0 128 56 128 128v486h136v-478c0 -172 -112 -262 -263 -262zM172 780v86h264v-86h-264z" />
    <glyph glyph-name="Uogonek" unicode="&#x172;" horiz-adv-x="608" 
d="M316 -222c-86 0 -144 48 -144 109c0 37 15 72 65 110c-117 23 -196 109 -196 255v478h136v-486c0 -72 54 -128 126 -128c71 0 128 56 128 128v486h136v-478c0 -132 -66 -215 -164 -247c-109 -72 -130 -87 -130 -113c0 -22 20 -31 43 -31c27 0 42 15 60 29l79 -54
c-35 -32 -91 -58 -139 -58z" />
    <glyph glyph-name="Uring" unicode="&#x16e;" horiz-adv-x="608" 
d="M302 729c-64 0 -116 52 -116 116c0 66 52 118 116 118c65 0 117 -52 117 -118c0 -64 -52 -116 -117 -116zM302 806c22 0 41 18 41 39c0 22 -19 41 -41 41s-40 -19 -40 -41c0 -21 18 -39 40 -39zM304 -10c-152 0 -263 90 -263 262v478h136v-486c0 -72 54 -128 126 -128
c71 0 128 56 128 128v486h136v-478c0 -172 -112 -262 -263 -262z" />
    <glyph glyph-name="Utilde" unicode="&#x168;" horiz-adv-x="608" 
d="M304 -10c-152 0 -263 90 -263 262v478h136v-486c0 -72 54 -128 126 -128c71 0 128 56 128 128v486h136v-478c0 -172 -112 -262 -263 -262zM126 780c0 81 39 135 104 135c33 0 56 -12 77 -24c19 -13 35 -25 52 -25c18 0 28 15 28 45h78c0 -82 -35 -135 -105 -135
c-39 0 -65 18 -87 31c-15 9 -28 17 -43 17c-18 0 -26 -13 -26 -44h-78z" />
    <glyph glyph-name="Uumlaut" unicode="&#xf178;" horiz-adv-x="690" 
d="M366 583v147h105v-147h-105zM219 583v147h105v-147h-105zM344 -10c-175 0 -302 103 -302 303v437h135v-441c0 -103 72 -170 166 -170s170 67 170 170v441h135v-437c0 -200 -128 -303 -304 -303z" />
    <glyph glyph-name="V" unicode="V" horiz-adv-x="657" 
d="M260 0l-245 730h141l173 -522l172 522h141l-245 -730h-137z" />
    <glyph glyph-name="W" unicode="W" horiz-adv-x="1023" 
d="M222 0l-208 730h142l138 -511l153 511h134l152 -509l137 509h137l-206 -730h-135l-153 515l-153 -515h-138z" />
    <glyph glyph-name="Wacute" unicode="&#x1e82;" horiz-adv-x="1023" 
d="M222 0l-208 730h142l138 -511l153 511h134l152 -509l137 509h137l-206 -730h-135l-153 515l-153 -515h-138zM463 780l115 170h126l-150 -170h-91z" />
    <glyph glyph-name="Wcircumflex" unicode="&#x174;" horiz-adv-x="1023" 
d="M222 0l-208 730h142l138 -511l153 511h134l152 -509l137 509h137l-206 -730h-135l-153 515l-153 -515h-138zM350 780l119 170h84l119 -170h-102l-59 89l-59 -89h-102z" />
    <glyph glyph-name="Wdieresis" unicode="&#x1e84;" horiz-adv-x="1023" 
d="M222 0l-208 730h142l138 -511l153 511h134l152 -509l137 509h137l-206 -730h-135l-153 515l-153 -515h-138zM345 849c0 43 28 72 72 72c45 0 72 -29 72 -72c0 -42 -27 -71 -72 -71s-72 29 -72 71zM536 849c0 43 28 72 72 72s72 -29 72 -72c0 -42 -28 -71 -72 -71
c-46 0 -72 29 -72 71z" />
    <glyph glyph-name="Wgrave" unicode="&#x1e80;" horiz-adv-x="1023" 
d="M222 0l-208 730h142l138 -511l153 511h134l152 -509l137 509h137l-206 -730h-135l-153 515l-153 -515h-138zM462 780l-150 170h127l114 -170h-91z" />
    <glyph glyph-name="X" unicode="X" horiz-adv-x="630" 
d="M467 0l-152 251l-151 -251h-153l223 369l-218 361h152l147 -243l147 243h153l-220 -361l224 -369h-152z" />
    <glyph glyph-name="Y" unicode="Y" horiz-adv-x="629" 
d="M245 0v346l-232 384h150l151 -253l152 253h150l-235 -387v-343h-136z" />
    <glyph glyph-name="Yacute" unicode="&#xdd;" horiz-adv-x="629" 
d="M245 0v346l-232 384h150l151 -253l152 253h150l-235 -387v-343h-136zM264 780l115 170h126l-150 -170h-91z" />
    <glyph glyph-name="Ycircumflex" unicode="&#x176;" horiz-adv-x="629" 
d="M245 0v346l-232 384h150l151 -253l152 253h150l-235 -387v-343h-136zM153 780l119 170h84l119 -170h-102l-59 89l-59 -89h-102z" />
    <glyph glyph-name="Ydieresis" unicode="&#x178;" horiz-adv-x="629" 
d="M245 0v346l-232 384h150l151 -253l152 253h150l-235 -387v-343h-136zM146 849c0 43 28 72 72 72c45 0 72 -29 72 -72c0 -42 -27 -71 -72 -71s-72 29 -72 71zM337 849c0 43 28 72 72 72s72 -29 72 -72c0 -42 -28 -71 -72 -71c-46 0 -72 29 -72 71z" />
    <glyph glyph-name="Ygrave" unicode="&#x1ef2;" horiz-adv-x="629" 
d="M245 0v346l-232 384h150l151 -253l152 253h150l-235 -387v-343h-136zM266 780l-150 170h127l114 -170h-91z" />
    <glyph glyph-name="Z" unicode="Z" horiz-adv-x="556" 
d="M36 0v125l323 475h-312v130h472v-124l-323 -476h323v-130h-483z" />
    <glyph glyph-name="Zacute" unicode="&#x179;" horiz-adv-x="556" 
d="M36 0v125l323 475h-312v130h472v-124l-323 -476h323v-130h-483zM222 780l115 170h126l-150 -170h-91z" />
    <glyph glyph-name="Zcaron" unicode="&#x17d;" horiz-adv-x="556" 
d="M36 0v125l323 475h-312v130h472v-124l-323 -476h323v-130h-483zM241 780l-119 170h102l59 -89l59 89h102l-119 -170h-84z" />
    <glyph glyph-name="Zdotaccent" unicode="&#x17b;" horiz-adv-x="556" 
d="M36 0v125l323 475h-312v130h472v-124l-323 -476h323v-130h-483zM203 849c0 47 31 79 79 79c49 0 79 -32 79 -79c0 -46 -30 -78 -79 -78c-50 0 -79 32 -79 78z" />
    <glyph glyph-name="a" unicode="a" horiz-adv-x="671" 
d="M308 -12c-141 0 -288 113 -288 304c0 194 142 305 290 305c77 0 146 -32 188 -82v70h135v-585h-135v76c-43 -54 -113 -88 -190 -88zM330 112c100 0 175 81 175 182c0 99 -75 180 -175 180s-177 -79 -177 -180c0 -102 77 -182 177 -182z" />
    <glyph glyph-name="a.alt" unicode="&#xe4c0;" horiz-adv-x="516" 
d="M190 -10c-109 0 -169 57 -169 139c0 93 66 139 161 164c81 22 162 33 162 70c0 25 -25 42 -76 42c-77 0 -108 -39 -108 -83v-3h-121v2c0 120 81 189 223 189c122 0 217 -48 217 -162v-348h-129v55c-36 -36 -91 -65 -160 -65zM202 101c80 0 145 72 148 112v29
c-4 -10 -47 -27 -106 -42c-67 -15 -95 -31 -95 -62c0 -26 23 -37 53 -37z" />
    <glyph glyph-name="a.smcp" unicode="&#xe201;" horiz-adv-x="581" 
d="M20 0l205 596h131l206 -596h-136l-31 93h-209l-31 -93h-135zM291 405l-64 -189h127z" />
    <glyph glyph-name="a.smcp" unicode="&#xf761;" horiz-adv-x="581" 
d="M20 0l205 596h131l206 -596h-136l-31 93h-209l-31 -93h-135zM291 405l-64 -189h127z" />
    <glyph glyph-name="aacute" unicode="&#xe1;" horiz-adv-x="671" 
d="M308 -12c-141 0 -288 113 -288 304c0 194 142 305 290 305c77 0 146 -32 188 -82v70h135v-585h-135v76c-43 -54 -113 -88 -190 -88zM330 112c100 0 175 81 175 182c0 99 -75 180 -175 180s-177 -79 -177 -180c0 -102 77 -182 177 -182zM271 645l115 170h126l-150 -170
h-91z" />
    <glyph glyph-name="aacute.alt" unicode="&#xe891;" horiz-adv-x="516" 
d="M190 -10c-109 0 -169 57 -169 139c0 93 66 139 161 164c81 22 162 33 162 70c0 25 -25 42 -76 42c-77 0 -108 -39 -108 -83v-3h-121v2c0 120 81 189 223 189c122 0 217 -48 217 -162v-348h-129v55c-36 -36 -91 -65 -160 -65zM233 550l115 170h126l-150 -170h-91zM202 101
c80 0 145 72 148 112v29c-4 -10 -47 -27 -106 -42c-67 -15 -95 -31 -95 -62c0 -26 23 -37 53 -37z" />
    <glyph glyph-name="aacute.smcp" unicode="&#xe221;" horiz-adv-x="581" 
d="M20 0l205 596h131l206 -596h-136l-31 93h-209l-31 -93h-135zM245 646l115 170h126l-150 -170h-91zM291 405l-64 -189h127z" />
    <glyph glyph-name="aacute.smcp" unicode="&#xf7e1;" horiz-adv-x="581" 
d="M20 0l205 596h131l206 -596h-136l-31 93h-209l-31 -93h-135zM245 646l115 170h126l-150 -170h-91zM291 405l-64 -189h127z" />
    <glyph glyph-name="abreve" unicode="&#x103;" horiz-adv-x="671" 
d="M308 -12c-141 0 -288 113 -288 304c0 194 142 305 290 305c77 0 146 -32 188 -82v70h135v-585h-135v76c-43 -54 -113 -88 -190 -88zM330 112c100 0 175 81 175 182c0 99 -75 180 -175 180s-177 -79 -177 -180c0 -102 77 -182 177 -182zM323 643c-110 0 -161 73 -161 170
h85c0 -64 27 -94 76 -96c48 2 76 32 76 96h86c0 -97 -62 -170 -162 -170z" />
    <glyph glyph-name="abreve.alt" unicode="&#xe896;" horiz-adv-x="516" 
d="M190 -10c-109 0 -169 57 -169 139c0 93 66 139 161 164c81 22 162 33 162 70c0 25 -25 42 -76 42c-77 0 -108 -39 -108 -83v-3h-121v2c0 120 81 189 223 189c122 0 217 -48 217 -162v-348h-129v55c-36 -36 -91 -65 -160 -65zM264 545c-110 0 -161 73 -161 170h85
c0 -64 27 -94 76 -96c48 2 76 32 76 96h86c0 -97 -62 -170 -162 -170zM202 101c80 0 145 72 148 112v29c-4 -10 -47 -27 -106 -42c-67 -15 -95 -31 -95 -62c0 -26 23 -37 53 -37z" />
    <glyph glyph-name="abreve.smcp" unicode="&#xe229;" horiz-adv-x="581" 
d="M20 0l205 596h131l206 -596h-136l-31 93h-209l-31 -93h-135zM288 638c-110 0 -161 73 -161 170h85c0 -64 27 -94 76 -96c48 2 76 32 76 96h86c0 -97 -62 -170 -162 -170zM291 405l-64 -189h127z" />
    <glyph glyph-name="abreve.smcp" unicode="&#xf640;" horiz-adv-x="581" 
d="M20 0l205 596h131l206 -596h-136l-31 93h-209l-31 -93h-135zM288 638c-110 0 -161 73 -161 170h85c0 -64 27 -94 76 -96c48 2 76 32 76 96h86c0 -97 -62 -170 -162 -170zM291 405l-64 -189h127z" />
    <glyph glyph-name="acircumflex" unicode="&#xe2;" horiz-adv-x="671" 
d="M308 -12c-141 0 -288 113 -288 304c0 194 142 305 290 305c77 0 146 -32 188 -82v70h135v-585h-135v76c-43 -54 -113 -88 -190 -88zM330 112c100 0 175 81 175 182c0 99 -75 180 -175 180s-177 -79 -177 -180c0 -102 77 -182 177 -182zM149 642l119 170h84l119 -170h-102
l-59 89l-59 -89h-102z" />
    <glyph glyph-name="acircumflex.alt" unicode="&#xe893;" horiz-adv-x="516" 
d="M190 -10c-109 0 -169 57 -169 139c0 93 66 139 161 164c81 22 162 33 162 70c0 25 -25 42 -76 42c-77 0 -108 -39 -108 -83v-3h-121v2c0 120 81 189 223 189c122 0 217 -48 217 -162v-348h-129v55c-36 -36 -91 -65 -160 -65zM103 550l119 170h84l119 -170h-102l-59 89
l-59 -89h-102zM202 101c80 0 145 72 148 112v29c-4 -10 -47 -27 -106 -42c-67 -15 -95 -31 -95 -62c0 -26 23 -37 53 -37z" />
    <glyph glyph-name="acircumflex.smcp" unicode="&#xe223;" horiz-adv-x="581" 
d="M20 0l205 596h131l206 -596h-136l-31 93h-209l-31 -93h-135zM129 646l119 170h84l119 -170h-102l-59 89l-59 -89h-102zM291 405l-64 -189h127z" />
    <glyph glyph-name="acircumflex.smcp" unicode="&#xf7e2;" horiz-adv-x="581" 
d="M20 0l205 596h131l206 -596h-136l-31 93h-209l-31 -93h-135zM129 646l119 170h84l119 -170h-102l-59 89l-59 -89h-102zM291 405l-64 -189h127z" />
    <glyph glyph-name="adieresis" unicode="&#xe4;" horiz-adv-x="671" 
d="M308 -12c-141 0 -288 113 -288 304c0 194 142 305 290 305c77 0 146 -32 188 -82v70h135v-585h-135v76c-43 -54 -113 -88 -190 -88zM330 112c100 0 175 81 175 182c0 99 -75 180 -175 180s-177 -79 -177 -180c0 -102 77 -182 177 -182zM156 713c0 43 28 72 72 72
c45 0 72 -29 72 -72c0 -42 -27 -71 -72 -71s-72 29 -72 71zM347 713c0 43 28 72 72 72s72 -29 72 -72c0 -42 -28 -71 -72 -71c-46 0 -72 29 -72 71z" />
    <glyph glyph-name="adieresis.alt" unicode="&#xe894;" horiz-adv-x="516" 
d="M190 -10c-109 0 -169 57 -169 139c0 93 66 139 161 164c81 22 162 33 162 70c0 25 -25 42 -76 42c-77 0 -108 -39 -108 -83v-3h-121v2c0 120 81 189 223 189c122 0 217 -48 217 -162v-348h-129v55c-36 -36 -91 -65 -160 -65zM94 619c0 43 28 72 72 72c45 0 72 -29 72 -72
c0 -42 -27 -71 -72 -71s-72 29 -72 71zM285 619c0 43 28 72 72 72s72 -29 72 -72c0 -42 -28 -71 -72 -71c-46 0 -72 29 -72 71zM202 101c80 0 145 72 148 112v29c-4 -10 -47 -27 -106 -42c-67 -15 -95 -31 -95 -62c0 -26 23 -37 53 -37z" />
    <glyph glyph-name="adieresis.smcp" unicode="&#xe224;" horiz-adv-x="581" 
d="M20 0l205 596h131l206 -596h-136l-31 93h-209l-31 -93h-135zM123 715c0 43 28 72 72 72c45 0 72 -29 72 -72c0 -42 -27 -71 -72 -71s-72 29 -72 71zM314 715c0 43 28 72 72 72s72 -29 72 -72c0 -42 -28 -71 -72 -71c-46 0 -72 29 -72 71zM291 405l-64 -189h127z" />
    <glyph glyph-name="adieresis.smcp" unicode="&#xf7e4;" horiz-adv-x="581" 
d="M20 0l205 596h131l206 -596h-136l-31 93h-209l-31 -93h-135zM123 715c0 43 28 72 72 72c45 0 72 -29 72 -72c0 -42 -27 -71 -72 -71s-72 29 -72 71zM314 715c0 43 28 72 72 72s72 -29 72 -72c0 -42 -28 -71 -72 -71c-46 0 -72 29 -72 71zM291 405l-64 -189h127z" />
    <glyph glyph-name="ae" unicode="&#xe6;" horiz-adv-x="1035" 
d="M719 -12c-111 0 -198 48 -250 123c-40 -68 -129 -123 -239 -123c-148 0 -211 71 -212 166c0 109 83 157 193 184c98 26 196 38 196 89c0 35 -36 63 -108 63c-97 0 -141 -50 -141 -110v-3h-124v2c0 136 97 218 259 218c95 0 170 -30 210 -85c53 53 126 85 210 85
c173 0 302 -128 302 -301v-47h-477c16 -85 83 -142 181 -142c76 0 138 44 166 106l114 -49c-49 -106 -152 -176 -280 -176zM237 100c97 0 168 87 175 135c1 2 1 54 -2 59c-7 -18 -59 -35 -134 -52c-82 -18 -123 -38 -123 -84c0 -34 25 -58 84 -58zM713 478
c-79 0 -140 -47 -166 -116h330c-22 75 -83 116 -164 116z" />
    <glyph glyph-name="ae.smcp" unicode="&#xe231;" horiz-adv-x="787" 
d="M13 0l271 596h471v-125h-302l20 -109h282v-126h-260l20 -111h240v-125h-353l-16 88h-189l-39 -88h-145zM332 392l-81 -183h114z" />
    <glyph glyph-name="ae.smcp" unicode="&#xf7e6;" horiz-adv-x="787" 
d="M13 0l271 596h471v-125h-302l20 -109h282v-126h-260l20 -111h240v-125h-353l-16 88h-189l-39 -88h-145zM332 392l-81 -183h114z" />
    <glyph glyph-name="aeacute" unicode="&#x1fd;" horiz-adv-x="1035" 
d="M719 -12c-111 0 -198 48 -250 123c-40 -68 -129 -123 -239 -123c-148 0 -211 71 -212 166c0 109 83 157 193 184c98 26 196 38 196 89c0 35 -36 63 -108 63c-97 0 -141 -50 -141 -110v-3h-124v2c0 136 97 218 259 218c95 0 170 -30 210 -85c53 53 126 85 210 85
c173 0 302 -128 302 -301v-47h-477c16 -85 83 -142 181 -142c76 0 138 44 166 106l114 -49c-49 -106 -152 -176 -280 -176zM237 100c97 0 168 87 175 135c1 2 1 54 -2 59c-7 -18 -59 -35 -134 -52c-82 -18 -123 -38 -123 -84c0 -34 25 -58 84 -58zM713 478
c-79 0 -140 -47 -166 -116h330c-22 75 -83 116 -164 116zM469 638l115 170h126l-150 -170h-91z" />
    <glyph glyph-name="aeacute.smcp" unicode="&#xe232;" horiz-adv-x="787" 
d="M13 0l271 596h471v-125h-302l20 -109h282v-126h-260l20 -111h240v-125h-353l-16 88h-189l-39 -88h-145zM420 646l115 170h126l-150 -170h-91zM332 392l-81 -183h114z" />
    <glyph glyph-name="aeacute.smcp" unicode="&#xf624;" horiz-adv-x="787" 
d="M13 0l271 596h471v-125h-302l20 -109h282v-126h-260l20 -111h240v-125h-353l-16 88h-189l-39 -88h-145zM420 646l115 170h126l-150 -170h-91zM332 392l-81 -183h114z" />
    <glyph glyph-name="agrave" unicode="&#xe0;" horiz-adv-x="671" 
d="M308 -12c-141 0 -288 113 -288 304c0 194 142 305 290 305c77 0 146 -32 188 -82v70h135v-585h-135v76c-43 -54 -113 -88 -190 -88zM330 112c100 0 175 81 175 182c0 99 -75 180 -175 180s-177 -79 -177 -180c0 -102 77 -182 177 -182zM286 645l-150 170h127l114 -170
h-91z" />
    <glyph glyph-name="agrave.alt" unicode="&#xe892;" horiz-adv-x="516" 
d="M190 -10c-109 0 -169 57 -169 139c0 93 66 139 161 164c81 22 162 33 162 70c0 25 -25 42 -76 42c-77 0 -108 -39 -108 -83v-3h-121v2c0 120 81 189 223 189c122 0 217 -48 217 -162v-348h-129v55c-36 -36 -91 -65 -160 -65zM218 550l-150 170h127l114 -170h-91zM202 101
c80 0 145 72 148 112v29c-4 -10 -47 -27 -106 -42c-67 -15 -95 -31 -95 -62c0 -26 23 -37 53 -37z" />
    <glyph glyph-name="agrave.smcp" unicode="&#xe222;" horiz-adv-x="581" 
d="M20 0l205 596h131l206 -596h-136l-31 93h-209l-31 -93h-135zM248 646l-150 170h127l114 -170h-91zM291 405l-64 -189h127z" />
    <glyph glyph-name="agrave.smcp" unicode="&#xf7e0;" horiz-adv-x="581" 
d="M20 0l205 596h131l206 -596h-136l-31 93h-209l-31 -93h-135zM248 646l-150 170h127l114 -170h-91zM291 405l-64 -189h127z" />
    <glyph glyph-name="altcedilla" unicode="&#xe416;" horiz-adv-x="472" 
d="M225 -240c-74 0 -119 19 -154 58l77 49c19 -22 42 -35 76 -35c29 0 54 13 54 30c0 18 -20 28 -58 28h-7v57h24c83 1 132 -35 132 -84c0 -62 -69 -103 -144 -103z" />
    <glyph glyph-name="amacron" unicode="&#x101;" horiz-adv-x="671" 
d="M308 -12c-141 0 -288 113 -288 304c0 194 142 305 290 305c77 0 146 -32 188 -82v70h135v-585h-135v76c-43 -54 -113 -88 -190 -88zM330 112c100 0 175 81 175 182c0 99 -75 180 -175 180s-177 -79 -177 -180c0 -102 77 -182 177 -182zM203 646v86h264v-86h-264z" />
    <glyph glyph-name="amacron.alt" unicode="&#xe895;" horiz-adv-x="516" 
d="M190 -10c-109 0 -169 57 -169 139c0 93 66 139 161 164c81 22 162 33 162 70c0 25 -25 42 -76 42c-77 0 -108 -39 -108 -83v-3h-121v2c0 120 81 189 223 189c122 0 217 -48 217 -162v-348h-129v55c-36 -36 -91 -65 -160 -65zM130 550v86h264v-86h-264zM202 101
c80 0 145 72 148 112v29c-4 -10 -47 -27 -106 -42c-67 -15 -95 -31 -95 -62c0 -26 23 -37 53 -37z" />
    <glyph glyph-name="amacron.smcp" unicode="&#xe228;" horiz-adv-x="581" 
d="M20 0l205 596h131l206 -596h-136l-31 93h-209l-31 -93h-135zM159 646v86h264v-86h-264zM291 405l-64 -189h127z" />
    <glyph glyph-name="amacron.smcp" unicode="&#xf641;" horiz-adv-x="581" 
d="M20 0l205 596h131l206 -596h-136l-31 93h-209l-31 -93h-135zM159 646v86h264v-86h-264zM291 405l-64 -189h127z" />
    <glyph glyph-name="ampersand" unicode="&#x26;" horiz-adv-x="749" 
d="M563 0l-57 56c-58 -41 -125 -67 -197 -67c-212 0 -288 126 -288 238c0 92 53 162 126 205c-22 36 -34 74 -34 120c0 106 88 188 209 188c122 0 186 -62 213 -136l-132 -47c-11 35 -34 62 -76 62c-41 0 -71 -28 -71 -67c0 -57 25 -81 121 -178l139 -140
c29 41 49 88 59 134h-123v129h258v-63c0 -91 -41 -198 -109 -285l148 -149h-186zM308 108c40 0 78 12 112 33l-155 156c-15 14 -28 27 -41 41c-44 -27 -68 -60 -68 -110c0 -63 53 -120 152 -120z" />
    <glyph glyph-name="ampersand.smcp" unicode="&#xe401;" horiz-adv-x="639" 
d="M451 0l-37 36c-47 -28 -99 -45 -156 -45c-173 0 -236 98 -236 194c0 71 39 128 93 164c-17 29 -26 59 -26 94c0 91 70 161 178 161c101 0 154 -49 182 -108l-128 -56c-8 25 -24 45 -50 45s-46 -18 -46 -42c0 -36 20 -54 104 -139l98 -99c20 28 35 60 43 92h-94v123h227
v-59c0 -79 -35 -168 -93 -239l120 -122h-179zM258 106c24 0 47 5 69 15l-105 107l-30 29c-26 -18 -39 -39 -39 -71c0 -44 38 -80 105 -80z" />
    <glyph glyph-name="ampersand.smcp" unicode="&#xf726;" horiz-adv-x="639" 
d="M451 0l-37 36c-47 -28 -99 -45 -156 -45c-173 0 -236 98 -236 194c0 71 39 128 93 164c-17 29 -26 59 -26 94c0 91 70 161 178 161c101 0 154 -49 182 -108l-128 -56c-8 25 -24 45 -50 45s-46 -18 -46 -42c0 -36 20 -54 104 -139l98 -99c20 28 35 60 43 92h-94v123h227
v-59c0 -79 -35 -168 -93 -239l120 -122h-179zM258 106c24 0 47 5 69 15l-105 107l-30 29c-26 -18 -39 -39 -39 -71c0 -44 38 -80 105 -80z" />
    <glyph glyph-name="anglebracketleft" unicode="&#x3008;" horiz-adv-x="392" 
d="M238 -230l-227 480l227 480h144l-228 -480l228 -480h-144z" />
    <glyph glyph-name="anglebracketleft.cap" unicode="&#xe497;" horiz-adv-x="392" 
d="M238 -120l-227 480l227 480h144l-228 -480l228 -480h-144z" />
    <glyph glyph-name="anglebracketleft.smcp" unicode="&#xe49f;" horiz-adv-x="343" 
d="M335 -98h-139l-185 391l186 393h139l-187 -393z" />
    <glyph glyph-name="anglebracketright" unicode="&#x3009;" horiz-adv-x="392" 
d="M155 -230h-144l228 480l-228 480h144l227 -480z" />
    <glyph glyph-name="anglebracketright.cap" unicode="&#xe498;" horiz-adv-x="392" 
d="M155 -120h-144l228 480l-228 480h144l227 -480z" />
    <glyph glyph-name="anglebracketright.smcp" unicode="&#xe490;" horiz-adv-x="343" 
d="M150 -98h-139l186 391l-187 393h139l186 -393z" />
    <glyph glyph-name="anocross.smcp" unicode="&#xe220;" horiz-adv-x="581" 
d="M20 0l205 596h131l206 -596h-136l-135 405l-136 -405h-135z" />
    <glyph glyph-name="aogonek" unicode="&#x105;" horiz-adv-x="671" 
d="M308 -12c-141 0 -288 113 -288 304c0 194 142 305 290 305c77 0 146 -32 188 -82v70h135v-585h1c-76 -46 -105 -87 -105 -111c0 -22 16 -33 38 -33c20 0 37 14 50 30l79 -55c-35 -36 -76 -60 -134 -60c-77 0 -131 46 -132 108c-1 51 25 88 68 124v73
c-43 -54 -113 -88 -190 -88zM330 112c100 0 175 81 175 182c0 99 -75 180 -175 180s-177 -79 -177 -180c0 -102 77 -182 177 -182z" />
    <glyph glyph-name="aogonek.alt" unicode="&#xe899;" horiz-adv-x="516" 
d="M411 -229c-77 0 -131 46 -132 108c-1 52 26 90 71 126v50c-36 -36 -91 -65 -160 -65c-109 0 -169 57 -169 139c0 93 66 139 161 164c81 22 162 33 162 70c0 25 -25 42 -76 42c-77 0 -108 -39 -108 -83v-3h-121v2c0 120 81 189 223 189c122 0 217 -48 217 -162v-346l4 -2
c-76 -46 -105 -87 -105 -111c0 -22 16 -33 38 -33c20 0 37 14 50 30l79 -55c-35 -36 -76 -60 -134 -60zM202 101c80 0 145 72 148 112v29c-4 -10 -47 -27 -106 -42c-67 -15 -95 -31 -95 -62c0 -26 23 -37 53 -37z" />
    <glyph glyph-name="aogonek.smcp" unicode="&#xe22f;" horiz-adv-x="581" 
d="M20 0l205 596h131l206 -596c-109 -72 -130 -87 -130 -113c0 -22 20 -31 43 -31c27 0 42 15 60 29l79 -54c-35 -32 -91 -58 -139 -58c-86 0 -144 48 -144 109c0 43 21 83 92 127l-28 84h-209l-31 -93h-135zM291 405l-64 -189h127z" />
    <glyph glyph-name="aogonek.smcp" unicode="&#xf642;" horiz-adv-x="581" 
d="M20 0l205 596h131l206 -596c-109 -72 -130 -87 -130 -113c0 -22 20 -31 43 -31c27 0 42 15 60 29l79 -54c-35 -32 -91 -58 -139 -58c-86 0 -144 48 -144 109c0 43 21 83 92 127l-28 84h-209l-31 -93h-135zM291 405l-64 -189h127z" />
    <glyph glyph-name="approxequal" unicode="&#x2248;" horiz-adv-x="441" 
d="M36 384v115c29 14 56 26 97 26c60 0 125 -38 177 -38c39 0 62 10 96 25v-115c-28 -16 -52 -25 -96 -25c-56 0 -126 38 -177 38c-40 0 -67 -12 -97 -26zM36 217v115c29 14 53 27 94 27c60 0 130 -37 182 -37c39 0 60 8 94 23v-115c-28 -16 -50 -23 -94 -23
c-56 0 -131 37 -182 37c-40 0 -64 -13 -94 -27z" />
    <glyph glyph-name="aring" unicode="&#xe5;" horiz-adv-x="671" 
d="M308 -12c-141 0 -288 113 -288 304c0 194 142 305 290 305c77 0 146 -32 188 -82v70h135v-585h-135v76c-43 -54 -113 -88 -190 -88zM330 112c100 0 175 81 175 182c0 99 -75 180 -175 180s-177 -79 -177 -180c0 -102 77 -182 177 -182zM329 640c-64 0 -116 52 -116 116
c0 66 52 118 116 118c65 0 117 -52 117 -118c0 -64 -52 -116 -117 -116zM329 717c22 0 41 18 41 39c0 22 -19 41 -41 41s-40 -19 -40 -41c0 -21 18 -39 40 -39z" />
    <glyph glyph-name="aring.alt" unicode="&#xe897;" horiz-adv-x="516" 
d="M190 -10c-109 0 -169 57 -169 139c0 93 66 139 161 164c81 22 162 33 162 70c0 25 -25 42 -76 42c-77 0 -108 -39 -108 -83v-3h-121v2c0 120 81 189 223 189c122 0 217 -48 217 -162v-348h-129v55c-36 -36 -91 -65 -160 -65zM264 543c-64 0 -116 52 -116 116
c0 66 52 118 116 118c65 0 117 -52 117 -118c0 -64 -52 -116 -117 -116zM202 101c80 0 145 72 148 112v29c-4 -10 -47 -27 -106 -42c-67 -15 -95 -31 -95 -62c0 -26 23 -37 53 -37zM264 620c22 0 41 18 41 39c0 22 -19 41 -41 41s-40 -19 -40 -41c0 -21 18 -39 40 -39z" />
    <glyph glyph-name="aring.smcp" unicode="&#xe226;" horiz-adv-x="581" 
d="M20 0l195 569c-26 21 -42 54 -42 90c0 66 52 118 116 118c65 0 117 -52 117 -118c0 -36 -16 -67 -41 -89l197 -570h-136l-31 93h-209l-31 -93h-135zM291 405l-64 -189h127zM289 620c22 0 41 18 41 39c0 22 -19 41 -41 41s-40 -19 -40 -41c0 -21 18 -39 40 -39z" />
    <glyph glyph-name="aring.smcp" unicode="&#xf7e5;" horiz-adv-x="581" 
d="M20 0l195 569c-26 21 -42 54 -42 90c0 66 52 118 116 118c65 0 117 -52 117 -118c0 -36 -16 -67 -41 -89l197 -570h-136l-31 93h-209l-31 -93h-135zM291 405l-64 -189h127zM289 620c22 0 41 18 41 39c0 22 -19 41 -41 41s-40 -19 -40 -41c0 -21 18 -39 40 -39z" />
    <glyph glyph-name="aringacute" unicode="&#x1fb;" horiz-adv-x="671" 
d="M308 -12c-141 0 -288 113 -288 304c0 150 85 251 192 288c-9 17 -14 36 -14 56c0 66 52 118 116 118c65 0 117 -52 117 -118c0 -22 -6 -42 -17 -60c33 -14 62 -35 84 -61v70h135v-585h-135v76c-43 -54 -113 -88 -190 -88zM330 112c100 0 175 81 175 182
c0 99 -75 180 -175 180s-177 -79 -177 -180c0 -102 77 -182 177 -182zM267 788l115 170h126l-150 -170h-91zM314 597c22 0 41 18 41 39c0 22 -19 41 -41 41s-40 -19 -40 -41c0 -20 16 -38 36 -39h4z" />
    <glyph glyph-name="aringacute.alt" unicode="&#xf458;" horiz-adv-x="516" 
d="M190 -10c-109 0 -169 57 -169 139c0 93 66 139 161 164c81 22 162 33 162 70c0 25 -25 42 -76 42c-77 0 -108 -39 -108 -83v-3h-121v2c0 120 81 189 223 189c122 0 217 -48 217 -162v-348h-129v55c-36 -36 -91 -65 -160 -65zM263 546c-64 0 -116 52 -116 116
c0 66 52 118 116 118c65 0 117 -52 117 -118c0 -64 -52 -116 -117 -116zM218 818l115 170h126l-150 -170h-91zM202 101c80 0 145 72 148 112v29c-4 -10 -47 -27 -106 -42c-67 -15 -95 -31 -95 -62c0 -26 23 -37 53 -37zM263 623c22 0 41 18 41 39c0 22 -19 41 -41 41
s-40 -19 -40 -41c0 -21 18 -39 40 -39z" />
    <glyph glyph-name="aringacute.smcp" unicode="&#xe22d;" horiz-adv-x="581" 
d="M20 0l195 569c-26 21 -42 54 -42 90c0 66 52 118 116 118c65 0 117 -52 117 -118c0 -36 -16 -67 -41 -89l197 -570h-136l-31 93h-209l-31 -93h-135zM243 817l115 170h126l-150 -170h-91zM291 405l-64 -189h127zM289 620c22 0 41 18 41 39c0 22 -19 41 -41 41
s-40 -19 -40 -41c0 -21 18 -39 40 -39z" />
    <glyph glyph-name="aringacute.smcp" unicode="&#xf625;" horiz-adv-x="581" 
d="M20 0l195 569c-26 21 -42 54 -42 90c0 66 52 118 116 118c65 0 117 -52 117 -118c0 -36 -16 -67 -41 -89l197 -570h-136l-31 93h-209l-31 -93h-135zM243 817l115 170h126l-150 -170h-91zM291 405l-64 -189h127zM289 620c22 0 41 18 41 39c0 22 -19 41 -41 41
s-40 -19 -40 -41c0 -21 18 -39 40 -39z" />
    <glyph glyph-name="arrowdown" unicode="&#x2193;" horiz-adv-x="896" 
d="M412 -1c-66 99 -198 193 -272 215l64 122c69 -26 127 -75 169 -127v521h131v-522c42 52 100 101 170 128l64 -122c-74 -22 -206 -116 -273 -215h-53z" />
    <glyph glyph-name="arrowdown.alt" unicode="&#xf459;" horiz-adv-x="1068" 
d="M834 129c-105 -49 -216 -133 -268 -232h-58c-57 100 -191 182 -266 204l59 121c69 -27 127 -69 170 -118v626h130v-616c36 49 95 92 156 125zM792 576l-160 -71v41l160 91v-61zM792 760l-160 -71v41l160 91v-61zM792 668l-160 -71v41l160 91v-61zM440 690l-155 68v61
l155 -88v-41zM440 506l-155 68v61l155 -88v-41zM440 598l-155 68v61l155 -88v-41z" />
    <glyph glyph-name="arrowleft" unicode="&#x2190;" horiz-adv-x="896" 
d="M309 66c-49 105 -138 206 -236 268v57c99 67 193 199 215 274l122 -65c-27 -70 -76 -128 -128 -170h523v-130h-522c53 -35 102 -94 136 -158z" />
    <glyph glyph-name="arrowleft.alt" unicode="&#xf460;" horiz-adv-x="1068" 
d="M275 68c-50 105 -133 216 -232 268v57c100 57 182 191 204 266l121 -58c-27 -70 -68 -128 -117 -170h691v-130h-683c49 -37 93 -96 126 -157zM788 109l-71 161h41l91 -161h-61zM972 109l-71 161h41l91 -161h-61zM880 109l-71 161h41l91 -161h-61zM902 462l68 155h61
l-88 -155h-41zM718 462l68 155h61l-88 -155h-41zM810 462l68 155h61l-88 -155h-41z" />
    <glyph glyph-name="arrowright" unicode="&#x2192;" horiz-adv-x="896" 
d="M569 66l-110 76c33 64 83 123 135 158h-521v130h523c-52 42 -102 100 -128 170l122 65c22 -75 116 -207 215 -274v-57c-98 -62 -187 -163 -236 -268z" />
    <glyph glyph-name="arrowright.alt" unicode="&#xf461;" horiz-adv-x="1068" 
d="M794 664c50 -105 134 -216 232 -268v-58c-99 -57 -181 -191 -203 -266l-121 59c25 69 68 127 117 170h-691v130h681c-48 36 -92 95 -124 156zM281 622l72 -160h-42l-90 160h60zM97 622l72 -160h-42l-90 160h60zM189 622l72 -160h-42l-90 160h60zM168 270l-69 -155h-60
l87 155h42zM352 270l-69 -155h-60l87 155h42zM260 270l-69 -155h-60l87 155h42z" />
    <glyph glyph-name="arrowup" unicode="&#x2191;" horiz-adv-x="896" 
d="M374 0v522c-42 -52 -101 -102 -170 -127l-64 121c74 22 206 116 273 215h53c66 -99 198 -193 272 -215l-64 -121c-69 25 -127 74 -169 125v-520h-131z" />
    <glyph glyph-name="arrowup.alt" unicode="&#xf462;" horiz-adv-x="1068" 
d="M243 622c104 49 216 133 267 231h58c57 -99 191 -181 266 -203l-58 -121c-70 26 -128 68 -170 117v-646h-131v636c-37 -48 -95 -92 -156 -124zM284 154l160 72v-42l-160 -91v61zM284 -30l160 72v-42l-160 -91v61zM284 62l160 72v-42l-160 -91v61zM636 41l156 -69v-61
l-156 88v42zM636 225l156 -69v-61l-156 88v42zM636 133l156 -69v-61l-156 88v42z" />
    <glyph glyph-name="asciicircum" unicode="^" horiz-adv-x="472" 
d="M75 549l119 170h84l119 -170h-101l-60 89l-59 -89h-102z" />
    <glyph glyph-name="asciitilde" unicode="~" horiz-adv-x="471" 
d="M63 574c0 81 39 134 105 134c33 0 56 -12 76 -24c19 -12 35 -24 52 -24c19 0 28 14 28 44h78c0 -81 -35 -134 -105 -134c-39 0 -65 17 -87 30c-15 9 -28 17 -42 17c-18 0 -26 -13 -26 -43h-79z" />
    <glyph glyph-name="asterisk" unicode="*" horiz-adv-x="405" 
d="M325 415l-87 77l23 -115h-117l22 114l-89 -76l-57 102l110 37l-110 39l60 100l87 -76l-23 114h117l-24 -116l90 78l58 -102l-112 -38l112 -38z" />
    <glyph glyph-name="at" unicode="@" horiz-adv-x="789" 
d="M395 -125c-207 0 -373 167 -373 375c0 207 166 375 373 375c228 0 373 -168 373 -337c0 -114 -67 -211 -172 -211c-59 0 -98 25 -120 55c-25 -33 -68 -54 -126 -54c-79 0 -166 64 -154 180c13 123 109 180 179 180c42 0 76 -14 97 -37c3 28 4 31 4 31h107l-19 -181
c-5 -42 8 -68 41 -68c32 0 55 43 55 105c0 114 -101 232 -265 232c-149 0 -267 -121 -267 -271c0 -149 118 -270 267 -270c79 0 148 34 198 88l81 -67c-68 -76 -168 -125 -279 -125zM375 179c46 0 81 37 85 82c5 44 -23 81 -68 81c-44 0 -85 -35 -87 -81
c-6 -46 25 -82 70 -82z" />
    <glyph glyph-name="at.cap" unicode="&#xe513;" horiz-adv-x="789" 
d="M395 -10c-207 0 -373 167 -373 375c0 207 166 375 373 375c228 0 373 -168 373 -337c0 -114 -67 -211 -172 -211c-59 0 -98 25 -120 55c-25 -33 -68 -54 -126 -54c-79 0 -166 64 -154 180c13 123 109 180 179 180c42 0 76 -14 97 -37c3 28 4 31 4 31h107l-19 -181
c-5 -43 8 -68 41 -68c32 0 55 43 55 105c0 114 -101 232 -265 232c-149 0 -267 -121 -267 -271c0 -149 118 -270 267 -270c79 0 148 34 197 88l82 -67c-68 -76 -168 -125 -279 -125zM375 294c46 0 81 37 85 82c5 44 -23 81 -68 81c-44 0 -85 -35 -87 -81
c-6 -46 25 -82 70 -82z" />
    <glyph glyph-name="at.smcp" unicode="&#xf60b;" horiz-adv-x="789" 
d="M395 -75c-207 0 -373 167 -373 375c0 207 166 375 373 375c228 0 373 -168 373 -337c0 -114 -67 -211 -172 -211c-59 0 -98 25 -120 55c-25 -33 -68 -54 -126 -54c-79 0 -166 64 -154 180c13 123 109 180 179 180c42 0 76 -14 97 -37c3 28 4 31 4 31h107l-19 -181
c-5 -42 8 -68 41 -68c32 0 55 43 55 105c0 114 -101 232 -265 232c-149 0 -267 -121 -267 -271c0 -149 118 -270 267 -270c79 0 148 34 197 88l82 -67c-68 -76 -168 -125 -279 -125zM375 229c46 0 81 37 85 82c5 44 -23 81 -68 81c-44 0 -85 -35 -87 -81
c-6 -46 25 -82 70 -82z" />
    <glyph glyph-name="atilde" unicode="&#xe3;" horiz-adv-x="671" 
d="M308 -12c-141 0 -288 113 -288 304c0 194 142 305 290 305c77 0 146 -32 188 -82v70h135v-585h-135v76c-43 -54 -113 -88 -190 -88zM330 112c100 0 175 81 175 182c0 99 -75 180 -175 180s-177 -79 -177 -180c0 -102 77 -182 177 -182zM163 645c0 81 39 135 104 135
c33 0 56 -12 77 -24c19 -13 35 -25 52 -25c18 0 28 15 28 45h78c0 -82 -35 -135 -105 -135c-39 0 -65 18 -87 31c-15 9 -28 17 -43 17c-18 0 -26 -13 -26 -44h-78z" />
    <glyph glyph-name="atilde.alt" unicode="&#xe898;" horiz-adv-x="516" 
d="M190 -10c-109 0 -169 57 -169 139c0 93 66 139 161 164c81 22 162 33 162 70c0 25 -25 42 -76 42c-77 0 -108 -39 -108 -83v-3h-121v2c0 120 81 189 223 189c122 0 217 -48 217 -162v-348h-129v55c-36 -36 -91 -65 -160 -65zM103 550c0 81 39 135 104 135
c33 0 56 -12 77 -24c19 -13 35 -25 52 -25c18 0 28 15 28 45h78c0 -82 -35 -135 -105 -135c-39 0 -65 18 -87 31c-15 9 -28 17 -43 17c-18 0 -26 -13 -26 -44h-78zM202 101c80 0 145 72 148 112v29c-4 -10 -47 -27 -106 -42c-67 -15 -95 -31 -95 -62c0 -26 23 -37 53 -37z
" />
    <glyph glyph-name="atilde.smcp" unicode="&#xe225;" horiz-adv-x="581" 
d="M20 0l205 596h131l206 -596h-136l-31 93h-209l-31 -93h-135zM119 646c0 81 39 135 104 135c33 0 56 -12 77 -24c19 -13 35 -25 52 -25c18 0 28 15 28 45h78c0 -82 -35 -135 -105 -135c-39 0 -65 18 -87 31c-15 9 -28 17 -43 17c-18 0 -26 -13 -26 -44h-78zM291 405
l-64 -189h127z" />
    <glyph glyph-name="atilde.smcp" unicode="&#xf7e3;" horiz-adv-x="581" 
d="M20 0l205 596h131l206 -596h-136l-31 93h-209l-31 -93h-135zM119 646c0 81 39 135 104 135c33 0 56 -12 77 -24c19 -13 35 -25 52 -25c18 0 28 15 28 45h78c0 -82 -35 -135 -105 -135c-39 0 -65 18 -87 31c-15 9 -28 17 -43 17c-18 0 -26 -13 -26 -44h-78zM291 405
l-64 -189h127z" />
    <glyph glyph-name="aumlaut.smcp" unicode="&#xf179;" horiz-adv-x="581" 
d="M20 0l205 596h131l206 -596h-136l-31 93h-209l-31 -93h-135zM36 465v131h120v-131h-120zM425 465v131h120v-131h-120zM291 405l-64 -189h127z" />
    <glyph glyph-name="b" unicode="b" horiz-adv-x="668" 
d="M365 -12c-79 0 -150 33 -192 88v-76h-134v740h135v-229c41 52 111 86 189 86c147 0 288 -111 288 -305c0 -191 -145 -304 -286 -304zM342 112c99 0 176 80 176 182c0 101 -77 180 -176 180c-100 0 -174 -81 -174 -180c0 -101 74 -182 174 -182z" />
    <glyph glyph-name="b.smcp" unicode="&#xe202;" horiz-adv-x="489" 
d="M37 0v596h198c141 0 215 -57 215 -168c0 -53 -22 -91 -60 -116c50 -25 78 -69 78 -132c1 -123 -85 -180 -224 -180h-207zM244 243h-73v-123h75c58 0 86 22 86 63c0 40 -21 60 -88 60zM240 477h-69v-111h69c56 0 77 23 77 58c0 36 -23 53 -77 53z" />
    <glyph glyph-name="b.smcp" unicode="&#xf762;" horiz-adv-x="489" 
d="M37 0v596h198c141 0 215 -57 215 -168c0 -53 -22 -91 -60 -116c50 -25 78 -69 78 -132c1 -123 -85 -180 -224 -180h-207zM244 243h-73v-123h75c58 0 86 22 86 63c0 40 -21 60 -88 60zM240 477h-69v-111h69c56 0 77 23 77 58c0 36 -23 53 -77 53z" />
    <glyph glyph-name="backslash" unicode="\" horiz-adv-x="511" 
d="M357 0l-346 730h144l346 -730h-144z" />
    <glyph glyph-name="backslash.cap" unicode="&#xe462;" horiz-adv-x="511" 
d="M357 0l-346 730h144l346 -730h-144z" />
    <glyph glyph-name="backslash.smcp" unicode="&#xe468;" horiz-adv-x="454" 
d="M300 0l-283 596h138l283 -596h-138z" />
    <glyph glyph-name="ballotboxwithx" unicode="&#x2612;" horiz-adv-x="700" 
d="M100 0v500h500v-500h-500zM218 383v-266h264v266h-264zM295 369l55 -55l56 57l65 -65l-56 -57l55 -55l-65 -65l-55 54l-54 -55l-65 65l54 55l-55 56z" />
    <glyph glyph-name="bar" unicode="|" horiz-adv-x="209" 
d="M36 -230v960h136v-960h-136z" />
    <glyph glyph-name="bar.cap" unicode="&#xe463;" horiz-adv-x="209" 
d="M36 -120v960h136v-960h-136z" />
    <glyph glyph-name="bar.smcp" unicode="&#xe469;" horiz-adv-x="204" 
d="M36 -98v784h132v-784h-132z" />
    <glyph glyph-name="blackcircle" unicode="&#x25cf;" horiz-adv-x="927" 
d="M463 -10c-207 0 -373 167 -373 375c0 207 166 375 373 375c208 0 374 -168 374 -375c0 -208 -166 -375 -374 -375z" />
    <glyph glyph-name="blacksmallsquare" unicode="&#x25aa;" horiz-adv-x="700" 
d="M100 0v500h500v-500h-500z" />
    <glyph glyph-name="blacksquare" unicode="&#x25a0;" horiz-adv-x="926" 
d="M100 0v730h726v-730h-726z" />
    <glyph glyph-name="blacksquare" unicode="&#xe740;" horiz-adv-x="926" 
d="M100 0v730h726v-730h-726z" />
    <glyph glyph-name="braceleft" unicode="{" horiz-adv-x="372" 
d="M346 -230h-11c-167 0 -220 54 -220 217v97c0 78 -10 101 -94 101v125c84 0 94 22 94 100v103c0 163 53 217 220 217h11v-125c-86 0 -97 -13 -97 -93v-103c0 -84 -21 -135 -75 -162c55 -27 75 -78 75 -162v-97c0 -80 11 -93 97 -93v-125z" />
    <glyph glyph-name="braceleft.cap" unicode="&#xe495;" horiz-adv-x="372" 
d="M346 -120h-11c-167 0 -220 54 -220 217v97c0 78 -10 101 -94 101v125c84 0 94 22 94 100v103c0 163 53 217 220 217h11v-125c-86 0 -97 -13 -97 -93v-103c0 -84 -21 -135 -75 -162c55 -27 75 -78 75 -162v-97c0 -80 11 -93 97 -93v-125z" />
    <glyph glyph-name="braceleft.smcp" unicode="&#xe49d;" horiz-adv-x="336" 
d="M289 -98c-141 0 -183 41 -183 177v71c0 67 -7 80 -70 80v122c63 0 70 14 70 80v77c0 134 42 177 183 177h11v-121c-56 0 -65 -11 -65 -61v-73c0 -73 -13 -117 -56 -140c43 -24 56 -68 56 -140v-68c0 -49 9 -61 65 -61v-120h-11z" />
    <glyph glyph-name="braceleft.smcp" unicode="&#xf60c;" horiz-adv-x="336" 
d="M289 -98c-141 0 -183 41 -183 177v71c0 67 -7 80 -70 80v122c63 0 70 14 70 80v77c0 134 42 177 183 177h11v-121c-56 0 -65 -11 -65 -61v-73c0 -73 -13 -117 -56 -140c43 -24 56 -68 56 -140v-68c0 -49 9 -61 65 -61v-120h-11z" />
    <glyph glyph-name="braceright" unicode="}" horiz-adv-x="372" 
d="M26 -230v125c86 0 97 13 97 93v97c0 84 20 135 75 162c-55 27 -75 78 -75 162v103c0 80 -11 93 -97 93v125h11c167 0 220 -54 220 -217v-103c0 -78 10 -100 94 -100v-125c-84 0 -94 -23 -94 -101v-97c0 -163 -53 -217 -220 -217h-11z" />
    <glyph glyph-name="braceright.cap" unicode="&#xe496;" horiz-adv-x="372" 
d="M26 -120v125c86 0 97 13 97 93v97c0 84 20 135 75 162c-55 27 -75 78 -75 162v103c0 80 -11 93 -97 93v125h11c167 0 220 -54 220 -217v-103c0 -78 10 -100 94 -100v-125c-84 0 -94 -23 -94 -101v-97c0 -163 -53 -217 -220 -217h-11z" />
    <glyph glyph-name="braceright.smcp" unicode="&#xe49e;" horiz-adv-x="337" 
d="M36 -98v120c52 0 64 9 64 58v71c0 72 12 116 56 140c-44 23 -56 67 -56 140v77c0 48 -12 57 -64 57v121h11c141 0 183 -43 183 -177v-77c0 -66 7 -80 71 -80v-122c-64 0 -71 -13 -71 -80v-71c0 -136 -42 -177 -183 -177h-11z" />
    <glyph glyph-name="braceright.smcp" unicode="&#xf60d;" horiz-adv-x="337" 
d="M36 -98v120c52 0 64 9 64 58v71c0 72 12 116 56 140c-44 23 -56 67 -56 140v77c0 48 -12 57 -64 57v121h11c141 0 183 -43 183 -177v-77c0 -66 7 -80 71 -80v-122c-64 0 -71 -13 -71 -80v-71c0 -136 -42 -177 -183 -177h-11z" />
    <glyph glyph-name="bracketleft" unicode="[" horiz-adv-x="345" 
d="M36 -230v960h273v-130h-137v-700h137v-130h-273z" />
    <glyph glyph-name="bracketleft.cap" unicode="&#xe493;" horiz-adv-x="345" 
d="M36 -120v960h273v-130h-137v-700h137v-130h-273z" />
    <glyph glyph-name="bracketleft.smcp" unicode="&#xe49b;" horiz-adv-x="310" 
d="M36 -98v784h239v-125h-107v-534h107v-125h-239z" />
    <glyph glyph-name="bracketleft.smcp" unicode="&#xf60e;" horiz-adv-x="310" 
d="M36 -98v784h239v-125h-107v-534h107v-125h-239z" />
    <glyph glyph-name="bracketright" unicode="]" horiz-adv-x="345" 
d="M36 -230v130h137v700h-137v130h273v-960h-273z" />
    <glyph glyph-name="bracketright.cap" unicode="&#xe494;" horiz-adv-x="345" 
d="M36 -120v130h137v700h-137v130h273v-960h-273z" />
    <glyph glyph-name="bracketright.smcp" unicode="&#xe49c;" horiz-adv-x="310" 
d="M36 -98v125h107v534h-107v125h238v-784h-238z" />
    <glyph glyph-name="bracketright.smcp" unicode="&#xf60f;" horiz-adv-x="310" 
d="M36 -98v125h107v534h-107v125h238v-784h-238z" />
    <glyph glyph-name="brokenbar" unicode="&#xa6;" horiz-adv-x="211" 
d="M36 310v420h136v-420h-136zM36 -230v420h136v-420h-136z" />
    <glyph glyph-name="brokenbar.cap" unicode="&#xe465;" horiz-adv-x="211" 
d="M36 420v420h136v-420h-136zM36 -120v420h136v-420h-136z" />
    <glyph glyph-name="bullet" unicode="&#x2022;" horiz-adv-x="395" 
d="M198 144c-61 0 -111 50 -111 111s50 111 111 111c60 0 111 -50 111 -111s-51 -111 -111 -111z" />
    <glyph glyph-name="bullet.cap" unicode="&#xe466;" horiz-adv-x="395" 
d="M198 254c-61 0 -111 50 -111 111s50 111 111 111c60 0 111 -50 111 -111s-51 -111 -111 -111z" />
    <glyph glyph-name="bullseye" unicode="&#x25ce;" horiz-adv-x="927" 
d="M0 0v20h927v-20h-927z" />
    <glyph glyph-name="c" unicode="c" horiz-adv-x="617" 
d="M324 -12c-171 0 -304 136 -304 304c0 171 134 305 304 305c131 0 234 -75 279 -181l-121 -51c-27 64 -86 105 -157 105c-99 0 -173 -79 -173 -178c0 -97 74 -177 174 -177c75 0 132 46 158 109l121 -52c-46 -108 -145 -184 -281 -184z" />
    <glyph glyph-name="c.smcp" unicode="&#xe203;" horiz-adv-x="623" 
d="M336 -8c-182 0 -308 136 -308 306c0 173 130 306 309 306c112 0 211 -59 263 -148l-115 -72c-28 53 -83 89 -149 89c-102 0 -172 -79 -172 -175s70 -174 169 -174c73 0 125 41 151 100l124 -63c-51 -99 -145 -169 -272 -169z" />
    <glyph glyph-name="c.smcp" unicode="&#xf763;" horiz-adv-x="623" 
d="M336 -8c-182 0 -308 136 -308 306c0 173 130 306 309 306c112 0 211 -59 263 -148l-115 -72c-28 53 -83 89 -149 89c-102 0 -172 -79 -172 -175s70 -174 169 -174c73 0 125 41 151 100l124 -63c-51 -99 -145 -169 -272 -169z" />
    <glyph glyph-name="cacute" unicode="&#x107;" horiz-adv-x="617" 
d="M276 645l115 170h126l-150 -170h-91zM324 -12c-171 0 -304 136 -304 304c0 171 134 305 304 305c131 0 234 -75 279 -181l-121 -51c-27 64 -86 105 -157 105c-99 0 -173 -79 -173 -178c0 -97 74 -177 174 -177c75 0 132 46 158 109l121 -52c-46 -108 -145 -184 -281 -184
z" />
    <glyph glyph-name="cacute.smcp" unicode="&#xe234;" horiz-adv-x="623" 
d="M288 646l115 170h126l-150 -170h-91zM336 -8c-182 0 -308 136 -308 306c0 173 130 306 309 306c112 0 211 -59 263 -148l-115 -72c-28 53 -83 89 -149 89c-102 0 -172 -79 -172 -175s70 -174 169 -174c73 0 125 41 151 100l124 -63c-51 -99 -145 -169 -272 -169z" />
    <glyph glyph-name="cacute.smcp" unicode="&#xf643;" horiz-adv-x="623" 
d="M288 646l115 170h126l-150 -170h-91zM336 -8c-182 0 -308 136 -308 306c0 173 130 306 309 306c112 0 211 -59 263 -148l-115 -72c-28 53 -83 89 -149 89c-102 0 -172 -79 -172 -175s70 -174 169 -174c73 0 125 41 151 100l124 -63c-51 -99 -145 -169 -272 -169z" />
    <glyph glyph-name="ccaron" unicode="&#x10d;" horiz-adv-x="617" 
d="M324 -12c-171 0 -304 136 -304 304c0 171 134 305 304 305c131 0 234 -75 279 -181l-121 -51c-27 64 -86 105 -157 105c-99 0 -173 -79 -173 -178c0 -97 74 -177 174 -177c75 0 132 46 158 109l121 -52c-46 -108 -145 -184 -281 -184zM291 645l-119 170h102l59 -89l59 89
h102l-119 -170h-84z" />
    <glyph glyph-name="ccaron.smcp" unicode="&#xe236;" horiz-adv-x="623" 
d="M336 -8c-182 0 -308 136 -308 306c0 173 130 306 309 306c112 0 211 -59 263 -148l-115 -72c-28 53 -83 89 -149 89c-102 0 -172 -79 -172 -175s70 -174 169 -174c73 0 125 41 151 100l124 -63c-51 -99 -145 -169 -272 -169zM296 646l-119 170h102l59 -89l59 89h102
l-119 -170h-84z" />
    <glyph glyph-name="ccaron.smcp" unicode="&#xf644;" horiz-adv-x="623" 
d="M336 -8c-182 0 -308 136 -308 306c0 173 130 306 309 306c112 0 211 -59 263 -148l-115 -72c-28 53 -83 89 -149 89c-102 0 -172 -79 -172 -175s70 -174 169 -174c73 0 125 41 151 100l124 -63c-51 -99 -145 -169 -272 -169zM296 646l-119 170h102l59 -89l59 89h102
l-119 -170h-84z" />
    <glyph glyph-name="ccedilla" unicode="&#xe7;" horiz-adv-x="617" 
d="M316 -245c-53 0 -106 25 -144 59l78 47c23 -19 42 -34 76 -34c29 0 55 14 55 31c0 18 -20 27 -58 27h-50v107c-146 24 -253 149 -253 300c0 171 134 305 304 305c131 0 234 -75 279 -181l-121 -51c-27 64 -86 105 -157 105c-99 0 -173 -79 -173 -178
c0 -97 74 -177 174 -177c75 0 132 46 158 109l121 -52c-42 -99 -129 -171 -248 -182v-48c74 3 115 -31 115 -80c0 -62 -69 -107 -156 -107z" />
    <glyph glyph-name="ccedilla.smcp" unicode="&#xe238;" horiz-adv-x="623" 
d="M327 -240c-53 0 -106 25 -144 59l78 47c23 -19 42 -34 76 -34c29 0 55 14 55 31c0 18 -20 27 -58 27h-50v106c-154 23 -256 148 -256 302c0 173 130 306 309 306c112 0 211 -59 263 -148l-115 -72c-28 53 -83 89 -149 89c-102 0 -172 -79 -172 -175s70 -174 169 -174
c73 0 125 41 151 100l124 -63c-47 -91 -129 -157 -240 -167v-47c74 3 115 -31 115 -80c0 -62 -69 -107 -156 -107z" />
    <glyph glyph-name="ccedilla.smcp" unicode="&#xf7e7;" horiz-adv-x="623" 
d="M327 -240c-53 0 -106 25 -144 59l78 47c23 -19 42 -34 76 -34c29 0 55 14 55 31c0 18 -20 27 -58 27h-50v106c-154 23 -256 148 -256 302c0 173 130 306 309 306c112 0 211 -59 263 -148l-115 -72c-28 53 -83 89 -149 89c-102 0 -172 -79 -172 -175s70 -174 169 -174
c73 0 125 41 151 100l124 -63c-47 -91 -129 -157 -240 -167v-47c74 3 115 -31 115 -80c0 -62 -69 -107 -156 -107z" />
    <glyph glyph-name="ccircumflex" unicode="&#x109;" horiz-adv-x="617" 
d="M324 -12c-171 0 -304 136 -304 304c0 171 134 305 304 305c131 0 234 -75 279 -181l-121 -51c-27 64 -86 105 -157 105c-99 0 -173 -79 -173 -178c0 -97 74 -177 174 -177c75 0 132 46 158 109l121 -52c-46 -108 -145 -184 -281 -184zM164 639l119 170h84l119 -170h-102
l-59 89l-59 -89h-102z" />
    <glyph glyph-name="ccircumflex.smcp" unicode="&#xe235;" horiz-adv-x="623" 
d="M336 -8c-182 0 -308 136 -308 306c0 173 130 306 309 306c112 0 211 -59 263 -148l-115 -72c-28 53 -83 89 -149 89c-102 0 -172 -79 -172 -175s70 -174 169 -174c73 0 125 41 151 100l124 -63c-51 -99 -145 -169 -272 -169zM177 646l119 170h84l119 -170h-102l-59 89
l-59 -89h-102z" />
    <glyph glyph-name="ccircumflex.smcp" unicode="&#xf628;" horiz-adv-x="623" 
d="M336 -8c-182 0 -308 136 -308 306c0 173 130 306 309 306c112 0 211 -59 263 -148l-115 -72c-28 53 -83 89 -149 89c-102 0 -172 -79 -172 -175s70 -174 169 -174c73 0 125 41 151 100l124 -63c-51 -99 -145 -169 -272 -169zM177 646l119 170h84l119 -170h-102l-59 89
l-59 -89h-102z" />
    <glyph glyph-name="cdotaccent" unicode="&#x10b;" horiz-adv-x="617" 
d="M324 -12c-171 0 -304 136 -304 304c0 171 134 305 304 305c131 0 234 -75 279 -181l-121 -51c-27 64 -86 105 -157 105c-99 0 -173 -79 -173 -178c0 -97 74 -177 174 -177c75 0 132 46 158 109l121 -52c-46 -108 -145 -184 -281 -184zM244 713c0 47 31 79 79 79
c49 0 79 -32 79 -79c0 -46 -30 -78 -79 -78c-50 0 -79 32 -79 78z" />
    <glyph glyph-name="cdotaccent.smcp" unicode="&#xe237;" horiz-adv-x="623" 
d="M336 -8c-182 0 -308 136 -308 306c0 173 130 306 309 306c112 0 211 -59 263 -148l-115 -72c-28 53 -83 89 -149 89c-102 0 -172 -79 -172 -175s70 -174 169 -174c73 0 125 41 151 100l124 -63c-51 -99 -145 -169 -272 -169zM259 715c0 47 31 79 79 79
c49 0 79 -32 79 -79c0 -46 -30 -78 -79 -78c-50 0 -79 32 -79 78z" />
    <glyph glyph-name="cdotaccent.smcp" unicode="&#xf629;" horiz-adv-x="623" 
d="M336 -8c-182 0 -308 136 -308 306c0 173 130 306 309 306c112 0 211 -59 263 -148l-115 -72c-28 53 -83 89 -149 89c-102 0 -172 -79 -172 -175s70 -174 169 -174c73 0 125 41 151 100l124 -63c-51 -99 -145 -169 -272 -169zM259 715c0 47 31 79 79 79
c49 0 79 -32 79 -79c0 -46 -30 -78 -79 -78c-50 0 -79 32 -79 78z" />
    <glyph glyph-name="cent" unicode="&#xa2;" horiz-adv-x="588" 
d="M234 -130v130c-118 32 -203 139 -203 266c0 128 86 235 203 266v131h136v-128c90 -19 158 -79 193 -160l-121 -52c-22 55 -74 92 -136 92c-82 0 -146 -66 -146 -149s64 -149 147 -149c62 0 113 38 135 91l121 -51c-35 -80 -103 -141 -193 -160v-127h-136z" />
    <glyph glyph-name="cent.LP" unicode="&#xe523;" horiz-adv-x="538" 
d="M210 -130v130c-110 30 -189 130 -189 250c0 119 79 220 189 250v130h136v-128c81 -19 144 -76 175 -150l-119 -50c-20 48 -66 81 -121 81c-73 0 -130 -59 -130 -133s57 -133 131 -133c54 0 100 34 120 82l119 -51c-31 -75 -93 -131 -175 -150v-128h-136z" />
    <glyph glyph-name="cent.LT" unicode="&#xf464;" horiz-adv-x="588" 
d="M234 -130v130c-118 32 -203 139 -203 266c0 128 86 235 203 266v131h136v-128c90 -19 158 -79 193 -160l-121 -52c-22 55 -74 92 -136 92c-82 0 -146 -66 -146 -149s64 -149 147 -149c62 0 113 38 135 91l121 -51c-35 -80 -103 -141 -193 -160v-127h-136z" />
    <glyph glyph-name="club" unicode="&#x2663;" horiz-adv-x="920" 
d="M595 0h-259c24 45 79 142 91 248c-28 -69 -90 -118 -167 -118c-98 0 -177 79 -177 177s79 177 177 177c15 0 29 -3 42 -7c-12 26 -19 57 -19 87c0 97 78 176 175 176s176 -79 176 -176c0 -31 -7 -61 -19 -88c14 5 29 8 46 8c98 0 176 -79 176 -177s-79 -177 -177 -177
c-77 0 -136 49 -163 117c14 -105 74 -202 98 -247z" />
    <glyph glyph-name="colon" unicode=":" horiz-adv-x="207" 
d="M22 69c0 49 32 82 82 82c51 0 81 -33 81 -82c0 -48 -31 -81 -82 -81c-50 0 -81 33 -81 81zM22 430c0 49 32 82 82 82c51 0 81 -33 81 -82c0 -48 -31 -81 -82 -81c-50 0 -81 33 -81 81z" />
    <glyph glyph-name="colon.T" unicode="&#xf184;" horiz-adv-x="294" 
d="M80 0v137h134v-137h-134zM80 363v137h134v-137h-134z" />
    <glyph glyph-name="comma" unicode="," horiz-adv-x="207" 
d="M21 -117l35 204h119l-70 -204h-84z" />
    <glyph glyph-name="comma.T" unicode="&#xf183;" horiz-adv-x="294" 
d="M66 -117l34 204h119l-69 -204h-84z" />
    <glyph glyph-name="copyright" unicode="&#xa9;" horiz-adv-x="790" 
d="M395 -10c-207 0 -373 167 -373 375c0 207 166 375 373 375c208 0 374 -168 374 -375c0 -208 -166 -375 -374 -375zM395 94c149 0 268 122 268 271s-119 271 -268 271c-152 0 -265 -122 -265 -271s113 -271 265 -271zM401 163c-119 0 -204 90 -204 202s86 202 204 202
c81 0 149 -48 178 -110c-100 -45 -104 -47 -104 -47c-6 25 -32 50 -75 50c-52 0 -93 -42 -93 -95s41 -95 93 -95c41 0 70 26 77 51l107 -37c-30 -68 -98 -121 -183 -121z" />
    <glyph glyph-name="copyright.LT" unicode="&#xf465;" horiz-adv-x="569" 
d="M285 -10c-161 0 -249 98 -249 238v268c0 138 102 244 249 244c150 0 248 -109 248 -243v-269c0 -143 -93 -238 -248 -238zM284 77c99 0 155 66 155 149v270c0 94 -56 157 -153 157c-100 0 -155 -69 -155 -157v-268c0 -86 53 -151 153 -151zM284 114
c-75 0 -117 50 -117 114v269c0 66 43 118 119 118c73 0 116 -48 116 -118v-98h-94v98c0 14 -8 23 -23 23c-16 0 -24 -10 -24 -23v-270c0 -12 8 -22 24 -22c15 0 23 10 23 22v114h94v-114c0 -63 -43 -113 -118 -113z" />
    <glyph glyph-name="cordinal" unicode="&#xe181;" horiz-adv-x="324" 
d="M170 435c-83 0 -150 67 -150 150c0 84 67 151 150 151c65 0 116 -38 138 -90l-86 -39c-8 22 -28 36 -51 36c-31 0 -56 -26 -56 -58c0 -31 25 -57 56 -57c24 0 43 14 51 35l87 -37c-23 -53 -73 -91 -139 -91z" />
    <glyph glyph-name="cordinal.smcp" unicode="&#xe353;" horiz-adv-x="324" 
d="M170 435c-83 0 -150 67 -150 150c0 84 67 151 150 151c65 0 116 -38 138 -90l-86 -39c-8 22 -28 36 -51 36c-31 0 -56 -26 -56 -58c0 -31 25 -57 56 -57c24 0 43 14 51 35l87 -37c-23 -53 -73 -91 -139 -91z" />
    <glyph glyph-name="currency" unicode="&#xa4;" horiz-adv-x="773" 
d="M390 102c-47 0 -92 12 -130 34l-127 -130l-98 96l129 131c-21 38 -33 82 -33 129s13 92 35 130l-133 140l99 93l131 -136c37 21 81 33 127 33s89 -12 126 -32l124 127l98 -95l-125 -128c23 -39 36 -84 36 -132c0 -49 -13 -94 -36 -133l125 -131l-98 -95l-126 130
c-37 -20 -79 -31 -124 -31zM390 229c72 0 129 60 129 133s-57 133 -129 133s-128 -60 -128 -133s56 -133 128 -133z" />
    <glyph glyph-name="d" unicode="d" horiz-adv-x="671" 
d="M308 -12c-141 0 -288 113 -288 304c0 194 142 305 290 305c76 0 145 -31 187 -81v224h136v-740h-135v76c-43 -54 -113 -88 -190 -88zM330 112c100 0 175 81 175 182c0 99 -75 180 -175 180s-177 -79 -177 -180c0 -102 77 -182 177 -182z" />
    <glyph glyph-name="d.smcp" unicode="&#xe204;" horiz-adv-x="550" 
d="M37 0v596h174c189 0 311 -129 311 -298c0 -170 -130 -298 -308 -298h-177zM203 472h-33v-348h37c110 0 181 76 181 174c0 99 -64 174 -185 174z" />
    <glyph glyph-name="d.smcp" unicode="&#xf764;" horiz-adv-x="550" 
d="M37 0v596h174c189 0 311 -129 311 -298c0 -170 -130 -298 -308 -298h-177zM203 472h-33v-348h37c110 0 181 76 181 174c0 99 -64 174 -185 174z" />
    <glyph glyph-name="dagger" unicode="&#x2020;" horiz-adv-x="526" 
d="M36 379v121h159v230h136v-230h158v-121h-158v-379h-136v379h-159z" />
    <glyph glyph-name="daggerdbl" unicode="&#x2021;" horiz-adv-x="526" 
d="M36 435v120h159v175h136v-175h158v-120h-158v-131h158v-120h-158v-184h-136v184h-159v120h159v131h-159z" />
    <glyph glyph-name="dcaron" unicode="&#x10f;" horiz-adv-x="742" 
d="M308 -12c-141 0 -288 113 -288 304c0 194 142 305 290 305c76 0 145 -31 187 -81v224h136v-740h-135v76c-43 -54 -113 -88 -190 -88zM330 112c100 0 175 81 175 182c0 99 -75 180 -175 180s-177 -79 -177 -180c0 -102 77 -182 177 -182zM654 561l25 171h109l-51 -171h-83
z" />
    <glyph glyph-name="dcaron.smcp" unicode="&#xe239;" horiz-adv-x="550" 
d="M37 0v596h174c189 0 311 -129 311 -298c0 -170 -130 -298 -308 -298h-177zM203 472h-33v-348h37c110 0 181 76 181 174c0 99 -64 174 -185 174zM204 646l-119 170h102l59 -89l59 89h102l-119 -170h-84z" />
    <glyph glyph-name="dcaron.smcp" unicode="&#xf645;" horiz-adv-x="550" 
d="M37 0v596h174c189 0 311 -129 311 -298c0 -170 -130 -298 -308 -298h-177zM203 472h-33v-348h37c110 0 181 76 181 174c0 99 -64 174 -185 174zM204 646l-119 170h102l59 -89l59 89h102l-119 -170h-84z" />
    <glyph glyph-name="dcroat" unicode="&#x111;" horiz-adv-x="679" 
d="M430 608v74h67v58h136v-58h61v-74h-61v-608h-135v76c-43 -54 -113 -88 -190 -88c-141 0 -288 113 -288 304c0 194 142 305 290 305c76 0 145 -31 187 -81v92h-67zM330 112c100 0 175 81 175 182c0 99 -75 180 -175 180s-177 -79 -177 -180c0 -102 77 -182 177 -182z" />
    <glyph glyph-name="dcroat.smcp" unicode="&#xe23c;" horiz-adv-x="586" 
d="M20 243v110h51v243h176c188 0 311 -129 311 -298c0 -170 -130 -298 -308 -298h-179v243h-51zM324 243h-119v-119h37c111 0 181 76 181 174c0 99 -63 174 -184 174h-34v-119h119v-110z" />
    <glyph glyph-name="dcroat.smcp" unicode="&#xf646;" horiz-adv-x="586" 
d="M20 243v110h51v243h176c188 0 311 -129 311 -298c0 -170 -130 -298 -308 -298h-179v243h-51zM324 243h-119v-119h37c111 0 181 76 181 174c0 99 -63 174 -184 174h-34v-119h119v-110z" />
    <glyph glyph-name="eth.smcp" unicode="&#xe32c;" horiz-adv-x="586" 
d="M20 243v110h51v243h176c188 0 311 -129 311 -298c0 -170 -130 -298 -308 -298h-179v243h-51zM324 243h-119v-119h37c111 0 181 76 181 174c0 99 -63 174 -184 174h-34v-119h119v-110z" />
    <glyph glyph-name="eth.smcp" unicode="&#xf7f0;" horiz-adv-x="586" 
d="M20 243v110h51v243h176c188 0 311 -129 311 -298c0 -170 -130 -298 -308 -298h-179v243h-51zM324 243h-119v-119h37c111 0 181 76 181 174c0 99 -63 174 -184 174h-34v-119h119v-110z" />
    <glyph glyph-name="degree" unicode="&#xb0;" horiz-adv-x="400" 
d="M200 387c-98 0 -177 79 -177 177c0 97 79 176 177 176s176 -79 176 -176c0 -98 -78 -177 -176 -177zM200 501c34 0 63 29 63 63s-29 63 -63 63s-63 -29 -63 -63s29 -63 63 -63z" />
    <glyph glyph-name="diamond" unicode="&#x2666;" horiz-adv-x="920" 
d="M133 390l327 401l327 -401l-327 -400z" />
    <glyph glyph-name="divide" unicode="&#xf7;" horiz-adv-x="442" 
d="M36 307v115h370v-115h-370zM165 462v117h114v-117h-114zM165 151v116h114v-116h-114z" />
    <glyph glyph-name="dollar" unicode="$" horiz-adv-x="588" 
d="M564 217c0 -100 -71 -198 -196 -221v-116h-136v117c-95 16 -167 64 -219 124l124 97c23 -39 58 -68 98 -84v193c-93 28 -195 79 -195 204c0 101 78 184 192 204v105h136v-108c75 -15 128 -52 174 -98l-113 -85c-17 24 -39 42 -65 54v-174c94 -31 200 -84 200 -212z
M426 218c0 35 -26 55 -62 71v-159c39 17 62 51 62 88zM176 536c0 -35 23 -53 59 -67v141c-37 -13 -59 -41 -59 -74z" />
    <glyph glyph-name="dollar.LP" unicode="&#xe522;" horiz-adv-x="563" 
d="M548 217c0 -101 -70 -199 -194 -222v-115h-135v117c-93 17 -164 64 -216 124l124 98c23 -39 57 -68 95 -84v193c-92 28 -191 78 -191 203c0 100 77 183 188 204v105h135v-108c75 -15 128 -52 172 -98l-112 -85c-17 24 -38 43 -63 54v-174c93 -31 197 -84 197 -212z
M411 218c0 34 -25 55 -60 70v-157c38 17 60 51 60 87zM167 536c0 -34 21 -52 55 -66v139c-35 -14 -55 -41 -55 -73z" />
    <glyph glyph-name="dollar.LT" unicode="&#xf466;" horiz-adv-x="588" 
d="M564 217c0 -100 -71 -198 -196 -221v-116h-136v117c-95 16 -167 64 -219 124l124 97c23 -39 58 -68 98 -84v193c-93 28 -195 79 -195 204c0 101 78 184 192 204v105h136v-108c75 -15 128 -52 174 -98l-113 -85c-17 24 -39 42 -65 54v-174c94 -31 200 -84 200 -212z
M426 218c0 35 -26 55 -62 71v-159c39 17 62 51 62 88zM176 536c0 -35 23 -53 59 -67v141c-37 -13 -59 -41 -59 -74z" />
    <glyph glyph-name="dotbelow" unicode="&#xe415;" horiz-adv-x="473" 
d="M146 -119c0 47 31 79 79 79c49 0 79 -32 79 -79c0 -46 -30 -78 -79 -78c-50 0 -79 32 -79 78z" />
    <glyph glyph-name="dotlessi" unicode="&#x131;" horiz-adv-x="214" 
d="M39 0v585h136v-585h-136z" />
    <glyph glyph-name="dotlessj" unicode="&#x237;" horiz-adv-x="214" 
d="M-82 -269v127c105 0 121 15 121 118v609h137v-610c0 -186 -59 -244 -239 -244h-19z" />
    <glyph glyph-name="doublebar" unicode="&#x2016;" horiz-adv-x="406" 
d="M36 -230v960h136v-960h-136zM234 -230v960h136v-960h-136z" />
    <glyph glyph-name="doublebar.cap" unicode="&#xe464;" horiz-adv-x="406" 
d="M36 -120v960h136v-960h-136zM234 -120v960h136v-960h-136z" />
    <glyph glyph-name="doublebar.smcp" unicode="&#xe46a;" horiz-adv-x="397" 
d="M36 -98v784h132v-784h-132zM229 -98v784h132v-784h-132z" />
    <glyph glyph-name="doublegrave" unicode="&#xe412;" horiz-adv-x="472" 
d="M188 550l-149 170h126l114 -170h-91zM353 550l-149 170h126l114 -170h-91z" />
    <glyph glyph-name="e" unicode="e" 
d="M329 -12c-184 0 -309 134 -309 303c0 171 133 306 304 306c174 0 301 -128 301 -301v-51h-476c18 -82 84 -138 180 -138c75 0 134 41 162 103l111 -64c-51 -94 -143 -158 -273 -158zM324 478c-81 0 -144 -49 -168 -120h332c-20 78 -80 120 -164 120z" />
    <glyph glyph-name="e.smcp" unicode="&#xe205;" horiz-adv-x="423" 
d="M37 0v596h353v-125h-220v-109h220v-126h-220v-111h220v-125h-353z" />
    <glyph glyph-name="e.smcp" unicode="&#xf765;" horiz-adv-x="423" 
d="M37 0v596h353v-125h-220v-109h220v-126h-220v-111h220v-125h-353z" />
    <glyph glyph-name="eacute" unicode="&#xe9;" 
d="M329 -12c-184 0 -309 134 -309 303c0 171 133 306 304 306c174 0 301 -128 301 -301v-51h-476c18 -82 84 -138 180 -138c75 0 134 41 162 103l111 -64c-51 -94 -143 -158 -273 -158zM324 478c-81 0 -144 -49 -168 -120h332c-20 78 -80 120 -164 120zM279 645l115 170h126
l-150 -170h-91z" />
    <glyph glyph-name="eacute.smcp" unicode="&#xe23d;" horiz-adv-x="421" 
d="M37 0v596h353v-125h-220v-109h220v-126h-220v-111h220v-125h-353zM161 646l115 170h126l-150 -170h-91z" />
    <glyph glyph-name="eacute.smcp" unicode="&#xf7e9;" horiz-adv-x="421" 
d="M37 0v596h353v-125h-220v-109h220v-126h-220v-111h220v-125h-353zM161 646l115 170h126l-150 -170h-91z" />
    <glyph glyph-name="ebreve" unicode="&#x115;" 
d="M329 -12c-184 0 -309 134 -309 303c0 171 133 306 304 306c174 0 301 -128 301 -301v-51h-476c18 -82 84 -138 180 -138c75 0 134 41 162 103l111 -64c-51 -94 -143 -158 -273 -158zM329 640c-110 0 -161 73 -161 170h85c0 -64 27 -94 76 -96c48 2 76 32 76 96h86
c0 -97 -62 -170 -162 -170zM324 478c-81 0 -144 -49 -168 -120h332c-20 78 -80 120 -164 120z" />
    <glyph glyph-name="ebreve.smcp" unicode="&#xe243;" horiz-adv-x="421" 
d="M37 0v596h353v-125h-220v-109h220v-126h-220v-111h220v-125h-353zM225 638c-110 0 -161 73 -161 170h85c0 -64 27 -94 76 -96c48 2 76 32 76 96h86c0 -97 -62 -170 -162 -170z" />
    <glyph glyph-name="ebreve.smcp" unicode="&#xf62a;" horiz-adv-x="421" 
d="M37 0v596h353v-125h-220v-109h220v-126h-220v-111h220v-125h-353zM225 638c-110 0 -161 73 -161 170h85c0 -64 27 -94 76 -96c48 2 76 32 76 96h86c0 -97 -62 -170 -162 -170z" />
    <glyph glyph-name="ecaron" unicode="&#x11b;" 
d="M329 -12c-184 0 -309 134 -309 303c0 171 133 306 304 306c174 0 301 -128 301 -301v-51h-476c18 -82 84 -138 180 -138c75 0 134 41 162 103l111 -64c-51 -94 -143 -158 -273 -158zM324 478c-81 0 -144 -49 -168 -120h332c-20 78 -80 120 -164 120zM285 640l-119 170
h102l59 -89l59 89h102l-119 -170h-84z" />
    <glyph glyph-name="ecaron.smcp" unicode="&#xe241;" horiz-adv-x="421" 
d="M37 0v596h353v-125h-220v-109h220v-126h-220v-111h220v-125h-353zM178 646l-119 170h102l59 -89l59 89h102l-119 -170h-84z" />
    <glyph glyph-name="ecaron.smcp" unicode="&#xf647;" horiz-adv-x="421" 
d="M37 0v596h353v-125h-220v-109h220v-126h-220v-111h220v-125h-353zM178 646l-119 170h102l59 -89l59 89h102l-119 -170h-84z" />
    <glyph glyph-name="ecircumflex" unicode="&#xea;" 
d="M329 -12c-184 0 -309 134 -309 303c0 171 133 306 304 306c174 0 301 -128 301 -301v-51h-476c18 -82 84 -138 180 -138c75 0 134 41 162 103l111 -64c-51 -94 -143 -158 -273 -158zM324 478c-81 0 -144 -49 -168 -120h332c-20 78 -80 120 -164 120zM168 639l119 170h84
l119 -170h-102l-59 89l-59 -89h-102z" />
    <glyph glyph-name="ecircumflex.smcp" unicode="&#xe23f;" horiz-adv-x="421" 
d="M37 0v596h353v-125h-220v-109h220v-126h-220v-111h220v-125h-353zM55 646l119 170h84l119 -170h-102l-59 89l-59 -89h-102z" />
    <glyph glyph-name="ecircumflex.smcp" unicode="&#xf7ea;" horiz-adv-x="421" 
d="M37 0v596h353v-125h-220v-109h220v-126h-220v-111h220v-125h-353zM55 646l119 170h84l119 -170h-102l-59 89l-59 -89h-102z" />
    <glyph glyph-name="edieresis" unicode="&#xeb;" 
d="M329 -12c-184 0 -309 134 -309 303c0 171 133 306 304 306c174 0 301 -128 301 -301v-51h-476c18 -82 84 -138 180 -138c75 0 134 41 162 103l111 -64c-51 -94 -143 -158 -273 -158zM324 478c-81 0 -144 -49 -168 -120h332c-20 78 -80 120 -164 120zM156 703
c0 43 28 72 72 72c45 0 72 -29 72 -72c0 -42 -27 -71 -72 -71s-72 29 -72 71zM347 703c0 43 28 72 72 72s72 -29 72 -72c0 -42 -28 -71 -72 -71c-46 0 -72 29 -72 71z" />
    <glyph glyph-name="edieresis.smcp" unicode="&#xe230;" horiz-adv-x="421" 
d="M37 0v596h353v-125h-220v-109h220v-126h-220v-111h220v-125h-353zM48 715c0 43 28 72 72 72c45 0 72 -29 72 -72c0 -42 -27 -71 -72 -71s-72 29 -72 71zM239 715c0 43 28 72 72 72s72 -29 72 -72c0 -42 -28 -71 -72 -71c-46 0 -72 29 -72 71z" />
    <glyph glyph-name="edieresis.smcp" unicode="&#xf7eb;" horiz-adv-x="421" 
d="M37 0v596h353v-125h-220v-109h220v-126h-220v-111h220v-125h-353zM48 715c0 43 28 72 72 72c45 0 72 -29 72 -72c0 -42 -27 -71 -72 -71s-72 29 -72 71zM239 715c0 43 28 72 72 72s72 -29 72 -72c0 -42 -28 -71 -72 -71c-46 0 -72 29 -72 71z" />
    <glyph glyph-name="edotaccent" unicode="&#x117;" 
d="M329 -12c-184 0 -309 134 -309 303c0 171 133 306 304 306c174 0 301 -128 301 -301v-51h-476c18 -82 84 -138 180 -138c75 0 134 41 162 103l111 -64c-51 -94 -143 -158 -273 -158zM324 478c-81 0 -144 -49 -168 -120h332c-20 78 -80 120 -164 120zM247 708
c0 47 31 79 79 79c49 0 79 -32 79 -79c0 -46 -30 -78 -79 -78c-50 0 -79 32 -79 78z" />
    <glyph glyph-name="edotaccent.smcp" unicode="&#xe246;" horiz-adv-x="421" 
d="M37 0v596h353v-125h-220v-109h220v-126h-220v-111h220v-125h-353zM136 715c0 47 31 79 79 79c49 0 79 -32 79 -79c0 -46 -30 -78 -79 -78c-50 0 -79 32 -79 78z" />
    <glyph glyph-name="edotaccent.smcp" unicode="&#xf648;" horiz-adv-x="421" 
d="M37 0v596h353v-125h-220v-109h220v-126h-220v-111h220v-125h-353zM136 715c0 47 31 79 79 79c49 0 79 -32 79 -79c0 -46 -30 -78 -79 -78c-50 0 -79 32 -79 78z" />
    <glyph glyph-name="egrave" unicode="&#xe8;" 
d="M329 -12c-184 0 -309 134 -309 303c0 171 133 306 304 306c174 0 301 -128 301 -301v-51h-476c18 -82 84 -138 180 -138c75 0 134 41 162 103l111 -64c-51 -94 -143 -158 -273 -158zM324 478c-81 0 -144 -49 -168 -120h332c-20 78 -80 120 -164 120zM306 640l-150 170
h127l114 -170h-91z" />
    <glyph glyph-name="egrave.smcp" unicode="&#xe23e;" horiz-adv-x="421" 
d="M37 0v596h353v-125h-220v-109h220v-126h-220v-111h220v-125h-353zM190 646l-150 170h127l114 -170h-91z" />
    <glyph glyph-name="egrave.smcp" unicode="&#xf7e8;" horiz-adv-x="421" 
d="M37 0v596h353v-125h-220v-109h220v-126h-220v-111h220v-125h-353zM190 646l-150 170h127l114 -170h-91z" />
    <glyph glyph-name="eight" unicode="8" horiz-adv-x="588" 
d="M293 -10c-165 0 -259 88 -259 228c0 75 33 133 90 171c-41 34 -65 82 -65 143c0 126 95 208 239 208c141 0 237 -82 237 -208c0 -62 -27 -110 -69 -144c55 -38 88 -96 88 -170c0 -140 -97 -228 -261 -228zM293 110c86 0 131 48 131 108s-44 108 -128 108
c-85 0 -131 -49 -131 -108c0 -60 41 -108 128 -108zM295 440c76 0 116 41 116 92s-41 93 -112 93c-73 0 -116 -42 -116 -93c0 -52 37 -92 112 -92z" />
    <glyph glyph-name="eight.LP" unicode="&#xe53d;" horiz-adv-x="526" 
d="M263 -10c-138 0 -239 89 -239 229c0 73 33 133 84 171c-36 35 -59 84 -59 143c0 126 92 207 218 207c124 0 216 -81 216 -207c0 -60 -24 -109 -62 -144c49 -38 81 -98 81 -170c0 -140 -102 -229 -239 -229zM262 111c60 0 109 48 109 108s-46 108 -106 108
c-61 0 -110 -49 -110 -108c0 -60 46 -108 107 -108zM264 441c53 0 94 41 94 92s-39 92 -90 92c-53 0 -94 -41 -94 -92c0 -52 38 -92 90 -92z" />
    <glyph glyph-name="eight.LT" unicode="&#xe548;" horiz-adv-x="588" 
d="M293 -10c-165 0 -259 88 -259 228c0 75 33 133 90 171c-41 34 -65 82 -65 143c0 126 95 208 239 208c141 0 237 -82 237 -208c0 -62 -27 -110 -69 -144c55 -38 88 -96 88 -170c0 -140 -97 -228 -261 -228zM293 110c86 0 131 48 131 108s-44 108 -128 108
c-85 0 -131 -49 -131 -108c0 -60 41 -108 128 -108zM295 440c76 0 116 41 116 92s-41 93 -112 93c-73 0 -116 -42 -116 -93c0 -52 37 -92 112 -92z" />
    <glyph glyph-name="eight.inf" unicode="&#xe579;" horiz-adv-x="328" 
d="M163 -6c-85 0 -149 52 -149 140c0 35 15 67 40 91c-18 20 -28 45 -28 76c0 81 57 127 137 127c81 0 139 -46 139 -127c0 -29 -10 -55 -26 -75c23 -22 37 -54 37 -92c0 -88 -65 -140 -150 -140zM163 90c27 0 45 19 45 44c0 23 -18 42 -45 42c-26 0 -44 -20 -44 -42
c0 -25 18 -44 44 -44zM163 266c24 0 38 15 38 35c0 19 -13 35 -37 35s-37 -16 -37 -35c0 -20 14 -35 36 -35z" />
    <glyph glyph-name="elevensixteenths" unicode="&#xf220;" horiz-adv-x="1414" 
d="M373 0l527 730h156l-527 -730h-156zM1238 -6c-98 0 -165 68 -165 156c0 42 19 88 41 123l94 149h129l-76 -119c79 -2 142 -61 142 -153c1 -89 -68 -156 -165 -156zM14 308v104h81v166c-14 -18 -37 -26 -63 -26h-6v107h3c56 0 70 41 70 71h109v-318h78v-104h-272zM795 0
v104h81v166c-14 -18 -37 -26 -63 -26h-6v107h3c56 0 70 41 70 71h109v-318h78v-104h-272zM301 308v104h81v167c-13 -18 -37 -27 -64 -27h-6v107h3c56 0 71 41 71 71h108v-318h79v-104h-272zM1238 98c30 0 54 24 54 54c0 29 -24 53 -54 53s-53 -24 -53 -54
c0 -29 23 -53 53 -53z" />
    <glyph glyph-name="ellipsis" unicode="&#x2026;" horiz-adv-x="577" 
d="M33 62c0 44 29 74 74 74c46 0 73 -30 73 -74c0 -43 -28 -73 -74 -73c-45 0 -73 30 -73 73zM215 62c0 44 29 74 74 74c46 0 73 -30 73 -74c0 -43 -28 -73 -74 -73c-45 0 -73 30 -73 73zM397 62c0 44 29 74 74 74c46 0 73 -30 73 -74c0 -43 -28 -73 -74 -73
c-45 0 -73 30 -73 73z" />
    <glyph glyph-name="emacron" unicode="&#x113;" 
d="M329 -12c-184 0 -309 134 -309 303c0 171 133 306 304 306c174 0 301 -128 301 -301v-51h-476c18 -82 84 -138 180 -138c75 0 134 41 162 103l111 -64c-51 -94 -143 -158 -273 -158zM324 478c-81 0 -144 -49 -168 -120h332c-20 78 -80 120 -164 120zM199 643v86h264v-86
h-264z" />
    <glyph glyph-name="emacron.smcp" unicode="&#xe242;" horiz-adv-x="421" 
d="M37 0v596h353v-125h-220v-109h220v-126h-220v-111h220v-125h-353zM85 646v86h264v-86h-264z" />
    <glyph glyph-name="emacron.smcp" unicode="&#xf649;" horiz-adv-x="421" 
d="M37 0v596h353v-125h-220v-109h220v-126h-220v-111h220v-125h-353zM85 646v86h264v-86h-264z" />
    <glyph glyph-name="emdash" unicode="&#x2014;" horiz-adv-x="673" 
d="M36 197v115h601v-115h-601z" />
    <glyph glyph-name="emdash.cap" unicode="&#xe486;" horiz-adv-x="673" 
d="M36 302v114h601v-114h-601z" />
    <glyph glyph-name="endash" unicode="&#x2013;" horiz-adv-x="473" 
d="M36 197v115h401v-115h-401z" />
    <glyph glyph-name="endash.cap" unicode="&#xe484;" horiz-adv-x="473" 
d="M36 302v114h401v-114h-401z" />
    <glyph glyph-name="eng" unicode="&#x14b;" horiz-adv-x="618" 
d="M322 -269v127c105 0 121 15 121 118v357c0 90 -44 147 -132 147c-77 0 -137 -57 -137 -159v-321h-135v585h134v-72c39 51 100 84 175 84c144 0 232 -94 232 -250v-372c0 -186 -58 -244 -238 -244h-20z" />
    <glyph glyph-name="eng.smcp" unicode="&#xe32b;" horiz-adv-x="579" 
d="M313 -230v125c84 0 95 12 95 92v19l-238 370v-376h-133v596h145l227 -354v354h133v-610c0 -163 -52 -216 -210 -216h-19z" />
    <glyph glyph-name="eng.smcp" unicode="&#xf62b;" horiz-adv-x="579" 
d="M313 -230v125c84 0 95 12 95 92v19l-238 370v-376h-133v596h145l227 -354v354h133v-610c0 -163 -52 -216 -210 -216h-19z" />
    <glyph glyph-name="eogonek" unicode="&#x119;" 
d="M343 -224c-86 0 -144 48 -144 109c0 37 15 72 64 109c-147 28 -243 149 -243 297c0 171 133 306 304 306c174 0 301 -128 301 -301v-51h-476c18 -82 84 -138 180 -138c75 0 134 41 162 103l111 -64c-37 -68 -95 -120 -173 -144c-108 -71 -129 -86 -129 -112
c0 -22 20 -31 43 -31c27 0 42 15 60 29l79 -54c-35 -32 -91 -58 -139 -58zM324 478c-81 0 -144 -49 -168 -120h332c-20 78 -80 120 -164 120z" />
    <glyph glyph-name="eogonek.smcp" unicode="&#xe249;" horiz-adv-x="421" 
d="M37 0v596h353v-125h-220v-109h220v-126h-220v-111h220v-125c-109 -72 -130 -87 -130 -113c0 -22 20 -31 43 -31c27 0 42 15 60 29l79 -54c-35 -32 -91 -58 -139 -58c-86 0 -144 48 -144 109c0 40 18 77 77 118h-199z" />
    <glyph glyph-name="eogonek.smcp" unicode="&#xf64a;" horiz-adv-x="421" 
d="M37 0v596h353v-125h-220v-109h220v-126h-220v-111h220v-125c-109 -72 -130 -87 -130 -113c0 -22 20 -31 43 -31c27 0 42 15 60 29l79 -54c-35 -32 -91 -58 -139 -58c-86 0 -144 48 -144 109c0 40 18 77 77 118h-199z" />
    <glyph glyph-name="equal" unicode="=" horiz-adv-x="442" 
d="M36 389v115h370v-115h-370zM36 222v115h370v-115h-370z" />
    <glyph glyph-name="equal.inf" unicode="&#xe57d;" horiz-adv-x="241" 
d="M14 218v86h213v-86h-213zM14 115v87h213v-87h-213z" />
    <glyph glyph-name="equivalence" unicode="&#x2261;" horiz-adv-x="442" 
d="M36 305v115h370v-115h-370zM36 139v114h370v-114h-370zM36 472v115h370v-115h-370z" />
    <glyph glyph-name="eth" unicode="&#xf0;" horiz-adv-x="661" 
d="M116 626l133 92c-45 35 -98 73 -160 116h193c22 -17 42 -34 61 -50l71 50h126l-140 -99c166 -151 227 -278 227 -443c0 -164 -133 -304 -304 -304c-163 0 -303 127 -303 309c0 168 138 298 285 298c51 0 85 -12 111 -32c-27 35 -62 70 -108 108l-64 -45h-128zM323 115
c95 0 170 80 170 177c0 98 -75 178 -170 178c-97 0 -170 -80 -170 -178c0 -97 73 -177 170 -177z" />
    <glyph glyph-name="exclam" unicode="!" horiz-adv-x="209" 
d="M68 198c-18 119 -31 281 -31 415v117h134v-117c0 -134 -12 -296 -30 -415h-73zM22 69c0 49 32 82 82 82c51 0 81 -33 81 -82c0 -48 -31 -81 -82 -81c-50 0 -81 33 -81 81z" />
    <glyph glyph-name="exclamdown" unicode="&#xa1;" horiz-adv-x="209" 
d="M37 -230v117c0 134 13 296 31 416h73c18 -120 30 -282 30 -416v-117h-134zM22 430c0 49 32 82 82 82c51 0 81 -33 81 -82c0 -48 -31 -81 -82 -81c-50 0 -81 33 -81 81z" />
    <glyph glyph-name="exclamdown.cap" unicode="&#xe441;" horiz-adv-x="209" 
d="M37 0v117c0 134 13 296 31 416h73c18 -120 30 -282 30 -416v-117h-134zM22 663c0 49 32 82 82 82c51 0 81 -33 81 -82c0 -48 -31 -81 -82 -81c-50 0 -81 33 -81 81z" />
    <glyph glyph-name="f" unicode="f" horiz-adv-x="391" 
d="M17 464v121h99v1c0 168 67 234 245 234h12v-125c-107 0 -120 -25 -120 -110h120v-121h-120v-464h-137v464h-99z" />
    <glyph glyph-name="f.smcp" unicode="&#xe206;" horiz-adv-x="408" 
d="M37 0v596h340v-125h-207v-109h207v-126h-207v-236h-133z" />
    <glyph glyph-name="f.smcp" unicode="&#xf766;" horiz-adv-x="408" 
d="M37 0v596h340v-125h-207v-109h207v-126h-207v-236h-133z" />
    <glyph glyph-name="fi" unicode="&#xe38c;" horiz-adv-x="561" 
d="M26 380v120h85v14c0 163 52 216 218 216h11v-125c-85 0 -95 -12 -95 -92v-13h95v-120h-95v-380h-134v380h-85zM391 0v500h134v-500h-134zM391 552v137h134v-137h-134z" />
    <glyph glyph-name="fi" unicode="&#xfb01;" horiz-adv-x="561" 
d="M26 380v120h85v14c0 163 52 216 218 216h11v-125c-85 0 -95 -12 -95 -92v-13h95v-120h-95v-380h-134v380h-85zM391 0v500h134v-500h-134zM391 552v137h134v-137h-134z" />
    <glyph glyph-name="fifteensixteenths" unicode="&#xf222;" horiz-adv-x="1410" 
d="M369 0l527 730h157l-527 -730h-157zM1234 -6c-97 0 -165 68 -165 156c0 42 20 88 42 123l94 149h128l-76 -119c80 -2 142 -61 142 -153c1 -89 -67 -156 -165 -156zM443 302c-69 0 -123 30 -151 78l108 57c8 -18 22 -29 44 -29c24 0 41 17 41 42c0 24 -18 40 -43 40
c-19 0 -37 -13 -43 -27l-102 35l32 232h241v-103h-155l-6 -45c13 5 29 9 49 9c83 0 139 -52 139 -141s-66 -148 -154 -148zM791 0v104h81v166c-14 -18 -37 -26 -63 -26h-6v107h3c56 0 70 41 70 71h109v-318h78v-104h-272zM14 308v104h81v166c-14 -18 -37 -26 -63 -26h-6v107
h3c56 0 70 41 70 71h109v-318h78v-104h-272zM1234 98c30 0 55 24 55 54c0 29 -25 53 -55 53s-52 -24 -52 -54c0 -29 22 -53 52 -53z" />
    <glyph glyph-name="figuredash" unicode="&#x2012;" horiz-adv-x="623" 
d="M36 197v115h551v-115h-551z" />
    <glyph glyph-name="figuredash.cap" unicode="&#xe487;" horiz-adv-x="623" 
d="M36 302v114h551v-114h-551z" />
    <glyph glyph-name="five.LP" unicode="&#xe53a;" horiz-adv-x="541" 
d="M270 -10c-128 0 -212 67 -249 140l126 73c21 -47 59 -88 124 -88c59 0 112 47 112 115s-44 121 -115 121c-57 0 -92 -31 -117 -74l-121 62l52 391h406v-127h-298l-21 -162c28 18 67 34 114 34c130 0 237 -86 237 -245c0 -142 -105 -240 -250 -240z" />
    <glyph glyph-name="five.LT" unicode="&#xe545;" horiz-adv-x="588" 
d="M293 -10c-136 0 -224 61 -266 142l131 76c21 -55 69 -93 137 -93c66 0 125 54 125 130c0 75 -50 134 -129 134c-63 0 -102 -30 -130 -72l-122 62l52 361h434v-127h-326l-20 -134c30 19 73 35 132 35c133 0 246 -85 246 -260c0 -145 -110 -254 -264 -254z" />
    <glyph glyph-name="five.inf" unicode="&#xe576;" horiz-adv-x="320" 
d="M157 -6c-69 0 -124 30 -152 78l108 57c8 -18 23 -29 44 -29c25 0 42 17 42 42c0 24 -18 40 -44 40c-19 0 -36 -13 -43 -27l-102 35l32 232h242v-103h-155l-7 -45c13 5 29 9 49 9c83 0 139 -52 139 -141s-65 -148 -153 -148z" />
    <glyph glyph-name="fivesixteenths" unicode="&#xf217;" horiz-adv-x="1124" 
d="M83 0l527 730h156l-527 -730h-156zM947 -6c-97 0 -165 68 -165 156c0 42 20 88 41 123l94 149h129l-76 -119c80 -2 142 -61 142 -153c1 -89 -68 -156 -165 -156zM157 302c-69 0 -124 30 -152 78l108 57c8 -18 23 -29 44 -29c25 0 42 17 42 42c0 24 -18 40 -44 40
c-19 0 -36 -13 -43 -27l-102 35l32 232h242v-103h-155l-7 -45c13 5 29 9 49 9c83 0 139 -52 139 -141s-65 -148 -153 -148zM504 0v104h81v166c-14 -18 -37 -26 -63 -26h-6v107h3c56 0 70 41 70 71h109v-318h78v-104h-272zM947 98c30 0 55 24 55 54c0 29 -25 53 -55 53
s-52 -24 -52 -54c0 -29 22 -53 52 -53z" />
    <glyph glyph-name="uni2081" unicode="&#x2081;" horiz-adv-x="298" 
d="M14 0v104h81v166c-14 -18 -37 -26 -63 -26h-6v107h3c56 0 70 41 70 71h109v-318h78v-104h-272z" />
    <glyph glyph-name="uni2085" unicode="&#x2085;" horiz-adv-x="320" 
d="M157 -6c-69 0 -124 30 -152 78l108 57c8 -18 23 -29 44 -29c25 0 42 17 42 42c0 24 -18 40 -44 40c-19 0 -36 -13 -43 -27l-102 35l32 232h242v-103h-155l-7 -45c13 5 29 9 49 9c83 0 139 -52 139 -141s-65 -148 -153 -148z" />
    <glyph glyph-name="fraction" unicode="&#x2044;" horiz-adv-x="704" 
d="M11 0l527 730h156l-527 -730h-156z" />
    <glyph glyph-name="uni2086" unicode="&#x2086;" horiz-adv-x="352" 
d="M176 -6c-97 0 -165 68 -165 156c0 42 20 88 41 123l94 149h129l-76 -119c80 -2 142 -61 142 -153c1 -89 -68 -156 -165 -156zM176 98c30 0 55 24 55 54c0 29 -25 53 -55 53s-52 -24 -52 -54c0 -29 22 -53 52 -53z" />
    <glyph glyph-name="fl" unicode="&#xe38d;" horiz-adv-x="561" 
d="M26 380v120h85v14c0 163 52 216 218 216h11v-125c-85 0 -95 -12 -95 -92v-13h95v-120h-95v-380h-134v380h-85zM391 0v730h134v-730h-134z" />
    <glyph glyph-name="fl" unicode="&#xfb02;" horiz-adv-x="561" 
d="M26 380v120h85v14c0 163 52 216 218 216h11v-125c-85 0 -95 -12 -95 -92v-13h95v-120h-95v-380h-134v380h-85zM391 0v730h134v-730h-134z" />
    <glyph glyph-name="florin" unicode="&#x192;" horiz-adv-x="588" 
d="M48 305v120h191l25 89c46 165 131 216 269 216h10v-125c-91 0 -122 -19 -142 -92l-25 -88h165v-120h-199l-25 -89c-45 -160 -115 -216 -249 -216h-22v125c81 0 115 22 134 92l25 88h-157z" />
    <glyph glyph-name="florin.LP" unicode="&#xe525;" horiz-adv-x="519" 
d="M38 305v120h167l23 89c45 174 138 216 243 216h11v-125c-43 0 -98 -10 -117 -92l-23 -88h138v-120h-169l-23 -89c-43 -170 -116 -216 -241 -216h-11v125c54 0 94 7 115 92l23 88h-136z" />
    <glyph glyph-name="florin.LT" unicode="&#xf468;" horiz-adv-x="588" 
d="M48 305v120h191l25 89c46 165 131 216 269 216h10v-125c-91 0 -122 -19 -142 -92l-25 -88h165v-120h-199l-25 -89c-45 -160 -115 -216 -249 -216h-22v125c81 0 115 22 134 92l25 88h-157z" />
    <glyph glyph-name="four.LP" unicode="&#xe539;" horiz-adv-x="623" 
d="M348 0v168h-313v124l306 438h139v-438h107v-124h-107v-168h-132zM182 292h166v235z" />
    <glyph glyph-name="four.LT" unicode="&#xe544;" horiz-adv-x="588" 
d="M337 0v149h-297v124l281 457h149v-457h78v-124h-78v-149h-133zM181 273h156v253z" />
    <glyph glyph-name="four.inf" unicode="&#xe575;" horiz-adv-x="363" 
d="M183 0v84h-169v99l168 239h105v-243h62v-95h-62v-84h-104zM130 179h53v77z" />
    <glyph glyph-name="franc" unicode="&#x20a3;" horiz-adv-x="486" 
d="M36 0v730h413v-130h-277v-101h277v-114h-277v-61h277v-115h-277v-209h-136z" />
    <glyph glyph-name="g" unicode="g" horiz-adv-x="673" 
d="M499 10v68c-43 -55 -113 -90 -191 -90c-141 0 -288 113 -288 304c0 194 142 305 290 305c77 0 146 -34 188 -87v75h135v-570c0 -164 -104 -298 -302 -298c-152 0 -246 70 -300 168l120 73c42 -78 89 -117 182 -117c102 0 166 80 166 169zM330 112c100 0 175 81 175 182
c0 99 -75 180 -175 180s-177 -79 -177 -180c0 -102 77 -182 177 -182z" />
    <glyph glyph-name="g.alt" unicode="&#xe4c6;" horiz-adv-x="524" 
d="M260 -255c-175 0 -235 64 -235 130c0 43 21 71 51 87c-39 21 -56 58 -56 103s31 80 77 98c-40 34 -65 84 -65 144c0 113 91 204 203 204c77 0 138 -39 170 -98c8 61 34 87 92 87h9v-148h-12c-37 0 -54 2 -54 -45c0 -114 -82 -206 -195 -206h-78c-30 0 -41 -10 -41 -22
s7 -23 37 -23h170c117 0 181 -54 181 -142c0 -98 -87 -169 -254 -169zM235 222c47 0 84 38 84 85s-37 86 -84 86c-46 0 -83 -39 -83 -86s37 -85 83 -85zM326 -57h-125c-46 0 -60 -20 -60 -38c0 -20 7 -41 92 -41h61c82 0 101 27 101 46s-16 33 -69 33z" />
    <glyph glyph-name="g.smcp" unicode="&#xe207;" 
d="M333 -8c-192 0 -312 141 -312 306c0 172 128 306 307 306c124 0 219 -62 270 -149l-117 -67c-30 56 -83 88 -152 88c-97 0 -174 -77 -174 -178c0 -104 73 -179 176 -179c74 0 127 39 147 103h-173v126h318v-61c0 -160 -115 -295 -290 -295z" />
    <glyph glyph-name="g.smcp" unicode="&#xf767;" 
d="M333 -8c-192 0 -312 141 -312 306c0 172 128 306 307 306c124 0 219 -62 270 -149l-117 -67c-30 56 -83 88 -152 88c-97 0 -174 -77 -174 -178c0 -104 73 -179 176 -179c74 0 127 39 147 103h-173v126h318v-61c0 -160 -115 -295 -290 -295z" />
    <glyph glyph-name="gbreve" unicode="&#x11f;" horiz-adv-x="673" 
d="M499 10v68c-43 -55 -113 -90 -191 -90c-141 0 -288 113 -288 304c0 194 142 305 290 305c77 0 146 -34 188 -87v75h135v-570c0 -164 -104 -298 -302 -298c-152 0 -246 70 -300 168l120 73c42 -78 89 -117 182 -117c102 0 166 80 166 169zM330 112c100 0 175 81 175 182
c0 99 -75 180 -175 180s-177 -79 -177 -180c0 -102 77 -182 177 -182zM340 638c-110 0 -161 73 -161 170h85c0 -64 27 -94 76 -96c48 2 76 32 76 96h86c0 -97 -62 -170 -162 -170z" />
    <glyph glyph-name="gbreve.alt" unicode="&#xe910;" horiz-adv-x="524" 
d="M260 -255c-175 0 -235 64 -235 130c0 43 21 71 51 87c-39 21 -56 58 -56 103s31 80 77 98c-40 34 -65 84 -65 144c0 113 91 204 203 204c77 0 138 -39 170 -98c8 61 34 87 92 87h9v-148h-12c-37 0 -54 2 -54 -45c0 -114 -82 -206 -195 -206h-78c-30 0 -41 -10 -41 -22
s7 -23 37 -23h170c117 0 181 -54 181 -142c0 -98 -87 -169 -254 -169zM240 545c-110 0 -161 73 -161 170h85c0 -64 27 -94 76 -96c48 2 76 32 76 96h86c0 -97 -62 -170 -162 -170zM235 222c47 0 84 38 84 85s-37 86 -84 86c-46 0 -83 -39 -83 -86s37 -85 83 -85zM196 -57
c-43 -2 -55 -20 -55 -38c0 -20 7 -41 92 -41h61c82 0 101 27 101 46s-16 33 -69 33h-130z" />
    <glyph glyph-name="gbreve.smcp" unicode="&#xe24e;" 
d="M333 -8c-192 0 -312 141 -312 306c0 172 128 306 307 306c124 0 219 -62 270 -149l-117 -67c-30 56 -83 88 -152 88c-97 0 -174 -77 -174 -178c0 -104 73 -179 176 -179c74 0 127 39 147 103h-173v126h318v-61c0 -160 -115 -295 -290 -295zM332 638
c-110 0 -161 73 -161 170h85c0 -64 27 -94 76 -96c48 2 76 32 76 96h86c0 -97 -62 -170 -162 -170z" />
    <glyph glyph-name="gbreve.smcp" unicode="&#xf64b;" 
d="M333 -8c-192 0 -312 141 -312 306c0 172 128 306 307 306c124 0 219 -62 270 -149l-117 -67c-30 56 -83 88 -152 88c-97 0 -174 -77 -174 -178c0 -104 73 -179 176 -179c74 0 127 39 147 103h-173v126h318v-61c0 -160 -115 -295 -290 -295zM332 638
c-110 0 -161 73 -161 170h85c0 -64 27 -94 76 -96c48 2 76 32 76 96h86c0 -97 -62 -170 -162 -170z" />
    <glyph glyph-name="gcircumflex" unicode="&#x11d;" horiz-adv-x="673" 
d="M499 10v68c-43 -55 -113 -90 -191 -90c-141 0 -288 113 -288 304c0 194 142 305 290 305c77 0 146 -34 188 -87v75h135v-570c0 -164 -104 -298 -302 -298c-152 0 -246 70 -300 168l120 73c42 -78 89 -117 182 -117c102 0 166 80 166 169zM330 112c100 0 175 81 175 182
c0 99 -75 180 -175 180s-177 -79 -177 -180c0 -102 77 -182 177 -182zM183 645l119 170h84l119 -170h-102l-59 89l-59 -89h-102z" />
    <glyph glyph-name="gcircumflex.alt" unicode="&#xe90e;" horiz-adv-x="524" 
d="M260 -255c-175 0 -235 64 -235 130c0 43 21 71 51 87c-39 21 -56 58 -56 103s31 80 77 98c-40 34 -65 84 -65 144c0 113 91 204 203 204c77 0 138 -39 170 -98c8 61 34 87 92 87h9v-148h-12c-37 0 -54 2 -54 -45c0 -114 -82 -206 -195 -206h-78c-30 0 -41 -10 -41 -22
s7 -23 37 -23h170c117 0 181 -54 181 -142c0 -98 -87 -169 -254 -169zM75 550l119 170h84l119 -170h-102l-59 89l-59 -89h-102zM235 222c47 0 84 38 84 85s-37 86 -84 86c-46 0 -83 -39 -83 -86s37 -85 83 -85zM326 -57h-125c-46 0 -60 -20 -60 -38c0 -20 7 -41 92 -41h61
c82 0 101 27 101 46s-16 33 -69 33z" />
    <glyph glyph-name="gcircumflex.smcp" unicode="&#xe24b;" 
d="M333 -8c-192 0 -312 141 -312 306c0 172 128 306 307 306c124 0 219 -62 270 -149l-117 -67c-30 56 -83 88 -152 88c-97 0 -174 -77 -174 -178c0 -104 73 -179 176 -179c74 0 127 39 147 103h-173v126h318v-61c0 -160 -115 -295 -290 -295zM171 646l119 170h84l119 -170
h-102l-59 89l-59 -89h-102z" />
    <glyph glyph-name="gcircumflex.smcp" unicode="&#xf62c;" 
d="M333 -8c-192 0 -312 141 -312 306c0 172 128 306 307 306c124 0 219 -62 270 -149l-117 -67c-30 56 -83 88 -152 88c-97 0 -174 -77 -174 -178c0 -104 73 -179 176 -179c74 0 127 39 147 103h-173v126h318v-61c0 -160 -115 -295 -290 -295zM171 646l119 170h84l119 -170
h-102l-59 89l-59 -89h-102z" />
    <glyph glyph-name="gcommaaccent" unicode="&#x123;" horiz-adv-x="673" 
d="M499 10v68c-43 -55 -113 -90 -191 -90c-141 0 -288 113 -288 304c0 194 142 305 290 305c77 0 146 -34 188 -87v75h135v-570c0 -164 -104 -298 -302 -298c-152 0 -246 70 -300 168l120 73c42 -78 89 -117 182 -117c102 0 166 80 166 169zM330 112c100 0 175 81 175 182
c0 99 -75 180 -175 180s-177 -79 -177 -180c0 -102 77 -182 177 -182zM362 645h-83l34 204h119z" />
    <glyph glyph-name="gcommaaccent.alt" unicode="&#xe911;" horiz-adv-x="524" 
d="M260 -255c-175 0 -235 64 -235 130c0 43 21 71 51 87c-39 21 -56 58 -56 103s31 80 77 98c-40 34 -65 84 -65 144c0 113 91 204 203 204c77 0 138 -39 170 -98c8 61 34 87 92 87h9v-148h-12c-37 0 -54 2 -54 -45c0 -114 -82 -206 -195 -206h-78c-30 0 -41 -10 -41 -22
s7 -23 37 -23h170c117 0 181 -54 181 -142c0 -98 -87 -169 -254 -169zM235 222c47 0 84 38 84 85s-37 86 -84 86c-46 0 -83 -39 -83 -86s37 -85 83 -85zM285 551h-83l34 204h119zM326 -57h-130c-43 -2 -55 -20 -55 -38c0 -20 7 -41 92 -41h61c82 0 101 27 101 46
s-16 33 -69 33z" />
    <glyph glyph-name="gcommaaccent.smcp" unicode="&#xe240;" 
d="M333 -8c-192 0 -312 141 -312 306c0 172 128 306 307 306c124 0 219 -62 270 -149l-117 -67c-30 56 -83 88 -152 88c-97 0 -174 -77 -174 -178c0 -104 73 -179 176 -179c74 0 127 39 147 103h-173v126h318v-61c0 -160 -115 -295 -290 -295zM321 -250h-83l34 204h119z" />
    <glyph glyph-name="gcommaaccent.smcp" unicode="&#xf64c;" 
d="M333 -8c-192 0 -312 141 -312 306c0 172 128 306 307 306c124 0 219 -62 270 -149l-117 -67c-30 56 -83 88 -152 88c-97 0 -174 -77 -174 -178c0 -104 73 -179 176 -179c74 0 127 39 147 103h-173v126h318v-61c0 -160 -115 -295 -290 -295zM321 -250h-83l34 204h119z" />
    <glyph glyph-name="gdotaccent" unicode="&#x121;" horiz-adv-x="673" 
d="M499 10v68c-43 -55 -113 -90 -191 -90c-141 0 -288 113 -288 304c0 194 142 305 290 305c77 0 146 -34 188 -87v75h135v-570c0 -164 -104 -298 -302 -298c-152 0 -246 70 -300 168l120 73c42 -78 89 -117 182 -117c102 0 166 80 166 169zM330 112c100 0 175 81 175 182
c0 99 -75 180 -175 180s-177 -79 -177 -180c0 -102 77 -182 177 -182zM249 713c0 47 31 79 79 79c49 0 79 -32 79 -79c0 -46 -30 -78 -79 -78c-50 0 -79 32 -79 78z" />
    <glyph glyph-name="gdotaccent.alt" unicode="&#xe90f;" horiz-adv-x="524" 
d="M260 -255c-175 0 -235 64 -235 130c0 43 21 71 51 87c-39 21 -56 58 -56 103s31 80 77 98c-40 34 -65 84 -65 144c0 113 91 204 203 204c77 0 138 -39 170 -98c8 61 34 87 92 87h9v-148h-12c-37 0 -54 2 -54 -45c0 -114 -82 -206 -195 -206h-78c-30 0 -41 -10 -41 -22
s7 -23 37 -23h170c117 0 181 -54 181 -142c0 -98 -87 -169 -254 -169zM235 222c47 0 84 38 84 85s-37 86 -84 86c-46 0 -83 -39 -83 -86s37 -85 83 -85zM164 619c0 47 31 79 79 79c49 0 79 -32 79 -79c0 -46 -30 -78 -79 -78c-50 0 -79 32 -79 78zM326 -57h-119
c-51 1 -66 -19 -66 -38c0 -20 7 -41 92 -41h61c82 0 101 27 101 46s-16 33 -69 33z" />
    <glyph glyph-name="gdotaccent.smcp" unicode="&#xe24f;" 
d="M333 -8c-192 0 -312 141 -312 306c0 172 128 306 307 306c124 0 219 -62 270 -149l-117 -67c-30 56 -83 88 -152 88c-97 0 -174 -77 -174 -178c0 -104 73 -179 176 -179c74 0 127 39 147 103h-173v126h318v-61c0 -160 -115 -295 -290 -295zM252 715c0 47 31 79 79 79
c49 0 79 -32 79 -79c0 -46 -30 -78 -79 -78c-50 0 -79 32 -79 78z" />
    <glyph glyph-name="gdotaccent.smcp" unicode="&#xf62d;" 
d="M333 -8c-192 0 -312 141 -312 306c0 172 128 306 307 306c124 0 219 -62 270 -149l-117 -67c-30 56 -83 88 -152 88c-97 0 -174 -77 -174 -178c0 -104 73 -179 176 -179c74 0 127 39 147 103h-173v126h318v-61c0 -160 -115 -295 -290 -295zM252 715c0 47 31 79 79 79
c49 0 79 -32 79 -79c0 -46 -30 -78 -79 -78c-50 0 -79 32 -79 78z" />
    <glyph glyph-name="germandbls" unicode="&#xdf;" horiz-adv-x="589" 
d="M-80 -269v127c101 0 119 23 119 118v625c-5 149 86 253 252 253c147 0 249 -98 249 -235c0 -81 -43 -145 -116 -176c83 -27 146 -101 146 -198c0 -149 -105 -256 -264 -256c-27 0 -57 2 -79 11v122c11 -7 60 -11 77 -11c73 0 128 57 128 133c0 71 -60 131 -157 131h-26
v123h26c79 0 133 53 133 122c0 66 -46 120 -118 120c-74 0 -123 -42 -123 -125v-639c0 -181 -53 -245 -226 -245h-21z" />
    <glyph glyph-name="greater" unicode="&#x3e;" horiz-adv-x="442" 
d="M36 172v118l223 73l-223 73v118l370 -133v-115z" />
    <glyph glyph-name="greaterequal" unicode="&#x2265;" horiz-adv-x="442" 
d="M35 261v118l223 73l-223 72v119l370 -134v-114zM35 114v115h370v-115h-370z" />
    <glyph glyph-name="guillemotleft" unicode="&#xab;" horiz-adv-x="477" 
d="M431 104l-183 114v75l183 113v-91l-100 -60l100 -59v-92zM229 104l-183 114v75l183 113v-91l-100 -60l100 -59v-92z" />
    <glyph glyph-name="guillemotleft.cap" unicode="&#xe453;" horiz-adv-x="477" 
d="M431 215l-183 113v75l183 113v-91l-100 -59l100 -60v-91zM229 215l-183 113v75l183 113v-91l-100 -59l100 -60v-91z" />
    <glyph glyph-name="guillemotright" unicode="&#xbb;" horiz-adv-x="477" 
d="M248 104v92l100 59l-100 60v91l183 -113v-75zM46 104v92l100 59l-100 60v91l183 -113v-75z" />
    <glyph glyph-name="guillemotright.cap" unicode="&#xe454;" horiz-adv-x="477" 
d="M248 215v91l100 60l-100 59v91l183 -113v-75zM46 215v91l100 60l-100 59v91l183 -113v-75z" />
    <glyph glyph-name="guilsinglleft" unicode="&#x2039;" horiz-adv-x="275" 
d="M222 95l-169 119v83l169 119v-101l-89 -60l89 -59v-101z" />
    <glyph glyph-name="guilsinglleft.cap" unicode="&#xe451;" horiz-adv-x="275" 
d="M222 205l-169 119v83l169 119v-101l-89 -59l89 -60v-101z" />
    <glyph glyph-name="guilsinglright" unicode="&#x203a;" horiz-adv-x="275" 
d="M53 96v101l89 59l-89 60v101l169 -119v-83z" />
    <glyph glyph-name="guilsinglright.cap" unicode="&#xe452;" horiz-adv-x="275" 
d="M53 206v101l89 60l-89 59v101l169 -119v-83z" />
    <glyph glyph-name="h" unicode="h" horiz-adv-x="619" 
d="M39 0v740h135v-225c40 50 101 82 175 82c144 0 232 -94 232 -250v-347h-138v332c0 91 -44 148 -132 148c-76 0 -136 -57 -136 -159v-321h-136z" />
    <glyph glyph-name="h.smcp" unicode="&#xe208;" horiz-adv-x="528" 
d="M357 0v234h-186v-234h-134v596h134v-230h186v230h134v-596h-134z" />
    <glyph glyph-name="h.smcp" unicode="&#xf768;" horiz-adv-x="528" 
d="M357 0v234h-186v-234h-134v596h134v-230h186v230h134v-596h-134z" />
    <glyph glyph-name="hbar" unicode="&#x127;" horiz-adv-x="627" 
d="M-11 605v73h58v62h135v-62h63v-73h-63v-90c40 50 101 82 175 82c144 0 232 -94 232 -250v-347h-138v332c0 91 -44 148 -132 148c-76 0 -136 -57 -136 -159v-321h-136v605h-58z" />
    <glyph glyph-name="hbar.smcp" unicode="&#xe257;" horiz-adv-x="550" 
d="M368 0v215h-186v-215h-134v404h-37v132h37v60h134v-60h186v60h134v-60h36v-132h-36v-404h-134zM182 404v-57h186v57h-186z" />
    <glyph glyph-name="hbar.smcp" unicode="&#xf62e;" horiz-adv-x="550" 
d="M368 0v215h-186v-215h-134v404h-37v132h37v60h134v-60h186v60h134v-60h36v-132h-36v-404h-134zM182 404v-57h186v57h-186z" />
    <glyph glyph-name="hcircumflex" unicode="&#x125;" horiz-adv-x="619" 
d="M39 0v740h135v-225c40 50 101 82 175 82c144 0 232 -94 232 -250v-347h-138v332c0 91 -44 148 -132 148c-76 0 -136 -57 -136 -159v-321h-136zM-52 776l119 170h84l119 -170h-102l-59 89l-59 -89h-102z" />
    <glyph glyph-name="hcircumflex.smcp" unicode="&#xe253;" horiz-adv-x="528" 
d="M357 0v234h-186v-234h-134v596h134v-230h186v230h134v-596h-134zM104 646l119 170h84l119 -170h-102l-59 89l-59 -89h-102z" />
    <glyph glyph-name="hcircumflex.smcp" unicode="&#xf62f;" horiz-adv-x="528" 
d="M357 0v234h-186v-234h-134v596h134v-230h186v230h134v-596h-134zM104 646l119 170h84l119 -170h-102l-59 89l-59 -89h-102z" />
    <glyph glyph-name="heart" unicode="&#x2665;" horiz-adv-x="920" 
d="M89 550c0 103 80 190 183 190c102 0 174 -70 185 -161c12 91 82 161 185 161s189 -87 189 -190c0 -115 -66 -225 -232 -410l-142 -157l-141 157c-166 185 -227 295 -227 410z" />
    <glyph glyph-name="house" unicode="&#x2302;" horiz-adv-x="874" 
d="M774 0h-674v427l337 323l337 -323v-427z" />
    <glyph glyph-name="hyphen" unicode="-" horiz-adv-x="442" 
d="M36 197v115h370v-115h-370z" />
    <glyph glyph-name="hyphen.cap" unicode="&#xe482;" horiz-adv-x="442" 
d="M36 302v114h370v-114h-370z" />
    <glyph glyph-name="i" unicode="i" horiz-adv-x="214" 
d="M39 0v585h136v-585h-136zM22 728c0 51 33 85 85 85c53 0 85 -34 85 -85c0 -50 -32 -84 -85 -84c-54 0 -85 34 -85 84z" />
    <glyph glyph-name="i.smcp" unicode="&#xe209;" horiz-adv-x="219" 
d="M42 0v596h135v-596h-135z" />
    <glyph glyph-name="i.smcp" unicode="&#xf769;" horiz-adv-x="219" 
d="M42 0v596h135v-596h-135z" />
    <glyph glyph-name="iacute" unicode="&#xed;" horiz-adv-x="214" 
d="M55 635l115 170h126l-150 -170h-91zM39 0v585h136v-585h-136z" />
    <glyph glyph-name="iacute.smcp" unicode="&#xe258;" horiz-adv-x="219" 
d="M61 646l115 170h126l-150 -170h-91zM42 0v596h135v-596h-135z" />
    <glyph glyph-name="iacute.smcp" unicode="&#xf7ed;" horiz-adv-x="219" 
d="M61 646l115 170h126l-150 -170h-91zM42 0v596h135v-596h-135z" />
    <glyph glyph-name="ibreve" unicode="&#x12d;" horiz-adv-x="214" 
d="M39 0v585h136v-585h-136zM111 629c-110 0 -161 73 -161 170h85c0 -64 27 -94 76 -96c48 2 76 32 76 96h86c0 -97 -62 -170 -162 -170z" />
    <glyph glyph-name="ibreve.smcp" unicode="&#xe25f;" horiz-adv-x="219" 
d="M42 0v596h135v-596h-135zM109 638c-110 0 -161 73 -161 170h85c0 -64 27 -94 76 -96c48 2 76 32 76 96h86c0 -97 -62 -170 -162 -170z" />
    <glyph glyph-name="ibreve.smcp" unicode="&#xf630;" horiz-adv-x="219" 
d="M42 0v596h135v-596h-135zM109 638c-110 0 -161 73 -161 170h85c0 -64 27 -94 76 -96c48 2 76 32 76 96h86c0 -97 -62 -170 -162 -170z" />
    <glyph glyph-name="icircumflex" unicode="&#xee;" horiz-adv-x="214" 
d="M39 0v585h136v-585h-136zM-51 635l119 170h84l119 -170h-102l-59 89l-59 -89h-102z" />
    <glyph glyph-name="icircumflex.smcp" unicode="&#xe25a;" horiz-adv-x="219" 
d="M42 0v596h135v-596h-135zM-42 646l119 170h84l119 -170h-102l-59 89l-59 -89h-102z" />
    <glyph glyph-name="icircumflex.smcp" unicode="&#xf7ee;" horiz-adv-x="219" 
d="M42 0v596h135v-596h-135zM-42 646l119 170h84l119 -170h-102l-59 89l-59 -89h-102z" />
    <glyph glyph-name="idieresis" unicode="&#xef;" horiz-adv-x="214" 
d="M145 630v161h135v-161h-135zM-68 630v161h136v-161h-136zM39 0v585h136v-585h-136z" />
    <glyph glyph-name="idieresis.smcp" unicode="&#xe25b;" horiz-adv-x="219" 
d="M168 647v137h134v-137h-134zM-63 647v137h134v-137h-134zM42 0v596h135v-596h-135z" />
    <glyph glyph-name="idieresis.smcp" unicode="&#xf7ef;" horiz-adv-x="219" 
d="M168 647v137h134v-137h-134zM-63 647v137h134v-137h-134zM42 0v596h135v-596h-135z" />
    <glyph glyph-name="idotaccent" unicode="&#xe785;" horiz-adv-x="214" 
d="M39 0v585h136v-585h-136zM22 728c0 51 33 85 85 85c53 0 85 -34 85 -85c0 -50 -32 -84 -85 -84c-54 0 -85 34 -85 84z" />
    <glyph glyph-name="idotaccent.smcp" unicode="&#xe262;" horiz-adv-x="219" 
d="M42 0v596h135v-596h-135zM30 715c0 47 31 79 79 79c49 0 79 -32 79 -79c0 -46 -30 -78 -79 -78c-50 0 -79 32 -79 78z" />
    <glyph glyph-name="idotaccent.smcp" unicode="&#xf666;" horiz-adv-x="219" 
d="M42 0v596h135v-596h-135zM30 715c0 47 31 79 79 79c49 0 79 -32 79 -79c0 -46 -30 -78 -79 -78c-50 0 -79 32 -79 78z" />
    <glyph glyph-name="igrave" unicode="&#xec;" horiz-adv-x="214" 
d="M39 0v585h136v-585h-136zM59 635l-150 170h127l114 -170h-91z" />
    <glyph glyph-name="igrave.smcp" unicode="&#xe259;" horiz-adv-x="219" 
d="M67 646l-150 170h127l114 -170h-91zM42 0v596h135v-596h-135z" />
    <glyph glyph-name="igrave.smcp" unicode="&#xf7ec;" horiz-adv-x="219" 
d="M67 646l-150 170h127l114 -170h-91zM42 0v596h135v-596h-135z" />
    <glyph glyph-name="ij" unicode="&#x133;" horiz-adv-x="434" 
d="M39 -239v127h99c105 0 121 16 121 118v579h136v-580c0 -184 -59 -244 -236 -244h-120zM39 0v585h136v-585h-136zM39 659v163h136v-163h-136zM259 659v163h136v-163h-136z" />
    <glyph glyph-name="ij.smcp" unicode="&#xe327;" horiz-adv-x="452" 
d="M216 0v123h6c48 1 59 13 59 68v405h135v-401c0 -155 -49 -195 -190 -195h-10zM36 0v596h135v-596h-135z" />
    <glyph glyph-name="ij.smcp" unicode="&#xf631;" horiz-adv-x="452" 
d="M216 0v123h6c48 1 59 13 59 68v405h135v-401c0 -155 -49 -195 -190 -195h-10zM36 0v596h135v-596h-135z" />
    <glyph glyph-name="imacron" unicode="&#x12b;" horiz-adv-x="214" 
d="M39 0v585h136v-585h-136zM-23 635v86h264v-86h-264z" />
    <glyph glyph-name="imacron.smcp" unicode="&#xe25e;" horiz-adv-x="219" 
d="M-24 646v86h264v-86h-264zM42 0v596h135v-596h-135z" />
    <glyph glyph-name="imacron.smcp" unicode="&#xf64d;" horiz-adv-x="219" 
d="M-24 646v86h264v-86h-264zM42 0v596h135v-596h-135z" />
    <glyph glyph-name="increment" unicode="&#x2206;" horiz-adv-x="897" 
d="M877 0h-857l429 742zM449 482l-203 -352h406z" />
    <glyph glyph-name="infinity" unicode="&#x221e;" horiz-adv-x="893" 
d="M249 206c-99 0 -178 79 -178 178s79 179 178 179c78 0 142 -48 198 -101c56 53 119 101 196 101c99 0 179 -80 179 -179s-80 -178 -179 -178c-77 0 -139 47 -196 100c-56 -53 -120 -100 -198 -100zM249 319c40 0 79 28 118 65c-39 37 -78 65 -118 65
c-35 0 -65 -30 -65 -65s30 -65 65 -65zM643 319c35 0 65 30 65 65s-30 65 -65 65c-39 0 -76 -28 -116 -65c40 -37 77 -65 116 -65z" />
    <glyph glyph-name="integral" unicode="&#x222b;" horiz-adv-x="364" 
d="M15 -215v125c85 0 95 13 95 90v514c0 163 53 216 219 216h11v-125c-85 0 -95 -12 -95 -92v-512c0 -162 -53 -216 -219 -216h-11z" />
    <glyph glyph-name="interrobangdown.cap" unicode="&#xe99b;" horiz-adv-x="517" 
d="M279 -10c-147 0 -247 84 -247 209c0 190 193 135 193 332v12h95c5 -120 12 -292 12 -426v-1c31 15 51 45 59 78l126 -43c-25 -95 -111 -161 -238 -161zM193 662c0 49 32 82 82 82c51 0 81 -33 81 -82c0 -48 -31 -81 -82 -81c-50 0 -81 33 -81 81zM168 197
c0 -34 17 -64 50 -80c0 60 1 125 5 190c-29 -32 -55 -56 -55 -110z" />
    <glyph glyph-name="invertedbreve" unicode="&#xe411;" horiz-adv-x="472" 
d="M74 550c0 97 51 170 161 170c100 0 162 -73 162 -170h-86c0 64 -28 95 -76 97c-49 -2 -76 -33 -76 -97h-85z" />
    <glyph glyph-name="iogonek" unicode="&#x12f;" horiz-adv-x="214" 
d="M48 -229c-77 0 -131 46 -132 108c-1 69 47 114 122 163l1 -1v544h136v-585h-55c-76 -46 -105 -87 -105 -111c0 -22 16 -33 38 -33c20 0 37 14 50 30l79 -55c-35 -36 -76 -60 -134 -60zM22 728c0 51 33 85 85 85c53 0 85 -34 85 -85c0 -50 -32 -84 -85 -84
c-54 0 -85 34 -85 84z" />
    <glyph glyph-name="iogonek.smcp" unicode="&#xe264;" horiz-adv-x="219" 
d="M105 -229c-77 0 -131 46 -132 108c0 51 25 89 69 125v592h135v-596c-76 -46 -105 -87 -105 -111c0 -22 16 -33 38 -33c20 0 37 14 50 30l79 -55c-35 -36 -76 -60 -134 -60z" />
    <glyph glyph-name="iogonek.smcp" unicode="&#xf64e;" horiz-adv-x="219" 
d="M105 -229c-77 0 -131 46 -132 108c0 51 25 89 69 125v592h135v-596c-76 -46 -105 -87 -105 -111c0 -22 16 -33 38 -33c20 0 37 14 50 30l79 -55c-35 -36 -76 -60 -134 -60z" />
    <glyph glyph-name="itilde" unicode="&#x129;" horiz-adv-x="214" 
d="M39 0v585h136v-585h-136zM-63 635c0 81 39 135 104 135c33 0 56 -12 77 -24c19 -13 35 -25 52 -25c18 0 28 15 28 45h78c0 -82 -35 -135 -105 -135c-39 0 -65 18 -87 31c-15 9 -28 17 -43 17c-18 0 -26 -13 -26 -44h-78z" />
    <glyph glyph-name="itilde.smcp" unicode="&#xe25c;" horiz-adv-x="219" 
d="M42 0v596h135v-596h-135zM-52 646c0 81 39 135 104 135c33 0 56 -12 77 -24c19 -13 35 -25 52 -25c18 0 28 15 28 45h78c0 -82 -35 -135 -105 -135c-39 0 -65 18 -87 31c-15 9 -28 17 -43 17c-18 0 -26 -13 -26 -44h-78z" />
    <glyph glyph-name="itilde.smcp" unicode="&#xf632;" horiz-adv-x="219" 
d="M42 0v596h135v-596h-135zM-52 646c0 81 39 135 104 135c33 0 56 -12 77 -24c19 -13 35 -25 52 -25c18 0 28 15 28 45h78c0 -82 -35 -135 -105 -135c-39 0 -65 18 -87 31c-15 9 -28 17 -43 17c-18 0 -26 -13 -26 -44h-78z" />
    <glyph glyph-name="j" unicode="j" horiz-adv-x="213" 
d="M-82 -269v127c105 0 121 15 121 118v609h136v-610c0 -184 -59 -244 -238 -244h-19zM22 728c0 51 33 85 85 85c53 0 85 -34 85 -85c0 -50 -32 -84 -85 -84c-54 0 -85 34 -85 84z" />
    <glyph glyph-name="j.smcp" unicode="&#xe20a;" horiz-adv-x="433" 
d="M210 -8c-99 0 -169 52 -192 130l128 51c9 -35 29 -58 63 -58c35 0 53 27 53 63v418h135v-409c0 -121 -62 -195 -187 -195z" />
    <glyph glyph-name="j.smcp" unicode="&#xf76a;" horiz-adv-x="433" 
d="M210 -8c-99 0 -169 52 -192 130l128 51c9 -35 29 -58 63 -58c35 0 53 27 53 63v418h135v-409c0 -121 -62 -195 -187 -195z" />
    <glyph glyph-name="jcircumflex" unicode="&#x135;" horiz-adv-x="214" 
d="M-82 -269v127c105 0 121 15 121 118v609h137v-610c0 -186 -59 -244 -239 -244h-19zM-53 635l119 170h84l119 -170h-102l-59 89l-59 -89h-102z" />
    <glyph glyph-name="jcircumflex.smcp" unicode="&#xe265;" horiz-adv-x="433" 
d="M210 -8c-99 0 -169 52 -192 130l128 51c9 -35 29 -58 63 -58c35 0 53 27 53 63v418h135v-409c0 -121 -62 -195 -187 -195zM167 646l119 170h84l119 -170h-102l-59 89l-59 -89h-102z" />
    <glyph glyph-name="jcircumflex.smcp" unicode="&#xf633;" horiz-adv-x="433" 
d="M210 -8c-99 0 -169 52 -192 130l128 51c9 -35 29 -58 63 -58c35 0 53 27 53 63v418h135v-409c0 -121 -62 -195 -187 -195zM167 646l119 170h84l119 -170h-102l-59 89l-59 -89h-102z" />
    <glyph glyph-name="k" unicode="k" horiz-adv-x="601" 
d="M39 0v740h135v-437l249 282h162l-226 -253l234 -332h-151l-175 252l-93 -103v-149h-135z" />
    <glyph glyph-name="k.smcp" unicode="&#xe20b;" horiz-adv-x="524" 
d="M365 0l-141 263l-53 -70v-193h-134v596h134v-225l172 225h159l-181 -235l194 -361h-150z" />
    <glyph glyph-name="k.smcp" unicode="&#xf76b;" horiz-adv-x="524" 
d="M365 0l-141 263l-53 -70v-193h-134v596h134v-225l172 225h159l-181 -235l194 -361h-150z" />
    <glyph glyph-name="kcommaaccent" unicode="&#x137;" horiz-adv-x="601" 
d="M39 0v740h135v-437l249 282h162l-226 -253l234 -332h-151l-175 252l-93 -103v-149h-135zM285 -240h-83l34 204h119z" />
    <glyph glyph-name="kcommaaccent.smcp" unicode="&#xe268;" horiz-adv-x="524" 
d="M365 0l-141 263l-53 -70v-193h-134v596h134v-225l172 225h159l-181 -235l194 -361h-150zM255 -244h-83l34 204h119z" />
    <glyph glyph-name="kcommaaccent.smcp" unicode="&#xf64f;" horiz-adv-x="524" 
d="M365 0l-141 263l-53 -70v-193h-134v596h134v-225l172 225h159l-181 -235l194 -361h-150zM255 -244h-83l34 204h119z" />
    <glyph glyph-name="kgreenlandic" unicode="&#x138;" horiz-adv-x="601" 
d="M442 0l-175 252l-93 -103v-149h-135v585h135v-282l249 282h162l-225 -253l232 -332h-150z" />
    <glyph glyph-name="l" unicode="l" horiz-adv-x="214" 
d="M39 0v740h136v-740h-136z" />
    <glyph glyph-name="l.smcp" unicode="&#xe20c;" horiz-adv-x="400" 
d="M37 0v596h134v-468h201v-128h-335z" />
    <glyph glyph-name="l.smcp" unicode="&#xf76c;" horiz-adv-x="400" 
d="M37 0v596h134v-468h201v-128h-335z" />
    <glyph glyph-name="lacute" unicode="&#x13a;" horiz-adv-x="214" 
d="M62 795l115 170h126l-150 -170h-91zM39 0v740h136v-740h-136z" />
    <glyph glyph-name="lacute.smcp" unicode="&#xe26b;" horiz-adv-x="400" 
d="M37 0v596h134v-468h201v-128h-335zM55 646l115 170h126l-150 -170h-91z" />
    <glyph glyph-name="lacute.smcp" unicode="&#xf650;" horiz-adv-x="400" 
d="M37 0v596h134v-468h201v-128h-335zM55 646l115 170h126l-150 -170h-91z" />
    <glyph glyph-name="lcaron" unicode="&#x13e;" horiz-adv-x="282" 
d="M37 0v740h136v-740h-136zM195 569l25 171h109l-51 -171h-83z" />
    <glyph glyph-name="lcaron.smcp" unicode="&#xe26c;" horiz-adv-x="400" 
d="M37 0v596h134v-468h201v-128h-335zM246 425l25 171h109l-51 -171h-83z" />
    <glyph glyph-name="lcaron.smcp" unicode="&#xf651;" horiz-adv-x="400" 
d="M37 0v596h134v-468h201v-128h-335zM246 425l25 171h109l-51 -171h-83z" />
    <glyph glyph-name="lcommaaccent" unicode="&#x13c;" horiz-adv-x="214" 
d="M96 -250h-83l34 204h119zM39 0v740h136v-740h-136z" />
    <glyph glyph-name="lcommaaccent.smcp" unicode="&#xe26d;" horiz-adv-x="400" 
d="M37 0v596h134v-468h201v-128h-335zM195 -254h-83l34 204h119z" />
    <glyph glyph-name="lcommaaccent.smcp" unicode="&#xf652;" horiz-adv-x="400" 
d="M37 0v596h134v-468h201v-128h-335zM195 -254h-83l34 204h119z" />
    <glyph glyph-name="ldot" unicode="&#x140;" horiz-adv-x="381" 
d="M39 0v740h136v-740h-136zM217 314c0 47 31 79 79 79c49 0 79 -32 79 -79c0 -46 -30 -78 -79 -78c-50 0 -79 32 -79 78z" />
    <glyph glyph-name="ldot.smcp" unicode="&#xe271;" horiz-adv-x="399" 
d="M37 0v596h134v-468h200v-128h-334zM224 315c0 47 31 79 79 79c49 0 79 -32 79 -79c0 -46 -30 -78 -79 -78c-50 0 -79 32 -79 78z" />
    <glyph glyph-name="ldot.smcp" unicode="&#xf634;" horiz-adv-x="399" 
d="M37 0v596h134v-468h200v-128h-334zM224 315c0 47 31 79 79 79c49 0 79 -32 79 -79c0 -46 -30 -78 -79 -78c-50 0 -79 32 -79 78z" />
    <glyph glyph-name="less" unicode="&#x3c;" horiz-adv-x="442" 
d="M406 172l-370 134v115l370 133v-118l-224 -73l224 -73v-118z" />
    <glyph glyph-name="lessequal" unicode="&#x2264;" horiz-adv-x="442" 
d="M405 261l-370 134v114l370 134v-119l-223 -72l223 -73v-118zM35 114v115h370v-115h-370z" />
    <glyph glyph-name="lira" unicode="&#x20a4;" horiz-adv-x="705" 
d="M85 379v98h68c-3 15 -4 30 -4 47c0 126 95 216 231 216c121 0 202 -55 230 -144l-128 -47c-13 47 -49 73 -101 73c-63 0 -104 -45 -104 -96c0 -17 2 -34 5 -49h210v-98h-173l14 -33h159v-98h-126c4 -20 7 -42 7 -65c0 -19 -3 -38 -7 -55c32 -17 62 -30 92 -30
c53 0 72 24 72 82v48h139v-65c0 -103 -47 -173 -177 -173c-70 0 -125 27 -173 56c-34 -36 -81 -57 -130 -57c-87 0 -138 34 -138 104c0 63 52 109 122 109c40 0 78 -13 112 -30c1 3 1 6 1 10c0 23 -5 45 -14 66h-187v98h128c-7 10 -14 21 -21 33h-107zM189 69
c22 0 42 8 58 23c-24 14 -47 24 -68 24c-18 0 -27 -10 -27 -22c0 -14 13 -25 37 -25z" />
    <glyph glyph-name="logicalnot" unicode="&#xac;" horiz-adv-x="603" 
d="M432 156v231h-404v131h540v-362h-136z" />
    <glyph glyph-name="lowline" unicode="&#xe511;" horiz-adv-x="447" 
d="M36 -215v115h375v-115h-375z" />
    <glyph glyph-name="lozenge" unicode="&#x25ca;" horiz-adv-x="843" 
d="M415 -16l-382 382l380 380l382 -382zM208 367l208 -208l203 203l-208 208z" />
    <glyph glyph-name="lslash" unicode="&#x142;" horiz-adv-x="369" 
d="M29 368v99l86 28v245h135v-201l90 30v-98l-90 -30v-441h-135v396z" />
    <glyph glyph-name="lslash.smcp" unicode="&#xe272;" horiz-adv-x="434" 
d="M12 227v98l59 17v254h134v-214l134 41v-98l-134 -41v-156h201v-128h-335v244z" />
    <glyph glyph-name="lslash.smcp" unicode="&#xf6f9;" horiz-adv-x="434" 
d="M12 227v98l59 17v254h134v-214l134 41v-98l-134 -41v-156h201v-128h-335v244z" />
    <glyph glyph-name="m" unicode="m" horiz-adv-x="998" 
d="M39 0v585h134v-68c37 49 95 80 167 80c91 0 155 -38 190 -101c40 61 109 101 192 101c157 0 238 -94 238 -245v-352h-138v341c0 85 -44 139 -127 139c-73 0 -129 -51 -129 -153v-327h-137v345c0 83 -42 135 -123 135c-76 0 -132 -52 -132 -156v-324h-135z" />
    <glyph glyph-name="m.smcp" unicode="&#xe20d;" horiz-adv-x="658" 
d="M37 0v596h134l159 -221l165 221h127v-596h-134v380l-159 -214l-159 215v-381h-133z" />
    <glyph glyph-name="m.smcp" unicode="&#xf76d;" horiz-adv-x="658" 
d="M37 0v596h134l159 -221l165 221h127v-596h-134v380l-159 -214l-159 215v-381h-133z" />
    <glyph glyph-name="mediumblackcircle" unicode="&#x26ab;" horiz-adv-x="698" 
d="M349 -10c-144 0 -259 116 -259 260s115 260 259 260s259 -116 259 -260s-115 -260 -259 -260z" />
    <glyph glyph-name="mediumwhitecircle" unicode="&#x26aa;" horiz-adv-x="698" 
d="M349 -10c-144 0 -259 116 -259 260s115 260 259 260s259 -116 259 -260s-115 -260 -259 -260zM349 117c72 0 129 60 129 133s-57 133 -129 133s-128 -60 -128 -133s56 -133 128 -133z" />
    <glyph glyph-name="minus" unicode="&#x2212;" horiz-adv-x="442" 
d="M36 307v115h370v-115h-370z" />
    <glyph glyph-name="minus.inf" unicode="&#xe57c;" horiz-adv-x="247" 
d="M16 165v90h214v-90h-214z" />
    <glyph glyph-name="minute" unicode="&#x2032;" horiz-adv-x="207" 
d="M111 526h-83l34 204h119z" />
    <glyph glyph-name="mu" unicode="&#xb5;" horiz-adv-x="527" 
d="M32 -230v730h136v-261c0 -85 31 -133 94 -133c54 0 99 37 99 121v273h134v-500h-133v49c-30 -37 -73 -59 -125 -59c-27 0 -51 7 -72 17v-237h-133z" />
    <glyph glyph-name="mu" unicode="&#x3bc;" horiz-adv-x="527" 
d="M32 -230v730h136v-261c0 -85 31 -133 94 -133c54 0 99 37 99 121v273h134v-500h-133v49c-30 -37 -73 -59 -125 -59c-27 0 -51 7 -72 17v-237h-133z" />
    <glyph glyph-name="multiply" unicode="&#xd7;" horiz-adv-x="442" 
d="M116 179l-79 79l105 105l-106 106l79 79l106 -106l106 106l79 -79l-106 -106l105 -105l-79 -79l-105 105z" />
    <glyph glyph-name="n" unicode="n" horiz-adv-x="619" 
d="M39 0v585h134v-72c39 51 100 84 175 84c144 0 232 -94 232 -250v-347h-137v333c0 90 -44 147 -132 147c-77 0 -137 -57 -137 -159v-321h-135z" />
    <glyph glyph-name="n.smcp" unicode="&#xe20e;" horiz-adv-x="579" 
d="M37 0v596h145l227 -359v359h133v-596h-134l-238 374v-374h-133z" />
    <glyph glyph-name="n.smcp" unicode="&#xf76e;" horiz-adv-x="579" 
d="M37 0v596h145l227 -359v359h133v-596h-134l-238 374v-374h-133z" />
    <glyph glyph-name="nacute" unicode="&#x144;" horiz-adv-x="618" 
d="M39 0v585h134v-72c39 51 100 84 175 84c144 0 232 -94 232 -250v-347h-137v333c0 90 -44 147 -132 147c-77 0 -137 -57 -137 -159v-321h-135zM258 640l115 170h126l-150 -170h-91z" />
    <glyph glyph-name="nacute.smcp" unicode="&#xe276;" horiz-adv-x="579" 
d="M37 0v596h145l227 -359v359h133v-596h-134l-238 374v-374h-133zM248 646l115 170h126l-150 -170h-91z" />
    <glyph glyph-name="nacute.smcp" unicode="&#xf653;" horiz-adv-x="579" 
d="M37 0v596h145l227 -359v359h133v-596h-134l-238 374v-374h-133zM248 646l115 170h126l-150 -170h-91z" />
    <glyph glyph-name="ncaron" unicode="&#x148;" horiz-adv-x="618" 
d="M39 0v585h134v-72c39 51 100 84 175 84c144 0 232 -94 232 -250v-347h-137v333c0 90 -44 147 -132 147c-77 0 -137 -57 -137 -159v-321h-135zM277 640l-119 170h102l59 -89l59 89h102l-119 -170h-84z" />
    <glyph glyph-name="ncaron.smcp" unicode="&#xe27a;" horiz-adv-x="579" 
d="M37 0v596h145l227 -359v359h133v-596h-134l-238 374v-374h-133zM253 638l-119 170h102l59 -89l59 89h102l-119 -170h-84z" />
    <glyph glyph-name="ncaron.smcp" unicode="&#xf654;" horiz-adv-x="579" 
d="M37 0v596h145l227 -359v359h133v-596h-134l-238 374v-374h-133zM253 638l-119 170h102l59 -89l59 89h102l-119 -170h-84z" />
    <glyph glyph-name="ncommaaccent" unicode="&#x146;" horiz-adv-x="618" 
d="M39 0v585h134v-72c39 51 100 84 175 84c144 0 232 -94 232 -250v-347h-137v333c0 90 -44 147 -132 147c-77 0 -137 -57 -137 -159v-321h-135zM303 -233h-83l34 204h119z" />
    <glyph glyph-name="ncommaaccent.smcp" unicode="&#xe27d;" horiz-adv-x="579" 
d="M37 0v596h145l227 -359v359h133v-596h-134l-238 374v-374h-133zM289 -254h-83l34 204h119z" />
    <glyph glyph-name="ncommaaccent.smcp" unicode="&#xf655;" horiz-adv-x="579" 
d="M37 0v596h145l227 -359v359h133v-596h-134l-238 374v-374h-133zM289 -254h-83l34 204h119z" />
    <glyph glyph-name="nine.LP" unicode="&#xe53e;" horiz-adv-x="562" 
d="M135 0l161 251c-14 -4 -28 -6 -42 -6c-127 0 -234 100 -234 246c0 149 114 249 259 249c151 0 260 -109 260 -248c0 -68 -22 -138 -56 -189l-188 -303h-160zM281 362c70 0 126 58 126 129c0 70 -56 129 -126 129c-68 0 -127 -60 -127 -130c0 -71 59 -128 127 -128z" />
    <glyph glyph-name="nine.LT" unicode="&#xe549;" horiz-adv-x="588" 
d="M313 0h-161l153 237c-13 -3 -26 -4 -39 -4c-130 0 -235 105 -235 254c0 148 113 253 262 253c154 0 264 -112 264 -252c0 -69 -22 -133 -56 -184zM296 352c71 0 128 61 128 133s-57 132 -128 132s-131 -60 -131 -133c0 -71 60 -132 131 -132z" />
    <glyph glyph-name="nine.inf" unicode="&#xe57a;" horiz-adv-x="352" 
d="M78 0l75 120c-78 1 -142 59 -142 152c0 89 68 156 165 156s165 -68 165 -156c0 -42 -19 -88 -41 -123l-94 -149h-128zM176 217c30 0 54 24 54 54s-24 53 -54 53s-53 -23 -53 -53s23 -54 53 -54z" />
    <glyph glyph-name="ninesixteenths" unicode="&#xf219;" horiz-adv-x="1155" 
d="M114 0l527 730h156l-527 -730h-156zM979 -6c-97 0 -165 68 -165 156c0 42 20 88 41 123l94 149h129l-76 -119c80 -2 142 -61 142 -153c1 -89 -68 -156 -165 -156zM78 308l75 120c-78 1 -142 59 -142 152c0 89 68 156 165 156s165 -68 165 -156c0 -42 -19 -88 -41 -123
l-94 -149h-128zM536 0v104h81v166c-14 -18 -37 -26 -63 -26h-6v107h3c56 0 70 41 70 71h109v-318h78v-104h-272zM176 525c30 0 54 24 54 54s-24 53 -54 53s-53 -23 -53 -53s23 -54 53 -54zM979 98c30 0 55 24 55 54c0 29 -25 53 -55 53s-52 -24 -52 -54c0 -29 22 -53 52 -53
z" />
    <glyph glyph-name="uni2089" unicode="&#x2089;" horiz-adv-x="352" 
d="M78 0l75 120c-78 1 -142 59 -142 152c0 89 68 156 165 156s165 -68 165 -156c0 -42 -19 -88 -41 -123l-94 -149h-128zM176 217c30 0 54 24 54 54s-24 53 -54 53s-53 -23 -53 -53s23 -54 53 -54z" />
    <glyph glyph-name="notequal" unicode="&#x2260;" horiz-adv-x="442" 
d="M363 574l-32 -70h75v-115h-126l-24 -52h150v-115h-201l-31 -69h-95l30 69h-73v115h123l22 52h-145v115h195l31 70h101z" />
    <glyph glyph-name="ntilde" unicode="&#xf1;" horiz-adv-x="618" 
d="M39 0v585h134v-72c39 51 100 84 175 84c144 0 232 -94 232 -250v-347h-137v333c0 90 -44 147 -132 147c-77 0 -137 -57 -137 -159v-321h-135zM167 646c0 81 39 135 104 135c33 0 56 -12 77 -24c19 -13 35 -25 52 -25c18 0 28 15 28 45h78c0 -82 -35 -135 -105 -135
c-39 0 -65 18 -87 31c-15 9 -28 17 -43 17c-18 0 -26 -13 -26 -44h-78z" />
    <glyph glyph-name="ntilde.smcp" unicode="&#xe279;" horiz-adv-x="579" 
d="M37 0v596h145l227 -359v359h133v-596h-134l-238 374v-374h-133zM125 646c0 81 39 135 104 135c33 0 56 -12 77 -24c19 -13 35 -25 52 -25c18 0 28 15 28 45h78c0 -82 -35 -135 -105 -135c-39 0 -65 18 -87 31c-15 9 -28 17 -43 17c-18 0 -26 -13 -26 -44h-78z" />
    <glyph glyph-name="numbersign" unicode="#" horiz-adv-x="802" 
d="M484 0v155h-174v-155h-136v155h-148v130h148v170h-148v130h148v145h136v-145h174v145h136v-145h156v-130h-156v-170h156v-130h-156v-155h-136zM310 455v-170h174v170h-174z" />
    <glyph glyph-name="numbersign.alt" unicode="&#xf463;" horiz-adv-x="802" 
d="M350 0l55 146l-156 59l-77 -205h-139l95 253l-92 35v138l142 -54l53 139l-195 74v139l242 -92l37 98h139l-56 -145l157 -58l77 203h137l-95 -250l92 -34v-139l-141 53l-53 -139l194 -74v-138l-241 90l-38 -99h-137zM352 464l-53 -138l153 -58l52 138z" />
    <glyph glyph-name="o" unicode="o" 
d="M323 -12c-169 0 -303 135 -303 304c0 170 134 305 303 305c168 0 303 -135 303 -305c0 -169 -135 -304 -303 -304zM323 115c95 0 170 80 170 177c0 98 -75 178 -170 178c-97 0 -170 -80 -170 -178c0 -97 73 -177 170 -177z" />
    <glyph glyph-name="o.smcp" unicode="&#xe20f;" horiz-adv-x="653" 
d="M326 -8c-170 0 -305 136 -305 306c0 169 135 306 305 306c169 0 306 -137 306 -306c0 -170 -136 -306 -306 -306zM326 124c98 0 170 78 170 174s-73 174 -170 174c-96 0 -169 -78 -169 -174s72 -174 169 -174z" />
    <glyph glyph-name="o.smcp" unicode="&#xf76f;" horiz-adv-x="653" 
d="M326 -8c-170 0 -305 136 -305 306c0 169 135 306 305 306c169 0 306 -137 306 -306c0 -170 -136 -306 -306 -306zM326 124c98 0 170 78 170 174s-73 174 -170 174c-96 0 -169 -78 -169 -174s72 -174 169 -174z" />
    <glyph glyph-name="oacute" unicode="&#xf3;" 
d="M277 645l115 170h126l-150 -170h-91zM323 -12c-169 0 -303 135 -303 304c0 170 134 305 303 305c168 0 303 -135 303 -305c0 -169 -135 -304 -303 -304zM323 115c95 0 170 80 170 177c0 98 -75 178 -170 178c-97 0 -170 -80 -170 -178c0 -97 73 -177 170 -177z" />
    <glyph glyph-name="oacute.smcp" unicode="&#xe281;" horiz-adv-x="653" 
d="M326 -8c-170 0 -305 136 -305 306c0 169 135 306 305 306c169 0 306 -137 306 -306c0 -170 -136 -306 -306 -306zM326 124c98 0 170 78 170 174s-73 174 -170 174c-96 0 -169 -78 -169 -174s72 -174 169 -174zM277 646l115 170h126l-150 -170h-91z" />
    <glyph glyph-name="oacute.smcp" unicode="&#xf7f3;" horiz-adv-x="653" 
d="M326 -8c-170 0 -305 136 -305 306c0 169 135 306 305 306c169 0 306 -137 306 -306c0 -170 -136 -306 -306 -306zM326 124c98 0 170 78 170 174s-73 174 -170 174c-96 0 -169 -78 -169 -174s72 -174 169 -174zM277 646l115 170h126l-150 -170h-91z" />
    <glyph glyph-name="obreve" unicode="&#x14f;" 
d="M323 -12c-169 0 -303 135 -303 304c0 170 134 305 303 305c168 0 303 -135 303 -305c0 -169 -135 -304 -303 -304zM323 115c95 0 170 80 170 177c0 98 -75 178 -170 178c-97 0 -170 -80 -170 -178c0 -97 73 -177 170 -177zM321 642c-110 0 -161 73 -161 170h85
c0 -64 27 -94 76 -96c48 2 76 32 76 96h86c0 -97 -62 -170 -162 -170z" />
    <glyph glyph-name="obreve.smcp" unicode="&#xe288;" horiz-adv-x="653" 
d="M326 -8c-170 0 -305 136 -305 306c0 169 135 306 305 306c169 0 306 -137 306 -306c0 -170 -136 -306 -306 -306zM326 124c98 0 170 78 170 174s-73 174 -170 174c-96 0 -169 -78 -169 -174s72 -174 169 -174zM326 638c-110 0 -161 73 -161 170h85c0 -64 27 -94 76 -96
c48 2 76 32 76 96h86c0 -97 -62 -170 -162 -170z" />
    <glyph glyph-name="obreve.smcp" unicode="&#xf635;" horiz-adv-x="653" 
d="M326 -8c-170 0 -305 136 -305 306c0 169 135 306 305 306c169 0 306 -137 306 -306c0 -170 -136 -306 -306 -306zM326 124c98 0 170 78 170 174s-73 174 -170 174c-96 0 -169 -78 -169 -174s72 -174 169 -174zM326 638c-110 0 -161 73 -161 170h85c0 -64 27 -94 76 -96
c48 2 76 32 76 96h86c0 -97 -62 -170 -162 -170z" />
    <glyph glyph-name="ocircumflex" unicode="&#xf4;" 
d="M323 -12c-169 0 -303 135 -303 304c0 170 134 305 303 305c168 0 303 -135 303 -305c0 -169 -135 -304 -303 -304zM323 115c95 0 170 80 170 177c0 98 -75 178 -170 178c-97 0 -170 -80 -170 -178c0 -97 73 -177 170 -177zM165 635l119 170h84l119 -170h-102l-59 89
l-59 -89h-102z" />
    <glyph glyph-name="ocircumflex.smcp" unicode="&#xe283;" horiz-adv-x="653" 
d="M326 -8c-170 0 -305 136 -305 306c0 169 135 306 305 306c169 0 306 -137 306 -306c0 -170 -136 -306 -306 -306zM326 124c98 0 170 78 170 174s-73 174 -170 174c-96 0 -169 -78 -169 -174s72 -174 169 -174zM165 646l119 170h84l119 -170h-102l-59 89l-59 -89h-102z
" />
    <glyph glyph-name="ocircumflex.smcp" unicode="&#xf7f4;" horiz-adv-x="653" 
d="M326 -8c-170 0 -305 136 -305 306c0 169 135 306 305 306c169 0 306 -137 306 -306c0 -170 -136 -306 -306 -306zM326 124c98 0 170 78 170 174s-73 174 -170 174c-96 0 -169 -78 -169 -174s72 -174 169 -174zM165 646l119 170h84l119 -170h-102l-59 89l-59 -89h-102z
" />
    <glyph glyph-name="odieresis" unicode="&#xf6;" 
d="M154 703c0 43 28 72 72 72c45 0 72 -29 72 -72c0 -42 -27 -71 -72 -71s-72 29 -72 71zM345 703c0 43 28 72 72 72s72 -29 72 -72c0 -42 -28 -71 -72 -71c-46 0 -72 29 -72 71zM323 -12c-169 0 -303 135 -303 304c0 170 134 305 303 305c168 0 303 -135 303 -305
c0 -169 -135 -304 -303 -304zM323 115c95 0 170 80 170 177c0 98 -75 178 -170 178c-97 0 -170 -80 -170 -178c0 -97 73 -177 170 -177z" />
    <glyph glyph-name="odieresis.smcp" unicode="&#xe284;" horiz-adv-x="653" 
d="M326 -8c-170 0 -305 136 -305 306c0 169 135 306 305 306c169 0 306 -137 306 -306c0 -170 -136 -306 -306 -306zM326 124c98 0 170 78 170 174s-73 174 -170 174c-96 0 -169 -78 -169 -174s72 -174 169 -174zM159 715c0 43 28 72 72 72c45 0 72 -29 72 -72
c0 -42 -27 -71 -72 -71s-72 29 -72 71zM350 715c0 43 28 72 72 72s72 -29 72 -72c0 -42 -28 -71 -72 -71c-46 0 -72 29 -72 71z" />
    <glyph glyph-name="odieresis.smcp" unicode="&#xf7f6;" horiz-adv-x="653" 
d="M326 -8c-170 0 -305 136 -305 306c0 169 135 306 305 306c169 0 306 -137 306 -306c0 -170 -136 -306 -306 -306zM326 124c98 0 170 78 170 174s-73 174 -170 174c-96 0 -169 -78 -169 -174s72 -174 169 -174zM159 715c0 43 28 72 72 72c45 0 72 -29 72 -72
c0 -42 -27 -71 -72 -71s-72 29 -72 71zM350 715c0 43 28 72 72 72s72 -29 72 -72c0 -42 -28 -71 -72 -71c-46 0 -72 29 -72 71z" />
    <glyph glyph-name="oe" unicode="&#x153;" horiz-adv-x="1121" 
d="M323 -12c-169 0 -303 135 -303 304c0 170 134 305 303 305c102 0 186 -46 238 -119c52 72 134 119 237 119c174 0 302 -128 302 -301v-47h-476c16 -85 84 -142 181 -142c76 0 137 44 167 106l113 -49c-50 -106 -152 -176 -281 -176c-110 0 -194 45 -245 117
c-53 -72 -136 -117 -236 -117zM323 115c96 0 171 80 171 177c0 99 -75 178 -171 178c-98 0 -171 -79 -171 -178c0 -97 73 -177 171 -177zM800 478c-81 0 -142 -47 -168 -116h331c-22 75 -83 116 -163 116z" />
    <glyph glyph-name="oe.smcp" unicode="&#xe298;" horiz-adv-x="885" 
d="M500 0v53c-46 -38 -105 -61 -174 -61c-170 0 -305 136 -305 306c0 169 135 306 305 306c69 0 128 -23 174 -62v54h354v-125h-221v-109h221v-126h-221v-111h221v-125h-354zM326 124c98 0 170 78 170 174s-73 174 -170 174c-96 0 -169 -78 -169 -174s72 -174 169 -174z" />
    <glyph glyph-name="oe.smcp" unicode="&#xf6fa;" horiz-adv-x="885" 
d="M500 0v53c-46 -38 -105 -61 -174 -61c-170 0 -305 136 -305 306c0 169 135 306 305 306c69 0 128 -23 174 -62v54h354v-125h-221v-109h221v-126h-221v-111h221v-125h-354zM326 124c98 0 170 78 170 174s-73 174 -170 174c-96 0 -169 -78 -169 -174s72 -174 169 -174z" />
    <glyph glyph-name="ograve" unicode="&#xf2;" 
d="M323 -12c-169 0 -303 135 -303 304c0 127 76 235 185 281l-129 147h127l84 -125c12 1 24 2 36 2c168 0 303 -135 303 -305c0 -169 -135 -304 -303 -304zM323 115c95 0 170 80 170 177c0 98 -75 178 -170 178c-97 0 -170 -80 -170 -178c0 -97 73 -177 170 -177z" />
    <glyph glyph-name="ograve.smcp" unicode="&#xe282;" horiz-adv-x="653" 
d="M326 -8c-170 0 -305 136 -305 306c0 169 135 306 305 306c169 0 306 -137 306 -306c0 -170 -136 -306 -306 -306zM326 124c98 0 170 78 170 174s-73 174 -170 174c-96 0 -169 -78 -169 -174s72 -174 169 -174zM294 646l-150 170h127l114 -170h-91z" />
    <glyph glyph-name="ograve.smcp" unicode="&#xf7f2;" horiz-adv-x="653" 
d="M326 -8c-170 0 -305 136 -305 306c0 169 135 306 305 306c169 0 306 -137 306 -306c0 -170 -136 -306 -306 -306zM326 124c98 0 170 78 170 174s-73 174 -170 174c-96 0 -169 -78 -169 -174s72 -174 169 -174zM294 646l-150 170h127l114 -170h-91z" />
    <glyph glyph-name="ohm" unicode="&#xe821;" horiz-adv-x="829" 
d="M26 0v130h171c-55 72 -104 171 -104 287c0 179 141 324 321 324c179 0 323 -145 323 -324c-1 -116 -50 -215 -105 -287h171v-130h-290l-54 114c87 107 141 192 142 307c0 107 -80 192 -187 192c-105 0 -185 -85 -185 -192c0 -115 54 -200 142 -307l-45 -114h-300z" />
    <glyph glyph-name="ohungarumlaut" unicode="&#x151;" 
d="M189 638l114 170h120l-150 -170h-84zM355 638l114 170h120l-150 -170h-84zM323 -12c-169 0 -303 135 -303 304c0 170 134 305 303 305c168 0 303 -135 303 -305c0 -169 -135 -304 -303 -304zM323 115c95 0 170 80 170 177c0 98 -75 178 -170 178
c-97 0 -170 -80 -170 -178c0 -97 73 -177 170 -177z" />
    <glyph glyph-name="ohungarumlaut.smcp" unicode="&#xe28a;" horiz-adv-x="653" 
d="M326 -8c-170 0 -305 136 -305 306c0 169 135 306 305 306c169 0 306 -137 306 -306c0 -170 -136 -306 -306 -306zM326 124c98 0 170 78 170 174s-73 174 -170 174c-96 0 -169 -78 -169 -174s72 -174 169 -174zM195 643l114 170h120l-150 -170h-84zM361 643l114 170h120
l-150 -170h-84z" />
    <glyph glyph-name="ohungarumlaut.smcp" unicode="&#xf656;" horiz-adv-x="653" 
d="M326 -8c-170 0 -305 136 -305 306c0 169 135 306 305 306c169 0 306 -137 306 -306c0 -170 -136 -306 -306 -306zM326 124c98 0 170 78 170 174s-73 174 -170 174c-96 0 -169 -78 -169 -174s72 -174 169 -174zM195 643l114 170h120l-150 -170h-84zM361 643l114 170h120
l-150 -170h-84z" />
    <glyph glyph-name="omacron" unicode="&#x14d;" 
d="M193 645v86h264v-86h-264zM323 -12c-169 0 -303 135 -303 304c0 170 134 305 303 305c168 0 303 -135 303 -305c0 -169 -135 -304 -303 -304zM323 115c95 0 170 80 170 177c0 98 -75 178 -170 178c-97 0 -170 -80 -170 -178c0 -97 73 -177 170 -177z" />
    <glyph glyph-name="omacron.smcp" unicode="&#xe287;" horiz-adv-x="653" 
d="M326 -8c-170 0 -305 136 -305 306c0 169 135 306 305 306c169 0 306 -137 306 -306c0 -170 -136 -306 -306 -306zM326 124c98 0 170 78 170 174s-73 174 -170 174c-96 0 -169 -78 -169 -174s72 -174 169 -174zM194 646v86h264v-86h-264z" />
    <glyph glyph-name="omacron.smcp" unicode="&#xf657;" horiz-adv-x="653" 
d="M326 -8c-170 0 -305 136 -305 306c0 169 135 306 305 306c169 0 306 -137 306 -306c0 -170 -136 -306 -306 -306zM326 124c98 0 170 78 170 174s-73 174 -170 174c-96 0 -169 -78 -169 -174s72 -174 169 -174zM194 646v86h264v-86h-264z" />
    <glyph glyph-name="one" unicode="1" horiz-adv-x="331" 
d="M260 0h-136v603h-89v127h225v-730z" />
    <glyph glyph-name="one.LP" unicode="&#xe536;" horiz-adv-x="476" 
d="M35 0v130h144v396c-23 -33 -73 -59 -118 -59h-11v143h5c96 0 129 68 129 120h131v-600h135v-130h-415z" />
    <glyph glyph-name="one.LT" unicode="&#xe541;" horiz-adv-x="588" 
d="M45 0v130h183v396c-23 -33 -73 -59 -118 -59h-11v143h5c96 0 129 68 129 120h131v-600h179v-130h-498z" />
    <glyph glyph-name="one.inf" unicode="&#xe572;" horiz-adv-x="298" 
d="M14 0v104h81v166c-14 -18 -37 -26 -63 -26h-6v107h3c56 0 70 41 70 71h109v-318h78v-104h-272z" />
    <glyph glyph-name="onehalf" unicode="&#xbd;" horiz-adv-x="870" 
d="M85 0l527 730h156l-527 -730h-156zM553 0v83c0 84 61 124 115 152c40 23 75 39 75 64c0 17 -14 32 -41 32c-31 0 -51 -28 -62 -54l-97 50c30 62 84 101 161 101c92 0 154 -54 154 -128c0 -80 -65 -119 -118 -146c-34 -18 -63 -33 -66 -50h181v-104h-302zM14 308v104h81
v166c-14 -18 -37 -26 -63 -26h-6v107h3c56 0 70 41 70 71h109v-318h78v-104h-272z" />
    <glyph glyph-name="uni2082" unicode="&#x2082;" horiz-adv-x="330" 
d="M14 0v83c0 84 61 124 115 152c40 23 75 39 75 64c0 17 -14 32 -41 32c-31 0 -51 -28 -62 -54l-97 50c30 62 84 101 161 101c92 0 154 -54 154 -128c0 -80 -65 -119 -118 -146c-34 -18 -63 -33 -66 -50h181v-104h-302z" />
    <glyph glyph-name="onequarter" unicode="&#xbc;" horiz-adv-x="854" 
d="M85 0l527 730h156l-527 -730h-156zM674 0v84h-169v99l168 239h105v-243h62v-95h-62v-84h-104zM14 308v104h81v166c-14 -18 -37 -26 -63 -26h-6v107h3c56 0 70 41 70 71h109v-318h78v-104h-272zM621 179h53v77z" />
    <glyph glyph-name="uni2084" unicode="&#x2084;" horiz-adv-x="363" 
d="M183 0v84h-169v99l168 239h105v-243h62v-95h-62v-84h-104zM130 179h53v77z" />
    <glyph glyph-name="onesixteenth" unicode="&#xf215;" horiz-adv-x="1126" 
d="M85 0l527 730h157l-527 -730h-157zM950 -6c-97 0 -165 68 -165 156c0 42 20 88 42 123l94 149h128l-76 -119c80 -2 143 -61 143 -153c1 -89 -68 -156 -166 -156zM14 308v104h81v166c-14 -18 -37 -26 -63 -26h-6v107h3c56 0 70 41 70 71h109v-318h78v-104h-272zM507 0v104
h82v167c-13 -18 -37 -27 -64 -27h-6v107h3c56 0 70 41 70 71h109v-318h78v-104h-272zM950 98c30 0 55 24 55 54c0 29 -25 53 -55 53c-29 0 -52 -24 -52 -54c0 -29 23 -53 52 -53z" />
    <glyph glyph-name="onesuperior" unicode="&#xb9;" horiz-adv-x="298" 
d="M14 308v104h81v166c-14 -18 -37 -26 -63 -26h-6v107h3c56 0 70 41 70 71h109v-318h78v-104h-272z" />
    <glyph glyph-name="onethirdemdash" unicode="&#xe471;" horiz-adv-x="392" 
d="M36 197v115h320v-115h-320z" />
    <glyph glyph-name="onethirdemdash.cap" unicode="&#xe483;" horiz-adv-x="392" 
d="M36 302v114h320v-114h-320z" />
    <glyph glyph-name="ordfeminine" unicode="&#xaa;" horiz-adv-x="364" 
d="M151 435c-55 0 -131 44 -131 150c0 108 78 151 133 151c34 0 60 -14 77 -32v26h98v-290h-98v31c-18 -21 -46 -36 -79 -36zM176 525c34 0 57 28 57 61s-23 60 -57 60s-60 -24 -60 -60c0 -35 26 -61 60 -61z" />
    <glyph glyph-name="ordfeminine.alt" unicode="&#xe926;" horiz-adv-x="362" 
d="M127 434c-73 0 -106 37 -106 87c0 68 69 86 128 97c42 7 77 11 77 28c0 11 -14 16 -43 16c-32 0 -54 -8 -54 -31v-2h-101c0 65 59 107 155 107c107 0 143 -43 143 -104v-192h-98v27c-24 -19 -58 -33 -101 -33zM149 510c41 0 84 34 85 54v10c-13 -10 -39 -18 -62 -25
c-26 -8 -47 -15 -47 -26c0 -9 9 -13 24 -13z" />
    <glyph glyph-name="ordfeminine.smcp" unicode="&#xe351;" horiz-adv-x="341" 
d="M14 440l100 290h113l100 -290h-99l-12 35h-91l-11 -35h-100zM190 554l-19 58l-19 -58h38z" />
    <glyph glyph-name="ordmasculine" unicode="&#xba;" horiz-adv-x="339" 
d="M170 435c-83 0 -150 67 -150 150c0 84 67 151 150 151s149 -67 149 -151c0 -83 -66 -150 -149 -150zM170 528c31 0 55 26 55 57c0 32 -24 58 -55 58c-32 0 -55 -26 -55 -58c0 -31 23 -57 55 -57z" />
    <glyph glyph-name="ordmasculine.smcp" unicode="&#xe352;" horiz-adv-x="339" 
d="M170 435c-83 0 -150 67 -150 150c0 84 67 151 150 151s149 -67 149 -151c0 -83 -66 -150 -149 -150zM170 528c31 0 55 26 55 57c0 32 -24 58 -55 58c-32 0 -55 -26 -55 -58c0 -31 23 -57 55 -57z" />
    <glyph glyph-name="oslash" unicode="&#xf8;" 
d="M323 -12c-53 0 -102 13 -145 36l-19 -24h-139l73 92c-46 53 -73 123 -73 200c0 170 134 305 303 305c52 0 100 -13 143 -36l19 24h139l-73 -92c47 -53 75 -124 75 -201c0 -169 -135 -304 -303 -304zM323 115c96 0 171 80 171 177c0 35 -10 68 -27 96l-207 -261
c19 -8 40 -12 63 -12zM152 292c0 -35 9 -67 25 -94l207 260c-19 8 -39 12 -61 12c-98 0 -171 -79 -171 -178z" />
    <glyph glyph-name="oslash.smcp" unicode="&#xe295;" horiz-adv-x="653" 
d="M326 -8c-53 0 -103 13 -146 36l-23 -28h-150l84 102c-44 53 -70 121 -70 196c0 169 135 306 305 306c54 0 104 -14 148 -39l25 31h150l-86 -105c43 -53 69 -120 69 -193c0 -170 -136 -306 -306 -306zM156 298c0 -33 8 -63 23 -89l208 252c-19 7 -39 11 -61 11
c-96 0 -170 -78 -170 -174zM326 124c98 0 170 78 170 174c0 31 -8 61 -22 86l-207 -250c18 -7 38 -10 59 -10z" />
    <glyph glyph-name="oslash.smcp" unicode="&#xf7f8;" horiz-adv-x="653" 
d="M326 -8c-53 0 -103 13 -146 36l-23 -28h-150l84 102c-44 53 -70 121 -70 196c0 169 135 306 305 306c54 0 104 -14 148 -39l25 31h150l-86 -105c43 -53 69 -120 69 -193c0 -170 -136 -306 -306 -306zM156 298c0 -33 8 -63 23 -89l208 252c-19 7 -39 11 -61 11
c-96 0 -170 -78 -170 -174zM326 124c98 0 170 78 170 174c0 31 -8 61 -22 86l-207 -250c18 -7 38 -10 59 -10z" />
    <glyph glyph-name="oslashacute" unicode="&#x1ff;" 
d="M323 -12c-53 0 -102 13 -145 36l-19 -24h-139l73 92c-46 53 -73 123 -73 200c0 170 134 305 303 305c52 0 100 -13 143 -36l19 24h139l-73 -92c47 -53 75 -124 75 -201c0 -169 -135 -304 -303 -304zM323 115c96 0 171 80 171 177c0 35 -10 68 -27 96l-207 -261
c19 -8 40 -12 63 -12zM152 292c0 -35 9 -67 25 -94l207 260c-19 8 -39 12 -61 12c-98 0 -171 -79 -171 -178zM278 640l115 170h126l-150 -170h-91z" />
    <glyph glyph-name="oslashacute.smcp" unicode="&#xe296;" horiz-adv-x="653" 
d="M326 -8c-53 0 -103 13 -146 36l-23 -28h-150l84 102c-44 53 -70 121 -70 196c0 169 135 306 305 306c54 0 104 -14 148 -39l25 31h150l-86 -105c43 -53 69 -120 69 -193c0 -170 -136 -306 -306 -306zM156 298c0 -33 8 -63 23 -89l208 252c-19 7 -39 11 -61 11
c-96 0 -170 -78 -170 -174zM326 124c98 0 170 78 170 174c0 31 -8 61 -22 86l-207 -250c18 -7 38 -10 59 -10zM271 646l115 170h126l-150 -170h-91z" />
    <glyph glyph-name="oslashacute.smcp" unicode="&#xf627;" horiz-adv-x="653" 
d="M326 -8c-53 0 -103 13 -146 36l-23 -28h-150l84 102c-44 53 -70 121 -70 196c0 169 135 306 305 306c54 0 104 -14 148 -39l25 31h150l-86 -105c43 -53 69 -120 69 -193c0 -170 -136 -306 -306 -306zM156 298c0 -33 8 -63 23 -89l208 252c-19 7 -39 11 -61 11
c-96 0 -170 -78 -170 -174zM326 124c98 0 170 78 170 174c0 31 -8 61 -22 86l-207 -250c18 -7 38 -10 59 -10zM271 646l115 170h126l-150 -170h-91z" />
    <glyph glyph-name="otilde" unicode="&#xf5;" 
d="M323 -12c-169 0 -303 135 -303 304c0 170 134 305 303 305c168 0 303 -135 303 -305c0 -169 -135 -304 -303 -304zM323 115c95 0 170 80 170 177c0 98 -75 178 -170 178c-97 0 -170 -80 -170 -178c0 -97 73 -177 170 -177zM165 643c0 81 39 135 104 135
c33 0 56 -12 77 -24c19 -13 35 -25 52 -25c18 0 28 15 28 45h78c0 -82 -35 -135 -105 -135c-39 0 -65 18 -87 31c-15 9 -28 17 -43 17c-18 0 -26 -13 -26 -44h-78z" />
    <glyph glyph-name="otilde.smcp" unicode="&#xe285;" horiz-adv-x="653" 
d="M326 -8c-170 0 -305 136 -305 306c0 169 135 306 305 306c169 0 306 -137 306 -306c0 -170 -136 -306 -306 -306zM326 124c98 0 170 78 170 174s-73 174 -170 174c-96 0 -169 -78 -169 -174s72 -174 169 -174zM167 646c0 81 39 135 104 135c33 0 56 -12 77 -24
c19 -13 35 -25 52 -25c18 0 28 15 28 45h78c0 -82 -35 -135 -105 -135c-39 0 -65 18 -87 31c-15 9 -28 17 -43 17c-18 0 -26 -13 -26 -44h-78z" />
    <glyph glyph-name="otilde.smcp" unicode="&#xf7f5;" horiz-adv-x="653" 
d="M326 -8c-170 0 -305 136 -305 306c0 169 135 306 305 306c169 0 306 -137 306 -306c0 -170 -136 -306 -306 -306zM326 124c98 0 170 78 170 174s-73 174 -170 174c-96 0 -169 -78 -169 -174s72 -174 169 -174zM167 646c0 81 39 135 104 135c33 0 56 -12 77 -24
c19 -13 35 -25 52 -25c18 0 28 15 28 45h78c0 -82 -35 -135 -105 -135c-39 0 -65 18 -87 31c-15 9 -28 17 -43 17c-18 0 -26 -13 -26 -44h-78z" />
    <glyph glyph-name="oumlaut.smcp" unicode="&#xf180;" horiz-adv-x="653" 
d="M598 488c-22 34 -51 62 -87 84v24h110v-108h-23zM32 488v108h110v-24c-35 -22 -65 -50 -87 -84h-23zM326 -8c-170 0 -305 136 -305 306c0 169 135 306 305 306c169 0 306 -137 306 -306c0 -170 -136 -306 -306 -306zM326 124c98 0 170 78 170 174s-73 174 -170 174
c-96 0 -169 -78 -169 -174s72 -174 169 -174z" />
    <glyph glyph-name="p" unicode="p" horiz-adv-x="668" 
d="M364 -12c-80 0 -150 29 -191 81v-338h-134v854h134v-78c41 54 111 90 190 90c147 0 288 -111 288 -305c0 -191 -145 -304 -287 -304zM342 112c99 0 176 80 176 182c0 101 -77 180 -176 180c-101 0 -174 -81 -174 -180c0 -101 73 -182 174 -182z" />
    <glyph glyph-name="p.smcp" unicode="&#xe200;" horiz-adv-x="486" 
d="M37 0v596h202c137 0 226 -98 226 -216c0 -119 -89 -220 -227 -220h-67v-160h-134zM234 473h-63v-189h63c55 0 96 40 96 95s-41 94 -96 94z" />
    <glyph glyph-name="p.smcp" unicode="&#xf770;" horiz-adv-x="486" 
d="M37 0v596h202c137 0 226 -98 226 -216c0 -119 -89 -220 -227 -220h-67v-160h-134zM234 473h-63v-189h63c55 0 96 40 96 95s-41 94 -96 94z" />
    <glyph glyph-name="paragraph" unicode="&#xb6;" horiz-adv-x="658" 
d="M329 0v302h-91c-124 0 -217 94 -217 214c0 119 93 214 216 214h385v-730h-117v604h-60v-604h-116z" />
    <glyph glyph-name="parenleft" unicode="(" horiz-adv-x="388" 
d="M300 -254c-165 112 -278 276 -278 504c0 229 106 377 267 494l91 -98c-125 -84 -216 -210 -216 -396c0 -175 79 -304 221 -392z" />
    <glyph glyph-name="parenleft.cap" unicode="&#xe491;" horiz-adv-x="388" 
d="M300 -148c-165 111 -278 275 -278 503c0 229 106 377 267 495l91 -98c-125 -84 -216 -211 -216 -396c0 -176 79 -304 221 -393z" />
    <glyph glyph-name="parenleft.inf" unicode="&#xe57e;" horiz-adv-x="266" 
d="M173 -92c-98 74 -151 173 -151 301s55 226 150 300l68 -91c-71 -53 -105 -124 -105 -209s34 -155 105 -210z" />
    <glyph glyph-name="parenleft.smcp" unicode="&#xe499;" horiz-adv-x="321" 
d="M250 -127c-141 96 -228 234 -228 422c0 189 84 314 219 411l81 -107c-95 -63 -162 -167 -162 -304c0 -130 56 -235 165 -301z" />
    <glyph glyph-name="parenleft.smcp" unicode="&#xf618;" horiz-adv-x="321" 
d="M250 -127c-141 96 -228 234 -228 422c0 189 84 314 219 411l81 -107c-95 -63 -162 -167 -162 -304c0 -130 56 -235 165 -301z" />
    <glyph glyph-name="parenright" unicode=")" horiz-adv-x="388" 
d="M224 248c0 186 -91 312 -216 396l91 98c162 -117 268 -265 268 -494c0 -228 -114 -392 -279 -504l-84 112c142 88 220 217 220 392z" />
    <glyph glyph-name="parenright.cap" unicode="&#xe492;" horiz-adv-x="388" 
d="M88 -148l-84 111c142 89 220 217 220 392c0 186 -91 313 -216 397l91 98c162 -118 268 -266 268 -495c0 -228 -114 -392 -279 -503z" />
    <glyph glyph-name="parenright.inf" unicode="&#xe57f;" horiz-adv-x="266" 
d="M94 -92l-68 91c71 55 105 125 105 210s-34 156 -105 209l68 91c96 -74 150 -172 150 -300s-53 -227 -150 -301z" />
    <glyph glyph-name="parenright.smcp" unicode="&#xe49a;" horiz-adv-x="321" 
d="M70 -127l-74 121c109 66 164 171 164 301c0 137 -67 241 -161 304l80 107c136 -97 220 -222 220 -411c0 -188 -87 -326 -229 -422z" />
    <glyph glyph-name="parenright.smcp" unicode="&#xf619;" horiz-adv-x="321" 
d="M70 -127l-74 121c109 66 164 171 164 301c0 137 -67 241 -161 304l80 107c136 -97 220 -222 220 -411c0 -188 -87 -326 -229 -422z" />
    <glyph glyph-name="partialdiff" unicode="&#x2202;" horiz-adv-x="563" 
d="M279 -10c-138 0 -257 110 -257 259c0 145 106 248 243 248c36 0 65 -8 88 -21c-55 76 -147 154 -291 254h200c212 -165 277 -325 277 -474c0 -150 -114 -266 -260 -266zM280 117c70 0 129 61 129 132c0 73 -56 133 -128 133c-68 0 -128 -55 -128 -133
c0 -76 59 -132 127 -132z" />
    <glyph glyph-name="percent" unicode="%" horiz-adv-x="825" 
d="M136 562c0 -36 30 -66 65 -66s65 30 65 66c0 35 -30 65 -65 65s-65 -30 -65 -65zM446 168c0 98 80 178 179 178c98 0 178 -80 178 -178c0 -99 -80 -179 -178 -179c-99 0 -179 80 -179 179zM13 0l627 730h172l-627 -730h-172zM560 168c0 -36 29 -65 65 -65
c35 0 64 29 64 65c0 35 -29 65 -64 65c-36 0 -65 -30 -65 -65zM22 562c0 98 80 178 179 178s178 -80 178 -178c0 -99 -79 -179 -178 -179s-179 80 -179 179z" />
    <glyph glyph-name="percent.LT" unicode="&#xf469;" horiz-adv-x="569" 
d="M11 0l390 730h157l-390 -730h-157zM144 463c-75 0 -138 62 -138 138c0 77 63 139 138 139c77 0 139 -62 139 -139c0 -76 -62 -138 -139 -138zM144 565c20 0 37 17 37 36c0 20 -17 36 -37 36c-19 0 -35 -16 -35 -36c0 -19 16 -36 35 -36zM426 -10c-76 0 -138 63 -138 138
c0 77 62 139 138 139s139 -62 139 -139c0 -75 -63 -138 -139 -138zM426 93c20 0 36 16 36 35c0 20 -16 37 -36 37c-19 0 -36 -17 -36 -37c0 -19 17 -35 36 -35z" />
    <glyph glyph-name="period" unicode="." horiz-adv-x="207" 
d="M22 69c0 49 32 82 82 82c51 0 81 -33 81 -82c0 -48 -31 -81 -82 -81c-50 0 -81 33 -81 81z" />
    <glyph glyph-name="period.T" unicode="&#xf182;" horiz-adv-x="294" 
d="M79 0v137h134v-137h-134z" />
    <glyph glyph-name="periodcentered" unicode="&#xb7;" horiz-adv-x="207" 
d="M36 186v137h134v-137h-134z" />
    <glyph glyph-name="periodcentered.cap" unicode="&#xe481;" horiz-adv-x="207" 
d="M36 290v137h134v-137h-134z" />
    <glyph glyph-name="perthousand" unicode="&#x2030;" horiz-adv-x="1204" 
d="M13 0l627 730h172l-627 -730h-172zM625 -11c-99 0 -179 80 -179 179c0 98 80 178 179 178c98 0 178 -80 178 -178c0 -99 -80 -179 -178 -179zM625 103c35 0 64 29 64 65c0 35 -29 65 -64 65c-36 0 -65 -30 -65 -65c0 -36 29 -65 65 -65zM201 383c-99 0 -179 80 -179 179
c0 98 80 178 179 178s178 -80 178 -178c0 -99 -79 -179 -178 -179zM201 496c35 0 65 30 65 66c0 35 -30 65 -65 65s-65 -30 -65 -65c0 -36 30 -66 65 -66zM1003 -11c-98 0 -178 80 -178 179c0 98 80 178 178 178c99 0 179 -80 179 -178c0 -99 -80 -179 -179 -179zM1003 103
c35 0 65 29 65 65c0 35 -30 65 -65 65s-65 -30 -65 -65c0 -36 30 -65 65 -65z" />
    <glyph glyph-name="peseta" unicode="&#x20a7;" horiz-adv-x="1396" 
d="M534 380c-35 -100 -129 -171 -249 -171h-113v-209h-136v730h250c141 0 247 -100 261 -230h72v117l134 74v-191h105v-120h-105v-163c0 -79 11 -92 96 -92h242c47 0 72 15 72 40c0 30 -48 36 -105 44c-82 12 -183 31 -183 142c0 93 78 161 198 159c116 0 179 -45 217 -114
l-118 -51c-14 33 -49 55 -94 55c-46 0 -67 -17 -67 -40c0 -28 50 -32 108 -41c81 -13 178 -38 178 -150c0 -82 -50 -171 -212 -169h-256c-158 0 -210 53 -210 216v164h-85zM277 604h-105v-269h105c81 0 135 60 135 135c0 74 -54 134 -135 134z" />
    <glyph glyph-name="pi" unicode="&#x3c0;" horiz-adv-x="779" 
d="M36 600v130h706v-130h-129v-394c0 -58 7 -69 64 -69h65v-137h-103c-137 0 -161 71 -162 201l1 399h-184v-600h-136v600h-122z" />
    <glyph glyph-name="pi" unicode="&#x3d6;" horiz-adv-x="779" 
d="M36 600v130h706v-130h-129v-394c0 -58 7 -69 64 -69h65v-137h-103c-137 0 -161 71 -162 201l1 399h-184v-600h-136v600h-122z" />
    <glyph glyph-name="plus" unicode="+" horiz-adv-x="442" 
d="M36 307v115h129v127h113v-127h128v-115h-128v-128h-113v128h-129z" />
    <glyph glyph-name="plus.inf" unicode="&#xe57b;" horiz-adv-x="247" 
d="M16 165v91h63v61h88v-61h63v-91h-63v-61h-88v61h-63z" />
    <glyph glyph-name="plusminus" unicode="&#xb1;" horiz-adv-x="442" 
d="M36 417v114h129v128h113v-128h128v-114h-128v-128h-113v128h-129zM36 117v114h370v-114h-370z" />
    <glyph glyph-name="product" unicode="&#x220f;" horiz-adv-x="779" 
d="M36 600v130h706v-130h-121v-600h-136v600h-191v-600h-136v600h-122z" />
    <glyph glyph-name="published" unicode="&#x2117;" horiz-adv-x="790" 
d="M395 -16c-207 0 -373 167 -373 375c0 207 166 375 373 375c208 0 374 -168 374 -375c0 -208 -166 -375 -374 -375zM395 88c149 0 268 122 268 271s-119 271 -268 271c-152 0 -265 -122 -265 -271s113 -271 265 -271zM253 165v384h184c81 0 147 -66 147 -148
c0 -81 -62 -148 -146 -148h-72v-88h-113zM418 455h-52v-108h52c31 0 54 26 54 54s-24 54 -54 54z" />
    <glyph glyph-name="q" unicode="q" horiz-adv-x="671" 
d="M308 -12c-141 0 -288 113 -288 304c0 194 142 305 290 305c77 0 146 -34 188 -87v75h135v-854h-136v337c-42 -50 -111 -80 -189 -80zM330 112c100 0 175 81 175 182c0 99 -75 180 -175 180s-177 -79 -177 -180c0 -102 77 -182 177 -182z" />
    <glyph glyph-name="q.smcp" unicode="&#xe211;" horiz-adv-x="666" 
d="M332 -8c-170 0 -304 136 -304 306c0 169 134 306 304 306s306 -137 306 -306c0 -74 -25 -142 -68 -195l80 -103h-146l-224 294h143l60 -78c12 24 20 52 20 82c0 96 -73 174 -171 174c-96 0 -169 -78 -169 -174s73 -174 169 -174c17 0 30 1 42 4l83 -109
c-37 -19 -77 -27 -125 -27z" />
    <glyph glyph-name="q.smcp" unicode="&#xf771;" horiz-adv-x="666" 
d="M332 -8c-170 0 -304 136 -304 306c0 169 134 306 304 306s306 -137 306 -306c0 -74 -25 -142 -68 -195l80 -103h-146l-224 294h143l60 -78c12 24 20 52 20 82c0 96 -73 174 -171 174c-96 0 -169 -78 -169 -174s73 -174 169 -174c17 0 30 1 42 4l83 -109
c-37 -19 -77 -27 -125 -27z" />
    <glyph glyph-name="question" unicode="?" horiz-adv-x="517" 
d="M181 188v11c0 243 166 214 166 334c0 51 -38 89 -96 89c-53 0 -88 -37 -100 -86l-126 43c24 95 101 161 228 161c136 0 231 -83 231 -209c0 -190 -182 -149 -182 -332v-11h-121zM159 69c0 49 32 82 82 82c51 0 81 -33 81 -82c0 -48 -31 -81 -82 -81c-50 0 -81 33 -81 81z
" />
    <glyph glyph-name="questiondown" unicode="&#xbf;" horiz-adv-x="517" 
d="M263 -240c-135 0 -231 83 -231 209c0 190 183 149 183 332v11h120v-11c0 -243 -165 -214 -165 -334c0 -51 37 -89 95 -89c54 0 89 37 101 86l126 -43c-25 -95 -102 -161 -229 -161zM194 431c0 49 32 82 82 82c51 0 81 -33 81 -82c0 -48 -31 -81 -82 -81
c-50 0 -81 33 -81 81z" />
    <glyph glyph-name="questiondown.cap" unicode="&#xe444;" horiz-adv-x="517" 
d="M263 -10c-135 0 -231 84 -231 209c0 190 183 149 183 332v11h120v-11c0 -243 -165 -214 -165 -334c0 -51 37 -89 95 -89c54 0 89 38 101 86l126 -43c-25 -95 -102 -161 -229 -161zM194 662c0 49 32 82 82 82c51 0 81 -33 81 -82c0 -48 -31 -81 -82 -81
c-50 0 -81 33 -81 81z" />
    <glyph glyph-name="quotedbl" unicode="&#x22;" horiz-adv-x="323" 
d="M70 500c-10 24 -34 113 -34 146v84h105v-84c0 -34 -24 -123 -34 -146h-37zM215 500c-10 24 -33 113 -33 146v84h105v-84c0 -34 -25 -123 -35 -146h-37z" />
    <glyph glyph-name="quotedblbase" unicode="&#x201e;" horiz-adv-x="368" 
d="M105 -117h-83l34 204h119zM266 -117h-83l34 204h119z" />
    <glyph glyph-name="quotedblleft" unicode="&#x201c;" horiz-adv-x="368" 
d="M145 730l35 -204h-83l-70 204h118zM306 730l35 -204h-84l-69 204h118z" />
    <glyph glyph-name="quotedblright" unicode="&#x201d;" horiz-adv-x="368" 
d="M111 526h-83l34 204h119zM272 526h-83l34 204h119z" />
    <glyph glyph-name="quoteleft" unicode="&#x2018;" horiz-adv-x="207" 
d="M142 730l34 -204h-83l-70 204h119z" />
    <glyph glyph-name="quoteright" unicode="&#x2019;" horiz-adv-x="207" 
d="M111 526h-83l34 204h119z" />
    <glyph glyph-name="quotesinglbase" unicode="&#x201a;" horiz-adv-x="207" 
d="M105 -117h-83l34 204h119z" />
    <glyph glyph-name="quotesingle" unicode="'" horiz-adv-x="177" 
d="M107 500h-37c-10 24 -34 113 -34 146v84h105v-84c0 -34 -24 -123 -34 -146z" />
    <glyph glyph-name="r" unicode="r" horiz-adv-x="431" 
d="M39 0v585h134v-87c27 58 76 87 150 87c42 0 77 -10 103 -25l-51 -128c-20 13 -43 23 -81 23c-78 0 -120 -42 -120 -143v-312h-135z" />
    <glyph glyph-name="r.smcp" unicode="&#xe212;" horiz-adv-x="489" 
d="M37 0v596h207c142 0 224 -92 224 -203c0 -76 -39 -143 -114 -175l130 -218h-152l-162 289v-289h-133zM234 473h-64v-168h64c66 0 96 44 96 86c0 53 -31 82 -96 82z" />
    <glyph glyph-name="r.smcp" unicode="&#xf772;" horiz-adv-x="489" 
d="M37 0v596h207c142 0 224 -92 224 -203c0 -76 -39 -143 -114 -175l130 -218h-152l-162 289v-289h-133zM234 473h-64v-168h64c66 0 96 44 96 86c0 53 -31 82 -96 82z" />
    <glyph glyph-name="racute" unicode="&#x155;" horiz-adv-x="431" 
d="M39 0v585h134v-87c27 58 76 87 150 87c42 0 77 -10 103 -25l-51 -128c-20 13 -43 23 -81 23c-78 0 -120 -42 -120 -143v-312h-135zM178 635l115 170h126l-150 -170h-91z" />
    <glyph glyph-name="racute.smcp" unicode="&#xe29a;" horiz-adv-x="489" 
d="M37 0v596h207c142 0 224 -92 224 -203c0 -76 -39 -143 -114 -175l130 -218h-152l-162 289v-289h-133zM234 473h-64v-168h64c66 0 96 44 96 86c0 53 -31 82 -96 82zM171 646l115 170h126l-150 -170h-91z" />
    <glyph glyph-name="racute.smcp" unicode="&#xf658;" horiz-adv-x="489" 
d="M37 0v596h207c142 0 224 -92 224 -203c0 -76 -39 -143 -114 -175l130 -218h-152l-162 289v-289h-133zM234 473h-64v-168h64c66 0 96 44 96 86c0 53 -31 82 -96 82zM171 646l115 170h126l-150 -170h-91z" />
    <glyph glyph-name="radical" unicode="&#x221a;" horiz-adv-x="789" 
d="M279 0l-146 381h-88v119h181l126 -338l258 568h145l-343 -730h-133z" />
    <glyph glyph-name="rcaron" unicode="&#x159;" horiz-adv-x="431" 
d="M39 0v585h134v-87c27 58 76 87 150 87c42 0 77 -10 103 -25l-51 -128c-20 13 -43 23 -81 23c-78 0 -120 -42 -120 -143v-312h-135zM179 635l-119 170h102l59 -89l59 89h102l-119 -170h-84z" />
    <glyph glyph-name="rcaron.smcp" unicode="&#xe29b;" horiz-adv-x="489" 
d="M37 0v596h207c142 0 224 -92 224 -203c0 -76 -39 -143 -114 -175l130 -218h-152l-162 289v-289h-133zM196 646l-119 170h102l59 -89l59 89h102l-119 -170h-84zM234 473h-64v-168h64c66 0 96 44 96 86c0 53 -31 82 -96 82z" />
    <glyph glyph-name="rcaron.smcp" unicode="&#xf659;" horiz-adv-x="489" 
d="M37 0v596h207c142 0 224 -92 224 -203c0 -76 -39 -143 -114 -175l130 -218h-152l-162 289v-289h-133zM196 646l-119 170h102l59 -89l59 89h102l-119 -170h-84zM234 473h-64v-168h64c66 0 96 44 96 86c0 53 -31 82 -96 82z" />
    <glyph glyph-name="rcommaaccent" unicode="&#x157;" horiz-adv-x="431" 
d="M39 0v585h134v-87c27 58 76 87 150 87c42 0 77 -10 103 -25l-51 -128c-20 13 -43 23 -81 23c-78 0 -120 -42 -120 -143v-312h-135zM93 -249h-83l34 204h119z" />
    <glyph glyph-name="rcommaaccent.smcp" unicode="&#xe29e;" horiz-adv-x="489" 
d="M37 0v596h207c142 0 224 -92 224 -203c0 -76 -39 -143 -114 -175l130 -218h-152l-162 289v-289h-133zM234 473h-64v-168h64c66 0 96 44 96 86c0 53 -31 82 -96 82zM237 -252h-83l34 204h119z" />
    <glyph glyph-name="rcommaaccent.smcp" unicode="&#xf65a;" horiz-adv-x="489" 
d="M37 0v596h207c142 0 224 -92 224 -203c0 -76 -39 -143 -114 -175l130 -218h-152l-162 289v-289h-133zM234 473h-64v-168h64c66 0 96 44 96 86c0 53 -31 82 -96 82zM237 -252h-83l34 204h119z" />
    <glyph glyph-name="registered" unicode="&#xae;" horiz-adv-x="790" 
d="M395 -125c-207 0 -373 167 -373 375c0 207 166 375 373 375c208 0 374 -168 374 -375c0 -208 -166 -375 -374 -375zM395 -21c149 0 268 122 268 271s-119 271 -268 271c-152 0 -265 -122 -265 -271s113 -271 265 -271zM236 65v374h173c109 0 170 -65 170 -133
c0 -55 -25 -98 -76 -116l74 -125h-125l-97 186h50c32 0 59 15 59 49c0 35 -28 46 -61 46h-54v-281h-113z" />
    <glyph glyph-name="registered.LT" unicode="&#xf470;" horiz-adv-x="569" 
d="M285 -10c-161 0 -249 98 -249 238v268c0 138 102 244 249 244c150 0 248 -109 248 -243v-269c0 -143 -93 -238 -248 -238zM169 127v475h127c73 0 108 -40 108 -105v-81c0 -30 -9 -51 -28 -64c17 -14 25 -35 25 -63v-124c0 -12 4 -24 8 -32c19 25 30 57 30 93v268
c0 93 -56 159 -153 159c-100 0 -155 -69 -155 -157v-268c0 -86 53 -151 153 -151c53 0 94 19 120 50h-89c-8 4 -8 13 -8 25v137c0 12 -7 22 -23 22h-21v-184h-94zM287 517h-24v-122h24c16 0 23 10 23 22v80c0 11 -7 20 -23 20z" />
    <glyph glyph-name="registered.cap" unicode="&#xe99c;" horiz-adv-x="790" 
d="M395 -10c-207 0 -373 167 -373 375c0 207 166 375 373 375c208 0 374 -168 374 -375c0 -208 -166 -375 -374 -375zM395 94c149 0 268 122 268 271s-119 271 -268 271c-152 0 -265 -122 -265 -271s113 -271 265 -271zM236 180v374h173c109 0 170 -65 170 -133
c0 -55 -25 -98 -76 -116l74 -125h-125l-97 186h50c32 0 59 15 59 49c0 35 -28 46 -61 46h-54v-281h-113z" />
    <glyph glyph-name="reversequotedblleft" unicode="&#x201f;" horiz-adv-x="368" 
d="M111 526h-83l34 204h119zM272 526h-83l34 204h119z" />
    <glyph glyph-name="reversequoteleft" unicode="&#x201b;" horiz-adv-x="207" 
d="M111 526h-83l34 204h119z" />
    <glyph glyph-name="s" unicode="s" horiz-adv-x="518" 
d="M259 -12c-128 0 -213 50 -260 142l125 60c28 -54 78 -85 141 -85c66 0 100 33 100 71c0 42 -65 52 -137 67c-101 20 -205 54 -205 176c0 94 90 180 230 179c116 0 194 -47 239 -121l-115 -58c-24 41 -68 67 -124 67c-64 0 -94 -30 -94 -63c0 -39 47 -49 134 -68
c96 -20 206 -53 206 -176c0 -82 -73 -192 -240 -191z" />
    <glyph glyph-name="s.smcp" unicode="&#xe213;" horiz-adv-x="488" 
d="M244 -8c-115 0 -184 49 -236 108l117 92c29 -47 73 -75 119 -75c48 0 77 30 77 63c0 41 -55 54 -115 72c-79 23 -170 56 -170 173c0 103 83 180 204 180c104 0 164 -42 210 -93l-108 -83c-23 37 -59 59 -101 59c-43 0 -69 -24 -69 -55c0 -40 52 -53 113 -72
c80 -24 175 -60 175 -178c0 -99 -79 -191 -216 -191z" />
    <glyph glyph-name="s.smcp" unicode="&#xf773;" horiz-adv-x="488" 
d="M244 -8c-115 0 -184 49 -236 108l117 92c29 -47 73 -75 119 -75c48 0 77 30 77 63c0 41 -55 54 -115 72c-79 23 -170 56 -170 173c0 103 83 180 204 180c104 0 164 -42 210 -93l-108 -83c-23 37 -59 59 -101 59c-43 0 -69 -24 -69 -55c0 -40 52 -53 113 -72
c80 -24 175 -60 175 -178c0 -99 -79 -191 -216 -191z" />
    <glyph glyph-name="sacute" unicode="&#x15b;" horiz-adv-x="518" 
d="M205 641l115 170h126l-150 -170h-91zM259 -12c-128 0 -213 50 -260 142l125 60c28 -54 78 -85 141 -85c66 0 100 33 100 71c0 42 -65 52 -137 67c-101 20 -205 54 -205 176c0 94 90 180 230 179c116 0 194 -47 239 -121l-115 -58c-24 41 -68 67 -124 67
c-64 0 -94 -30 -94 -63c0 -39 47 -49 134 -68c96 -20 206 -53 206 -176c0 -82 -73 -192 -240 -191z" />
    <glyph glyph-name="sacute.smcp" unicode="&#xe302;" horiz-adv-x="488" 
d="M192 646l115 170h126l-150 -170h-91zM244 -8c-115 0 -184 49 -236 108l117 92c29 -47 73 -75 119 -75c48 0 77 30 77 63c0 41 -55 54 -115 72c-79 23 -170 56 -170 173c0 103 83 180 204 180c104 0 164 -42 210 -93l-108 -83c-23 37 -59 59 -101 59
c-43 0 -69 -24 -69 -55c0 -40 52 -53 113 -72c80 -24 175 -60 175 -178c0 -99 -79 -191 -216 -191z" />
    <glyph glyph-name="sacute.smcp" unicode="&#xf65b;" horiz-adv-x="488" 
d="M192 646l115 170h126l-150 -170h-91zM244 -8c-115 0 -184 49 -236 108l117 92c29 -47 73 -75 119 -75c48 0 77 30 77 63c0 41 -55 54 -115 72c-79 23 -170 56 -170 173c0 103 83 180 204 180c104 0 164 -42 210 -93l-108 -83c-23 37 -59 59 -101 59
c-43 0 -69 -24 -69 -55c0 -40 52 -53 113 -72c80 -24 175 -60 175 -178c0 -99 -79 -191 -216 -191z" />
    <glyph glyph-name="scaron" unicode="&#x161;" horiz-adv-x="518" 
d="M259 -12c-128 0 -213 50 -260 142l125 60c28 -54 78 -85 141 -85c66 0 100 33 100 71c0 42 -65 52 -137 67c-101 20 -205 54 -205 176c0 94 90 180 230 179c116 0 194 -47 239 -121l-115 -58c-24 41 -68 67 -124 67c-64 0 -94 -30 -94 -63c0 -39 47 -49 134 -68
c96 -20 206 -53 206 -176c0 -82 -73 -192 -240 -191zM216 641l-119 170h102l59 -89l59 89h102l-119 -170h-84z" />
    <glyph glyph-name="scaron.smcp" unicode="&#xe304;" horiz-adv-x="488" 
d="M244 -8c-115 0 -184 49 -236 108l117 92c29 -47 73 -75 119 -75c48 0 77 30 77 63c0 41 -55 54 -115 72c-79 23 -170 56 -170 173c0 103 83 180 204 180c104 0 164 -42 210 -93l-108 -83c-23 37 -59 59 -101 59c-43 0 -69 -24 -69 -55c0 -40 52 -53 113 -72
c80 -24 175 -60 175 -178c0 -99 -79 -191 -216 -191zM209 646l-119 170h102l59 -89l59 89h102l-119 -170h-84z" />
    <glyph glyph-name="scaron.smcp" unicode="&#xf6fd;" horiz-adv-x="488" 
d="M244 -8c-115 0 -184 49 -236 108l117 92c29 -47 73 -75 119 -75c48 0 77 30 77 63c0 41 -55 54 -115 72c-79 23 -170 56 -170 173c0 103 83 180 204 180c104 0 164 -42 210 -93l-108 -83c-23 37 -59 59 -101 59c-43 0 -69 -24 -69 -55c0 -40 52 -53 113 -72
c80 -24 175 -60 175 -178c0 -99 -79 -191 -216 -191zM209 646l-119 170h102l59 -89l59 89h102l-119 -170h-84z" />
    <glyph glyph-name="scedilla" unicode="&#x15f;" horiz-adv-x="518" 
d="M246 -240c-53 0 -106 25 -144 59l78 47c23 -19 42 -34 76 -34c29 0 55 14 55 31c0 18 -20 27 -58 27h-50v102c-98 12 -164 60 -204 138l125 60c28 -54 78 -85 141 -85c66 0 100 33 100 71c0 42 -65 52 -137 67c-101 20 -205 54 -205 176c0 94 90 180 230 179
c116 0 194 -47 239 -121l-115 -58c-24 41 -68 67 -124 67c-64 0 -94 -30 -94 -63c0 -39 47 -49 134 -68c96 -20 206 -53 206 -176c0 -78 -65 -179 -212 -190v-42c74 3 115 -31 115 -80c0 -62 -69 -107 -156 -107z" />
    <glyph glyph-name="scedilla.smcp" unicode="&#xe306;" horiz-adv-x="488" 
d="M234 -240c-53 0 -106 25 -144 59l78 47c23 -19 42 -34 76 -34c29 0 55 14 55 31c0 18 -20 27 -58 27h-50v106c-84 12 -140 54 -183 104l117 92c29 -47 73 -75 119 -75c48 0 77 30 77 63c0 41 -55 54 -115 72c-79 23 -170 56 -170 173c0 103 83 180 204 180
c104 0 164 -42 210 -93l-108 -83c-23 37 -59 59 -101 59c-43 0 -69 -24 -69 -55c0 -40 52 -53 113 -72c80 -24 175 -60 175 -178c0 -92 -67 -177 -185 -189v-47c74 3 115 -31 115 -80c0 -62 -69 -107 -156 -107z" />
    <glyph glyph-name="scedilla.smcp" unicode="&#xf65c;" horiz-adv-x="488" 
d="M234 -240c-53 0 -106 25 -144 59l78 47c23 -19 42 -34 76 -34c29 0 55 14 55 31c0 18 -20 27 -58 27h-50v106c-84 12 -140 54 -183 104l117 92c29 -47 73 -75 119 -75c48 0 77 30 77 63c0 41 -55 54 -115 72c-79 23 -170 56 -170 173c0 103 83 180 204 180
c104 0 164 -42 210 -93l-108 -83c-23 37 -59 59 -101 59c-43 0 -69 -24 -69 -55c0 -40 52 -53 113 -72c80 -24 175 -60 175 -178c0 -92 -67 -177 -185 -189v-47c74 3 115 -31 115 -80c0 -62 -69 -107 -156 -107z" />
    <glyph glyph-name="scircumflex" unicode="&#x15d;" horiz-adv-x="518" 
d="M259 -12c-128 0 -213 50 -260 142l125 60c28 -54 78 -85 141 -85c66 0 100 33 100 71c0 42 -65 52 -137 67c-101 20 -205 54 -205 176c0 94 90 180 230 179c116 0 194 -47 239 -121l-115 -58c-24 41 -68 67 -124 67c-64 0 -94 -30 -94 -63c0 -39 47 -49 134 -68
c96 -20 206 -53 206 -176c0 -82 -73 -192 -240 -191zM98 635l119 170h84l119 -170h-102l-59 89l-59 -89h-102z" />
    <glyph glyph-name="scircumflex.smcp" unicode="&#xe303;" horiz-adv-x="488" 
d="M244 -8c-115 0 -184 49 -236 108l117 92c29 -47 73 -75 119 -75c48 0 77 30 77 63c0 41 -55 54 -115 72c-79 23 -170 56 -170 173c0 103 83 180 204 180c104 0 164 -42 210 -93l-108 -83c-23 37 -59 59 -101 59c-43 0 -69 -24 -69 -55c0 -40 52 -53 113 -72
c80 -24 175 -60 175 -178c0 -99 -79 -191 -216 -191zM88 646l119 170h84l119 -170h-102l-59 89l-59 -89h-102z" />
    <glyph glyph-name="scircumflex.smcp" unicode="&#xf636;" horiz-adv-x="488" 
d="M244 -8c-115 0 -184 49 -236 108l117 92c29 -47 73 -75 119 -75c48 0 77 30 77 63c0 41 -55 54 -115 72c-79 23 -170 56 -170 173c0 103 83 180 204 180c104 0 164 -42 210 -93l-108 -83c-23 37 -59 59 -101 59c-43 0 -69 -24 -69 -55c0 -40 52 -53 113 -72
c80 -24 175 -60 175 -178c0 -99 -79 -191 -216 -191zM88 646l119 170h84l119 -170h-102l-59 89l-59 -89h-102z" />
    <glyph glyph-name="scommaaccent" unicode="&#x219;" horiz-adv-x="518" 
d="M248 -254h-83l34 204h119zM259 -12c-128 0 -213 50 -260 142l125 60c28 -54 78 -85 141 -85c66 0 100 33 100 71c0 42 -65 52 -137 67c-101 20 -205 54 -205 176c0 94 90 180 230 179c116 0 194 -47 239 -121l-115 -58c-24 41 -68 67 -124 67c-64 0 -94 -30 -94 -63
c0 -39 47 -49 134 -68c96 -20 206 -53 206 -176c0 -82 -73 -192 -240 -191z" />
    <glyph glyph-name="scommaaccent.smcp" unicode="&#xe305;" horiz-adv-x="488" 
d="M234 -249h-83l34 204h119zM244 -8c-115 0 -184 49 -236 108l117 92c29 -47 73 -75 119 -75c48 0 77 30 77 63c0 41 -55 54 -115 72c-79 23 -170 56 -170 173c0 103 83 180 204 180c104 0 164 -42 210 -93l-108 -83c-23 37 -59 59 -101 59c-43 0 -69 -24 -69 -55
c0 -40 52 -53 113 -72c80 -24 175 -60 175 -178c0 -99 -79 -191 -216 -191z" />
    <glyph glyph-name="scommaaccent.smcp" unicode="&#xf65d;" horiz-adv-x="488" 
d="M234 -249h-83l34 204h119zM244 -8c-115 0 -184 49 -236 108l117 92c29 -47 73 -75 119 -75c48 0 77 30 77 63c0 41 -55 54 -115 72c-79 23 -170 56 -170 173c0 103 83 180 204 180c104 0 164 -42 210 -93l-108 -83c-23 37 -59 59 -101 59c-43 0 -69 -24 -69 -55
c0 -40 52 -53 113 -72c80 -24 175 -60 175 -178c0 -99 -79 -191 -216 -191z" />
    <glyph glyph-name="second" unicode="&#x2033;" horiz-adv-x="368" 
d="M111 526h-83l34 204h119zM272 526h-83l34 204h119z" />
    <glyph glyph-name="section" unicode="&#xa7;" horiz-adv-x="575" 
d="M285 -10c-128 0 -221 76 -243 151l135 37c12 -44 58 -76 118 -76c55 0 84 19 84 46c0 38 -61 47 -144 67c-121 28 -215 65 -215 162c0 53 36 97 85 118c-21 25 -32 55 -32 89c0 88 74 158 210 156c121 0 207 -67 227 -138l-128 -36c-7 38 -45 69 -102 69
c-53 0 -80 -18 -80 -45c0 -36 57 -54 139 -74c121 -28 216 -66 216 -160c0 -52 -32 -92 -77 -114c23 -23 35 -52 35 -88c0 -91 -91 -166 -228 -164zM312 317c26 -6 50 -13 71 -20c24 8 37 24 37 41c0 36 -59 52 -158 76c-25 6 -47 13 -67 21c-27 -7 -40 -24 -40 -43
c0 -36 58 -52 157 -75z" />
    <glyph glyph-name="semicolon" unicode=";" horiz-adv-x="207" 
d="M21 -117l35 204h119l-70 -204h-84zM22 430c0 49 32 82 82 82c51 0 81 -33 81 -82c0 -48 -31 -81 -82 -81c-50 0 -81 33 -81 81z" />
    <glyph glyph-name="semicolon.T" unicode="&#xf185;" horiz-adv-x="294" 
d="M80 363v137h134v-137h-134zM66 -117l34 204h119l-70 -204h-83z" />
    <glyph glyph-name="servicemark" unicode="&#x2120;" horiz-adv-x="627" 
d="M272 440v290h91l70 -92l75 92h83v-290h-96v141l-64 -72l-63 72v-141h-96zM136 433c-56 0 -97 22 -123 59l82 52c7 -15 26 -29 41 -29c11 0 20 7 20 15c0 28 -133 8 -133 114c0 52 47 92 115 92c48 0 85 -24 108 -54l-73 -46c-9 14 -21 24 -35 24s-22 -5 -22 -13
c0 -16 133 -14 133 -111c0 -62 -45 -103 -113 -103z" />
    <glyph glyph-name="seven.LP" unicode="&#xe53c;" horiz-adv-x="530" 
d="M98 0l255 600h-318v130h460v-118l-253 -612h-144z" />
    <glyph glyph-name="seven.LT" unicode="&#xe547;" horiz-adv-x="588" 
d="M111 0l289 600h-355v130h498v-118l-288 -612h-144z" />
    <glyph glyph-name="seven.inf" unicode="&#xe578;" horiz-adv-x="307" 
d="M28 0l148 318h-162v104h279v-98l-144 -324h-121z" />
    <glyph glyph-name="sevensixteenths" unicode="&#xf218;" horiz-adv-x="1098" 
d="M57 0l527 730h156l-527 -730h-156zM922 -6c-97 0 -165 68 -165 156c0 42 20 88 41 123l94 149h129l-76 -119c80 -2 142 -61 142 -153c1 -89 -68 -156 -165 -156zM479 0v104h81v166c-14 -18 -37 -26 -63 -26h-6v107h3c56 0 70 41 70 71h109v-318h78v-104h-272zM28 308
l148 318h-162v104h279v-98l-144 -324h-121zM922 98c30 0 55 24 55 54c0 29 -25 53 -55 53s-52 -24 -52 -54c0 -29 22 -53 52 -53z" />
    <glyph glyph-name="uni2087" unicode="&#x2087;" horiz-adv-x="307" 
d="M28 0l148 318h-162v104h279v-98l-144 -324h-121z" />
    <glyph glyph-name="six.LP" unicode="&#xe53b;" horiz-adv-x="562" 
d="M282 -10c-152 0 -261 109 -261 248c0 68 22 138 56 189l189 303h160l-160 -248c14 4 28 6 43 6c127 0 231 -103 231 -249s-111 -249 -258 -249zM279 113c69 0 127 58 127 129c0 70 -58 127 -127 127s-125 -57 -125 -128c0 -70 56 -128 125 -128z" />
    <glyph glyph-name="six.LT" unicode="&#xe546;" horiz-adv-x="588" 
d="M295 -10c-153 0 -264 112 -264 253c0 68 22 132 56 183l188 304h161l-155 -240c14 4 27 6 41 6c130 0 235 -104 235 -253c0 -148 -113 -253 -262 -253zM292 113c71 0 131 60 131 133c0 72 -60 132 -131 132s-128 -60 -128 -133c0 -72 57 -132 128 -132z" />
    <glyph glyph-name="six.inf" unicode="&#xe577;" horiz-adv-x="352" 
d="M176 -6c-97 0 -165 68 -165 156c0 42 20 88 41 123l94 149h129l-76 -119c80 -2 142 -61 142 -153c1 -89 -68 -156 -165 -156zM176 98c30 0 55 24 55 54c0 29 -25 53 -55 53s-52 -24 -52 -54c0 -29 22 -53 52 -53z" />
    <glyph glyph-name="slash" unicode="/" horiz-adv-x="511" 
d="M11 0l346 730h144l-346 -730h-144z" />
    <glyph glyph-name="slash.cap" unicode="&#xe461;" horiz-adv-x="511" 
d="M11 0l346 730h144l-346 -730h-144z" />
    <glyph glyph-name="slash.smcp" unicode="&#xe467;" horiz-adv-x="454" 
d="M17 0l283 596h138l-283 -596h-138z" />
    <glyph glyph-name="space" unicode=" " horiz-adv-x="245" 
 />
    <glyph glyph-name="spade" unicode="&#x2660;" horiz-adv-x="920" 
d="M594 0h-259c27 51 94 169 94 290c-25 -70 -79 -136 -170 -136c-93 0 -171 72 -171 158c0 115 70 191 235 323l140 112h1l140 -112c165 -132 228 -208 228 -323c0 -86 -71 -157 -157 -157c-98 0 -156 65 -181 135c0 -121 73 -239 100 -290z" />
    <glyph glyph-name="squaremultiply" unicode="&#x22a0;" horiz-adv-x="926" 
d="M100 0v730h726v-730h-726zM236 600v-470h454v470h-454zM340 162l-80 78l123 127l-124 129l80 78l122 -126l124 127l80 -78l-126 -130l125 -128l-80 -78l-123 126z" />
    <glyph glyph-name="sterling" unicode="&#xa3;" horiz-adv-x="588" 
d="M54 329v107h56c-11 29 -18 61 -18 96c0 125 87 208 222 208c122 0 195 -57 223 -146l-129 -47c-13 47 -41 75 -92 75c-57 0 -86 -37 -86 -88c0 -34 11 -66 26 -98h193v-107h-142c20 -46 36 -96 36 -158c0 -18 -3 -36 -8 -53c14 -12 26 -20 37 -20c26 0 31 13 31 58v81
h139v-77c0 -119 -31 -170 -136 -170c-46 0 -83 21 -115 47c-27 -29 -63 -48 -106 -48c-104 0 -152 44 -152 114c0 66 46 118 126 118c32 0 60 -10 84 -24c-8 42 -41 84 -74 132h-115zM177 81c16 0 30 6 41 18c-17 13 -33 22 -50 22c-13 0 -21 -9 -21 -19
c0 -12 11 -21 30 -21z" />
    <glyph glyph-name="sterling.LP" unicode="&#xe524;" horiz-adv-x="705" 
d="M67 309v108h101c-11 33 -18 71 -18 113c0 126 95 210 231 210c121 0 203 -56 231 -144l-129 -47c-13 46 -48 73 -100 73c-59 0 -96 -38 -96 -90c0 -40 12 -78 27 -115h166v-108h-121c11 -29 18 -58 18 -87c0 -30 -4 -60 -12 -87c33 -21 63 -37 93 -37c53 0 72 24 72 82
v48h139v-65c0 -103 -47 -173 -177 -173c-54 0 -111 32 -165 66c-32 -41 -79 -67 -142 -67c-108 0 -156 45 -156 117c0 69 47 122 129 122c38 0 72 -12 105 -28c-4 34 -24 69 -45 109h-151zM184 72c22 0 43 14 59 37c-27 16 -52 27 -71 27c-22 0 -34 -15 -34 -30
c0 -19 16 -34 46 -34z" />
    <glyph glyph-name="sterling.LT" unicode="&#xf471;" horiz-adv-x="588" 
d="M54 329v107h56c-11 29 -18 61 -18 96c0 125 87 208 222 208c122 0 195 -57 223 -146l-129 -47c-13 47 -41 75 -92 75c-57 0 -86 -37 -86 -88c0 -34 11 -66 26 -98h193v-107h-142c20 -46 36 -96 36 -158c0 -18 -3 -35 -8 -53c14 -11 26 -18 37 -18c26 0 31 11 31 56v81
h139v-77c0 -119 -31 -170 -136 -170c-44 0 -82 21 -115 47c-27 -29 -63 -48 -106 -48c-104 0 -152 44 -152 114c0 66 46 118 126 118c32 0 59 -11 84 -26c-7 43 -41 85 -74 134h-115zM170 85c16 0 31 6 44 16c-19 14 -36 24 -53 24c-13 0 -21 -9 -21 -19
c0 -12 11 -21 30 -21z" />
    <glyph glyph-name="summation" unicode="&#x2211;" horiz-adv-x="563" 
d="M35 0v146l220 228l-213 226v130h486v-130h-312l213 -226l-234 -244h333v-130h-493z" />
    <glyph glyph-name="t" unicode="t" horiz-adv-x="399" 
d="M18 464v121h100v89l136 93v-182h119v-121h-119v-219c0 -102 14 -118 119 -118v-127h-19c-181 0 -236 58 -236 244v220h-100z" />
    <glyph glyph-name="t.smcp" unicode="&#xe214;" horiz-adv-x="494" 
d="M183 0v471h-152v125h432v-125h-150v-471h-130z" />
    <glyph glyph-name="t.smcp" unicode="&#xf774;" horiz-adv-x="494" 
d="M183 0v471h-152v125h432v-125h-150v-471h-130z" />
    <glyph glyph-name="tbar" unicode="&#x167;" horiz-adv-x="399" 
d="M18 464v121h100v89l136 93v-182h119v-121h-119v-103h119v-111h-119v-5c0 -102 14 -118 119 -118v-127h-19c-181 0 -236 58 -236 244v6h-100v111h100v103h-100z" />
    <glyph glyph-name="tbar.smcp" unicode="&#xe30d;" horiz-adv-x="494" 
d="M412 212h-99v-212h-130v212h-101v125h101v134h-152v125h432v-125h-150v-134h99v-125z" />
    <glyph glyph-name="tbar.smcp" unicode="&#xf637;" horiz-adv-x="494" 
d="M412 212h-99v-212h-130v212h-101v125h101v134h-152v125h432v-125h-150v-134h99v-125z" />
    <glyph glyph-name="tcaron" unicode="&#x165;" horiz-adv-x="399" 
d="M18 464v121h100v89l136 93v-182h119v-121h-119v-219c0 -102 14 -118 119 -118v-127h-19c-181 0 -236 58 -236 244v220h-100zM297 634l25 171h109l-51 -171h-83z" />
    <glyph glyph-name="tcaron.smcp" unicode="&#xe309;" horiz-adv-x="494" 
d="M185 0v471h-152v125h432v-125h-150v-471h-130zM207 646l-119 170h102l59 -89l59 89h102l-119 -170h-84z" />
    <glyph glyph-name="tcaron.smcp" unicode="&#xf65e;" horiz-adv-x="494" 
d="M185 0v471h-152v125h432v-125h-150v-471h-130zM207 646l-119 170h102l59 -89l59 89h102l-119 -170h-84z" />
    <glyph glyph-name="tcommaaccent" unicode="&#x163;" horiz-adv-x="399" 
d="M18 464v121h100v89l136 93v-182h119v-121h-119v-219c0 -102 14 -118 119 -118v-127h-19c-181 0 -236 58 -236 244v220h-100zM228 -243h-83l34 204h119z" />
    <glyph glyph-name="tcommaaccent.smcp" unicode="&#xe30a;" horiz-adv-x="494" 
d="M239 -264h-83l34 204h119zM185 0v471h-152v125h432v-125h-150v-471h-130z" />
    <glyph glyph-name="tcommaaccent.smcp" unicode="&#xf65f;" horiz-adv-x="494" 
d="M239 -264h-83l34 204h119zM185 0v471h-152v125h432v-125h-150v-471h-130z" />
    <glyph glyph-name="thirteensixteenths" unicode="&#xf221;" horiz-adv-x="1425" 
d="M384 0l527 730h157l-527 -730h-157zM1249 -6c-97 0 -165 68 -165 156c0 42 20 88 41 123l94 149h129l-76 -119c80 -2 142 -61 142 -153c1 -89 -67 -156 -165 -156zM450 302c-57 0 -116 16 -153 53l85 77c18 -19 39 -28 61 -28c26 0 45 13 45 36s-25 33 -59 33h-44v98h43
c32 0 51 14 51 36c0 19 -16 31 -43 31c-21 0 -41 -11 -52 -28l-80 69c33 36 88 57 136 57c93 0 157 -48 157 -125c0 -33 -15 -62 -42 -83c33 -20 52 -51 52 -91c0 -76 -61 -135 -157 -135zM14 308v104h81v166c-14 -18 -37 -26 -63 -26h-6v107h3c56 0 70 41 70 71h109v-318
h78v-104h-272zM806 0v104h81v166c-14 -18 -37 -26 -63 -26h-6v107h3c56 0 70 41 70 71h109v-318h78v-104h-272zM1249 98c30 0 55 24 55 54c0 29 -25 53 -55 53s-52 -24 -52 -54c0 -29 22 -53 52 -53z" />
    <glyph glyph-name="thorn" unicode="&#xfe;" horiz-adv-x="670" 
d="M365 -12c-83 0 -151 38 -192 92v-349h-134v1123h134v-348c41 53 109 91 192 91c147 0 285 -110 285 -302c0 -194 -143 -307 -285 -307zM343 112c102 0 176 82 176 183c0 99 -73 179 -176 179c-100 0 -174 -81 -174 -180s75 -182 174 -182z" />
    <glyph glyph-name="thorn.smcp" unicode="&#xe32d;" horiz-adv-x="466" 
d="M37 0v596h134v-97h68c127 0 205 -90 205 -198c0 -109 -75 -199 -206 -199h-67v-102h-134zM238 375h-67v-149h67c43 0 76 31 76 74c0 45 -33 75 -76 75z" />
    <glyph glyph-name="thorn.smcp" unicode="&#xf7fe;" horiz-adv-x="466" 
d="M37 0v596h134v-97h68c127 0 205 -90 205 -198c0 -109 -75 -199 -206 -199h-67v-102h-134zM238 375h-67v-149h67c43 0 76 31 76 74c0 45 -33 75 -76 75z" />
    <glyph glyph-name="three.LP" unicode="&#xe538;" horiz-adv-x="502" 
d="M237 -10c-93 0 -172 29 -234 102l118 88c31 -46 70 -66 115 -66c62 0 108 36 108 97s-51 101 -125 101h-75v125h75c79 0 116 45 116 97c0 53 -41 88 -103 88c-57 0 -88 -27 -111 -70l-116 60c43 80 129 128 225 128c142 0 237 -79 237 -205c0 -66 -31 -120 -83 -157
c59 -35 96 -91 96 -167c0 -126 -86 -221 -243 -221z" />
    <glyph glyph-name="three.LT" unicode="&#xe543;" horiz-adv-x="588" 
d="M298 -10c-126 0 -206 41 -275 134l118 85c39 -67 91 -95 158 -95c70 0 122 39 122 102c0 56 -36 94 -112 94h-95v125h93c78 0 109 47 109 99c0 44 -40 88 -115 88c-79 0 -117 -29 -148 -90l-118 59c52 100 143 149 265 149c144 0 248 -82 248 -200
c0 -72 -32 -129 -86 -165c59 -31 95 -85 95 -162c0 -125 -96 -223 -259 -223z" />
    <glyph glyph-name="three.inf" unicode="&#xe574;" horiz-adv-x="325" 
d="M158 -6c-57 0 -116 16 -153 53l85 77c18 -19 39 -28 61 -28c26 0 45 13 45 36s-25 33 -59 33h-44v98h42c33 0 52 14 52 36c0 19 -16 31 -43 31c-21 0 -41 -11 -52 -28l-80 69c33 36 88 57 136 57c93 0 157 -48 157 -125c0 -33 -15 -62 -42 -83c33 -20 52 -51 52 -91
c0 -76 -61 -135 -157 -135z" />
    <glyph glyph-name="threequarteremdash" unicode="&#xe472;" horiz-adv-x="573" 
d="M36 197v115h501v-115h-501z" />
    <glyph glyph-name="threequarteremdash.cap" unicode="&#xe485;" horiz-adv-x="573" 
d="M36 302v114h501v-114h-501z" />
    <glyph glyph-name="threequarters" unicode="&#xbe;" horiz-adv-x="860" 
d="M92 0l527 730h156l-527 -730h-156zM680 0v84h-169v99l168 239h105v-243h62v-95h-62v-84h-104zM158 302c-57 0 -116 16 -153 53l85 77c18 -19 39 -28 61 -28c26 0 45 13 45 36s-25 33 -59 33h-44v98h42c33 0 52 14 52 36c0 19 -16 31 -43 31c-21 0 -41 -11 -52 -28l-80 69
c33 36 88 57 136 57c93 0 157 -48 157 -125c0 -33 -15 -62 -42 -83c33 -20 52 -51 52 -91c0 -76 -61 -135 -157 -135zM627 179h53v77z" />
    <glyph glyph-name="uni2083" unicode="&#x2083;" horiz-adv-x="325" 
d="M158 -6c-57 0 -116 16 -153 53l85 77c18 -19 39 -28 61 -28c26 0 45 13 45 36s-25 33 -59 33h-44v98h42c33 0 52 14 52 36c0 19 -16 31 -43 31c-21 0 -41 -11 -52 -28l-80 69c33 36 88 57 136 57c93 0 157 -48 157 -125c0 -33 -15 -62 -42 -83c33 -20 52 -51 52 -91
c0 -76 -61 -135 -157 -135z" />
    <glyph glyph-name="threesixteenths" unicode="&#xf216;" horiz-adv-x="1133" 
d="M92 0l527 730h156l-527 -730h-156zM957 -6c-97 0 -165 68 -165 156c0 42 20 88 41 123l94 149h129l-76 -119c80 -2 142 -61 142 -153c1 -89 -68 -156 -165 -156zM158 302c-57 0 -116 16 -153 53l85 77c18 -19 39 -28 61 -28c26 0 45 13 45 36s-25 33 -59 33h-44v98h42
c33 0 52 14 52 36c0 19 -16 31 -43 31c-21 0 -41 -11 -52 -28l-80 69c33 36 88 57 136 57c93 0 157 -48 157 -125c0 -33 -15 -62 -42 -83c33 -20 52 -51 52 -91c0 -76 -61 -135 -157 -135zM514 0v104h81v166c-14 -18 -37 -26 -63 -26h-6v107h3c56 0 70 41 70 71h109v-318h78
v-104h-272zM957 98c30 0 55 24 55 54c0 29 -25 53 -55 53s-52 -24 -52 -54c0 -29 22 -53 52 -53z" />
    <glyph glyph-name="threesuperior" unicode="&#xb3;" horiz-adv-x="325" 
d="M158 302c-57 0 -116 16 -153 53l85 77c18 -19 39 -28 61 -28c26 0 45 13 45 36s-25 33 -59 33h-44v98h42c33 0 52 14 52 36c0 19 -16 31 -43 31c-21 0 -41 -11 -52 -28l-80 69c33 36 88 57 136 57c93 0 157 -48 157 -125c0 -33 -15 -62 -42 -83c33 -20 52 -51 52 -91
c0 -76 -61 -135 -157 -135z" />
    <glyph glyph-name="trademark" unicode="&#x2122;" horiz-adv-x="650" 
d="M295 440v290h91l70 -91l75 91h83v-290h-96v141l-64 -72l-63 72v-141h-96zM99 440v201h-73v89h239v-89h-71v-201h-95z" />
    <glyph glyph-name="triagdn" unicode="&#x25bc;" horiz-adv-x="897" 
d="M20 730h857l-428 -742z" />
    <glyph glyph-name="triaglf" unicode="&#x25c4;" horiz-adv-x="897" 
d="M797 800v-857l-742 429z" />
    <glyph glyph-name="triagrt" unicode="&#x25ba;" horiz-adv-x="897" 
d="M100 -57v857l742 -428z" />
    <glyph glyph-name="triagup" unicode="&#x25b2;" horiz-adv-x="897" 
d="M877 0h-857l429 742z" />
    <glyph glyph-name="tripleprime" unicode="&#x2034;" horiz-adv-x="468" 
d="M70 500c-10 24 -34 113 -34 146v84h105v-84c0 -34 -24 -123 -34 -146h-37zM215 500c-10 24 -33 113 -33 146v84h105v-84c0 -34 -25 -123 -35 -146h-37zM361 500c-10 24 -34 113 -34 146v84h105v-84c0 -34 -24 -123 -34 -146h-37z" />
    <glyph glyph-name="two.LP" unicode="&#xe537;" horiz-adv-x="536" 
d="M36 0v128c0 125 101 200 192 261c72 50 138 91 138 147c0 48 -35 87 -100 87c-63 0 -103 -43 -128 -104l-117 59c45 99 128 162 246 162c148 0 237 -90 237 -205c0 -116 -95 -180 -182 -239c-76 -51 -149 -97 -150 -166h329v-130h-465z" />
    <glyph glyph-name="two.LT" unicode="&#xe542;" horiz-adv-x="588" 
d="M46 0v128c0 125 111 200 210 261c79 50 152 91 152 147c0 48 -40 87 -114 87c-71 0 -118 -43 -146 -104l-118 59c48 99 137 162 263 162c159 0 253 -90 253 -205c0 -116 -104 -180 -200 -239c-84 -51 -163 -97 -164 -166h361v-130h-497z" />
    <glyph glyph-name="two.inf" unicode="&#xe573;" horiz-adv-x="330" 
d="M14 0v83c0 84 61 124 115 152c40 23 75 39 75 64c0 17 -14 32 -41 32c-31 0 -51 -28 -62 -54l-97 50c30 62 84 101 161 101c92 0 154 -54 154 -128c0 -80 -65 -119 -118 -146c-34 -18 -63 -33 -66 -50h181v-104h-302z" />
    <glyph glyph-name="twosuperior" unicode="&#xb2;" horiz-adv-x="330" 
d="M14 308v83c0 84 61 124 115 152c40 23 75 39 75 64c0 17 -14 32 -41 32c-31 0 -51 -28 -62 -54l-97 50c30 62 84 101 161 101c92 0 154 -54 154 -128c0 -80 -65 -119 -118 -146c-34 -18 -63 -33 -66 -50h181v-104h-302z" />
    <glyph glyph-name="u.smcp" unicode="&#xe215;" horiz-adv-x="519" 
d="M260 -8c-135 0 -223 80 -223 223v381h134v-385c0 -58 35 -97 88 -97s90 39 90 97v385h134v-381c0 -143 -89 -223 -223 -223z" />
    <glyph glyph-name="u.smcp" unicode="&#xf775;" horiz-adv-x="519" 
d="M260 -8c-135 0 -223 80 -223 223v381h134v-385c0 -58 35 -97 88 -97s90 39 90 97v385h134v-381c0 -143 -89 -223 -223 -223z" />
    <glyph glyph-name="uacute.smcp" unicode="&#xe30e;" horiz-adv-x="519" 
d="M199 646l115 170h126l-150 -170h-91zM260 -8c-135 0 -223 80 -223 223v381h134v-385c0 -58 35 -97 88 -97s90 39 90 97v385h134v-381c0 -143 -89 -223 -223 -223z" />
    <glyph glyph-name="uacute.smcp" unicode="&#xf7fa;" horiz-adv-x="519" 
d="M199 646l115 170h126l-150 -170h-91zM260 -8c-135 0 -223 80 -223 223v381h134v-385c0 -58 35 -97 88 -97s90 39 90 97v385h134v-381c0 -143 -89 -223 -223 -223z" />
    <glyph glyph-name="ubreve.smcp" unicode="&#xe316;" horiz-adv-x="519" 
d="M260 -8c-135 0 -223 80 -223 223v381h134v-385c0 -58 35 -97 88 -97s90 39 90 97v385h134v-381c0 -143 -89 -223 -223 -223zM262 636c-110 0 -161 73 -161 170h85c0 -64 27 -94 76 -96c48 2 76 32 76 96h86c0 -97 -62 -170 -162 -170z" />
    <glyph glyph-name="ubreve.smcp" unicode="&#xf638;" horiz-adv-x="519" 
d="M260 -8c-135 0 -223 80 -223 223v381h134v-385c0 -58 35 -97 88 -97s90 39 90 97v385h134v-381c0 -143 -89 -223 -223 -223zM262 636c-110 0 -161 73 -161 170h85c0 -64 27 -94 76 -96c48 2 76 32 76 96h86c0 -97 -62 -170 -162 -170z" />
    <glyph glyph-name="ucircumflex.smcp" unicode="&#xe300;" horiz-adv-x="519" 
d="M260 -8c-135 0 -223 80 -223 223v381h134v-385c0 -58 35 -97 88 -97s90 39 90 97v385h134v-381c0 -143 -89 -223 -223 -223zM100 646l119 170h84l119 -170h-102l-59 89l-59 -89h-102z" />
    <glyph glyph-name="ucircumflex.smcp" unicode="&#xf7fb;" horiz-adv-x="519" 
d="M260 -8c-135 0 -223 80 -223 223v381h134v-385c0 -58 35 -97 88 -97s90 39 90 97v385h134v-381c0 -143 -89 -223 -223 -223zM100 646l119 170h84l119 -170h-102l-59 89l-59 -89h-102z" />
    <glyph glyph-name="udieresis.smcp" unicode="&#xe311;" horiz-adv-x="519" 
d="M94 715c0 43 28 72 72 72c45 0 72 -29 72 -72c0 -42 -27 -71 -72 -71s-72 29 -72 71zM285 715c0 43 28 72 72 72s72 -29 72 -72c0 -42 -28 -71 -72 -71c-46 0 -72 29 -72 71zM260 -8c-135 0 -223 80 -223 223v381h134v-385c0 -58 35 -97 88 -97s90 39 90 97v385h134v-381
c0 -143 -89 -223 -223 -223z" />
    <glyph glyph-name="udieresis.smcp" unicode="&#xf7fc;" horiz-adv-x="519" 
d="M94 715c0 43 28 72 72 72c45 0 72 -29 72 -72c0 -42 -27 -71 -72 -71s-72 29 -72 71zM285 715c0 43 28 72 72 72s72 -29 72 -72c0 -42 -28 -71 -72 -71c-46 0 -72 29 -72 71zM260 -8c-135 0 -223 80 -223 223v381h134v-385c0 -58 35 -97 88 -97s90 39 90 97v385h134v-381
c0 -143 -89 -223 -223 -223z" />
    <glyph glyph-name="ugrave.smcp" unicode="&#xe30f;" horiz-adv-x="519" 
d="M260 -8c-135 0 -223 80 -223 223v381h134v-385c0 -58 35 -97 88 -97s90 39 90 97v385h134v-381c0 -143 -89 -223 -223 -223zM216 643l-150 170h127l114 -170h-91z" />
    </font>
</defs>
</svg>
