<?xml version="1.0" encoding="UTF-8"?>
<svg xmlns="http://www.w3.org/2000/svg" xmlns:xlink="http://www.w3.org/1999/xlink" version="1.2" >
<font id="SamsungOneItalicLatinComp-600">
<font-face  font-family="SamsungOneItalicLatinComp" units-per-em="1024" ascent="794" descent="-230" font-style="normal" font-weight="600" font-stretch="normal" slope="-11" cap-height="724" x-height="539" underline-position="-120" underline-thickness="35" />
<missing-glyph  horiz-adv-x="663" d="M578 0 L493 0 L132 0 L85 0 L85 724 L170 724 L578 724 L578 0 Z M493 645 L206 645 L493 151 L493 645 Z M170 79 L457 79 L170 573 L170 79 Z " />
<glyph glyph-name="nonmarkingreturn" unicode="&#xd;" horiz-adv-x="70" d="" />
<glyph glyph-name="space" unicode="&#x20;" horiz-adv-x="171" d="" />
<glyph glyph-name="A" unicode="A" horiz-adv-x="646" d="M446 181 L171 181 L80 0 L-27 0 L357 724 L467 724 L568 0 L466 0 L446 181 Z M436 268 L396 628 L215 268 L436 268 Z " />
<glyph glyph-name="Aacute" unicode="&#xc1;" horiz-adv-x="646" d="M640 926 L639 914 L437 781 L349 781 L350 793 L519 926 L640 926 Z M467 724 L568 0 L466 0 L446 181 L171 181 L80 0 L-27 0 L357 724 L467 724 Z M436 268 L396 628 L215 268 L436 268 Z " />
<glyph glyph-name="Abreve" unicode="&#x102;" horiz-adv-x="646" d="M431 784 Q372 784 340 816 Q308 848 308 905 Q308 922 311 940 L370 936 Q368 897 384 878 Q400 859 435 859 Q473 859 500.5 880 Q528 901 541 940 L598 936 Q581 862 538 823 Q495 784 431 784 Z M467 724 L568 0 L466 0 L446 181 L171 181 L80 0 L-27 0 L357 724 L467 724 Z M436 268 L396 628 L215 268 L436 268 Z " />
<glyph glyph-name="uni1EAE" unicode="&#x1eae;" horiz-adv-x="646" d="M596 1033 L595 1023 L472 896 L406 896 L407 906 L506 1033 L596 1033 Z M429 832 Q470 832 498 850.5 Q526 869 538 904 L590 900 Q573 837 531.5 803 Q490 769 428 769 Q369 769 336 798 Q303 827 303 880 Q303 888 305 904 L359 900 Q356 832 429 832 Z M467 724 L568 0 L466 0 L446 181 L171 181 L80 0 L-27 0 L357 724 L467 724 Z M436 268 L396 628 L215 268 L436 268 Z " />
<glyph glyph-name="uni1EB6" unicode="&#x1eb6;" horiz-adv-x="646" d="M431 784 Q372 784 340 816 Q308 848 308 905 Q308 922 311 940 L370 936 Q368 897 384 878 Q400 859 435 859 Q473 859 500.5 880 Q528 901 541 940 L598 936 Q581 862 538 823 Q495 784 431 784 Z M467 724 L568 0 L466 0 L446 181 L171 181 L80 0 L-27 0 L357 724 L467 724 Z M436 268 L396 628 L215 268 L436 268 Z M251 -85 Q278 -85 292.5 -100 Q307 -115 307 -142 Q307 -173 289 -192.5 Q271 -212 239 -212 Q212 -212 197 -197.5 Q182 -183 182 -156 Q182 -125 200.5 -105 Q219 -85 251 -85 Z " />
<glyph glyph-name="uni1EB0" unicode="&#x1eb0;" horiz-adv-x="646" d="M421 897 L354 1024 L355 1034 L438 1034 L481 907 L480 897 L421 897 Z M428 769 Q369 769 336 798 Q303 827 303 880 Q303 888 305 904 L359 900 Q356 832 429 832 Q470 832 498 850.5 Q526 869 538 904 L590 900 Q573 837 531.5 803 Q490 769 428 769 Z M467 724 L568 0 L466 0 L446 181 L171 181 L80 0 L-27 0 L357 724 L467 724 Z M436 268 L396 628 L215 268 L436 268 Z " />
<glyph glyph-name="uni1EB2" unicode="&#x1eb2;" horiz-adv-x="646" d="M459 994 Q435 994 403 977 L386 1023 Q405 1034 428 1040 Q451 1046 473 1046 Q509 1046 528.5 1029.5 Q548 1013 548 984 Q548 959 535.5 946.5 Q523 934 501 924 Q486 916 479.5 910.5 Q473 905 473 896 L473 889 L412 893 L412 904 Q412 927 422 937.5 Q432 948 451 956 Q464 962 470 967 Q476 972 476 981 Q476 994 459 994 Z M428 769 Q369 769 336 798 Q303 827 303 880 Q303 888 305 904 L359 900 Q356 832 429 832 Q470 832 498 850.5 Q526 869 538 904 L590 900 Q573 837 531.5 803 Q490 769 428 769 Z M467 724 L568 0 L466 0 L446 181 L171 181 L80 0 L-27 0 L357 724 L467 724 Z M436 268 L396 628 L215 268 L436 268 Z " />
<glyph glyph-name="uni1EB4" unicode="&#x1eb4;" horiz-adv-x="646" d="M408 983 Q388 983 373 968.5 Q358 954 351 928 L303 935 Q313 990 341 1018 Q369 1046 412 1046 Q438 1046 452 1038 Q466 1030 482 1014 Q491 1003 499 997.5 Q507 992 519 992 Q538 992 553 1006.5 Q568 1021 575 1047 L623 1040 Q613 986 585 957.5 Q557 929 514 929 Q488 929 473.5 937.5 Q459 946 444 962 Q434 973 426.5 978 Q419 983 408 983 Z M429 832 Q470 832 498 850.5 Q526 869 538 904 L590 900 Q573 837 531.5 803 Q490 769 428 769 Q369 769 336 798 Q303 827 303 880 Q303 888 305 904 L359 900 Q356 832 429 832 Z M467 724 L568 0 L466 0 L446 181 L171 181 L80 0 L-27 0 L357 724 L467 724 Z M436 268 L396 628 L215 268 L436 268 Z " />
<glyph glyph-name="uni01CD" unicode="&#x1cd;" horiz-adv-x="646" d="M615 926 L614 914 L475 781 L375 781 L288 914 L289 926 L362 926 L434 838 L540 926 L615 926 Z M467 724 L568 0 L466 0 L446 181 L171 181 L80 0 L-27 0 L357 724 L467 724 Z M436 268 L396 628 L215 268 L436 268 Z " />
<glyph glyph-name="Acircumflex" unicode="&#xc2;" horiz-adv-x="646" d="M587 793 L586 781 L513 781 L441 869 L335 781 L260 781 L261 793 L400 926 L500 926 L587 793 Z M467 724 L568 0 L466 0 L446 181 L171 181 L80 0 L-27 0 L357 724 L467 724 Z M436 268 L396 628 L215 268 L436 268 Z " />
<glyph glyph-name="uni1EA4" unicode="&#x1ea4;" horiz-adv-x="646" d="M743 1025 L742 1015 L619 888 L553 888 L554 898 L653 1025 L743 1025 Z M499 934 L572 795 L571 785 L505 785 L443 876 L345 785 L276 785 L277 795 L404 934 L499 934 Z M467 724 L568 0 L466 0 L446 181 L171 181 L80 0 L-27 0 L357 724 L467 724 Z M436 268 L396 628 L215 268 L436 268 Z " />
<glyph glyph-name="uni1EAC" unicode="&#x1eac;" horiz-adv-x="646" d="M587 793 L586 781 L513 781 L441 869 L335 781 L260 781 L261 793 L400 926 L500 926 L587 793 Z M467 724 L568 0 L466 0 L446 181 L171 181 L80 0 L-27 0 L357 724 L467 724 Z M436 268 L396 628 L215 268 L436 268 Z M251 -85 Q278 -85 292.5 -100 Q307 -115 307 -142 Q307 -173 289 -192.5 Q271 -212 239 -212 Q212 -212 197 -197.5 Q182 -183 182 -156 Q182 -125 200.5 -105 Q219 -85 251 -85 Z " />
<glyph glyph-name="uni1EA6" unicode="&#x1ea6;" horiz-adv-x="646" d="M270 889 L203 1016 L204 1026 L287 1026 L330 899 L329 889 L270 889 Z M572 795 L571 785 L505 785 L443 876 L345 785 L276 785 L277 795 L404 934 L499 934 L572 795 Z M467 724 L568 0 L466 0 L446 181 L171 181 L80 0 L-27 0 L357 724 L467 724 Z M436 268 L396 628 L215 268 L436 268 Z " />
<glyph glyph-name="uni1EA8" unicode="&#x1ea8;" horiz-adv-x="646" d="M620 1038 Q656 1038 675.5 1021.5 Q695 1005 695 976 Q695 951 682.5 938.5 Q670 926 648 916 Q633 908 626.5 902.5 Q620 897 620 888 L620 881 L559 885 L559 896 Q559 919 569 929.5 Q579 940 598 948 Q611 954 617 959 Q623 964 623 973 Q623 986 606 986 Q582 986 550 969 L533 1015 Q552 1026 575 1032 Q598 1038 620 1038 Z M499 934 L572 795 L571 785 L505 785 L443 876 L345 785 L276 785 L277 795 L404 934 L499 934 Z M467 724 L568 0 L466 0 L446 181 L171 181 L80 0 L-27 0 L357 724 L467 724 Z M436 268 L396 628 L215 268 L436 268 Z " />
<glyph glyph-name="uni1EAA" unicode="&#x1eaa;" horiz-adv-x="646" d="M623 1039 Q613 985 585 956.5 Q557 928 514 928 Q488 928 473.5 936.5 Q459 945 444 961 Q434 972 426.5 977 Q419 982 408 982 Q388 982 373 967.5 Q358 953 351 927 L303 934 Q313 989 341 1017 Q369 1045 412 1045 Q438 1045 452 1037 Q466 1029 482 1013 Q491 1002 499 996.5 Q507 991 519 991 Q538 991 553 1005.5 Q568 1020 575 1046 L623 1039 Z M341 771 L274 771 L275 781 L401 907 L493 907 L568 781 L568 771 L504 771 L438 853 L341 771 Z M467 724 L568 0 L466 0 L446 181 L171 181 L80 0 L-27 0 L357 724 L467 724 Z M436 268 L396 628 L215 268 L436 268 Z " />
<glyph glyph-name="Adieresis" unicode="&#xc4;" horiz-adv-x="646" d="M340 792 Q315 792 301.5 806 Q288 820 288 845 Q288 874 305 893 Q322 912 352 912 Q376 912 389.5 898 Q403 884 403 859 Q403 829 386 810.5 Q369 792 340 792 Z M538 912 Q562 912 575.5 898 Q589 884 589 859 Q589 829 572 810.5 Q555 792 526 792 Q501 792 487.5 806 Q474 820 474 845 Q474 874 491 893 Q508 912 538 912 Z M467 724 L568 0 L466 0 L446 181 L171 181 L80 0 L-27 0 L357 724 L467 724 Z M436 268 L396 628 L215 268 L436 268 Z " />
<glyph glyph-name="uni1EA0" unicode="&#x1ea0;" horiz-adv-x="646" d="M446 181 L171 181 L80 0 L-27 0 L357 724 L467 724 L568 0 L466 0 L446 181 Z M436 268 L396 628 L215 268 L436 268 Z M238 -212 Q212 -212 197 -197.5 Q182 -183 182 -156 Q182 -125 200.5 -105 Q219 -85 251 -85 Q277 -85 292 -100 Q307 -115 307 -142 Q307 -173 288.5 -192.5 Q270 -212 238 -212 Z " />
<glyph glyph-name="Agrave" unicode="&#xc0;" horiz-adv-x="646" d="M412 781 L271 914 L272 926 L382 926 L490 793 L489 781 L412 781 Z M446 181 L171 181 L80 0 L-27 0 L357 724 L467 724 L568 0 L466 0 L446 181 Z M436 268 L396 628 L215 268 L436 268 Z " />
<glyph glyph-name="uni1EA2" unicode="&#x1ea2;" horiz-adv-x="646" d="M439 887 Q410 887 369 865 L349 919 Q397 947 457 947 Q500 947 522.5 930.5 Q545 914 545 883 Q545 856 530.5 843 Q516 830 490 818 Q472 810 464 803.5 Q456 797 456 786 L456 779 L387 782 L387 793 Q387 820 400 832.5 Q413 845 435 853 Q448 857 454 861.5 Q460 866 460 874 Q460 887 439 887 Z M446 181 L171 181 L80 0 L-27 0 L357 724 L467 724 L568 0 L466 0 L446 181 Z M436 268 L396 628 L215 268 L436 268 Z " />
<glyph glyph-name="Amacron" unicode="&#x100;" horiz-adv-x="646" d="M589 880 L575 810 L284 810 L297 880 L589 880 Z M467 724 L568 0 L466 0 L446 181 L171 181 L80 0 L-27 0 L357 724 L467 724 Z M436 268 L396 628 L215 268 L436 268 Z " />
<glyph glyph-name="Aogonek" unicode="&#x104;" horiz-adv-x="646" d="M577 -195 Q555 -208 527.5 -215 Q500 -222 474 -222 Q427 -222 401 -200.5 Q375 -179 375 -141 Q375 -101 402 -63.5 Q429 -26 479 0 L466 0 L446 181 L171 181 L80 0 L-27 0 L357 724 L467 724 L568 0 L569 0 Q522 -27 491.5 -60.5 Q461 -94 461 -124 Q461 -154 494 -154 Q524 -154 558 -136 L577 -195 Z M436 268 L396 628 L215 268 L436 268 Z " />
<glyph glyph-name="Aring" unicode="&#xc5;" horiz-adv-x="646" d="M419 768 Q371 768 345.5 791 Q320 814 320 858 Q320 914 360.5 952 Q401 990 465 990 Q513 990 539 967 Q565 944 565 901 Q565 844 524.5 806 Q484 768 419 768 Z M455 938 Q420 938 403 916.5 Q386 895 386 865 Q386 820 430 820 Q465 820 482 841.5 Q499 863 499 893 Q499 916 488.5 927 Q478 938 455 938 Z M446 181 L171 181 L80 0 L-27 0 L357 724 L467 724 L568 0 L466 0 L446 181 Z M436 268 L396 628 L215 268 L436 268 Z " />
<glyph glyph-name="Atilde" unicode="&#xc3;" horiz-adv-x="646" d="M617 919 Q603 854 572.5 821 Q542 788 499 788 Q472 788 453.5 798.5 Q435 809 416 828 Q403 840 394 846 Q385 852 374 852 Q356 852 341 834 Q326 816 317 786 L260 794 Q273 859 303.5 892 Q334 925 377 925 Q404 925 422.5 914.5 Q441 904 460 885 Q473 873 482 867 Q491 861 502 861 Q520 861 535.5 878.5 Q551 896 560 927 L617 919 Z M467 724 L568 0 L466 0 L446 181 L171 181 L80 0 L-27 0 L357 724 L467 724 Z M436 268 L396 628 L215 268 L436 268 Z " />
<glyph glyph-name="AE" unicode="&#xc6;" horiz-adv-x="876" d="M593 636 L551 415 L773 415 L756 325 L534 325 L488 88 L805 88 L788 0 L372 0 L406 173 L171 173 L51 0 L-60 0 L446 724 L552 724 L916 724 L898 636 L593 636 Z M423 260 L498 645 L231 260 L423 260 Z " />
<glyph glyph-name="B" unicode="B" horiz-adv-x="607" d="M463 382 Q513 366 540 333 Q567 300 567 252 Q567 178 535 121 Q503 64 444.5 32 Q386 0 307 0 L89 0 L32 0 L173 724 L273 724 L411 724 Q494 724 541 683.5 Q588 643 588 572 Q588 497 556.5 449 Q525 401 463 382 Z M256 636 L212 414 L350 414 Q416 414 451.5 454 Q487 494 487 559 Q487 636 392 636 L256 636 Z M326 88 Q392 88 428.5 133.5 Q465 179 465 248 Q465 328 370 328 L196 328 L149 88 L326 88 Z " />
<glyph glyph-name="C" unicode="C" horiz-adv-x="572" d="M304 -11 Q181 -11 114 55.5 Q47 122 47 244 Q47 370 95.5 483.5 Q144 597 233 666.5 Q322 736 438 736 Q488 736 534.5 722.5 Q581 709 614 684 L569 608 Q500 646 425 646 Q341 646 278.5 589 Q216 532 183 442 Q150 352 150 256 Q150 80 322 80 Q404 80 473 116 L498 37 Q463 14 411 1.5 Q359 -11 304 -11 Z " />
<glyph glyph-name="Cacute" unicode="&#x106;" horiz-adv-x="572" d="M361 793 L530 926 L651 926 L650 914 L448 781 L360 781 L361 793 Z M304 -11 Q181 -11 114 55.5 Q47 122 47 244 Q47 370 95.5 483.5 Q144 597 233 666.5 Q322 736 438 736 Q488 736 534.5 722.5 Q581 709 614 684 L569 608 Q500 646 425 646 Q341 646 278.5 589 Q216 532 183 442 Q150 352 150 256 Q150 80 322 80 Q404 80 473 116 L498 37 Q463 14 411 1.5 Q359 -11 304 -11 Z " />
<glyph glyph-name="Ccaron" unicode="&#x10c;" horiz-adv-x="572" d="M626 926 L625 914 L486 781 L386 781 L299 914 L300 926 L373 926 L445 838 L551 926 L626 926 Z M47 244 Q47 370 95.5 483.5 Q144 597 233 666.5 Q322 736 438 736 Q488 736 534.5 722.5 Q581 709 614 684 L569 608 Q500 646 425 646 Q341 646 278.5 589 Q216 532 183 442 Q150 352 150 256 Q150 80 322 80 Q404 80 473 116 L498 37 Q463 14 411 1.5 Q359 -11 304 -11 Q181 -11 114 55.5 Q47 122 47 244 Z " />
<glyph glyph-name="Ccedilla" unicode="&#xc7;" horiz-adv-x="572" d="M425 646 Q341 646 278.5 589 Q216 532 183 442 Q150 352 150 256 Q150 80 322 80 Q404 80 473 116 L498 37 Q463 14 411.5 1.5 Q360 -11 305 -11 L265 -57 Q271 -56 281 -56 Q324 -56 347.5 -76 Q371 -96 371 -132 Q371 -178 333.5 -205 Q296 -232 239 -232 Q178 -232 136 -207 L156 -160 Q195 -176 230 -176 Q259 -176 276.5 -162.5 Q294 -149 294 -128 Q294 -103 262 -103 Q239 -103 216 -112 L195 -85 L242 -6 Q148 10 97.5 74.5 Q47 139 47 244 Q47 370 95.5 483.5 Q144 597 233 666.5 Q322 736 438 736 Q488 736 534.5 722.5 Q581 709 614 684 L569 608 Q500 646 425 646 Z " />
<glyph glyph-name="Ccircumflex" unicode="&#x108;" horiz-adv-x="572" d="M346 781 L271 781 L272 793 L411 926 L511 926 L598 793 L597 781 L524 781 L452 869 L346 781 Z M425 646 Q341 646 278.5 589 Q216 532 183 442 Q150 352 150 256 Q150 80 322 80 Q404 80 473 116 L498 37 Q463 14 411 1.5 Q359 -11 304 -11 Q181 -11 114 55.5 Q47 122 47 244 Q47 370 95.5 483.5 Q144 597 233 666.5 Q322 736 438 736 Q488 736 534.5 722.5 Q581 709 614 684 L569 608 Q500 646 425 646 Z " />
<glyph glyph-name="Cdotaccent" unicode="&#x10a;" horiz-adv-x="572" d="M443 795 Q416 795 401 809.5 Q386 824 386 851 Q386 882 404.5 902 Q423 922 455 922 Q482 922 496.5 907.5 Q511 893 511 865 Q511 834 493 814.5 Q475 795 443 795 Z M304 -11 Q181 -11 114 55.5 Q47 122 47 244 Q47 370 95.5 483.5 Q144 597 233 666.5 Q322 736 438 736 Q488 736 534.5 722.5 Q581 709 614 684 L569 608 Q500 646 425 646 Q341 646 278.5 589 Q216 532 183 442 Q150 352 150 256 Q150 80 322 80 Q404 80 473 116 L498 37 Q463 14 411 1.5 Q359 -11 304 -11 Z " />
<glyph glyph-name="D" unicode="D" horiz-adv-x="661" d="M376 724 Q502 724 569.5 659.5 Q637 595 637 474 Q637 338 591 231 Q545 124 454.5 62 Q364 0 237 0 L32 0 L173 724 L376 724 Z M251 88 Q341 88 405.5 139 Q470 190 502.5 275 Q535 360 535 460 Q535 636 359 636 L255 636 L149 88 L251 88 Z " />
<glyph glyph-name="Eth" unicode="&#xd0;" horiz-adv-x="662" d="M377 724 Q503 724 570 659.5 Q637 595 637 474 Q637 338 591 230.5 Q545 123 455 61.5 Q365 0 237 0 L33 0 L97 327 L33 327 L49 406 L112 406 L174 724 L377 724 Z M251 88 Q342 88 406 139 Q470 190 502.5 275 Q535 360 535 460 Q535 636 359 636 L256 636 L211 406 L379 406 L364 327 L196 327 L149 88 L251 88 Z " />
<glyph glyph-name="Dcaron" unicode="&#x10e;" horiz-adv-x="661" d="M375 781 L288 914 L289 926 L362 926 L434 838 L540 926 L615 926 L614 914 L475 781 L375 781 Z M376 724 Q502 724 569.5 659.5 Q637 595 637 474 Q637 338 591 231 Q545 124 454.5 62 Q364 0 237 0 L32 0 L173 724 L376 724 Z M251 88 Q341 88 405.5 139 Q470 190 502.5 275 Q535 360 535 460 Q535 636 359 636 L255 636 L149 88 L251 88 Z " />
<glyph glyph-name="Dcroat" unicode="&#x110;" horiz-adv-x="662" d="M377 724 Q503 724 570 659.5 Q637 595 637 474 Q637 338 591 230.5 Q545 123 455 61.5 Q365 0 237 0 L33 0 L97 327 L33 327 L49 406 L112 406 L174 724 L377 724 Z M251 88 Q342 88 406 139 Q470 190 502.5 275 Q535 360 535 460 Q535 636 359 636 L256 636 L211 406 L379 406 L364 327 L196 327 L149 88 L251 88 Z " />
<glyph glyph-name="uni1E0C" unicode="&#x1e0c;" horiz-adv-x="661" d="M376 724 Q502 724 569.5 659.5 Q637 595 637 474 Q637 338 591 231 Q545 124 454.5 62 Q364 0 237 0 L32 0 L173 724 L376 724 Z M251 88 Q341 88 405.5 139 Q470 190 502.5 275 Q535 360 535 460 Q535 636 359 636 L255 636 L149 88 L251 88 Z M233 -212 Q207 -212 192 -197.5 Q177 -183 177 -156 Q177 -125 195.5 -105 Q214 -85 246 -85 Q272 -85 287 -100 Q302 -115 302 -142 Q302 -173 283.5 -192.5 Q265 -212 233 -212 Z " />
<glyph glyph-name="uni1E0E" unicode="&#x1e0e;" horiz-adv-x="661" d="M376 724 Q502 724 569.5 659.5 Q637 595 637 474 Q637 338 591 231 Q545 124 454.5 62 Q364 0 237 0 L32 0 L173 724 L376 724 Z M251 88 Q341 88 405.5 139 Q470 190 502.5 275 Q535 360 535 460 Q535 636 359 636 L255 636 L149 88 L251 88 Z M103 -104 L395 -104 L382 -174 L90 -174 L103 -104 Z " />
<glyph glyph-name="E" unicode="E" horiz-adv-x="551" d="M256 636 L213 415 L449 415 L431 325 L195 325 L149 88 L480 88 L463 0 L32 0 L173 724 L591 724 L574 636 L256 636 Z " />
<glyph glyph-name="Eacute" unicode="&#xc9;" horiz-adv-x="551" d="M614 926 L613 914 L411 781 L323 781 L324 793 L493 926 L614 926 Z M173 724 L591 724 L574 636 L256 636 L213 415 L449 415 L431 325 L195 325 L149 88 L480 88 L463 0 L32 0 L173 724 Z " />
<glyph glyph-name="Ebreve" unicode="&#x114;" horiz-adv-x="551" d="M405 784 Q346 784 314 816 Q282 848 282 905 Q282 922 285 940 L344 936 Q342 897 358 878 Q374 859 409 859 Q447 859 474.5 880 Q502 901 515 940 L572 936 Q555 862 512 823 Q469 784 405 784 Z M256 636 L213 415 L449 415 L431 325 L195 325 L149 88 L480 88 L463 0 L32 0 L173 724 L591 724 L574 636 L256 636 Z " />
<glyph glyph-name="Ecaron" unicode="&#x11a;" horiz-adv-x="551" d="M349 781 L262 914 L263 926 L336 926 L408 838 L514 926 L589 926 L588 914 L449 781 L349 781 Z M256 636 L213 415 L449 415 L431 325 L195 325 L149 88 L480 88 L463 0 L32 0 L173 724 L591 724 L574 636 L256 636 Z " />
<glyph glyph-name="Ecircumflex" unicode="&#xca;" horiz-adv-x="551" d="M309 781 L234 781 L235 793 L374 926 L474 926 L561 793 L560 781 L487 781 L415 869 L309 781 Z M256 636 L213 415 L449 415 L431 325 L195 325 L149 88 L480 88 L463 0 L32 0 L173 724 L591 724 L574 636 L256 636 Z " />
<glyph glyph-name="uni1EBE" unicode="&#x1ebe;" horiz-adv-x="551" d="M716 1025 L715 1015 L592 888 L526 888 L527 898 L626 1025 L716 1025 Z M319 785 L250 785 L251 795 L378 934 L473 934 L546 795 L545 785 L479 785 L417 876 L319 785 Z M173 724 L591 724 L574 636 L256 636 L213 415 L449 415 L431 325 L195 325 L149 88 L480 88 L463 0 L32 0 L173 724 Z " />
<glyph glyph-name="uni1EC6" unicode="&#x1ec6;" horiz-adv-x="551" d="M309 781 L234 781 L235 793 L374 926 L474 926 L561 793 L560 781 L487 781 L415 869 L309 781 Z M256 636 L213 415 L449 415 L431 325 L195 325 L149 88 L480 88 L463 0 L32 0 L173 724 L591 724 L574 636 L256 636 Z M228 -85 Q255 -85 269.5 -100 Q284 -115 284 -142 Q284 -173 265.5 -192.5 Q247 -212 215 -212 Q189 -212 174 -197.5 Q159 -183 159 -156 Q159 -125 177.5 -105 Q196 -85 228 -85 Z " />
<glyph glyph-name="uni1EC0" unicode="&#x1ec0;" horiz-adv-x="551" d="M244 889 L177 1016 L178 1026 L261 1026 L304 899 L303 889 L244 889 Z M251 795 L378 934 L473 934 L546 795 L545 785 L479 785 L417 876 L319 785 L250 785 L251 795 Z M256 636 L213 415 L449 415 L431 325 L195 325 L149 88 L480 88 L463 0 L32 0 L173 724 L591 724 L574 636 L256 636 Z " />
<glyph glyph-name="uni1EC2" unicode="&#x1ec2;" horiz-adv-x="551" d="M593 1038 Q629 1038 648.5 1021.5 Q668 1005 668 976 Q668 951 655.5 938.5 Q643 926 621 916 Q606 908 599.5 902.5 Q593 897 593 888 L593 881 L532 885 L532 896 Q532 919 542 929.5 Q552 940 571 948 Q584 954 590 959 Q596 964 596 973 Q596 986 579 986 Q555 986 523 969 L506 1015 Q525 1026 548 1032 Q571 1038 593 1038 Z M319 785 L250 785 L251 795 L378 934 L473 934 L546 795 L545 785 L479 785 L417 876 L319 785 Z M173 724 L591 724 L574 636 L256 636 L213 415 L449 415 L431 325 L195 325 L149 88 L480 88 L463 0 L32 0 L173 724 Z " />
<glyph glyph-name="uni1EC4" unicode="&#x1ec4;" horiz-adv-x="551" d="M381 982 Q361 982 346 967.5 Q331 953 324 927 L276 934 Q286 989 314 1017 Q342 1045 385 1045 Q411 1045 425 1037 Q439 1029 455 1013 Q464 1002 472 996.5 Q480 991 492 991 Q511 991 526 1005.5 Q541 1020 548 1046 L596 1039 Q586 985 558 956.5 Q530 928 487 928 Q461 928 446.5 936.5 Q432 945 417 961 Q407 972 399.5 977 Q392 982 381 982 Z M315 771 L248 771 L249 781 L375 907 L467 907 L542 781 L542 771 L478 771 L412 853 L315 771 Z M173 724 L591 724 L574 636 L256 636 L213 415 L449 415 L431 325 L195 325 L149 88 L480 88 L463 0 L32 0 L173 724 Z " />
<glyph glyph-name="Edieresis" unicode="&#xcb;" horiz-adv-x="551" d="M313 792 Q288 792 274.5 806 Q261 820 261 845 Q261 874 278 893 Q295 912 325 912 Q349 912 362.5 898 Q376 884 376 859 Q376 829 359 810.5 Q342 792 313 792 Z M499 792 Q474 792 460.5 806 Q447 820 447 845 Q447 874 464 893 Q481 912 511 912 Q535 912 548.5 898 Q562 884 562 859 Q562 829 545 810.5 Q528 792 499 792 Z M256 636 L213 415 L449 415 L431 325 L195 325 L149 88 L480 88 L463 0 L32 0 L173 724 L591 724 L574 636 L256 636 Z " />
<glyph glyph-name="Edotaccent" unicode="&#x116;" horiz-adv-x="551" d="M405 795 Q378 795 363 809.5 Q348 824 348 851 Q348 882 366.5 902 Q385 922 417 922 Q444 922 458.5 907.5 Q473 893 473 865 Q473 834 455 814.5 Q437 795 405 795 Z M256 636 L213 415 L449 415 L431 325 L195 325 L149 88 L480 88 L463 0 L32 0 L173 724 L591 724 L574 636 L256 636 Z " />
<glyph glyph-name="uni1EB8" unicode="&#x1eb8;" horiz-adv-x="551" d="M256 636 L213 415 L449 415 L431 325 L195 325 L149 88 L480 88 L463 0 L32 0 L173 724 L591 724 L574 636 L256 636 Z M215 -212 Q189 -212 174 -197.5 Q159 -183 159 -156 Q159 -125 177.5 -105 Q196 -85 228 -85 Q254 -85 269 -100 Q284 -115 284 -142 Q284 -173 265.5 -192.5 Q247 -212 215 -212 Z " />
<glyph glyph-name="Egrave" unicode="&#xc8;" horiz-adv-x="551" d="M386 781 L245 914 L246 926 L356 926 L464 793 L463 781 L386 781 Z M256 636 L213 415 L449 415 L431 325 L195 325 L149 88 L480 88 L463 0 L32 0 L173 724 L591 724 L574 636 L256 636 Z " />
<glyph glyph-name="uni1EBA" unicode="&#x1eba;" horiz-adv-x="551" d="M413 887 Q384 887 343 865 L323 919 Q371 947 431 947 Q474 947 496.5 930.5 Q519 914 519 883 Q519 856 504.5 843 Q490 830 464 818 Q446 810 438 803.5 Q430 797 430 786 L430 779 L361 782 L361 793 Q361 820 374 832.5 Q387 845 409 853 Q422 857 428 861.5 Q434 866 434 874 Q434 887 413 887 Z M256 636 L213 415 L449 415 L431 325 L195 325 L149 88 L480 88 L463 0 L32 0 L173 724 L591 724 L574 636 L256 636 Z " />
<glyph glyph-name="Emacron" unicode="&#x112;" horiz-adv-x="551" d="M548 810 L257 810 L270 880 L562 880 L548 810 Z M256 636 L213 415 L449 415 L431 325 L195 325 L149 88 L480 88 L463 0 L32 0 L173 724 L591 724 L574 636 L256 636 Z " />
<glyph glyph-name="Eogonek" unicode="&#x118;" horiz-adv-x="551" d="M256 636 L213 415 L449 415 L431 325 L195 325 L149 88 L480 88 L463 0 Q416 -27 385.5 -60.5 Q355 -94 355 -124 Q355 -154 388 -154 Q418 -154 452 -136 L471 -195 Q449 -208 421.5 -215 Q394 -222 368 -222 Q321 -222 295 -200.5 Q269 -179 269 -141 Q269 -101 296 -63.5 Q323 -26 373 0 L32 0 L173 724 L591 724 L574 636 L256 636 Z " />
<glyph glyph-name="uni1EBC" unicode="&#x1ebc;" horiz-adv-x="551" d="M348 852 Q330 852 315 834 Q300 816 291 786 L234 794 Q247 859 277.5 892 Q308 925 351 925 Q378 925 396.5 914.5 Q415 904 434 885 Q447 873 456 867 Q465 861 476 861 Q494 861 509.5 878.5 Q525 896 534 927 L591 919 Q577 854 546.5 821 Q516 788 473 788 Q446 788 427.5 798.5 Q409 809 390 828 Q377 840 368 846 Q359 852 348 852 Z M256 636 L213 415 L449 415 L431 325 L195 325 L149 88 L480 88 L463 0 L32 0 L173 724 L591 724 L574 636 L256 636 Z " />
<glyph glyph-name="F" unicode="F" horiz-adv-x="513" d="M256 636 L210 399 L463 399 L446 310 L193 310 L132 0 L32 0 L173 724 L584 724 L567 636 L256 636 Z " />
<glyph glyph-name="G" unicode="G" horiz-adv-x="640" d="M446 647 Q355 647 290.5 592.5 Q226 538 194 449 Q162 360 162 256 Q162 76 331 76 Q382 76 440 92 L481 305 L360 305 L377 393 L598 393 L530 39 Q488 15 432.5 1.5 Q377 -12 320 -12 Q196 -12 128 57 Q60 126 60 252 Q60 384 107.5 494.5 Q155 605 245.5 670.5 Q336 736 459 736 Q514 736 561.5 722.5 Q609 709 640 685 L599 606 Q525 647 446 647 Z " />
<glyph glyph-name="Gbreve" unicode="&#x11e;" horiz-adv-x="640" d="M451 784 Q392 784 360 816 Q328 848 328 905 Q328 922 331 940 L390 936 Q388 897 404 878 Q420 859 455 859 Q493 859 520.5 880 Q548 901 561 940 L618 936 Q601 862 558 823 Q515 784 451 784 Z M446 647 Q355 647 290.5 592.5 Q226 538 194 449 Q162 360 162 256 Q162 76 331 76 Q382 76 440 92 L481 305 L360 305 L377 393 L598 393 L530 39 Q488 15 432.5 1.5 Q377 -12 320 -12 Q196 -12 128 57 Q60 126 60 252 Q60 384 107.5 494.5 Q155 605 245.5 670.5 Q336 736 459 736 Q514 736 561.5 722.5 Q609 709 640 685 L599 606 Q525 647 446 647 Z " />
<glyph glyph-name="Gcaron" unicode="&#x1e6;" horiz-adv-x="640" d="M395 781 L308 914 L309 926 L382 926 L454 838 L560 926 L635 926 L634 914 L495 781 L395 781 Z M446 647 Q355 647 290.5 592.5 Q226 538 194 449 Q162 360 162 256 Q162 76 331 76 Q382 76 440 92 L481 305 L360 305 L377 393 L598 393 L530 39 Q488 15 432.5 1.5 Q377 -12 320 -12 Q196 -12 128 57 Q60 126 60 252 Q60 384 107.5 494.5 Q155 605 245.5 670.5 Q336 736 459 736 Q514 736 561.5 722.5 Q609 709 640 685 L599 606 Q525 647 446 647 Z " />
<glyph glyph-name="Gcircumflex" unicode="&#x11c;" horiz-adv-x="640" d="M355 781 L280 781 L281 793 L420 926 L520 926 L607 793 L606 781 L533 781 L461 869 L355 781 Z M446 647 Q355 647 290.5 592.5 Q226 538 194 449 Q162 360 162 256 Q162 76 331 76 Q382 76 440 92 L481 305 L360 305 L377 393 L598 393 L530 39 Q488 15 432.5 1.5 Q377 -12 320 -12 Q196 -12 128 57 Q60 126 60 252 Q60 384 107.5 494.5 Q155 605 245.5 670.5 Q336 736 459 736 Q514 736 561.5 722.5 Q609 709 640 685 L599 606 Q525 647 446 647 Z " />
<glyph glyph-name="Gcommaaccent" unicode="&#x122;" horiz-adv-x="640" d="M446 647 Q355 647 290.5 592.5 Q226 538 194 449 Q162 360 162 256 Q162 76 331 76 Q382 76 440 92 L481 305 L360 305 L377 393 L598 393 L530 39 Q488 15 432.5 1.5 Q377 -12 320 -12 Q196 -12 128 57 Q60 126 60 252 Q60 384 107.5 494.5 Q155 605 245.5 670.5 Q336 736 459 736 Q514 736 561.5 722.5 Q609 709 640 685 L599 606 Q525 647 446 647 Z M157 -234 Q188 -207 203 -179.5 Q218 -152 227 -108 Q230 -95 232 -72 L322 -79 Q320 -103 316 -123 Q307 -168 279 -203.5 Q251 -239 192 -279 L157 -234 Z " />
<glyph glyph-name="Gdotaccent" unicode="&#x120;" horiz-adv-x="640" d="M452 795 Q425 795 410 809.5 Q395 824 395 851 Q395 882 413.5 902 Q432 922 464 922 Q491 922 505.5 907.5 Q520 893 520 865 Q520 834 502 814.5 Q484 795 452 795 Z M446 647 Q355 647 290.5 592.5 Q226 538 194 449 Q162 360 162 256 Q162 76 331 76 Q382 76 440 92 L481 305 L360 305 L377 393 L598 393 L530 39 Q488 15 432.5 1.5 Q377 -12 320 -12 Q196 -12 128 57 Q60 126 60 252 Q60 384 107.5 494.5 Q155 605 245.5 670.5 Q336 736 459 736 Q514 736 561.5 722.5 Q609 709 640 685 L599 606 Q525 647 446 647 Z " />
<glyph glyph-name="uni1E20" unicode="&#x1e20;" horiz-adv-x="640" d="M595 810 L304 810 L317 880 L609 880 L595 810 Z M446 647 Q355 647 290.5 592.5 Q226 538 194 449 Q162 360 162 256 Q162 76 331 76 Q382 76 440 92 L481 305 L360 305 L377 393 L598 393 L530 39 Q488 15 432.5 1.5 Q377 -12 320 -12 Q196 -12 128 57 Q60 126 60 252 Q60 384 107.5 494.5 Q155 605 245.5 670.5 Q336 736 459 736 Q514 736 561.5 722.5 Q609 709 640 685 L599 606 Q525 647 446 647 Z " />
<glyph glyph-name="H" unicode="H" horiz-adv-x="673" d="M677 724 L536 0 L436 0 L499 323 L195 323 L132 0 L32 0 L173 724 L273 724 L212 412 L516 412 L577 724 L677 724 Z " />
<glyph glyph-name="Hbar" unicode="&#x126;" horiz-adv-x="673" d="M702 527 L639 527 L536 0 L436 0 L499 323 L195 323 L132 0 L32 0 L135 527 L71 527 L86 604 L150 604 L173 724 L273 724 L250 604 L554 604 L577 724 L677 724 L654 604 L717 604 L702 527 Z M539 527 L235 527 L212 412 L516 412 L539 527 Z " />
<glyph glyph-name="uni1E2A" unicode="&#x1e2a;" horiz-adv-x="673" d="M677 724 L536 0 L436 0 L499 323 L195 323 L132 0 L32 0 L173 724 L273 724 L212 412 L516 412 L577 724 L677 724 Z M247 -223 Q188 -223 156 -191 Q124 -159 124 -102 Q124 -85 127 -67 L186 -71 Q184 -110 200 -129 Q216 -148 251 -148 Q289 -148 316.5 -127 Q344 -106 357 -67 L414 -71 Q397 -145 354 -184 Q311 -223 247 -223 Z " />
<glyph glyph-name="Hcircumflex" unicode="&#x124;" horiz-adv-x="673" d="M347 781 L272 781 L273 793 L412 926 L512 926 L599 793 L598 781 L525 781 L453 869 L347 781 Z M677 724 L536 0 L436 0 L499 323 L195 323 L132 0 L32 0 L173 724 L273 724 L212 412 L516 412 L577 724 L677 724 Z " />
<glyph glyph-name="uni1E24" unicode="&#x1e24;" horiz-adv-x="673" d="M677 724 L536 0 L436 0 L499 323 L195 323 L132 0 L32 0 L173 724 L273 724 L212 412 L516 412 L577 724 L677 724 Z M249 -212 Q223 -212 208 -197.5 Q193 -183 193 -156 Q193 -125 211.5 -105 Q230 -85 262 -85 Q288 -85 303 -100 Q318 -115 318 -142 Q318 -173 299.5 -192.5 Q281 -212 249 -212 Z " />
<glyph glyph-name="I" unicode="I" horiz-adv-x="273" d="M175 724 L275 724 L134 0 L34 0 L175 724 Z " />
<glyph glyph-name="IJ" unicode="&#x132;" horiz-adv-x="648" d="M173 724 L273 724 L132 0 L32 0 L173 724 Z M338 -12 Q300 -12 264 -2.5 Q228 7 202 24 L245 102 Q295 77 338 77 Q431 77 452 185 L557 724 L657 724 L550 173 Q532 81 478 34.5 Q424 -12 338 -12 Z " />
<glyph glyph-name="Iacute" unicode="&#xcd;" horiz-adv-x="273" d="M162 793 L331 926 L452 926 L451 914 L249 781 L161 781 L162 793 Z M175 724 L275 724 L134 0 L34 0 L175 724 Z " />
<glyph glyph-name="uni01CF" unicode="&#x1cf;" horiz-adv-x="273" d="M427 926 L426 914 L287 781 L187 781 L100 914 L101 926 L174 926 L246 838 L352 926 L427 926 Z M175 724 L275 724 L134 0 L34 0 L175 724 Z " />
<glyph glyph-name="Icircumflex" unicode="&#xce;" horiz-adv-x="273" d="M399 793 L398 781 L325 781 L253 869 L147 781 L72 781 L73 793 L212 926 L312 926 L399 793 Z M175 724 L275 724 L134 0 L34 0 L175 724 Z " />
<glyph glyph-name="Idieresis" unicode="&#xcf;" horiz-adv-x="273" d="M152 792 Q127 792 113.5 806 Q100 820 100 845 Q100 874 117 893 Q134 912 164 912 Q188 912 201.5 898 Q215 884 215 859 Q215 829 198 810.5 Q181 792 152 792 Z M338 792 Q313 792 299.5 806 Q286 820 286 845 Q286 874 303 893 Q320 912 350 912 Q374 912 387.5 898 Q401 884 401 859 Q401 829 384 810.5 Q367 792 338 792 Z M175 724 L275 724 L134 0 L34 0 L175 724 Z " />
<glyph glyph-name="Idot" unicode="&#x130;" horiz-adv-x="273" d="M244 795 Q217 795 202 809.5 Q187 824 187 851 Q187 882 205.5 902 Q224 922 256 922 Q283 922 297.5 907.5 Q312 893 312 865 Q312 834 294 814.5 Q276 795 244 795 Z M175 724 L275 724 L134 0 L34 0 L175 724 Z " />
<glyph glyph-name="uni1ECA" unicode="&#x1eca;" horiz-adv-x="273" d="M175 724 L275 724 L134 0 L34 0 L175 724 Z M49 -212 Q23 -212 8 -197.5 Q-7 -183 -7 -156 Q-7 -125 11.5 -105 Q30 -85 62 -85 Q88 -85 103 -100 Q118 -115 118 -142 Q118 -173 99.5 -192.5 Q81 -212 49 -212 Z " />
<glyph glyph-name="Igrave" unicode="&#xcc;" horiz-adv-x="273" d="M83 914 L84 926 L194 926 L302 793 L301 781 L224 781 L83 914 Z M175 724 L275 724 L134 0 L34 0 L175 724 Z " />
<glyph glyph-name="uni1EC8" unicode="&#x1ec8;" horiz-adv-x="273" d="M199 782 L199 793 Q199 820 212 832.5 Q225 845 247 853 Q260 857 266 861.5 Q272 866 272 874 Q272 887 251 887 Q222 887 181 865 L161 919 Q209 947 269 947 Q312 947 334.5 930.5 Q357 914 357 883 Q357 856 342.5 843 Q328 830 302 818 Q284 810 276 803.5 Q268 797 268 786 L268 779 L199 782 Z M175 724 L275 724 L134 0 L34 0 L175 724 Z " />
<glyph glyph-name="Imacron" unicode="&#x12a;" horiz-adv-x="273" d="M109 880 L401 880 L387 810 L96 810 L109 880 Z M175 724 L275 724 L134 0 L34 0 L175 724 Z " />
<glyph glyph-name="Iogonek" unicode="&#x12e;" horiz-adv-x="273" d="M77 -154 Q107 -154 141 -136 L160 -195 Q138 -208 110.5 -215 Q83 -222 57 -222 Q10 -222 -16 -200.5 Q-42 -179 -42 -141 Q-42 -104 -17.5 -66 Q7 -28 48 0 L34 0 L175 724 L275 724 L134 0 Q94 -32 69 -65.5 Q44 -99 44 -124 Q44 -154 77 -154 Z " />
<glyph glyph-name="Itilde" unicode="&#x128;" horiz-adv-x="273" d="M299 788 Q273 788 259 798.5 Q245 809 232 828 Q223 841 216.5 847 Q210 853 199 853 Q181 853 166 834.5 Q151 816 143 786 L87 794 Q99 859 128.5 892 Q158 925 201 925 Q228 925 242 914.5 Q256 904 268 885 Q278 871 284.5 865.5 Q291 860 302 860 Q320 860 335 877.5 Q350 895 358 927 L414 919 Q401 854 371.5 821 Q342 788 299 788 Z M175 724 L275 724 L134 0 L34 0 L175 724 Z " />
<glyph glyph-name="J" unicode="J" horiz-adv-x="439" d="M112 -12 Q64 -12 24 1.5 Q-16 15 -40 39 L5 112 Q55 77 113 77 Q166 77 199 104.5 Q232 132 243 185 L348 724 L448 724 L341 173 Q323 83 264 35.5 Q205 -12 112 -12 Z " />
<glyph glyph-name="Jcircumflex" unicode="&#x134;" horiz-adv-x="439" d="M573 793 L572 781 L499 781 L427 869 L321 781 L246 781 L247 793 L386 926 L486 926 L573 793 Z M348 724 L448 724 L341 173 Q323 83 264 35.5 Q205 -12 112 -12 Q64 -12 24 1.5 Q-16 15 -40 39 L5 112 Q55 77 113 77 Q166 77 199 104.5 Q232 132 243 185 L348 724 Z " />
<glyph glyph-name="K" unicode="K" horiz-adv-x="600" d="M356 398 L550 0 L436 0 L284 325 L174 213 L132 0 L32 0 L173 724 L273 724 L202 359 L561 724 L678 724 L356 398 Z " />
<glyph glyph-name="Kcommaaccent" unicode="&#x136;" horiz-adv-x="600" d="M356 398 L550 0 L436 0 L284 325 L174 213 L132 0 L32 0 L173 724 L273 724 L202 359 L561 724 L678 724 L356 398 Z M139 -234 Q170 -207 185 -179.5 Q200 -152 209 -108 Q212 -95 214 -72 L304 -79 Q302 -103 298 -123 Q289 -168 261 -203.5 Q233 -239 174 -279 L139 -234 Z " />
<glyph glyph-name="L" unicode="L" horiz-adv-x="504" d="M446 89 L429 0 L32 0 L173 724 L273 724 L149 89 L446 89 Z " />
<glyph glyph-name="Lacute" unicode="&#x139;" horiz-adv-x="504" d="M237 781 L149 781 L150 793 L319 926 L441 926 L440 914 L237 781 Z M446 89 L429 0 L32 0 L173 724 L273 724 L149 89 L446 89 Z " />
<glyph glyph-name="Lcaron" unicode="&#x13d;" horiz-adv-x="504" d="M484 770 L483 760 L411 552 L353 552 L396 770 L484 770 Z M149 89 L446 89 L429 0 L32 0 L173 724 L273 724 L149 89 Z " />
<glyph glyph-name="Lcommaaccent" unicode="&#x13b;" horiz-adv-x="504" d="M446 89 L429 0 L32 0 L173 724 L273 724 L149 89 L446 89 Z M100 -234 Q131 -207 146 -179.5 Q161 -152 170 -108 Q173 -95 175 -72 L265 -79 Q263 -103 259 -123 Q250 -168 222 -203.5 Q194 -239 135 -279 L100 -234 Z " />
<glyph glyph-name="Ldot" unicode="&#x13f;" horiz-adv-x="504" d="M446 89 L429 0 L32 0 L173 724 L273 724 L149 89 L446 89 Z M401 341 Q374 341 359 355.5 Q344 370 344 397 Q344 428 362.5 448 Q381 468 413 468 Q440 468 454.5 453.5 Q469 439 469 411 Q469 380 451 360.5 Q433 341 401 341 Z " />
<glyph glyph-name="uni1E36" unicode="&#x1e36;" horiz-adv-x="504" d="M446 89 L429 0 L32 0 L173 724 L273 724 L149 89 L446 89 Z M200 -212 Q174 -212 159 -197.5 Q144 -183 144 -156 Q144 -125 162.5 -105 Q181 -85 213 -85 Q239 -85 254 -100 Q269 -115 269 -142 Q269 -173 250.5 -192.5 Q232 -212 200 -212 Z " />
<glyph glyph-name="uni1E38" unicode="&#x1e38;" horiz-adv-x="504" d="M408 810 L117 810 L130 880 L422 880 L408 810 Z M446 89 L429 0 L32 0 L173 724 L273 724 L149 89 L446 89 Z M213 -85 Q240 -85 254.5 -100 Q269 -115 269 -142 Q269 -173 250.5 -192.5 Q232 -212 200 -212 Q174 -212 159 -197.5 Q144 -183 144 -156 Q144 -125 162.5 -105 Q181 -85 213 -85 Z " />
<glyph glyph-name="uni1E3A" unicode="&#x1e3a;" horiz-adv-x="504" d="M446 89 L429 0 L32 0 L173 724 L273 724 L149 89 L446 89 Z M69 -104 L361 -104 L348 -174 L56 -174 L69 -104 Z " />
<glyph glyph-name="Lslash" unicode="&#x141;" horiz-adv-x="506" d="M449 89 L431 0 L35 0 L85 254 L76 250 L92 334 L101 339 L176 724 L276 724 L213 400 L329 464 L328 422 L267 350 L195 312 L152 89 L449 89 Z " />
<glyph glyph-name="M" unicode="M" horiz-adv-x="814" d="M819 724 L678 0 L580 0 L688 552 L435 147 L331 147 L239 570 L128 0 L32 0 L173 724 L293 724 L398 236 L696 724 L819 724 Z " />
<glyph glyph-name="uni1E42" unicode="&#x1e42;" horiz-adv-x="814" d="M819 724 L678 0 L580 0 L688 552 L435 147 L331 147 L239 570 L128 0 L32 0 L173 724 L293 724 L398 236 L696 724 L819 724 Z M318 -212 Q292 -212 277 -197.5 Q262 -183 262 -156 Q262 -125 280.5 -105 Q299 -85 331 -85 Q357 -85 372 -100 Q387 -115 387 -142 Q387 -173 368.5 -192.5 Q350 -212 318 -212 Z " />
<glyph glyph-name="N" unicode="N" horiz-adv-x="694" d="M698 724 L557 0 L463 0 L239 557 L130 0 L32 0 L173 724 L268 724 L492 168 L600 724 L698 724 Z " />
<glyph glyph-name="Nacute" unicode="&#x143;" horiz-adv-x="694" d="M460 781 L372 781 L373 793 L542 926 L663 926 L662 914 L460 781 Z M698 724 L557 0 L463 0 L239 557 L130 0 L32 0 L173 724 L268 724 L492 168 L600 724 L698 724 Z " />
<glyph glyph-name="Ncaron" unicode="&#x147;" horiz-adv-x="694" d="M398 781 L311 914 L312 926 L385 926 L457 838 L563 926 L638 926 L637 914 L498 781 L398 781 Z M698 724 L557 0 L463 0 L239 557 L130 0 L32 0 L173 724 L268 724 L492 168 L600 724 L698 724 Z " />
<glyph glyph-name="Ncommaaccent" unicode="&#x145;" horiz-adv-x="694" d="M698 724 L557 0 L463 0 L239 557 L130 0 L32 0 L173 724 L268 724 L492 168 L600 724 L698 724 Z M160 -234 Q191 -207 206 -179.5 Q221 -152 230 -108 Q233 -95 235 -72 L325 -79 Q323 -103 319 -123 Q310 -168 282 -203.5 Q254 -239 195 -279 L160 -234 Z " />
<glyph glyph-name="uni1E44" unicode="&#x1e44;" horiz-adv-x="694" d="M454 795 Q427 795 412 809.5 Q397 824 397 851 Q397 882 415.5 902 Q434 922 466 922 Q493 922 507.5 907.5 Q522 893 522 865 Q522 834 504 814.5 Q486 795 454 795 Z M698 724 L557 0 L463 0 L239 557 L130 0 L32 0 L173 724 L268 724 L492 168 L600 724 L698 724 Z " />
<glyph glyph-name="uni1E46" unicode="&#x1e46;" horiz-adv-x="694" d="M698 724 L557 0 L463 0 L239 557 L130 0 L32 0 L173 724 L268 724 L492 168 L600 724 L698 724 Z M259 -212 Q233 -212 218 -197.5 Q203 -183 203 -156 Q203 -125 221.5 -105 Q240 -85 272 -85 Q298 -85 313 -100 Q328 -115 328 -142 Q328 -173 309.5 -192.5 Q291 -212 259 -212 Z " />
<glyph glyph-name="uni1E48" unicode="&#x1e48;" horiz-adv-x="694" d="M698 724 L557 0 L463 0 L239 557 L130 0 L32 0 L173 724 L268 724 L492 168 L600 724 L698 724 Z M129 -104 L421 -104 L408 -174 L116 -174 L129 -104 Z " />
<glyph glyph-name="Ntilde" unicode="&#xd1;" horiz-adv-x="694" d="M397 852 Q379 852 364 834 Q349 816 340 786 L283 794 Q296 859 326.5 892 Q357 925 400 925 Q427 925 445.5 914.5 Q464 904 483 885 Q496 873 505 867 Q514 861 525 861 Q543 861 558.5 878.5 Q574 896 583 927 L640 919 Q626 854 595.5 821 Q565 788 522 788 Q495 788 476.5 798.5 Q458 809 439 828 Q426 840 417 846 Q408 852 397 852 Z M698 724 L557 0 L463 0 L239 557 L130 0 L32 0 L173 724 L268 724 L492 168 L600 724 L698 724 Z " />
<glyph glyph-name="O" unicode="O" horiz-adv-x="683" d="M286 -12 Q179 -12 119 52 Q59 116 59 231 Q59 368 100 482.5 Q141 597 225 666.5 Q309 736 432 736 Q540 736 599.5 672 Q659 608 659 493 Q659 356 618.5 241.5 Q578 127 494 57.5 Q410 -12 286 -12 Z M304 76 Q387 76 444 134.5 Q501 193 529 285 Q557 377 557 478 Q557 648 415 648 Q332 648 275 589.5 Q218 531 190 439 Q162 347 162 246 Q162 76 304 76 Z " />
<glyph glyph-name="Oacute" unicode="&#xd3;" horiz-adv-x="683" d="M367 793 L536 926 L657 926 L656 914 L454 781 L366 781 L367 793 Z M286 -12 Q179 -12 119 52 Q59 116 59 231 Q59 368 100 482.5 Q141 597 225 666.5 Q309 736 432 736 Q540 736 599.5 672 Q659 608 659 493 Q659 356 618.5 241.5 Q578 127 494 57.5 Q410 -12 286 -12 Z M304 76 Q387 76 444 134.5 Q501 193 529 285 Q557 377 557 478 Q557 648 415 648 Q332 648 275 589.5 Q218 531 190 439 Q162 347 162 246 Q162 76 304 76 Z " />
<glyph glyph-name="uni01D1" unicode="&#x1d1;" horiz-adv-x="683" d="M392 781 L305 914 L306 926 L379 926 L451 838 L557 926 L632 926 L631 914 L492 781 L392 781 Z M432 736 Q540 736 599.5 672 Q659 608 659 493 Q659 356 618.5 241.5 Q578 127 494 57.5 Q410 -12 286 -12 Q179 -12 119 52 Q59 116 59 231 Q59 368 100 482.5 Q141 597 225 666.5 Q309 736 432 736 Z M304 76 Q387 76 444 134.5 Q501 193 529 285 Q557 377 557 478 Q557 648 415 648 Q332 648 275 589.5 Q218 531 190 439 Q162 347 162 246 Q162 76 304 76 Z " />
<glyph glyph-name="Ocircumflex" unicode="&#xd4;" horiz-adv-x="683" d="M352 781 L277 781 L278 793 L417 926 L517 926 L604 793 L603 781 L530 781 L458 869 L352 781 Z M432 736 Q540 736 599.5 672 Q659 608 659 493 Q659 356 618.5 241.5 Q578 127 494 57.5 Q410 -12 286 -12 Q179 -12 119 52 Q59 116 59 231 Q59 368 100 482.5 Q141 597 225 666.5 Q309 736 432 736 Z M304 76 Q387 76 444 134.5 Q501 193 529 285 Q557 377 557 478 Q557 648 415 648 Q332 648 275 589.5 Q218 531 190 439 Q162 347 162 246 Q162 76 304 76 Z " />
<glyph glyph-name="uni1ED0" unicode="&#x1ed0;" horiz-adv-x="683" d="M759 1025 L758 1015 L635 888 L569 888 L570 898 L669 1025 L759 1025 Z M362 785 L293 785 L294 795 L421 934 L516 934 L589 795 L588 785 L522 785 L460 876 L362 785 Z M432 736 Q540 736 599.5 672 Q659 608 659 493 Q659 356 618.5 241.5 Q578 127 494 57.5 Q410 -12 286 -12 Q179 -12 119 52 Q59 116 59 231 Q59 368 100 482.5 Q141 597 225 666.5 Q309 736 432 736 Z M304 76 Q387 76 444 134.5 Q501 193 529 285 Q557 377 557 478 Q557 648 415 648 Q332 648 275 589.5 Q218 531 190 439 Q162 347 162 246 Q162 76 304 76 Z " />
<glyph glyph-name="uni1ED8" unicode="&#x1ed8;" horiz-adv-x="683" d="M352 781 L277 781 L278 793 L417 926 L517 926 L604 793 L603 781 L530 781 L458 869 L352 781 Z M432 736 Q540 736 599.5 672 Q659 608 659 493 Q659 356 618.5 241.5 Q578 127 494 57.5 Q410 -12 286 -12 Q179 -12 119 52 Q59 116 59 231 Q59 368 100 482.5 Q141 597 225 666.5 Q309 736 432 736 Z M304 76 Q387 76 444 134.5 Q501 193 529 285 Q557 377 557 478 Q557 648 415 648 Q332 648 275 589.5 Q218 531 190 439 Q162 347 162 246 Q162 76 304 76 Z M270 -85 Q297 -85 311.5 -100 Q326 -115 326 -142 Q326 -173 307.5 -192.5 Q289 -212 257 -212 Q231 -212 216 -197.5 Q201 -183 201 -156 Q201 -125 219.5 -105 Q238 -85 270 -85 Z " />
<glyph glyph-name="uni1ED2" unicode="&#x1ed2;" horiz-adv-x="683" d="M287 889 L220 1016 L221 1026 L304 1026 L347 899 L346 889 L287 889 Z M294 795 L421 934 L516 934 L589 795 L588 785 L522 785 L460 876 L362 785 L293 785 L294 795 Z M432 736 Q540 736 599.5 672 Q659 608 659 493 Q659 356 618.5 241.5 Q578 127 494 57.5 Q410 -12 286 -12 Q179 -12 119 52 Q59 116 59 231 Q59 368 100 482.5 Q141 597 225 666.5 Q309 736 432 736 Z M304 76 Q387 76 444 134.5 Q501 193 529 285 Q557 377 557 478 Q557 648 415 648 Q332 648 275 589.5 Q218 531 190 439 Q162 347 162 246 Q162 76 304 76 Z " />
<glyph glyph-name="uni1ED4" unicode="&#x1ed4;" horiz-adv-x="683" d="M636 1038 Q672 1038 691.5 1021.5 Q711 1005 711 976 Q711 951 698.5 938.5 Q686 926 664 916 Q649 908 642.5 902.5 Q636 897 636 888 L636 881 L575 885 L575 896 Q575 919 585 929.5 Q595 940 614 948 Q627 954 633 959 Q639 964 639 973 Q639 986 622 986 Q598 986 566 969 L549 1015 Q568 1026 591 1032 Q614 1038 636 1038 Z M362 785 L293 785 L294 795 L421 934 L516 934 L589 795 L588 785 L522 785 L460 876 L362 785 Z M432 736 Q540 736 599.5 672 Q659 608 659 493 Q659 356 618.5 241.5 Q578 127 494 57.5 Q410 -12 286 -12 Q179 -12 119 52 Q59 116 59 231 Q59 368 100 482.5 Q141 597 225 666.5 Q309 736 432 736 Z M304 76 Q387 76 444 134.5 Q501 193 529 285 Q557 377 557 478 Q557 648 415 648 Q332 648 275 589.5 Q218 531 190 439 Q162 347 162 246 Q162 76 304 76 Z " />
<glyph glyph-name="uni1ED6" unicode="&#x1ed6;" horiz-adv-x="683" d="M424 982 Q404 982 389 967.5 Q374 953 367 927 L319 934 Q329 989 357 1017 Q385 1045 428 1045 Q454 1045 468 1037 Q482 1029 498 1013 Q507 1002 515 996.5 Q523 991 535 991 Q554 991 569 1005.5 Q584 1020 591 1046 L639 1039 Q629 985 601 956.5 Q573 928 530 928 Q504 928 489.5 936.5 Q475 945 460 961 Q450 972 442.5 977 Q435 982 424 982 Z M358 771 L291 771 L292 781 L418 907 L510 907 L585 781 L585 771 L521 771 L455 853 L358 771 Z M432 736 Q540 736 599.5 672 Q659 608 659 493 Q659 356 618.5 241.5 Q578 127 494 57.5 Q410 -12 286 -12 Q179 -12 119 52 Q59 116 59 231 Q59 368 100 482.5 Q141 597 225 666.5 Q309 736 432 736 Z M304 76 Q387 76 444 134.5 Q501 193 529 285 Q557 377 557 478 Q557 648 415 648 Q332 648 275 589.5 Q218 531 190 439 Q162 347 162 246 Q162 76 304 76 Z " />
<glyph glyph-name="Odieresis" unicode="&#xd6;" horiz-adv-x="683" d="M356 792 Q331 792 317.5 806 Q304 820 304 845 Q304 874 321 893 Q338 912 368 912 Q392 912 405.5 898 Q419 884 419 859 Q419 829 402 810.5 Q385 792 356 792 Z M542 792 Q517 792 503.5 806 Q490 820 490 845 Q490 874 507 893 Q524 912 554 912 Q578 912 591.5 898 Q605 884 605 859 Q605 829 588 810.5 Q571 792 542 792 Z M286 -12 Q179 -12 119 52 Q59 116 59 231 Q59 368 100 482.5 Q141 597 225 666.5 Q309 736 432 736 Q540 736 599.5 672 Q659 608 659 493 Q659 356 618.5 241.5 Q578 127 494 57.5 Q410 -12 286 -12 Z M304 76 Q387 76 444 134.5 Q501 193 529 285 Q557 377 557 478 Q557 648 415 648 Q332 648 275 589.5 Q218 531 190 439 Q162 347 162 246 Q162 76 304 76 Z " />
<glyph glyph-name="uni1ECC" unicode="&#x1ecc;" horiz-adv-x="683" d="M286 -12 Q179 -12 119 52 Q59 116 59 231 Q59 368 100 482.5 Q141 597 225 666.5 Q309 736 432 736 Q540 736 599.5 672 Q659 608 659 493 Q659 356 618.5 241.5 Q578 127 494 57.5 Q410 -12 286 -12 Z M304 76 Q387 76 444 134.5 Q501 193 529 285 Q557 377 557 478 Q557 648 415 648 Q332 648 275 589.5 Q218 531 190 439 Q162 347 162 246 Q162 76 304 76 Z M257 -212 Q231 -212 216 -197.5 Q201 -183 201 -156 Q201 -125 219.5 -105 Q238 -85 270 -85 Q296 -85 311 -100 Q326 -115 326 -142 Q326 -173 307.5 -192.5 Q289 -212 257 -212 Z " />
<glyph glyph-name="Ograve" unicode="&#xd2;" horiz-adv-x="683" d="M288 914 L289 926 L399 926 L507 793 L506 781 L429 781 L288 914 Z M286 -12 Q179 -12 119 52 Q59 116 59 231 Q59 368 100 482.5 Q141 597 225 666.5 Q309 736 432 736 Q540 736 599.5 672 Q659 608 659 493 Q659 356 618.5 241.5 Q578 127 494 57.5 Q410 -12 286 -12 Z M304 76 Q387 76 444 134.5 Q501 193 529 285 Q557 377 557 478 Q557 648 415 648 Q332 648 275 589.5 Q218 531 190 439 Q162 347 162 246 Q162 76 304 76 Z " />
<glyph glyph-name="uni1ECE" unicode="&#x1ece;" horiz-adv-x="683" d="M404 782 L404 793 Q404 820 417 832.5 Q430 845 452 853 Q465 857 471 861.5 Q477 866 477 874 Q477 887 456 887 Q427 887 386 865 L366 919 Q414 947 474 947 Q517 947 539.5 930.5 Q562 914 562 883 Q562 856 547.5 843 Q533 830 507 818 Q489 810 481 803.5 Q473 797 473 786 L473 779 L404 782 Z M286 -12 Q179 -12 119 52 Q59 116 59 231 Q59 368 100 482.5 Q141 597 225 666.5 Q309 736 432 736 Q540 736 599.5 672 Q659 608 659 493 Q659 356 618.5 241.5 Q578 127 494 57.5 Q410 -12 286 -12 Z M304 76 Q387 76 444 134.5 Q501 193 529 285 Q557 377 557 478 Q557 648 415 648 Q332 648 275 589.5 Q218 531 190 439 Q162 347 162 246 Q162 76 304 76 Z " />
<glyph glyph-name="Ohorn" unicode="&#x1a0;" horiz-adv-x="683" d="M782 862 Q782 831 776 796 Q763 727 725 694.5 Q687 662 611 658 Q659 597 659 493 Q659 356 618.5 241.5 Q578 127 494 57.5 Q410 -12 286 -12 Q179 -12 119 52 Q59 116 59 231 Q59 368 100 482.5 Q141 597 225 666.5 Q309 736 432 736 Q456 736 471.5 733.5 Q487 731 511 725 Q548 714 582 714 Q630 714 654.5 736 Q679 758 690 810 Q695 838 696 866 L782 862 Z M304 76 Q387 76 444 134.5 Q501 193 529 285 Q557 377 557 478 Q557 648 415 648 Q332 648 275 589.5 Q218 531 190 439 Q162 347 162 246 Q162 76 304 76 Z " />
<glyph glyph-name="uni1EDA" unicode="&#x1eda;" horiz-adv-x="683" d="M455 781 L367 781 L368 793 L537 926 L658 926 L657 914 L455 781 Z M782 862 Q782 831 776 796 Q763 727 725 694.5 Q687 662 611 658 Q659 597 659 493 Q659 356 618.5 241.5 Q578 127 494 57.5 Q410 -12 286 -12 Q179 -12 119 52 Q59 116 59 231 Q59 368 100 482.5 Q141 597 225 666.5 Q309 736 432 736 Q456 736 471.5 733.5 Q487 731 511 725 Q548 714 582 714 Q630 714 654.5 736 Q679 758 690 810 Q695 838 696 866 L782 862 Z M304 76 Q387 76 444 134.5 Q501 193 529 285 Q557 377 557 478 Q557 648 415 648 Q332 648 275 589.5 Q218 531 190 439 Q162 347 162 246 Q162 76 304 76 Z " />
<glyph glyph-name="uni1EE2" unicode="&#x1ee2;" horiz-adv-x="683" d="M782 862 Q782 831 776 796 Q763 727 725 694.5 Q687 662 611 658 Q659 597 659 493 Q659 356 618.5 241.5 Q578 127 494 57.5 Q410 -12 286 -12 Q179 -12 119 52 Q59 116 59 231 Q59 368 100 482.5 Q141 597 225 666.5 Q309 736 432 736 Q456 736 471.5 733.5 Q487 731 511 725 Q548 714 582 714 Q630 714 654.5 736 Q679 758 690 810 Q695 838 696 866 L782 862 Z M304 76 Q387 76 444 134.5 Q501 193 529 285 Q557 377 557 478 Q557 648 415 648 Q332 648 275 589.5 Q218 531 190 439 Q162 347 162 246 Q162 76 304 76 Z M255 -212 Q229 -212 214 -197.5 Q199 -183 199 -156 Q199 -125 217.5 -105 Q236 -85 268 -85 Q294 -85 309 -100 Q324 -115 324 -142 Q324 -173 305.5 -192.5 Q287 -212 255 -212 Z " />
<glyph glyph-name="uni1EDC" unicode="&#x1edc;" horiz-adv-x="683" d="M430 781 L289 914 L290 926 L400 926 L508 793 L507 781 L430 781 Z M782 862 Q782 831 776 796 Q763 727 725 694.5 Q687 662 611 658 Q659 597 659 493 Q659 356 618.5 241.5 Q578 127 494 57.5 Q410 -12 286 -12 Q179 -12 119 52 Q59 116 59 231 Q59 368 100 482.5 Q141 597 225 666.5 Q309 736 432 736 Q456 736 471.5 733.5 Q487 731 511 725 Q548 714 582 714 Q630 714 654.5 736 Q679 758 690 810 Q695 838 696 866 L782 862 Z M304 76 Q387 76 444 134.5 Q501 193 529 285 Q557 377 557 478 Q557 648 415 648 Q332 648 275 589.5 Q218 531 190 439 Q162 347 162 246 Q162 76 304 76 Z " />
<glyph glyph-name="uni1EDE" unicode="&#x1ede;" horiz-adv-x="683" d="M457 887 Q428 887 387 865 L367 919 Q415 947 475 947 Q518 947 540.5 930.5 Q563 914 563 883 Q563 856 548.5 843 Q534 830 508 818 Q490 810 482 803.5 Q474 797 474 786 L474 779 L405 782 L405 793 Q405 820 418 832.5 Q431 845 453 853 Q466 857 472 861.5 Q478 866 478 874 Q478 887 457 887 Z M782 862 Q782 831 776 796 Q763 727 725 694.5 Q687 662 611 658 Q659 597 659 493 Q659 356 618.5 241.5 Q578 127 494 57.5 Q410 -12 286 -12 Q179 -12 119 52 Q59 116 59 231 Q59 368 100 482.5 Q141 597 225 666.5 Q309 736 432 736 Q456 736 471.5 733.5 Q487 731 511 725 Q548 714 582 714 Q630 714 654.5 736 Q679 758 690 810 Q695 838 696 866 L782 862 Z M304 76 Q387 76 444 134.5 Q501 193 529 285 Q557 377 557 478 Q557 648 415 648 Q332 648 275 589.5 Q218 531 190 439 Q162 347 162 246 Q162 76 304 76 Z " />
<glyph glyph-name="uni1EE0" unicode="&#x1ee0;" horiz-adv-x="683" d="M392 852 Q374 852 359 834 Q344 816 335 786 L278 794 Q291 859 321.5 892 Q352 925 395 925 Q422 925 440.5 914.5 Q459 904 478 885 Q491 873 500 867 Q509 861 520 861 Q538 861 553.5 878.5 Q569 896 578 927 L635 919 Q621 854 590.5 821 Q560 788 517 788 Q490 788 471.5 798.5 Q453 809 434 828 Q421 840 412 846 Q403 852 392 852 Z M782 862 Q782 831 776 796 Q763 727 725 694.5 Q687 662 611 658 Q659 597 659 493 Q659 356 618.5 241.5 Q578 127 494 57.5 Q410 -12 286 -12 Q179 -12 119 52 Q59 116 59 231 Q59 368 100 482.5 Q141 597 225 666.5 Q309 736 432 736 Q456 736 471.5 733.5 Q487 731 511 725 Q548 714 582 714 Q630 714 654.5 736 Q679 758 690 810 Q695 838 696 866 L782 862 Z M304 76 Q387 76 444 134.5 Q501 193 529 285 Q557 377 557 478 Q557 648 415 648 Q332 648 275 589.5 Q218 531 190 439 Q162 347 162 246 Q162 76 304 76 Z " />
<glyph glyph-name="Ohungarumlaut" unicode="&#x150;" horiz-adv-x="683" d="M308 793 L427 926 L529 926 L528 914 L379 781 L307 781 L308 793 Z M466 793 L584 926 L688 926 L687 914 L537 781 L465 781 L466 793 Z M286 -12 Q179 -12 119 52 Q59 116 59 231 Q59 368 100 482.5 Q141 597 225 666.5 Q309 736 432 736 Q540 736 599.5 672 Q659 608 659 493 Q659 356 618.5 241.5 Q578 127 494 57.5 Q410 -12 286 -12 Z M304 76 Q387 76 444 134.5 Q501 193 529 285 Q557 377 557 478 Q557 648 415 648 Q332 648 275 589.5 Q218 531 190 439 Q162 347 162 246 Q162 76 304 76 Z " />
<glyph glyph-name="Omacron" unicode="&#x14c;" horiz-adv-x="683" d="M313 880 L605 880 L591 810 L300 810 L313 880 Z M286 -12 Q179 -12 119 52 Q59 116 59 231 Q59 368 100 482.5 Q141 597 225 666.5 Q309 736 432 736 Q540 736 599.5 672 Q659 608 659 493 Q659 356 618.5 241.5 Q578 127 494 57.5 Q410 -12 286 -12 Z M304 76 Q387 76 444 134.5 Q501 193 529 285 Q557 377 557 478 Q557 648 415 648 Q332 648 275 589.5 Q218 531 190 439 Q162 347 162 246 Q162 76 304 76 Z " />
<glyph glyph-name="Oslash" unicode="&#xd8;" horiz-adv-x="684" d="M749 723 L640 608 Q659 561 659 493 Q659 356 618.5 241.5 Q578 127 494 57.5 Q410 -12 286 -12 Q177 -12 116 55 L56 -10 L-30 -10 L-29 1 L79 115 Q59 166 59 231 Q59 368 100 482.5 Q141 597 225 666.5 Q309 736 432 736 Q543 736 603 668 L664 734 L750 734 L749 723 Z M415 650 Q331 650 273 591.5 Q215 533 187 440.5 Q159 348 159 246 Q159 222 162 202 L534 594 Q498 650 415 650 Z M304 74 Q388 74 446 132.5 Q504 191 532 283.5 Q560 376 560 478 Q560 501 557 522 L185 129 Q221 74 304 74 Z " />
<glyph glyph-name="Otilde" unicode="&#xd5;" horiz-adv-x="683" d="M277 794 Q290 859 320.5 892 Q351 925 394 925 Q421 925 439.5 914.5 Q458 904 477 885 Q490 873 499 867 Q508 861 519 861 Q537 861 552.5 878.5 Q568 896 577 927 L634 919 Q620 854 589.5 821 Q559 788 516 788 Q489 788 470.5 798.5 Q452 809 433 828 Q420 840 411 846 Q402 852 391 852 Q373 852 358 834 Q343 816 334 786 L277 794 Z M286 -12 Q179 -12 119 52 Q59 116 59 231 Q59 368 100 482.5 Q141 597 225 666.5 Q309 736 432 736 Q540 736 599.5 672 Q659 608 659 493 Q659 356 618.5 241.5 Q578 127 494 57.5 Q410 -12 286 -12 Z M304 76 Q387 76 444 134.5 Q501 193 529 285 Q557 377 557 478 Q557 648 415 648 Q332 648 275 589.5 Q218 531 190 439 Q162 347 162 246 Q162 76 304 76 Z " />
<glyph glyph-name="OE" unicode="&#x152;" horiz-adv-x="921" d="M639 636 L596 415 L819 415 L801 325 L579 325 L534 88 L851 88 L833 0 L418 0 L292 0 Q178 0 118.5 61.5 Q59 123 59 239 Q59 373 100 483 Q141 593 224 658.5 Q307 724 426 724 L593 724 L961 724 L944 636 L639 636 Z M435 89 L541 635 L413 635 Q330 635 273.5 579.5 Q217 524 189 435.5 Q161 347 161 249 Q161 167 196.5 128 Q232 89 306 89 L435 89 Z " />
<glyph glyph-name="P" unicode="P" horiz-adv-x="570" d="M419 724 Q505 724 554 677.5 Q603 631 603 550 Q603 464 570 395.5 Q537 327 474 287.5 Q411 248 325 248 L180 248 L132 0 L32 0 L173 724 L273 724 L419 724 Z M343 336 Q394 336 429.5 364 Q465 392 483 438.5 Q501 485 501 539 Q501 636 401 636 L256 636 L198 336 L343 336 Z " />
<glyph glyph-name="Thorn" unicode="&#xde;" horiz-adv-x="598" d="M387 604 Q478 604 526.5 557.5 Q575 511 575 418 Q575 340 541.5 275.5 Q508 211 445 173.5 Q382 136 299 136 L159 136 L132 0 L32 0 L173 724 L273 724 L250 604 L387 604 Z M314 224 Q363 224 399 252 Q435 280 453.5 325 Q472 370 472 418 Q472 468 449 492 Q426 516 373 516 L233 516 L176 224 L314 224 Z " />
<glyph glyph-name="Q" unicode="Q" horiz-adv-x="682" d="M659 493 Q659 347 613 227 Q567 107 476 44 L572 -95 L496 -154 L395 4 Q342 -12 286 -12 Q179 -12 119 52 Q59 116 59 231 Q59 368 100 482.5 Q141 597 225 666.5 Q309 736 432 736 Q540 736 599.5 672 Q659 608 659 493 Z M162 246 Q162 76 304 76 Q387 76 444 134.5 Q501 193 529 285 Q557 377 557 478 Q557 648 415 648 Q332 648 275 589.5 Q218 531 190 439 Q162 347 162 246 Z " />
<glyph glyph-name="R" unicode="R" horiz-adv-x="606" d="M594 555 Q594 452 543.5 377.5 Q493 303 403 279 L528 0 L415 0 L303 269 L185 269 L132 0 L32 0 L173 724 L273 724 L409 724 Q495 724 544.5 679 Q594 634 594 555 Z M201 355 L338 355 Q411 355 451 410.5 Q491 466 491 545 Q491 636 392 636 L256 636 L201 355 Z " />
<glyph glyph-name="Racute" unicode="&#x154;" horiz-adv-x="606" d="M617 926 L616 914 L414 781 L326 781 L327 793 L496 926 L617 926 Z M594 555 Q594 452 543.5 377.5 Q493 303 403 279 L528 0 L415 0 L303 269 L185 269 L132 0 L32 0 L173 724 L273 724 L409 724 Q495 724 544.5 679 Q594 634 594 555 Z M338 355 Q411 355 451 410.5 Q491 466 491 545 Q491 636 392 636 L256 636 L201 355 L338 355 Z " />
<glyph glyph-name="Rcaron" unicode="&#x158;" horiz-adv-x="606" d="M352 781 L265 914 L266 926 L339 926 L411 838 L517 926 L592 926 L591 914 L452 781 L352 781 Z M594 555 Q594 452 543.5 377.5 Q493 303 403 279 L528 0 L415 0 L303 269 L185 269 L132 0 L32 0 L173 724 L273 724 L409 724 Q495 724 544.5 679 Q594 634 594 555 Z M201 355 L338 355 Q411 355 451 410.5 Q491 466 491 545 Q491 636 392 636 L256 636 L201 355 Z " />
<glyph glyph-name="Rcommaaccent" unicode="&#x156;" horiz-adv-x="606" d="M594 555 Q594 452 543.5 377.5 Q493 303 403 279 L528 0 L415 0 L303 269 L185 269 L132 0 L32 0 L173 724 L273 724 L409 724 Q495 724 544.5 679 Q594 634 594 555 Z M201 355 L338 355 Q411 355 451 410.5 Q491 466 491 545 Q491 636 392 636 L256 636 L201 355 Z M132 -234 Q163 -207 178 -179.5 Q193 -152 202 -108 Q205 -95 207 -72 L297 -79 Q295 -103 291 -123 Q282 -168 254 -203.5 Q226 -239 167 -279 L132 -234 Z " />
<glyph glyph-name="uni1E5A" unicode="&#x1e5a;" horiz-adv-x="606" d="M594 555 Q594 452 543.5 377.5 Q493 303 403 279 L528 0 L415 0 L303 269 L185 269 L132 0 L32 0 L173 724 L273 724 L409 724 Q495 724 544.5 679 Q594 634 594 555 Z M201 355 L338 355 Q411 355 451 410.5 Q491 466 491 545 Q491 636 392 636 L256 636 L201 355 Z M232 -212 Q206 -212 191 -197.5 Q176 -183 176 -156 Q176 -125 194.5 -105 Q213 -85 245 -85 Q271 -85 286 -100 Q301 -115 301 -142 Q301 -173 282.5 -192.5 Q264 -212 232 -212 Z " />
<glyph glyph-name="uni1E5C" unicode="&#x1e5c;" horiz-adv-x="606" d="M552 810 L261 810 L274 880 L566 880 L552 810 Z M594 555 Q594 452 543.5 377.5 Q493 303 403 279 L528 0 L415 0 L303 269 L185 269 L132 0 L32 0 L173 724 L273 724 L409 724 Q495 724 544.5 679 Q594 634 594 555 Z M201 355 L338 355 Q411 355 451 410.5 Q491 466 491 545 Q491 636 392 636 L256 636 L201 355 Z M245 -85 Q272 -85 286.5 -100 Q301 -115 301 -142 Q301 -173 282.5 -192.5 Q264 -212 232 -212 Q206 -212 191 -197.5 Q176 -183 176 -156 Q176 -125 194.5 -105 Q213 -85 245 -85 Z " />
<glyph glyph-name="uni1E5E" unicode="&#x1e5e;" horiz-adv-x="606" d="M594 555 Q594 452 543.5 377.5 Q493 303 403 279 L528 0 L415 0 L303 269 L185 269 L132 0 L32 0 L173 724 L273 724 L409 724 Q495 724 544.5 679 Q594 634 594 555 Z M201 355 L338 355 Q411 355 451 410.5 Q491 466 491 545 Q491 636 392 636 L256 636 L201 355 Z M101 -104 L393 -104 L380 -174 L88 -174 L101 -104 Z " />
<glyph glyph-name="S" unicode="S" horiz-adv-x="537" d="M205 -11 Q146 -11 91 5 Q36 21 -5 50 L39 130 Q119 77 216 77 Q293 77 338.5 114.5 Q384 152 384 216 Q384 283 303 306 L226 329 Q88 371 88 492 Q88 564 122 619 Q156 674 216.5 704.5 Q277 735 354 735 Q404 735 455.5 723 Q507 711 551 688 L508 608 Q416 647 341 647 Q270 647 229 612 Q188 577 188 516 Q188 449 269 426 L346 403 Q484 361 484 239 Q484 165 448.5 108.5 Q413 52 349.5 20.5 Q286 -11 205 -11 Z " />
<glyph glyph-name="Sacute" unicode="&#x15a;" horiz-adv-x="537" d="M279 793 L448 926 L569 926 L568 914 L366 781 L278 781 L279 793 Z M205 -11 Q146 -11 91 5 Q36 21 -5 50 L39 130 Q119 77 216 77 Q293 77 338.5 114.5 Q384 152 384 216 Q384 283 303 306 L226 329 Q88 371 88 492 Q88 564 122 619 Q156 674 216.5 704.5 Q277 735 354 735 Q404 735 455.5 723 Q507 711 551 688 L508 608 Q416 647 341 647 Q270 647 229 612 Q188 577 188 516 Q188 449 269 426 L346 403 Q484 361 484 239 Q484 165 448.5 108.5 Q413 52 349.5 20.5 Q286 -11 205 -11 Z " />
<glyph glyph-name="Scaron" unicode="&#x160;" horiz-adv-x="537" d="M304 781 L217 914 L218 926 L291 926 L363 838 L469 926 L544 926 L543 914 L404 781 L304 781 Z M341 647 Q270 647 229 612 Q188 577 188 516 Q188 449 269 426 L346 403 Q484 361 484 239 Q484 165 448.5 108.5 Q413 52 349.5 20.5 Q286 -11 205 -11 Q146 -11 91 5 Q36 21 -5 50 L39 130 Q119 77 216 77 Q293 77 338.5 114.5 Q384 152 384 216 Q384 283 303 306 L226 329 Q88 371 88 492 Q88 564 122 619 Q156 674 216.5 704.5 Q277 735 354 735 Q404 735 455.5 723 Q507 711 551 688 L508 608 Q416 647 341 647 Z " />
<glyph glyph-name="Scedilla" unicode="&#x15e;" horiz-adv-x="537" d="M341 647 Q270 647 229 612 Q188 577 188 516 Q188 449 269 426 L346 403 Q484 361 484 239 Q484 171 453 116.5 Q422 62 367 29.5 Q312 -3 240 -9 L198 -57 Q204 -56 214 -56 Q257 -56 280.5 -76 Q304 -96 304 -132 Q304 -178 266.5 -205 Q229 -232 172 -232 Q111 -232 69 -207 L89 -160 Q128 -176 163 -176 Q192 -176 209.5 -162.5 Q227 -149 227 -128 Q227 -103 195 -103 Q172 -103 149 -112 L128 -85 L172 -10 Q67 -1 -5 50 L39 130 Q119 77 216 77 Q293 77 338.5 114.5 Q384 152 384 216 Q384 283 303 306 L226 329 Q88 371 88 492 Q88 564 122 619 Q156 674 216.5 704.5 Q277 735 354 735 Q404 735 455.5 723 Q507 711 551 688 L508 608 Q416 647 341 647 Z " />
<glyph glyph-name="Scircumflex" unicode="&#x15c;" horiz-adv-x="537" d="M264 781 L189 781 L190 793 L329 926 L429 926 L516 793 L515 781 L442 781 L370 869 L264 781 Z M341 647 Q270 647 229 612 Q188 577 188 516 Q188 449 269 426 L346 403 Q484 361 484 239 Q484 165 448.5 108.5 Q413 52 349.5 20.5 Q286 -11 205 -11 Q146 -11 91 5 Q36 21 -5 50 L39 130 Q119 77 216 77 Q293 77 338.5 114.5 Q384 152 384 216 Q384 283 303 306 L226 329 Q88 371 88 492 Q88 564 122 619 Q156 674 216.5 704.5 Q277 735 354 735 Q404 735 455.5 723 Q507 711 551 688 L508 608 Q416 647 341 647 Z " />
<glyph glyph-name="Scommaaccent" unicode="&#x218;" horiz-adv-x="537" d="M205 -11 Q146 -11 91 5 Q36 21 -5 50 L39 130 Q119 77 216 77 Q293 77 338.5 114.5 Q384 152 384 216 Q384 283 303 306 L226 329 Q88 371 88 492 Q88 564 122 619 Q156 674 216.5 704.5 Q277 735 354 735 Q404 735 455.5 723 Q507 711 551 688 L508 608 Q416 647 341 647 Q270 647 229 612 Q188 577 188 516 Q188 449 269 426 L346 403 Q484 361 484 239 Q484 165 448.5 108.5 Q413 52 349.5 20.5 Q286 -11 205 -11 Z M81 -234 Q112 -207 127 -179.5 Q142 -152 151 -108 Q154 -95 156 -72 L246 -79 Q244 -103 240 -123 Q231 -168 203 -203.5 Q175 -239 116 -279 L81 -234 Z " />
<glyph glyph-name="uni1E60" unicode="&#x1e60;" horiz-adv-x="537" d="M361 795 Q334 795 319 809.5 Q304 824 304 851 Q304 882 322.5 902 Q341 922 373 922 Q400 922 414.5 907.5 Q429 893 429 865 Q429 834 411 814.5 Q393 795 361 795 Z M205 -11 Q146 -11 91 5 Q36 21 -5 50 L39 130 Q119 77 216 77 Q293 77 338.5 114.5 Q384 152 384 216 Q384 283 303 306 L226 329 Q88 371 88 492 Q88 564 122 619 Q156 674 216.5 704.5 Q277 735 354 735 Q404 735 455.5 723 Q507 711 551 688 L508 608 Q416 647 341 647 Q270 647 229 612 Q188 577 188 516 Q188 449 269 426 L346 403 Q484 361 484 239 Q484 165 448.5 108.5 Q413 52 349.5 20.5 Q286 -11 205 -11 Z " />
<glyph glyph-name="uni1E62" unicode="&#x1e62;" horiz-adv-x="537" d="M205 -11 Q146 -11 91 5 Q36 21 -5 50 L39 130 Q119 77 216 77 Q293 77 338.5 114.5 Q384 152 384 216 Q384 283 303 306 L226 329 Q88 371 88 492 Q88 564 122 619 Q156 674 216.5 704.5 Q277 735 354 735 Q404 735 455.5 723 Q507 711 551 688 L508 608 Q416 647 341 647 Q270 647 229 612 Q188 577 188 516 Q188 449 269 426 L346 403 Q484 361 484 239 Q484 165 448.5 108.5 Q413 52 349.5 20.5 Q286 -11 205 -11 Z M181 -212 Q155 -212 140 -197.5 Q125 -183 125 -156 Q125 -125 143.5 -105 Q162 -85 194 -85 Q220 -85 235 -100 Q250 -115 250 -142 Q250 -173 231.5 -192.5 Q213 -212 181 -212 Z " />
<glyph glyph-name="uni1E9E" unicode="&#x1e9e;" horiz-adv-x="647" d="M427 397 Q599 369 599 230 Q599 159 565 105.5 Q531 52 469 23 Q407 -6 324 -6 Q251 -6 194 15 L222 97 Q285 79 340 79 Q414 79 457 115 Q500 151 500 211 Q500 270 452 299 Q404 328 301 333 L313 413 Q389 445 434 489 Q479 533 479 589 Q479 655 390 655 Q321 655 279.5 620.5 Q238 586 226 520 L124 0 L24 0 L126 524 Q146 628 218.5 685 Q291 742 401 742 Q485 742 530.5 707.5 Q576 673 576 609 Q576 540 536.5 486 Q497 432 427 397 Z " />
<glyph glyph-name="uni018F" unicode="&#x18f;" horiz-adv-x="670" d="M392 735 Q645 735 645 459 Q645 341 601.5 233 Q558 125 475.5 57 Q393 -11 282 -11 Q174 -11 113.5 54 Q53 119 53 236 Q53 277 60.5 323.5 Q68 370 80 404 L541 400 Q544 426 544 450 Q544 546 504 593 Q464 640 384 640 Q340 640 290 627 Q240 614 190 590 L162 674 Q212 704 272 719.5 Q332 735 392 735 Z M289 80 Q375 80 435.5 145.5 Q496 211 525 312 L161 312 Q153 269 153 238 Q153 161 188.5 120.5 Q224 80 289 80 Z " />
<glyph glyph-name="T" unicode="T" horiz-adv-x="504" d="M554 635 L373 635 L250 0 L150 0 L273 635 L93 635 L111 724 L391 724 L571 724 L554 635 Z " />
<glyph glyph-name="Tcaron" unicode="&#x164;" horiz-adv-x="504" d="M303 781 L216 914 L217 926 L290 926 L362 838 L468 926 L543 926 L542 914 L403 781 L303 781 Z M554 635 L373 635 L250 0 L150 0 L273 635 L93 635 L111 724 L391 724 L571 724 L554 635 Z " />
<glyph glyph-name="uni0162" unicode="&#x162;" horiz-adv-x="504" d="M232 0 L182 -57 Q188 -56 198 -56 Q241 -56 264.5 -76 Q288 -96 288 -132 Q288 -178 250.5 -205 Q213 -232 156 -232 Q95 -232 53 -207 L73 -160 Q112 -176 147 -176 Q176 -176 193.5 -162.5 Q211 -149 211 -128 Q211 -103 179 -103 Q156 -103 133 -112 L112 -85 L162 0 L150 0 L273 635 L93 635 L111 724 L391 724 L571 724 L554 635 L373 635 L250 0 L232 0 Z " />
<glyph glyph-name="uni021A" unicode="&#x21a;" horiz-adv-x="504" d="M554 635 L373 635 L250 0 L150 0 L273 635 L93 635 L111 724 L391 724 L571 724 L554 635 Z M65 -234 Q96 -207 111 -179.5 Q126 -152 135 -108 Q138 -95 140 -72 L230 -79 Q228 -103 224 -123 Q215 -168 187 -203.5 Q159 -239 100 -279 L65 -234 Z " />
<glyph glyph-name="uni1E6C" unicode="&#x1e6c;" horiz-adv-x="504" d="M554 635 L373 635 L250 0 L150 0 L273 635 L93 635 L111 724 L391 724 L571 724 L554 635 Z M165 -212 Q139 -212 124 -197.5 Q109 -183 109 -156 Q109 -125 127.5 -105 Q146 -85 178 -85 Q204 -85 219 -100 Q234 -115 234 -142 Q234 -173 215.5 -192.5 Q197 -212 165 -212 Z " />
<glyph glyph-name="uni1E6E" unicode="&#x1e6e;" horiz-adv-x="504" d="M554 635 L373 635 L250 0 L150 0 L273 635 L93 635 L111 724 L391 724 L571 724 L554 635 Z M34 -104 L326 -104 L313 -174 L21 -174 L34 -104 Z " />
<glyph glyph-name="U" unicode="U" horiz-adv-x="657" d="M281 -12 Q180 -12 124.5 38.5 Q69 89 69 181 Q69 216 76 251 L168 724 L268 724 L175 248 Q169 215 169 189 Q169 132 198 104 Q227 76 286 76 Q362 76 409.5 121.5 Q457 167 474 255 L566 724 L666 724 L572 243 Q549 121 473.5 54.5 Q398 -12 281 -12 Z " />
<glyph glyph-name="Uacute" unicode="&#xda;" horiz-adv-x="657" d="M354 793 L523 926 L644 926 L643 914 L441 781 L353 781 L354 793 Z M281 -12 Q180 -12 124.5 38.5 Q69 89 69 181 Q69 216 76 251 L168 724 L268 724 L175 248 Q169 215 169 189 Q169 132 198 104 Q227 76 286 76 Q362 76 409.5 121.5 Q457 167 474 255 L566 724 L666 724 L572 243 Q549 121 473.5 54.5 Q398 -12 281 -12 Z " />
<glyph glyph-name="Ubreve" unicode="&#x16c;" horiz-adv-x="657" d="M435 784 Q376 784 344 816 Q312 848 312 905 Q312 922 315 940 L374 936 Q372 897 388 878 Q404 859 439 859 Q477 859 504.5 880 Q532 901 545 940 L602 936 Q585 862 542 823 Q499 784 435 784 Z M281 -12 Q180 -12 124.5 38.5 Q69 89 69 181 Q69 216 76 251 L168 724 L268 724 L175 248 Q169 215 169 189 Q169 132 198 104 Q227 76 286 76 Q362 76 409.5 121.5 Q457 167 474 255 L566 724 L666 724 L572 243 Q549 121 473.5 54.5 Q398 -12 281 -12 Z " />
<glyph glyph-name="uni01D3" unicode="&#x1d3;" horiz-adv-x="657" d="M379 781 L292 914 L293 926 L366 926 L438 838 L544 926 L619 926 L618 914 L479 781 L379 781 Z M666 724 L572 243 Q549 121 473.5 54.5 Q398 -12 281 -12 Q180 -12 124.5 38.5 Q69 89 69 181 Q69 216 76 251 L168 724 L268 724 L175 248 Q169 215 169 189 Q169 132 198 104 Q227 76 286 76 Q362 76 409.5 121.5 Q457 167 474 255 L566 724 L666 724 Z " />
<glyph glyph-name="Ucircumflex" unicode="&#xdb;" horiz-adv-x="657" d="M339 781 L264 781 L265 793 L404 926 L504 926 L591 793 L590 781 L517 781 L445 869 L339 781 Z M666 724 L572 243 Q549 121 473.5 54.5 Q398 -12 281 -12 Q180 -12 124.5 38.5 Q69 89 69 181 Q69 216 76 251 L168 724 L268 724 L175 248 Q169 215 169 189 Q169 132 198 104 Q227 76 286 76 Q362 76 409.5 121.5 Q457 167 474 255 L566 724 L666 724 Z " />
<glyph glyph-name="Udieresis" unicode="&#xdc;" horiz-adv-x="657" d="M344 792 Q319 792 305.5 806 Q292 820 292 845 Q292 874 309 893 Q326 912 356 912 Q380 912 393.5 898 Q407 884 407 859 Q407 829 390 810.5 Q373 792 344 792 Z M530 792 Q505 792 491.5 806 Q478 820 478 845 Q478 874 495 893 Q512 912 542 912 Q566 912 579.5 898 Q593 884 593 859 Q593 829 576 810.5 Q559 792 530 792 Z M281 -12 Q180 -12 124.5 38.5 Q69 89 69 181 Q69 216 76 251 L168 724 L268 724 L175 248 Q169 215 169 189 Q169 132 198 104 Q227 76 286 76 Q362 76 409.5 121.5 Q457 167 474 255 L566 724 L666 724 L572 243 Q549 121 473.5 54.5 Q398 -12 281 -12 Z " />
<glyph glyph-name="uni01D7" unicode="&#x1d7;" horiz-adv-x="657" d="M413 914 L512 1041 L602 1041 L601 1031 L478 904 L412 904 L413 914 Z M342 773 Q318 773 305 786.5 Q292 800 292 825 Q292 853 308.5 871 Q325 889 353 889 Q377 889 390 876 Q403 863 403 838 Q403 809 387 791 Q371 773 342 773 Z M521 773 Q497 773 484 786.5 Q471 800 471 825 Q471 853 487.5 871 Q504 889 532 889 Q556 889 569 876 Q582 863 582 838 Q582 809 566 791 Q550 773 521 773 Z M281 -12 Q180 -12 124.5 38.5 Q69 89 69 181 Q69 216 76 251 L168 724 L268 724 L175 248 Q169 215 169 189 Q169 132 198 104 Q227 76 286 76 Q362 76 409.5 121.5 Q457 167 474 255 L566 724 L666 724 L572 243 Q549 121 473.5 54.5 Q398 -12 281 -12 Z " />
<glyph glyph-name="uni01D9" unicode="&#x1d9;" horiz-adv-x="657" d="M408 908 L333 1034 L333 1044 L397 1044 L463 962 L560 1044 L627 1044 L626 1034 L500 908 L408 908 Z M342 773 Q318 773 305 786.5 Q292 800 292 825 Q292 853 308.5 871 Q325 889 353 889 Q377 889 390 876 Q403 863 403 838 Q403 809 387 791 Q371 773 342 773 Z M471 825 Q471 853 487.5 871 Q504 889 532 889 Q556 889 569 876 Q582 863 582 838 Q582 809 566 791 Q550 773 521 773 Q497 773 484 786.5 Q471 800 471 825 Z M666 724 L572 243 Q549 121 473.5 54.5 Q398 -12 281 -12 Q180 -12 124.5 38.5 Q69 89 69 181 Q69 216 76 251 L168 724 L268 724 L175 248 Q169 215 169 189 Q169 132 198 104 Q227 76 286 76 Q362 76 409.5 121.5 Q457 167 474 255 L566 724 L666 724 Z " />
<glyph glyph-name="uni01DB" unicode="&#x1db;" horiz-adv-x="657" d="M360 1032 L361 1042 L444 1042 L487 915 L486 905 L427 905 L360 1032 Z M342 773 Q318 773 305 786.5 Q292 800 292 825 Q292 853 308.5 871 Q325 889 353 889 Q377 889 390 876 Q403 863 403 838 Q403 809 387 791 Q371 773 342 773 Z M521 773 Q497 773 484 786.5 Q471 800 471 825 Q471 853 487.5 871 Q504 889 532 889 Q556 889 569 876 Q582 863 582 838 Q582 809 566 791 Q550 773 521 773 Z M281 -12 Q180 -12 124.5 38.5 Q69 89 69 181 Q69 216 76 251 L168 724 L268 724 L175 248 Q169 215 169 189 Q169 132 198 104 Q227 76 286 76 Q362 76 409.5 121.5 Q457 167 474 255 L566 724 L666 724 L572 243 Q549 121 473.5 54.5 Q398 -12 281 -12 Z " />
<glyph glyph-name="uni01D5" unicode="&#x1d5;" horiz-adv-x="657" d="M324 998 L616 998 L602 930 L311 930 L324 998 Z M342 773 Q318 773 305 786.5 Q292 800 292 825 Q292 853 308.5 871 Q325 889 353 889 Q377 889 390 876 Q403 863 403 838 Q403 809 387 791 Q371 773 342 773 Z M521 773 Q497 773 484 786.5 Q471 800 471 825 Q471 853 487.5 871 Q504 889 532 889 Q556 889 569 876 Q582 863 582 838 Q582 809 566 791 Q550 773 521 773 Z M281 -12 Q180 -12 124.5 38.5 Q69 89 69 181 Q69 216 76 251 L168 724 L268 724 L175 248 Q169 215 169 189 Q169 132 198 104 Q227 76 286 76 Q362 76 409.5 121.5 Q457 167 474 255 L566 724 L666 724 L572 243 Q549 121 473.5 54.5 Q398 -12 281 -12 Z " />
<glyph glyph-name="uni1EE4" unicode="&#x1ee4;" horiz-adv-x="657" d="M281 -12 Q180 -12 124.5 38.5 Q69 89 69 181 Q69 216 76 251 L168 724 L268 724 L175 248 Q169 215 169 189 Q169 132 198 104 Q227 76 286 76 Q362 76 409.5 121.5 Q457 167 474 255 L566 724 L666 724 L572 243 Q549 121 473.5 54.5 Q398 -12 281 -12 Z M241 -212 Q215 -212 200 -197.5 Q185 -183 185 -156 Q185 -125 203.5 -105 Q222 -85 254 -85 Q280 -85 295 -100 Q310 -115 310 -142 Q310 -173 291.5 -192.5 Q273 -212 241 -212 Z " />
<glyph glyph-name="Ugrave" unicode="&#xd9;" horiz-adv-x="657" d="M275 914 L276 926 L386 926 L494 793 L493 781 L416 781 L275 914 Z M281 -12 Q180 -12 124.5 38.5 Q69 89 69 181 Q69 216 76 251 L168 724 L268 724 L175 248 Q169 215 169 189 Q169 132 198 104 Q227 76 286 76 Q362 76 409.5 121.5 Q457 167 474 255 L566 724 L666 724 L572 243 Q549 121 473.5 54.5 Q398 -12 281 -12 Z " />
<glyph glyph-name="uni1EE6" unicode="&#x1ee6;" horiz-adv-x="657" d="M391 782 L391 793 Q391 820 404 832.5 Q417 845 439 853 Q452 857 458 861.5 Q464 866 464 874 Q464 887 443 887 Q414 887 373 865 L353 919 Q401 947 461 947 Q504 947 526.5 930.5 Q549 914 549 883 Q549 856 534.5 843 Q520 830 494 818 Q476 810 468 803.5 Q460 797 460 786 L460 779 L391 782 Z M281 -12 Q180 -12 124.5 38.5 Q69 89 69 181 Q69 216 76 251 L168 724 L268 724 L175 248 Q169 215 169 189 Q169 132 198 104 Q227 76 286 76 Q362 76 409.5 121.5 Q457 167 474 255 L566 724 L666 724 L572 243 Q549 121 473.5 54.5 Q398 -12 281 -12 Z " />
<glyph glyph-name="Uhorn" unicode="&#x1af;" horiz-adv-x="657" d="M800 862 Q800 831 794 796 Q783 737 751 706.5 Q719 676 655 668 L572 243 Q549 121 473.5 54.5 Q398 -12 281 -12 Q180 -12 124.5 38.5 Q69 89 69 181 Q69 216 76 251 L168 724 L268 724 L175 248 Q169 215 169 189 Q169 132 198 104 Q227 76 286 76 Q362 76 409.5 121.5 Q457 167 474 255 L566 724 L601 724 Q652 724 675.5 743.5 Q699 763 708 810 Q713 829 714 866 L800 862 Z " />
<glyph glyph-name="uni1EE8" unicode="&#x1ee8;" horiz-adv-x="657" d="M441 781 L353 781 L354 793 L523 926 L644 926 L643 914 L441 781 Z M800 862 Q800 831 794 796 Q783 737 751 706.5 Q719 676 655 668 L572 243 Q549 121 473.5 54.5 Q398 -12 281 -12 Q180 -12 124.5 38.5 Q69 89 69 181 Q69 216 76 251 L168 724 L268 724 L175 248 Q169 215 169 189 Q169 132 198 104 Q227 76 286 76 Q362 76 409.5 121.5 Q457 167 474 255 L566 724 L601 724 Q652 724 675.5 743.5 Q699 763 708 810 Q713 829 714 866 L800 862 Z " />
<glyph glyph-name="uni1EF0" unicode="&#x1ef0;" horiz-adv-x="657" d="M800 862 Q800 831 794 796 Q783 737 751 706.5 Q719 676 655 668 L572 243 Q549 121 473.5 54.5 Q398 -12 281 -12 Q180 -12 124.5 38.5 Q69 89 69 181 Q69 216 76 251 L168 724 L268 724 L175 248 Q169 215 169 189 Q169 132 198 104 Q227 76 286 76 Q362 76 409.5 121.5 Q457 167 474 255 L566 724 L601 724 Q652 724 675.5 743.5 Q699 763 708 810 Q713 829 714 866 L800 862 Z M241 -212 Q215 -212 200 -197.5 Q185 -183 185 -156 Q185 -125 203.5 -105 Q222 -85 254 -85 Q280 -85 295 -100 Q310 -115 310 -142 Q310 -173 291.5 -192.5 Q273 -212 241 -212 Z " />
<glyph glyph-name="uni1EEA" unicode="&#x1eea;" horiz-adv-x="657" d="M416 781 L275 914 L276 926 L386 926 L494 793 L493 781 L416 781 Z M800 862 Q800 831 794 796 Q783 737 751 706.5 Q719 676 655 668 L572 243 Q549 121 473.5 54.5 Q398 -12 281 -12 Q180 -12 124.5 38.5 Q69 89 69 181 Q69 216 76 251 L168 724 L268 724 L175 248 Q169 215 169 189 Q169 132 198 104 Q227 76 286 76 Q362 76 409.5 121.5 Q457 167 474 255 L566 724 L601 724 Q652 724 675.5 743.5 Q699 763 708 810 Q713 829 714 866 L800 862 Z " />
<glyph glyph-name="uni1EEC" unicode="&#x1eec;" horiz-adv-x="657" d="M443 887 Q414 887 373 865 L353 919 Q401 947 461 947 Q504 947 526.5 930.5 Q549 914 549 883 Q549 856 534.5 843 Q520 830 494 818 Q476 810 468 803.5 Q460 797 460 786 L460 779 L391 782 L391 793 Q391 820 404 832.5 Q417 845 439 853 Q452 857 458 861.5 Q464 866 464 874 Q464 887 443 887 Z M800 862 Q800 831 794 796 Q783 737 751 706.5 Q719 676 655 668 L572 243 Q549 121 473.5 54.5 Q398 -12 281 -12 Q180 -12 124.5 38.5 Q69 89 69 181 Q69 216 76 251 L168 724 L268 724 L175 248 Q169 215 169 189 Q169 132 198 104 Q227 76 286 76 Q362 76 409.5 121.5 Q457 167 474 255 L566 724 L601 724 Q652 724 675.5 743.5 Q699 763 708 810 Q713 829 714 866 L800 862 Z " />
<glyph glyph-name="uni1EEE" unicode="&#x1eee;" horiz-adv-x="657" d="M378 852 Q360 852 345 834 Q330 816 321 786 L264 794 Q277 859 307.5 892 Q338 925 381 925 Q408 925 426.5 914.5 Q445 904 464 885 Q477 873 486 867 Q495 861 506 861 Q524 861 539.5 878.5 Q555 896 564 927 L621 919 Q607 854 576.5 821 Q546 788 503 788 Q476 788 457.5 798.5 Q439 809 420 828 Q407 840 398 846 Q389 852 378 852 Z M800 862 Q800 831 794 796 Q783 737 751 706.5 Q719 676 655 668 L572 243 Q549 121 473.5 54.5 Q398 -12 281 -12 Q180 -12 124.5 38.5 Q69 89 69 181 Q69 216 76 251 L168 724 L268 724 L175 248 Q169 215 169 189 Q169 132 198 104 Q227 76 286 76 Q362 76 409.5 121.5 Q457 167 474 255 L566 724 L601 724 Q652 724 675.5 743.5 Q699 763 708 810 Q713 829 714 866 L800 862 Z " />
<glyph glyph-name="Uhungarumlaut" unicode="&#x170;" horiz-adv-x="657" d="M295 793 L414 926 L516 926 L515 914 L366 781 L294 781 L295 793 Z M453 793 L571 926 L675 926 L674 914 L524 781 L452 781 L453 793 Z M281 -12 Q180 -12 124.5 38.5 Q69 89 69 181 Q69 216 76 251 L168 724 L268 724 L175 248 Q169 215 169 189 Q169 132 198 104 Q227 76 286 76 Q362 76 409.5 121.5 Q457 167 474 255 L566 724 L666 724 L572 243 Q549 121 473.5 54.5 Q398 -12 281 -12 Z " />
<glyph glyph-name="Umacron" unicode="&#x16a;" horiz-adv-x="657" d="M301 880 L593 880 L579 810 L288 810 L301 880 Z M281 -12 Q180 -12 124.5 38.5 Q69 89 69 181 Q69 216 76 251 L168 724 L268 724 L175 248 Q169 215 169 189 Q169 132 198 104 Q227 76 286 76 Q362 76 409.5 121.5 Q457 167 474 255 L566 724 L666 724 L572 243 Q549 121 473.5 54.5 Q398 -12 281 -12 Z " />
<glyph glyph-name="Uogonek" unicode="&#x172;" horiz-adv-x="657" d="M666 724 L572 243 Q558 170 526 119.5 Q494 69 439 32 L407 10 Q363 -20 335.5 -57 Q308 -94 308 -124 Q308 -154 342 -154 Q371 -154 405 -136 L425 -195 Q402 -208 374.5 -215 Q347 -222 321 -222 Q275 -222 249 -200.5 Q223 -179 223 -141 Q223 -109 242 -75 Q261 -41 295 -12 L281 -12 Q180 -12 124.5 38.5 Q69 89 69 181 Q69 216 76 251 L168 724 L268 724 L175 248 Q169 215 169 189 Q169 76 285 76 Q361 76 409 122 Q457 168 474 255 L566 724 L666 724 Z " />
<glyph glyph-name="Uring" unicode="&#x16e;" horiz-adv-x="657" d="M423 768 Q375 768 349.5 791 Q324 814 324 858 Q324 914 364.5 952 Q405 990 469 990 Q517 990 543 967 Q569 944 569 901 Q569 844 528.5 806 Q488 768 423 768 Z M434 820 Q469 820 486 841.5 Q503 863 503 893 Q503 916 492.5 927 Q482 938 459 938 Q424 938 407 916.5 Q390 895 390 865 Q390 820 434 820 Z M281 -12 Q180 -12 124.5 38.5 Q69 89 69 181 Q69 216 76 251 L168 724 L268 724 L175 248 Q169 215 169 189 Q169 132 198 104 Q227 76 286 76 Q362 76 409.5 121.5 Q457 167 474 255 L566 724 L666 724 L572 243 Q549 121 473.5 54.5 Q398 -12 281 -12 Z " />
<glyph glyph-name="Utilde" unicode="&#x168;" horiz-adv-x="657" d="M264 794 Q277 859 307.5 892 Q338 925 381 925 Q408 925 426.5 914.5 Q445 904 464 885 Q477 873 486 867 Q495 861 506 861 Q524 861 539.5 878.5 Q555 896 564 927 L621 919 Q607 854 576.5 821 Q546 788 503 788 Q476 788 457.5 798.5 Q439 809 420 828 Q407 840 398 846 Q389 852 378 852 Q360 852 345 834 Q330 816 321 786 L264 794 Z M281 -12 Q180 -12 124.5 38.5 Q69 89 69 181 Q69 216 76 251 L168 724 L268 724 L175 248 Q169 215 169 189 Q169 132 198 104 Q227 76 286 76 Q362 76 409.5 121.5 Q457 167 474 255 L566 724 L666 724 L572 243 Q549 121 473.5 54.5 Q398 -12 281 -12 Z " />
<glyph glyph-name="V" unicode="V" horiz-adv-x="613" d="M672 724 L309 0 L199 0 L118 724 L222 724 L273 110 L565 724 L672 724 Z " />
<glyph glyph-name="W" unicode="W" horiz-adv-x="867" d="M924 724 L610 0 L500 0 L492 576 L261 0 L150 0 L120 724 L221 724 L228 122 L465 723 L574 723 L577 122 L820 724 L924 724 Z " />
<glyph glyph-name="Wacute" unicode="&#x1e82;" horiz-adv-x="867" d="M545 781 L457 781 L458 793 L627 926 L748 926 L747 914 L545 781 Z M924 724 L610 0 L500 0 L492 576 L261 0 L150 0 L120 724 L221 724 L228 122 L465 723 L574 723 L577 122 L820 724 L924 724 Z " />
<glyph glyph-name="Wcircumflex" unicode="&#x174;" horiz-adv-x="867" d="M443 781 L368 781 L369 793 L508 926 L608 926 L695 793 L694 781 L621 781 L549 869 L443 781 Z M924 724 L610 0 L500 0 L492 576 L261 0 L150 0 L120 724 L221 724 L228 122 L465 723 L574 723 L577 122 L820 724 L924 724 Z " />
<glyph glyph-name="Wdieresis" unicode="&#x1e84;" horiz-adv-x="867" d="M447 792 Q422 792 408.5 806 Q395 820 395 845 Q395 874 412 893 Q429 912 459 912 Q483 912 496.5 898 Q510 884 510 859 Q510 829 493 810.5 Q476 792 447 792 Z M633 792 Q608 792 594.5 806 Q581 820 581 845 Q581 874 598 893 Q615 912 645 912 Q669 912 682.5 898 Q696 884 696 859 Q696 829 679 810.5 Q662 792 633 792 Z M924 724 L610 0 L500 0 L492 576 L261 0 L150 0 L120 724 L221 724 L228 122 L465 723 L574 723 L577 122 L820 724 L924 724 Z " />
<glyph glyph-name="Wgrave" unicode="&#x1e80;" horiz-adv-x="867" d="M520 781 L379 914 L380 926 L490 926 L598 793 L597 781 L520 781 Z M924 724 L610 0 L500 0 L492 576 L261 0 L150 0 L120 724 L221 724 L228 122 L465 723 L574 723 L577 122 L820 724 L924 724 Z " />
<glyph glyph-name="X" unicode="X" horiz-adv-x="580" d="M365 366 L504 0 L396 0 L294 287 L84 0 L-32 0 L253 368 L119 724 L227 724 L324 448 L530 724 L646 724 L365 366 Z " />
<glyph glyph-name="Y" unicode="Y" horiz-adv-x="569" d="M636 724 L329 249 L280 0 L180 0 L229 253 L110 724 L214 724 L298 359 L525 724 L636 724 Z " />
<glyph glyph-name="Yacute" unicode="&#xdd;" horiz-adv-x="569" d="M395 781 L307 781 L308 793 L477 926 L598 926 L597 914 L395 781 Z M636 724 L329 249 L280 0 L180 0 L229 253 L110 724 L214 724 L298 359 L525 724 L636 724 Z " />
<glyph glyph-name="Ycircumflex" unicode="&#x176;" horiz-adv-x="569" d="M293 781 L218 781 L219 793 L358 926 L458 926 L545 793 L544 781 L471 781 L399 869 L293 781 Z M636 724 L329 249 L280 0 L180 0 L229 253 L110 724 L214 724 L298 359 L525 724 L636 724 Z " />
<glyph glyph-name="Ydieresis" unicode="&#x178;" horiz-adv-x="569" d="M298 792 Q273 792 259.5 806 Q246 820 246 845 Q246 874 263 893 Q280 912 310 912 Q334 912 347.5 898 Q361 884 361 859 Q361 829 344 810.5 Q327 792 298 792 Z M484 792 Q459 792 445.5 806 Q432 820 432 845 Q432 874 449 893 Q466 912 496 912 Q520 912 533.5 898 Q547 884 547 859 Q547 829 530 810.5 Q513 792 484 792 Z M636 724 L329 249 L280 0 L180 0 L229 253 L110 724 L214 724 L298 359 L525 724 L636 724 Z " />
<glyph glyph-name="uni1E8E" unicode="&#x1e8e;" horiz-adv-x="569" d="M390 795 Q363 795 348 809.5 Q333 824 333 851 Q333 882 351.5 902 Q370 922 402 922 Q429 922 443.5 907.5 Q458 893 458 865 Q458 834 440 814.5 Q422 795 390 795 Z M636 724 L329 249 L280 0 L180 0 L229 253 L110 724 L214 724 L298 359 L525 724 L636 724 Z " />
<glyph glyph-name="uni1EF4" unicode="&#x1ef4;" horiz-adv-x="569" d="M636 724 L329 249 L280 0 L180 0 L229 253 L110 724 L214 724 L298 359 L525 724 L636 724 Z M195 -212 Q169 -212 154 -197.5 Q139 -183 139 -156 Q139 -125 157.5 -105 Q176 -85 208 -85 Q234 -85 249 -100 Q264 -115 264 -142 Q264 -173 245.5 -192.5 Q227 -212 195 -212 Z " />
<glyph glyph-name="Ygrave" unicode="&#x1ef2;" horiz-adv-x="569" d="M370 781 L229 914 L230 926 L340 926 L448 793 L447 781 L370 781 Z M636 724 L329 249 L280 0 L180 0 L229 253 L110 724 L214 724 L298 359 L525 724 L636 724 Z " />
<glyph glyph-name="uni1EF6" unicode="&#x1ef6;" horiz-adv-x="569" d="M397 887 Q368 887 327 865 L307 919 Q355 947 415 947 Q458 947 480.5 930.5 Q503 914 503 883 Q503 856 488.5 843 Q474 830 448 818 Q430 810 422 803.5 Q414 797 414 786 L414 779 L345 782 L345 793 Q345 820 358 832.5 Q371 845 393 853 Q406 857 412 861.5 Q418 866 418 874 Q418 887 397 887 Z M636 724 L329 249 L280 0 L180 0 L229 253 L110 724 L214 724 L298 359 L525 724 L636 724 Z " />
<glyph glyph-name="uni1EF8" unicode="&#x1ef8;" horiz-adv-x="569" d="M332 852 Q314 852 299 834 Q284 816 275 786 L218 794 Q231 859 261.5 892 Q292 925 335 925 Q362 925 380.5 914.5 Q399 904 418 885 Q431 873 440 867 Q449 861 460 861 Q478 861 493.5 878.5 Q509 896 518 927 L575 919 Q561 854 530.5 821 Q500 788 457 788 Q430 788 411.5 798.5 Q393 809 374 828 Q361 840 352 846 Q343 852 332 852 Z M636 724 L329 249 L280 0 L180 0 L229 253 L110 724 L214 724 L298 359 L525 724 L636 724 Z " />
<glyph glyph-name="Z" unicode="Z" horiz-adv-x="526" d="M556 637 L117 87 L454 87 L437 0 L-17 0 L-1 88 L439 637 L117 637 L134 724 L573 724 L556 637 Z " />
<glyph glyph-name="Zacute" unicode="&#x179;" horiz-adv-x="526" d="M578 926 L577 914 L375 781 L287 781 L288 793 L457 926 L578 926 Z M134 724 L573 724 L556 637 L117 87 L454 87 L437 0 L-17 0 L-1 88 L439 637 L117 637 L134 724 Z " />
<glyph glyph-name="Zcaron" unicode="&#x17d;" horiz-adv-x="526" d="M313 781 L226 914 L227 926 L300 926 L372 838 L478 926 L553 926 L552 914 L413 781 L313 781 Z M556 637 L117 87 L454 87 L437 0 L-17 0 L-1 88 L439 637 L117 637 L134 724 L573 724 L556 637 Z " />
<glyph glyph-name="Zdotaccent" unicode="&#x17b;" horiz-adv-x="526" d="M369 795 Q342 795 327 809.5 Q312 824 312 851 Q312 882 330.5 902 Q349 922 381 922 Q408 922 422.5 907.5 Q437 893 437 865 Q437 834 419 814.5 Q401 795 369 795 Z M556 637 L117 87 L454 87 L437 0 L-17 0 L-1 88 L439 637 L117 637 L134 724 L573 724 L556 637 Z " />
<glyph glyph-name="uni1E92" unicode="&#x1e92;" horiz-adv-x="526" d="M556 637 L117 87 L454 87 L437 0 L-17 0 L-1 88 L439 637 L117 637 L134 724 L573 724 L556 637 Z M178 -212 Q152 -212 137 -197.5 Q122 -183 122 -156 Q122 -125 140.5 -105 Q159 -85 191 -85 Q217 -85 232 -100 Q247 -115 247 -142 Q247 -173 228.5 -192.5 Q210 -212 178 -212 Z " />
<glyph glyph-name="a" unicode="a" horiz-adv-x="549" d="M522 539 L417 0 L329 0 L342 67 Q275 -12 183 -12 Q112 -12 74 36 Q36 84 36 172 Q36 269 65.5 356 Q95 443 153.5 497 Q212 551 294 551 Q334 551 365 534.5 Q396 518 413 487 L424 539 L522 539 Z M223 79 Q255 79 284.5 93 Q314 107 345 138 L399 413 Q382 437 355.5 450 Q329 463 298 463 Q245 463 208.5 421.5 Q172 380 154 316.5 Q136 253 136 188 Q136 79 223 79 Z " />
<glyph glyph-name="aacute" unicode="&#xe1;" horiz-adv-x="549" d="M522 539 L417 0 L329 0 L342 67 Q275 -12 183 -12 Q112 -12 74 36 Q36 84 36 172 Q36 269 65.5 356 Q95 443 153.5 497 Q212 551 294 551 Q334 551 365 534.5 Q396 518 413 487 L424 539 L522 539 Z M223 79 Q255 79 284.5 93 Q314 107 345 138 L399 413 Q382 437 355.5 450 Q329 463 298 463 Q245 463 208.5 421.5 Q172 380 154 316.5 Q136 253 136 188 Q136 79 223 79 Z M287 625 L411 784 L520 784 L519 774 L362 615 L286 615 L287 625 Z " />
<glyph glyph-name="abreve" unicode="&#x103;" horiz-adv-x="549" d="M522 539 L417 0 L329 0 L342 67 Q275 -12 183 -12 Q112 -12 74 36 Q36 84 36 172 Q36 269 65.5 356 Q95 443 153.5 497 Q212 551 294 551 Q334 551 365 534.5 Q396 518 413 487 L424 539 L522 539 Z M223 79 Q255 79 284.5 93 Q314 107 345 138 L399 413 Q382 437 355.5 450 Q329 463 298 463 Q245 463 208.5 421.5 Q172 380 154 316.5 Q136 253 136 188 Q136 79 223 79 Z M349 614 Q290 614 258 646 Q226 678 226 735 Q226 752 229 770 L288 766 Q286 727 302 708 Q318 689 353 689 Q391 689 418.5 710 Q446 731 459 770 L516 766 Q499 692 456 653 Q413 614 349 614 Z " />
<glyph glyph-name="uni1EAF" unicode="&#x1eaf;" horiz-adv-x="549" d="M395 751 L329 751 L330 761 L429 888 L519 888 L518 878 L395 751 Z M348 614 Q290 614 258 644.5 Q226 675 226 729 Q226 744 229 762 L285 758 Q280 681 351 681 Q390 681 417.5 702 Q445 723 459 762 L513 758 Q496 689 454 651.5 Q412 614 348 614 Z M522 539 L417 0 L329 0 L342 67 Q275 -12 183 -12 Q112 -12 74 36 Q36 84 36 172 Q36 269 65.5 356 Q95 443 153.5 497 Q212 551 294 551 Q334 551 365 534.5 Q396 518 413 487 L424 539 L522 539 Z M223 79 Q255 79 284.5 93 Q314 107 345 138 L399 413 Q382 437 355.5 450 Q329 463 298 463 Q245 463 208.5 421.5 Q172 380 154 316.5 Q136 253 136 188 Q136 79 223 79 Z " />
<glyph glyph-name="uni1EB7" unicode="&#x1eb7;" horiz-adv-x="549" d="M522 539 L417 0 L329 0 L342 67 Q275 -12 183 -12 Q112 -12 74 36 Q36 84 36 172 Q36 269 65.5 356 Q95 443 153.5 497 Q212 551 294 551 Q334 551 365 534.5 Q396 518 413 487 L424 539 L522 539 Z M223 79 Q255 79 284.5 93 Q314 107 345 138 L399 413 Q382 437 355.5 450 Q329 463 298 463 Q245 463 208.5 421.5 Q172 380 154 316.5 Q136 253 136 188 Q136 79 223 79 Z M182 -212 Q156 -212 141 -197.5 Q126 -183 126 -156 Q126 -125 144.5 -105 Q163 -85 195 -85 Q221 -85 236 -100 Q251 -115 251 -142 Q251 -173 232.5 -192.5 Q214 -212 182 -212 Z M349 614 Q290 614 258 646 Q226 678 226 735 Q226 752 229 770 L288 766 Q286 727 302 708 Q318 689 353 689 Q391 689 418.5 710 Q446 731 459 770 L516 766 Q499 692 456 653 Q413 614 349 614 Z " />
<glyph glyph-name="uni1EB1" unicode="&#x1eb1;" horiz-adv-x="549" d="M343 752 L276 879 L277 889 L360 889 L403 762 L402 752 L343 752 Z M348 614 Q290 614 258 644.5 Q226 675 226 729 Q226 744 229 762 L285 758 Q280 681 351 681 Q390 681 417.5 702 Q445 723 459 762 L513 758 Q496 689 454 651.5 Q412 614 348 614 Z M522 539 L417 0 L329 0 L342 67 Q275 -12 183 -12 Q112 -12 74 36 Q36 84 36 172 Q36 269 65.5 356 Q95 443 153.5 497 Q212 551 294 551 Q334 551 365 534.5 Q396 518 413 487 L424 539 L522 539 Z M223 79 Q255 79 284.5 93 Q314 107 345 138 L399 413 Q382 437 355.5 450 Q329 463 298 463 Q245 463 208.5 421.5 Q172 380 154 316.5 Q136 253 136 188 Q136 79 223 79 Z " />
<glyph glyph-name="uni1EB3" unicode="&#x1eb3;" horiz-adv-x="549" d="M385 865 Q360 865 326 848 L308 897 Q350 921 402 921 Q442 921 463 904.5 Q484 888 484 856 Q484 829 471.5 816 Q459 803 436 793 Q418 784 409.5 776.5 Q401 769 401 755 L401 751 L337 755 L337 762 Q337 791 348.5 804 Q360 817 381 826 Q394 833 399.5 837.5 Q405 842 405 851 Q405 865 385 865 Z M348 614 Q290 614 258 644.5 Q226 675 226 729 Q226 744 229 762 L285 758 Q280 681 351 681 Q390 681 417.5 702 Q445 723 459 762 L513 758 Q496 689 454 651.5 Q412 614 348 614 Z M522 539 L417 0 L329 0 L342 67 Q275 -12 183 -12 Q112 -12 74 36 Q36 84 36 172 Q36 269 65.5 356 Q95 443 153.5 497 Q212 551 294 551 Q334 551 365 534.5 Q396 518 413 487 L424 539 L522 539 Z M223 79 Q255 79 284.5 93 Q314 107 345 138 L399 413 Q382 437 355.5 450 Q329 463 298 463 Q245 463 208.5 421.5 Q172 380 154 316.5 Q136 253 136 188 Q136 79 223 79 Z " />
<glyph glyph-name="uni1EB5" unicode="&#x1eb5;" horiz-adv-x="549" d="M339 862 Q320 862 304.5 846 Q289 830 281 801 L230 809 Q241 866 269.5 896.5 Q298 927 341 927 Q368 927 382 917.5 Q396 908 409 891 Q419 879 426 873.5 Q433 868 444 868 Q463 868 478.5 884 Q494 900 502 929 L553 922 Q542 864 513.5 833.5 Q485 803 441 803 Q415 803 401 812.5 Q387 822 374 839 Q364 851 357 856.5 Q350 862 339 862 Z M348 614 Q290 614 258 644.5 Q226 675 226 729 Q226 744 229 762 L285 758 Q280 681 351 681 Q390 681 417.5 702 Q445 723 459 762 L513 758 Q496 689 454 651.5 Q412 614 348 614 Z M424 539 L522 539 L417 0 L329 0 L342 67 Q275 -12 183 -12 Q112 -12 74 36 Q36 84 36 172 Q36 269 65.5 356 Q95 443 153.5 497 Q212 551 294 551 Q334 551 365 534.5 Q396 518 413 487 L424 539 Z M223 79 Q255 79 284.5 93 Q314 107 345 138 L399 413 Q382 437 355.5 450 Q329 463 298 463 Q245 463 208.5 421.5 Q172 380 154 316.5 Q136 253 136 188 Q136 79 223 79 Z " />
<glyph glyph-name="uni01CE" unicode="&#x1ce;" horiz-adv-x="549" d="M522 539 L417 0 L329 0 L342 67 Q275 -12 183 -12 Q112 -12 74 36 Q36 84 36 172 Q36 269 65.5 356 Q95 443 153.5 497 Q212 551 294 551 Q334 551 365 534.5 Q396 518 413 487 L424 539 L522 539 Z M223 79 Q255 79 284.5 93 Q314 107 345 138 L399 413 Q382 437 355.5 450 Q329 463 298 463 Q245 463 208.5 421.5 Q172 380 154 316.5 Q136 253 136 188 Q136 79 223 79 Z M521 784 L520 774 L391 615 L296 615 L229 774 L230 784 L296 784 L353 680 L451 784 L521 784 Z " />
<glyph glyph-name="acircumflex" unicode="&#xe2;" horiz-adv-x="549" d="M522 539 L417 0 L329 0 L342 67 Q275 -12 183 -12 Q112 -12 74 36 Q36 84 36 172 Q36 269 65.5 356 Q95 443 153.5 497 Q212 551 294 551 Q334 551 365 534.5 Q396 518 413 487 L424 539 L522 539 Z M223 79 Q255 79 284.5 93 Q314 107 345 138 L399 413 Q382 437 355.5 450 Q329 463 298 463 Q245 463 208.5 421.5 Q172 380 154 316.5 Q136 253 136 188 Q136 79 223 79 Z M489 625 L488 615 L422 615 L364 719 L266 615 L197 615 L198 625 L326 784 L421 784 L489 625 Z " />
<glyph glyph-name="uni1EA5" unicode="&#x1ea5;" horiz-adv-x="549" d="M661 855 L660 845 L537 718 L471 718 L472 728 L571 855 L661 855 Z M263 615 L194 615 L195 625 L322 764 L417 764 L490 625 L489 615 L423 615 L361 706 L263 615 Z M424 539 L522 539 L417 0 L329 0 L342 67 Q275 -12 183 -12 Q112 -12 74 36 Q36 84 36 172 Q36 269 65.5 356 Q95 443 153.5 497 Q212 551 294 551 Q334 551 365 534.5 Q396 518 413 487 L424 539 Z M223 79 Q255 79 284.5 93 Q314 107 345 138 L399 413 Q382 437 355.5 450 Q329 463 298 463 Q245 463 208.5 421.5 Q172 380 154 316.5 Q136 253 136 188 Q136 79 223 79 Z " />
<glyph glyph-name="uni1EAD" unicode="&#x1ead;" horiz-adv-x="549" d="M522 539 L417 0 L329 0 L342 67 Q275 -12 183 -12 Q112 -12 74 36 Q36 84 36 172 Q36 269 65.5 356 Q95 443 153.5 497 Q212 551 294 551 Q334 551 365 534.5 Q396 518 413 487 L424 539 L522 539 Z M223 79 Q255 79 284.5 93 Q314 107 345 138 L399 413 Q382 437 355.5 450 Q329 463 298 463 Q245 463 208.5 421.5 Q172 380 154 316.5 Q136 253 136 188 Q136 79 223 79 Z M182 -212 Q156 -212 141 -197.5 Q126 -183 126 -156 Q126 -125 144.5 -105 Q163 -85 195 -85 Q221 -85 236 -100 Q251 -115 251 -142 Q251 -173 232.5 -192.5 Q214 -212 182 -212 Z M489 625 L488 615 L422 615 L364 719 L266 615 L197 615 L198 625 L326 784 L421 784 L489 625 Z " />
<glyph glyph-name="uni1EA7" unicode="&#x1ea7;" horiz-adv-x="549" d="M188 719 L121 846 L122 856 L205 856 L248 729 L247 719 L188 719 Z M195 625 L322 764 L417 764 L490 625 L489 615 L423 615 L361 706 L263 615 L194 615 L195 625 Z M522 539 L417 0 L329 0 L342 67 Q275 -12 183 -12 Q112 -12 74 36 Q36 84 36 172 Q36 269 65.5 356 Q95 443 153.5 497 Q212 551 294 551 Q334 551 365 534.5 Q396 518 413 487 L424 539 L522 539 Z M223 79 Q255 79 284.5 93 Q314 107 345 138 L399 413 Q382 437 355.5 450 Q329 463 298 463 Q245 463 208.5 421.5 Q172 380 154 316.5 Q136 253 136 188 Q136 79 223 79 Z " />
<glyph glyph-name="uni1EA9" unicode="&#x1ea9;" horiz-adv-x="549" d="M544 888 Q584 888 605 871.5 Q626 855 626 823 Q626 796 613.5 783 Q601 770 578 760 Q560 751 551.5 743.5 Q543 736 543 722 L543 718 L479 722 L479 729 Q479 758 490.5 771 Q502 784 523 793 Q536 800 541.5 804.5 Q547 809 547 818 Q547 832 527 832 Q502 832 468 815 L450 864 Q492 888 544 888 Z M263 615 L194 615 L195 625 L322 764 L417 764 L490 625 L489 615 L423 615 L361 706 L263 615 Z M424 539 L522 539 L417 0 L329 0 L342 67 Q275 -12 183 -12 Q112 -12 74 36 Q36 84 36 172 Q36 269 65.5 356 Q95 443 153.5 497 Q212 551 294 551 Q334 551 365 534.5 Q396 518 413 487 L424 539 Z M223 79 Q255 79 284.5 93 Q314 107 345 138 L399 413 Q382 437 355.5 450 Q329 463 298 463 Q245 463 208.5 421.5 Q172 380 154 316.5 Q136 253 136 188 Q136 79 223 79 Z " />
<glyph glyph-name="uni1EAB" unicode="&#x1eab;" horiz-adv-x="549" d="M337 855 Q318 855 302.5 839 Q287 823 279 794 L228 802 Q239 859 267.5 889.5 Q296 920 339 920 Q366 920 380 910.5 Q394 901 407 884 Q417 872 424 866.5 Q431 861 442 861 Q461 861 476.5 877 Q492 893 500 922 L551 915 Q540 857 511.5 826.5 Q483 796 439 796 Q413 796 399 805.5 Q385 815 372 832 Q362 844 355 849.5 Q348 855 337 855 Z M263 615 L194 615 L195 625 L322 764 L417 764 L490 625 L489 615 L423 615 L361 706 L263 615 Z M424 539 L522 539 L417 0 L329 0 L342 67 Q275 -12 183 -12 Q112 -12 74 36 Q36 84 36 172 Q36 269 65.5 356 Q95 443 153.5 497 Q212 551 294 551 Q334 551 365 534.5 Q396 518 413 487 L424 539 Z M223 79 Q255 79 284.5 93 Q314 107 345 138 L399 413 Q382 437 355.5 450 Q329 463 298 463 Q245 463 208.5 421.5 Q172 380 154 316.5 Q136 253 136 188 Q136 79 223 79 Z " />
<glyph glyph-name="adieresis" unicode="&#xe4;" horiz-adv-x="549" d="M522 539 L417 0 L329 0 L342 67 Q275 -12 183 -12 Q112 -12 74 36 Q36 84 36 172 Q36 269 65.5 356 Q95 443 153.5 497 Q212 551 294 551 Q334 551 365 534.5 Q396 518 413 487 L424 539 L522 539 Z M223 79 Q255 79 284.5 93 Q314 107 345 138 L399 413 Q382 437 355.5 450 Q329 463 298 463 Q245 463 208.5 421.5 Q172 380 154 316.5 Q136 253 136 188 Q136 79 223 79 Z M260 627 Q235 627 221.5 641 Q208 655 208 680 Q208 709 225 728 Q242 747 272 747 Q296 747 309.5 733 Q323 719 323 694 Q323 664 306 645.5 Q289 627 260 627 Z M443 627 Q418 627 404.5 641 Q391 655 391 680 Q391 709 408 728 Q425 747 455 747 Q479 747 492.5 733 Q506 719 506 694 Q506 664 489 645.5 Q472 627 443 627 Z " />
<glyph glyph-name="uni1EA1" unicode="&#x1ea1;" horiz-adv-x="549" d="M522 539 L417 0 L329 0 L342 67 Q275 -12 183 -12 Q112 -12 74 36 Q36 84 36 172 Q36 269 65.5 356 Q95 443 153.5 497 Q212 551 294 551 Q334 551 365 534.5 Q396 518 413 487 L424 539 L522 539 Z M223 79 Q255 79 284.5 93 Q314 107 345 138 L399 413 Q382 437 355.5 450 Q329 463 298 463 Q245 463 208.5 421.5 Q172 380 154 316.5 Q136 253 136 188 Q136 79 223 79 Z M182 -212 Q156 -212 141 -197.5 Q126 -183 126 -156 Q126 -125 144.5 -105 Q163 -85 195 -85 Q221 -85 236 -100 Q251 -115 251 -142 Q251 -173 232.5 -192.5 Q214 -212 182 -212 Z " />
<glyph glyph-name="agrave" unicode="&#xe0;" horiz-adv-x="549" d="M522 539 L417 0 L329 0 L342 67 Q275 -12 183 -12 Q112 -12 74 36 Q36 84 36 172 Q36 269 65.5 356 Q95 443 153.5 497 Q212 551 294 551 Q334 551 365 534.5 Q396 518 413 487 L424 539 L522 539 Z M223 79 Q255 79 284.5 93 Q314 107 345 138 L399 413 Q382 437 355.5 450 Q329 463 298 463 Q245 463 208.5 421.5 Q172 380 154 316.5 Q136 253 136 188 Q136 79 223 79 Z M244 774 L245 784 L346 784 L402 625 L401 615 L332 615 L244 774 Z " />
<glyph glyph-name="uni1EA3" unicode="&#x1ea3;" horiz-adv-x="549" d="M522 539 L417 0 L329 0 L342 67 Q275 -12 183 -12 Q112 -12 74 36 Q36 84 36 172 Q36 269 65.5 356 Q95 443 153.5 497 Q212 551 294 551 Q334 551 365 534.5 Q396 518 413 487 L424 539 L522 539 Z M223 79 Q255 79 284.5 93 Q314 107 345 138 L399 413 Q382 437 355.5 450 Q329 463 298 463 Q245 463 208.5 421.5 Q172 380 154 316.5 Q136 253 136 188 Q136 79 223 79 Z M309 616 L309 627 Q309 657 322 672.5 Q335 688 358 703 Q371 712 377 717.5 Q383 723 383 731 Q383 746 362 746 Q334 746 300 727 L281 780 Q325 805 380 805 Q463 805 463 739 Q463 712 450.5 697.5 Q438 683 415 670 Q395 658 385.5 648 Q376 638 376 621 L376 613 L309 616 Z " />
<glyph glyph-name="uni0251" unicode="&#x251;" horiz-adv-x="549" d="M522 539 L417 0 L329 0 L342 67 Q275 -12 183 -12 Q112 -12 74 36 Q36 84 36 172 Q36 269 65.5 356 Q95 443 153.5 497 Q212 551 294 551 Q334 551 365 534.5 Q396 518 413 487 L424 539 L522 539 Z M223 79 Q255 79 284.5 93 Q314 107 345 138 L399 413 Q382 437 355.5 450 Q329 463 298 463 Q245 463 208.5 421.5 Q172 380 154 316.5 Q136 253 136 188 Q136 79 223 79 Z " />
<glyph glyph-name="amacron" unicode="&#x101;" horiz-adv-x="549" d="M522 539 L417 0 L329 0 L342 67 Q275 -12 183 -12 Q112 -12 74 36 Q36 84 36 172 Q36 269 65.5 356 Q95 443 153.5 497 Q212 551 294 551 Q334 551 365 534.5 Q396 518 413 487 L424 539 L522 539 Z M223 79 Q255 79 284.5 93 Q314 107 345 138 L399 413 Q382 437 355.5 450 Q329 463 298 463 Q245 463 208.5 421.5 Q172 380 154 316.5 Q136 253 136 188 Q136 79 223 79 Z M215 710 L507 710 L493 640 L202 640 L215 710 Z " />
<glyph glyph-name="aogonek" unicode="&#x105;" horiz-adv-x="544" d="M342 -154 Q372 -154 406 -136 L425 -195 Q403 -208 375.5 -215 Q348 -222 322 -222 Q275 -222 249 -200.5 Q223 -179 223 -141 Q223 -100 251 -62 Q279 -24 330 2 L343 69 Q274 -12 182 -12 Q112 -12 74 36 Q36 84 36 172 Q36 269 65 356 Q94 443 152.5 497 Q211 551 293 551 Q333 551 364 534.5 Q395 518 413 487 L423 539 L521 539 L416 0 L417 0 Q370 -27 339.5 -60.5 Q309 -94 309 -124 Q309 -154 342 -154 Z M222 79 Q286 79 345 138 L399 413 Q382 437 355.5 450 Q329 463 297 463 Q244 463 207.5 421.5 Q171 380 153.5 316.5 Q136 253 136 188 Q136 79 222 79 Z " />
<glyph glyph-name="aring" unicode="&#xe5;" horiz-adv-x="549" d="M522 539 L417 0 L329 0 L342 67 Q275 -12 183 -12 Q112 -12 74 36 Q36 84 36 172 Q36 269 65.5 356 Q95 443 153.5 497 Q212 551 294 551 Q334 551 365 534.5 Q396 518 413 487 L424 539 L522 539 Z M223 79 Q255 79 284.5 93 Q314 107 345 138 L399 413 Q382 437 355.5 450 Q329 463 298 463 Q245 463 208.5 421.5 Q172 380 154 316.5 Q136 253 136 188 Q136 79 223 79 Z M338 603 Q291 603 266 625 Q241 647 241 688 Q241 749 279 787 Q317 825 384 825 Q431 825 456.5 803 Q482 781 482 740 Q482 679 444 641 Q406 603 338 603 Z M349 654 Q384 654 401 676 Q418 698 418 730 Q418 774 374 774 Q339 774 322 752 Q305 730 305 698 Q305 654 349 654 Z " />
<glyph glyph-name="atilde" unicode="&#xe3;" horiz-adv-x="549" d="M522 539 L417 0 L329 0 L342 67 Q275 -12 183 -12 Q112 -12 74 36 Q36 84 36 172 Q36 269 65.5 356 Q95 443 153.5 497 Q212 551 294 551 Q334 551 365 534.5 Q396 518 413 487 L424 539 L522 539 Z M223 79 Q255 79 284.5 93 Q314 107 345 138 L399 413 Q382 437 355.5 450 Q329 463 298 463 Q245 463 208.5 421.5 Q172 380 154 316.5 Q136 253 136 188 Q136 79 223 79 Z M178 624 Q191 689 221.5 722 Q252 755 295 755 Q322 755 340.5 744.5 Q359 734 378 715 Q391 703 400 697 Q409 691 420 691 Q438 691 453.5 708.5 Q469 726 478 757 L535 749 Q521 684 490.5 651 Q460 618 417 618 Q390 618 371.5 628.5 Q353 639 334 658 Q321 670 312 676 Q303 682 292 682 Q274 682 259 664 Q244 646 235 616 L178 624 Z " />
<glyph glyph-name="ae" unicode="&#xe6;" horiz-adv-x="782" d="M424 241 Q422 213 422 200 Q422 78 533 78 Q595 78 664 115 L694 40 Q615 -11 514 -11 Q406 -11 357 62 Q273 -12 180 -12 Q109 -12 71 36 Q33 84 33 172 Q33 267 70 354.5 Q107 442 176 496.5 Q245 551 337 551 Q417 551 459 495 Q529 551 620 551 Q688 551 728.5 514.5 Q769 478 769 415 Q769 368 745 327 Q721 286 676 264 Q627 241 535 241 L424 241 Z M607 465 Q551 465 507.5 422 Q464 379 441 313 L535 313 Q604 313 635 333 Q652 344 661.5 362.5 Q671 381 671 403 Q671 433 654 449 Q637 465 607 465 Z M220 79 Q277 79 331 127 Q324 160 324 190 Q324 261 346.5 328 Q369 395 410 446 Q383 463 341 463 Q278 463 231 422 Q184 381 158.5 317 Q133 253 133 188 Q133 79 220 79 Z " />
<glyph glyph-name="b" unicode="b" horiz-adv-x="550" d="M365 551 Q436 551 475 502.5 Q514 454 514 366 Q514 269 484.5 182.5 Q455 96 396 42 Q337 -12 254 -12 Q210 -12 177 7.5 Q144 27 128 63 L116 0 L27 0 L177 770 L275 770 L221 487 Q282 551 365 551 Z M250 75 Q303 75 340 116.5 Q377 158 395.5 221.5 Q414 285 414 350 Q414 459 325 459 Q293 459 264 446 Q235 433 204 403 L150 123 Q167 100 193 87.5 Q219 75 250 75 Z " />
<glyph glyph-name="c" unicode="c" horiz-adv-x="456" d="M228 -11 Q133 -11 82.5 40.5 Q32 92 32 189 Q32 281 67.5 364.5 Q103 448 169.5 499.5 Q236 551 325 551 Q366 551 403 538.5 Q440 526 468 504 L420 430 Q363 462 312 462 Q256 462 215 423 Q174 384 153 323.5 Q132 263 132 201 Q132 139 159.5 108.5 Q187 78 245 78 Q302 78 360 111 L388 35 Q320 -11 228 -11 Z " />
<glyph glyph-name="cacute" unicode="&#x107;" horiz-adv-x="456" d="M228 -11 Q133 -11 82.5 40.5 Q32 92 32 189 Q32 281 67.5 364.5 Q103 448 169.5 499.5 Q236 551 325 551 Q366 551 403 538.5 Q440 526 468 504 L420 430 Q363 462 312 462 Q256 462 215 423 Q174 384 153 323.5 Q132 263 132 201 Q132 139 159.5 108.5 Q187 78 245 78 Q302 78 360 111 L388 35 Q320 -11 228 -11 Z M257 625 L381 784 L490 784 L489 774 L332 615 L256 615 L257 625 Z " />
<glyph glyph-name="ccaron" unicode="&#x10d;" horiz-adv-x="456" d="M228 -11 Q133 -11 82.5 40.5 Q32 92 32 189 Q32 281 67.5 364.5 Q103 448 169.5 499.5 Q236 551 325 551 Q366 551 403 538.5 Q440 526 468 504 L420 430 Q363 462 312 462 Q256 462 215 423 Q174 384 153 323.5 Q132 263 132 201 Q132 139 159.5 108.5 Q187 78 245 78 Q302 78 360 111 L388 35 Q320 -11 228 -11 Z M491 784 L490 774 L361 615 L266 615 L199 774 L200 784 L266 784 L323 680 L421 784 L491 784 Z " />
<glyph glyph-name="ccedilla" unicode="&#xe7;" horiz-adv-x="456" d="M312 462 Q256 462 215 423 Q174 384 153 323.5 Q132 263 132 201 Q132 139 159.5 108.5 Q187 78 245 78 Q302 78 360 111 L388 35 Q320 -11 228 -11 L223 -11 L183 -57 Q189 -56 199 -56 Q242 -56 265.5 -76 Q289 -96 289 -132 Q289 -178 251.5 -205 Q214 -232 157 -232 Q96 -232 54 -207 L74 -160 Q113 -176 148 -176 Q177 -176 194.5 -162.5 Q212 -149 212 -128 Q212 -103 180 -103 Q157 -103 134 -112 L113 -85 L161 -3 Q98 13 65 61.5 Q32 110 32 189 Q32 281 67.5 364.5 Q103 448 169.5 499.5 Q236 551 325 551 Q366 551 403 538.5 Q440 526 468 504 L420 430 Q363 462 312 462 Z " />
<glyph glyph-name="ccircumflex" unicode="&#x109;" horiz-adv-x="456" d="M228 -11 Q133 -11 82.5 40.5 Q32 92 32 189 Q32 281 67.5 364.5 Q103 448 169.5 499.5 Q236 551 325 551 Q366 551 403 538.5 Q440 526 468 504 L420 430 Q363 462 312 462 Q256 462 215 423 Q174 384 153 323.5 Q132 263 132 201 Q132 139 159.5 108.5 Q187 78 245 78 Q302 78 360 111 L388 35 Q320 -11 228 -11 Z M459 625 L458 615 L392 615 L334 719 L236 615 L167 615 L168 625 L296 784 L391 784 L459 625 Z " />
<glyph glyph-name="cdotaccent" unicode="&#x10b;" horiz-adv-x="456" d="M228 -11 Q133 -11 82.5 40.5 Q32 92 32 189 Q32 281 67.5 364.5 Q103 448 169.5 499.5 Q236 551 325 551 Q366 551 403 538.5 Q440 526 468 504 L420 430 Q363 462 312 462 Q256 462 215 423 Q174 384 153 323.5 Q132 263 132 201 Q132 139 159.5 108.5 Q187 78 245 78 Q302 78 360 111 L388 35 Q320 -11 228 -11 Z M321 625 Q294 625 279 639.5 Q264 654 264 681 Q264 712 282.5 732 Q301 752 333 752 Q359 752 374 737.5 Q389 723 389 695 Q389 664 371 644.5 Q353 625 321 625 Z " />
<glyph glyph-name="d" unicode="d" horiz-adv-x="550" d="M568 770 L418 0 L330 0 L343 66 Q277 -12 185 -12 Q114 -12 75 36 Q36 84 36 172 Q36 269 65.5 356 Q95 443 154 497 Q213 551 296 551 Q335 551 366 535 Q397 519 415 488 L470 770 L568 770 Z M225 79 Q288 79 347 138 L401 414 Q384 438 357.5 450.5 Q331 463 300 463 Q247 463 210 421.5 Q173 380 154.5 316.5 Q136 253 136 188 Q136 79 225 79 Z " />
<glyph glyph-name="eth" unicode="&#xf0;" horiz-adv-x="536" d="M405 675 Q457 626 482 562 Q507 498 507 412 Q507 299 475.5 202.5 Q444 106 378.5 47 Q313 -12 216 -12 Q126 -12 79.5 40 Q33 92 33 189 Q33 278 64 356 Q95 434 154.5 481.5 Q214 529 297 529 Q389 529 420 455 Q408 567 334 637 L208 565 L186 617 L291 671 Q259 692 226 707 L197 721 L231 785 L255 773 Q314 745 363 711 L477 778 L499 725 L405 675 Z M221 74 Q276 74 316 112.5 Q356 151 377 211 Q398 271 398 333 Q398 388 374.5 417.5 Q351 447 306 447 Q251 447 212 408.5 Q173 370 152.5 310.5 Q132 251 132 189 Q132 134 154.5 104 Q177 74 221 74 Z " />
<glyph glyph-name="dcaron" unicode="&#x10f;" horiz-adv-x="617" d="M470 770 L568 770 L418 0 L330 0 L343 66 Q277 -12 185 -12 Q114 -12 75 36 Q36 84 36 172 Q36 269 65.5 356 Q95 443 154 497 Q213 551 296 551 Q335 551 366 535 Q397 519 415 488 L470 770 Z M723 770 L722 760 L650 552 L592 552 L634 770 L723 770 Z M225 79 Q288 79 347 138 L401 414 Q384 438 357.5 450.5 Q331 463 300 463 Q247 463 210 421.5 Q173 380 154.5 316.5 Q136 253 136 188 Q136 79 225 79 Z " />
<glyph glyph-name="dslash" unicode="&#x111;" horiz-adv-x="553" d="M603 616 L540 616 L421 0 L332 0 L345 66 Q280 -12 188 -12 Q115 -12 75.5 35.5 Q36 83 36 170 Q36 264 66 347.5 Q96 431 155 482.5 Q214 534 296 534 Q335 534 366 518 Q397 502 415 472 L443 616 L238 616 L251 683 L456 683 L473 770 L571 770 L554 683 L616 683 L603 616 Z M228 79 Q289 79 350 137 L400 397 Q383 421 356.5 434 Q330 447 299 447 Q247 447 209.5 408 Q172 369 153.5 309 Q135 249 135 186 Q135 79 228 79 Z " />
<glyph glyph-name="uni1E0D" unicode="&#x1e0d;" horiz-adv-x="550" d="M568 770 L418 0 L330 0 L343 66 Q277 -12 185 -12 Q114 -12 75 36 Q36 84 36 172 Q36 269 65.5 356 Q95 443 154 497 Q213 551 296 551 Q335 551 366 535 Q397 519 415 488 L470 770 L568 770 Z M225 79 Q288 79 347 138 L401 414 Q384 438 357.5 450.5 Q331 463 300 463 Q247 463 210 421.5 Q173 380 154.5 316.5 Q136 253 136 188 Q136 79 225 79 Z M190 -212 Q164 -212 149 -197.5 Q134 -183 134 -156 Q134 -125 152.5 -105 Q171 -85 203 -85 Q229 -85 244 -100 Q259 -115 259 -142 Q259 -173 240.5 -192.5 Q222 -212 190 -212 Z " />
<glyph glyph-name="uni1E0F" unicode="&#x1e0f;" horiz-adv-x="550" d="M568 770 L418 0 L330 0 L343 66 Q277 -12 185 -12 Q114 -12 75 36 Q36 84 36 172 Q36 269 65.5 356 Q95 443 154 497 Q213 551 296 551 Q335 551 366 535 Q397 519 415 488 L470 770 L568 770 Z M225 79 Q288 79 347 138 L401 414 Q384 438 357.5 450.5 Q331 463 300 463 Q247 463 210 421.5 Q173 380 154.5 316.5 Q136 253 136 188 Q136 79 225 79 Z M59 -104 L351 -104 L338 -174 L46 -174 L59 -104 Z " />
<glyph glyph-name="e" unicode="e" horiz-adv-x="500" d="M134 241 Q132 227 132 200 Q132 138 160.5 108 Q189 78 247 78 Q313 78 382 115 L412 40 Q331 -11 228 -11 Q135 -11 84.5 40.5 Q34 92 34 190 Q34 282 71 365 Q108 448 176 499.5 Q244 551 334 551 Q405 551 446.5 514.5 Q488 478 488 415 Q488 368 464 327 Q440 286 395 264 Q369 252 336 246.5 Q303 241 253 241 L134 241 Z M321 465 Q263 465 218.5 422 Q174 379 151 313 L253 313 Q323 313 353 333 Q370 344 380 362.5 Q390 381 390 403 Q390 433 372.5 449 Q355 465 321 465 Z " />
<glyph glyph-name="eacute" unicode="&#xe9;" horiz-adv-x="500" d="M134 241 Q132 227 132 200 Q132 138 160.5 108 Q189 78 247 78 Q313 78 382 115 L412 40 Q331 -11 228 -11 Q135 -11 84.5 40.5 Q34 92 34 190 Q34 282 71 365 Q108 448 176 499.5 Q244 551 334 551 Q405 551 446.5 514.5 Q488 478 488 415 Q488 368 464 327 Q440 286 395 264 Q369 252 336 246.5 Q303 241 253 241 L134 241 Z M321 465 Q263 465 218.5 422 Q174 379 151 313 L253 313 Q323 313 353 333 Q370 344 380 362.5 Q390 381 390 403 Q390 433 372.5 449 Q355 465 321 465 Z M274 625 L398 784 L507 784 L506 774 L349 615 L273 615 L274 625 Z " />
<glyph glyph-name="ebreve" unicode="&#x115;" horiz-adv-x="500" d="M134 241 Q132 227 132 200 Q132 138 160.5 108 Q189 78 247 78 Q313 78 382 115 L412 40 Q331 -11 228 -11 Q135 -11 84.5 40.5 Q34 92 34 190 Q34 282 71 365 Q108 448 176 499.5 Q244 551 334 551 Q405 551 446.5 514.5 Q488 478 488 415 Q488 368 464 327 Q440 286 395 264 Q369 252 336 246.5 Q303 241 253 241 L134 241 Z M321 465 Q263 465 218.5 422 Q174 379 151 313 L253 313 Q323 313 353 333 Q370 344 380 362.5 Q390 381 390 403 Q390 433 372.5 449 Q355 465 321 465 Z M336 614 Q277 614 245 646 Q213 678 213 735 Q213 752 216 770 L275 766 Q273 727 289 708 Q305 689 340 689 Q378 689 405.5 710 Q433 731 446 770 L503 766 Q486 692 443 653 Q400 614 336 614 Z " />
<glyph glyph-name="ecaron" unicode="&#x11b;" horiz-adv-x="500" d="M134 241 Q132 227 132 200 Q132 138 160.5 108 Q189 78 247 78 Q313 78 382 115 L412 40 Q331 -11 228 -11 Q135 -11 84.5 40.5 Q34 92 34 190 Q34 282 71 365 Q108 448 176 499.5 Q244 551 334 551 Q405 551 446.5 514.5 Q488 478 488 415 Q488 368 464 327 Q440 286 395 264 Q369 252 336 246.5 Q303 241 253 241 L134 241 Z M321 465 Q263 465 218.5 422 Q174 379 151 313 L253 313 Q323 313 353 333 Q370 344 380 362.5 Q390 381 390 403 Q390 433 372.5 449 Q355 465 321 465 Z M508 784 L507 774 L378 615 L283 615 L216 774 L217 784 L283 784 L340 680 L438 784 L508 784 Z " />
<glyph glyph-name="ecircumflex" unicode="&#xea;" horiz-adv-x="500" d="M134 241 Q132 227 132 200 Q132 138 160.5 108 Q189 78 247 78 Q313 78 382 115 L412 40 Q331 -11 228 -11 Q135 -11 84.5 40.5 Q34 92 34 190 Q34 282 71 365 Q108 448 176 499.5 Q244 551 334 551 Q405 551 446.5 514.5 Q488 478 488 415 Q488 368 464 327 Q440 286 395 264 Q369 252 336 246.5 Q303 241 253 241 L134 241 Z M321 465 Q263 465 218.5 422 Q174 379 151 313 L253 313 Q323 313 353 333 Q370 344 380 362.5 Q390 381 390 403 Q390 433 372.5 449 Q355 465 321 465 Z M476 625 L475 615 L409 615 L351 719 L253 615 L184 615 L185 625 L313 784 L408 784 L476 625 Z " />
<glyph glyph-name="uni1EBF" unicode="&#x1ebf;" horiz-adv-x="500" d="M648 855 L647 845 L524 718 L458 718 L459 728 L558 855 L648 855 Z M250 615 L181 615 L182 625 L309 764 L404 764 L477 625 L476 615 L410 615 L348 706 L250 615 Z M334 551 Q405 551 446.5 514.5 Q488 478 488 415 Q488 368 464 327 Q440 286 395 264 Q369 252 336 246.5 Q303 241 253 241 L134 241 Q132 227 132 200 Q132 138 160.5 108 Q189 78 247 78 Q313 78 382 115 L412 40 Q331 -11 228 -11 Q135 -11 84.5 40.5 Q34 92 34 190 Q34 282 71 365 Q108 448 176 499.5 Q244 551 334 551 Z M353 333 Q370 344 380 362.5 Q390 381 390 403 Q390 433 372.5 449 Q355 465 321 465 Q263 465 218.5 422 Q174 379 151 313 L253 313 Q323 313 353 333 Z " />
<glyph glyph-name="uni1EC7" unicode="&#x1ec7;" horiz-adv-x="500" d="M134 241 Q132 227 132 200 Q132 138 160.5 108 Q189 78 247 78 Q313 78 382 115 L412 40 Q331 -11 228 -11 Q135 -11 84.5 40.5 Q34 92 34 190 Q34 282 71 365 Q108 448 176 499.5 Q244 551 334 551 Q405 551 446.5 514.5 Q488 478 488 415 Q488 368 464 327 Q440 286 395 264 Q369 252 336 246.5 Q303 241 253 241 L134 241 Z M321 465 Q263 465 218.5 422 Q174 379 151 313 L253 313 Q323 313 353 333 Q370 344 380 362.5 Q390 381 390 403 Q390 433 372.5 449 Q355 465 321 465 Z M177 -212 Q151 -212 136 -197.5 Q121 -183 121 -156 Q121 -125 139.5 -105 Q158 -85 190 -85 Q216 -85 231 -100 Q246 -115 246 -142 Q246 -173 227.5 -192.5 Q209 -212 177 -212 Z M476 625 L475 615 L409 615 L351 719 L253 615 L184 615 L185 625 L313 784 L408 784 L476 625 Z " />
<glyph glyph-name="uni1EC1" unicode="&#x1ec1;" horiz-adv-x="500" d="M175 719 L108 846 L109 856 L192 856 L235 729 L234 719 L175 719 Z M182 625 L309 764 L404 764 L477 625 L476 615 L410 615 L348 706 L250 615 L181 615 L182 625 Z M134 241 Q132 227 132 200 Q132 138 160.5 108 Q189 78 247 78 Q313 78 382 115 L412 40 Q331 -11 228 -11 Q135 -11 84.5 40.5 Q34 92 34 190 Q34 282 71 365 Q108 448 176 499.5 Q244 551 334 551 Q405 551 446.5 514.5 Q488 478 488 415 Q488 368 464 327 Q440 286 395 264 Q369 252 336 246.5 Q303 241 253 241 L134 241 Z M321 465 Q263 465 218.5 422 Q174 379 151 313 L253 313 Q323 313 353 333 Q370 344 380 362.5 Q390 381 390 403 Q390 433 372.5 449 Q355 465 321 465 Z " />
<glyph glyph-name="uni1EC3" unicode="&#x1ec3;" horiz-adv-x="500" d="M531 888 Q571 888 592 871.5 Q613 855 613 823 Q613 796 600.5 783 Q588 770 565 760 Q547 751 538.5 743.5 Q530 736 530 722 L530 718 L466 722 L466 729 Q466 758 477.5 771 Q489 784 510 793 Q523 800 528.5 804.5 Q534 809 534 818 Q534 832 514 832 Q489 832 455 815 L437 864 Q479 888 531 888 Z M250 615 L181 615 L182 625 L309 764 L404 764 L477 625 L476 615 L410 615 L348 706 L250 615 Z M334 551 Q405 551 446.5 514.5 Q488 478 488 415 Q488 368 464 327 Q440 286 395 264 Q369 252 336 246.5 Q303 241 253 241 L134 241 Q132 227 132 200 Q132 138 160.5 108 Q189 78 247 78 Q313 78 382 115 L412 40 Q331 -11 228 -11 Q135 -11 84.5 40.5 Q34 92 34 190 Q34 282 71 365 Q108 448 176 499.5 Q244 551 334 551 Z M353 333 Q370 344 380 362.5 Q390 381 390 403 Q390 433 372.5 449 Q355 465 321 465 Q263 465 218.5 422 Q174 379 151 313 L253 313 Q323 313 353 333 Z " />
<glyph glyph-name="uni1EC5" unicode="&#x1ec5;" horiz-adv-x="500" d="M538 915 Q527 857 498.5 826.5 Q470 796 426 796 Q400 796 386 805.5 Q372 815 359 832 Q349 844 342 849.5 Q335 855 324 855 Q305 855 289.5 839 Q274 823 266 794 L215 802 Q226 859 254.5 889.5 Q283 920 326 920 Q353 920 367 910.5 Q381 901 394 884 Q404 872 411 866.5 Q418 861 429 861 Q448 861 463.5 877 Q479 893 487 922 L538 915 Z M250 615 L181 615 L182 625 L309 764 L404 764 L477 625 L476 615 L410 615 L348 706 L250 615 Z M334 551 Q405 551 446.5 514.5 Q488 478 488 415 Q488 368 464 327 Q440 286 395 264 Q369 252 336 246.5 Q303 241 253 241 L134 241 Q132 227 132 200 Q132 138 160.5 108 Q189 78 247 78 Q313 78 382 115 L412 40 Q331 -11 228 -11 Q135 -11 84.5 40.5 Q34 92 34 190 Q34 282 71 365 Q108 448 176 499.5 Q244 551 334 551 Z M353 333 Q370 344 380 362.5 Q390 381 390 403 Q390 433 372.5 449 Q355 465 321 465 Q263 465 218.5 422 Q174 379 151 313 L253 313 Q323 313 353 333 Z " />
<glyph glyph-name="edieresis" unicode="&#xeb;" horiz-adv-x="500" d="M247 627 Q222 627 208.5 641 Q195 655 195 680 Q195 709 212 728 Q229 747 259 747 Q283 747 296.5 733 Q310 719 310 694 Q310 664 293 645.5 Q276 627 247 627 Z M430 627 Q405 627 391.5 641 Q378 655 378 680 Q378 709 395 728 Q412 747 442 747 Q466 747 479.5 733 Q493 719 493 694 Q493 664 476 645.5 Q459 627 430 627 Z M334 551 Q405 551 446.5 514.5 Q488 478 488 415 Q488 368 464 327 Q440 286 395 264 Q369 252 336 246.5 Q303 241 253 241 L134 241 Q132 227 132 200 Q132 138 160.5 108 Q189 78 247 78 Q313 78 382 115 L412 40 Q331 -11 228 -11 Q135 -11 84.5 40.5 Q34 92 34 190 Q34 282 71 365 Q108 448 176 499.5 Q244 551 334 551 Z M353 333 Q370 344 380 362.5 Q390 381 390 403 Q390 433 372.5 449 Q355 465 321 465 Q263 465 218.5 422 Q174 379 151 313 L253 313 Q323 313 353 333 Z " />
<glyph glyph-name="edotaccent" unicode="&#x117;" horiz-adv-x="500" d="M134 241 Q132 227 132 200 Q132 138 160.5 108 Q189 78 247 78 Q313 78 382 115 L412 40 Q331 -11 228 -11 Q135 -11 84.5 40.5 Q34 92 34 190 Q34 282 71 365 Q108 448 176 499.5 Q244 551 334 551 Q405 551 446.5 514.5 Q488 478 488 415 Q488 368 464 327 Q440 286 395 264 Q369 252 336 246.5 Q303 241 253 241 L134 241 Z M321 465 Q263 465 218.5 422 Q174 379 151 313 L253 313 Q323 313 353 333 Q370 344 380 362.5 Q390 381 390 403 Q390 433 372.5 449 Q355 465 321 465 Z M338 625 Q311 625 296 639.5 Q281 654 281 681 Q281 712 299.5 732 Q318 752 350 752 Q376 752 391 737.5 Q406 723 406 695 Q406 664 388 644.5 Q370 625 338 625 Z " />
<glyph glyph-name="uni1EB9" unicode="&#x1eb9;" horiz-adv-x="500" d="M134 241 Q132 227 132 200 Q132 138 160.5 108 Q189 78 247 78 Q313 78 382 115 L412 40 Q331 -11 228 -11 Q135 -11 84.5 40.5 Q34 92 34 190 Q34 282 71 365 Q108 448 176 499.5 Q244 551 334 551 Q405 551 446.5 514.5 Q488 478 488 415 Q488 368 464 327 Q440 286 395 264 Q369 252 336 246.5 Q303 241 253 241 L134 241 Z M321 465 Q263 465 218.5 422 Q174 379 151 313 L253 313 Q323 313 353 333 Q370 344 380 362.5 Q390 381 390 403 Q390 433 372.5 449 Q355 465 321 465 Z M177 -212 Q151 -212 136 -197.5 Q121 -183 121 -156 Q121 -125 139.5 -105 Q158 -85 190 -85 Q216 -85 231 -100 Q246 -115 246 -142 Q246 -173 227.5 -192.5 Q209 -212 177 -212 Z " />
<glyph glyph-name="egrave" unicode="&#xe8;" horiz-adv-x="500" d="M134 241 Q132 227 132 200 Q132 138 160.5 108 Q189 78 247 78 Q313 78 382 115 L412 40 Q331 -11 228 -11 Q135 -11 84.5 40.5 Q34 92 34 190 Q34 282 71 365 Q108 448 176 499.5 Q244 551 334 551 Q405 551 446.5 514.5 Q488 478 488 415 Q488 368 464 327 Q440 286 395 264 Q369 252 336 246.5 Q303 241 253 241 L134 241 Z M321 465 Q263 465 218.5 422 Q174 379 151 313 L253 313 Q323 313 353 333 Q370 344 380 362.5 Q390 381 390 403 Q390 433 372.5 449 Q355 465 321 465 Z M231 774 L232 784 L333 784 L389 625 L388 615 L319 615 L231 774 Z " />
<glyph glyph-name="uni1EBB" unicode="&#x1ebb;" horiz-adv-x="500" d="M134 241 Q132 227 132 200 Q132 138 160.5 108 Q189 78 247 78 Q313 78 382 115 L412 40 Q331 -11 228 -11 Q135 -11 84.5 40.5 Q34 92 34 190 Q34 282 71 365 Q108 448 176 499.5 Q244 551 334 551 Q405 551 446.5 514.5 Q488 478 488 415 Q488 368 464 327 Q440 286 395 264 Q369 252 336 246.5 Q303 241 253 241 L134 241 Z M321 465 Q263 465 218.5 422 Q174 379 151 313 L253 313 Q323 313 353 333 Q370 344 380 362.5 Q390 381 390 403 Q390 433 372.5 449 Q355 465 321 465 Z M296 616 L296 627 Q296 657 309 672.5 Q322 688 345 703 Q358 712 364 717.5 Q370 723 370 731 Q370 746 349 746 Q321 746 287 727 L268 780 Q312 805 367 805 Q450 805 450 739 Q450 712 437.5 697.5 Q425 683 402 670 Q382 658 372.5 648 Q363 638 363 621 L363 613 L296 616 Z " />
<glyph glyph-name="emacron" unicode="&#x113;" horiz-adv-x="500" d="M134 241 Q132 227 132 200 Q132 138 160.5 108 Q189 78 247 78 Q313 78 382 115 L412 40 Q331 -11 228 -11 Q135 -11 84.5 40.5 Q34 92 34 190 Q34 282 71 365 Q108 448 176 499.5 Q244 551 334 551 Q405 551 446.5 514.5 Q488 478 488 415 Q488 368 464 327 Q440 286 395 264 Q369 252 336 246.5 Q303 241 253 241 L134 241 Z M321 465 Q263 465 218.5 422 Q174 379 151 313 L253 313 Q323 313 353 333 Q370 344 380 362.5 Q390 381 390 403 Q390 433 372.5 449 Q355 465 321 465 Z M202 710 L494 710 L480 640 L189 640 L202 710 Z " />
<glyph glyph-name="eogonek" unicode="&#x119;" horiz-adv-x="500" d="M135 241 Q132 220 132 200 Q132 138 160.5 108 Q189 78 247 78 Q314 78 383 115 L412 40 Q394 29 374 20 Q318 -9 282.5 -49.5 Q247 -90 247 -124 Q247 -154 280 -154 Q310 -154 344 -136 L364 -195 Q342 -208 314 -215 Q286 -222 260 -222 Q213 -222 187 -200.5 Q161 -179 161 -141 Q161 -105 182.5 -71.5 Q204 -38 243 -10 Q238 -11 228 -11 Q135 -11 85 40.5 Q35 92 35 190 Q35 282 71.5 365 Q108 448 176 499.5 Q244 551 334 551 Q405 551 446.5 514.5 Q488 478 488 415 Q488 368 464 327 Q440 286 395 264 Q346 241 253 241 L135 241 Z M321 465 Q263 465 219 422 Q175 379 152 313 L253 313 Q323 313 353 333 Q371 344 380.5 362 Q390 380 390 403 Q390 433 372.5 449 Q355 465 321 465 Z " />
<glyph glyph-name="uni1EBD" unicode="&#x1ebd;" horiz-adv-x="500" d="M134 241 Q132 227 132 200 Q132 138 160.5 108 Q189 78 247 78 Q313 78 382 115 L412 40 Q331 -11 228 -11 Q135 -11 84.5 40.5 Q34 92 34 190 Q34 282 71 365 Q108 448 176 499.5 Q244 551 334 551 Q405 551 446.5 514.5 Q488 478 488 415 Q488 368 464 327 Q440 286 395 264 Q369 252 336 246.5 Q303 241 253 241 L134 241 Z M321 465 Q263 465 218.5 422 Q174 379 151 313 L253 313 Q323 313 353 333 Q370 344 380 362.5 Q390 381 390 403 Q390 433 372.5 449 Q355 465 321 465 Z M165 624 Q178 689 208.5 722 Q239 755 282 755 Q309 755 327.5 744.5 Q346 734 365 715 Q378 703 387 697 Q396 691 407 691 Q425 691 440.5 708.5 Q456 726 465 757 L522 749 Q508 684 477.5 651 Q447 618 404 618 Q377 618 358.5 628.5 Q340 639 321 658 Q308 670 299 676 Q290 682 279 682 Q261 682 246 664 Q231 646 222 616 L165 624 Z " />
<glyph glyph-name="f" unicode="f" horiz-adv-x="340" d="M128 456 L44 456 L59 539 L145 539 L157 603 Q173 688 230.5 734 Q288 780 378 780 Q403 780 435 774 L419 689 Q400 693 375 693 Q326 693 294.5 668 Q263 643 253 596 L242 539 L371 539 L355 456 L226 456 L138 0 L40 0 L128 456 Z " />
<glyph glyph-name="g" unicode="g" horiz-adv-x="553" d="M526 539 L420 -3 Q400 -107 331.5 -163 Q263 -219 157 -219 Q112 -219 72 -209.5 Q32 -200 5 -183 L43 -105 Q94 -132 154 -132 Q224 -132 267.5 -96.5 Q311 -61 324 5 L339 84 Q277 18 193 18 Q119 18 79.5 64.5 Q40 111 40 198 Q40 290 69.5 371 Q99 452 157 501.5 Q215 551 297 551 Q342 551 374.5 531 Q407 511 424 475 L437 539 L526 539 Z M232 109 Q294 109 355 167 L403 413 Q385 438 359 450.5 Q333 463 302 463 Q249 463 213 426.5 Q177 390 159 332.5 Q141 275 141 213 Q141 109 232 109 Z " />
<glyph glyph-name="gbreve" unicode="&#x11f;" horiz-adv-x="553" d="M526 539 L420 -3 Q400 -107 331.5 -163 Q263 -219 157 -219 Q112 -219 72 -209.5 Q32 -200 5 -183 L43 -105 Q94 -132 154 -132 Q224 -132 267.5 -96.5 Q311 -61 324 5 L339 84 Q277 18 193 18 Q119 18 79.5 64.5 Q40 111 40 198 Q40 290 69.5 371 Q99 452 157 501.5 Q215 551 297 551 Q342 551 374.5 531 Q407 511 424 475 L437 539 L526 539 Z M232 109 Q294 109 355 167 L403 413 Q385 438 359 450.5 Q333 463 302 463 Q249 463 213 426.5 Q177 390 159 332.5 Q141 275 141 213 Q141 109 232 109 Z M345 614 Q286 614 254 646 Q222 678 222 735 Q222 752 225 770 L284 766 Q282 727 298 708 Q314 689 349 689 Q387 689 414.5 710 Q442 731 455 770 L512 766 Q495 692 452 653 Q409 614 345 614 Z " />
<glyph glyph-name="gcaron" unicode="&#x1e7;" horiz-adv-x="553" d="M526 539 L420 -3 Q400 -107 331.5 -163 Q263 -219 157 -219 Q112 -219 72 -209.5 Q32 -200 5 -183 L43 -105 Q94 -132 154 -132 Q224 -132 267.5 -96.5 Q311 -61 324 5 L339 84 Q277 18 193 18 Q119 18 79.5 64.5 Q40 111 40 198 Q40 290 69.5 371 Q99 452 157 501.5 Q215 551 297 551 Q342 551 374.5 531 Q407 511 424 475 L437 539 L526 539 Z M232 109 Q294 109 355 167 L403 413 Q385 438 359 450.5 Q333 463 302 463 Q249 463 213 426.5 Q177 390 159 332.5 Q141 275 141 213 Q141 109 232 109 Z M517 784 L516 774 L387 615 L292 615 L225 774 L226 784 L292 784 L349 680 L447 784 L517 784 Z " />
<glyph glyph-name="gcircumflex" unicode="&#x11d;" horiz-adv-x="553" d="M526 539 L420 -3 Q400 -107 331.5 -163 Q263 -219 157 -219 Q112 -219 72 -209.5 Q32 -200 5 -183 L43 -105 Q94 -132 154 -132 Q224 -132 267.5 -96.5 Q311 -61 324 5 L339 84 Q277 18 193 18 Q119 18 79.5 64.5 Q40 111 40 198 Q40 290 69.5 371 Q99 452 157 501.5 Q215 551 297 551 Q342 551 374.5 531 Q407 511 424 475 L437 539 L526 539 Z M232 109 Q294 109 355 167 L403 413 Q385 438 359 450.5 Q333 463 302 463 Q249 463 213 426.5 Q177 390 159 332.5 Q141 275 141 213 Q141 109 232 109 Z M485 625 L484 615 L418 615 L360 719 L262 615 L193 615 L194 625 L322 784 L417 784 L485 625 Z " />
<glyph glyph-name="gcommaaccent" unicode="&#x123;" horiz-adv-x="553" d="M526 539 L420 -3 Q400 -107 331.5 -163 Q263 -219 157 -219 Q112 -219 72 -209.5 Q32 -200 5 -183 L43 -105 Q94 -132 154 -132 Q224 -132 267.5 -96.5 Q311 -61 324 5 L339 84 Q277 18 193 18 Q119 18 79.5 64.5 Q40 111 40 198 Q40 290 69.5 371 Q99 452 157 501.5 Q215 551 297 551 Q342 551 374.5 531 Q407 511 424 475 L437 539 L526 539 Z M232 109 Q294 109 355 167 L403 413 Q385 438 359 450.5 Q333 463 302 463 Q249 463 213 426.5 Q177 390 159 332.5 Q141 275 141 213 Q141 109 232 109 Z M456 770 Q425 742 410 715 Q395 688 385 644 Q381 616 380 607 L291 615 Q291 624 296 659 Q306 704 334 739.5 Q362 775 421 814 L456 770 Z " />
<glyph glyph-name="gdotaccent" unicode="&#x121;" horiz-adv-x="553" d="M526 539 L420 -3 Q400 -107 331.5 -163 Q263 -219 157 -219 Q112 -219 72 -209.5 Q32 -200 5 -183 L43 -105 Q94 -132 154 -132 Q224 -132 267.5 -96.5 Q311 -61 324 5 L339 84 Q277 18 193 18 Q119 18 79.5 64.5 Q40 111 40 198 Q40 290 69.5 371 Q99 452 157 501.5 Q215 551 297 551 Q342 551 374.5 531 Q407 511 424 475 L437 539 L526 539 Z M232 109 Q294 109 355 167 L403 413 Q385 438 359 450.5 Q333 463 302 463 Q249 463 213 426.5 Q177 390 159 332.5 Q141 275 141 213 Q141 109 232 109 Z M347 625 Q320 625 305 639.5 Q290 654 290 681 Q290 712 308.5 732 Q327 752 359 752 Q385 752 400 737.5 Q415 723 415 695 Q415 664 397 644.5 Q379 625 347 625 Z " />
<glyph glyph-name="uni1E21" unicode="&#x1e21;" horiz-adv-x="553" d="M526 539 L420 -3 Q400 -107 331.5 -163 Q263 -219 157 -219 Q112 -219 72 -209.5 Q32 -200 5 -183 L43 -105 Q94 -132 154 -132 Q224 -132 267.5 -96.5 Q311 -61 324 5 L339 84 Q277 18 193 18 Q119 18 79.5 64.5 Q40 111 40 198 Q40 290 69.5 371 Q99 452 157 501.5 Q215 551 297 551 Q342 551 374.5 531 Q407 511 424 475 L437 539 L526 539 Z M232 109 Q294 109 355 167 L403 413 Q385 438 359 450.5 Q333 463 302 463 Q249 463 213 426.5 Q177 390 159 332.5 Q141 275 141 213 Q141 109 232 109 Z M211 710 L503 710 L489 640 L198 640 L211 710 Z " />
<glyph glyph-name="uni0261" unicode="&#x261;" horiz-adv-x="553" d="M526 539 L420 -3 Q400 -107 331.5 -163 Q263 -219 157 -219 Q112 -219 72 -209.5 Q32 -200 5 -183 L43 -105 Q94 -132 154 -132 Q224 -132 267.5 -96.5 Q311 -61 324 5 L339 84 Q277 18 193 18 Q119 18 79.5 64.5 Q40 111 40 198 Q40 290 69.5 371 Q99 452 157 501.5 Q215 551 297 551 Q342 551 374.5 531 Q407 511 424 475 L437 539 L526 539 Z M232 109 Q294 109 355 167 L403 413 Q385 438 359 450.5 Q333 463 302 463 Q249 463 213 426.5 Q177 390 159 332.5 Q141 275 141 213 Q141 109 232 109 Z " />
<glyph glyph-name="h" unicode="h" horiz-adv-x="561" d="M375 551 Q440 551 476 518 Q512 485 512 426 Q512 408 507 381 L433 0 L335 0 L409 377 Q412 391 412 402 Q412 431 394 445 Q376 459 338 459 Q302 459 270 446.5 Q238 434 205 408 L125 0 L27 0 L177 770 L275 770 L221 492 Q290 551 375 551 Z " />
<glyph glyph-name="hbar" unicode="&#x127;" horiz-adv-x="561" d="M371 534 Q437 534 473 500 Q509 466 509 406 Q509 384 505 364 L434 0 L336 0 L406 360 Q409 374 409 385 Q409 415 390.5 429 Q372 443 334 443 Q267 443 200 393 L124 0 L26 0 L145 616 L82 616 L95 683 L159 683 L176 770 L274 770 L257 683 L463 683 L450 616 L243 616 L216 476 Q287 534 371 534 Z " />
<glyph glyph-name="uni1E2B" unicode="&#x1e2b;" horiz-adv-x="561" d="M375 551 Q440 551 476 518 Q512 485 512 426 Q512 408 507 381 L433 0 L335 0 L409 377 Q412 391 412 402 Q412 431 394 445 Q376 459 338 459 Q302 459 270 446.5 Q238 434 205 408 L125 0 L27 0 L177 770 L275 770 L221 492 Q290 551 375 551 Z M195 -223 Q136 -223 104 -191 Q72 -159 72 -102 Q72 -85 75 -67 L134 -71 Q132 -110 148 -129 Q164 -148 199 -148 Q237 -148 264.5 -127 Q292 -106 305 -67 L362 -71 Q345 -145 302 -184 Q259 -223 195 -223 Z " />
<glyph glyph-name="hcircumflex" unicode="&#x125;" horiz-adv-x="561" d="M148 827 L73 827 L74 839 L213 972 L313 972 L400 839 L399 827 L326 827 L254 915 L148 827 Z M375 551 Q440 551 476 518 Q512 485 512 426 Q512 408 507 381 L433 0 L335 0 L409 377 Q412 391 412 402 Q412 431 394 445 Q376 459 338 459 Q302 459 270 446.5 Q238 434 205 408 L125 0 L27 0 L177 770 L275 770 L221 492 Q290 551 375 551 Z " />
<glyph glyph-name="uni1E25" unicode="&#x1e25;" horiz-adv-x="561" d="M375 551 Q440 551 476 518 Q512 485 512 426 Q512 408 507 381 L433 0 L335 0 L409 377 Q412 391 412 402 Q412 431 394 445 Q376 459 338 459 Q302 459 270 446.5 Q238 434 205 408 L125 0 L27 0 L177 770 L275 770 L221 492 Q290 551 375 551 Z M197 -212 Q171 -212 156 -197.5 Q141 -183 141 -156 Q141 -125 159.5 -105 Q178 -85 210 -85 Q236 -85 251 -100 Q266 -115 266 -142 Q266 -173 247.5 -192.5 Q229 -212 197 -212 Z " />
<glyph glyph-name="i" unicode="i" horiz-adv-x="262" d="M134 539 L232 539 L127 0 L29 0 L134 539 Z M206 625 Q179 625 164 639.5 Q149 654 149 681 Q149 712 167.5 732 Q186 752 218 752 Q244 752 259 737.5 Q274 723 274 695 Q274 664 256 644.5 Q238 625 206 625 Z " />
<glyph glyph-name="dotlessi" unicode="&#x131;" horiz-adv-x="262" d="M134 539 L232 539 L127 0 L29 0 L134 539 Z " />
<glyph glyph-name="iacute" unicode="&#xed;" horiz-adv-x="262" d="M134 539 L232 539 L127 0 L29 0 L134 539 Z M142 625 L266 784 L375 784 L374 774 L217 615 L141 615 L142 625 Z " />
<glyph glyph-name="uni01D0" unicode="&#x1d0;" horiz-adv-x="262" d="M134 539 L232 539 L127 0 L29 0 L134 539 Z M376 784 L375 774 L246 615 L151 615 L84 774 L85 784 L151 784 L208 680 L306 784 L376 784 Z " />
<glyph glyph-name="icircumflex" unicode="&#xee;" horiz-adv-x="262" d="M134 539 L232 539 L127 0 L29 0 L134 539 Z M344 625 L343 615 L277 615 L219 719 L121 615 L52 615 L53 625 L181 784 L276 784 L344 625 Z " />
<glyph glyph-name="idieresis" unicode="&#xef;" horiz-adv-x="262" d="M123 627 Q99 627 85.5 641 Q72 655 72 680 Q72 709 89 728 Q106 747 135 747 Q159 747 172.5 733 Q186 719 186 694 Q186 664 169 645.5 Q152 627 123 627 Z M288 627 Q264 627 250.5 641 Q237 655 237 680 Q237 709 254 728 Q271 747 300 747 Q324 747 337.5 733 Q351 719 351 694 Q351 664 334 645.5 Q317 627 288 627 Z M134 539 L232 539 L127 0 L29 0 L134 539 Z " />
<glyph glyph-name="uni1ECB" unicode="&#x1ecb;" horiz-adv-x="262" d="M134 539 L232 539 L127 0 L29 0 L134 539 Z M206 625 Q179 625 164 639.5 Q149 654 149 681 Q149 712 167.5 732 Q186 752 218 752 Q244 752 259 737.5 Q274 723 274 695 Q274 664 256 644.5 Q238 625 206 625 Z M43 -212 Q17 -212 2 -197.5 Q-13 -183 -13 -156 Q-13 -125 5.5 -105 Q24 -85 56 -85 Q82 -85 97 -100 Q112 -115 112 -142 Q112 -173 93.5 -192.5 Q75 -212 43 -212 Z " />
<glyph glyph-name="igrave" unicode="&#xec;" horiz-adv-x="262" d="M134 539 L232 539 L127 0 L29 0 L134 539 Z M99 774 L100 784 L201 784 L257 625 L256 615 L187 615 L99 774 Z " />
<glyph glyph-name="uni1EC9" unicode="&#x1ec9;" horiz-adv-x="262" d="M134 539 L232 539 L127 0 L29 0 L134 539 Z M164 616 L164 627 Q164 657 177 672.5 Q190 688 213 703 Q226 712 232 717.5 Q238 723 238 731 Q238 746 217 746 Q189 746 155 727 L136 780 Q180 805 235 805 Q318 805 318 739 Q318 712 305.5 697.5 Q293 683 270 670 Q250 658 240.5 648 Q231 638 231 621 L231 613 L164 616 Z " />
<glyph glyph-name="ij" unicode="&#x133;" horiz-adv-x="524" d="M134 539 L232 539 L127 0 L29 0 L134 539 Z M206 625 Q179 625 164 639.5 Q149 654 149 681 Q149 712 167.5 732 Q186 752 218 752 Q244 752 259 737.5 Q274 723 274 695 Q274 664 256 644.5 Q238 625 206 625 Z M128 -139 Q186 -119 219 -97 Q252 -75 270.5 -42.5 Q289 -10 299 42 L396 539 L494 539 L396 32 Q381 -42 355 -87.5 Q329 -133 282 -164 Q235 -195 152 -222 L128 -139 Z M468 625 Q441 625 426 639.5 Q411 654 411 681 Q411 712 429.5 732 Q448 752 480 752 Q506 752 521 737.5 Q536 723 536 695 Q536 664 518 644.5 Q500 625 468 625 Z " />
<glyph glyph-name="imacron" unicode="&#x12b;" horiz-adv-x="262" d="M100 710 L331 710 L317 639 L86 639 L100 710 Z M134 539 L232 539 L127 0 L29 0 L134 539 Z " />
<glyph glyph-name="iogonek" unicode="&#x12f;" horiz-adv-x="262" d="M218 752 Q245 752 259.5 737.5 Q274 723 274 695 Q274 664 256 644.5 Q238 625 206 625 Q179 625 164 639.5 Q149 654 149 681 Q149 712 167.5 732 Q186 752 218 752 Z M127 0 Q87 -32 62 -65.5 Q37 -99 37 -124 Q37 -154 70 -154 Q100 -154 134 -136 L153 -195 Q131 -208 103.5 -215 Q76 -222 50 -222 Q3 -222 -23 -200.5 Q-49 -179 -49 -141 Q-49 -104 -24.5 -66 Q0 -28 41 0 L29 0 L134 539 L232 539 L127 0 Z " />
<glyph glyph-name="itilde" unicode="&#x129;" horiz-adv-x="262" d="M260 618 Q234 618 220 628.5 Q206 639 193 658 Q184 671 177.5 677 Q171 683 160 683 Q142 683 127 664.5 Q112 646 104 616 L48 624 Q60 689 89.5 722 Q119 755 162 755 Q189 755 203 744.5 Q217 734 229 715 Q239 701 245.5 695.5 Q252 690 263 690 Q281 690 296 707.5 Q311 725 319 757 L375 749 Q362 684 332.5 651 Q303 618 260 618 Z M134 539 L232 539 L127 0 L29 0 L134 539 Z " />
<glyph glyph-name="j" unicode="j" horiz-adv-x="262" d="M-134 -139 Q-76 -119 -43 -97 Q-10 -75 8.5 -42.5 Q27 -10 37 42 L134 539 L232 539 L134 32 Q119 -42 93 -87.5 Q67 -133 20 -164 Q-27 -195 -110 -222 L-134 -139 Z M206 625 Q179 625 164 639.5 Q149 654 149 681 Q149 712 167.5 732 Q186 752 218 752 Q244 752 259 737.5 Q274 723 274 695 Q274 664 256 644.5 Q238 625 206 625 Z " />
<glyph glyph-name="uni0237" unicode="&#x237;" horiz-adv-x="262" d="M-134 -139 Q-76 -119 -43 -97 Q-10 -75 8.5 -42.5 Q27 -10 37 42 L134 539 L232 539 L134 32 Q119 -42 93 -87.5 Q67 -133 20 -164 Q-27 -195 -110 -222 L-134 -139 Z " />
<glyph glyph-name="jcircumflex" unicode="&#x135;" horiz-adv-x="262" d="M-134 -139 Q-76 -119 -43 -97 Q-10 -75 8.5 -42.5 Q27 -10 37 42 L134 539 L232 539 L134 32 Q119 -42 93 -87.5 Q67 -133 20 -164 Q-27 -195 -110 -222 L-134 -139 Z M344 625 L343 615 L277 615 L219 719 L121 615 L52 615 L53 625 L181 784 L276 784 L344 625 Z " />
<glyph glyph-name="k" unicode="k" horiz-adv-x="521" d="M313 309 L455 0 L344 0 L238 238 L157 160 L125 0 L27 0 L177 770 L275 770 L181 288 L431 539 L550 539 L313 309 Z " />
<glyph glyph-name="kcommaaccent" unicode="&#x137;" horiz-adv-x="521" d="M313 309 L455 0 L344 0 L238 238 L157 160 L125 0 L27 0 L177 770 L275 770 L181 288 L431 539 L550 539 L313 309 Z M92 -234 Q123 -207 138 -179.5 Q153 -152 162 -108 Q165 -95 167 -72 L257 -79 Q255 -103 251 -123 Q242 -168 214 -203.5 Q186 -239 127 -279 L92 -234 Z " />
<glyph glyph-name="kgreenlandic" unicode="&#x138;" horiz-adv-x="521" d="M313 309 L455 0 L344 0 L238 238 L157 160 L125 0 L27 0 L132 539 L230 539 L181 287 L431 539 L550 539 L313 309 Z " />
<glyph glyph-name="l" unicode="l" horiz-adv-x="300" d="M156 -5 Q103 -5 75.5 19 Q48 43 48 88 Q48 103 51 121 L178 770 L276 770 L151 130 Q149 122 149 109 Q149 93 157 87 Q165 81 184 81 Q199 81 223 85 L221 3 Q189 -5 156 -5 Z " />
<glyph glyph-name="lacute" unicode="&#x13a;" horiz-adv-x="300" d="M164 839 L333 972 L454 972 L453 960 L251 827 L163 827 L164 839 Z M156 -5 Q103 -5 75.5 19 Q48 43 48 88 Q48 103 51 121 L178 770 L276 770 L151 130 Q149 122 149 109 Q149 93 157 87 Q165 81 184 81 Q199 81 223 85 L221 3 Q189 -5 156 -5 Z " />
<glyph glyph-name="lcaron" unicode="&#x13e;" horiz-adv-x="303" d="M104 -5 Q51 -5 23 19 Q-5 43 -5 87 Q-5 97 -1 121 L125 770 L223 770 L99 130 Q97 122 97 108 Q97 93 105 87 Q113 81 132 81 Q145 81 171 85 L169 3 Q135 -5 104 -5 Z M297 770 L385 770 L384 760 L312 552 L254 552 L297 770 Z " />
<glyph glyph-name="lcommaaccent" unicode="&#x13c;" horiz-adv-x="300" d="M156 -5 Q103 -5 75.5 19 Q48 43 48 88 Q48 103 51 121 L178 770 L276 770 L151 130 Q149 122 149 109 Q149 93 157 87 Q165 81 184 81 Q199 81 223 85 L221 3 Q189 -5 156 -5 Z M-18 -234 Q13 -207 28 -179.5 Q43 -152 52 -108 Q55 -95 57 -72 L147 -79 Q145 -103 141 -123 Q132 -168 104 -203.5 Q76 -239 17 -279 L-18 -234 Z " />
<glyph glyph-name="ldot" unicode="&#x140;" horiz-adv-x="371" d="M156 -5 Q103 -5 75.5 19 Q48 43 48 88 Q48 103 51 121 L178 770 L276 770 L151 130 Q149 122 149 109 Q149 93 157 87 Q165 81 184 81 Q199 81 223 85 L221 3 Q189 -5 156 -5 Z M333 335 Q306 335 291 349 Q276 363 276 390 Q276 421 294.5 441 Q313 461 345 461 Q371 461 386 446.5 Q401 432 401 405 Q401 374 383 354.5 Q365 335 333 335 Z " />
<glyph glyph-name="uni1E37" unicode="&#x1e37;" horiz-adv-x="300" d="M156 -5 Q103 -5 75.5 19 Q48 43 48 88 Q48 103 51 121 L178 770 L276 770 L151 130 Q149 122 149 109 Q149 93 157 87 Q165 81 184 81 Q199 81 223 85 L221 3 Q189 -5 156 -5 Z M82 -212 Q56 -212 41 -197.5 Q26 -183 26 -156 Q26 -125 44.5 -105 Q63 -85 95 -85 Q121 -85 136 -100 Q151 -115 151 -142 Q151 -173 132.5 -192.5 Q114 -212 82 -212 Z " />
<glyph glyph-name="uni1E39" unicode="&#x1e39;" horiz-adv-x="300" d="M140 926 L371 926 L357 855 L126 855 L140 926 Z M156 -5 Q103 -5 75.5 19 Q48 43 48 88 Q48 103 51 121 L178 770 L276 770 L151 130 Q149 122 149 109 Q149 93 157 87 Q165 81 184 81 Q199 81 223 85 L221 3 Q189 -5 156 -5 Z M82 -212 Q56 -212 41 -197.5 Q26 -183 26 -156 Q26 -125 44.5 -105 Q63 -85 95 -85 Q122 -85 136.5 -100 Q151 -115 151 -142 Q151 -173 132.5 -192.5 Q114 -212 82 -212 Z " />
<glyph glyph-name="uni1E3B" unicode="&#x1e3b;" horiz-adv-x="300" d="M156 -5 Q103 -5 75.5 19 Q48 43 48 88 Q48 103 51 121 L178 770 L276 770 L151 130 Q149 122 149 109 Q149 93 157 87 Q165 81 184 81 Q199 81 223 85 L221 3 Q189 -5 156 -5 Z M-18 -99 L213 -99 L199 -170 L-32 -170 L-18 -99 Z " />
<glyph glyph-name="lslash" unicode="&#x142;" horiz-adv-x="335" d="M175 130 Q173 122 173 108 Q173 93 181 87 Q189 81 208 81 Q221 81 247 85 L245 3 Q211 -5 180 -5 Q127 -5 99 19 Q71 43 71 87 Q71 97 75 121 L115 328 L38 280 L27 280 L42 361 L132 414 L201 770 L299 770 L243 480 L341 540 L351 540 L336 459 L226 394 L175 130 Z " />
<glyph glyph-name="m" unicode="m" horiz-adv-x="848" d="M669 551 Q732 551 766 518 Q800 485 800 426 Q800 407 795 380 L721 0 L623 0 L696 376 Q699 391 699 404 Q699 459 631 459 Q598 459 567 446.5 Q536 434 502 407 Q500 388 498 380 L424 0 L326 0 L400 376 Q403 391 403 402 Q403 432 386 445.5 Q369 459 334 459 Q300 459 269.5 446.5 Q239 434 205 408 L125 0 L27 0 L132 539 L220 539 L209 482 Q282 551 371 551 Q420 551 452.5 530.5 Q485 510 496 472 Q578 551 669 551 Z " />
<glyph glyph-name="uni1E43" unicode="&#x1e43;" horiz-adv-x="848" d="M669 551 Q732 551 766 518 Q800 485 800 426 Q800 407 795 380 L721 0 L623 0 L696 376 Q699 391 699 404 Q699 459 631 459 Q598 459 567 446.5 Q536 434 502 407 Q500 388 498 380 L424 0 L326 0 L400 376 Q403 391 403 402 Q403 432 386 445.5 Q369 459 334 459 Q300 459 269.5 446.5 Q239 434 205 408 L125 0 L27 0 L132 539 L220 539 L209 482 Q282 551 371 551 Q420 551 452.5 530.5 Q485 510 496 472 Q578 551 669 551 Z M339 -212 Q313 -212 298 -197.5 Q283 -183 283 -156 Q283 -125 301.5 -105 Q320 -85 352 -85 Q378 -85 393 -100 Q408 -115 408 -142 Q408 -173 389.5 -192.5 Q371 -212 339 -212 Z " />
<glyph glyph-name="n" unicode="n" horiz-adv-x="559" d="M374 551 Q439 551 474.5 518 Q510 485 510 425 Q510 407 505 380 L431 0 L333 0 L407 376 Q409 385 409 400 Q409 459 340 459 Q302 459 270 447 Q238 435 205 408 L125 0 L27 0 L132 539 L220 539 L208 482 Q283 551 374 551 Z " />
<glyph glyph-name="nacute" unicode="&#x144;" horiz-adv-x="559" d="M374 551 Q439 551 474.5 518 Q510 485 510 425 Q510 407 505 380 L431 0 L333 0 L407 376 Q409 385 409 400 Q409 459 340 459 Q302 459 270 447 Q238 435 205 408 L125 0 L27 0 L132 539 L220 539 L208 482 Q283 551 374 551 Z M294 625 L418 784 L527 784 L526 774 L369 615 L293 615 L294 625 Z " />
<glyph glyph-name="napostrophe" unicode="&#x149;" horiz-adv-x="559" d="M374 551 Q439 551 474.5 518 Q510 485 510 425 Q510 407 505 380 L431 0 L333 0 L407 376 Q409 385 409 400 Q409 459 340 459 Q302 459 270 447 Q238 435 205 408 L125 0 L27 0 L132 539 L220 539 L208 482 Q283 551 374 551 Z M-63 577 Q-25 612 -3.5 647.5 Q18 683 28 731 L34 775 L121 768 Q120 751 114 716 Q103 664 69 620.5 Q35 577 -29 534 L-63 577 Z " />
<glyph glyph-name="ncaron" unicode="&#x148;" horiz-adv-x="559" d="M374 551 Q439 551 474.5 518 Q510 485 510 425 Q510 407 505 380 L431 0 L333 0 L407 376 Q409 385 409 400 Q409 459 340 459 Q302 459 270 447 Q238 435 205 408 L125 0 L27 0 L132 539 L220 539 L208 482 Q283 551 374 551 Z M528 784 L527 774 L398 615 L303 615 L236 774 L237 784 L303 784 L360 680 L458 784 L528 784 Z " />
<glyph glyph-name="ncommaaccent" unicode="&#x146;" horiz-adv-x="559" d="M374 551 Q439 551 474.5 518 Q510 485 510 425 Q510 407 505 380 L431 0 L333 0 L407 376 Q409 385 409 400 Q409 459 340 459 Q302 459 270 447 Q238 435 205 408 L125 0 L27 0 L132 539 L220 539 L208 482 Q283 551 374 551 Z M96 -234 Q127 -207 142 -179.5 Q157 -152 166 -108 Q169 -95 171 -72 L261 -79 Q259 -103 255 -123 Q246 -168 218 -203.5 Q190 -239 131 -279 L96 -234 Z " />
<glyph glyph-name="uni1E45" unicode="&#x1e45;" horiz-adv-x="559" d="M374 551 Q439 551 474.5 518 Q510 485 510 425 Q510 407 505 380 L431 0 L333 0 L407 376 Q409 385 409 400 Q409 459 340 459 Q302 459 270 447 Q238 435 205 408 L125 0 L27 0 L132 539 L220 539 L208 482 Q283 551 374 551 Z M358 625 Q331 625 316 639.5 Q301 654 301 681 Q301 712 319.5 732 Q338 752 370 752 Q396 752 411 737.5 Q426 723 426 695 Q426 664 408 644.5 Q390 625 358 625 Z " />
<glyph glyph-name="uni1E47" unicode="&#x1e47;" horiz-adv-x="559" d="M374 551 Q439 551 474.5 518 Q510 485 510 425 Q510 407 505 380 L431 0 L333 0 L407 376 Q409 385 409 400 Q409 459 340 459 Q302 459 270 447 Q238 435 205 408 L125 0 L27 0 L132 539 L220 539 L208 482 Q283 551 374 551 Z M196 -212 Q170 -212 155 -197.5 Q140 -183 140 -156 Q140 -125 158.5 -105 Q177 -85 209 -85 Q235 -85 250 -100 Q265 -115 265 -142 Q265 -173 246.5 -192.5 Q228 -212 196 -212 Z " />
<glyph glyph-name="uni1E49" unicode="&#x1e49;" horiz-adv-x="559" d="M374 551 Q439 551 474.5 518 Q510 485 510 425 Q510 407 505 380 L431 0 L333 0 L407 376 Q409 385 409 400 Q409 459 340 459 Q302 459 270 447 Q238 435 205 408 L125 0 L27 0 L132 539 L220 539 L208 482 Q283 551 374 551 Z M65 -104 L357 -104 L344 -174 L52 -174 L65 -104 Z " />
<glyph glyph-name="ntilde" unicode="&#xf1;" horiz-adv-x="559" d="M374 551 Q439 551 474.5 518 Q510 485 510 425 Q510 407 505 380 L431 0 L333 0 L407 376 Q409 385 409 400 Q409 459 340 459 Q302 459 270 447 Q238 435 205 408 L125 0 L27 0 L132 539 L220 539 L208 482 Q283 551 374 551 Z M185 624 Q198 689 228.5 722 Q259 755 302 755 Q329 755 347.5 744.5 Q366 734 385 715 Q398 703 407 697 Q416 691 427 691 Q445 691 460.5 708.5 Q476 726 485 757 L542 749 Q528 684 497.5 651 Q467 618 424 618 Q397 618 378.5 628.5 Q360 639 341 658 Q328 670 319 676 Q310 682 299 682 Q281 682 266 664 Q251 646 242 616 L185 624 Z " />
<glyph glyph-name="o" unicode="o" horiz-adv-x="534" d="M212 -12 Q129 -12 83 37 Q37 86 37 174 Q37 277 67.5 362.5 Q98 448 162 499.5 Q226 551 322 551 Q405 551 451 502 Q497 453 497 365 Q497 262 466.5 176.5 Q436 91 372 39.5 Q308 -12 212 -12 Z M228 74 Q284 74 322 115 Q360 156 378.5 219.5 Q397 283 397 351 Q397 407 373.5 436 Q350 465 306 465 Q250 465 212 424 Q174 383 155.5 319.5 Q137 256 137 187 Q137 131 160 102.5 Q183 74 228 74 Z " />
<glyph glyph-name="oacute" unicode="&#xf3;" horiz-adv-x="534" d="M212 -12 Q129 -12 83 37 Q37 86 37 174 Q37 277 67.5 362.5 Q98 448 162 499.5 Q226 551 322 551 Q405 551 451 502 Q497 453 497 365 Q497 262 466.5 176.5 Q436 91 372 39.5 Q308 -12 212 -12 Z M228 74 Q284 74 322 115 Q360 156 378.5 219.5 Q397 283 397 351 Q397 407 373.5 436 Q350 465 306 465 Q250 465 212 424 Q174 383 155.5 319.5 Q137 256 137 187 Q137 131 160 102.5 Q183 74 228 74 Z M279 625 L403 784 L512 784 L511 774 L354 615 L278 615 L279 625 Z " />
<glyph glyph-name="uni01D2" unicode="&#x1d2;" horiz-adv-x="534" d="M212 -12 Q129 -12 83 37 Q37 86 37 174 Q37 277 67.5 362.5 Q98 448 162 499.5 Q226 551 322 551 Q405 551 451 502 Q497 453 497 365 Q497 262 466.5 176.5 Q436 91 372 39.5 Q308 -12 212 -12 Z M228 74 Q284 74 322 115 Q360 156 378.5 219.5 Q397 283 397 351 Q397 407 373.5 436 Q350 465 306 465 Q250 465 212 424 Q174 383 155.5 319.5 Q137 256 137 187 Q137 131 160 102.5 Q183 74 228 74 Z M513 784 L512 774 L383 615 L288 615 L221 774 L222 784 L288 784 L345 680 L443 784 L513 784 Z " />
<glyph glyph-name="ocircumflex" unicode="&#xf4;" horiz-adv-x="534" d="M212 -12 Q129 -12 83 37 Q37 86 37 174 Q37 277 67.5 362.5 Q98 448 162 499.5 Q226 551 322 551 Q405 551 451 502 Q497 453 497 365 Q497 262 466.5 176.5 Q436 91 372 39.5 Q308 -12 212 -12 Z M228 74 Q284 74 322 115 Q360 156 378.5 219.5 Q397 283 397 351 Q397 407 373.5 436 Q350 465 306 465 Q250 465 212 424 Q174 383 155.5 319.5 Q137 256 137 187 Q137 131 160 102.5 Q183 74 228 74 Z M481 625 L480 615 L414 615 L356 719 L258 615 L189 615 L190 625 L318 784 L413 784 L481 625 Z " />
<glyph glyph-name="uni1ED1" unicode="&#x1ed1;" horiz-adv-x="534" d="M653 855 L652 845 L529 718 L463 718 L464 728 L563 855 L653 855 Z M255 615 L186 615 L187 625 L314 764 L409 764 L482 625 L481 615 L415 615 L353 706 L255 615 Z M322 551 Q405 551 451 502 Q497 453 497 365 Q497 262 466.5 176.5 Q436 91 372 39.5 Q308 -12 212 -12 Q129 -12 83 37 Q37 86 37 174 Q37 277 67.5 362.5 Q98 448 162 499.5 Q226 551 322 551 Z M228 74 Q284 74 322 115 Q360 156 378.5 219.5 Q397 283 397 351 Q397 407 373.5 436 Q350 465 306 465 Q250 465 212 424 Q174 383 155.5 319.5 Q137 256 137 187 Q137 131 160 102.5 Q183 74 228 74 Z " />
<glyph glyph-name="uni1ED9" unicode="&#x1ed9;" horiz-adv-x="534" d="M212 -12 Q129 -12 83 37 Q37 86 37 174 Q37 277 67.5 362.5 Q98 448 162 499.5 Q226 551 322 551 Q405 551 451 502 Q497 453 497 365 Q497 262 466.5 176.5 Q436 91 372 39.5 Q308 -12 212 -12 Z M228 74 Q284 74 322 115 Q360 156 378.5 219.5 Q397 283 397 351 Q397 407 373.5 436 Q350 465 306 465 Q250 465 212 424 Q174 383 155.5 319.5 Q137 256 137 187 Q137 131 160 102.5 Q183 74 228 74 Z M181 -212 Q155 -212 140 -197.5 Q125 -183 125 -156 Q125 -125 143.5 -105 Q162 -85 194 -85 Q220 -85 235 -100 Q250 -115 250 -142 Q250 -173 231.5 -192.5 Q213 -212 181 -212 Z M481 625 L480 615 L414 615 L356 719 L258 615 L189 615 L190 625 L318 784 L413 784 L481 625 Z " />
<glyph glyph-name="uni1ED3" unicode="&#x1ed3;" horiz-adv-x="534" d="M180 719 L113 846 L114 856 L197 856 L240 729 L239 719 L180 719 Z M187 625 L314 764 L409 764 L482 625 L481 615 L415 615 L353 706 L255 615 L186 615 L187 625 Z M322 551 Q405 551 451 502 Q497 453 497 365 Q497 262 466.5 176.5 Q436 91 372 39.5 Q308 -12 212 -12 Q129 -12 83 37 Q37 86 37 174 Q37 277 67.5 362.5 Q98 448 162 499.5 Q226 551 322 551 Z M228 74 Q284 74 322 115 Q360 156 378.5 219.5 Q397 283 397 351 Q397 407 373.5 436 Q350 465 306 465 Q250 465 212 424 Q174 383 155.5 319.5 Q137 256 137 187 Q137 131 160 102.5 Q183 74 228 74 Z " />
<glyph glyph-name="uni1ED5" unicode="&#x1ed5;" horiz-adv-x="534" d="M536 888 Q576 888 597 871.5 Q618 855 618 823 Q618 796 605.5 783 Q593 770 570 760 Q552 751 543.5 743.5 Q535 736 535 722 L535 718 L471 722 L471 729 Q471 758 482.5 771 Q494 784 515 793 Q528 800 533.5 804.5 Q539 809 539 818 Q539 832 519 832 Q494 832 460 815 L442 864 Q484 888 536 888 Z M255 615 L186 615 L187 625 L314 764 L409 764 L482 625 L481 615 L415 615 L353 706 L255 615 Z M322 551 Q405 551 451 502 Q497 453 497 365 Q497 262 466.5 176.5 Q436 91 372 39.5 Q308 -12 212 -12 Q129 -12 83 37 Q37 86 37 174 Q37 277 67.5 362.5 Q98 448 162 499.5 Q226 551 322 551 Z M228 74 Q284 74 322 115 Q360 156 378.5 219.5 Q397 283 397 351 Q397 407 373.5 436 Q350 465 306 465 Q250 465 212 424 Q174 383 155.5 319.5 Q137 256 137 187 Q137 131 160 102.5 Q183 74 228 74 Z " />
<glyph glyph-name="uni1ED7" unicode="&#x1ed7;" horiz-adv-x="534" d="M543 915 Q532 857 503.5 826.5 Q475 796 431 796 Q405 796 391 805.5 Q377 815 364 832 Q354 844 347 849.5 Q340 855 329 855 Q310 855 294.5 839 Q279 823 271 794 L220 802 Q231 859 259.5 889.5 Q288 920 331 920 Q358 920 372 910.5 Q386 901 399 884 Q409 872 416 866.5 Q423 861 434 861 Q453 861 468.5 877 Q484 893 492 922 L543 915 Z M255 615 L186 615 L187 625 L314 764 L409 764 L482 625 L481 615 L415 615 L353 706 L255 615 Z M322 551 Q405 551 451 502 Q497 453 497 365 Q497 262 466.5 176.5 Q436 91 372 39.5 Q308 -12 212 -12 Q129 -12 83 37 Q37 86 37 174 Q37 277 67.5 362.5 Q98 448 162 499.5 Q226 551 322 551 Z M228 74 Q284 74 322 115 Q360 156 378.5 219.5 Q397 283 397 351 Q397 407 373.5 436 Q350 465 306 465 Q250 465 212 424 Q174 383 155.5 319.5 Q137 256 137 187 Q137 131 160 102.5 Q183 74 228 74 Z " />
<glyph glyph-name="odieresis" unicode="&#xf6;" horiz-adv-x="534" d="M252 627 Q227 627 213.5 641 Q200 655 200 680 Q200 709 217 728 Q234 747 264 747 Q288 747 301.5 733 Q315 719 315 694 Q315 664 298 645.5 Q281 627 252 627 Z M435 627 Q410 627 396.5 641 Q383 655 383 680 Q383 709 400 728 Q417 747 447 747 Q471 747 484.5 733 Q498 719 498 694 Q498 664 481 645.5 Q464 627 435 627 Z M212 -12 Q129 -12 83 37 Q37 86 37 174 Q37 277 67.5 362.5 Q98 448 162 499.5 Q226 551 322 551 Q405 551 451 502 Q497 453 497 365 Q497 262 466.5 176.5 Q436 91 372 39.5 Q308 -12 212 -12 Z M228 74 Q284 74 322 115 Q360 156 378.5 219.5 Q397 283 397 351 Q397 407 373.5 436 Q350 465 306 465 Q250 465 212 424 Q174 383 155.5 319.5 Q137 256 137 187 Q137 131 160 102.5 Q183 74 228 74 Z " />
<glyph glyph-name="uni1ECD" unicode="&#x1ecd;" horiz-adv-x="534" d="M212 -12 Q129 -12 83 37 Q37 86 37 174 Q37 277 67.5 362.5 Q98 448 162 499.5 Q226 551 322 551 Q405 551 451 502 Q497 453 497 365 Q497 262 466.5 176.5 Q436 91 372 39.5 Q308 -12 212 -12 Z M228 74 Q284 74 322 115 Q360 156 378.5 219.5 Q397 283 397 351 Q397 407 373.5 436 Q350 465 306 465 Q250 465 212 424 Q174 383 155.5 319.5 Q137 256 137 187 Q137 131 160 102.5 Q183 74 228 74 Z M181 -212 Q155 -212 140 -197.5 Q125 -183 125 -156 Q125 -125 143.5 -105 Q162 -85 194 -85 Q220 -85 235 -100 Q250 -115 250 -142 Q250 -173 231.5 -192.5 Q213 -212 181 -212 Z " />
<glyph glyph-name="ograve" unicode="&#xf2;" horiz-adv-x="534" d="M212 -12 Q129 -12 83 37 Q37 86 37 174 Q37 277 67.5 362.5 Q98 448 162 499.5 Q226 551 322 551 Q405 551 451 502 Q497 453 497 365 Q497 262 466.5 176.5 Q436 91 372 39.5 Q308 -12 212 -12 Z M228 74 Q284 74 322 115 Q360 156 378.5 219.5 Q397 283 397 351 Q397 407 373.5 436 Q350 465 306 465 Q250 465 212 424 Q174 383 155.5 319.5 Q137 256 137 187 Q137 131 160 102.5 Q183 74 228 74 Z M236 774 L237 784 L338 784 L394 625 L393 615 L324 615 L236 774 Z " />
<glyph glyph-name="uni1ECF" unicode="&#x1ecf;" horiz-adv-x="534" d="M212 -12 Q129 -12 83 37 Q37 86 37 174 Q37 277 67.5 362.5 Q98 448 162 499.5 Q226 551 322 551 Q405 551 451 502 Q497 453 497 365 Q497 262 466.5 176.5 Q436 91 372 39.5 Q308 -12 212 -12 Z M228 74 Q284 74 322 115 Q360 156 378.5 219.5 Q397 283 397 351 Q397 407 373.5 436 Q350 465 306 465 Q250 465 212 424 Q174 383 155.5 319.5 Q137 256 137 187 Q137 131 160 102.5 Q183 74 228 74 Z M301 616 L301 627 Q301 657 314 672.5 Q327 688 350 703 Q363 712 369 717.5 Q375 723 375 731 Q375 746 354 746 Q326 746 292 727 L273 780 Q317 805 372 805 Q455 805 455 739 Q455 712 442.5 697.5 Q430 683 407 670 Q387 658 377.5 648 Q368 638 368 621 L368 613 L301 616 Z " />
<glyph glyph-name="ohorn" unicode="&#x1a1;" horiz-adv-x="540" d="M625 676 Q625 644 619 611 Q607 548 571.5 519 Q536 490 464 485 Q497 438 497 365 Q497 262 466.5 176.5 Q436 91 372 39.5 Q308 -12 212 -12 Q129 -12 83 37 Q37 86 37 174 Q37 277 67.5 362.5 Q98 448 162 499.5 Q226 551 322 551 Q342 551 372 545 Q402 539 429 539 Q480 539 504 558.5 Q528 578 538 625 Q543 653 544 681 L625 676 Z M228 74 Q284 74 322 115 Q360 156 378.5 219.5 Q397 283 397 351 Q397 407 373.5 436 Q350 465 306 465 Q250 465 212 424 Q174 383 155.5 319.5 Q137 256 137 187 Q137 131 160 102.5 Q183 74 228 74 Z " />
<glyph glyph-name="uni1EDB" unicode="&#x1edb;" horiz-adv-x="540" d="M625 676 Q625 644 619 611 Q607 548 571.5 519 Q536 490 464 485 Q497 438 497 365 Q497 262 466.5 176.5 Q436 91 372 39.5 Q308 -12 212 -12 Q129 -12 83 37 Q37 86 37 174 Q37 277 67.5 362.5 Q98 448 162 499.5 Q226 551 322 551 Q342 551 372 545 Q402 539 429 539 Q480 539 504 558.5 Q528 578 538 625 Q543 653 544 681 L625 676 Z M228 74 Q284 74 322 115 Q360 156 378.5 219.5 Q397 283 397 351 Q397 407 373.5 436 Q350 465 306 465 Q250 465 212 424 Q174 383 155.5 319.5 Q137 256 137 187 Q137 131 160 102.5 Q183 74 228 74 Z M279 625 L403 784 L512 784 L511 774 L354 615 L278 615 L279 625 Z " />
<glyph glyph-name="uni1EE3" unicode="&#x1ee3;" horiz-adv-x="540" d="M625 676 Q625 644 619 611 Q607 548 571.5 519 Q536 490 464 485 Q497 438 497 365 Q497 262 466.5 176.5 Q436 91 372 39.5 Q308 -12 212 -12 Q129 -12 83 37 Q37 86 37 174 Q37 277 67.5 362.5 Q98 448 162 499.5 Q226 551 322 551 Q342 551 372 545 Q402 539 429 539 Q480 539 504 558.5 Q528 578 538 625 Q543 653 544 681 L625 676 Z M228 74 Q284 74 322 115 Q360 156 378.5 219.5 Q397 283 397 351 Q397 407 373.5 436 Q350 465 306 465 Q250 465 212 424 Q174 383 155.5 319.5 Q137 256 137 187 Q137 131 160 102.5 Q183 74 228 74 Z M181 -212 Q155 -212 140 -197.5 Q125 -183 125 -156 Q125 -125 143.5 -105 Q162 -85 194 -85 Q220 -85 235 -100 Q250 -115 250 -142 Q250 -173 231.5 -192.5 Q213 -212 181 -212 Z " />
<glyph glyph-name="uni1EDD" unicode="&#x1edd;" horiz-adv-x="540" d="M625 676 Q625 644 619 611 Q607 548 571.5 519 Q536 490 464 485 Q497 438 497 365 Q497 262 466.5 176.5 Q436 91 372 39.5 Q308 -12 212 -12 Q129 -12 83 37 Q37 86 37 174 Q37 277 67.5 362.5 Q98 448 162 499.5 Q226 551 322 551 Q342 551 372 545 Q402 539 429 539 Q480 539 504 558.5 Q528 578 538 625 Q543 653 544 681 L625 676 Z M228 74 Q284 74 322 115 Q360 156 378.5 219.5 Q397 283 397 351 Q397 407 373.5 436 Q350 465 306 465 Q250 465 212 424 Q174 383 155.5 319.5 Q137 256 137 187 Q137 131 160 102.5 Q183 74 228 74 Z M236 774 L237 784 L338 784 L394 625 L393 615 L324 615 L236 774 Z " />
<glyph glyph-name="uni1EDF" unicode="&#x1edf;" horiz-adv-x="540" d="M625 676 Q625 644 619 611 Q607 548 571.5 519 Q536 490 464 485 Q497 438 497 365 Q497 262 466.5 176.5 Q436 91 372 39.5 Q308 -12 212 -12 Q129 -12 83 37 Q37 86 37 174 Q37 277 67.5 362.5 Q98 448 162 499.5 Q226 551 322 551 Q342 551 372 545 Q402 539 429 539 Q480 539 504 558.5 Q528 578 538 625 Q543 653 544 681 L625 676 Z M228 74 Q284 74 322 115 Q360 156 378.5 219.5 Q397 283 397 351 Q397 407 373.5 436 Q350 465 306 465 Q250 465 212 424 Q174 383 155.5 319.5 Q137 256 137 187 Q137 131 160 102.5 Q183 74 228 74 Z M301 616 L301 627 Q301 657 314 672.5 Q327 688 350 703 Q363 712 369 717.5 Q375 723 375 731 Q375 746 354 746 Q326 746 292 727 L273 780 Q317 805 372 805 Q455 805 455 739 Q455 712 442.5 697.5 Q430 683 407 670 Q387 658 377.5 648 Q368 638 368 621 L368 613 L301 616 Z " />
<glyph glyph-name="uni1EE1" unicode="&#x1ee1;" horiz-adv-x="540" d="M625 676 Q625 644 619 611 Q607 548 571.5 519 Q536 490 464 485 Q497 438 497 365 Q497 262 466.5 176.5 Q436 91 372 39.5 Q308 -12 212 -12 Q129 -12 83 37 Q37 86 37 174 Q37 277 67.5 362.5 Q98 448 162 499.5 Q226 551 322 551 Q342 551 372 545 Q402 539 429 539 Q480 539 504 558.5 Q528 578 538 625 Q543 653 544 681 L625 676 Z M228 74 Q284 74 322 115 Q360 156 378.5 219.5 Q397 283 397 351 Q397 407 373.5 436 Q350 465 306 465 Q250 465 212 424 Q174 383 155.5 319.5 Q137 256 137 187 Q137 131 160 102.5 Q183 74 228 74 Z M170 624 Q183 689 213.5 722 Q244 755 287 755 Q314 755 332.5 744.5 Q351 734 370 715 Q383 703 392 697 Q401 691 412 691 Q430 691 445.5 708.5 Q461 726 470 757 L527 749 Q513 684 482.5 651 Q452 618 409 618 Q382 618 363.5 628.5 Q345 639 326 658 Q313 670 304 676 Q295 682 284 682 Q266 682 251 664 Q236 646 227 616 L170 624 Z " />
<glyph glyph-name="ohungarumlaut" unicode="&#x151;" horiz-adv-x="534" d="M212 -12 Q129 -12 83 37 Q37 86 37 174 Q37 277 67.5 362.5 Q98 448 162 499.5 Q226 551 322 551 Q405 551 451 502 Q497 453 497 365 Q497 262 466.5 176.5 Q436 91 372 39.5 Q308 -12 212 -12 Z M228 74 Q284 74 322 115 Q360 156 378.5 219.5 Q397 283 397 351 Q397 407 373.5 436 Q350 465 306 465 Q250 465 212 424 Q174 383 155.5 319.5 Q137 256 137 187 Q137 131 160 102.5 Q183 74 228 74 Z M219 625 L305 784 L401 784 L400 774 L282 615 L218 615 L219 625 Z M363 625 L450 784 L546 784 L545 774 L426 615 L362 615 L363 625 Z " />
<glyph glyph-name="omacron" unicode="&#x14d;" horiz-adv-x="534" d="M212 -12 Q129 -12 83 37 Q37 86 37 174 Q37 277 67.5 362.5 Q98 448 162 499.5 Q226 551 322 551 Q405 551 451 502 Q497 453 497 365 Q497 262 466.5 176.5 Q436 91 372 39.5 Q308 -12 212 -12 Z M228 74 Q284 74 322 115 Q360 156 378.5 219.5 Q397 283 397 351 Q397 407 373.5 436 Q350 465 306 465 Q250 465 212 424 Q174 383 155.5 319.5 Q137 256 137 187 Q137 131 160 102.5 Q183 74 228 74 Z M207 710 L499 710 L485 640 L194 640 L207 710 Z " />
<glyph glyph-name="oslash" unicode="&#xf8;" horiz-adv-x="534" d="M570 539 L483 449 Q497 412 497 365 Q497 262 466.5 176.5 Q436 91 372 39.5 Q308 -12 212 -12 Q130 -12 85 35 L43 -10 L-37 -10 L-36 0 L51 89 Q37 128 37 174 Q37 277 67.5 362.5 Q98 448 162 499.5 Q226 551 322 551 Q402 551 449 504 L492 549 L571 549 L570 539 Z M306 467 Q249 467 210.5 426 Q172 385 153 321 Q134 257 134 187 L134 175 L381 433 Q359 467 306 467 Z M228 72 Q285 72 323.5 113 Q362 154 381 218 Q400 282 400 351 L400 363 L153 106 Q177 72 228 72 Z " />
<glyph glyph-name="otilde" unicode="&#xf5;" horiz-adv-x="534" d="M212 -12 Q129 -12 83 37 Q37 86 37 174 Q37 277 67.5 362.5 Q98 448 162 499.5 Q226 551 322 551 Q405 551 451 502 Q497 453 497 365 Q497 262 466.5 176.5 Q436 91 372 39.5 Q308 -12 212 -12 Z M228 74 Q284 74 322 115 Q360 156 378.5 219.5 Q397 283 397 351 Q397 407 373.5 436 Q350 465 306 465 Q250 465 212 424 Q174 383 155.5 319.5 Q137 256 137 187 Q137 131 160 102.5 Q183 74 228 74 Z M170 624 Q183 689 213.5 722 Q244 755 287 755 Q314 755 332.5 744.5 Q351 734 370 715 Q383 703 392 697 Q401 691 412 691 Q430 691 445.5 708.5 Q461 726 470 757 L527 749 Q513 684 482.5 651 Q452 618 409 618 Q382 618 363.5 628.5 Q345 639 326 658 Q313 670 304 676 Q295 682 284 682 Q266 682 251 664 Q236 646 227 616 L170 624 Z " />
<glyph glyph-name="oe" unicode="&#x153;" horiz-adv-x="831" d="M473 241 Q471 213 471 200 Q471 78 582 78 Q644 78 713 115 L743 40 Q664 -11 563 -11 Q504 -11 462.5 11.5 Q421 34 399 78 Q327 -12 209 -12 Q128 -12 83 36 Q38 84 38 173 Q38 276 68.5 361.5 Q99 447 162.5 499 Q226 551 319 551 Q374 551 412 526 Q450 501 467 454 Q506 500 557 525.5 Q608 551 669 551 Q737 551 777.5 514.5 Q818 478 818 415 Q818 368 794 327 Q770 286 725 264 Q700 252 667 246.5 Q634 241 584 241 L473 241 Z M656 465 Q600 465 556.5 422 Q513 379 490 313 L584 313 Q654 313 684 333 Q701 344 710.5 362.5 Q720 381 720 403 Q720 433 703.5 449 Q687 465 656 465 Z M225 74 Q280 74 317 115 Q354 156 371.5 220 Q389 284 389 353 Q389 465 302 465 Q248 465 211 424 Q174 383 156 319 Q138 255 138 186 Q138 74 225 74 Z " />
<glyph glyph-name="p" unicode="p" horiz-adv-x="550" d="M365 551 Q436 551 475 502.5 Q514 454 514 366 Q514 269 484.5 182.5 Q455 96 396 42 Q337 -12 254 -12 Q215 -12 184 4 Q153 20 135 50 L85 -207 L-13 -207 L132 539 L220 539 L207 472 Q273 551 365 551 Z M250 75 Q303 75 340 116.5 Q377 158 395.5 221.5 Q414 285 414 350 Q414 459 325 459 Q293 459 263.5 445.5 Q234 432 204 403 L150 124 Q167 101 193 88 Q219 75 250 75 Z " />
<glyph glyph-name="thorn" unicode="&#xfe;" horiz-adv-x="550" d="M365 551 Q436 551 475 502.5 Q514 454 514 366 Q514 269 484.5 182.5 Q455 96 396 42 Q337 -12 254 -12 Q215 -12 184 4 Q153 20 135 50 L85 -207 L-13 -207 L132 539 L177 770 L275 770 L220 487 Q281 551 365 551 Z M250 75 Q303 75 340 116.5 Q377 158 395.5 221.5 Q414 285 414 350 Q414 459 325 459 Q293 459 264 446 Q235 433 204 403 L150 124 Q167 100 193 87.5 Q219 75 250 75 Z " />
<glyph glyph-name="q" unicode="q" horiz-adv-x="550" d="M523 539 L378 -207 L280 -207 L330 52 Q269 -12 185 -12 Q114 -12 75 36 Q36 84 36 172 Q36 269 65.5 356 Q95 443 154 497 Q213 551 296 551 Q339 551 372 532 Q405 513 421 477 L433 539 L523 539 Z M400 414 Q383 438 357 450.5 Q331 463 300 463 Q247 463 210 421.5 Q173 380 154.5 316.5 Q136 253 136 188 Q136 79 225 79 Q289 79 347 137 L400 414 Z " />
<glyph glyph-name="r" unicode="r" horiz-adv-x="380" d="M354 549 Q389 549 417 534 L386 445 Q357 453 327 453 Q290 453 259.5 437 Q229 421 201 387 L125 0 L27 0 L132 539 L220 539 L206 466 Q271 549 354 549 Z " />
<glyph glyph-name="racute" unicode="&#x155;" horiz-adv-x="380" d="M354 549 Q389 549 417 534 L386 445 Q357 453 327 453 Q290 453 259.5 437 Q229 421 201 387 L125 0 L27 0 L132 539 L220 539 L206 466 Q271 549 354 549 Z M235 625 L359 784 L468 784 L467 774 L310 615 L234 615 L235 625 Z " />
<glyph glyph-name="rcaron" unicode="&#x159;" horiz-adv-x="380" d="M354 549 Q389 549 417 534 L386 445 Q357 453 327 453 Q290 453 259.5 437 Q229 421 201 387 L125 0 L27 0 L132 539 L220 539 L206 466 Q271 549 354 549 Z M469 784 L468 774 L339 615 L244 615 L177 774 L178 784 L244 784 L301 680 L399 784 L469 784 Z " />
<glyph glyph-name="rcommaaccent" unicode="&#x157;" horiz-adv-x="380" d="M354 549 Q389 549 417 534 L386 445 Q357 453 327 453 Q290 453 259.5 437 Q229 421 201 387 L125 0 L27 0 L132 539 L220 539 L206 466 Q271 549 354 549 Z M-59 -234 Q-28 -207 -13 -179.5 Q2 -152 11 -108 Q14 -95 16 -72 L106 -79 Q104 -103 100 -123 Q91 -168 63 -203.5 Q35 -239 -24 -279 L-59 -234 Z " />
<glyph glyph-name="uni1E5B" unicode="&#x1e5b;" horiz-adv-x="380" d="M354 549 Q389 549 417 534 L386 445 Q357 453 327 453 Q290 453 259.5 437 Q229 421 201 387 L125 0 L27 0 L132 539 L220 539 L206 466 Q271 549 354 549 Z M41 -212 Q15 -212 0 -197.5 Q-15 -183 -15 -156 Q-15 -125 3.5 -105 Q22 -85 54 -85 Q80 -85 95 -100 Q110 -115 110 -142 Q110 -173 91.5 -192.5 Q73 -212 41 -212 Z " />
<glyph glyph-name="uni1E5D" unicode="&#x1e5d;" horiz-adv-x="380" d="M410 639 L179 639 L193 710 L424 710 L410 639 Z M206 466 Q271 549 354 549 Q389 549 417 534 L386 445 Q357 453 327 453 Q290 453 259.5 437 Q229 421 201 387 L125 0 L27 0 L132 539 L220 539 L206 466 Z M54 -85 Q81 -85 95.5 -100 Q110 -115 110 -142 Q110 -173 91.5 -192.5 Q73 -212 41 -212 Q15 -212 0 -197.5 Q-15 -183 -15 -156 Q-15 -125 3.5 -105 Q22 -85 54 -85 Z " />
<glyph glyph-name="uni1E5F" unicode="&#x1e5f;" horiz-adv-x="380" d="M354 549 Q389 549 417 534 L386 445 Q357 453 327 453 Q290 453 259.5 437 Q229 421 201 387 L125 0 L27 0 L132 539 L220 539 L206 466 Q271 549 354 549 Z M-59 -99 L172 -99 L158 -170 L-73 -170 L-59 -99 Z " />
<glyph glyph-name="s" unicode="s" horiz-adv-x="447" d="M161 -11 Q110 -11 65 2.5 Q20 16 -13 40 L33 118 Q90 74 171 74 Q228 74 261 98.5 Q294 123 294 167 Q294 188 280.5 200.5 Q267 213 238 221 L172 238 Q115 253 87 281.5 Q59 310 59 355 Q59 444 118.5 497 Q178 550 277 550 Q321 550 363 538.5 Q405 527 437 506 L390 429 Q328 464 264 464 Q212 464 183 441.5 Q154 419 154 379 Q154 359 167.5 346.5 Q181 334 210 326 L277 309 Q334 295 361.5 266 Q389 237 389 191 Q389 98 327 43.5 Q265 -11 161 -11 Z " />
<glyph glyph-name="sacute" unicode="&#x15b;" horiz-adv-x="447" d="M161 -11 Q110 -11 65 2.5 Q20 16 -13 40 L33 118 Q90 74 171 74 Q228 74 261 98.5 Q294 123 294 167 Q294 188 280.5 200.5 Q267 213 238 221 L172 238 Q115 253 87 281.5 Q59 310 59 355 Q59 444 118.5 497 Q178 550 277 550 Q321 550 363 538.5 Q405 527 437 506 L390 429 Q328 464 264 464 Q212 464 183 441.5 Q154 419 154 379 Q154 359 167.5 346.5 Q181 334 210 326 L277 309 Q334 295 361.5 266 Q389 237 389 191 Q389 98 327 43.5 Q265 -11 161 -11 Z M228 625 L352 784 L461 784 L460 774 L303 615 L227 615 L228 625 Z " />
<glyph glyph-name="scaron" unicode="&#x161;" horiz-adv-x="447" d="M161 -11 Q110 -11 65 2.5 Q20 16 -13 40 L33 118 Q90 74 171 74 Q228 74 261 98.5 Q294 123 294 167 Q294 188 280.5 200.5 Q267 213 238 221 L172 238 Q115 253 87 281.5 Q59 310 59 355 Q59 444 118.5 497 Q178 550 277 550 Q321 550 363 538.5 Q405 527 437 506 L390 429 Q328 464 264 464 Q212 464 183 441.5 Q154 419 154 379 Q154 359 167.5 346.5 Q181 334 210 326 L277 309 Q334 295 361.5 266 Q389 237 389 191 Q389 98 327 43.5 Q265 -11 161 -11 Z M462 784 L461 774 L332 615 L237 615 L170 774 L171 784 L237 784 L294 680 L392 784 L462 784 Z " />
<glyph glyph-name="scedilla" unicode="&#x15f;" horiz-adv-x="447" d="M264 464 Q212 464 183 441.5 Q154 419 154 379 Q154 359 167.5 346.5 Q181 334 210 326 L277 309 Q334 295 361.5 266 Q389 237 389 191 Q389 105 336 51.5 Q283 -2 191 -10 L150 -57 Q156 -56 166 -56 Q209 -56 232.5 -76 Q256 -96 256 -132 Q256 -178 218.5 -205 Q181 -232 124 -232 Q63 -232 21 -207 L41 -160 Q80 -176 115 -176 Q144 -176 161.5 -162.5 Q179 -149 179 -128 Q179 -103 147 -103 Q124 -103 101 -112 L80 -85 L125 -9 Q43 -2 -13 40 L33 118 Q90 74 171 74 Q228 74 261 98.5 Q294 123 294 167 Q294 188 280.5 200.5 Q267 213 238 221 L172 238 Q115 253 87 281.5 Q59 310 59 355 Q59 444 118.5 497 Q178 550 277 550 Q321 550 363 538.5 Q405 527 437 506 L390 429 Q328 464 264 464 Z " />
<glyph glyph-name="scircumflex" unicode="&#x15d;" horiz-adv-x="447" d="M161 -11 Q110 -11 65 2.5 Q20 16 -13 40 L33 118 Q90 74 171 74 Q228 74 261 98.5 Q294 123 294 167 Q294 188 280.5 200.5 Q267 213 238 221 L172 238 Q115 253 87 281.5 Q59 310 59 355 Q59 444 118.5 497 Q178 550 277 550 Q321 550 363 538.5 Q405 527 437 506 L390 429 Q328 464 264 464 Q212 464 183 441.5 Q154 419 154 379 Q154 359 167.5 346.5 Q181 334 210 326 L277 309 Q334 295 361.5 266 Q389 237 389 191 Q389 98 327 43.5 Q265 -11 161 -11 Z M430 625 L429 615 L363 615 L305 719 L207 615 L138 615 L139 625 L267 784 L362 784 L430 625 Z " />
<glyph glyph-name="scommaaccent" unicode="&#x219;" horiz-adv-x="447" d="M161 -11 Q110 -11 65 2.5 Q20 16 -13 40 L33 118 Q90 74 171 74 Q228 74 261 98.5 Q294 123 294 167 Q294 188 280.5 200.5 Q267 213 238 221 L172 238 Q115 253 87 281.5 Q59 310 59 355 Q59 444 118.5 497 Q178 550 277 550 Q321 550 363 538.5 Q405 527 437 506 L390 429 Q328 464 264 464 Q212 464 183 441.5 Q154 419 154 379 Q154 359 167.5 346.5 Q181 334 210 326 L277 309 Q334 295 361.5 266 Q389 237 389 191 Q389 98 327 43.5 Q265 -11 161 -11 Z M33 -234 Q64 -207 79 -179.5 Q94 -152 103 -108 Q106 -95 108 -72 L198 -79 Q196 -103 192 -123 Q183 -168 155 -203.5 Q127 -239 68 -279 L33 -234 Z " />
<glyph glyph-name="uni1E61" unicode="&#x1e61;" horiz-adv-x="447" d="M161 -11 Q110 -11 65 2.5 Q20 16 -13 40 L33 118 Q90 74 171 74 Q228 74 261 98.5 Q294 123 294 167 Q294 188 280.5 200.5 Q267 213 238 221 L172 238 Q115 253 87 281.5 Q59 310 59 355 Q59 444 118.5 497 Q178 550 277 550 Q321 550 363 538.5 Q405 527 437 506 L390 429 Q328 464 264 464 Q212 464 183 441.5 Q154 419 154 379 Q154 359 167.5 346.5 Q181 334 210 326 L277 309 Q334 295 361.5 266 Q389 237 389 191 Q389 98 327 43.5 Q265 -11 161 -11 Z M292 625 Q265 625 250 639.5 Q235 654 235 681 Q235 712 253.5 732 Q272 752 304 752 Q330 752 345 737.5 Q360 723 360 695 Q360 664 342 644.5 Q324 625 292 625 Z " />
<glyph glyph-name="uni1E63" unicode="&#x1e63;" horiz-adv-x="447" d="M161 -11 Q110 -11 65 2.5 Q20 16 -13 40 L33 118 Q90 74 171 74 Q228 74 261 98.5 Q294 123 294 167 Q294 188 280.5 200.5 Q267 213 238 221 L172 238 Q115 253 87 281.5 Q59 310 59 355 Q59 444 118.5 497 Q178 550 277 550 Q321 550 363 538.5 Q405 527 437 506 L390 429 Q328 464 264 464 Q212 464 183 441.5 Q154 419 154 379 Q154 359 167.5 346.5 Q181 334 210 326 L277 309 Q334 295 361.5 266 Q389 237 389 191 Q389 98 327 43.5 Q265 -11 161 -11 Z M133 -212 Q107 -212 92 -197.5 Q77 -183 77 -156 Q77 -125 95.5 -105 Q114 -85 146 -85 Q172 -85 187 -100 Q202 -115 202 -142 Q202 -173 183.5 -192.5 Q165 -212 133 -212 Z " />
<glyph glyph-name="germandbls" unicode="&#xdf;" horiz-adv-x="577" d="M390 418 Q458 402 493.5 360 Q529 318 529 253 Q529 178 499.5 119 Q470 60 414.5 27 Q359 -6 282 -6 Q228 -6 188 9 L214 89 Q249 77 292 77 Q361 77 397.5 122 Q434 167 434 237 Q434 294 395.5 324.5 Q357 355 276 360 L291 436 Q441 502 441 629 Q441 694 369 694 Q261 694 234 557 L125 0 L27 0 L136 561 Q157 666 220.5 722.5 Q284 779 379 779 Q453 779 493.5 744 Q534 709 534 644 Q534 568 497 510 Q460 452 390 418 Z " />
<glyph glyph-name="uni0259" unicode="&#x259;" horiz-adv-x="500" d="M272 550 Q365 550 415.5 498.5 Q466 447 466 349 Q466 257 429 174 Q392 91 324 39.5 Q256 -12 166 -12 Q95 -12 53.5 24.5 Q12 61 12 124 Q12 171 36 212 Q60 253 105 275 Q131 287 164 292.5 Q197 298 247 298 L365 298 Q368 319 368 339 Q368 401 339.5 431 Q311 461 253 461 Q187 461 118 424 L88 499 Q169 550 272 550 Z M179 74 Q237 74 281 117 Q325 160 348 226 L247 226 Q177 226 147 206 Q130 195 120.5 176.5 Q111 158 111 136 Q111 106 128 90 Q145 74 179 74 Z " />
<glyph glyph-name="t" unicode="t" horiz-adv-x="368" d="M218 -6 Q72 -6 72 118 Q72 138 77 168 L133 456 L48 456 L64 539 L149 539 L180 694 L277 694 L247 539 L396 539 L380 456 L231 456 L176 176 Q172 157 172 138 Q172 107 187.5 93.5 Q203 80 237 80 Q260 80 298 89 L302 6 Q267 -6 218 -6 Z " />
<glyph glyph-name="tcaron" unicode="&#x165;" horiz-adv-x="368" d="M354 770 L441 770 L439 760 L381 590 L319 590 L354 770 Z M218 -6 Q72 -6 72 118 Q72 138 77 168 L133 456 L48 456 L64 539 L149 539 L180 694 L277 694 L247 539 L396 539 L380 456 L231 456 L176 176 Q172 157 172 138 Q172 107 187.5 93.5 Q203 80 237 80 Q260 80 298 89 L302 6 Q267 -6 218 -6 Z " />
<glyph glyph-name="uni0163" unicode="&#x163;" horiz-adv-x="368" d="M176 176 Q172 157 172 138 Q172 107 187.5 93.5 Q203 80 237 80 Q260 80 298 89 L302 6 Q267 -6 218 -6 Q201 -6 193 -5 L148 -57 Q154 -56 164 -56 Q207 -56 230.5 -76 Q254 -96 254 -132 Q254 -178 216.5 -205 Q179 -232 122 -232 Q61 -232 19 -207 L39 -160 Q78 -176 113 -176 Q142 -176 159.5 -162.5 Q177 -149 177 -128 Q177 -103 145 -103 Q122 -103 99 -112 L78 -85 L134 9 Q72 38 72 118 Q72 146 77 168 L133 456 L48 456 L64 539 L149 539 L180 694 L277 694 L247 539 L396 539 L380 456 L231 456 L176 176 Z " />
<glyph glyph-name="uni021B" unicode="&#x21b;" horiz-adv-x="368" d="M218 -6 Q72 -6 72 118 Q72 138 77 168 L133 456 L48 456 L64 539 L149 539 L180 694 L277 694 L247 539 L396 539 L380 456 L231 456 L176 176 Q172 157 172 138 Q172 107 187.5 93.5 Q203 80 237 80 Q260 80 298 89 L302 6 Q267 -6 218 -6 Z M31 -234 Q62 -207 77 -179.5 Q92 -152 101 -108 Q104 -95 106 -72 L196 -79 Q194 -103 190 -123 Q181 -168 153 -203.5 Q125 -239 66 -279 L31 -234 Z " />
<glyph glyph-name="uni1E97" unicode="&#x1e97;" horiz-adv-x="368" d="M173 747 Q148 747 134.5 761 Q121 775 121 800 Q121 829 138 848 Q155 867 185 867 Q209 867 222.5 853 Q236 839 236 814 Q236 784 219 765.5 Q202 747 173 747 Z M356 747 Q331 747 317.5 761 Q304 775 304 800 Q304 829 321 848 Q338 867 368 867 Q392 867 405.5 853 Q419 839 419 814 Q419 784 402 765.5 Q385 747 356 747 Z M218 -6 Q72 -6 72 118 Q72 138 77 168 L133 456 L48 456 L64 539 L149 539 L180 694 L277 694 L247 539 L396 539 L380 456 L231 456 L176 176 Q172 157 172 138 Q172 107 187.5 93.5 Q203 80 237 80 Q260 80 298 89 L302 6 Q267 -6 218 -6 Z " />
<glyph glyph-name="uni1E6D" unicode="&#x1e6d;" horiz-adv-x="368" d="M218 -6 Q72 -6 72 118 Q72 138 77 168 L133 456 L48 456 L64 539 L149 539 L180 694 L277 694 L247 539 L396 539 L380 456 L231 456 L176 176 Q172 157 172 138 Q172 107 187.5 93.5 Q203 80 237 80 Q260 80 298 89 L302 6 Q267 -6 218 -6 Z M131 -212 Q105 -212 90 -197.5 Q75 -183 75 -156 Q75 -125 93.5 -105 Q112 -85 144 -85 Q170 -85 185 -100 Q200 -115 200 -142 Q200 -173 181.5 -192.5 Q163 -212 131 -212 Z " />
<glyph glyph-name="uni1E6F" unicode="&#x1e6f;" horiz-adv-x="368" d="M218 -6 Q72 -6 72 118 Q72 138 77 168 L133 456 L48 456 L64 539 L149 539 L180 694 L277 694 L247 539 L396 539 L380 456 L231 456 L176 176 Q172 157 172 138 Q172 107 187.5 93.5 Q203 80 237 80 Q260 80 298 89 L302 6 Q267 -6 218 -6 Z M31 -99 L262 -99 L248 -170 L17 -170 L31 -99 Z " />
<glyph glyph-name="u" unicode="u" horiz-adv-x="551" d="M523 539 L418 0 L330 0 L343 64 Q276 -12 180 -12 Q116 -12 81.5 21 Q47 54 47 114 Q47 137 51 158 L125 539 L223 539 L150 162 Q147 149 147 136 Q147 79 217 79 Q253 79 284 94 Q315 109 347 140 L425 539 L523 539 Z " />
<glyph glyph-name="uacute" unicode="&#xfa;" horiz-adv-x="551" d="M523 539 L418 0 L330 0 L343 64 Q276 -12 180 -12 Q116 -12 81.5 21 Q47 54 47 114 Q47 137 51 158 L125 539 L223 539 L150 162 Q147 149 147 136 Q147 79 217 79 Q253 79 284 94 Q315 109 347 140 L425 539 L523 539 Z M284 625 L408 784 L517 784 L516 774 L359 615 L283 615 L284 625 Z " />
<glyph glyph-name="ubreve" unicode="&#x16d;" horiz-adv-x="551" d="M523 539 L418 0 L330 0 L343 64 Q276 -12 180 -12 Q116 -12 81.5 21 Q47 54 47 114 Q47 137 51 158 L125 539 L223 539 L150 162 Q147 149 147 136 Q147 79 217 79 Q253 79 284 94 Q315 109 347 140 L425 539 L523 539 Z M346 614 Q287 614 255 646 Q223 678 223 735 Q223 752 226 770 L285 766 Q283 727 299 708 Q315 689 350 689 Q388 689 415.5 710 Q443 731 456 770 L513 766 Q496 692 453 653 Q410 614 346 614 Z " />
<glyph glyph-name="uni01D4" unicode="&#x1d4;" horiz-adv-x="551" d="M523 539 L418 0 L330 0 L343 64 Q276 -12 180 -12 Q116 -12 81.5 21 Q47 54 47 114 Q47 137 51 158 L125 539 L223 539 L150 162 Q147 149 147 136 Q147 79 217 79 Q253 79 284 94 Q315 109 347 140 L425 539 L523 539 Z M518 784 L517 774 L388 615 L293 615 L226 774 L227 784 L293 784 L350 680 L448 784 L518 784 Z " />
<glyph glyph-name="ucircumflex" unicode="&#xfb;" horiz-adv-x="551" d="M523 539 L418 0 L330 0 L343 64 Q276 -12 180 -12 Q116 -12 81.5 21 Q47 54 47 114 Q47 137 51 158 L125 539 L223 539 L150 162 Q147 149 147 136 Q147 79 217 79 Q253 79 284 94 Q315 109 347 140 L425 539 L523 539 Z M486 625 L485 615 L419 615 L361 719 L263 615 L194 615 L195 625 L323 784 L418 784 L486 625 Z " />
<glyph glyph-name="udieresis" unicode="&#xfc;" horiz-adv-x="551" d="M257 627 Q232 627 218.5 641 Q205 655 205 680 Q205 709 222 728 Q239 747 269 747 Q293 747 306.5 733 Q320 719 320 694 Q320 664 303 645.5 Q286 627 257 627 Z M440 627 Q415 627 401.5 641 Q388 655 388 680 Q388 709 405 728 Q422 747 452 747 Q476 747 489.5 733 Q503 719 503 694 Q503 664 486 645.5 Q469 627 440 627 Z M523 539 L418 0 L330 0 L343 64 Q276 -12 180 -12 Q116 -12 81.5 21 Q47 54 47 114 Q47 137 51 158 L125 539 L223 539 L150 162 Q147 149 147 136 Q147 79 217 79 Q253 79 284 94 Q315 109 347 140 L425 539 L523 539 Z " />
<glyph glyph-name="uni01D8" unicode="&#x1d8;" horiz-adv-x="551" d="M396 773 L330 773 L331 783 L430 910 L520 910 L519 900 L396 773 Z M257 627 Q232 627 218.5 641 Q205 655 205 680 Q205 709 222 728 Q239 747 269 747 Q293 747 306.5 733 Q320 719 320 694 Q320 664 303 645.5 Q286 627 257 627 Z M388 680 Q388 709 405 728 Q422 747 452 747 Q476 747 489.5 733 Q503 719 503 694 Q503 664 486 645.5 Q469 627 440 627 Q415 627 401.5 641 Q388 655 388 680 Z M523 539 L418 0 L330 0 L343 64 Q276 -12 180 -12 Q116 -12 81.5 21 Q47 54 47 114 Q47 137 51 158 L125 539 L223 539 L150 162 Q147 149 147 136 Q147 79 217 79 Q253 79 284 94 Q315 109 347 140 L425 539 L523 539 Z " />
<glyph glyph-name="uni01DA" unicode="&#x1da;" horiz-adv-x="551" d="M546 917 L545 907 L418 768 L323 768 L250 907 L251 917 L317 917 L379 826 L477 917 L546 917 Z M257 627 Q232 627 218.5 641 Q205 655 205 680 Q205 709 222 728 Q239 747 269 747 Q293 747 306.5 733 Q320 719 320 694 Q320 664 303 645.5 Q286 627 257 627 Z M503 694 Q503 664 486 645.5 Q469 627 440 627 Q415 627 401.5 641 Q388 655 388 680 Q388 709 405 728 Q422 747 452 747 Q476 747 489.5 733 Q503 719 503 694 Z M425 539 L523 539 L418 0 L330 0 L343 64 Q276 -12 180 -12 Q116 -12 81.5 21 Q47 54 47 114 Q47 137 51 158 L125 539 L223 539 L150 162 Q147 149 147 136 Q147 79 217 79 Q253 79 284 94 Q315 109 347 140 L425 539 Z " />
<glyph glyph-name="uni01DC" unicode="&#x1dc;" horiz-adv-x="551" d="M344 774 L277 901 L278 911 L361 911 L404 784 L403 774 L344 774 Z M257 627 Q232 627 218.5 641 Q205 655 205 680 Q205 709 222 728 Q239 747 269 747 Q293 747 306.5 733 Q320 719 320 694 Q320 664 303 645.5 Q286 627 257 627 Z M440 627 Q415 627 401.5 641 Q388 655 388 680 Q388 709 405 728 Q422 747 452 747 Q476 747 489.5 733 Q503 719 503 694 Q503 664 486 645.5 Q469 627 440 627 Z M523 539 L418 0 L330 0 L343 64 Q276 -12 180 -12 Q116 -12 81.5 21 Q47 54 47 114 Q47 137 51 158 L125 539 L223 539 L150 162 Q147 149 147 136 Q147 79 217 79 Q253 79 284 94 Q315 109 347 140 L425 539 L523 539 Z " />
<glyph glyph-name="uni01D6" unicode="&#x1d6;" horiz-adv-x="551" d="M519 794 L228 794 L241 864 L533 864 L519 794 Z M257 627 Q232 627 218.5 641 Q205 655 205 680 Q205 709 222 728 Q239 747 269 747 Q293 747 306.5 733 Q320 719 320 694 Q320 664 303 645.5 Q286 627 257 627 Z M388 680 Q388 709 405 728 Q422 747 452 747 Q476 747 489.5 733 Q503 719 503 694 Q503 664 486 645.5 Q469 627 440 627 Q415 627 401.5 641 Q388 655 388 680 Z M425 539 L523 539 L418 0 L330 0 L343 64 Q276 -12 180 -12 Q116 -12 81.5 21 Q47 54 47 114 Q47 137 51 158 L125 539 L223 539 L150 162 Q147 149 147 136 Q147 79 217 79 Q253 79 284 94 Q315 109 347 140 L425 539 Z " />
<glyph glyph-name="uni1EE5" unicode="&#x1ee5;" horiz-adv-x="551" d="M523 539 L418 0 L330 0 L343 64 Q276 -12 180 -12 Q116 -12 81.5 21 Q47 54 47 114 Q47 137 51 158 L125 539 L223 539 L150 162 Q147 149 147 136 Q147 79 217 79 Q253 79 284 94 Q315 109 347 140 L425 539 L523 539 Z M187 -212 Q161 -212 146 -197.5 Q131 -183 131 -156 Q131 -125 149.5 -105 Q168 -85 200 -85 Q226 -85 241 -100 Q256 -115 256 -142 Q256 -173 237.5 -192.5 Q219 -212 187 -212 Z " />
<glyph glyph-name="ugrave" unicode="&#xf9;" horiz-adv-x="551" d="M523 539 L418 0 L330 0 L343 64 Q276 -12 180 -12 Q116 -12 81.5 21 Q47 54 47 114 Q47 137 51 158 L125 539 L223 539 L150 162 Q147 149 147 136 Q147 79 217 79 Q253 79 284 94 Q315 109 347 140 L425 539 L523 539 Z M241 774 L242 784 L343 784 L399 625 L398 615 L329 615 L241 774 Z " />
<glyph glyph-name="uni1EE7" unicode="&#x1ee7;" horiz-adv-x="551" d="M523 539 L418 0 L330 0 L343 64 Q276 -12 180 -12 Q116 -12 81.5 21 Q47 54 47 114 Q47 137 51 158 L125 539 L223 539 L150 162 Q147 149 147 136 Q147 79 217 79 Q253 79 284 94 Q315 109 347 140 L425 539 L523 539 Z M306 616 L306 627 Q306 657 319 672.5 Q332 688 355 703 Q368 712 374 717.5 Q380 723 380 731 Q380 746 359 746 Q331 746 297 727 L278 780 Q322 805 377 805 Q460 805 460 739 Q460 712 447.5 697.5 Q435 683 412 670 Q392 658 382.5 648 Q373 638 373 621 L373 613 L306 616 Z " />
<glyph glyph-name="uhorn" unicode="&#x1b0;" horiz-adv-x="551" d="M656 676 Q656 644 650 611 Q639 552 607 522 Q575 492 512 484 L418 0 L330 0 L343 64 Q276 -12 180 -12 Q116 -12 81.5 21 Q47 54 47 114 Q47 137 51 158 L125 539 L223 539 L150 162 Q147 149 147 136 Q147 79 217 79 Q253 79 284 94 Q315 109 347 140 L425 539 L461 539 Q511 539 535 558.5 Q559 578 569 625 Q574 653 575 681 L656 676 Z " />
<glyph glyph-name="uni1EE9" unicode="&#x1ee9;" horiz-adv-x="551" d="M656 676 Q656 644 650 611 Q639 552 607 522 Q575 492 512 484 L418 0 L330 0 L343 64 Q276 -12 180 -12 Q116 -12 81.5 21 Q47 54 47 114 Q47 137 51 158 L125 539 L223 539 L150 162 Q147 149 147 136 Q147 79 217 79 Q253 79 284 94 Q315 109 347 140 L425 539 L461 539 Q511 539 535 558.5 Q559 578 569 625 Q574 653 575 681 L656 676 Z M284 625 L408 784 L517 784 L516 774 L359 615 L283 615 L284 625 Z " />
<glyph glyph-name="uni1EF1" unicode="&#x1ef1;" horiz-adv-x="551" d="M656 676 Q656 644 650 611 Q639 552 607 522 Q575 492 512 484 L418 0 L330 0 L343 64 Q276 -12 180 -12 Q116 -12 81.5 21 Q47 54 47 114 Q47 137 51 158 L125 539 L223 539 L150 162 Q147 149 147 136 Q147 79 217 79 Q253 79 284 94 Q315 109 347 140 L425 539 L461 539 Q511 539 535 558.5 Q559 578 569 625 Q574 653 575 681 L656 676 Z M187 -212 Q161 -212 146 -197.5 Q131 -183 131 -156 Q131 -125 149.5 -105 Q168 -85 200 -85 Q226 -85 241 -100 Q256 -115 256 -142 Q256 -173 237.5 -192.5 Q219 -212 187 -212 Z " />
<glyph glyph-name="uni1EEB" unicode="&#x1eeb;" horiz-adv-x="551" d="M656 676 Q656 644 650 611 Q639 552 607 522 Q575 492 512 484 L418 0 L330 0 L343 64 Q276 -12 180 -12 Q116 -12 81.5 21 Q47 54 47 114 Q47 137 51 158 L125 539 L223 539 L150 162 Q147 149 147 136 Q147 79 217 79 Q253 79 284 94 Q315 109 347 140 L425 539 L461 539 Q511 539 535 558.5 Q559 578 569 625 Q574 653 575 681 L656 676 Z M241 774 L242 784 L343 784 L399 625 L398 615 L329 615 L241 774 Z " />
<glyph glyph-name="uni1EED" unicode="&#x1eed;" horiz-adv-x="551" d="M656 676 Q656 644 650 611 Q639 552 607 522 Q575 492 512 484 L418 0 L330 0 L343 64 Q276 -12 180 -12 Q116 -12 81.5 21 Q47 54 47 114 Q47 137 51 158 L125 539 L223 539 L150 162 Q147 149 147 136 Q147 79 217 79 Q253 79 284 94 Q315 109 347 140 L425 539 L461 539 Q511 539 535 558.5 Q559 578 569 625 Q574 653 575 681 L656 676 Z M306 616 L306 627 Q306 657 319 672.5 Q332 688 355 703 Q368 712 374 717.5 Q380 723 380 731 Q380 746 359 746 Q331 746 297 727 L278 780 Q322 805 377 805 Q460 805 460 739 Q460 712 447.5 697.5 Q435 683 412 670 Q392 658 382.5 648 Q373 638 373 621 L373 613 L306 616 Z " />
<glyph glyph-name="uni1EEF" unicode="&#x1eef;" horiz-adv-x="551" d="M656 676 Q656 644 650 611 Q639 552 607 522 Q575 492 512 484 L418 0 L330 0 L343 64 Q276 -12 180 -12 Q116 -12 81.5 21 Q47 54 47 114 Q47 137 51 158 L125 539 L223 539 L150 162 Q147 149 147 136 Q147 79 217 79 Q253 79 284 94 Q315 109 347 140 L425 539 L461 539 Q511 539 535 558.5 Q559 578 569 625 Q574 653 575 681 L656 676 Z M175 624 Q188 689 218.5 722 Q249 755 292 755 Q319 755 337.5 744.5 Q356 734 375 715 Q388 703 397 697 Q406 691 417 691 Q435 691 450.5 708.5 Q466 726 475 757 L532 749 Q518 684 487.5 651 Q457 618 414 618 Q387 618 368.5 628.5 Q350 639 331 658 Q318 670 309 676 Q300 682 289 682 Q271 682 256 664 Q241 646 232 616 L175 624 Z " />
<glyph glyph-name="uhungarumlaut" unicode="&#x171;" horiz-adv-x="551" d="M523 539 L418 0 L330 0 L343 64 Q276 -12 180 -12 Q116 -12 81.5 21 Q47 54 47 114 Q47 137 51 158 L125 539 L223 539 L150 162 Q147 149 147 136 Q147 79 217 79 Q253 79 284 94 Q315 109 347 140 L425 539 L523 539 Z M224 625 L310 784 L406 784 L405 774 L287 615 L223 615 L224 625 Z M368 625 L455 784 L551 784 L550 774 L431 615 L367 615 L368 625 Z " />
<glyph glyph-name="umacron" unicode="&#x16b;" horiz-adv-x="551" d="M523 539 L418 0 L330 0 L343 64 Q276 -12 180 -12 Q116 -12 81.5 21 Q47 54 47 114 Q47 137 51 158 L125 539 L223 539 L150 162 Q147 149 147 136 Q147 79 217 79 Q253 79 284 94 Q315 109 347 140 L425 539 L523 539 Z M212 710 L504 710 L490 640 L199 640 L212 710 Z " />
<glyph glyph-name="uogonek" unicode="&#x173;" horiz-adv-x="551" d="M344 -154 Q374 -154 408 -136 L427 -195 Q405 -208 377.5 -215 Q350 -222 324 -222 Q277 -222 251 -200.5 Q225 -179 225 -141 Q225 -100 253 -62 Q281 -24 332 2 L345 67 Q275 -12 180 -12 Q116 -12 81.5 21 Q47 54 47 114 Q47 137 51 158 L125 539 L223 539 L150 162 Q147 149 147 136 Q147 79 217 79 Q253 79 284 94 Q315 109 347 140 L425 539 L523 539 L418 0 L419 0 Q372 -27 341.5 -60.5 Q311 -94 311 -124 Q311 -154 344 -154 Z " />
<glyph glyph-name="uring" unicode="&#x16f;" horiz-adv-x="551" d="M523 539 L418 0 L330 0 L343 64 Q276 -12 180 -12 Q116 -12 81.5 21 Q47 54 47 114 Q47 137 51 158 L125 539 L223 539 L150 162 Q147 149 147 136 Q147 79 217 79 Q253 79 284 94 Q315 109 347 140 L425 539 L523 539 Z M335 603 Q288 603 263 625 Q238 647 238 688 Q238 749 276 787 Q314 825 381 825 Q428 825 453.5 803 Q479 781 479 740 Q479 679 441 641 Q403 603 335 603 Z M346 654 Q381 654 398 676 Q415 698 415 730 Q415 774 371 774 Q336 774 319 752 Q302 730 302 698 Q302 654 346 654 Z " />
<glyph glyph-name="utilde" unicode="&#x169;" horiz-adv-x="551" d="M523 539 L418 0 L330 0 L343 64 Q276 -12 180 -12 Q116 -12 81.5 21 Q47 54 47 114 Q47 137 51 158 L125 539 L223 539 L150 162 Q147 149 147 136 Q147 79 217 79 Q253 79 284 94 Q315 109 347 140 L425 539 L523 539 Z M175 624 Q188 689 218.5 722 Q249 755 292 755 Q319 755 337.5 744.5 Q356 734 375 715 Q388 703 397 697 Q406 691 417 691 Q435 691 450.5 708.5 Q466 726 475 757 L532 749 Q518 684 487.5 651 Q457 618 414 618 Q387 618 368.5 628.5 Q350 639 331 658 Q318 670 309 676 Q300 682 289 682 Q271 682 256 664 Q241 646 232 616 L175 624 Z " />
<glyph glyph-name="v" unicode="v" horiz-adv-x="507" d="M534 539 L255 0 L148 0 L77 539 L177 539 L220 102 L429 539 L534 539 Z " />
<glyph glyph-name="w" unicode="w" horiz-adv-x="758" d="M784 539 L531 0 L425 0 L407 415 L229 0 L122 0 L79 539 L177 539 L196 105 L380 539 L481 539 L498 105 L681 539 L784 539 Z " />
<glyph glyph-name="wacute" unicode="&#x1e83;" horiz-adv-x="758" d="M784 539 L531 0 L425 0 L407 415 L229 0 L122 0 L79 539 L177 539 L196 105 L380 539 L481 539 L498 105 L681 539 L784 539 Z M388 625 L512 784 L621 784 L620 774 L463 615 L387 615 L388 625 Z " />
<glyph glyph-name="wcircumflex" unicode="&#x175;" horiz-adv-x="758" d="M784 539 L531 0 L425 0 L407 415 L229 0 L122 0 L79 539 L177 539 L196 105 L380 539 L481 539 L498 105 L681 539 L784 539 Z M591 625 L590 615 L524 615 L466 719 L368 615 L299 615 L300 625 L428 784 L523 784 L591 625 Z " />
<glyph glyph-name="wdieresis" unicode="&#x1e85;" horiz-adv-x="758" d="M361 627 Q336 627 322.5 641 Q309 655 309 680 Q309 709 326 728 Q343 747 373 747 Q397 747 410.5 733 Q424 719 424 694 Q424 664 407 645.5 Q390 627 361 627 Z M544 627 Q519 627 505.5 641 Q492 655 492 680 Q492 709 509 728 Q526 747 556 747 Q580 747 593.5 733 Q607 719 607 694 Q607 664 590 645.5 Q573 627 544 627 Z M784 539 L531 0 L425 0 L407 415 L229 0 L122 0 L79 539 L177 539 L196 105 L380 539 L481 539 L498 105 L681 539 L784 539 Z " />
<glyph glyph-name="wgrave" unicode="&#x1e81;" horiz-adv-x="758" d="M784 539 L531 0 L425 0 L407 415 L229 0 L122 0 L79 539 L177 539 L196 105 L380 539 L481 539 L498 105 L681 539 L784 539 Z M345 774 L346 784 L447 784 L503 625 L502 615 L433 615 L345 774 Z " />
<glyph glyph-name="x" unicode="x" horiz-adv-x="481" d="M296 273 L408 0 L303 0 L227 198 L79 0 L-33 0 L189 276 L82 539 L187 539 L257 351 L402 539 L514 539 L296 273 Z " />
<glyph glyph-name="y" unicode="y" horiz-adv-x="505" d="M533 539 L256 4 Q214 -77 145 -131 Q76 -185 -28 -220 L-54 -135 Q21 -109 70.5 -75.5 Q120 -42 151 3 L80 539 L179 539 L222 110 L428 539 L533 539 Z " />
<glyph glyph-name="yacute" unicode="&#xfd;" horiz-adv-x="505" d="M533 539 L256 4 Q214 -77 145 -131 Q76 -185 -28 -220 L-54 -135 Q21 -109 70.5 -75.5 Q120 -42 151 3 L80 539 L179 539 L222 110 L428 539 L533 539 Z M263 625 L387 784 L496 784 L495 774 L338 615 L262 615 L263 625 Z " />
<glyph glyph-name="ycircumflex" unicode="&#x177;" horiz-adv-x="505" d="M533 539 L256 4 Q214 -77 145 -131 Q76 -185 -28 -220 L-54 -135 Q21 -109 70.5 -75.5 Q120 -42 151 3 L80 539 L179 539 L222 110 L428 539 L533 539 Z M465 625 L464 615 L398 615 L340 719 L242 615 L173 615 L174 625 L302 784 L397 784 L465 625 Z " />
<glyph glyph-name="ydieresis" unicode="&#xff;" horiz-adv-x="505" d="M236 627 Q211 627 197.5 641 Q184 655 184 680 Q184 709 201 728 Q218 747 248 747 Q272 747 285.5 733 Q299 719 299 694 Q299 664 282 645.5 Q265 627 236 627 Z M419 627 Q394 627 380.5 641 Q367 655 367 680 Q367 709 384 728 Q401 747 431 747 Q455 747 468.5 733 Q482 719 482 694 Q482 664 465 645.5 Q448 627 419 627 Z M533 539 L256 4 Q214 -77 145 -131 Q76 -185 -28 -220 L-54 -135 Q21 -109 70.5 -75.5 Q120 -42 151 3 L80 539 L179 539 L222 110 L428 539 L533 539 Z " />
<glyph glyph-name="uni1E8F" unicode="&#x1e8f;" horiz-adv-x="505" d="M533 539 L256 4 Q214 -77 145 -131 Q76 -185 -28 -220 L-54 -135 Q21 -109 70.5 -75.5 Q120 -42 151 3 L80 539 L179 539 L222 110 L428 539 L533 539 Z M327 625 Q300 625 285 639.5 Q270 654 270 681 Q270 712 288.5 732 Q307 752 339 752 Q365 752 380 737.5 Q395 723 395 695 Q395 664 377 644.5 Q359 625 327 625 Z " />
<glyph glyph-name="uni1EF5" unicode="&#x1ef5;" horiz-adv-x="505" d="M533 539 L256 4 Q214 -77 145 -131 Q76 -185 -28 -220 L-54 -135 Q21 -109 70.5 -75.5 Q120 -42 151 3 L80 539 L179 539 L222 110 L428 539 L533 539 Z M282 -212 Q256 -212 241 -197.5 Q226 -183 226 -156 Q226 -125 244.5 -105 Q263 -85 295 -85 Q321 -85 336 -100 Q351 -115 351 -142 Q351 -173 332.5 -192.5 Q314 -212 282 -212 Z " />
<glyph glyph-name="ygrave" unicode="&#x1ef3;" horiz-adv-x="505" d="M533 539 L256 4 Q214 -77 145 -131 Q76 -185 -28 -220 L-54 -135 Q21 -109 70.5 -75.5 Q120 -42 151 3 L80 539 L179 539 L222 110 L428 539 L533 539 Z M220 774 L221 784 L322 784 L378 625 L377 615 L308 615 L220 774 Z " />
<glyph glyph-name="uni1EF7" unicode="&#x1ef7;" horiz-adv-x="505" d="M533 539 L256 4 Q214 -77 145 -131 Q76 -185 -28 -220 L-54 -135 Q21 -109 70.5 -75.5 Q120 -42 151 3 L80 539 L179 539 L222 110 L428 539 L533 539 Z M285 616 L285 627 Q285 657 298 672.5 Q311 688 334 703 Q347 712 353 717.5 Q359 723 359 731 Q359 746 338 746 Q310 746 276 727 L257 780 Q301 805 356 805 Q439 805 439 739 Q439 712 426.5 697.5 Q414 683 391 670 Q371 658 361.5 648 Q352 638 352 621 L352 613 L285 616 Z " />
<glyph glyph-name="uni1EF9" unicode="&#x1ef9;" horiz-adv-x="505" d="M533 539 L256 4 Q214 -77 145 -131 Q76 -185 -28 -220 L-54 -135 Q21 -109 70.5 -75.5 Q120 -42 151 3 L80 539 L179 539 L222 110 L428 539 L533 539 Z M154 624 Q167 689 197.5 722 Q228 755 271 755 Q298 755 316.5 744.5 Q335 734 354 715 Q367 703 376 697 Q385 691 396 691 Q414 691 429.5 708.5 Q445 726 454 757 L511 749 Q497 684 466.5 651 Q436 618 393 618 Q366 618 347.5 628.5 Q329 639 310 658 Q297 670 288 676 Q279 682 268 682 Q250 682 235 664 Q220 646 211 616 L154 624 Z " />
<glyph glyph-name="z" unicode="z" horiz-adv-x="443" d="M441 457 L107 82 L372 82 L356 0 L-20 0 L-5 82 L329 457 L78 457 L94 539 L456 539 L441 457 Z " />
<glyph glyph-name="zacute" unicode="&#x17a;" horiz-adv-x="443" d="M441 457 L107 82 L372 82 L356 0 L-20 0 L-5 82 L329 457 L78 457 L94 539 L456 539 L441 457 Z M230 625 L354 784 L463 784 L462 774 L305 615 L229 615 L230 625 Z " />
<glyph glyph-name="zcaron" unicode="&#x17e;" horiz-adv-x="443" d="M441 457 L107 82 L372 82 L356 0 L-20 0 L-5 82 L329 457 L78 457 L94 539 L456 539 L441 457 Z M464 784 L463 774 L334 615 L239 615 L172 774 L173 784 L239 784 L296 680 L394 784 L464 784 Z " />
<glyph glyph-name="zdotaccent" unicode="&#x17c;" horiz-adv-x="443" d="M441 457 L107 82 L372 82 L356 0 L-20 0 L-5 82 L329 457 L78 457 L94 539 L456 539 L441 457 Z M294 625 Q267 625 252 639.5 Q237 654 237 681 Q237 712 255.5 732 Q274 752 306 752 Q332 752 347 737.5 Q362 723 362 695 Q362 664 344 644.5 Q326 625 294 625 Z " />
<glyph glyph-name="uni1E93" unicode="&#x1e93;" horiz-adv-x="443" d="M441 457 L107 82 L372 82 L356 0 L-20 0 L-5 82 L329 457 L78 457 L94 539 L456 539 L441 457 Z M133 -212 Q107 -212 92 -197.5 Q77 -183 77 -156 Q77 -125 95.5 -105 Q114 -85 146 -85 Q172 -85 187 -100 Q202 -115 202 -142 Q202 -173 183.5 -192.5 Q165 -212 133 -212 Z " />
<glyph glyph-name="fi" unicode="&#xfb01;" horiz-adv-x="602" d="M128 456 L44 456 L59 539 L145 539 L157 603 Q173 688 230.5 734 Q288 780 378 780 Q403 780 435 774 L419 689 Q400 693 375 693 Q326 693 294.5 668 Q263 643 253 596 L242 539 L371 539 L355 456 L226 456 L138 0 L40 0 L128 456 Z M474 539 L572 539 L467 0 L369 0 L474 539 Z M546 625 Q519 625 504 639.5 Q489 654 489 681 Q489 712 507.5 732 Q526 752 558 752 Q584 752 599 737.5 Q614 723 614 695 Q614 664 596 644.5 Q578 625 546 625 Z " />
<glyph glyph-name="fl" unicode="&#xfb02;" horiz-adv-x="640" d="M128 456 L44 456 L59 539 L145 539 L157 603 Q173 688 230.5 734 Q288 780 378 780 Q403 780 435 774 L419 689 Q400 693 375 693 Q326 693 294.5 668 Q263 643 253 596 L242 539 L371 539 L355 456 L226 456 L138 0 L40 0 L128 456 Z M496 -5 Q443 -5 415.5 19 Q388 43 388 88 Q388 103 391 121 L518 770 L616 770 L491 130 Q489 122 489 109 Q489 93 497 87 Q505 81 524 81 Q539 81 563 85 L561 3 Q529 -5 496 -5 Z " />
<glyph glyph-name="ordfeminine" unicode="&#xaa;" horiz-adv-x="514" d="M339 729 Q406 729 444.5 701.5 Q483 674 483 624 Q483 611 480 597 L429 326 Q393 308 348 298.5 Q303 289 259 289 Q104 289 104 409 Q104 491 175.5 527.5 Q247 564 388 562 L393 591 Q395 603 395 609 Q395 633 378 643 Q361 653 326 653 Q276 653 209 627 L193 696 Q263 729 339 729 Z M189 410 Q189 385 205 374 Q221 363 262 363 Q313 363 353 378 L376 502 Q189 502 189 410 Z M84 191 L396 191 L382 119 L70 119 L84 191 Z " />
<glyph glyph-name="ordmasculine" unicode="&#xba;" horiz-adv-x="502" d="M259 288 Q184 288 145 328.5 Q106 369 106 450 Q106 526 133 590 Q160 654 212 692 Q264 730 337 730 Q412 730 451 689 Q490 648 490 570 Q490 495 464 431 Q438 367 385.5 327.5 Q333 288 259 288 Z M262 364 Q305 364 337 393 Q369 422 386 469.5 Q403 517 403 569 Q403 613 386 634 Q369 655 333 655 Q290 655 258 626 Q226 597 209 550 Q192 503 192 451 Q192 407 209 385.5 Q226 364 262 364 Z M80 191 L392 191 L377 119 L66 119 L80 191 Z " />
<glyph glyph-name="uni207F" unicode="&#x207f;" horiz-adv-x="504" d="M384 733 Q433 733 460.5 708.5 Q488 684 488 640 Q488 630 484 606 L429 323 L344 323 L396 593 Q398 605 398 610 Q398 656 339 656 Q293 656 243 623 L185 323 L100 323 L178 724 L257 724 L247 675 Q280 705 313.5 719 Q347 733 384 733 Z " />
<glyph glyph-name="pi" unicode="&#x3c0;" horiz-adv-x="622" d="M452 143 Q448 121 448 115 Q448 98 457 90 Q466 82 488 82 Q500 82 520 86 L523 2 Q488 -6 458 -6 Q347 -6 347 90 Q347 108 352 133 L415 457 L286 457 Q254 297 218 192 Q182 87 130 -2 L20 2 Q81 100 117.5 200.5 Q154 301 186 457 L61 457 L77 539 L653 539 L637 457 L513 457 L452 143 Z " />
<glyph glyph-name="zero" unicode="0" horiz-adv-x="596" d="M247 -12 Q156 -12 109 43 Q62 98 62 205 Q62 340 97 461.5 Q132 583 205 659.5 Q278 736 386 736 Q476 736 523 681.5 Q570 627 570 520 Q570 385 535 263.5 Q500 142 427 65 Q354 -12 247 -12 Z M258 75 Q326 75 374 144.5 Q422 214 446.5 316 Q471 418 471 513 Q471 583 447.5 616 Q424 649 375 649 Q307 649 259 579.5 Q211 510 186.5 408 Q162 306 162 211 Q162 141 185.5 108 Q209 75 258 75 Z " />
<glyph glyph-name="one" unicode="1" horiz-adv-x="433" d="M397 724 L256 0 L157 0 L278 619 L113 563 L100 645 L311 724 L397 724 Z " />
<glyph glyph-name="two" unicode="2" horiz-adv-x="507" d="M113 85 L419 85 L403 0 L-20 0 L-4 86 L290 385 Q347 443 376 484.5 Q405 526 405 569 Q405 605 381.5 625.5 Q358 646 313 646 Q273 646 226.5 630 Q180 614 140 588 L104 669 Q149 700 209.5 718 Q270 736 326 736 Q409 736 457.5 694.5 Q506 653 506 581 Q506 515 467.5 454.5 Q429 394 358 324 L113 85 Z " />
<glyph glyph-name="three" unicode="3" horiz-adv-x="535" d="M524 639 L317 441 Q390 433 429 387 Q468 341 468 264 Q468 189 431 125.5 Q394 62 329.5 25 Q265 -12 186 -12 Q131 -12 76.5 5 Q22 22 -13 50 L36 128 Q71 104 111.5 91.5 Q152 79 190 79 Q244 79 284 105 Q324 131 345.5 172.5 Q367 214 367 261 Q367 361 265 361 Q230 361 197 351 L165 400 L413 639 L114 639 L131 724 L540 724 L524 639 Z " />
<glyph glyph-name="four" unicode="4" horiz-adv-x="552" d="M417 236 L504 236 L487 151 L401 151 L371 0 L275 0 L304 151 L-1 151 L15 236 L370 724 L512 724 L417 236 Z M398 632 L121 236 L321 236 L398 632 Z " />
<glyph glyph-name="five" unicode="5" horiz-adv-x="527" d="M244 639 L195 446 Q236 460 287 460 Q372 460 419.5 411.5 Q467 363 467 276 Q467 199 430.5 132.5 Q394 66 329 27 Q264 -12 182 -12 Q127 -12 76 4 Q25 20 -6 46 L42 123 Q75 101 112.5 89.5 Q150 78 185 78 Q240 78 281 105.5 Q322 133 344 177.5 Q366 222 366 270 Q366 372 266 372 Q234 372 202 362.5 Q170 353 142 336 L86 371 L174 724 L528 724 L511 639 L244 639 Z " />
<glyph glyph-name="six" unicode="6" horiz-adv-x="547" d="M332 455 Q414 455 460 407 Q506 359 506 273 Q506 198 471.5 132.5 Q437 67 374.5 27.5 Q312 -12 232 -12 Q141 -12 89.5 39.5 Q38 91 38 184 Q38 275 87.5 364.5 Q137 454 231 550 L413 736 L483 676 L303 491 Q269 457 257 444 Q289 455 332 455 Z M237 74 Q289 74 327 102.5 Q365 131 385.5 176.5 Q406 222 406 271 Q406 377 303 377 Q251 377 194 351 Q169 314 154 268.5 Q139 223 139 181 Q139 74 237 74 Z " />
<glyph glyph-name="seven" unicode="7" horiz-adv-x="469" d="M529 724 L513 639 L115 -9 L29 29 L409 639 L83 639 L99 724 L529 724 Z " />
<glyph glyph-name="eight" unicode="8" horiz-adv-x="558" d="M230 -12 Q133 -12 78.5 31.5 Q24 75 24 152 Q24 228 76.5 289.5 Q129 351 210 380 Q170 397 147 434 Q124 471 124 523 Q124 584 155.5 633 Q187 682 241.5 709 Q296 736 363 736 Q448 736 495.5 696 Q543 656 543 585 Q543 516 500 458.5 Q457 401 389 378 Q441 360 470.5 318.5 Q500 277 500 217 Q500 151 464.5 98.5 Q429 46 367.5 17 Q306 -12 230 -12 Z M304 414 Q365 434 404 478 Q443 522 443 576 Q443 653 360 653 Q319 653 287.5 634 Q256 615 238.5 584.5 Q221 554 221 519 Q221 443 304 414 Z M231 72 Q281 72 320 91.5 Q359 111 380.5 144 Q402 177 402 216 Q402 300 294 343 Q216 317 169.5 267 Q123 217 123 159 Q123 116 150.5 94 Q178 72 231 72 Z " />
<glyph glyph-name="nine" unicode="9" horiz-adv-x="546" d="M349 736 Q441 736 492 684.5 Q543 633 543 540 Q543 449 494 360 Q445 271 351 174 L168 -12 L99 48 L279 233 Q313 267 325 280 Q289 269 250 269 Q168 269 122 317 Q76 365 76 451 Q76 526 110.5 591.5 Q145 657 207 696.5 Q269 736 349 736 Z M388 374 Q413 410 428 455.5 Q443 501 443 543 Q443 650 344 650 Q293 650 254.5 621.5 Q216 593 195.5 547.5 Q175 502 175 453 Q175 347 279 347 Q332 347 388 374 Z " />
<glyph glyph-name="fraction" unicode="&#x2044;" horiz-adv-x="252" d="M-157 22 L382 740 L445 702 L-93 -16 L-157 22 Z " />
<glyph glyph-name="onehalf" unicode="&#xbd;" horiz-adv-x="883" d="M712 702 L174 -16 L110 22 L649 740 L712 702 Z M204 641 L108 610 L98 675 L233 724 L300 724 L214 281 L134 281 L204 641 Z M609 67 L801 67 L788 0 L496 0 L509 67 L697 236 Q732 266 748.5 290 Q765 314 765 338 Q765 376 716 376 Q665 376 597 336 L569 401 Q606 425 647.5 437.5 Q689 450 728 450 Q786 450 817 424 Q848 398 848 349 Q848 304 822.5 265.5 Q797 227 749 186 L609 67 Z " />
<glyph glyph-name="uni2153" unicode="&#x2153;" horiz-adv-x="902" d="M712 702 L174 -16 L110 22 L649 740 L712 702 Z M204 641 L108 610 L98 675 L233 724 L300 724 L214 281 L134 281 L204 641 Z M853 375 L728 272 Q777 266 802 237.5 Q827 209 827 160 Q827 112 803 74 Q779 36 736 15 Q693 -6 637 -6 Q596 -6 560.5 6 Q525 18 499 38 L537 97 Q581 66 635 66 Q685 66 714.5 91.5 Q744 117 744 156 Q744 182 729 195 Q714 208 683 208 Q660 208 635 201 L609 242 L763 376 L577 376 L590 443 L866 443 L853 375 Z " />
<glyph glyph-name="uni2154" unicode="&#x2154;" horiz-adv-x="999" d="M810 702 L272 -16 L208 22 L747 740 L810 702 Z M324 281 L32 281 L45 348 L233 517 Q268 547 284.5 571 Q301 595 301 619 Q301 657 252 657 Q201 657 133 617 L105 682 Q142 706 183.5 718.5 Q225 731 264 731 Q322 731 353 705 Q384 679 384 630 Q384 585 358.5 546.5 Q333 508 285 467 L145 348 L337 348 L324 281 Z M951 375 L826 272 Q875 266 900 237.5 Q925 209 925 160 Q925 112 901 74 Q877 36 834 15 Q791 -6 735 -6 Q694 -6 658.5 6 Q623 18 597 38 L635 97 Q679 66 733 66 Q783 66 812.5 91.5 Q842 117 842 156 Q842 182 827 195 Q812 208 781 208 Q758 208 733 201 L707 242 L861 376 L675 376 L688 443 L964 443 L951 375 Z " />
<glyph glyph-name="onequarter" unicode="&#xbc;" horiz-adv-x="859" d="M712 702 L174 -16 L110 22 L649 740 L712 702 Z M204 641 L108 610 L98 675 L233 724 L300 724 L214 281 L134 281 L204 641 Z M748 156 L802 156 L789 89 L734 89 L717 0 L639 0 L656 89 L456 89 L468 156 L687 443 L804 443 L748 156 Z M670 156 L712 372 L550 156 L670 156 Z " />
<glyph glyph-name="threequarters" unicode="&#xbe;" horiz-adv-x="955" d="M807 702 L269 -16 L205 22 L744 740 L807 702 Z M362 441 Q362 393 338 355 Q314 317 271 296 Q228 275 172 275 Q131 275 95.5 287 Q60 299 34 319 L72 378 Q116 347 170 347 Q220 347 249.5 372.5 Q279 398 279 437 Q279 463 264 476 Q249 489 218 489 Q194 489 170 482 L144 523 L298 657 L112 657 L125 724 L401 724 L388 656 L263 553 Q312 547 337 518.5 Q362 490 362 441 Z M844 156 L898 156 L885 89 L830 89 L813 0 L735 0 L752 89 L552 89 L564 156 L783 443 L900 443 L844 156 Z M766 156 L808 372 L646 156 L766 156 Z " />
<glyph glyph-name="oneeighth" unicode="&#x215b;" horiz-adv-x="891" d="M712 702 L174 -16 L110 22 L649 740 L712 702 Z M204 641 L108 610 L98 675 L233 724 L300 724 L214 281 L134 281 L204 641 Z M753 230 Q788 220 808 194.5 Q828 169 828 131 Q828 72 780 33 Q732 -6 647 -6 Q577 -6 539 21 Q501 48 501 99 Q501 147 533.5 182 Q566 217 621 233 Q593 242 577.5 264.5 Q562 287 562 321 Q562 378 606.5 414 Q651 450 725 450 Q785 450 818 424.5 Q851 399 851 351 Q851 309 825 276 Q799 243 753 230 Z M721 384 Q683 384 661.5 363.5 Q640 343 640 313 Q640 293 651.5 279 Q663 265 689 257 Q726 268 749 291.5 Q772 315 772 343 Q772 384 721 384 Z M649 61 Q695 61 722 82.5 Q749 104 749 137 Q749 162 733 178 Q717 194 684 205 Q637 191 610 165 Q583 139 583 108 Q583 61 649 61 Z " />
<glyph glyph-name="threeeighths" unicode="&#x215c;" horiz-adv-x="986" d="M807 702 L269 -16 L205 22 L744 740 L807 702 Z M362 441 Q362 393 338 355 Q314 317 271 296 Q228 275 172 275 Q131 275 95.5 287 Q60 299 34 319 L72 378 Q116 347 170 347 Q220 347 249.5 372.5 Q279 398 279 437 Q279 463 264 476 Q249 489 218 489 Q194 489 170 482 L144 523 L298 657 L112 657 L125 724 L401 724 L388 656 L263 553 Q312 547 337 518.5 Q362 490 362 441 Z M849 230 Q884 220 904 194.5 Q924 169 924 131 Q924 72 876 33 Q828 -6 743 -6 Q673 -6 635 21 Q597 48 597 99 Q597 147 629.5 182 Q662 217 717 233 Q689 242 673.5 264.5 Q658 287 658 321 Q658 378 702.5 414 Q747 450 821 450 Q881 450 914 424.5 Q947 399 947 351 Q947 309 921 276 Q895 243 849 230 Z M817 384 Q779 384 757.5 363.5 Q736 343 736 313 Q736 293 747.5 279 Q759 265 785 257 Q822 268 845 291.5 Q868 315 868 343 Q868 384 817 384 Z M745 61 Q791 61 818 82.5 Q845 104 845 137 Q845 162 829 178 Q813 194 780 205 Q733 191 706 165 Q679 139 679 108 Q679 61 745 61 Z " />
<glyph glyph-name="fiveeighths" unicode="&#x215d;" horiz-adv-x="985" d="M807 702 L269 -16 L205 22 L744 740 L807 702 Z M368 448 Q368 399 344 359.5 Q320 320 276.5 297.5 Q233 275 176 275 Q136 275 99.5 286 Q63 297 41 316 L79 376 Q99 362 125 355 Q151 348 176 348 Q228 348 256 376 Q284 404 284 443 Q284 495 222 495 Q186 495 141 475 L95 502 L151 724 L396 724 L383 657 L208 657 L182 558 Q210 567 242 567 Q302 567 335 536 Q368 505 368 448 Z M848 230 Q883 220 903 194.5 Q923 169 923 131 Q923 72 875 33 Q827 -6 742 -6 Q672 -6 634 21 Q596 48 596 99 Q596 147 628.5 182 Q661 217 716 233 Q688 242 672.5 264.5 Q657 287 657 321 Q657 378 701.5 414 Q746 450 820 450 Q880 450 913 424.5 Q946 399 946 351 Q946 309 920 276 Q894 243 848 230 Z M816 384 Q778 384 756.5 363.5 Q735 343 735 313 Q735 293 746.5 279 Q758 265 784 257 Q821 268 844 291.5 Q867 315 867 343 Q867 384 816 384 Z M744 61 Q790 61 817 82.5 Q844 104 844 137 Q844 162 828 178 Q812 194 779 205 Q732 191 705 165 Q678 139 678 108 Q678 61 744 61 Z " />
<glyph glyph-name="seveneighths" unicode="&#x215e;" horiz-adv-x="882" d="M703 702 L165 -16 L101 22 L640 740 L703 702 Z M60 306 L292 654 L88 654 L101 724 L393 724 L380 654 L129 275 L60 306 Z M744 230 Q779 220 799 194.5 Q819 169 819 131 Q819 72 771 33 Q723 -6 638 -6 Q568 -6 530 21 Q492 48 492 99 Q492 147 524.5 182 Q557 217 612 233 Q584 242 568.5 264.5 Q553 287 553 321 Q553 378 597.5 414 Q642 450 716 450 Q776 450 809 424.5 Q842 399 842 351 Q842 309 816 276 Q790 243 744 230 Z M712 384 Q674 384 652.5 363.5 Q631 343 631 313 Q631 293 642.5 279 Q654 265 680 257 Q717 268 740 291.5 Q763 315 763 343 Q763 384 712 384 Z M640 61 Q686 61 713 82.5 Q740 104 740 137 Q740 162 724 178 Q708 194 675 205 Q628 191 601 165 Q574 139 574 108 Q574 61 640 61 Z " />
<glyph glyph-name="uni2080" unicode="&#x2080;" horiz-adv-x="428" d="M149 -79 Q86 -79 53 -40.5 Q20 -2 20 71 Q20 146 41.5 215.5 Q63 285 110.5 330.5 Q158 376 232 376 Q295 376 328.5 337.5 Q362 299 362 225 Q362 150 340.5 81 Q319 12 271 -33.5 Q223 -79 149 -79 Z M157 -10 Q199 -10 226.5 27.5 Q254 65 266.5 119 Q279 173 279 223 Q279 266 265.5 286 Q252 306 224 306 Q182 306 154.5 268.5 Q127 231 114.5 177 Q102 123 102 73 Q102 30 115.5 10 Q129 -10 157 -10 Z " />
<glyph glyph-name="uni2081" unicode="&#x2081;" horiz-adv-x="308" d="M232 370 L146 -73 L66 -73 L135 287 L40 256 L30 321 L165 370 L232 370 Z " />
<glyph glyph-name="uni2082" unicode="&#x2082;" horiz-adv-x="364" d="M75 -6 L268 -6 L255 -73 L-37 -73 L-24 -6 L164 163 Q199 193 215.5 217 Q232 241 232 265 Q232 303 183 303 Q132 303 64 263 L36 328 Q73 352 114.5 364.5 Q156 377 195 377 Q253 377 284 351 Q315 325 315 276 Q315 231 289.5 192.5 Q264 154 216 113 L75 -6 Z " />
<glyph glyph-name="uni2083" unicode="&#x2083;" horiz-adv-x="383" d="M320 302 L195 199 Q243 194 268.5 165 Q294 136 294 87 Q294 39 270 1 Q246 -37 203 -58 Q160 -79 104 -79 Q63 -79 27.5 -67 Q-8 -55 -34 -35 L4 24 Q48 -7 102 -7 Q152 -7 181.5 18.5 Q211 44 211 83 Q211 109 196 122 Q181 135 150 135 Q126 135 102 128 L76 169 L230 303 L44 303 L57 370 L333 370 L320 302 Z " />
<glyph glyph-name="uni2084" unicode="&#x2084;" horiz-adv-x="390" d="M265 83 L319 83 L306 16 L251 16 L234 -73 L156 -73 L173 16 L-27 16 L-15 83 L204 370 L321 370 L265 83 Z M187 83 L229 300 L68 83 L187 83 Z " />
<glyph glyph-name="uni2085" unicode="&#x2085;" horiz-adv-x="381" d="M139 303 L112 204 Q142 213 173 213 Q233 213 266 182 Q299 151 299 94 Q299 45 275 5.5 Q251 -34 207.5 -56.5 Q164 -79 107 -79 Q67 -79 30.5 -68 Q-6 -57 -28 -38 L10 22 Q31 8 56.5 0.5 Q82 -7 107 -7 Q159 -7 187 21.5 Q215 50 215 89 Q215 141 153 141 Q117 141 72 121 L26 148 L82 370 L327 370 L314 303 L139 303 Z " />
<glyph glyph-name="uni2086" unicode="&#x2086;" horiz-adv-x="385" d="M196 208 Q256 208 287 177.5 Q318 147 318 90 Q318 43 297 4.5 Q276 -34 235 -56.5 Q194 -79 137 -79 Q70 -79 34.5 -47 Q-1 -15 -1 45 Q-1 156 123 271 L239 379 L293 329 L186 229 L160 204 Q175 208 196 208 Z M140 -11 Q186 -11 211 19.5 Q236 50 236 90 Q236 147 174 147 Q142 147 109 133 Q95 112 88 89.5 Q81 67 81 47 Q81 -11 140 -11 Z " />
<glyph glyph-name="uni2087" unicode="&#x2087;" horiz-adv-x="329" d="M325 370 L312 300 L61 -79 L-8 -48 L224 300 L20 300 L33 370 L325 370 Z " />
<glyph glyph-name="uni2088" unicode="&#x2088;" horiz-adv-x="391" d="M134 -79 Q64 -79 26 -52 Q-12 -25 -12 26 Q-12 74 20.5 109 Q53 144 108 160 Q80 169 64.5 191.5 Q49 214 49 248 Q49 305 93.5 341 Q138 377 212 377 Q272 377 305 351.5 Q338 326 338 278 Q338 236 312 203 Q286 170 240 157 Q275 147 295 121.5 Q315 96 315 58 Q315 -1 267 -40 Q219 -79 134 -79 Z M176 184 Q213 195 236 218.5 Q259 242 259 270 Q259 311 208 311 Q170 311 148.5 290.5 Q127 270 127 240 Q127 220 138.5 206 Q150 192 176 184 Z M136 -12 Q182 -12 209 9.5 Q236 31 236 64 Q236 89 220 105 Q204 121 171 132 Q124 118 97 92 Q70 66 70 35 Q70 -12 136 -12 Z " />
<glyph glyph-name="uni2089" unicode="&#x2089;" horiz-adv-x="383" d="M199 376 Q266 376 301.5 344 Q337 312 337 252 Q337 141 213 26 L97 -82 L43 -32 L150 68 Q160 78 176 92 Q158 89 140 89 Q80 89 49 119 Q18 149 18 207 Q18 254 39 292.5 Q60 331 101 353.5 Q142 376 199 376 Z M227 164 Q241 185 248 207.5 Q255 230 255 250 Q255 308 196 308 Q150 308 125 277.5 Q100 247 100 207 Q100 178 115 164 Q130 150 162 150 Q194 150 227 164 Z " />
<glyph glyph-name="uni2070" unicode="&#x2070;" horiz-adv-x="429" d="M227 321 Q164 321 131 359.5 Q98 398 98 471 Q98 546 119.5 615.5 Q141 685 188.5 730.5 Q236 776 310 776 Q373 776 406.5 737.5 Q440 699 440 625 Q440 550 418.5 481 Q397 412 349 366.5 Q301 321 227 321 Z M235 390 Q277 390 304.5 427.5 Q332 465 344.5 519 Q357 573 357 623 Q357 666 343.5 686 Q330 706 302 706 Q260 706 232.5 668.5 Q205 631 192.5 577 Q180 523 180 473 Q180 430 193.5 410 Q207 390 235 390 Z " />
<glyph glyph-name="uni00B9" unicode="&#xb9;" horiz-adv-x="307" d="M309 770 L223 327 L143 327 L212 687 L117 656 L107 721 L242 770 L309 770 Z " />
</font>
</svg>
