<?xml version="1.0" encoding="UTF-8"?>
<svg xmlns="http://www.w3.org/2000/svg" xmlns:xlink="http://www.w3.org/1999/xlink" version="1.2" >
<font id="SamsungOneItalicLatinComp-700">
<font-face  font-family="SamsungOneItalicLatinComp" units-per-em="1024" ascent="794" descent="-230" font-style="normal" font-weight="700" font-stretch="normal" slope="-11" cap-height="724" x-height="543" underline-position="-121" underline-thickness="38" />
<missing-glyph  horiz-adv-x="664" d="M586 0 L486 0 L133 0 L78 0 L78 724 L178 724 L586 724 L586 0 Z M486 634 L218 634 L486 172 L486 634 Z M178 90 L446 90 L178 551 L178 90 Z " />
<glyph glyph-name="nonmarkingreturn" unicode="&#xd;" horiz-adv-x="129" d="" />
<glyph glyph-name="space" unicode="&#x20;" horiz-adv-x="179" d="" />
<glyph glyph-name="A" unicode="A" horiz-adv-x="647" d="M435 168 L177 168 L95 0 L-33 0 L346 724 L478 724 L575 0 L452 0 L435 168 Z M425 272 L393 611 L227 272 L425 272 Z " />
<glyph glyph-name="Aacute" unicode="&#xc1;" horiz-adv-x="647" d="M648 926 L647 914 L446 781 L342 781 L343 793 L509 926 L648 926 Z M478 724 L575 0 L452 0 L435 168 L177 168 L95 0 L-33 0 L346 724 L478 724 Z M425 272 L393 611 L227 272 L425 272 Z " />
<glyph glyph-name="Abreve" unicode="&#x102;" horiz-adv-x="647" d="M433 782 Q370 782 336 817 Q302 852 302 911 Q302 929 305 947 L373 943 Q371 905 387 887 Q403 869 437 869 Q474 869 501 889 Q528 909 541 947 L607 943 Q589 864 544.5 823 Q500 782 433 782 Z M478 724 L575 0 L452 0 L435 168 L177 168 L95 0 L-33 0 L346 724 L478 724 Z M425 272 L393 611 L227 272 L425 272 Z " />
<glyph glyph-name="uni1EAE" unicode="&#x1eae;" horiz-adv-x="647" d="M602 1035 L601 1025 L479 898 L400 898 L401 908 L497 1035 L602 1035 Z M429 834 Q470 834 499 852 Q528 870 540 904 L597 900 Q581 834 537.5 799 Q494 764 429 764 Q366 764 331 795 Q296 826 296 881 Q296 888 298 904 L358 900 Q357 834 429 834 Z M478 724 L575 0 L452 0 L435 168 L177 168 L95 0 L-33 0 L346 724 L478 724 Z M425 272 L393 611 L227 272 L425 272 Z " />
<glyph glyph-name="uni1EB6" unicode="&#x1eb6;" horiz-adv-x="647" d="M433 782 Q370 782 336 817 Q302 852 302 911 Q302 929 305 947 L373 943 Q371 905 387 887 Q403 869 437 869 Q474 869 501 889 Q528 909 541 947 L607 943 Q589 864 544.5 823 Q500 782 433 782 Z M478 724 L575 0 L452 0 L435 168 L177 168 L95 0 L-33 0 L346 724 L478 724 Z M425 272 L393 611 L227 272 L425 272 Z M251 -77 Q282 -77 298.5 -93.5 Q315 -110 315 -141 Q315 -176 294.5 -197.5 Q274 -219 237 -219 Q206 -219 189.5 -203 Q173 -187 173 -156 Q173 -121 194 -99 Q215 -77 251 -77 Z " />
<glyph glyph-name="uni1EB0" unicode="&#x1eb0;" horiz-adv-x="647" d="M415 899 L348 1026 L349 1036 L447 1036 L486 909 L485 899 L415 899 Z M429 764 Q366 764 331 795 Q296 826 296 881 Q296 888 298 904 L358 900 Q357 834 429 834 Q470 834 499 852 Q528 870 540 904 L597 900 Q581 834 537.5 799 Q494 764 429 764 Z M478 724 L575 0 L452 0 L435 168 L177 168 L95 0 L-33 0 L346 724 L478 724 Z M425 272 L393 611 L227 272 L425 272 Z " />
<glyph glyph-name="uni1EB2" unicode="&#x1eb2;" horiz-adv-x="647" d="M454 987 Q428 987 400 971 L381 1022 Q423 1046 473 1046 Q511 1046 532 1029 Q553 1012 553 981 Q553 955 540 942.5 Q527 930 504 919 Q489 912 483 907.5 Q477 903 477 894 L477 888 L409 892 L409 903 Q409 926 418.5 936.5 Q428 947 446 955 Q457 960 462.5 964.5 Q468 969 468 977 Q468 987 454 987 Z M429 764 Q366 764 331 795 Q296 826 296 881 Q296 888 298 904 L358 900 Q357 834 429 834 Q470 834 499 852 Q528 870 540 904 L597 900 Q581 834 537.5 799 Q494 764 429 764 Z M478 724 L575 0 L452 0 L435 168 L177 168 L95 0 L-33 0 L346 724 L478 724 Z M425 272 L393 611 L227 272 L425 272 Z " />
<glyph glyph-name="uni1EB4" unicode="&#x1eb4;" horiz-adv-x="647" d="M405 975 Q385 975 369.5 961 Q354 947 347 922 L294 931 Q317 1045 409 1045 Q436 1045 451 1037 Q466 1029 480 1014 Q492 1003 499 998.5 Q506 994 518 994 Q537 994 553 1008 Q569 1022 576 1047 L629 1038 Q619 982 589.5 953 Q560 924 513 924 Q486 924 471.5 932 Q457 940 443 955 Q431 966 424 970.5 Q417 975 405 975 Z M429 834 Q470 834 499 852 Q528 870 540 904 L597 900 Q581 834 537.5 799 Q494 764 429 764 Q366 764 331 795 Q296 826 296 881 Q296 888 298 904 L358 900 Q357 834 429 834 Z M478 724 L575 0 L452 0 L435 168 L177 168 L95 0 L-33 0 L346 724 L478 724 Z M425 272 L393 611 L227 272 L425 272 Z " />
<glyph glyph-name="uni01CD" unicode="&#x1cd;" horiz-adv-x="647" d="M624 926 L623 914 L484 781 L368 781 L281 914 L282 926 L367 926 L435 843 L536 926 L624 926 Z M478 724 L575 0 L452 0 L435 168 L177 168 L95 0 L-33 0 L346 724 L478 724 Z M425 272 L393 611 L227 272 L425 272 Z " />
<glyph glyph-name="Acircumflex" unicode="&#xc2;" horiz-adv-x="647" d="M596 793 L595 781 L510 781 L442 864 L342 781 L253 781 L254 793 L393 926 L509 926 L596 793 Z M478 724 L575 0 L452 0 L435 168 L177 168 L95 0 L-33 0 L346 724 L478 724 Z M425 272 L393 611 L227 272 L425 272 Z " />
<glyph glyph-name="uni1EA4" unicode="&#x1ea4;" horiz-adv-x="647" d="M760 1029 L759 1019 L637 892 L558 892 L559 902 L655 1029 L760 1029 Z M507 934 L580 795 L579 785 L501 785 L442 870 L350 785 L268 785 L269 795 L397 934 L507 934 Z M478 724 L575 0 L452 0 L435 168 L177 168 L95 0 L-33 0 L346 724 L478 724 Z M425 272 L393 611 L227 272 L425 272 Z " />
<glyph glyph-name="uni1EAC" unicode="&#x1eac;" horiz-adv-x="647" d="M596 793 L595 781 L510 781 L442 864 L342 781 L253 781 L254 793 L393 926 L509 926 L596 793 Z M478 724 L575 0 L452 0 L435 168 L177 168 L95 0 L-33 0 L346 724 L478 724 Z M425 272 L393 611 L227 272 L425 272 Z M251 -77 Q282 -77 298.5 -93.5 Q315 -110 315 -141 Q315 -176 294.5 -197.5 Q274 -219 237 -219 Q206 -219 189.5 -203 Q173 -187 173 -156 Q173 -121 194 -99 Q215 -77 251 -77 Z " />
<glyph glyph-name="uni1EA6" unicode="&#x1ea6;" horiz-adv-x="647" d="M254 893 L187 1020 L188 1030 L286 1030 L325 903 L324 893 L254 893 Z M580 795 L579 785 L501 785 L442 870 L350 785 L268 785 L269 795 L397 934 L507 934 L580 795 Z M478 724 L575 0 L452 0 L435 168 L177 168 L95 0 L-33 0 L346 724 L478 724 Z M425 272 L393 611 L227 272 L425 272 Z " />
<glyph glyph-name="uni1EA8" unicode="&#x1ea8;" horiz-adv-x="647" d="M632 1041 Q670 1041 691 1024 Q712 1007 712 976 Q712 950 699 937.5 Q686 925 663 914 Q648 907 642 902.5 Q636 898 636 889 L636 883 L568 887 L568 898 Q568 921 577.5 931.5 Q587 942 605 950 Q616 955 621.5 959.5 Q627 964 627 972 Q627 982 613 982 Q587 982 559 966 L540 1017 Q582 1041 632 1041 Z M507 934 L580 795 L579 785 L501 785 L442 870 L350 785 L268 785 L269 795 L397 934 L507 934 Z M478 724 L575 0 L452 0 L435 168 L177 168 L95 0 L-33 0 L346 724 L478 724 Z M425 272 L393 611 L227 272 L425 272 Z " />
<glyph glyph-name="uni1EAA" unicode="&#x1eaa;" horiz-adv-x="647" d="M629 1038 Q619 982 589.5 953 Q560 924 513 924 Q486 924 471.5 932 Q457 940 443 955 Q431 966 424 970.5 Q417 975 405 975 Q385 975 369.5 961 Q354 947 347 922 L294 931 Q317 1045 409 1045 Q436 1045 451 1037 Q466 1029 480 1014 Q492 1003 499 998.5 Q506 994 518 994 Q537 994 553 1008 Q569 1022 576 1047 L629 1038 Z M499 902 L576 778 L575 768 L501 768 L437 844 L343 768 L266 768 L267 778 L393 902 L499 902 Z M478 724 L575 0 L452 0 L435 168 L177 168 L95 0 L-33 0 L346 724 L478 724 Z M425 272 L393 611 L227 272 L425 272 Z " />
<glyph glyph-name="Adieresis" unicode="&#xc4;" horiz-adv-x="647" d="M337 787 Q309 787 293.5 802.5 Q278 818 278 846 Q278 878 297.5 899 Q317 920 349 920 Q377 920 392.5 904 Q408 888 408 860 Q408 827 389 807 Q370 787 337 787 Z M539 920 Q567 920 582.5 904 Q598 888 598 860 Q598 827 579 807 Q560 787 527 787 Q499 787 483.5 802.5 Q468 818 468 846 Q468 878 487.5 899 Q507 920 539 920 Z M478 724 L575 0 L452 0 L435 168 L177 168 L95 0 L-33 0 L346 724 L478 724 Z M425 272 L393 611 L227 272 L425 272 Z " />
<glyph glyph-name="uni1EA0" unicode="&#x1ea0;" horiz-adv-x="647" d="M435 168 L177 168 L95 0 L-33 0 L346 724 L478 724 L575 0 L452 0 L435 168 Z M425 272 L393 611 L227 272 L425 272 Z M238 -220 Q207 -220 190 -203.5 Q173 -187 173 -156 Q173 -121 194 -99 Q215 -77 251 -77 Q282 -77 298.5 -93.5 Q315 -110 315 -141 Q315 -176 294.5 -198 Q274 -220 238 -220 Z " />
<glyph glyph-name="Agrave" unicode="&#xc0;" horiz-adv-x="647" d="M404 781 L264 914 L265 926 L393 926 L498 793 L497 781 L404 781 Z M435 168 L177 168 L95 0 L-33 0 L346 724 L478 724 L575 0 L452 0 L435 168 Z M425 272 L393 611 L227 272 L425 272 Z " />
<glyph glyph-name="uni1EA2" unicode="&#x1ea2;" horiz-adv-x="647" d="M435 885 Q408 885 366 865 L344 924 Q369 939 399 946.5 Q429 954 458 954 Q504 954 529 936 Q554 918 554 885 Q554 857 539.5 843.5 Q525 830 498 817 Q479 808 471 802 Q463 796 463 785 L463 778 L385 783 L385 794 Q385 822 397.5 834 Q410 846 432 855 Q443 860 448.5 864 Q454 868 454 874 Q454 885 435 885 Z M435 168 L177 168 L95 0 L-33 0 L346 724 L478 724 L575 0 L452 0 L435 168 Z M425 272 L393 611 L227 272 L425 272 Z " />
<glyph glyph-name="Amacron" unicode="&#x100;" horiz-adv-x="647" d="M597 889 L582 808 L276 808 L291 889 L597 889 Z M478 724 L575 0 L452 0 L435 168 L177 168 L95 0 L-33 0 L346 724 L478 724 Z M425 272 L393 611 L227 272 L425 272 Z " />
<glyph glyph-name="Aogonek" unicode="&#x104;" horiz-adv-x="647" d="M584 -199 Q560 -213 531 -219.5 Q502 -226 474 -226 Q424 -226 396 -203.5 Q368 -181 368 -140 Q368 -99 394.5 -62 Q421 -25 469 0 L452 0 L435 168 L177 168 L95 0 L-33 0 L346 724 L478 724 L575 0 L574 0 Q529 -26 499 -59 Q469 -92 469 -121 Q469 -149 501 -149 Q527 -149 561 -132 L584 -199 Z M425 272 L393 611 L227 272 L425 272 Z " />
<glyph glyph-name="Aring" unicode="&#xc5;" horiz-adv-x="647" d="M421 768 Q369 768 342 792 Q315 816 315 862 Q315 920 357 959 Q399 998 467 998 Q518 998 545.5 974 Q573 950 573 904 Q573 846 530.5 807 Q488 768 421 768 Z M455 939 Q422 939 405.5 918.5 Q389 898 389 870 Q389 848 399.5 837.5 Q410 827 433 827 Q466 827 482 847.5 Q498 868 498 896 Q498 918 487.5 928.5 Q477 939 455 939 Z M435 168 L177 168 L95 0 L-33 0 L346 724 L478 724 L575 0 L452 0 L435 168 Z M425 272 L393 611 L227 272 L425 272 Z " />
<glyph glyph-name="Atilde" unicode="&#xc3;" horiz-adv-x="647" d="M376 847 Q358 847 342.5 829.5 Q327 812 319 784 L253 793 Q268 862 299.5 896.5 Q331 931 377 931 Q404 931 423 921 Q442 911 461 894 Q475 882 483.5 876.5 Q492 871 503 871 Q521 871 536.5 887.5 Q552 904 561 934 L626 925 Q610 855 578 820.5 Q546 786 500 786 Q473 786 455 796 Q437 806 418 824 Q404 836 395.5 841.5 Q387 847 376 847 Z M478 724 L575 0 L452 0 L435 168 L177 168 L95 0 L-33 0 L346 724 L478 724 Z M425 272 L393 611 L227 272 L425 272 Z " />
<glyph glyph-name="AE" unicode="&#xc6;" horiz-adv-x="887" d="M613 617 L576 424 L792 424 L770 316 L556 316 L516 107 L826 107 L805 0 L376 0 L407 158 L179 158 L72 0 L-62 0 L437 724 L565 724 L932 724 L911 617 L613 617 Z M427 262 L498 627 L250 262 L427 262 Z " />
<glyph glyph-name="B" unicode="B" horiz-adv-x="609" d="M471 381 Q521 364 547.5 332 Q574 300 574 255 Q574 180 542 122.5 Q510 65 449 32.5 Q388 0 306 0 L92 0 L26 0 L167 724 L287 724 L413 724 Q497 724 546 682.5 Q595 641 595 571 Q595 495 564.5 448 Q534 401 471 381 Z M266 618 L228 422 L354 422 Q413 422 443 457 Q473 492 473 550 Q473 618 388 618 L266 618 Z M331 106 Q391 106 421.5 145.5 Q452 185 452 247 Q452 320 368 320 L208 320 L167 106 L331 106 Z " />
<glyph glyph-name="C" unicode="C" horiz-adv-x="572" d="M302 -11 Q178 -11 110 55.5 Q42 122 42 243 Q42 371 90.5 484.5 Q139 598 229.5 667 Q320 736 439 736 Q492 736 539 721.5 Q586 707 619 681 L565 589 Q496 628 419 628 Q340 628 283 574.5 Q226 521 196 436.5 Q166 352 166 262 Q166 99 326 99 Q410 99 475 134 L504 42 Q469 17 414.5 3 Q360 -11 302 -11 Z " />
<glyph glyph-name="Cacute" unicode="&#x106;" horiz-adv-x="572" d="M354 793 L520 926 L659 926 L658 914 L457 781 L353 781 L354 793 Z M302 -11 Q178 -11 110 55.5 Q42 122 42 243 Q42 371 90.5 484.5 Q139 598 229.5 667 Q320 736 439 736 Q492 736 539 721.5 Q586 707 619 681 L565 589 Q496 628 419 628 Q340 628 283 574.5 Q226 521 196 436.5 Q166 352 166 262 Q166 99 326 99 Q410 99 475 134 L504 42 Q469 17 414.5 3 Q360 -11 302 -11 Z " />
<glyph glyph-name="Ccaron" unicode="&#x10c;" horiz-adv-x="572" d="M635 926 L634 914 L495 781 L379 781 L292 914 L293 926 L378 926 L446 843 L547 926 L635 926 Z M42 243 Q42 371 90.5 484.5 Q139 598 229.5 667 Q320 736 439 736 Q492 736 539 721.5 Q586 707 619 681 L565 589 Q496 628 419 628 Q340 628 283 574.5 Q226 521 196 436.5 Q166 352 166 262 Q166 99 326 99 Q410 99 475 134 L504 42 Q469 17 414.5 3 Q360 -11 302 -11 Q178 -11 110 55.5 Q42 122 42 243 Z " />
<glyph glyph-name="Ccedilla" unicode="&#xc7;" horiz-adv-x="572" d="M419 628 Q340 628 283 574.5 Q226 521 196 436.5 Q166 352 166 262 Q166 99 326 99 Q410 99 475 134 L504 42 Q469 18 417 4 Q365 -10 309 -11 L270 -54 Q275 -53 286 -53 Q330 -53 354.5 -73.5 Q379 -94 379 -131 Q379 -179 339.5 -207.5 Q300 -236 239 -236 Q174 -236 128 -209 L149 -158 Q193 -174 224 -174 Q253 -174 270.5 -161 Q288 -148 288 -129 Q288 -105 259 -105 Q235 -105 215 -114 L190 -83 L235 -5 Q142 12 92 76 Q42 140 42 243 Q42 371 90.5 484.5 Q139 598 229.5 667 Q320 736 439 736 Q492 736 539 721.5 Q586 707 619 681 L565 589 Q496 628 419 628 Z " />
<glyph glyph-name="Ccircumflex" unicode="&#x108;" horiz-adv-x="572" d="M353 781 L264 781 L265 793 L404 926 L520 926 L607 793 L606 781 L521 781 L453 864 L353 781 Z M419 628 Q340 628 283 574.5 Q226 521 196 436.5 Q166 352 166 262 Q166 99 326 99 Q410 99 475 134 L504 42 Q469 17 414.5 3 Q360 -11 302 -11 Q178 -11 110 55.5 Q42 122 42 243 Q42 371 90.5 484.5 Q139 598 229.5 667 Q320 736 439 736 Q492 736 539 721.5 Q586 707 619 681 L565 589 Q496 628 419 628 Z " />
<glyph glyph-name="Cdotaccent" unicode="&#x10a;" horiz-adv-x="572" d="M443 791 Q412 791 395.5 807 Q379 823 379 854 Q379 889 400 911 Q421 933 457 933 Q488 933 504.5 916.5 Q521 900 521 869 Q521 834 500.5 812.5 Q480 791 443 791 Z M302 -11 Q178 -11 110 55.5 Q42 122 42 243 Q42 371 90.5 484.5 Q139 598 229.5 667 Q320 736 439 736 Q492 736 539 721.5 Q586 707 619 681 L565 589 Q496 628 419 628 Q340 628 283 574.5 Q226 521 196 436.5 Q166 352 166 262 Q166 99 326 99 Q410 99 475 134 L504 42 Q469 17 414.5 3 Q360 -11 302 -11 Z " />
<glyph glyph-name="D" unicode="D" horiz-adv-x="663" d="M386 724 Q509 724 576 660 Q643 596 643 477 Q643 340 598.5 232.5 Q554 125 464 62.5 Q374 0 245 0 L26 0 L167 724 L386 724 Z M263 107 Q347 107 405 155 Q463 203 492 282.5 Q521 362 521 456 Q521 617 363 617 L266 617 L166 107 L263 107 Z " />
<glyph glyph-name="Eth" unicode="&#xd0;" horiz-adv-x="664" d="M387 724 Q510 724 577 660 Q644 596 644 477 Q644 341 599 233 Q554 125 464.5 62.5 Q375 0 246 0 L26 0 L88 321 L27 321 L45 413 L106 413 L167 724 L387 724 Z M264 107 Q348 107 406 155 Q464 203 493 282.5 Q522 362 522 456 Q522 617 364 617 L266 617 L226 413 L383 413 L365 321 L208 321 L167 107 L264 107 Z " />
<glyph glyph-name="Dcaron" unicode="&#x10e;" horiz-adv-x="663" d="M368 781 L281 914 L282 926 L367 926 L435 843 L536 926 L624 926 L623 914 L484 781 L368 781 Z M386 724 Q509 724 576 660 Q643 596 643 477 Q643 340 598.5 232.5 Q554 125 464 62.5 Q374 0 245 0 L26 0 L167 724 L386 724 Z M263 107 Q347 107 405 155 Q463 203 492 282.5 Q521 362 521 456 Q521 617 363 617 L266 617 L166 107 L263 107 Z " />
<glyph glyph-name="Dcroat" unicode="&#x110;" horiz-adv-x="664" d="M387 724 Q510 724 577 660 Q644 596 644 477 Q644 341 599 233 Q554 125 464.5 62.5 Q375 0 246 0 L26 0 L88 321 L27 321 L45 413 L106 413 L167 724 L387 724 Z M264 107 Q348 107 406 155 Q464 203 493 282.5 Q522 362 522 456 Q522 617 364 617 L266 617 L226 413 L383 413 L365 321 L208 321 L167 107 L264 107 Z " />
<glyph glyph-name="uni1E0C" unicode="&#x1e0c;" horiz-adv-x="663" d="M386 724 Q509 724 576 660 Q643 596 643 477 Q643 340 598.5 232.5 Q554 125 464 62.5 Q374 0 245 0 L26 0 L167 724 L386 724 Z M263 107 Q347 107 405 155 Q463 203 492 282.5 Q521 362 521 456 Q521 617 363 617 L266 617 L166 107 L263 107 Z M234 -220 Q203 -220 186 -203.5 Q169 -187 169 -156 Q169 -121 190 -99 Q211 -77 247 -77 Q278 -77 294.5 -93.5 Q311 -110 311 -141 Q311 -176 290.5 -198 Q270 -220 234 -220 Z " />
<glyph glyph-name="uni1E0E" unicode="&#x1e0e;" horiz-adv-x="663" d="M386 724 Q509 724 576 660 Q643 596 643 477 Q643 340 598.5 232.5 Q554 125 464 62.5 Q374 0 245 0 L26 0 L167 724 L386 724 Z M263 107 Q347 107 405 155 Q463 203 492 282.5 Q521 362 521 456 Q521 617 363 617 L266 617 L166 107 L263 107 Z M97 -100 L403 -100 L387 -181 L81 -181 L97 -100 Z " />
<glyph glyph-name="E" unicode="E" horiz-adv-x="552" d="M267 617 L229 424 L457 424 L436 316 L208 316 L167 107 L490 107 L469 0 L26 0 L167 724 L597 724 L576 617 L267 617 Z " />
<glyph glyph-name="Eacute" unicode="&#xc9;" horiz-adv-x="552" d="M619 926 L618 914 L417 781 L313 781 L314 793 L480 926 L619 926 Z M167 724 L597 724 L576 617 L267 617 L229 424 L457 424 L436 316 L208 316 L167 107 L490 107 L469 0 L26 0 L167 724 Z " />
<glyph glyph-name="Ebreve" unicode="&#x114;" horiz-adv-x="552" d="M404 782 Q341 782 307 817 Q273 852 273 911 Q273 929 276 947 L344 943 Q342 905 358 887 Q374 869 408 869 Q445 869 472 889 Q499 909 512 947 L578 943 Q560 864 515.5 823 Q471 782 404 782 Z M267 617 L229 424 L457 424 L436 316 L208 316 L167 107 L490 107 L469 0 L26 0 L167 724 L597 724 L576 617 L267 617 Z " />
<glyph glyph-name="Ecaron" unicode="&#x11a;" horiz-adv-x="552" d="M339 781 L252 914 L253 926 L338 926 L406 843 L507 926 L595 926 L594 914 L455 781 L339 781 Z M267 617 L229 424 L457 424 L436 316 L208 316 L167 107 L490 107 L469 0 L26 0 L167 724 L597 724 L576 617 L267 617 Z " />
<glyph glyph-name="Ecircumflex" unicode="&#xca;" horiz-adv-x="552" d="M313 781 L224 781 L225 793 L364 926 L480 926 L567 793 L566 781 L481 781 L413 864 L313 781 Z M267 617 L229 424 L457 424 L436 316 L208 316 L167 107 L490 107 L469 0 L26 0 L167 724 L597 724 L576 617 L267 617 Z " />
<glyph glyph-name="uni1EBE" unicode="&#x1ebe;" horiz-adv-x="552" d="M731 1029 L730 1019 L608 892 L529 892 L530 902 L626 1029 L731 1029 Z M321 785 L239 785 L240 795 L368 934 L478 934 L551 795 L550 785 L472 785 L413 870 L321 785 Z M167 724 L597 724 L576 617 L267 617 L229 424 L457 424 L436 316 L208 316 L167 107 L490 107 L469 0 L26 0 L167 724 Z " />
<glyph glyph-name="uni1EC6" unicode="&#x1ec6;" horiz-adv-x="552" d="M313 781 L224 781 L225 793 L364 926 L480 926 L567 793 L566 781 L481 781 L413 864 L313 781 Z M267 617 L229 424 L457 424 L436 316 L208 316 L167 107 L490 107 L469 0 L26 0 L167 724 L597 724 L576 617 L267 617 Z M228 -77 Q259 -77 275.5 -93.5 Q292 -110 292 -141 Q292 -176 271.5 -198 Q251 -220 215 -220 Q184 -220 167 -203.5 Q150 -187 150 -156 Q150 -121 171 -99 Q192 -77 228 -77 Z " />
<glyph glyph-name="uni1EC0" unicode="&#x1ec0;" horiz-adv-x="552" d="M225 893 L158 1020 L159 1030 L257 1030 L296 903 L295 893 L225 893 Z M240 795 L368 934 L478 934 L551 795 L550 785 L472 785 L413 870 L321 785 L239 785 L240 795 Z M267 617 L229 424 L457 424 L436 316 L208 316 L167 107 L490 107 L469 0 L26 0 L167 724 L597 724 L576 617 L267 617 Z " />
<glyph glyph-name="uni1EC2" unicode="&#x1ec2;" horiz-adv-x="552" d="M603 1041 Q641 1041 662 1024 Q683 1007 683 976 Q683 950 670 937.5 Q657 925 634 914 Q619 907 613 902.5 Q607 898 607 889 L607 883 L539 887 L539 898 Q539 921 548.5 931.5 Q558 942 576 950 Q587 955 592.5 959.5 Q598 964 598 972 Q598 982 584 982 Q558 982 530 966 L511 1017 Q553 1041 603 1041 Z M321 785 L239 785 L240 795 L368 934 L478 934 L551 795 L550 785 L472 785 L413 870 L321 785 Z M167 724 L597 724 L576 617 L267 617 L229 424 L457 424 L436 316 L208 316 L167 107 L490 107 L469 0 L26 0 L167 724 Z " />
<glyph glyph-name="uni1EC4" unicode="&#x1ec4;" horiz-adv-x="552" d="M376 975 Q356 975 340.5 961 Q325 947 318 922 L265 931 Q288 1045 380 1045 Q407 1045 422 1037 Q437 1029 451 1014 Q463 1003 470 998.5 Q477 994 489 994 Q508 994 524 1008 Q540 1022 547 1047 L600 1038 Q590 982 560.5 953 Q531 924 484 924 Q457 924 442.5 932 Q428 940 414 955 Q402 966 395 970.5 Q388 975 376 975 Z M314 768 L237 768 L238 778 L364 902 L470 902 L547 778 L546 768 L472 768 L408 844 L314 768 Z M167 724 L597 724 L576 617 L267 617 L229 424 L457 424 L436 316 L208 316 L167 107 L490 107 L469 0 L26 0 L167 724 Z " />
<glyph glyph-name="Edieresis" unicode="&#xcb;" horiz-adv-x="552" d="M308 787 Q280 787 264.5 802.5 Q249 818 249 846 Q249 878 268.5 899 Q288 920 320 920 Q348 920 363.5 904 Q379 888 379 860 Q379 827 360 807 Q341 787 308 787 Z M498 787 Q470 787 454.5 802.5 Q439 818 439 846 Q439 878 458.5 899 Q478 920 510 920 Q538 920 553.5 904 Q569 888 569 860 Q569 827 550 807 Q531 787 498 787 Z M267 617 L229 424 L457 424 L436 316 L208 316 L167 107 L490 107 L469 0 L26 0 L167 724 L597 724 L576 617 L267 617 Z " />
<glyph glyph-name="Edotaccent" unicode="&#x116;" horiz-adv-x="552" d="M403 791 Q372 791 355.5 807 Q339 823 339 854 Q339 889 360 911 Q381 933 417 933 Q448 933 464.5 916.5 Q481 900 481 869 Q481 834 460.5 812.5 Q440 791 403 791 Z M267 617 L229 424 L457 424 L436 316 L208 316 L167 107 L490 107 L469 0 L26 0 L167 724 L597 724 L576 617 L267 617 Z " />
<glyph glyph-name="uni1EB8" unicode="&#x1eb8;" horiz-adv-x="552" d="M267 617 L229 424 L457 424 L436 316 L208 316 L167 107 L490 107 L469 0 L26 0 L167 724 L597 724 L576 617 L267 617 Z M215 -220 Q184 -220 167 -203.5 Q150 -187 150 -156 Q150 -121 171 -99 Q192 -77 228 -77 Q259 -77 275.5 -93.5 Q292 -110 292 -141 Q292 -176 271.5 -198 Q251 -220 215 -220 Z " />
<glyph glyph-name="Egrave" unicode="&#xc8;" horiz-adv-x="552" d="M375 781 L235 914 L236 926 L364 926 L469 793 L468 781 L375 781 Z M267 617 L229 424 L457 424 L436 316 L208 316 L167 107 L490 107 L469 0 L26 0 L167 724 L597 724 L576 617 L267 617 Z " />
<glyph glyph-name="uni1EBA" unicode="&#x1eba;" horiz-adv-x="552" d="M406 885 Q379 885 337 865 L315 924 Q340 939 370 946.5 Q400 954 429 954 Q475 954 500 936 Q525 918 525 885 Q525 857 510.5 843.5 Q496 830 469 817 Q450 808 442 802 Q434 796 434 785 L434 778 L356 783 L356 794 Q356 822 368.5 834 Q381 846 403 855 Q414 860 419.5 864 Q425 868 425 874 Q425 885 406 885 Z M267 617 L229 424 L457 424 L436 316 L208 316 L167 107 L490 107 L469 0 L26 0 L167 724 L597 724 L576 617 L267 617 Z " />
<glyph glyph-name="Emacron" unicode="&#x112;" horiz-adv-x="552" d="M553 808 L247 808 L262 889 L568 889 L553 808 Z M267 617 L229 424 L457 424 L436 316 L208 316 L167 107 L490 107 L469 0 L26 0 L167 724 L597 724 L576 617 L267 617 Z " />
<glyph glyph-name="Eogonek" unicode="&#x118;" horiz-adv-x="552" d="M267 617 L229 424 L457 424 L436 316 L208 316 L167 107 L490 107 L469 0 Q424 -26 394 -59 Q364 -92 364 -121 Q364 -149 396 -149 Q422 -149 456 -132 L479 -199 Q455 -213 426 -219.5 Q397 -226 369 -226 Q319 -226 291 -203.5 Q263 -181 263 -140 Q263 -99 289.5 -62 Q316 -25 364 0 L26 0 L167 724 L597 724 L576 617 L267 617 Z " />
<glyph glyph-name="uni1EBC" unicode="&#x1ebc;" horiz-adv-x="552" d="M347 847 Q329 847 313.5 829.5 Q298 812 290 784 L224 793 Q239 862 270.5 896.5 Q302 931 348 931 Q375 931 394 921 Q413 911 432 894 Q446 882 454.5 876.5 Q463 871 474 871 Q492 871 507.5 887.5 Q523 904 532 934 L597 925 Q581 855 549 820.5 Q517 786 471 786 Q444 786 426 796 Q408 806 389 824 Q375 836 366.5 841.5 Q358 847 347 847 Z M167 724 L597 724 L576 617 L267 617 L229 424 L457 424 L436 316 L208 316 L167 107 L490 107 L469 0 L26 0 L167 724 Z " />
<glyph glyph-name="F" unicode="F" horiz-adv-x="515" d="M267 617 L226 406 L471 406 L450 297 L205 297 L147 0 L26 0 L167 724 L590 724 L569 617 L267 617 Z " />
<glyph glyph-name="G" unicode="G" horiz-adv-x="639" d="M370 405 L607 405 L537 43 Q492 17 434.5 2.5 Q377 -12 318 -12 Q192 -12 123.5 57 Q55 126 55 251 Q55 385 102.5 495.5 Q150 606 242 671 Q334 736 461 736 Q519 736 567.5 722 Q616 708 648 682 L600 587 Q522 629 441 629 Q355 629 295.5 578 Q236 527 206.5 443.5 Q177 360 177 262 Q177 95 336 95 Q383 95 428 107 L465 299 L350 299 L370 405 Z " />
<glyph glyph-name="Gbreve" unicode="&#x11e;" horiz-adv-x="639" d="M453 782 Q390 782 356 817 Q322 852 322 911 Q322 929 325 947 L393 943 Q391 905 407 887 Q423 869 457 869 Q494 869 521 889 Q548 909 561 947 L627 943 Q609 864 564.5 823 Q520 782 453 782 Z M370 405 L607 405 L537 43 Q492 17 434.5 2.5 Q377 -12 318 -12 Q192 -12 123.5 57 Q55 126 55 251 Q55 385 102.5 495.5 Q150 606 242 671 Q334 736 461 736 Q519 736 567.5 722 Q616 708 648 682 L600 587 Q522 629 441 629 Q355 629 295.5 578 Q236 527 206.5 443.5 Q177 360 177 262 Q177 95 336 95 Q383 95 428 107 L465 299 L350 299 L370 405 Z " />
<glyph glyph-name="Gcaron" unicode="&#x1e6;" horiz-adv-x="639" d="M388 781 L301 914 L302 926 L387 926 L455 843 L556 926 L644 926 L643 914 L504 781 L388 781 Z M370 405 L607 405 L537 43 Q492 17 434.5 2.5 Q377 -12 318 -12 Q192 -12 123.5 57 Q55 126 55 251 Q55 385 102.5 495.5 Q150 606 242 671 Q334 736 461 736 Q519 736 567.5 722 Q616 708 648 682 L600 587 Q522 629 441 629 Q355 629 295.5 578 Q236 527 206.5 443.5 Q177 360 177 262 Q177 95 336 95 Q383 95 428 107 L465 299 L350 299 L370 405 Z " />
<glyph glyph-name="Gcircumflex" unicode="&#x11c;" horiz-adv-x="639" d="M362 781 L273 781 L274 793 L413 926 L529 926 L616 793 L615 781 L530 781 L462 864 L362 781 Z M370 405 L607 405 L537 43 Q492 17 434.5 2.5 Q377 -12 318 -12 Q192 -12 123.5 57 Q55 126 55 251 Q55 385 102.5 495.5 Q150 606 242 671 Q334 736 461 736 Q519 736 567.5 722 Q616 708 648 682 L600 587 Q522 629 441 629 Q355 629 295.5 578 Q236 527 206.5 443.5 Q177 360 177 262 Q177 95 336 95 Q383 95 428 107 L465 299 L350 299 L370 405 Z " />
<glyph glyph-name="Gcommaaccent" unicode="&#x122;" horiz-adv-x="639" d="M370 405 L607 405 L537 43 Q492 17 434.5 2.5 Q377 -12 318 -12 Q192 -12 123.5 57 Q55 126 55 251 Q55 385 102.5 495.5 Q150 606 242 671 Q334 736 461 736 Q519 736 567.5 722 Q616 708 648 682 L600 587 Q522 629 441 629 Q355 629 295.5 578 Q236 527 206.5 443.5 Q177 360 177 262 Q177 95 336 95 Q383 95 428 107 L465 299 L350 299 L370 405 Z M151 -233 Q181 -205 195.5 -178.5 Q210 -152 220 -106 Q223 -92 225 -65 L330 -74 Q330 -95 324 -125 Q314 -170 284.5 -207 Q255 -244 192 -285 L151 -233 Z " />
<glyph glyph-name="Gdotaccent" unicode="&#x120;" horiz-adv-x="639" d="M452 791 Q421 791 404.5 807 Q388 823 388 854 Q388 889 409 911 Q430 933 466 933 Q497 933 513.5 916.5 Q530 900 530 869 Q530 834 509.5 812.5 Q489 791 452 791 Z M370 405 L607 405 L537 43 Q492 17 434.5 2.5 Q377 -12 318 -12 Q192 -12 123.5 57 Q55 126 55 251 Q55 385 102.5 495.5 Q150 606 242 671 Q334 736 461 736 Q519 736 567.5 722 Q616 708 648 682 L600 587 Q522 629 441 629 Q355 629 295.5 578 Q236 527 206.5 443.5 Q177 360 177 262 Q177 95 336 95 Q383 95 428 107 L465 299 L350 299 L370 405 Z " />
<glyph glyph-name="uni1E20" unicode="&#x1e20;" horiz-adv-x="639" d="M602 808 L296 808 L311 889 L617 889 L602 808 Z M370 405 L607 405 L537 43 Q492 17 434.5 2.5 Q377 -12 318 -12 Q192 -12 123.5 57 Q55 126 55 251 Q55 385 102.5 495.5 Q150 606 242 671 Q334 736 461 736 Q519 736 567.5 722 Q616 708 648 682 L600 587 Q522 629 441 629 Q355 629 295.5 578 Q236 527 206.5 443.5 Q177 360 177 262 Q177 95 336 95 Q383 95 428 107 L465 299 L350 299 L370 405 Z " />
<glyph glyph-name="H" unicode="H" horiz-adv-x="675" d="M685 724 L544 0 L423 0 L484 315 L208 315 L147 0 L26 0 L167 724 L288 724 L229 421 L505 421 L564 724 L685 724 Z " />
<glyph glyph-name="Hbar" unicode="&#x126;" horiz-adv-x="675" d="M707 525 L646 525 L544 0 L423 0 L484 315 L208 315 L147 0 L26 0 L128 525 L66 525 L84 614 L145 614 L167 724 L288 724 L266 614 L542 614 L564 724 L685 724 L663 614 L725 614 L707 525 Z M525 525 L249 525 L229 421 L505 421 L525 525 Z " />
<glyph glyph-name="uni1E2A" unicode="&#x1e2a;" horiz-adv-x="675" d="M685 724 L544 0 L423 0 L484 315 L208 315 L147 0 L26 0 L167 724 L288 724 L229 421 L505 421 L564 724 L685 724 Z M249 -225 Q186 -225 152 -190 Q118 -155 118 -96 Q118 -78 121 -60 L189 -64 Q187 -102 203 -120 Q219 -138 253 -138 Q290 -138 317 -118 Q344 -98 357 -60 L423 -64 Q405 -143 360.5 -184 Q316 -225 249 -225 Z " />
<glyph glyph-name="Hcircumflex" unicode="&#x124;" horiz-adv-x="675" d="M354 781 L265 781 L266 793 L405 926 L521 926 L608 793 L607 781 L522 781 L454 864 L354 781 Z M685 724 L544 0 L423 0 L484 315 L208 315 L147 0 L26 0 L167 724 L288 724 L229 421 L505 421 L564 724 L685 724 Z " />
<glyph glyph-name="uni1E24" unicode="&#x1e24;" horiz-adv-x="675" d="M685 724 L544 0 L423 0 L484 315 L208 315 L147 0 L26 0 L167 724 L288 724 L229 421 L505 421 L564 724 L685 724 Z M249 -220 Q218 -220 201 -203.5 Q184 -187 184 -156 Q184 -121 205 -99 Q226 -77 262 -77 Q293 -77 309.5 -93.5 Q326 -110 326 -141 Q326 -176 305.5 -198 Q285 -220 249 -220 Z " />
<glyph glyph-name="I" unicode="I" horiz-adv-x="282" d="M169 724 L290 724 L149 0 L28 0 L169 724 Z " />
<glyph glyph-name="IJ" unicode="&#x132;" horiz-adv-x="664" d="M167 724 L288 724 L147 0 L26 0 L167 724 Z M354 -12 Q312 -12 274 -1.5 Q236 9 208 28 L261 121 Q308 96 352 96 Q436 96 454 191 L558 724 L679 724 L572 174 Q554 82 498 35 Q442 -12 354 -12 Z " />
<glyph glyph-name="Iacute" unicode="&#xcd;" horiz-adv-x="282" d="M158 793 L324 926 L463 926 L462 914 L261 781 L157 781 L158 793 Z M169 724 L290 724 L149 0 L28 0 L169 724 Z " />
<glyph glyph-name="uni01CF" unicode="&#x1cf;" horiz-adv-x="282" d="M439 926 L438 914 L299 781 L183 781 L96 914 L97 926 L182 926 L250 843 L351 926 L439 926 Z M169 724 L290 724 L149 0 L28 0 L169 724 Z " />
<glyph glyph-name="Icircumflex" unicode="&#xce;" horiz-adv-x="282" d="M411 793 L410 781 L325 781 L257 864 L157 781 L68 781 L69 793 L208 926 L324 926 L411 793 Z M169 724 L290 724 L149 0 L28 0 L169 724 Z " />
<glyph glyph-name="Idieresis" unicode="&#xcf;" horiz-adv-x="282" d="M153 787 Q125 787 109.5 802.5 Q94 818 94 846 Q94 878 113.5 899 Q133 920 165 920 Q193 920 208.5 904 Q224 888 224 860 Q224 827 205 807 Q186 787 153 787 Z M343 787 Q315 787 299.5 802.5 Q284 818 284 846 Q284 878 303.5 899 Q323 920 355 920 Q383 920 398.5 904 Q414 888 414 860 Q414 827 395 807 Q376 787 343 787 Z M169 724 L290 724 L149 0 L28 0 L169 724 Z " />
<glyph glyph-name="Idot" unicode="&#x130;" horiz-adv-x="282" d="M248 791 Q217 791 200.5 807 Q184 823 184 854 Q184 889 205 911 Q226 933 262 933 Q293 933 309.5 916.5 Q326 900 326 869 Q326 834 305.5 812.5 Q285 791 248 791 Z M169 724 L290 724 L149 0 L28 0 L169 724 Z " />
<glyph glyph-name="uni1ECA" unicode="&#x1eca;" horiz-adv-x="282" d="M169 724 L290 724 L149 0 L28 0 L169 724 Z M53 -220 Q22 -220 5 -203.5 Q-12 -187 -12 -156 Q-12 -121 9 -99 Q30 -77 66 -77 Q97 -77 113.5 -93.5 Q130 -110 130 -141 Q130 -176 109.5 -198 Q89 -220 53 -220 Z " />
<glyph glyph-name="Igrave" unicode="&#xcc;" horiz-adv-x="282" d="M79 914 L80 926 L208 926 L313 793 L312 781 L219 781 L79 914 Z M169 724 L290 724 L149 0 L28 0 L169 724 Z " />
<glyph glyph-name="uni1EC8" unicode="&#x1ec8;" horiz-adv-x="282" d="M200 783 L200 794 Q200 822 212.5 834 Q225 846 247 855 Q258 860 263.5 864 Q269 868 269 874 Q269 885 250 885 Q223 885 181 865 L159 924 Q184 939 214 946.5 Q244 954 273 954 Q319 954 344 936 Q369 918 369 885 Q369 857 354.5 843.5 Q340 830 313 817 Q294 808 286 802 Q278 796 278 785 L278 778 L200 783 Z M169 724 L290 724 L149 0 L28 0 L169 724 Z " />
<glyph glyph-name="Imacron" unicode="&#x12a;" horiz-adv-x="282" d="M107 889 L413 889 L398 808 L92 808 L107 889 Z M169 724 L290 724 L149 0 L28 0 L169 724 Z " />
<glyph glyph-name="Iogonek" unicode="&#x12e;" horiz-adv-x="282" d="M90 -149 Q118 -149 150 -132 L173 -199 Q126 -226 64 -226 Q13 -226 -14.5 -203.5 Q-42 -181 -42 -140 Q-42 -101 -18 -63.5 Q6 -26 48 0 L28 0 L169 724 L290 724 L149 0 Q109 -31 83.5 -63 Q58 -95 58 -121 Q58 -149 90 -149 Z " />
<glyph glyph-name="Itilde" unicode="&#x128;" horiz-adv-x="282" d="M304 786 Q276 786 261.5 796.5 Q247 807 235 825 Q226 837 219.5 842.5 Q213 848 203 848 Q185 848 169.5 830 Q154 812 147 784 L83 793 Q96 862 127 896.5 Q158 931 205 931 Q233 931 246.5 921 Q260 911 273 893 Q282 881 288.5 875.5 Q295 870 305 870 Q323 870 339 887 Q355 904 363 934 L427 925 Q413 855 381.5 820.5 Q350 786 304 786 Z M169 724 L290 724 L149 0 L28 0 L169 724 Z " />
<glyph glyph-name="J" unicode="J" horiz-adv-x="446" d="M119 -12 Q68 -12 26 2.5 Q-16 17 -43 43 L11 130 Q60 96 119 96 Q167 96 197 120.5 Q227 145 236 191 L340 724 L461 724 L354 174 Q336 83 275.5 35.5 Q215 -12 119 -12 Z " />
<glyph glyph-name="Jcircumflex" unicode="&#x134;" horiz-adv-x="446" d="M583 793 L582 781 L497 781 L429 864 L329 781 L240 781 L241 793 L380 926 L496 926 L583 793 Z M340 724 L461 724 L354 174 Q336 83 275.5 35.5 Q215 -12 119 -12 Q68 -12 26 2.5 Q-16 17 -43 43 L11 130 Q60 96 119 96 Q167 96 197 120.5 Q227 145 236 191 L340 724 Z " />
<glyph glyph-name="K" unicode="K" horiz-adv-x="607" d="M376 401 L562 0 L425 0 L290 313 L187 208 L147 0 L26 0 L167 724 L288 724 L221 380 L550 724 L691 724 L376 401 Z " />
<glyph glyph-name="Kcommaaccent" unicode="&#x136;" horiz-adv-x="607" d="M376 401 L562 0 L425 0 L290 313 L187 208 L147 0 L26 0 L167 724 L288 724 L221 380 L550 724 L691 724 L376 401 Z M136 -233 Q166 -205 180.5 -178.5 Q195 -152 205 -106 Q208 -92 210 -65 L315 -74 Q315 -95 309 -125 Q299 -170 269.5 -207 Q240 -244 177 -285 L136 -233 Z " />
<glyph glyph-name="L" unicode="L" horiz-adv-x="506" d="M453 108 L432 0 L26 0 L167 724 L288 724 L167 108 L453 108 Z " />
<glyph glyph-name="Lacute" unicode="&#x139;" horiz-adv-x="506" d="M472 926 L471 914 L269 781 L166 781 L167 793 L332 926 L472 926 Z M167 108 L453 108 L432 0 L26 0 L167 724 L288 724 L167 108 Z " />
<glyph glyph-name="Lcaron" unicode="&#x13d;" horiz-adv-x="506" d="M505 770 L504 760 L428 546 L360 546 L404 770 L505 770 Z M167 108 L453 108 L432 0 L26 0 L167 724 L288 724 L167 108 Z " />
<glyph glyph-name="Lcommaaccent" unicode="&#x13b;" horiz-adv-x="506" d="M453 108 L432 0 L26 0 L167 724 L288 724 L167 108 L453 108 Z M94 -233 Q124 -205 138.5 -178.5 Q153 -152 163 -106 Q166 -92 168 -65 L273 -74 Q273 -95 267 -125 Q257 -170 227.5 -207 Q198 -244 135 -285 L94 -233 Z " />
<glyph glyph-name="Ldot" unicode="&#x13f;" horiz-adv-x="506" d="M453 108 L432 0 L26 0 L167 724 L288 724 L167 108 L453 108 Z M407 344 Q376 344 359.5 360 Q343 376 343 407 Q343 442 364 464 Q385 486 421 486 Q452 486 468.5 469.5 Q485 453 485 422 Q485 387 464.5 365.5 Q444 344 407 344 Z " />
<glyph glyph-name="uni1E36" unicode="&#x1e36;" horiz-adv-x="506" d="M453 108 L432 0 L26 0 L167 724 L288 724 L167 108 L453 108 Z M200 -220 Q169 -220 152 -203.5 Q135 -187 135 -156 Q135 -121 156 -99 Q177 -77 213 -77 Q244 -77 260.5 -93.5 Q277 -110 277 -141 Q277 -176 256.5 -198 Q236 -220 200 -220 Z " />
<glyph glyph-name="uni1E38" unicode="&#x1e38;" horiz-adv-x="506" d="M421 808 L115 808 L130 889 L436 889 L421 808 Z M453 108 L432 0 L26 0 L167 724 L288 724 L167 108 L453 108 Z M213 -77 Q244 -77 260.5 -93.5 Q277 -110 277 -141 Q277 -176 256.5 -198 Q236 -220 200 -220 Q169 -220 152 -203.5 Q135 -187 135 -156 Q135 -121 156 -99 Q177 -77 213 -77 Z " />
<glyph glyph-name="uni1E3A" unicode="&#x1e3a;" horiz-adv-x="506" d="M453 108 L432 0 L26 0 L167 724 L288 724 L167 108 L453 108 Z M64 -100 L370 -100 L354 -181 L48 -181 L64 -100 Z " />
<glyph glyph-name="Lslash" unicode="&#x141;" horiz-adv-x="507" d="M454 108 L433 0 L27 0 L74 243 L47 229 L65 326 L94 342 L168 724 L289 724 L228 414 L243 422 L243 420 L356 481 L361 462 L314 366 L208 312 L168 108 L454 108 Z " />
<glyph glyph-name="M" unicode="M" horiz-adv-x="819" d="M829 724 L688 0 L570 0 L671 515 L448 144 L321 144 L245 535 L141 0 L26 0 L167 724 L312 724 L403 251 L682 724 L829 724 Z " />
<glyph glyph-name="uni1E42" unicode="&#x1e42;" horiz-adv-x="819" d="M829 724 L688 0 L570 0 L671 515 L448 144 L321 144 L245 535 L141 0 L26 0 L167 724 L312 724 L403 251 L682 724 L829 724 Z M319 -220 Q288 -220 271 -203.5 Q254 -187 254 -156 Q254 -121 275 -99 Q296 -77 332 -77 Q363 -77 379.5 -93.5 Q396 -110 396 -141 Q396 -176 375.5 -198 Q355 -220 319 -220 Z " />
<glyph glyph-name="N" unicode="N" horiz-adv-x="696" d="M706 724 L565 0 L449 0 L247 522 L145 0 L26 0 L167 724 L282 724 L485 203 L587 724 L706 724 Z " />
<glyph glyph-name="Nacute" unicode="&#x143;" horiz-adv-x="696" d="M468 781 L364 781 L365 793 L531 926 L670 926 L669 914 L468 781 Z M706 724 L565 0 L449 0 L247 522 L145 0 L26 0 L167 724 L282 724 L485 203 L587 724 L706 724 Z " />
<glyph glyph-name="Ncaron" unicode="&#x147;" horiz-adv-x="696" d="M390 781 L303 914 L304 926 L389 926 L457 843 L558 926 L646 926 L645 914 L506 781 L390 781 Z M706 724 L565 0 L449 0 L247 522 L145 0 L26 0 L167 724 L282 724 L485 203 L587 724 L706 724 Z " />
<glyph glyph-name="Ncommaaccent" unicode="&#x145;" horiz-adv-x="696" d="M706 724 L565 0 L449 0 L247 522 L145 0 L26 0 L167 724 L282 724 L485 203 L587 724 L706 724 Z M153 -233 Q183 -205 197.5 -178.5 Q212 -152 222 -106 Q225 -92 227 -65 L332 -74 Q332 -95 326 -125 Q316 -170 286.5 -207 Q257 -244 194 -285 L153 -233 Z " />
<glyph glyph-name="uni1E44" unicode="&#x1e44;" horiz-adv-x="696" d="M455 791 Q424 791 407.5 807 Q391 823 391 854 Q391 889 412 911 Q433 933 469 933 Q500 933 516.5 916.5 Q533 900 533 869 Q533 834 512.5 812.5 Q492 791 455 791 Z M706 724 L565 0 L449 0 L247 522 L145 0 L26 0 L167 724 L282 724 L485 203 L587 724 L706 724 Z " />
<glyph glyph-name="uni1E46" unicode="&#x1e46;" horiz-adv-x="696" d="M706 724 L565 0 L449 0 L247 522 L145 0 L26 0 L167 724 L282 724 L485 203 L587 724 L706 724 Z M260 -220 Q229 -220 212 -203.5 Q195 -187 195 -156 Q195 -121 216 -99 Q237 -77 273 -77 Q304 -77 320.5 -93.5 Q337 -110 337 -141 Q337 -176 316.5 -198 Q296 -220 260 -220 Z " />
<glyph glyph-name="uni1E48" unicode="&#x1e48;" horiz-adv-x="696" d="M706 724 L565 0 L449 0 L247 522 L145 0 L26 0 L167 724 L282 724 L485 203 L587 724 L706 724 Z M123 -100 L429 -100 L413 -181 L107 -181 L123 -100 Z " />
<glyph glyph-name="Ntilde" unicode="&#xd1;" horiz-adv-x="696" d="M398 847 Q380 847 364.5 829.5 Q349 812 341 784 L275 793 Q290 862 321.5 896.5 Q353 931 399 931 Q426 931 445 921 Q464 911 483 894 Q497 882 505.5 876.5 Q514 871 525 871 Q543 871 558.5 887.5 Q574 904 583 934 L648 925 Q632 855 600 820.5 Q568 786 522 786 Q495 786 477 796 Q459 806 440 824 Q426 836 417.5 841.5 Q409 847 398 847 Z M706 724 L565 0 L449 0 L247 522 L145 0 L26 0 L167 724 L282 724 L485 203 L587 724 L706 724 Z " />
<glyph glyph-name="O" unicode="O" horiz-adv-x="684" d="M287 -12 Q176 -12 115 52 Q54 116 54 232 Q54 370 95.5 484.5 Q137 599 222.5 667.5 Q308 736 433 736 Q543 736 604.5 672 Q666 608 666 492 Q666 354 624.5 239.5 Q583 125 497.5 56.5 Q412 -12 287 -12 Z M308 94 Q385 94 438 149.5 Q491 205 517 291.5 Q543 378 543 473 Q543 630 412 630 Q334 630 281 575 Q228 520 202 433 Q176 346 176 252 Q176 94 308 94 Z " />
<glyph glyph-name="Oacute" unicode="&#xd3;" horiz-adv-x="684" d="M360 793 L526 926 L665 926 L664 914 L463 781 L359 781 L360 793 Z M287 -12 Q176 -12 115 52 Q54 116 54 232 Q54 370 95.5 484.5 Q137 599 222.5 667.5 Q308 736 433 736 Q543 736 604.5 672 Q666 608 666 492 Q666 354 624.5 239.5 Q583 125 497.5 56.5 Q412 -12 287 -12 Z M308 94 Q385 94 438 149.5 Q491 205 517 291.5 Q543 378 543 473 Q543 630 412 630 Q334 630 281 575 Q228 520 202 433 Q176 346 176 252 Q176 94 308 94 Z " />
<glyph glyph-name="uni01D1" unicode="&#x1d1;" horiz-adv-x="684" d="M385 781 L298 914 L299 926 L384 926 L452 843 L553 926 L641 926 L640 914 L501 781 L385 781 Z M433 736 Q543 736 604.5 672 Q666 608 666 492 Q666 354 624.5 239.5 Q583 125 497.5 56.5 Q412 -12 287 -12 Q176 -12 115 52 Q54 116 54 232 Q54 370 95.5 484.5 Q137 599 222.5 667.5 Q308 736 433 736 Z M308 94 Q385 94 438 149.5 Q491 205 517 291.5 Q543 378 543 473 Q543 630 412 630 Q334 630 281 575 Q228 520 202 433 Q176 346 176 252 Q176 94 308 94 Z " />
<glyph glyph-name="Ocircumflex" unicode="&#xd4;" horiz-adv-x="684" d="M359 781 L270 781 L271 793 L410 926 L526 926 L613 793 L612 781 L527 781 L459 864 L359 781 Z M433 736 Q543 736 604.5 672 Q666 608 666 492 Q666 354 624.5 239.5 Q583 125 497.5 56.5 Q412 -12 287 -12 Q176 -12 115 52 Q54 116 54 232 Q54 370 95.5 484.5 Q137 599 222.5 667.5 Q308 736 433 736 Z M308 94 Q385 94 438 149.5 Q491 205 517 291.5 Q543 378 543 473 Q543 630 412 630 Q334 630 281 575 Q228 520 202 433 Q176 346 176 252 Q176 94 308 94 Z " />
<glyph glyph-name="uni1ED0" unicode="&#x1ed0;" horiz-adv-x="684" d="M777 1029 L776 1019 L654 892 L575 892 L576 902 L672 1029 L777 1029 Z M367 785 L285 785 L286 795 L414 934 L524 934 L597 795 L596 785 L518 785 L459 870 L367 785 Z M433 736 Q543 736 604.5 672 Q666 608 666 492 Q666 354 624.5 239.5 Q583 125 497.5 56.5 Q412 -12 287 -12 Q176 -12 115 52 Q54 116 54 232 Q54 370 95.5 484.5 Q137 599 222.5 667.5 Q308 736 433 736 Z M308 94 Q385 94 438 149.5 Q491 205 517 291.5 Q543 378 543 473 Q543 630 412 630 Q334 630 281 575 Q228 520 202 433 Q176 346 176 252 Q176 94 308 94 Z " />
<glyph glyph-name="uni1ED8" unicode="&#x1ed8;" horiz-adv-x="684" d="M359 781 L270 781 L271 793 L410 926 L526 926 L613 793 L612 781 L527 781 L459 864 L359 781 Z M433 736 Q543 736 604.5 672 Q666 608 666 492 Q666 354 624.5 239.5 Q583 125 497.5 56.5 Q412 -12 287 -12 Q176 -12 115 52 Q54 116 54 232 Q54 370 95.5 484.5 Q137 599 222.5 667.5 Q308 736 433 736 Z M308 94 Q385 94 438 149.5 Q491 205 517 291.5 Q543 378 543 473 Q543 630 412 630 Q334 630 281 575 Q228 520 202 433 Q176 346 176 252 Q176 94 308 94 Z M269 -77 Q300 -77 316.5 -93.5 Q333 -110 333 -141 Q333 -176 312.5 -198 Q292 -220 256 -220 Q225 -220 208 -203.5 Q191 -187 191 -156 Q191 -121 212 -99 Q233 -77 269 -77 Z " />
<glyph glyph-name="uni1ED2" unicode="&#x1ed2;" horiz-adv-x="684" d="M271 893 L204 1020 L205 1030 L303 1030 L342 903 L341 893 L271 893 Z M286 795 L414 934 L524 934 L597 795 L596 785 L518 785 L459 870 L367 785 L285 785 L286 795 Z M433 736 Q543 736 604.5 672 Q666 608 666 492 Q666 354 624.5 239.5 Q583 125 497.5 56.5 Q412 -12 287 -12 Q176 -12 115 52 Q54 116 54 232 Q54 370 95.5 484.5 Q137 599 222.5 667.5 Q308 736 433 736 Z M308 94 Q385 94 438 149.5 Q491 205 517 291.5 Q543 378 543 473 Q543 630 412 630 Q334 630 281 575 Q228 520 202 433 Q176 346 176 252 Q176 94 308 94 Z " />
<glyph glyph-name="uni1ED4" unicode="&#x1ed4;" horiz-adv-x="684" d="M649 1041 Q687 1041 708 1024 Q729 1007 729 976 Q729 950 716 937.5 Q703 925 680 914 Q665 907 659 902.5 Q653 898 653 889 L653 883 L585 887 L585 898 Q585 921 594.5 931.5 Q604 942 622 950 Q633 955 638.5 959.5 Q644 964 644 972 Q644 982 630 982 Q604 982 576 966 L557 1017 Q599 1041 649 1041 Z M367 785 L285 785 L286 795 L414 934 L524 934 L597 795 L596 785 L518 785 L459 870 L367 785 Z M433 736 Q543 736 604.5 672 Q666 608 666 492 Q666 354 624.5 239.5 Q583 125 497.5 56.5 Q412 -12 287 -12 Q176 -12 115 52 Q54 116 54 232 Q54 370 95.5 484.5 Q137 599 222.5 667.5 Q308 736 433 736 Z M308 94 Q385 94 438 149.5 Q491 205 517 291.5 Q543 378 543 473 Q543 630 412 630 Q334 630 281 575 Q228 520 202 433 Q176 346 176 252 Q176 94 308 94 Z " />
<glyph glyph-name="uni1ED6" unicode="&#x1ed6;" horiz-adv-x="684" d="M423 975 Q403 975 387.5 961 Q372 947 365 922 L312 931 Q335 1045 427 1045 Q454 1045 469 1037 Q484 1029 498 1014 Q510 1003 517 998.5 Q524 994 536 994 Q555 994 571 1008 Q587 1022 594 1047 L647 1038 Q637 982 607.5 953 Q578 924 531 924 Q504 924 489.5 932 Q475 940 461 955 Q449 966 442 970.5 Q435 975 423 975 Z M360 768 L283 768 L284 778 L410 902 L516 902 L593 778 L592 768 L518 768 L454 844 L360 768 Z M433 736 Q543 736 604.5 672 Q666 608 666 492 Q666 354 624.5 239.5 Q583 125 497.5 56.5 Q412 -12 287 -12 Q176 -12 115 52 Q54 116 54 232 Q54 370 95.5 484.5 Q137 599 222.5 667.5 Q308 736 433 736 Z M308 94 Q385 94 438 149.5 Q491 205 517 291.5 Q543 378 543 473 Q543 630 412 630 Q334 630 281 575 Q228 520 202 433 Q176 346 176 252 Q176 94 308 94 Z " />
<glyph glyph-name="Odieresis" unicode="&#xd6;" horiz-adv-x="684" d="M354 787 Q326 787 310.5 802.5 Q295 818 295 846 Q295 878 314.5 899 Q334 920 366 920 Q394 920 409.5 904 Q425 888 425 860 Q425 827 406 807 Q387 787 354 787 Z M544 787 Q516 787 500.5 802.5 Q485 818 485 846 Q485 878 504.5 899 Q524 920 556 920 Q584 920 599.5 904 Q615 888 615 860 Q615 827 596 807 Q577 787 544 787 Z M287 -12 Q176 -12 115 52 Q54 116 54 232 Q54 370 95.5 484.5 Q137 599 222.5 667.5 Q308 736 433 736 Q543 736 604.5 672 Q666 608 666 492 Q666 354 624.5 239.5 Q583 125 497.5 56.5 Q412 -12 287 -12 Z M308 94 Q385 94 438 149.5 Q491 205 517 291.5 Q543 378 543 473 Q543 630 412 630 Q334 630 281 575 Q228 520 202 433 Q176 346 176 252 Q176 94 308 94 Z " />
<glyph glyph-name="uni1ECC" unicode="&#x1ecc;" horiz-adv-x="684" d="M287 -12 Q176 -12 115 52 Q54 116 54 232 Q54 370 95.5 484.5 Q137 599 222.5 667.5 Q308 736 433 736 Q543 736 604.5 672 Q666 608 666 492 Q666 354 624.5 239.5 Q583 125 497.5 56.5 Q412 -12 287 -12 Z M308 94 Q385 94 438 149.5 Q491 205 517 291.5 Q543 378 543 473 Q543 630 412 630 Q334 630 281 575 Q228 520 202 433 Q176 346 176 252 Q176 94 308 94 Z M256 -220 Q225 -220 208 -203.5 Q191 -187 191 -156 Q191 -121 212 -99 Q233 -77 269 -77 Q300 -77 316.5 -93.5 Q333 -110 333 -141 Q333 -176 312.5 -198 Q292 -220 256 -220 Z " />
<glyph glyph-name="Ograve" unicode="&#xd2;" horiz-adv-x="684" d="M281 914 L282 926 L410 926 L515 793 L514 781 L421 781 L281 914 Z M287 -12 Q176 -12 115 52 Q54 116 54 232 Q54 370 95.5 484.5 Q137 599 222.5 667.5 Q308 736 433 736 Q543 736 604.5 672 Q666 608 666 492 Q666 354 624.5 239.5 Q583 125 497.5 56.5 Q412 -12 287 -12 Z M308 94 Q385 94 438 149.5 Q491 205 517 291.5 Q543 378 543 473 Q543 630 412 630 Q334 630 281 575 Q228 520 202 433 Q176 346 176 252 Q176 94 308 94 Z " />
<glyph glyph-name="uni1ECE" unicode="&#x1ece;" horiz-adv-x="684" d="M402 783 L402 794 Q402 822 414.5 834 Q427 846 449 855 Q460 860 465.5 864 Q471 868 471 874 Q471 885 452 885 Q425 885 383 865 L361 924 Q386 939 416 946.5 Q446 954 475 954 Q521 954 546 936 Q571 918 571 885 Q571 857 556.5 843.5 Q542 830 515 817 Q496 808 488 802 Q480 796 480 785 L480 778 L402 783 Z M287 -12 Q176 -12 115 52 Q54 116 54 232 Q54 370 95.5 484.5 Q137 599 222.5 667.5 Q308 736 433 736 Q543 736 604.5 672 Q666 608 666 492 Q666 354 624.5 239.5 Q583 125 497.5 56.5 Q412 -12 287 -12 Z M308 94 Q385 94 438 149.5 Q491 205 517 291.5 Q543 378 543 473 Q543 630 412 630 Q334 630 281 575 Q228 520 202 433 Q176 346 176 252 Q176 94 308 94 Z " />
<glyph glyph-name="Ohorn" unicode="&#x1a0;" horiz-adv-x="684" d="M789 861 Q789 830 783 795 Q770 723 733 689.5 Q696 656 622 649 Q666 588 666 492 Q666 354 624.5 239.5 Q583 125 497.5 56.5 Q412 -12 287 -12 Q176 -12 115 52 Q54 116 54 232 Q54 370 95.5 484.5 Q137 599 222.5 667.5 Q308 736 433 736 Q459 736 477 733 Q495 730 517 724 Q531 720 546.5 717 Q562 714 580 714 Q626 714 648.5 736 Q671 758 682 812 Q687 834 688 867 L789 861 Z M308 94 Q385 94 438 149.5 Q491 205 517 291.5 Q543 378 543 473 Q543 630 412 630 Q334 630 281 575 Q228 520 202 433 Q176 346 176 252 Q176 94 308 94 Z " />
<glyph glyph-name="uni1EDA" unicode="&#x1eda;" horiz-adv-x="684" d="M464 781 L360 781 L361 793 L527 926 L666 926 L665 914 L464 781 Z M789 861 Q789 830 783 795 Q770 723 733 689.5 Q696 656 622 649 Q666 588 666 492 Q666 354 624.5 239.5 Q583 125 497.5 56.5 Q412 -12 287 -12 Q176 -12 115 52 Q54 116 54 232 Q54 370 95.5 484.5 Q137 599 222.5 667.5 Q308 736 433 736 Q459 736 477 733 Q495 730 517 724 Q531 720 546.5 717 Q562 714 580 714 Q626 714 648.5 736 Q671 758 682 812 Q687 834 688 867 L789 861 Z M308 94 Q385 94 438 149.5 Q491 205 517 291.5 Q543 378 543 473 Q543 630 412 630 Q334 630 281 575 Q228 520 202 433 Q176 346 176 252 Q176 94 308 94 Z " />
<glyph glyph-name="uni1EE2" unicode="&#x1ee2;" horiz-adv-x="684" d="M789 861 Q789 830 783 795 Q770 723 733 689.5 Q696 656 622 649 Q666 588 666 492 Q666 354 624.5 239.5 Q583 125 497.5 56.5 Q412 -12 287 -12 Q176 -12 115 52 Q54 116 54 232 Q54 370 95.5 484.5 Q137 599 222.5 667.5 Q308 736 433 736 Q459 736 477 733 Q495 730 517 724 Q531 720 546.5 717 Q562 714 580 714 Q626 714 648.5 736 Q671 758 682 812 Q687 834 688 867 L789 861 Z M308 94 Q385 94 438 149.5 Q491 205 517 291.5 Q543 378 543 473 Q543 630 412 630 Q334 630 281 575 Q228 520 202 433 Q176 346 176 252 Q176 94 308 94 Z M255 -220 Q224 -220 207 -203.5 Q190 -187 190 -156 Q190 -121 211 -99 Q232 -77 268 -77 Q299 -77 315.5 -93.5 Q332 -110 332 -141 Q332 -176 311.5 -198 Q291 -220 255 -220 Z " />
<glyph glyph-name="uni1EDC" unicode="&#x1edc;" horiz-adv-x="684" d="M422 781 L282 914 L283 926 L411 926 L516 793 L515 781 L422 781 Z M789 861 Q789 830 783 795 Q770 723 733 689.5 Q696 656 622 649 Q666 588 666 492 Q666 354 624.5 239.5 Q583 125 497.5 56.5 Q412 -12 287 -12 Q176 -12 115 52 Q54 116 54 232 Q54 370 95.5 484.5 Q137 599 222.5 667.5 Q308 736 433 736 Q459 736 477 733 Q495 730 517 724 Q531 720 546.5 717 Q562 714 580 714 Q626 714 648.5 736 Q671 758 682 812 Q687 834 688 867 L789 861 Z M308 94 Q385 94 438 149.5 Q491 205 517 291.5 Q543 378 543 473 Q543 630 412 630 Q334 630 281 575 Q228 520 202 433 Q176 346 176 252 Q176 94 308 94 Z " />
<glyph glyph-name="uni1EDE" unicode="&#x1ede;" horiz-adv-x="684" d="M453 885 Q426 885 384 865 L362 924 Q387 939 417 946.5 Q447 954 476 954 Q522 954 547 936 Q572 918 572 885 Q572 857 557.5 843.5 Q543 830 516 817 Q497 808 489 802 Q481 796 481 785 L481 778 L403 783 L403 794 Q403 822 415.5 834 Q428 846 450 855 Q461 860 466.5 864 Q472 868 472 874 Q472 885 453 885 Z M789 861 Q789 830 783 795 Q770 723 733 689.5 Q696 656 622 649 Q666 588 666 492 Q666 354 624.5 239.5 Q583 125 497.5 56.5 Q412 -12 287 -12 Q176 -12 115 52 Q54 116 54 232 Q54 370 95.5 484.5 Q137 599 222.5 667.5 Q308 736 433 736 Q459 736 477 733 Q495 730 517 724 Q531 720 546.5 717 Q562 714 580 714 Q626 714 648.5 736 Q671 758 682 812 Q687 834 688 867 L789 861 Z M308 94 Q385 94 438 149.5 Q491 205 517 291.5 Q543 378 543 473 Q543 630 412 630 Q334 630 281 575 Q228 520 202 433 Q176 346 176 252 Q176 94 308 94 Z " />
<glyph glyph-name="uni1EE0" unicode="&#x1ee0;" horiz-adv-x="684" d="M394 847 Q376 847 360.5 829.5 Q345 812 337 784 L271 793 Q286 862 317.5 896.5 Q349 931 395 931 Q422 931 441 921 Q460 911 479 894 Q493 882 501.5 876.5 Q510 871 521 871 Q539 871 554.5 887.5 Q570 904 579 934 L644 925 Q628 855 596 820.5 Q564 786 518 786 Q491 786 473 796 Q455 806 436 824 Q422 836 413.5 841.5 Q405 847 394 847 Z M789 861 Q789 830 783 795 Q770 723 733 689.5 Q696 656 622 649 Q666 588 666 492 Q666 354 624.5 239.5 Q583 125 497.5 56.5 Q412 -12 287 -12 Q176 -12 115 52 Q54 116 54 232 Q54 370 95.5 484.5 Q137 599 222.5 667.5 Q308 736 433 736 Q459 736 477 733 Q495 730 517 724 Q531 720 546.5 717 Q562 714 580 714 Q626 714 648.5 736 Q671 758 682 812 Q687 834 688 867 L789 861 Z M308 94 Q385 94 438 149.5 Q491 205 517 291.5 Q543 378 543 473 Q543 630 412 630 Q334 630 281 575 Q228 520 202 433 Q176 346 176 252 Q176 94 308 94 Z " />
<glyph glyph-name="Ohungarumlaut" unicode="&#x150;" horiz-adv-x="684" d="M301 793 L415 926 L532 926 L531 914 L382 781 L300 781 L301 793 Z M463 793 L579 926 L697 926 L696 914 L546 781 L462 781 L463 793 Z M287 -12 Q176 -12 115 52 Q54 116 54 232 Q54 370 95.5 484.5 Q137 599 222.5 667.5 Q308 736 433 736 Q543 736 604.5 672 Q666 608 666 492 Q666 354 624.5 239.5 Q583 125 497.5 56.5 Q412 -12 287 -12 Z M308 94 Q385 94 438 149.5 Q491 205 517 291.5 Q543 378 543 473 Q543 630 412 630 Q334 630 281 575 Q228 520 202 433 Q176 346 176 252 Q176 94 308 94 Z " />
<glyph glyph-name="Omacron" unicode="&#x14c;" horiz-adv-x="684" d="M308 889 L614 889 L599 808 L293 808 L308 889 Z M287 -12 Q176 -12 115 52 Q54 116 54 232 Q54 370 95.5 484.5 Q137 599 222.5 667.5 Q308 736 433 736 Q543 736 604.5 672 Q666 608 666 492 Q666 354 624.5 239.5 Q583 125 497.5 56.5 Q412 -12 287 -12 Z M308 94 Q385 94 438 149.5 Q491 205 517 291.5 Q543 378 543 473 Q543 630 412 630 Q334 630 281 575 Q228 520 202 433 Q176 346 176 252 Q176 94 308 94 Z " />
<glyph glyph-name="Oslash" unicode="&#xd8;" horiz-adv-x="686" d="M755 722 L645 608 Q666 559 666 492 Q666 354 624.5 239.5 Q583 125 497.5 56.5 Q412 -12 287 -12 Q177 -12 118 49 L63 -10 L-36 -10 L-35 2 L74 115 Q54 166 54 232 Q54 370 95.5 484.5 Q137 599 222.5 667.5 Q308 736 433 736 Q541 736 603 674 L658 734 L756 734 L755 722 Z M412 633 Q333 633 279 577.5 Q225 522 199 435 Q173 348 173 252 Q173 230 174 220 L520 586 Q487 633 412 633 Z M308 91 Q387 91 441 146.5 Q495 202 521 289.5 Q547 377 547 473 Q547 484 545 502 L200 138 Q232 91 308 91 Z " />
<glyph glyph-name="Otilde" unicode="&#xd5;" horiz-adv-x="684" d="M270 793 Q285 862 316.5 896.5 Q348 931 394 931 Q421 931 440 921 Q459 911 478 894 Q492 882 500.5 876.5 Q509 871 520 871 Q538 871 553.5 887.5 Q569 904 578 934 L643 925 Q627 855 595 820.5 Q563 786 517 786 Q490 786 472 796 Q454 806 435 824 Q421 836 412.5 841.5 Q404 847 393 847 Q375 847 359.5 829.5 Q344 812 336 784 L270 793 Z M287 -12 Q176 -12 115 52 Q54 116 54 232 Q54 370 95.5 484.5 Q137 599 222.5 667.5 Q308 736 433 736 Q543 736 604.5 672 Q666 608 666 492 Q666 354 624.5 239.5 Q583 125 497.5 56.5 Q412 -12 287 -12 Z M308 94 Q385 94 438 149.5 Q491 205 517 291.5 Q543 378 543 473 Q543 630 412 630 Q334 630 281 575 Q228 520 202 433 Q176 346 176 252 Q176 94 308 94 Z " />
<glyph glyph-name="OE" unicode="&#x152;" horiz-adv-x="922" d="M648 617 L611 424 L827 424 L806 316 L591 316 L551 107 L861 107 L840 0 L411 0 L290 0 Q176 0 115 62 Q54 124 54 240 Q54 374 95.5 484 Q137 594 221.5 659 Q306 724 428 724 L589 724 L967 724 L946 617 L648 617 Z M432 107 L531 617 L409 617 Q332 617 279.5 565.5 Q227 514 202 431.5 Q177 349 177 257 Q177 181 209.5 144 Q242 107 310 107 L432 107 Z " />
<glyph glyph-name="P" unicode="P" horiz-adv-x="572" d="M421 724 Q507 724 558 676.5 Q609 629 609 548 Q609 458 576 387.5 Q543 317 478 276.5 Q413 236 322 236 L193 236 L147 0 L26 0 L167 724 L288 724 L421 724 Z M347 343 Q415 343 450 397 Q485 451 485 529 Q485 617 396 617 L267 617 L213 343 L347 343 Z " />
<glyph glyph-name="Thorn" unicode="&#xde;" horiz-adv-x="596" d="M388 610 Q482 610 531.5 562 Q581 514 581 419 Q581 338 546.5 272 Q512 206 448 168 Q384 130 298 130 L172 130 L147 0 L26 0 L167 724 L288 724 L265 610 L388 610 Z M316 237 Q360 237 392 263.5 Q424 290 440.5 331.5 Q457 373 457 417 Q457 462 437 482.5 Q417 503 371 503 L245 503 L193 237 L316 237 Z " />
<glyph glyph-name="Q" unicode="Q" horiz-adv-x="684" d="M666 492 Q666 348 620 229.5 Q574 111 485 47 L580 -89 L491 -160 L388 1 Q338 -12 287 -12 Q176 -12 115 52 Q54 116 54 232 Q54 370 95.5 484.5 Q137 599 222.5 667.5 Q308 736 433 736 Q543 736 604.5 672 Q666 608 666 492 Z M176 252 Q176 94 308 94 Q385 94 438 149.5 Q491 205 517 291.5 Q543 378 543 473 Q543 630 412 630 Q334 630 281 575 Q228 520 202 433 Q176 346 176 252 Z " />
<glyph glyph-name="R" unicode="R" horiz-adv-x="608" d="M599 554 Q599 450 551.5 375 Q504 300 416 273 L538 0 L402 0 L296 259 L197 259 L147 0 L26 0 L167 724 L288 724 L411 724 Q497 724 548 678 Q599 632 599 554 Z M217 362 L341 362 Q407 362 441.5 412.5 Q476 463 476 536 Q476 619 388 619 L267 619 L217 362 Z " />
<glyph glyph-name="Racute" unicode="&#x154;" horiz-adv-x="608" d="M626 926 L625 914 L424 781 L320 781 L321 793 L487 926 L626 926 Z M599 554 Q599 450 551.5 375 Q504 300 416 273 L538 0 L402 0 L296 259 L197 259 L147 0 L26 0 L167 724 L288 724 L411 724 Q497 724 548 678 Q599 632 599 554 Z M341 362 Q407 362 441.5 412.5 Q476 463 476 536 Q476 619 388 619 L267 619 L217 362 L341 362 Z " />
<glyph glyph-name="Rcaron" unicode="&#x158;" horiz-adv-x="608" d="M602 926 L601 914 L462 781 L346 781 L259 914 L260 926 L345 926 L413 843 L514 926 L602 926 Z M599 554 Q599 450 551.5 375 Q504 300 416 273 L538 0 L402 0 L296 259 L197 259 L147 0 L26 0 L167 724 L288 724 L411 724 Q497 724 548 678 Q599 632 599 554 Z M341 362 Q407 362 441.5 412.5 Q476 463 476 536 Q476 619 388 619 L267 619 L217 362 L341 362 Z " />
<glyph glyph-name="Rcommaaccent" unicode="&#x156;" horiz-adv-x="608" d="M599 554 Q599 450 551.5 375 Q504 300 416 273 L538 0 L402 0 L296 259 L197 259 L147 0 L26 0 L167 724 L288 724 L411 724 Q497 724 548 678 Q599 632 599 554 Z M217 362 L341 362 Q407 362 441.5 412.5 Q476 463 476 536 Q476 619 388 619 L267 619 L217 362 Z M127 -233 Q157 -205 171.5 -178.5 Q186 -152 196 -106 Q199 -92 201 -65 L306 -74 Q306 -95 300 -125 Q290 -170 260.5 -207 Q231 -244 168 -285 L127 -233 Z " />
<glyph glyph-name="uni1E5A" unicode="&#x1e5a;" horiz-adv-x="608" d="M599 554 Q599 450 551.5 375 Q504 300 416 273 L538 0 L402 0 L296 259 L197 259 L147 0 L26 0 L167 724 L288 724 L411 724 Q497 724 548 678 Q599 632 599 554 Z M217 362 L341 362 Q407 362 441.5 412.5 Q476 463 476 536 Q476 619 388 619 L267 619 L217 362 Z M234 -220 Q203 -220 186 -203.5 Q169 -187 169 -156 Q169 -121 190 -99 Q211 -77 247 -77 Q278 -77 294.5 -93.5 Q311 -110 311 -141 Q311 -176 290.5 -198 Q270 -220 234 -220 Z " />
<glyph glyph-name="uni1E5C" unicode="&#x1e5c;" horiz-adv-x="608" d="M560 808 L254 808 L269 889 L575 889 L560 808 Z M599 554 Q599 450 551.5 375 Q504 300 416 273 L538 0 L402 0 L296 259 L197 259 L147 0 L26 0 L167 724 L288 724 L411 724 Q497 724 548 678 Q599 632 599 554 Z M217 362 L341 362 Q407 362 441.5 412.5 Q476 463 476 536 Q476 619 388 619 L267 619 L217 362 Z M247 -77 Q278 -77 294.5 -93.5 Q311 -110 311 -141 Q311 -176 290.5 -198 Q270 -220 234 -220 Q203 -220 186 -203.5 Q169 -187 169 -156 Q169 -121 190 -99 Q211 -77 247 -77 Z " />
<glyph glyph-name="uni1E5E" unicode="&#x1e5e;" horiz-adv-x="608" d="M599 554 Q599 450 551.5 375 Q504 300 416 273 L538 0 L402 0 L296 259 L197 259 L147 0 L26 0 L167 724 L288 724 L411 724 Q497 724 548 678 Q599 632 599 554 Z M217 362 L341 362 Q407 362 441.5 412.5 Q476 463 476 536 Q476 619 388 619 L267 619 L217 362 Z M97 -100 L403 -100 L387 -181 L81 -181 L97 -100 Z " />
<glyph glyph-name="S" unicode="S" horiz-adv-x="538" d="M203 -11 Q141 -11 85 5.5 Q29 22 -11 53 L41 147 Q122 93 220 93 Q292 93 331.5 125 Q371 157 371 215 Q371 245 352.5 265 Q334 285 294 298 L219 321 Q81 363 81 487 Q81 561 115.5 617 Q150 673 212.5 704 Q275 735 356 735 Q407 735 459.5 722 Q512 709 558 686 L506 592 Q415 631 336 631 Q271 631 236 601 Q201 571 201 516 Q201 487 219.5 467 Q238 447 278 434 L354 411 Q491 370 491 244 Q491 168 454.5 110.5 Q418 53 353 21 Q288 -11 203 -11 Z " />
<glyph glyph-name="Sacute" unicode="&#x15a;" horiz-adv-x="538" d="M272 793 L438 926 L577 926 L576 914 L375 781 L271 781 L272 793 Z M203 -11 Q141 -11 85 5.5 Q29 22 -11 53 L41 147 Q122 93 220 93 Q292 93 331.5 125 Q371 157 371 215 Q371 245 352.5 265 Q334 285 294 298 L219 321 Q81 363 81 487 Q81 561 115.5 617 Q150 673 212.5 704 Q275 735 356 735 Q407 735 459.5 722 Q512 709 558 686 L506 592 Q415 631 336 631 Q271 631 236 601 Q201 571 201 516 Q201 487 219.5 467 Q238 447 278 434 L354 411 Q491 370 491 244 Q491 168 454.5 110.5 Q418 53 353 21 Q288 -11 203 -11 Z " />
<glyph glyph-name="Scaron" unicode="&#x160;" horiz-adv-x="538" d="M297 781 L210 914 L211 926 L296 926 L364 843 L465 926 L553 926 L552 914 L413 781 L297 781 Z M336 631 Q271 631 236 601 Q201 571 201 516 Q201 487 219.5 467 Q238 447 278 434 L354 411 Q491 370 491 244 Q491 168 454.5 110.5 Q418 53 353 21 Q288 -11 203 -11 Q141 -11 85 5.5 Q29 22 -11 53 L41 147 Q122 93 220 93 Q292 93 331.5 125 Q371 157 371 215 Q371 245 352.5 265 Q334 285 294 298 L219 321 Q81 363 81 487 Q81 561 115.5 617 Q150 673 212.5 704 Q275 735 356 735 Q407 735 459.5 722 Q512 709 558 686 L506 592 Q415 631 336 631 Z " />
<glyph glyph-name="Scedilla" unicode="&#x15e;" horiz-adv-x="538" d="M336 631 Q271 631 236 601 Q201 571 201 516 Q201 487 219.5 467 Q238 447 278 434 L354 411 Q491 370 491 244 Q491 174 460 119.5 Q429 65 372.5 31.5 Q316 -2 242 -9 L202 -54 Q207 -53 218 -53 Q262 -53 286.5 -73.5 Q311 -94 311 -131 Q311 -179 271.5 -207.5 Q232 -236 171 -236 Q106 -236 60 -209 L81 -158 Q125 -174 156 -174 Q185 -174 202.5 -161 Q220 -148 220 -129 Q220 -105 191 -105 Q167 -105 147 -114 L122 -83 L165 -9 Q114 -4 68.5 12 Q23 28 -11 53 L41 147 Q122 93 220 93 Q292 93 331.5 125 Q371 157 371 215 Q371 245 352.5 265 Q334 285 294 298 L219 321 Q81 363 81 487 Q81 561 115.5 617 Q150 673 212.5 704 Q275 735 356 735 Q407 735 459.5 722 Q512 709 558 686 L506 592 Q415 631 336 631 Z " />
<glyph glyph-name="Scircumflex" unicode="&#x15c;" horiz-adv-x="538" d="M271 781 L182 781 L183 793 L322 926 L438 926 L525 793 L524 781 L439 781 L371 864 L271 781 Z M336 631 Q271 631 236 601 Q201 571 201 516 Q201 487 219.5 467 Q238 447 278 434 L354 411 Q491 370 491 244 Q491 168 454.5 110.5 Q418 53 353 21 Q288 -11 203 -11 Q141 -11 85 5.5 Q29 22 -11 53 L41 147 Q122 93 220 93 Q292 93 331.5 125 Q371 157 371 215 Q371 245 352.5 265 Q334 285 294 298 L219 321 Q81 363 81 487 Q81 561 115.5 617 Q150 673 212.5 704 Q275 735 356 735 Q407 735 459.5 722 Q512 709 558 686 L506 592 Q415 631 336 631 Z " />
<glyph glyph-name="Scommaaccent" unicode="&#x218;" horiz-adv-x="538" d="M203 -11 Q141 -11 85 5.5 Q29 22 -11 53 L41 147 Q122 93 220 93 Q292 93 331.5 125 Q371 157 371 215 Q371 245 352.5 265 Q334 285 294 298 L219 321 Q81 363 81 487 Q81 561 115.5 617 Q150 673 212.5 704 Q275 735 356 735 Q407 735 459.5 722 Q512 709 558 686 L506 592 Q415 631 336 631 Q271 631 236 601 Q201 571 201 516 Q201 487 219.5 467 Q238 447 278 434 L354 411 Q491 370 491 244 Q491 168 454.5 110.5 Q418 53 353 21 Q288 -11 203 -11 Z M74 -233 Q104 -205 118.5 -178.5 Q133 -152 143 -106 Q146 -92 148 -65 L253 -74 Q253 -95 247 -125 Q237 -170 207.5 -207 Q178 -244 115 -285 L74 -233 Z " />
<glyph glyph-name="uni1E60" unicode="&#x1e60;" horiz-adv-x="538" d="M361 791 Q330 791 313.5 807 Q297 823 297 854 Q297 889 318 911 Q339 933 375 933 Q406 933 422.5 916.5 Q439 900 439 869 Q439 834 418.5 812.5 Q398 791 361 791 Z M203 -11 Q141 -11 85 5.5 Q29 22 -11 53 L41 147 Q122 93 220 93 Q292 93 331.5 125 Q371 157 371 215 Q371 245 352.5 265 Q334 285 294 298 L219 321 Q81 363 81 487 Q81 561 115.5 617 Q150 673 212.5 704 Q275 735 356 735 Q407 735 459.5 722 Q512 709 558 686 L506 592 Q415 631 336 631 Q271 631 236 601 Q201 571 201 516 Q201 487 219.5 467 Q238 447 278 434 L354 411 Q491 370 491 244 Q491 168 454.5 110.5 Q418 53 353 21 Q288 -11 203 -11 Z " />
<glyph glyph-name="uni1E62" unicode="&#x1e62;" horiz-adv-x="538" d="M203 -11 Q141 -11 85 5.5 Q29 22 -11 53 L41 147 Q122 93 220 93 Q292 93 331.5 125 Q371 157 371 215 Q371 245 352.5 265 Q334 285 294 298 L219 321 Q81 363 81 487 Q81 561 115.5 617 Q150 673 212.5 704 Q275 735 356 735 Q407 735 459.5 722 Q512 709 558 686 L506 592 Q415 631 336 631 Q271 631 236 601 Q201 571 201 516 Q201 487 219.5 467 Q238 447 278 434 L354 411 Q491 370 491 244 Q491 168 454.5 110.5 Q418 53 353 21 Q288 -11 203 -11 Z M180 -220 Q149 -220 132 -203.5 Q115 -187 115 -156 Q115 -121 136 -99 Q157 -77 193 -77 Q224 -77 240.5 -93.5 Q257 -110 257 -141 Q257 -176 236.5 -198 Q216 -220 180 -220 Z " />
<glyph glyph-name="uni1E9E" unicode="&#x1e9e;" horiz-adv-x="651" d="M451 400 Q607 371 607 244 Q607 128 531.5 61 Q456 -6 323 -6 Q250 -6 198 14 L229 111 Q289 95 345 95 Q414 95 452 126 Q490 157 490 213 Q490 267 444 293 Q398 319 299 324 L316 417 Q467 479 467 579 Q467 639 386 639 Q263 639 239 515 L139 0 L18 0 L118 516 Q140 625 214.5 684.5 Q289 744 403 744 Q489 744 535 709 Q581 674 581 608 Q581 539 548 486.5 Q515 434 451 400 Z " />
<glyph glyph-name="uni018F" unicode="&#x18f;" horiz-adv-x="671" d="M392 735 Q521 735 585.5 666 Q650 597 650 456 Q650 337 606.5 230 Q563 123 480 56 Q397 -11 284 -11 Q172 -11 110 54.5 Q48 120 48 236 Q48 280 56.5 331.5 Q65 383 78 414 L528 410 Q529 422 529 448 Q529 535 492.5 578 Q456 621 381 621 Q339 621 288.5 608.5 Q238 596 188 574 L155 675 Q206 704 268 719.5 Q330 735 392 735 Z M292 99 Q368 99 423.5 157 Q479 215 507 304 L174 304 Q169 266 169 242 Q169 172 200.5 135.5 Q232 99 292 99 Z " />
<glyph glyph-name="T" unicode="T" horiz-adv-x="506" d="M556 616 L381 616 L261 0 L140 0 L260 616 L85 616 L106 724 L402 724 L577 724 L556 616 Z " />
<glyph glyph-name="Tcaron" unicode="&#x164;" horiz-adv-x="506" d="M296 781 L209 914 L210 926 L295 926 L363 843 L464 926 L552 926 L551 914 L412 781 L296 781 Z M556 616 L381 616 L261 0 L140 0 L260 616 L85 616 L106 724 L402 724 L577 724 L556 616 Z " />
<glyph glyph-name="uni0162" unicode="&#x162;" horiz-adv-x="506" d="M235 0 L187 -54 Q192 -53 203 -53 Q247 -53 271.5 -73.5 Q296 -94 296 -131 Q296 -179 256.5 -207.5 Q217 -236 156 -236 Q91 -236 45 -209 L66 -158 Q110 -174 141 -174 Q170 -174 187.5 -161 Q205 -148 205 -129 Q205 -105 176 -105 Q152 -105 132 -114 L107 -83 L155 0 L140 0 L260 616 L85 616 L106 724 L402 724 L577 724 L556 616 L381 616 L261 0 L235 0 Z " />
<glyph glyph-name="uni021A" unicode="&#x21a;" horiz-adv-x="506" d="M556 616 L381 616 L261 0 L140 0 L260 616 L85 616 L106 724 L402 724 L577 724 L556 616 Z M59 -233 Q89 -205 103.5 -178.5 Q118 -152 128 -106 Q131 -92 133 -65 L238 -74 Q238 -95 232 -125 Q222 -170 192.5 -207 Q163 -244 100 -285 L59 -233 Z " />
<glyph glyph-name="uni1E6C" unicode="&#x1e6c;" horiz-adv-x="506" d="M556 616 L381 616 L261 0 L140 0 L260 616 L85 616 L106 724 L402 724 L577 724 L556 616 Z M165 -220 Q134 -220 117 -203.5 Q100 -187 100 -156 Q100 -121 121 -99 Q142 -77 178 -77 Q209 -77 225.5 -93.5 Q242 -110 242 -141 Q242 -176 221.5 -198 Q201 -220 165 -220 Z " />
<glyph glyph-name="uni1E6E" unicode="&#x1e6e;" horiz-adv-x="506" d="M556 616 L381 616 L261 0 L140 0 L260 616 L85 616 L106 724 L402 724 L577 724 L556 616 Z M29 -100 L335 -100 L319 -181 L13 -181 L29 -100 Z " />
<glyph glyph-name="U" unicode="U" horiz-adv-x="659" d="M283 -12 Q178 -12 120 38 Q62 88 62 181 Q62 215 69 249 L162 724 L283 724 L190 247 Q184 216 184 192 Q184 142 209.5 118.5 Q235 95 288 95 Q430 95 462 256 L553 724 L674 724 L580 239 Q556 119 480 53.5 Q404 -12 283 -12 Z " />
<glyph glyph-name="Uacute" unicode="&#xda;" horiz-adv-x="659" d="M347 793 L513 926 L652 926 L651 914 L450 781 L346 781 L347 793 Z M283 -12 Q178 -12 120 38 Q62 88 62 181 Q62 215 69 249 L162 724 L283 724 L190 247 Q184 216 184 192 Q184 142 209.5 118.5 Q235 95 288 95 Q430 95 462 256 L553 724 L674 724 L580 239 Q556 119 480 53.5 Q404 -12 283 -12 Z " />
<glyph glyph-name="Ubreve" unicode="&#x16c;" horiz-adv-x="659" d="M437 782 Q374 782 340 817 Q306 852 306 911 Q306 929 309 947 L377 943 Q375 905 391 887 Q407 869 441 869 Q478 869 505 889 Q532 909 545 947 L611 943 Q593 864 548.5 823 Q504 782 437 782 Z M283 -12 Q178 -12 120 38 Q62 88 62 181 Q62 215 69 249 L162 724 L283 724 L190 247 Q184 216 184 192 Q184 142 209.5 118.5 Q235 95 288 95 Q430 95 462 256 L553 724 L674 724 L580 239 Q556 119 480 53.5 Q404 -12 283 -12 Z " />
<glyph glyph-name="uni01D3" unicode="&#x1d3;" horiz-adv-x="659" d="M372 781 L285 914 L286 926 L371 926 L439 843 L540 926 L628 926 L627 914 L488 781 L372 781 Z M674 724 L580 239 Q556 119 480 53.5 Q404 -12 283 -12 Q178 -12 120 38 Q62 88 62 181 Q62 215 69 249 L162 724 L283 724 L190 247 Q184 216 184 192 Q184 142 209.5 118.5 Q235 95 288 95 Q430 95 462 256 L553 724 L674 724 Z " />
<glyph glyph-name="Ucircumflex" unicode="&#xdb;" horiz-adv-x="659" d="M346 781 L257 781 L258 793 L397 926 L513 926 L600 793 L599 781 L514 781 L446 864 L346 781 Z M674 724 L580 239 Q556 119 480 53.5 Q404 -12 283 -12 Q178 -12 120 38 Q62 88 62 181 Q62 215 69 249 L162 724 L283 724 L190 247 Q184 216 184 192 Q184 142 209.5 118.5 Q235 95 288 95 Q430 95 462 256 L553 724 L674 724 Z " />
<glyph glyph-name="Udieresis" unicode="&#xdc;" horiz-adv-x="659" d="M341 787 Q313 787 297.5 802.5 Q282 818 282 846 Q282 878 301.5 899 Q321 920 353 920 Q381 920 396.5 904 Q412 888 412 860 Q412 827 393 807 Q374 787 341 787 Z M531 787 Q503 787 487.5 802.5 Q472 818 472 846 Q472 878 491.5 899 Q511 920 543 920 Q571 920 586.5 904 Q602 888 602 860 Q602 827 583 807 Q564 787 531 787 Z M283 -12 Q178 -12 120 38 Q62 88 62 181 Q62 215 69 249 L162 724 L283 724 L190 247 Q184 216 184 192 Q184 142 209.5 118.5 Q235 95 288 95 Q430 95 462 256 L553 724 L674 724 L580 239 Q556 119 480 53.5 Q404 -12 283 -12 Z " />
<glyph glyph-name="uni01D7" unicode="&#x1d7;" horiz-adv-x="659" d="M407 916 L503 1043 L608 1043 L607 1033 L485 906 L406 906 L407 916 Z M341 769 Q314 769 299.5 784 Q285 799 285 827 Q285 858 303.5 878 Q322 898 353 898 Q380 898 394.5 883 Q409 868 409 840 Q409 808 391 788.5 Q373 769 341 769 Z M523 769 Q496 769 481.5 784 Q467 799 467 827 Q467 858 485.5 878 Q504 898 535 898 Q562 898 576.5 883 Q591 868 591 840 Q591 808 573 788.5 Q555 769 523 769 Z M283 -12 Q178 -12 120 38 Q62 88 62 181 Q62 215 69 249 L162 724 L283 724 L190 247 Q184 216 184 192 Q184 142 209.5 118.5 Q235 95 288 95 Q430 95 462 256 L553 724 L674 724 L580 239 Q556 119 480 53.5 Q404 -12 283 -12 Z " />
<glyph glyph-name="uni01D9" unicode="&#x1d9;" horiz-adv-x="659" d="M402 911 L325 1035 L326 1045 L400 1045 L464 968 L558 1045 L635 1045 L634 1035 L508 911 L402 911 Z M341 769 Q314 769 299.5 784 Q285 799 285 827 Q285 858 303.5 878 Q322 898 353 898 Q380 898 394.5 883 Q409 868 409 840 Q409 808 391 788.5 Q373 769 341 769 Z M467 827 Q467 858 485.5 878 Q504 898 535 898 Q562 898 576.5 883 Q591 868 591 840 Q591 808 573 788.5 Q555 769 523 769 Q496 769 481.5 784 Q467 799 467 827 Z M674 724 L580 239 Q556 119 480 53.5 Q404 -12 283 -12 Q178 -12 120 38 Q62 88 62 181 Q62 215 69 249 L162 724 L283 724 L190 247 Q184 216 184 192 Q184 142 209.5 118.5 Q235 95 288 95 Q430 95 462 256 L553 724 L674 724 Z " />
<glyph glyph-name="uni01DB" unicode="&#x1db;" horiz-adv-x="659" d="M355 1034 L356 1044 L454 1044 L493 917 L492 907 L422 907 L355 1034 Z M341 769 Q314 769 299.5 784 Q285 799 285 827 Q285 858 303.5 878 Q322 898 353 898 Q380 898 394.5 883 Q409 868 409 840 Q409 808 391 788.5 Q373 769 341 769 Z M523 769 Q496 769 481.5 784 Q467 799 467 827 Q467 858 485.5 878 Q504 898 535 898 Q562 898 576.5 883 Q591 868 591 840 Q591 808 573 788.5 Q555 769 523 769 Z M283 -12 Q178 -12 120 38 Q62 88 62 181 Q62 215 69 249 L162 724 L283 724 L190 247 Q184 216 184 192 Q184 142 209.5 118.5 Q235 95 288 95 Q430 95 462 256 L553 724 L674 724 L580 239 Q556 119 480 53.5 Q404 -12 283 -12 Z " />
<glyph glyph-name="uni01D5" unicode="&#x1d5;" horiz-adv-x="659" d="M320 1010 L625 1010 L610 931 L304 931 L320 1010 Z M341 769 Q314 769 299.5 784 Q285 799 285 827 Q285 858 303.5 878 Q322 898 353 898 Q380 898 394.5 883 Q409 868 409 840 Q409 808 391 788.5 Q373 769 341 769 Z M523 769 Q496 769 481.5 784 Q467 799 467 827 Q467 858 485.5 878 Q504 898 535 898 Q562 898 576.5 883 Q591 868 591 840 Q591 808 573 788.5 Q555 769 523 769 Z M283 -12 Q178 -12 120 38 Q62 88 62 181 Q62 215 69 249 L162 724 L283 724 L190 247 Q184 216 184 192 Q184 142 209.5 118.5 Q235 95 288 95 Q430 95 462 256 L553 724 L674 724 L580 239 Q556 119 480 53.5 Q404 -12 283 -12 Z " />
<glyph glyph-name="uni1EE4" unicode="&#x1ee4;" horiz-adv-x="659" d="M283 -12 Q178 -12 120 38 Q62 88 62 181 Q62 215 69 249 L162 724 L283 724 L190 247 Q184 216 184 192 Q184 142 209.5 118.5 Q235 95 288 95 Q430 95 462 256 L553 724 L674 724 L580 239 Q556 119 480 53.5 Q404 -12 283 -12 Z M241 -220 Q210 -220 193 -203.5 Q176 -187 176 -156 Q176 -121 197 -99 Q218 -77 254 -77 Q285 -77 301.5 -93.5 Q318 -110 318 -141 Q318 -176 297.5 -198 Q277 -220 241 -220 Z " />
<glyph glyph-name="Ugrave" unicode="&#xd9;" horiz-adv-x="659" d="M268 914 L269 926 L397 926 L502 793 L501 781 L408 781 L268 914 Z M283 -12 Q178 -12 120 38 Q62 88 62 181 Q62 215 69 249 L162 724 L283 724 L190 247 Q184 216 184 192 Q184 142 209.5 118.5 Q235 95 288 95 Q430 95 462 256 L553 724 L674 724 L580 239 Q556 119 480 53.5 Q404 -12 283 -12 Z " />
<glyph glyph-name="uni1EE6" unicode="&#x1ee6;" horiz-adv-x="659" d="M389 783 L389 794 Q389 822 401.5 834 Q414 846 436 855 Q447 860 452.5 864 Q458 868 458 874 Q458 885 439 885 Q412 885 370 865 L348 924 Q373 939 403 946.5 Q433 954 462 954 Q508 954 533 936 Q558 918 558 885 Q558 857 543.5 843.5 Q529 830 502 817 Q483 808 475 802 Q467 796 467 785 L467 778 L389 783 Z M283 -12 Q178 -12 120 38 Q62 88 62 181 Q62 215 69 249 L162 724 L283 724 L190 247 Q184 216 184 192 Q184 142 209.5 118.5 Q235 95 288 95 Q430 95 462 256 L553 724 L674 724 L580 239 Q556 119 480 53.5 Q404 -12 283 -12 Z " />
<glyph glyph-name="Uhorn" unicode="&#x1af;" horiz-adv-x="659" d="M808 861 Q808 830 802 795 Q791 733 758.5 701.5 Q726 670 662 660 L580 239 Q556 119 480 53.5 Q404 -12 283 -12 Q178 -12 120 38 Q62 88 62 181 Q62 215 69 249 L162 724 L283 724 L190 247 Q184 216 184 192 Q184 142 209.5 118.5 Q235 95 288 95 Q430 95 462 256 L553 724 L601 724 Q648 724 670 744.5 Q692 765 701 812 Q706 834 707 867 L808 861 Z " />
<glyph glyph-name="uni1EE8" unicode="&#x1ee8;" horiz-adv-x="659" d="M450 781 L346 781 L347 793 L513 926 L652 926 L651 914 L450 781 Z M808 861 Q808 830 802 795 Q791 733 758.5 701.5 Q726 670 662 660 L580 239 Q556 119 480 53.5 Q404 -12 283 -12 Q178 -12 120 38 Q62 88 62 181 Q62 215 69 249 L162 724 L283 724 L190 247 Q184 216 184 192 Q184 142 209.5 118.5 Q235 95 288 95 Q430 95 462 256 L553 724 L601 724 Q648 724 670 744.5 Q692 765 701 812 Q706 834 707 867 L808 861 Z " />
<glyph glyph-name="uni1EF0" unicode="&#x1ef0;" horiz-adv-x="659" d="M808 861 Q808 830 802 795 Q791 733 758.5 701.5 Q726 670 662 660 L580 239 Q556 119 480 53.5 Q404 -12 283 -12 Q178 -12 120 38 Q62 88 62 181 Q62 215 69 249 L162 724 L283 724 L190 247 Q184 216 184 192 Q184 142 209.5 118.5 Q235 95 288 95 Q430 95 462 256 L553 724 L601 724 Q648 724 670 744.5 Q692 765 701 812 Q706 834 707 867 L808 861 Z M241 -220 Q210 -220 193 -203.5 Q176 -187 176 -156 Q176 -121 197 -99 Q218 -77 254 -77 Q285 -77 301.5 -93.5 Q318 -110 318 -141 Q318 -176 297.5 -198 Q277 -220 241 -220 Z " />
<glyph glyph-name="uni1EEA" unicode="&#x1eea;" horiz-adv-x="659" d="M408 781 L268 914 L269 926 L397 926 L502 793 L501 781 L408 781 Z M808 861 Q808 830 802 795 Q791 733 758.5 701.5 Q726 670 662 660 L580 239 Q556 119 480 53.5 Q404 -12 283 -12 Q178 -12 120 38 Q62 88 62 181 Q62 215 69 249 L162 724 L283 724 L190 247 Q184 216 184 192 Q184 142 209.5 118.5 Q235 95 288 95 Q430 95 462 256 L553 724 L601 724 Q648 724 670 744.5 Q692 765 701 812 Q706 834 707 867 L808 861 Z " />
<glyph glyph-name="uni1EEC" unicode="&#x1eec;" horiz-adv-x="659" d="M439 885 Q412 885 370 865 L348 924 Q373 939 403 946.5 Q433 954 462 954 Q508 954 533 936 Q558 918 558 885 Q558 857 543.5 843.5 Q529 830 502 817 Q483 808 475 802 Q467 796 467 785 L467 778 L389 783 L389 794 Q389 822 401.5 834 Q414 846 436 855 Q447 860 452.5 864 Q458 868 458 874 Q458 885 439 885 Z M808 861 Q808 830 802 795 Q791 733 758.5 701.5 Q726 670 662 660 L580 239 Q556 119 480 53.5 Q404 -12 283 -12 Q178 -12 120 38 Q62 88 62 181 Q62 215 69 249 L162 724 L283 724 L190 247 Q184 216 184 192 Q184 142 209.5 118.5 Q235 95 288 95 Q430 95 462 256 L553 724 L601 724 Q648 724 670 744.5 Q692 765 701 812 Q706 834 707 867 L808 861 Z " />
<glyph glyph-name="uni1EEE" unicode="&#x1eee;" horiz-adv-x="659" d="M380 847 Q362 847 346.5 829.5 Q331 812 323 784 L257 793 Q272 862 303.5 896.5 Q335 931 381 931 Q408 931 427 921 Q446 911 465 894 Q479 882 487.5 876.5 Q496 871 507 871 Q525 871 540.5 887.5 Q556 904 565 934 L630 925 Q614 855 582 820.5 Q550 786 504 786 Q477 786 459 796 Q441 806 422 824 Q408 836 399.5 841.5 Q391 847 380 847 Z M808 861 Q808 830 802 795 Q791 733 758.5 701.5 Q726 670 662 660 L580 239 Q556 119 480 53.5 Q404 -12 283 -12 Q178 -12 120 38 Q62 88 62 181 Q62 215 69 249 L162 724 L283 724 L190 247 Q184 216 184 192 Q184 142 209.5 118.5 Q235 95 288 95 Q430 95 462 256 L553 724 L601 724 Q648 724 670 744.5 Q692 765 701 812 Q706 834 707 867 L808 861 Z " />
<glyph glyph-name="Uhungarumlaut" unicode="&#x170;" horiz-adv-x="659" d="M288 793 L402 926 L519 926 L518 914 L369 781 L287 781 L288 793 Z M450 793 L566 926 L684 926 L683 914 L533 781 L449 781 L450 793 Z M283 -12 Q178 -12 120 38 Q62 88 62 181 Q62 215 69 249 L162 724 L283 724 L190 247 Q184 216 184 192 Q184 142 209.5 118.5 Q235 95 288 95 Q430 95 462 256 L553 724 L674 724 L580 239 Q556 119 480 53.5 Q404 -12 283 -12 Z " />
<glyph glyph-name="Umacron" unicode="&#x16a;" horiz-adv-x="659" d="M295 889 L601 889 L586 808 L280 808 L295 889 Z M283 -12 Q178 -12 120 38 Q62 88 62 181 Q62 215 69 249 L162 724 L283 724 L190 247 Q184 216 184 192 Q184 142 209.5 118.5 Q235 95 288 95 Q430 95 462 256 L553 724 L674 724 L580 239 Q556 119 480 53.5 Q404 -12 283 -12 Z " />
<glyph glyph-name="Uogonek" unicode="&#x172;" horiz-adv-x="659" d="M674 724 L580 239 Q566 168 535 119.5 Q504 71 447 31 L415 10 Q371 -21 344.5 -56.5 Q318 -92 318 -121 Q318 -149 350 -149 Q378 -149 410 -132 L433 -199 Q386 -226 324 -226 Q273 -226 245.5 -203.5 Q218 -181 218 -140 Q218 -107 236 -74 Q254 -41 287 -12 L283 -12 Q178 -12 120 38 Q62 88 62 181 Q62 215 69 249 L162 724 L283 724 L190 247 Q184 216 184 192 Q184 142 210 118.5 Q236 95 288 95 Q359 95 403 136.5 Q447 178 462 256 L553 724 L674 724 Z " />
<glyph glyph-name="Uring" unicode="&#x16e;" horiz-adv-x="659" d="M425 768 Q373 768 346 792 Q319 816 319 862 Q319 920 361 959 Q403 998 471 998 Q522 998 549.5 974 Q577 950 577 904 Q577 846 534.5 807 Q492 768 425 768 Z M437 827 Q470 827 486 847.5 Q502 868 502 896 Q502 918 491.5 928.5 Q481 939 459 939 Q426 939 409.5 918.5 Q393 898 393 870 Q393 848 403.5 837.5 Q414 827 437 827 Z M283 -12 Q178 -12 120 38 Q62 88 62 181 Q62 215 69 249 L162 724 L283 724 L190 247 Q184 216 184 192 Q184 142 209.5 118.5 Q235 95 288 95 Q430 95 462 256 L553 724 L674 724 L580 239 Q556 119 480 53.5 Q404 -12 283 -12 Z " />
<glyph glyph-name="Utilde" unicode="&#x168;" horiz-adv-x="659" d="M257 793 Q272 862 303.5 896.5 Q335 931 381 931 Q408 931 427 921 Q446 911 465 894 Q479 882 487.5 876.5 Q496 871 507 871 Q525 871 540.5 887.5 Q556 904 565 934 L630 925 Q614 855 582 820.5 Q550 786 504 786 Q477 786 459 796 Q441 806 422 824 Q408 836 399.5 841.5 Q391 847 380 847 Q362 847 346.5 829.5 Q331 812 323 784 L257 793 Z M283 -12 Q178 -12 120 38 Q62 88 62 181 Q62 215 69 249 L162 724 L283 724 L190 247 Q184 216 184 192 Q184 142 209.5 118.5 Q235 95 288 95 Q430 95 462 256 L553 724 L674 724 L580 239 Q556 119 480 53.5 Q404 -12 283 -12 Z " />
<glyph glyph-name="V" unicode="V" horiz-adv-x="614" d="M678 724 L320 0 L188 0 L112 724 L237 724 L277 130 L550 724 L678 724 Z " />
<glyph glyph-name="W" unicode="W" horiz-adv-x="868" d="M930 724 L621 0 L489 0 L487 552 L272 0 L139 0 L114 724 L236 724 L232 145 L454 722 L585 722 L581 144 L805 724 L930 724 Z " />
<glyph glyph-name="Wacute" unicode="&#x1e82;" horiz-adv-x="868" d="M552 781 L448 781 L449 793 L615 926 L754 926 L753 914 L552 781 Z M930 724 L621 0 L489 0 L487 552 L272 0 L139 0 L114 724 L236 724 L232 145 L454 722 L585 722 L581 144 L805 724 L930 724 Z " />
<glyph glyph-name="Wcircumflex" unicode="&#x174;" horiz-adv-x="868" d="M448 781 L359 781 L360 793 L499 926 L615 926 L702 793 L701 781 L616 781 L548 864 L448 781 Z M930 724 L621 0 L489 0 L487 552 L272 0 L139 0 L114 724 L236 724 L232 145 L454 722 L585 722 L581 144 L805 724 L930 724 Z " />
<glyph glyph-name="Wdieresis" unicode="&#x1e84;" horiz-adv-x="868" d="M444 787 Q416 787 400.5 802.5 Q385 818 385 846 Q385 878 404.5 899 Q424 920 456 920 Q484 920 499.5 904 Q515 888 515 860 Q515 827 496 807 Q477 787 444 787 Z M634 787 Q606 787 590.5 802.5 Q575 818 575 846 Q575 878 594.5 899 Q614 920 646 920 Q674 920 689.5 904 Q705 888 705 860 Q705 827 686 807 Q667 787 634 787 Z M930 724 L621 0 L489 0 L487 552 L272 0 L139 0 L114 724 L236 724 L232 145 L454 722 L585 722 L581 144 L805 724 L930 724 Z " />
<glyph glyph-name="Wgrave" unicode="&#x1e80;" horiz-adv-x="868" d="M510 781 L370 914 L371 926 L499 926 L604 793 L603 781 L510 781 Z M930 724 L621 0 L489 0 L487 552 L272 0 L139 0 L114 724 L236 724 L232 145 L454 722 L585 722 L581 144 L805 724 L930 724 Z " />
<glyph glyph-name="X" unicode="X" horiz-adv-x="582" d="M377 365 L511 0 L382 0 L291 270 L100 0 L-38 0 L242 369 L114 724 L243 724 L329 465 L516 724 L654 724 L377 365 Z " />
<glyph glyph-name="Y" unicode="Y" horiz-adv-x="570" d="M642 724 L337 242 L290 0 L169 0 L217 246 L104 724 L228 724 L301 373 L510 724 L642 724 Z " />
<glyph glyph-name="Yacute" unicode="&#xdd;" horiz-adv-x="570" d="M403 781 L299 781 L300 793 L466 926 L605 926 L604 914 L403 781 Z M642 724 L337 242 L290 0 L169 0 L217 246 L104 724 L228 724 L301 373 L510 724 L642 724 Z " />
<glyph glyph-name="Ycircumflex" unicode="&#x176;" horiz-adv-x="570" d="M299 781 L210 781 L211 793 L350 926 L466 926 L553 793 L552 781 L467 781 L399 864 L299 781 Z M642 724 L337 242 L290 0 L169 0 L217 246 L104 724 L228 724 L301 373 L510 724 L642 724 Z " />
<glyph glyph-name="Ydieresis" unicode="&#x178;" horiz-adv-x="570" d="M294 787 Q266 787 250.5 802.5 Q235 818 235 846 Q235 878 254.5 899 Q274 920 306 920 Q334 920 349.5 904 Q365 888 365 860 Q365 827 346 807 Q327 787 294 787 Z M484 787 Q456 787 440.5 802.5 Q425 818 425 846 Q425 878 444.5 899 Q464 920 496 920 Q524 920 539.5 904 Q555 888 555 860 Q555 827 536 807 Q517 787 484 787 Z M642 724 L337 242 L290 0 L169 0 L217 246 L104 724 L228 724 L301 373 L510 724 L642 724 Z " />
<glyph glyph-name="uni1E8E" unicode="&#x1e8e;" horiz-adv-x="570" d="M389 791 Q358 791 341.5 807 Q325 823 325 854 Q325 889 346 911 Q367 933 403 933 Q434 933 450.5 916.5 Q467 900 467 869 Q467 834 446.5 812.5 Q426 791 389 791 Z M642 724 L337 242 L290 0 L169 0 L217 246 L104 724 L228 724 L301 373 L510 724 L642 724 Z " />
<glyph glyph-name="uni1EF4" unicode="&#x1ef4;" horiz-adv-x="570" d="M642 724 L337 242 L290 0 L169 0 L217 246 L104 724 L228 724 L301 373 L510 724 L642 724 Z M194 -220 Q163 -220 146 -203.5 Q129 -187 129 -156 Q129 -121 150 -99 Q171 -77 207 -77 Q238 -77 254.5 -93.5 Q271 -110 271 -141 Q271 -176 250.5 -198 Q230 -220 194 -220 Z " />
<glyph glyph-name="Ygrave" unicode="&#x1ef2;" horiz-adv-x="570" d="M361 781 L221 914 L222 926 L350 926 L455 793 L454 781 L361 781 Z M642 724 L337 242 L290 0 L169 0 L217 246 L104 724 L228 724 L301 373 L510 724 L642 724 Z " />
<glyph glyph-name="uni1EF6" unicode="&#x1ef6;" horiz-adv-x="570" d="M392 885 Q365 885 323 865 L301 924 Q326 939 356 946.5 Q386 954 415 954 Q461 954 486 936 Q511 918 511 885 Q511 857 496.5 843.5 Q482 830 455 817 Q436 808 428 802 Q420 796 420 785 L420 778 L342 783 L342 794 Q342 822 354.5 834 Q367 846 389 855 Q400 860 405.5 864 Q411 868 411 874 Q411 885 392 885 Z M642 724 L337 242 L290 0 L169 0 L217 246 L104 724 L228 724 L301 373 L510 724 L642 724 Z " />
<glyph glyph-name="uni1EF8" unicode="&#x1ef8;" horiz-adv-x="570" d="M333 847 Q315 847 299.5 829.5 Q284 812 276 784 L210 793 Q225 862 256.5 896.5 Q288 931 334 931 Q361 931 380 921 Q399 911 418 894 Q432 882 440.5 876.5 Q449 871 460 871 Q478 871 493.5 887.5 Q509 904 518 934 L583 925 Q567 855 535 820.5 Q503 786 457 786 Q430 786 412 796 Q394 806 375 824 Q361 836 352.5 841.5 Q344 847 333 847 Z M642 724 L337 242 L290 0 L169 0 L217 246 L104 724 L228 724 L301 373 L510 724 L642 724 Z " />
<glyph glyph-name="Z" unicode="Z" horiz-adv-x="528" d="M558 619 L139 105 L462 105 L442 0 L-22 0 L-3 106 L417 619 L110 619 L130 724 L578 724 L558 619 Z " />
<glyph glyph-name="Zacute" unicode="&#x179;" horiz-adv-x="528" d="M585 926 L584 914 L383 781 L279 781 L280 793 L446 926 L585 926 Z M130 724 L578 724 L558 619 L139 105 L462 105 L442 0 L-22 0 L-3 106 L417 619 L110 619 L130 724 Z " />
<glyph glyph-name="Zcaron" unicode="&#x17d;" horiz-adv-x="528" d="M305 781 L218 914 L219 926 L304 926 L372 843 L473 926 L561 926 L560 914 L421 781 L305 781 Z M558 619 L139 105 L462 105 L442 0 L-22 0 L-3 106 L417 619 L110 619 L130 724 L578 724 L558 619 Z " />
<glyph glyph-name="Zdotaccent" unicode="&#x17b;" horiz-adv-x="528" d="M370 791 Q339 791 322.5 807 Q306 823 306 854 Q306 889 327 911 Q348 933 384 933 Q415 933 431.5 916.5 Q448 900 448 869 Q448 834 427.5 812.5 Q407 791 370 791 Z M558 619 L139 105 L462 105 L442 0 L-22 0 L-3 106 L417 619 L110 619 L130 724 L578 724 L558 619 Z " />
<glyph glyph-name="uni1E92" unicode="&#x1e92;" horiz-adv-x="528" d="M558 619 L139 105 L462 105 L442 0 L-22 0 L-3 106 L417 619 L110 619 L130 724 L578 724 L558 619 Z M179 -220 Q148 -220 131 -203.5 Q114 -187 114 -156 Q114 -121 135 -99 Q156 -77 192 -77 Q223 -77 239.5 -93.5 Q256 -110 256 -141 Q256 -176 235.5 -198 Q215 -220 179 -220 Z " />
<glyph glyph-name="a" unicode="a" horiz-adv-x="552" d="M532 543 L427 0 L320 0 L333 68 Q268 -12 175 -12 Q106 -12 68.5 35.5 Q31 83 31 170 Q31 267 59.5 355.5 Q88 444 145.5 499.5 Q203 555 287 555 Q326 555 356 538.5 Q386 522 403 492 L413 543 L532 543 Z M229 98 Q258 98 283.5 109.5 Q309 121 336 146 L386 405 Q371 426 347.5 437.5 Q324 449 296 449 Q248 449 215.5 410.5 Q183 372 167.5 314 Q152 256 152 196 Q152 98 229 98 Z " />
<glyph glyph-name="aacute" unicode="&#xe1;" horiz-adv-x="552" d="M532 543 L427 0 L320 0 L333 68 Q268 -12 175 -12 Q106 -12 68.5 35.5 Q31 83 31 170 Q31 267 59.5 355.5 Q88 444 145.5 499.5 Q203 555 287 555 Q326 555 356 538.5 Q386 522 403 492 L413 543 L532 543 Z M229 98 Q258 98 283.5 109.5 Q309 121 336 146 L386 405 Q371 426 347.5 437.5 Q324 449 296 449 Q248 449 215.5 410.5 Q183 372 167.5 314 Q152 256 152 196 Q152 98 229 98 Z M280 625 L401 784 L528 784 L527 774 L371 615 L279 615 L280 625 Z " />
<glyph glyph-name="abreve" unicode="&#x103;" horiz-adv-x="552" d="M532 543 L427 0 L320 0 L333 68 Q268 -12 175 -12 Q106 -12 68.5 35.5 Q31 83 31 170 Q31 267 59.5 355.5 Q88 444 145.5 499.5 Q203 555 287 555 Q326 555 356 538.5 Q386 522 403 492 L413 543 L532 543 Z M229 98 Q258 98 283.5 109.5 Q309 121 336 146 L386 405 Q371 426 347.5 437.5 Q324 449 296 449 Q248 449 215.5 410.5 Q183 372 167.5 314 Q152 256 152 196 Q152 98 229 98 Z M351 612 Q288 612 254 647 Q220 682 220 741 Q220 759 223 777 L291 773 Q289 735 305 717 Q321 699 355 699 Q392 699 419 719 Q446 739 459 777 L525 773 Q507 694 462.5 653 Q418 612 351 612 Z " />
<glyph glyph-name="uni1EAF" unicode="&#x1eaf;" horiz-adv-x="552" d="M403 757 L324 757 L325 767 L421 894 L526 894 L525 884 L403 757 Z M350 612 Q288 612 254 644.5 Q220 677 220 735 Q220 751 223 769 L288 765 Q282 691 353 691 Q392 691 419.5 711 Q447 731 459 769 L522 765 Q504 692 461 652 Q418 612 350 612 Z M532 543 L427 0 L320 0 L333 68 Q268 -12 175 -12 Q106 -12 68.5 35.5 Q31 83 31 170 Q31 267 59.5 355.5 Q88 444 145.5 499.5 Q203 555 287 555 Q326 555 356 538.5 Q386 522 403 492 L413 543 L532 543 Z M229 98 Q258 98 283.5 109.5 Q309 121 336 146 L386 405 Q371 426 347.5 437.5 Q324 449 296 449 Q248 449 215.5 410.5 Q183 372 167.5 314 Q152 256 152 196 Q152 98 229 98 Z " />
<glyph glyph-name="uni1EB7" unicode="&#x1eb7;" horiz-adv-x="552" d="M532 543 L427 0 L320 0 L333 68 Q268 -12 175 -12 Q106 -12 68.5 35.5 Q31 83 31 170 Q31 267 59.5 355.5 Q88 444 145.5 499.5 Q203 555 287 555 Q326 555 356 538.5 Q386 522 403 492 L413 543 L532 543 Z M229 98 Q258 98 283.5 109.5 Q309 121 336 146 L386 405 Q371 426 347.5 437.5 Q324 449 296 449 Q248 449 215.5 410.5 Q183 372 167.5 314 Q152 256 152 196 Q152 98 229 98 Z M186 -220 Q155 -220 138 -203.5 Q121 -187 121 -156 Q121 -121 142 -99 Q163 -77 199 -77 Q230 -77 246.5 -93.5 Q263 -110 263 -141 Q263 -176 242.5 -198 Q222 -220 186 -220 Z M351 612 Q288 612 254 647 Q220 682 220 741 Q220 759 223 777 L291 773 Q289 735 305 717 Q321 699 355 699 Q392 699 419 719 Q446 739 459 777 L525 773 Q507 694 462.5 653 Q418 612 351 612 Z " />
<glyph glyph-name="uni1EB1" unicode="&#x1eb1;" horiz-adv-x="552" d="M339 759 L272 886 L273 896 L371 896 L410 769 L409 759 L339 759 Z M350 612 Q288 612 254 644.5 Q220 677 220 735 Q220 751 223 769 L288 765 Q282 691 353 691 Q392 691 419.5 711 Q447 731 459 769 L522 765 Q504 692 461 652 Q418 612 350 612 Z M532 543 L427 0 L320 0 L333 68 Q268 -12 175 -12 Q106 -12 68.5 35.5 Q31 83 31 170 Q31 267 59.5 355.5 Q88 444 145.5 499.5 Q203 555 287 555 Q326 555 356 538.5 Q386 522 403 492 L413 543 L532 543 Z M229 98 Q258 98 283.5 109.5 Q309 121 336 146 L386 405 Q371 426 347.5 437.5 Q324 449 296 449 Q248 449 215.5 410.5 Q183 372 167.5 314 Q152 256 152 196 Q152 98 229 98 Z " />
<glyph glyph-name="uni1EB3" unicode="&#x1eb3;" horiz-adv-x="552" d="M382 869 Q355 869 323 853 L302 909 Q324 921 351 927.5 Q378 934 403 934 Q446 934 469.5 915.5 Q493 897 493 863 Q493 835 480 821.5 Q467 808 442 797 Q423 788 415 781 Q407 774 407 760 L407 756 L334 761 L334 768 Q334 798 346 811.5 Q358 825 378 835 Q389 841 394 845.5 Q399 850 399 857 Q399 869 382 869 Z M350 612 Q288 612 254 644.5 Q220 677 220 735 Q220 751 223 769 L288 765 Q282 691 353 691 Q392 691 419.5 711 Q447 731 459 769 L522 765 Q504 692 461 652 Q418 612 350 612 Z M532 543 L427 0 L320 0 L333 68 Q268 -12 175 -12 Q106 -12 68.5 35.5 Q31 83 31 170 Q31 267 59.5 355.5 Q88 444 145.5 499.5 Q203 555 287 555 Q326 555 356 538.5 Q386 522 403 492 L413 543 L532 543 Z M229 98 Q258 98 283.5 109.5 Q309 121 336 146 L386 405 Q371 426 347.5 437.5 Q324 449 296 449 Q248 449 215.5 410.5 Q183 372 167.5 314 Q152 256 152 196 Q152 98 229 98 Z " />
<glyph glyph-name="uni1EB5" unicode="&#x1eb5;" horiz-adv-x="552" d="M342 867 Q323 867 306.5 851.5 Q290 836 283 808 L224 817 Q249 943 344 943 Q371 943 385 934 Q399 925 412 909 Q422 897 428.5 892 Q435 887 446 887 Q465 887 481.5 902.5 Q498 918 505 945 L563 936 Q552 876 521.5 843.5 Q491 811 443 811 Q416 811 402 820 Q388 829 376 845 Q368 856 360.5 861.5 Q353 867 342 867 Z M350 612 Q288 612 254 644.5 Q220 677 220 735 Q220 751 223 769 L288 765 Q282 691 353 691 Q392 691 419.5 711 Q447 731 459 769 L522 765 Q504 692 461 652 Q418 612 350 612 Z M413 543 L532 543 L427 0 L320 0 L333 68 Q268 -12 175 -12 Q106 -12 68.5 35.5 Q31 83 31 170 Q31 267 59.5 355.5 Q88 444 145.5 499.5 Q203 555 287 555 Q326 555 356 538.5 Q386 522 403 492 L413 543 Z M229 98 Q258 98 283.5 109.5 Q309 121 336 146 L386 405 Q371 426 347.5 437.5 Q324 449 296 449 Q248 449 215.5 410.5 Q183 372 167.5 314 Q152 256 152 196 Q152 98 229 98 Z " />
<glyph glyph-name="uni01CE" unicode="&#x1ce;" horiz-adv-x="552" d="M532 543 L427 0 L320 0 L333 68 Q268 -12 175 -12 Q106 -12 68.5 35.5 Q31 83 31 170 Q31 267 59.5 355.5 Q88 444 145.5 499.5 Q203 555 287 555 Q326 555 356 538.5 Q386 522 403 492 L413 543 L532 543 Z M229 98 Q258 98 283.5 109.5 Q309 121 336 146 L386 405 Q371 426 347.5 437.5 Q324 449 296 449 Q248 449 215.5 410.5 Q183 372 167.5 314 Q152 256 152 196 Q152 98 229 98 Z M529 784 L528 774 L400 615 L289 615 L221 774 L222 784 L300 784 L355 688 L447 784 L529 784 Z " />
<glyph glyph-name="acircumflex" unicode="&#xe2;" horiz-adv-x="552" d="M532 543 L427 0 L320 0 L333 68 Q268 -12 175 -12 Q106 -12 68.5 35.5 Q31 83 31 170 Q31 267 59.5 355.5 Q88 444 145.5 499.5 Q203 555 287 555 Q326 555 356 538.5 Q386 522 403 492 L413 543 L532 543 Z M229 98 Q258 98 283.5 109.5 Q309 121 336 146 L386 405 Q371 426 347.5 437.5 Q324 449 296 449 Q248 449 215.5 410.5 Q183 372 167.5 314 Q152 256 152 196 Q152 98 229 98 Z M497 625 L496 615 L418 615 L363 711 L271 615 L189 615 L190 625 L319 784 L429 784 L497 625 Z " />
<glyph glyph-name="uni1EA5" unicode="&#x1ea5;" horiz-adv-x="552" d="M678 859 L677 849 L555 722 L476 722 L477 732 L573 859 L678 859 Z M268 615 L186 615 L187 625 L315 764 L425 764 L498 625 L497 615 L419 615 L360 700 L268 615 Z M413 543 L532 543 L427 0 L320 0 L333 68 Q268 -12 175 -12 Q106 -12 68.5 35.5 Q31 83 31 170 Q31 267 59.5 355.5 Q88 444 145.5 499.5 Q203 555 287 555 Q326 555 356 538.5 Q386 522 403 492 L413 543 Z M229 98 Q258 98 283.5 109.5 Q309 121 336 146 L386 405 Q371 426 347.5 437.5 Q324 449 296 449 Q248 449 215.5 410.5 Q183 372 167.5 314 Q152 256 152 196 Q152 98 229 98 Z " />
<glyph glyph-name="uni1EAD" unicode="&#x1ead;" horiz-adv-x="552" d="M532 543 L427 0 L320 0 L333 68 Q268 -12 175 -12 Q106 -12 68.5 35.5 Q31 83 31 170 Q31 267 59.5 355.5 Q88 444 145.5 499.5 Q203 555 287 555 Q326 555 356 538.5 Q386 522 403 492 L413 543 L532 543 Z M229 98 Q258 98 283.5 109.5 Q309 121 336 146 L386 405 Q371 426 347.5 437.5 Q324 449 296 449 Q248 449 215.5 410.5 Q183 372 167.5 314 Q152 256 152 196 Q152 98 229 98 Z M186 -220 Q155 -220 138 -203.5 Q121 -187 121 -156 Q121 -121 142 -99 Q163 -77 199 -77 Q230 -77 246.5 -93.5 Q263 -110 263 -141 Q263 -176 242.5 -198 Q222 -220 186 -220 Z M497 625 L496 615 L418 615 L363 711 L271 615 L189 615 L190 625 L319 784 L429 784 L497 625 Z " />
<glyph glyph-name="uni1EA7" unicode="&#x1ea7;" horiz-adv-x="552" d="M172 723 L105 850 L106 860 L204 860 L243 733 L242 723 L172 723 Z M187 625 L315 764 L425 764 L498 625 L497 615 L419 615 L360 700 L268 615 L186 615 L187 625 Z M532 543 L427 0 L320 0 L333 68 Q268 -12 175 -12 Q106 -12 68.5 35.5 Q31 83 31 170 Q31 267 59.5 355.5 Q88 444 145.5 499.5 Q203 555 287 555 Q326 555 356 538.5 Q386 522 403 492 L413 543 L532 543 Z M229 98 Q258 98 283.5 109.5 Q309 121 336 146 L386 405 Q371 426 347.5 437.5 Q324 449 296 449 Q248 449 215.5 410.5 Q183 372 167.5 314 Q152 256 152 196 Q152 98 229 98 Z " />
<glyph glyph-name="uni1EA9" unicode="&#x1ea9;" horiz-adv-x="552" d="M555 899 Q598 899 621.5 880.5 Q645 862 645 828 Q645 800 632 786.5 Q619 773 594 762 Q575 753 567 746 Q559 739 559 725 L559 721 L486 726 L486 733 Q486 763 498 776.5 Q510 790 530 800 Q541 806 546 810.5 Q551 815 551 822 Q551 834 534 834 Q507 834 475 818 L454 874 Q476 886 503 892.5 Q530 899 555 899 Z M268 615 L186 615 L187 625 L315 764 L425 764 L498 625 L497 615 L419 615 L360 700 L268 615 Z M413 543 L532 543 L427 0 L320 0 L333 68 Q268 -12 175 -12 Q106 -12 68.5 35.5 Q31 83 31 170 Q31 267 59.5 355.5 Q88 444 145.5 499.5 Q203 555 287 555 Q326 555 356 538.5 Q386 522 403 492 L413 543 Z M229 98 Q258 98 283.5 109.5 Q309 121 336 146 L386 405 Q371 426 347.5 437.5 Q324 449 296 449 Q248 449 215.5 410.5 Q183 372 167.5 314 Q152 256 152 196 Q152 98 229 98 Z " />
<glyph glyph-name="uni1EAB" unicode="&#x1eab;" horiz-adv-x="552" d="M339 853 Q320 853 303.5 837.5 Q287 822 280 794 L221 803 Q246 929 341 929 Q368 929 382 920 Q396 911 409 895 Q419 883 425.5 878 Q432 873 443 873 Q462 873 478.5 888.5 Q495 904 502 931 L560 922 Q549 862 518.5 829.5 Q488 797 440 797 Q413 797 399 806 Q385 815 373 831 Q365 842 357.5 847.5 Q350 853 339 853 Z M268 615 L186 615 L187 625 L315 764 L425 764 L498 625 L497 615 L419 615 L360 700 L268 615 Z M413 543 L532 543 L427 0 L320 0 L333 68 Q268 -12 175 -12 Q106 -12 68.5 35.5 Q31 83 31 170 Q31 267 59.5 355.5 Q88 444 145.5 499.5 Q203 555 287 555 Q326 555 356 538.5 Q386 522 403 492 L413 543 Z M229 98 Q258 98 283.5 109.5 Q309 121 336 146 L386 405 Q371 426 347.5 437.5 Q324 449 296 449 Q248 449 215.5 410.5 Q183 372 167.5 314 Q152 256 152 196 Q152 98 229 98 Z " />
<glyph glyph-name="adieresis" unicode="&#xe4;" horiz-adv-x="552" d="M532 543 L427 0 L320 0 L333 68 Q268 -12 175 -12 Q106 -12 68.5 35.5 Q31 83 31 170 Q31 267 59.5 355.5 Q88 444 145.5 499.5 Q203 555 287 555 Q326 555 356 538.5 Q386 522 403 492 L413 543 L532 543 Z M229 98 Q258 98 283.5 109.5 Q309 121 336 146 L386 405 Q371 426 347.5 437.5 Q324 449 296 449 Q248 449 215.5 410.5 Q183 372 167.5 314 Q152 256 152 196 Q152 98 229 98 Z M258 625 Q230 625 214.5 640.5 Q199 656 199 684 Q199 716 218.5 737 Q238 758 270 758 Q298 758 313.5 742 Q329 726 329 698 Q329 665 310 645 Q291 625 258 625 Z M444 625 Q416 625 400.5 640.5 Q385 656 385 684 Q385 716 404.5 737 Q424 758 456 758 Q484 758 499.5 742 Q515 726 515 698 Q515 665 496 645 Q477 625 444 625 Z " />
<glyph glyph-name="uni1EA1" unicode="&#x1ea1;" horiz-adv-x="552" d="M532 543 L427 0 L320 0 L333 68 Q268 -12 175 -12 Q106 -12 68.5 35.5 Q31 83 31 170 Q31 267 59.5 355.5 Q88 444 145.5 499.5 Q203 555 287 555 Q326 555 356 538.5 Q386 522 403 492 L413 543 L532 543 Z M229 98 Q258 98 283.5 109.5 Q309 121 336 146 L386 405 Q371 426 347.5 437.5 Q324 449 296 449 Q248 449 215.5 410.5 Q183 372 167.5 314 Q152 256 152 196 Q152 98 229 98 Z M186 -220 Q155 -220 138 -203.5 Q121 -187 121 -156 Q121 -121 142 -99 Q163 -77 199 -77 Q230 -77 246.5 -93.5 Q263 -110 263 -141 Q263 -176 242.5 -198 Q222 -220 186 -220 Z " />
<glyph glyph-name="agrave" unicode="&#xe0;" horiz-adv-x="552" d="M532 543 L427 0 L320 0 L333 68 Q268 -12 175 -12 Q106 -12 68.5 35.5 Q31 83 31 170 Q31 267 59.5 355.5 Q88 444 145.5 499.5 Q203 555 287 555 Q326 555 356 538.5 Q386 522 403 492 L413 543 L532 543 Z M229 98 Q258 98 283.5 109.5 Q309 121 336 146 L386 405 Q371 426 347.5 437.5 Q324 449 296 449 Q248 449 215.5 410.5 Q183 372 167.5 314 Q152 256 152 196 Q152 98 229 98 Z M236 774 L237 784 L355 784 L409 625 L408 615 L324 615 L236 774 Z " />
<glyph glyph-name="uni1EA3" unicode="&#x1ea3;" horiz-adv-x="552" d="M532 543 L427 0 L320 0 L333 68 Q268 -12 175 -12 Q106 -12 68.5 35.5 Q31 83 31 170 Q31 267 59.5 355.5 Q88 444 145.5 499.5 Q203 555 287 555 Q326 555 356 538.5 Q386 522 403 492 L413 543 L532 543 Z M229 98 Q258 98 283.5 109.5 Q309 121 336 146 L386 405 Q371 426 347.5 437.5 Q324 449 296 449 Q248 449 215.5 410.5 Q183 372 167.5 314 Q152 256 152 196 Q152 98 229 98 Z M304 617 L304 628 Q304 657 316 673 Q328 689 351 706 Q363 713 368.5 719 Q374 725 374 732 Q374 744 355 744 Q331 744 294 727 L273 785 Q320 812 379 812 Q470 812 470 741 Q470 713 457 698.5 Q444 684 419 668 Q399 656 389.5 646.5 Q380 637 380 620 L380 612 L304 617 Z " />
<glyph glyph-name="uni0251" unicode="&#x251;" horiz-adv-x="552" d="M532 543 L427 0 L320 0 L333 68 Q268 -12 175 -12 Q106 -12 68.5 35.5 Q31 83 31 170 Q31 267 59.5 355.5 Q88 444 145.5 499.5 Q203 555 287 555 Q326 555 356 538.5 Q386 522 403 492 L413 543 L532 543 Z M229 98 Q258 98 283.5 109.5 Q309 121 336 146 L386 405 Q371 426 347.5 437.5 Q324 449 296 449 Q248 449 215.5 410.5 Q183 372 167.5 314 Q152 256 152 196 Q152 98 229 98 Z " />
<glyph glyph-name="amacron" unicode="&#x101;" horiz-adv-x="552" d="M532 543 L427 0 L320 0 L333 68 Q268 -12 175 -12 Q106 -12 68.5 35.5 Q31 83 31 170 Q31 267 59.5 355.5 Q88 444 145.5 499.5 Q203 555 287 555 Q326 555 356 538.5 Q386 522 403 492 L413 543 L532 543 Z M229 98 Q258 98 283.5 109.5 Q309 121 336 146 L386 405 Q371 426 347.5 437.5 Q324 449 296 449 Q248 449 215.5 410.5 Q183 372 167.5 314 Q152 256 152 196 Q152 98 229 98 Z M209 719 L515 719 L500 638 L194 638 L209 719 Z " />
<glyph glyph-name="aogonek" unicode="&#x105;" horiz-adv-x="550" d="M353 -149 Q379 -149 413 -132 L436 -199 Q412 -213 383 -219.5 Q354 -226 326 -226 Q276 -226 248 -203.5 Q220 -181 220 -140 Q220 -99 246.5 -62 Q273 -25 321 0 L335 71 Q268 -12 174 -12 Q105 -12 67.5 35.5 Q30 83 30 170 Q30 267 58.5 355.5 Q87 444 144.5 499.5 Q202 555 286 555 Q326 555 355.5 538.5 Q385 522 402 492 L412 543 L531 543 L426 0 Q381 -26 351 -59 Q321 -92 321 -121 Q321 -149 353 -149 Z M229 98 Q257 98 282.5 109.5 Q308 121 335 146 L385 405 Q370 426 346.5 437.5 Q323 449 295 449 Q247 449 214.5 411 Q182 373 167 314.5 Q152 256 152 196 Q152 98 229 98 Z " />
<glyph glyph-name="aring" unicode="&#xe5;" horiz-adv-x="552" d="M532 543 L427 0 L320 0 L333 68 Q268 -12 175 -12 Q106 -12 68.5 35.5 Q31 83 31 170 Q31 267 59.5 355.5 Q88 444 145.5 499.5 Q203 555 287 555 Q326 555 356 538.5 Q386 522 403 492 L413 543 L532 543 Z M229 98 Q258 98 283.5 109.5 Q309 121 336 146 L386 405 Q371 426 347.5 437.5 Q324 449 296 449 Q248 449 215.5 410.5 Q183 372 167.5 314 Q152 256 152 196 Q152 98 229 98 Z M340 602 Q290 602 262.5 624.5 Q235 647 235 689 Q235 755 274 794 Q313 833 386 833 Q436 833 463 810 Q490 787 490 745 Q490 680 451 641 Q412 602 340 602 Z M351 660 Q385 660 400.5 681 Q416 702 416 734 Q416 774 374 774 Q340 774 324.5 753 Q309 732 309 700 Q309 660 351 660 Z " />
<glyph glyph-name="atilde" unicode="&#xe3;" horiz-adv-x="552" d="M532 543 L427 0 L320 0 L333 68 Q268 -12 175 -12 Q106 -12 68.5 35.5 Q31 83 31 170 Q31 267 59.5 355.5 Q88 444 145.5 499.5 Q203 555 287 555 Q326 555 356 538.5 Q386 522 403 492 L413 543 L532 543 Z M229 98 Q258 98 283.5 109.5 Q309 121 336 146 L386 405 Q371 426 347.5 437.5 Q324 449 296 449 Q248 449 215.5 410.5 Q183 372 167.5 314 Q152 256 152 196 Q152 98 229 98 Z M170 623 Q185 692 216.5 726.5 Q248 761 294 761 Q321 761 340 751 Q359 741 378 724 Q392 712 400.5 706.5 Q409 701 420 701 Q438 701 453.5 717.5 Q469 734 478 764 L543 755 Q527 685 495 650.5 Q463 616 417 616 Q390 616 372 626 Q354 636 335 654 Q321 666 312.5 671.5 Q304 677 293 677 Q275 677 259.5 659.5 Q244 642 236 614 L170 623 Z " />
<glyph glyph-name="ae" unicode="&#xe6;" horiz-adv-x="787" d="M436 235 Q435 226 435 208 Q435 95 541 95 Q598 95 668 129 L702 40 Q617 -11 512 -11 Q402 -11 351 61 Q309 23 265.5 5.5 Q222 -12 172 -12 Q103 -12 65.5 35.5 Q28 83 28 170 Q28 267 64 356 Q100 445 168 500 Q236 555 327 555 Q412 555 450 495 Q525 555 622 555 Q693 555 736 515.5 Q779 476 779 411 Q779 362 754 321 Q729 280 684 259 Q658 246 624.5 240.5 Q591 235 539 235 L436 235 Z M602 452 Q553 452 514.5 414 Q476 376 454 317 L540 317 Q605 317 631 335 Q645 345 652.5 361 Q660 377 660 396 Q660 423 645 437.5 Q630 452 602 452 Z M226 98 Q275 98 322 136 Q317 163 317 188 Q317 257 337 322 Q357 387 394 437 Q370 449 336 449 Q280 449 237.5 411.5 Q195 374 172 315.5 Q149 257 149 196 Q149 98 226 98 Z " />
<glyph glyph-name="b" unicode="b" horiz-adv-x="553" d="M376 555 Q446 555 484 507.5 Q522 460 522 373 Q522 275 493.5 187 Q465 99 407 43.5 Q349 -12 264 -12 Q220 -12 187.5 8.5 Q155 29 140 67 L127 0 L20 0 L170 770 L289 770 L236 495 Q296 555 376 555 Z M256 94 Q304 94 336.5 132 Q369 170 385 228 Q401 286 401 346 Q401 445 322 445 Q268 445 217 397 L166 137 Q182 116 205 105 Q228 94 256 94 Z " />
<glyph glyph-name="c" unicode="c" horiz-adv-x="458" d="M228 -11 Q131 -11 79 40 Q27 91 27 186 Q27 282 63 366.5 Q99 451 168 503 Q237 555 331 555 Q373 555 410.5 542.5 Q448 530 476 507 L419 417 Q360 448 310 448 Q258 448 221.5 412 Q185 376 166.5 320.5 Q148 265 148 207 Q148 151 173.5 124 Q199 97 253 97 Q307 97 365 128 L395 37 Q325 -11 228 -11 Z " />
<glyph glyph-name="cacute" unicode="&#x107;" horiz-adv-x="458" d="M228 -11 Q131 -11 79 40 Q27 91 27 186 Q27 282 63 366.5 Q99 451 168 503 Q237 555 331 555 Q373 555 410.5 542.5 Q448 530 476 507 L419 417 Q360 448 310 448 Q258 448 221.5 412 Q185 376 166.5 320.5 Q148 265 148 207 Q148 151 173.5 124 Q199 97 253 97 Q307 97 365 128 L395 37 Q325 -11 228 -11 Z M255 625 L376 784 L503 784 L502 774 L346 615 L254 615 L255 625 Z " />
<glyph glyph-name="ccaron" unicode="&#x10d;" horiz-adv-x="458" d="M228 -11 Q131 -11 79 40 Q27 91 27 186 Q27 282 63 366.5 Q99 451 168 503 Q237 555 331 555 Q373 555 410.5 542.5 Q448 530 476 507 L419 417 Q360 448 310 448 Q258 448 221.5 412 Q185 376 166.5 320.5 Q148 265 148 207 Q148 151 173.5 124 Q199 97 253 97 Q307 97 365 128 L395 37 Q325 -11 228 -11 Z M504 784 L503 774 L375 615 L264 615 L196 774 L197 784 L275 784 L330 688 L422 784 L504 784 Z " />
<glyph glyph-name="ccedilla" unicode="&#xe7;" horiz-adv-x="458" d="M310 448 Q258 448 221.5 412 Q185 376 166.5 320.5 Q148 265 148 207 Q148 151 173.5 124 Q199 97 253 97 Q307 97 365 128 L395 37 Q325 -11 228 -11 L227 -11 L189 -54 Q194 -53 205 -53 Q249 -53 273.5 -73.5 Q298 -94 298 -131 Q298 -179 258.5 -207.5 Q219 -236 158 -236 Q93 -236 47 -209 L68 -158 Q112 -174 143 -174 Q172 -174 189.5 -161 Q207 -148 207 -129 Q207 -105 178 -105 Q154 -105 134 -114 L109 -83 L156 -2 Q93 14 60 62.5 Q27 111 27 186 Q27 282 63 366.5 Q99 451 168 503 Q237 555 331 555 Q373 555 410.5 542.5 Q448 530 476 507 L419 417 Q360 448 310 448 Z " />
<glyph glyph-name="ccircumflex" unicode="&#x109;" horiz-adv-x="458" d="M228 -11 Q131 -11 79 40 Q27 91 27 186 Q27 282 63 366.5 Q99 451 168 503 Q237 555 331 555 Q373 555 410.5 542.5 Q448 530 476 507 L419 417 Q360 448 310 448 Q258 448 221.5 412 Q185 376 166.5 320.5 Q148 265 148 207 Q148 151 173.5 124 Q199 97 253 97 Q307 97 365 128 L395 37 Q325 -11 228 -11 Z M472 625 L471 615 L393 615 L338 711 L246 615 L164 615 L165 625 L294 784 L404 784 L472 625 Z " />
<glyph glyph-name="cdotaccent" unicode="&#x10b;" horiz-adv-x="458" d="M228 -11 Q131 -11 79 40 Q27 91 27 186 Q27 282 63 366.5 Q99 451 168 503 Q237 555 331 555 Q373 555 410.5 542.5 Q448 530 476 507 L419 417 Q360 448 310 448 Q258 448 221.5 412 Q185 376 166.5 320.5 Q148 265 148 207 Q148 151 173.5 124 Q199 97 253 97 Q307 97 365 128 L395 37 Q325 -11 228 -11 Z M325 621 Q294 621 277.5 637 Q261 653 261 684 Q261 719 281.5 741 Q302 763 339 763 Q370 763 386.5 746.5 Q403 730 403 699 Q403 664 382.5 642.5 Q362 621 325 621 Z " />
<glyph glyph-name="d" unicode="d" horiz-adv-x="553" d="M578 770 L428 0 L321 0 L334 66 Q270 -12 177 -12 Q107 -12 69 35.5 Q31 83 31 170 Q31 268 59.5 356 Q88 444 146 499.5 Q204 555 289 555 Q328 555 358 539 Q388 523 405 493 L459 770 L578 770 Z M231 98 Q259 98 284.5 109 Q310 120 337 145 L388 405 Q372 426 348.5 437.5 Q325 449 298 449 Q250 449 217 410.5 Q184 372 168 314 Q152 256 152 196 Q152 98 231 98 Z " />
<glyph glyph-name="eth" unicode="&#xf0;" horiz-adv-x="541" d="M415 675 Q468 625 492.5 560 Q517 495 517 406 Q517 294 485 198.5 Q453 103 385.5 45 Q318 -13 217 -13 Q124 -13 76.5 39.5 Q29 92 29 194 Q29 282 60 359.5 Q91 437 151 484.5 Q211 532 295 532 Q378 532 411 472 Q398 569 331 631 L205 560 L180 620 L280 669 Q252 687 217 702 L189 714 L228 789 L251 778 Q315 749 366 715 L479 782 L504 721 L415 675 Z M226 93 Q275 93 311.5 129.5 Q348 166 367.5 221.5 Q387 277 387 331 Q387 381 367 407 Q347 433 307 433 Q257 433 221 396.5 Q185 360 167 305 Q149 250 149 195 Q149 93 226 93 Z " />
<glyph glyph-name="dcaron" unicode="&#x10f;" horiz-adv-x="624" d="M459 770 L578 770 L428 0 L321 0 L334 66 Q270 -12 177 -12 Q107 -12 69 35.5 Q31 83 31 170 Q31 268 59.5 356 Q88 444 146 499.5 Q204 555 289 555 Q328 555 358 539 Q388 523 405 493 L459 770 Z M736 770 L735 760 L660 546 L591 546 L635 770 L736 770 Z M231 98 Q259 98 284.5 109 Q310 120 337 145 L388 405 Q372 426 348.5 437.5 Q325 449 298 449 Q250 449 217 410.5 Q184 372 168 314 Q152 256 152 196 Q152 98 231 98 Z " />
<glyph glyph-name="dslash" unicode="&#x111;" horiz-adv-x="556" d="M608 609 L548 609 L429 0 L323 0 L336 66 Q271 -12 179 -12 Q108 -12 68.5 35 Q29 82 29 168 Q29 262 58.5 347 Q88 432 146.5 485 Q205 538 288 538 Q327 538 356.5 522 Q386 506 403 477 L429 609 L238 609 L253 689 L445 689 L460 770 L579 770 L564 689 L624 689 L608 609 Z M233 97 Q287 97 339 145 L386 389 Q370 410 347 421.5 Q324 433 297 433 Q248 433 215.5 397.5 Q183 362 167 307 Q151 252 151 194 Q151 97 233 97 Z " />
<glyph glyph-name="uni1E0D" unicode="&#x1e0d;" horiz-adv-x="553" d="M578 770 L428 0 L321 0 L334 66 Q270 -12 177 -12 Q107 -12 69 35.5 Q31 83 31 170 Q31 268 59.5 356 Q88 444 146 499.5 Q204 555 289 555 Q328 555 358 539 Q388 523 405 493 L459 770 L578 770 Z M231 98 Q259 98 284.5 109 Q310 120 337 145 L388 405 Q372 426 348.5 437.5 Q325 449 298 449 Q250 449 217 410.5 Q184 372 168 314 Q152 256 152 196 Q152 98 231 98 Z M191 -220 Q160 -220 143 -203.5 Q126 -187 126 -156 Q126 -121 147 -99 Q168 -77 204 -77 Q235 -77 251.5 -93.5 Q268 -110 268 -141 Q268 -176 247.5 -198 Q227 -220 191 -220 Z " />
<glyph glyph-name="uni1E0F" unicode="&#x1e0f;" horiz-adv-x="553" d="M578 770 L428 0 L321 0 L334 66 Q270 -12 177 -12 Q107 -12 69 35.5 Q31 83 31 170 Q31 268 59.5 356 Q88 444 146 499.5 Q204 555 289 555 Q328 555 358 539 Q388 523 405 493 L459 770 L578 770 Z M231 98 Q259 98 284.5 109 Q310 120 337 145 L388 405 Q372 426 348.5 437.5 Q325 449 298 449 Q250 449 217 410.5 Q184 372 168 314 Q152 256 152 196 Q152 98 231 98 Z M55 -100 L361 -100 L345 -181 L39 -181 L55 -100 Z " />
<glyph glyph-name="e" unicode="e" horiz-adv-x="506" d="M148 235 Q146 217 146 208 Q146 95 256 95 Q319 95 387 130 L421 41 Q336 -11 227 -11 Q132 -11 80.5 40.5 Q29 92 29 188 Q29 284 66 368.5 Q103 453 173 504 Q243 555 337 555 Q410 555 454 515.5 Q498 476 498 411 Q498 362 472.5 321 Q447 280 403 259 Q377 246 343 240.5 Q309 235 257 235 L148 235 Z M317 452 Q267 452 227.5 414 Q188 376 166 317 L259 317 Q324 317 350 335 Q364 345 371.5 361 Q379 377 379 396 Q379 423 363 437.5 Q347 452 317 452 Z " />
<glyph glyph-name="eacute" unicode="&#xe9;" horiz-adv-x="506" d="M148 235 Q146 217 146 208 Q146 95 256 95 Q319 95 387 130 L421 41 Q336 -11 227 -11 Q132 -11 80.5 40.5 Q29 92 29 188 Q29 284 66 368.5 Q103 453 173 504 Q243 555 337 555 Q410 555 454 515.5 Q498 476 498 411 Q498 362 472.5 321 Q447 280 403 259 Q377 246 343 240.5 Q309 235 257 235 L148 235 Z M317 452 Q267 452 227.5 414 Q188 376 166 317 L259 317 Q324 317 350 335 Q364 345 371.5 361 Q379 377 379 396 Q379 423 363 437.5 Q347 452 317 452 Z M267 625 L388 784 L515 784 L514 774 L358 615 L266 615 L267 625 Z " />
<glyph glyph-name="ebreve" unicode="&#x115;" horiz-adv-x="506" d="M148 235 Q146 217 146 208 Q146 95 256 95 Q319 95 387 130 L421 41 Q336 -11 227 -11 Q132 -11 80.5 40.5 Q29 92 29 188 Q29 284 66 368.5 Q103 453 173 504 Q243 555 337 555 Q410 555 454 515.5 Q498 476 498 411 Q498 362 472.5 321 Q447 280 403 259 Q377 246 343 240.5 Q309 235 257 235 L148 235 Z M317 452 Q267 452 227.5 414 Q188 376 166 317 L259 317 Q324 317 350 335 Q364 345 371.5 361 Q379 377 379 396 Q379 423 363 437.5 Q347 452 317 452 Z M338 612 Q275 612 241 647 Q207 682 207 741 Q207 759 210 777 L278 773 Q276 735 292 717 Q308 699 342 699 Q379 699 406 719 Q433 739 446 777 L512 773 Q494 694 449.5 653 Q405 612 338 612 Z " />
<glyph glyph-name="ecaron" unicode="&#x11b;" horiz-adv-x="506" d="M148 235 Q146 217 146 208 Q146 95 256 95 Q319 95 387 130 L421 41 Q336 -11 227 -11 Q132 -11 80.5 40.5 Q29 92 29 188 Q29 284 66 368.5 Q103 453 173 504 Q243 555 337 555 Q410 555 454 515.5 Q498 476 498 411 Q498 362 472.5 321 Q447 280 403 259 Q377 246 343 240.5 Q309 235 257 235 L148 235 Z M317 452 Q267 452 227.5 414 Q188 376 166 317 L259 317 Q324 317 350 335 Q364 345 371.5 361 Q379 377 379 396 Q379 423 363 437.5 Q347 452 317 452 Z M516 784 L515 774 L387 615 L276 615 L208 774 L209 784 L287 784 L342 688 L434 784 L516 784 Z " />
<glyph glyph-name="ecircumflex" unicode="&#xea;" horiz-adv-x="506" d="M148 235 Q146 217 146 208 Q146 95 256 95 Q319 95 387 130 L421 41 Q336 -11 227 -11 Q132 -11 80.5 40.5 Q29 92 29 188 Q29 284 66 368.5 Q103 453 173 504 Q243 555 337 555 Q410 555 454 515.5 Q498 476 498 411 Q498 362 472.5 321 Q447 280 403 259 Q377 246 343 240.5 Q309 235 257 235 L148 235 Z M317 452 Q267 452 227.5 414 Q188 376 166 317 L259 317 Q324 317 350 335 Q364 345 371.5 361 Q379 377 379 396 Q379 423 363 437.5 Q347 452 317 452 Z M484 625 L483 615 L405 615 L350 711 L258 615 L176 615 L177 625 L306 784 L416 784 L484 625 Z " />
<glyph glyph-name="uni1EBF" unicode="&#x1ebf;" horiz-adv-x="506" d="M665 859 L664 849 L542 722 L463 722 L464 732 L560 859 L665 859 Z M255 615 L173 615 L174 625 L302 764 L412 764 L485 625 L484 615 L406 615 L347 700 L255 615 Z M337 555 Q410 555 454 515.5 Q498 476 498 411 Q498 362 472.5 321 Q447 280 403 259 Q377 246 343 240.5 Q309 235 257 235 L148 235 Q146 217 146 208 Q146 95 256 95 Q319 95 387 130 L421 41 Q336 -11 227 -11 Q132 -11 80.5 40.5 Q29 92 29 188 Q29 284 66 368.5 Q103 453 173 504 Q243 555 337 555 Z M350 335 Q364 345 371.5 361 Q379 377 379 396 Q379 423 363 437.5 Q347 452 317 452 Q267 452 227.5 414 Q188 376 166 317 L259 317 Q324 317 350 335 Z " />
<glyph glyph-name="uni1EC7" unicode="&#x1ec7;" horiz-adv-x="506" d="M148 235 Q146 217 146 208 Q146 95 256 95 Q319 95 387 130 L421 41 Q336 -11 227 -11 Q132 -11 80.5 40.5 Q29 92 29 188 Q29 284 66 368.5 Q103 453 173 504 Q243 555 337 555 Q410 555 454 515.5 Q498 476 498 411 Q498 362 472.5 321 Q447 280 403 259 Q377 246 343 240.5 Q309 235 257 235 L148 235 Z M317 452 Q267 452 227.5 414 Q188 376 166 317 L259 317 Q324 317 350 335 Q364 345 371.5 361 Q379 377 379 396 Q379 423 363 437.5 Q347 452 317 452 Z M177 -220 Q146 -220 129 -203.5 Q112 -187 112 -156 Q112 -121 133 -99 Q154 -77 190 -77 Q221 -77 237.5 -93.5 Q254 -110 254 -141 Q254 -176 233.5 -198 Q213 -220 177 -220 Z M484 625 L483 615 L405 615 L350 711 L258 615 L176 615 L177 625 L306 784 L416 784 L484 625 Z " />
<glyph glyph-name="uni1EC1" unicode="&#x1ec1;" horiz-adv-x="506" d="M159 723 L92 850 L93 860 L191 860 L230 733 L229 723 L159 723 Z M174 625 L302 764 L412 764 L485 625 L484 615 L406 615 L347 700 L255 615 L173 615 L174 625 Z M148 235 Q146 217 146 208 Q146 95 256 95 Q319 95 387 130 L421 41 Q336 -11 227 -11 Q132 -11 80.5 40.5 Q29 92 29 188 Q29 284 66 368.5 Q103 453 173 504 Q243 555 337 555 Q410 555 454 515.5 Q498 476 498 411 Q498 362 472.5 321 Q447 280 403 259 Q377 246 343 240.5 Q309 235 257 235 L148 235 Z M317 452 Q267 452 227.5 414 Q188 376 166 317 L259 317 Q324 317 350 335 Q364 345 371.5 361 Q379 377 379 396 Q379 423 363 437.5 Q347 452 317 452 Z " />
<glyph glyph-name="uni1EC3" unicode="&#x1ec3;" horiz-adv-x="506" d="M542 899 Q585 899 608.5 880.5 Q632 862 632 828 Q632 800 619 786.5 Q606 773 581 762 Q562 753 554 746 Q546 739 546 725 L546 721 L473 726 L473 733 Q473 763 485 776.5 Q497 790 517 800 Q528 806 533 810.5 Q538 815 538 822 Q538 834 521 834 Q494 834 462 818 L441 874 Q463 886 490 892.5 Q517 899 542 899 Z M255 615 L173 615 L174 625 L302 764 L412 764 L485 625 L484 615 L406 615 L347 700 L255 615 Z M337 555 Q410 555 454 515.5 Q498 476 498 411 Q498 362 472.5 321 Q447 280 403 259 Q377 246 343 240.5 Q309 235 257 235 L148 235 Q146 217 146 208 Q146 95 256 95 Q319 95 387 130 L421 41 Q336 -11 227 -11 Q132 -11 80.5 40.5 Q29 92 29 188 Q29 284 66 368.5 Q103 453 173 504 Q243 555 337 555 Z M350 335 Q364 345 371.5 361 Q379 377 379 396 Q379 423 363 437.5 Q347 452 317 452 Q267 452 227.5 414 Q188 376 166 317 L259 317 Q324 317 350 335 Z " />
<glyph glyph-name="uni1EC5" unicode="&#x1ec5;" horiz-adv-x="506" d="M547 922 Q536 862 505.5 829.5 Q475 797 427 797 Q400 797 386 806 Q372 815 360 831 Q352 842 344.5 847.5 Q337 853 326 853 Q307 853 290.5 837.5 Q274 822 267 794 L208 803 Q233 929 328 929 Q355 929 369 920 Q383 911 396 895 Q406 883 412.5 878 Q419 873 430 873 Q449 873 465.5 888.5 Q482 904 489 931 L547 922 Z M255 615 L173 615 L174 625 L302 764 L412 764 L485 625 L484 615 L406 615 L347 700 L255 615 Z M337 555 Q410 555 454 515.5 Q498 476 498 411 Q498 362 472.5 321 Q447 280 403 259 Q377 246 343 240.5 Q309 235 257 235 L148 235 Q146 217 146 208 Q146 95 256 95 Q319 95 387 130 L421 41 Q336 -11 227 -11 Q132 -11 80.5 40.5 Q29 92 29 188 Q29 284 66 368.5 Q103 453 173 504 Q243 555 337 555 Z M350 335 Q364 345 371.5 361 Q379 377 379 396 Q379 423 363 437.5 Q347 452 317 452 Q267 452 227.5 414 Q188 376 166 317 L259 317 Q324 317 350 335 Z " />
<glyph glyph-name="edieresis" unicode="&#xeb;" horiz-adv-x="506" d="M245 625 Q217 625 201.5 640.5 Q186 656 186 684 Q186 716 205.5 737 Q225 758 257 758 Q285 758 300.5 742 Q316 726 316 698 Q316 665 297 645 Q278 625 245 625 Z M431 625 Q403 625 387.5 640.5 Q372 656 372 684 Q372 716 391.5 737 Q411 758 443 758 Q471 758 486.5 742 Q502 726 502 698 Q502 665 483 645 Q464 625 431 625 Z M337 555 Q410 555 454 515.5 Q498 476 498 411 Q498 362 472.5 321 Q447 280 403 259 Q377 246 343 240.5 Q309 235 257 235 L148 235 Q146 217 146 208 Q146 95 256 95 Q319 95 387 130 L421 41 Q336 -11 227 -11 Q132 -11 80.5 40.5 Q29 92 29 188 Q29 284 66 368.5 Q103 453 173 504 Q243 555 337 555 Z M350 335 Q364 345 371.5 361 Q379 377 379 396 Q379 423 363 437.5 Q347 452 317 452 Q267 452 227.5 414 Q188 376 166 317 L259 317 Q324 317 350 335 Z " />
<glyph glyph-name="edotaccent" unicode="&#x117;" horiz-adv-x="506" d="M148 235 Q146 217 146 208 Q146 95 256 95 Q319 95 387 130 L421 41 Q336 -11 227 -11 Q132 -11 80.5 40.5 Q29 92 29 188 Q29 284 66 368.5 Q103 453 173 504 Q243 555 337 555 Q410 555 454 515.5 Q498 476 498 411 Q498 362 472.5 321 Q447 280 403 259 Q377 246 343 240.5 Q309 235 257 235 L148 235 Z M317 452 Q267 452 227.5 414 Q188 376 166 317 L259 317 Q324 317 350 335 Q364 345 371.5 361 Q379 377 379 396 Q379 423 363 437.5 Q347 452 317 452 Z M337 621 Q306 621 289.5 637 Q273 653 273 684 Q273 719 293.5 741 Q314 763 351 763 Q382 763 398.5 746.5 Q415 730 415 699 Q415 664 394.5 642.5 Q374 621 337 621 Z " />
<glyph glyph-name="uni1EB9" unicode="&#x1eb9;" horiz-adv-x="506" d="M148 235 Q146 217 146 208 Q146 95 256 95 Q319 95 387 130 L421 41 Q336 -11 227 -11 Q132 -11 80.5 40.5 Q29 92 29 188 Q29 284 66 368.5 Q103 453 173 504 Q243 555 337 555 Q410 555 454 515.5 Q498 476 498 411 Q498 362 472.5 321 Q447 280 403 259 Q377 246 343 240.5 Q309 235 257 235 L148 235 Z M317 452 Q267 452 227.5 414 Q188 376 166 317 L259 317 Q324 317 350 335 Q364 345 371.5 361 Q379 377 379 396 Q379 423 363 437.5 Q347 452 317 452 Z M177 -220 Q146 -220 129 -203.5 Q112 -187 112 -156 Q112 -121 133 -99 Q154 -77 190 -77 Q221 -77 237.5 -93.5 Q254 -110 254 -141 Q254 -176 233.5 -198 Q213 -220 177 -220 Z " />
<glyph glyph-name="egrave" unicode="&#xe8;" horiz-adv-x="506" d="M148 235 Q146 217 146 208 Q146 95 256 95 Q319 95 387 130 L421 41 Q336 -11 227 -11 Q132 -11 80.5 40.5 Q29 92 29 188 Q29 284 66 368.5 Q103 453 173 504 Q243 555 337 555 Q410 555 454 515.5 Q498 476 498 411 Q498 362 472.5 321 Q447 280 403 259 Q377 246 343 240.5 Q309 235 257 235 L148 235 Z M317 452 Q267 452 227.5 414 Q188 376 166 317 L259 317 Q324 317 350 335 Q364 345 371.5 361 Q379 377 379 396 Q379 423 363 437.5 Q347 452 317 452 Z M223 774 L224 784 L342 784 L396 625 L395 615 L311 615 L223 774 Z " />
<glyph glyph-name="uni1EBB" unicode="&#x1ebb;" horiz-adv-x="506" d="M148 235 Q146 217 146 208 Q146 95 256 95 Q319 95 387 130 L421 41 Q336 -11 227 -11 Q132 -11 80.5 40.5 Q29 92 29 188 Q29 284 66 368.5 Q103 453 173 504 Q243 555 337 555 Q410 555 454 515.5 Q498 476 498 411 Q498 362 472.5 321 Q447 280 403 259 Q377 246 343 240.5 Q309 235 257 235 L148 235 Z M317 452 Q267 452 227.5 414 Q188 376 166 317 L259 317 Q324 317 350 335 Q364 345 371.5 361 Q379 377 379 396 Q379 423 363 437.5 Q347 452 317 452 Z M291 617 L291 628 Q291 657 303 673 Q315 689 338 706 Q350 713 355.5 719 Q361 725 361 732 Q361 744 342 744 Q318 744 281 727 L260 785 Q307 812 366 812 Q457 812 457 741 Q457 713 444 698.5 Q431 684 406 668 Q386 656 376.5 646.5 Q367 637 367 620 L367 612 L291 617 Z " />
<glyph glyph-name="emacron" unicode="&#x113;" horiz-adv-x="506" d="M148 235 Q146 217 146 208 Q146 95 256 95 Q319 95 387 130 L421 41 Q336 -11 227 -11 Q132 -11 80.5 40.5 Q29 92 29 188 Q29 284 66 368.5 Q103 453 173 504 Q243 555 337 555 Q410 555 454 515.5 Q498 476 498 411 Q498 362 472.5 321 Q447 280 403 259 Q377 246 343 240.5 Q309 235 257 235 L148 235 Z M317 452 Q267 452 227.5 414 Q188 376 166 317 L259 317 Q324 317 350 335 Q364 345 371.5 361 Q379 377 379 396 Q379 423 363 437.5 Q347 452 317 452 Z M196 719 L502 719 L487 638 L181 638 L196 719 Z " />
<glyph glyph-name="eogonek" unicode="&#x119;" horiz-adv-x="507" d="M148 235 L147 208 Q147 95 257 95 Q320 95 388 130 L422 41 L385 21 Q331 -7 295 -48 Q259 -89 259 -121 Q259 -149 291 -149 Q319 -149 351 -132 L374 -199 Q327 -226 265 -226 Q214 -226 186.5 -203.5 Q159 -181 159 -140 Q159 -104 179.5 -71 Q200 -38 238 -11 L228 -11 Q133 -11 81.5 40.5 Q30 92 30 188 Q30 284 67 368.5 Q104 453 174 504 Q244 555 338 555 Q411 555 454.5 515.5 Q498 476 498 411 Q498 362 473 321 Q448 280 404 259 Q378 246 344 240.5 Q310 235 258 235 L148 235 Z M318 452 Q267 452 228 414 Q189 376 167 317 L260 317 Q325 317 351 335 Q365 345 372.5 361 Q380 377 380 396 Q380 423 364 437.5 Q348 452 318 452 Z " />
<glyph glyph-name="uni1EBD" unicode="&#x1ebd;" horiz-adv-x="506" d="M148 235 Q146 217 146 208 Q146 95 256 95 Q319 95 387 130 L421 41 Q336 -11 227 -11 Q132 -11 80.5 40.5 Q29 92 29 188 Q29 284 66 368.5 Q103 453 173 504 Q243 555 337 555 Q410 555 454 515.5 Q498 476 498 411 Q498 362 472.5 321 Q447 280 403 259 Q377 246 343 240.5 Q309 235 257 235 L148 235 Z M317 452 Q267 452 227.5 414 Q188 376 166 317 L259 317 Q324 317 350 335 Q364 345 371.5 361 Q379 377 379 396 Q379 423 363 437.5 Q347 452 317 452 Z M157 623 Q172 692 203.5 726.5 Q235 761 281 761 Q308 761 327 751 Q346 741 365 724 Q379 712 387.5 706.5 Q396 701 407 701 Q425 701 440.5 717.5 Q456 734 465 764 L530 755 Q514 685 482 650.5 Q450 616 404 616 Q377 616 359 626 Q341 636 322 654 Q308 666 299.5 671.5 Q291 677 280 677 Q262 677 246.5 659.5 Q231 642 223 614 L157 623 Z " />
<glyph glyph-name="f" unicode="f" horiz-adv-x="347" d="M118 442 L37 442 L57 543 L138 543 L149 597 Q167 688 227.5 736 Q288 784 384 784 Q411 784 447 778 L427 676 Q407 680 380 680 Q333 680 303.5 656 Q274 632 266 588 L257 543 L382 543 L363 442 L237 442 L152 0 L33 0 L118 442 Z " />
<glyph glyph-name="g" unicode="g" horiz-adv-x="556" d="M536 543 L431 5 Q410 -103 340 -161 Q270 -219 160 -219 Q112 -219 69.5 -208.5 Q27 -198 -4 -179 L40 -88 Q93 -115 154 -115 Q220 -115 261 -81.5 Q302 -48 314 14 L327 81 Q267 18 185 18 Q112 18 73.5 63.5 Q35 109 35 194 Q35 288 63 370.5 Q91 453 148.5 504 Q206 555 290 555 Q337 555 369 534 Q401 513 416 474 L429 543 L536 543 Z M390 404 Q374 426 351 437.5 Q328 449 300 449 Q229 449 193 381 Q157 313 157 221 Q157 128 239 128 Q267 128 292.5 139.5 Q318 151 345 176 L390 404 Z " />
<glyph glyph-name="gbreve" unicode="&#x11f;" horiz-adv-x="556" d="M536 543 L431 5 Q410 -103 340 -161 Q270 -219 160 -219 Q112 -219 69.5 -208.5 Q27 -198 -4 -179 L40 -88 Q93 -115 154 -115 Q220 -115 261 -81.5 Q302 -48 314 14 L327 81 Q267 18 185 18 Q112 18 73.5 63.5 Q35 109 35 194 Q35 288 63 370.5 Q91 453 148.5 504 Q206 555 290 555 Q337 555 369 534 Q401 513 416 474 L429 543 L536 543 Z M390 404 Q374 426 351 437.5 Q328 449 300 449 Q229 449 193 381 Q157 313 157 221 Q157 128 239 128 Q267 128 292.5 139.5 Q318 151 345 176 L390 404 Z M348 612 Q285 612 251 647 Q217 682 217 741 Q217 759 220 777 L288 773 Q286 735 302 717 Q318 699 352 699 Q389 699 416 719 Q443 739 456 777 L522 773 Q504 694 459.5 653 Q415 612 348 612 Z " />
<glyph glyph-name="gcaron" unicode="&#x1e7;" horiz-adv-x="556" d="M536 543 L431 5 Q410 -103 340 -161 Q270 -219 160 -219 Q112 -219 69.5 -208.5 Q27 -198 -4 -179 L40 -88 Q93 -115 154 -115 Q220 -115 261 -81.5 Q302 -48 314 14 L327 81 Q267 18 185 18 Q112 18 73.5 63.5 Q35 109 35 194 Q35 288 63 370.5 Q91 453 148.5 504 Q206 555 290 555 Q337 555 369 534 Q401 513 416 474 L429 543 L536 543 Z M390 404 Q374 426 351 437.5 Q328 449 300 449 Q229 449 193 381 Q157 313 157 221 Q157 128 239 128 Q267 128 292.5 139.5 Q318 151 345 176 L390 404 Z M526 784 L525 774 L397 615 L286 615 L218 774 L219 784 L297 784 L352 688 L444 784 L526 784 Z " />
<glyph glyph-name="gcircumflex" unicode="&#x11d;" horiz-adv-x="556" d="M536 543 L431 5 Q410 -103 340 -161 Q270 -219 160 -219 Q112 -219 69.5 -208.5 Q27 -198 -4 -179 L40 -88 Q93 -115 154 -115 Q220 -115 261 -81.5 Q302 -48 314 14 L327 81 Q267 18 185 18 Q112 18 73.5 63.5 Q35 109 35 194 Q35 288 63 370.5 Q91 453 148.5 504 Q206 555 290 555 Q337 555 369 534 Q401 513 416 474 L429 543 L536 543 Z M390 404 Q374 426 351 437.5 Q328 449 300 449 Q229 449 193 381 Q157 313 157 221 Q157 128 239 128 Q267 128 292.5 139.5 Q318 151 345 176 L390 404 Z M494 625 L493 615 L415 615 L360 711 L268 615 L186 615 L187 625 L316 784 L426 784 L494 625 Z " />
<glyph glyph-name="gcommaaccent" unicode="&#x123;" horiz-adv-x="556" d="M536 543 L431 5 Q410 -103 340 -161 Q270 -219 160 -219 Q112 -219 69.5 -208.5 Q27 -198 -4 -179 L40 -88 Q93 -115 154 -115 Q220 -115 261 -81.5 Q302 -48 314 14 L327 81 Q267 18 185 18 Q112 18 73.5 63.5 Q35 109 35 194 Q35 288 63 370.5 Q91 453 148.5 504 Q206 555 290 555 Q337 555 369 534 Q401 513 416 474 L429 543 L536 543 Z M390 404 Q374 426 351 437.5 Q328 449 300 449 Q229 449 193 381 Q157 313 157 221 Q157 128 239 128 Q267 128 292.5 139.5 Q318 151 345 176 L390 404 Z M463 770 Q433 742 418.5 715.5 Q404 689 394 643 Q391 629 389 602 L284 611 Q287 645 290 661 Q300 707 329.5 744 Q359 781 422 822 L463 770 Z " />
<glyph glyph-name="gdotaccent" unicode="&#x121;" horiz-adv-x="556" d="M536 543 L431 5 Q410 -103 340 -161 Q270 -219 160 -219 Q112 -219 69.5 -208.5 Q27 -198 -4 -179 L40 -88 Q93 -115 154 -115 Q220 -115 261 -81.5 Q302 -48 314 14 L327 81 Q267 18 185 18 Q112 18 73.5 63.5 Q35 109 35 194 Q35 288 63 370.5 Q91 453 148.5 504 Q206 555 290 555 Q337 555 369 534 Q401 513 416 474 L429 543 L536 543 Z M390 404 Q374 426 351 437.5 Q328 449 300 449 Q229 449 193 381 Q157 313 157 221 Q157 128 239 128 Q267 128 292.5 139.5 Q318 151 345 176 L390 404 Z M348 621 Q317 621 300.5 637 Q284 653 284 684 Q284 719 304.5 741 Q325 763 362 763 Q393 763 409.5 746.5 Q426 730 426 699 Q426 664 405.5 642.5 Q385 621 348 621 Z " />
<glyph glyph-name="uni1E21" unicode="&#x1e21;" horiz-adv-x="556" d="M536 543 L431 5 Q410 -103 340 -161 Q270 -219 160 -219 Q112 -219 69.5 -208.5 Q27 -198 -4 -179 L40 -88 Q93 -115 154 -115 Q220 -115 261 -81.5 Q302 -48 314 14 L327 81 Q267 18 185 18 Q112 18 73.5 63.5 Q35 109 35 194 Q35 288 63 370.5 Q91 453 148.5 504 Q206 555 290 555 Q337 555 369 534 Q401 513 416 474 L429 543 L536 543 Z M390 404 Q374 426 351 437.5 Q328 449 300 449 Q229 449 193 381 Q157 313 157 221 Q157 128 239 128 Q267 128 292.5 139.5 Q318 151 345 176 L390 404 Z M207 719 L513 719 L498 638 L192 638 L207 719 Z " />
<glyph glyph-name="uni0261" unicode="&#x261;" horiz-adv-x="556" d="M536 543 L431 5 Q410 -103 340 -161 Q270 -219 160 -219 Q112 -219 69.5 -208.5 Q27 -198 -4 -179 L40 -88 Q93 -115 154 -115 Q220 -115 261 -81.5 Q302 -48 314 14 L327 81 Q267 18 185 18 Q112 18 73.5 63.5 Q35 109 35 194 Q35 288 63 370.5 Q91 453 148.5 504 Q206 555 290 555 Q337 555 369 534 Q401 513 416 474 L429 543 L536 543 Z M390 404 Q374 426 351 437.5 Q328 449 300 449 Q229 449 193 381 Q157 313 157 221 Q157 128 239 128 Q267 128 292.5 139.5 Q318 151 345 176 L390 404 Z " />
<glyph glyph-name="h" unicode="h" horiz-adv-x="563" d="M386 555 Q451 555 486.5 521.5 Q522 488 522 427 Q522 408 517 381 L443 0 L324 0 L397 373 Q400 387 399 396 Q399 421 384 433 Q369 445 337 445 Q305 445 276 433.5 Q247 422 217 399 L139 0 L20 0 L170 770 L289 770 L236 497 Q306 555 386 555 Z " />
<glyph glyph-name="hbar" unicode="&#x127;" horiz-adv-x="565" d="M383 538 Q449 538 484 504 Q519 470 519 409 Q519 385 515 364 L444 0 L325 0 L395 357 Q397 373 397 379 Q397 405 381.5 417 Q366 429 334 429 Q301 429 272 417.5 Q243 406 213 383 L138 0 L19 0 L138 609 L77 609 L93 689 L154 689 L169 770 L288 770 L273 689 L469 689 L453 609 L257 609 L232 481 Q301 538 383 538 Z " />
<glyph glyph-name="uni1E2B" unicode="&#x1e2b;" horiz-adv-x="563" d="M386 555 Q451 555 486.5 521.5 Q522 488 522 427 Q522 408 517 381 L443 0 L324 0 L397 373 Q400 387 399 396 Q399 421 384 433 Q369 445 337 445 Q305 445 276 433.5 Q247 422 217 399 L139 0 L20 0 L170 770 L289 770 L236 497 Q306 555 386 555 Z M198 -225 Q135 -225 101 -190 Q67 -155 67 -96 Q67 -78 70 -60 L138 -64 Q136 -102 152 -120 Q168 -138 202 -138 Q239 -138 266 -118 Q293 -98 306 -60 L372 -64 Q354 -143 309.5 -184 Q265 -225 198 -225 Z " />
<glyph glyph-name="hcircumflex" unicode="&#x125;" horiz-adv-x="563" d="M158 827 L69 827 L70 839 L209 972 L325 972 L412 839 L411 827 L326 827 L258 910 L158 827 Z M386 555 Q451 555 486.5 521.5 Q522 488 522 427 Q522 408 517 381 L443 0 L324 0 L397 373 Q400 387 399 396 Q399 421 384 433 Q369 445 337 445 Q305 445 276 433.5 Q247 422 217 399 L139 0 L20 0 L170 770 L289 770 L236 497 Q306 555 386 555 Z " />
<glyph glyph-name="uni1E25" unicode="&#x1e25;" horiz-adv-x="563" d="M386 555 Q451 555 486.5 521.5 Q522 488 522 427 Q522 408 517 381 L443 0 L324 0 L397 373 Q400 387 399 396 Q399 421 384 433 Q369 445 337 445 Q305 445 276 433.5 Q247 422 217 399 L139 0 L20 0 L170 770 L289 770 L236 497 Q306 555 386 555 Z M198 -220 Q167 -220 150 -203.5 Q133 -187 133 -156 Q133 -121 154 -99 Q175 -77 211 -77 Q242 -77 258.5 -93.5 Q275 -110 275 -141 Q275 -176 254.5 -198 Q234 -220 198 -220 Z " />
<glyph glyph-name="i" unicode="i" horiz-adv-x="269" d="M128 543 L247 543 L141 0 L22 0 L128 543 Z M208 621 Q177 621 160.5 637 Q144 653 144 684 Q144 719 164.5 741 Q185 763 222 763 Q253 763 269.5 746.5 Q286 730 286 699 Q286 664 265.5 642.5 Q245 621 208 621 Z " />
<glyph glyph-name="dotlessi" unicode="&#x131;" horiz-adv-x="269" d="M128 543 L247 543 L141 0 L22 0 L128 543 Z " />
<glyph glyph-name="iacute" unicode="&#xed;" horiz-adv-x="269" d="M128 543 L247 543 L141 0 L22 0 L128 543 Z M138 625 L259 784 L386 784 L385 774 L229 615 L137 615 L138 625 Z " />
<glyph glyph-name="uni01D0" unicode="&#x1d0;" horiz-adv-x="269" d="M128 543 L247 543 L141 0 L22 0 L128 543 Z M387 784 L386 774 L258 615 L147 615 L79 774 L80 784 L158 784 L213 688 L305 784 L387 784 Z " />
<glyph glyph-name="icircumflex" unicode="&#xee;" horiz-adv-x="269" d="M128 543 L247 543 L141 0 L22 0 L128 543 Z M355 625 L354 615 L276 615 L221 711 L129 615 L47 615 L48 625 L177 784 L287 784 L355 625 Z " />
<glyph glyph-name="idieresis" unicode="&#xef;" horiz-adv-x="269" d="M122 625 Q95 625 80 640.5 Q65 656 65 684 Q65 716 83.5 737 Q102 758 134 758 Q162 758 177 742.5 Q192 727 192 698 Q192 665 173.5 645 Q155 625 122 625 Z M295 625 Q268 625 253 640.5 Q238 656 238 684 Q238 716 256.5 737 Q275 758 307 758 Q335 758 350 742.5 Q365 727 365 698 Q365 665 346.5 645 Q328 625 295 625 Z M128 543 L247 543 L141 0 L22 0 L128 543 Z " />
<glyph glyph-name="uni1ECB" unicode="&#x1ecb;" horiz-adv-x="269" d="M128 543 L247 543 L141 0 L22 0 L128 543 Z M208 621 Q177 621 160.5 637 Q144 653 144 684 Q144 719 164.5 741 Q185 763 222 763 Q253 763 269.5 746.5 Q286 730 286 699 Q286 664 265.5 642.5 Q245 621 208 621 Z M46 -220 Q15 -220 -2 -203.5 Q-19 -187 -19 -156 Q-19 -121 2 -99 Q23 -77 59 -77 Q90 -77 106.5 -93.5 Q123 -110 123 -141 Q123 -176 102.5 -198 Q82 -220 46 -220 Z " />
<glyph glyph-name="igrave" unicode="&#xec;" horiz-adv-x="269" d="M128 543 L247 543 L141 0 L22 0 L128 543 Z M94 774 L95 784 L213 784 L267 625 L266 615 L182 615 L94 774 Z " />
<glyph glyph-name="uni1EC9" unicode="&#x1ec9;" horiz-adv-x="269" d="M128 543 L247 543 L141 0 L22 0 L128 543 Z M162 617 L162 628 Q162 657 174 673 Q186 689 209 706 Q221 713 226.5 719 Q232 725 232 732 Q232 744 213 744 Q189 744 152 727 L131 785 Q178 812 237 812 Q328 812 328 741 Q328 713 315 698.5 Q302 684 277 668 Q257 656 247.5 646.5 Q238 637 238 620 L238 612 L162 617 Z " />
<glyph glyph-name="ij" unicode="&#x133;" horiz-adv-x="538" d="M128 543 L247 543 L141 0 L22 0 L128 543 Z M208 621 Q177 621 160.5 637 Q144 653 144 684 Q144 719 164.5 741 Q185 763 222 763 Q253 763 269.5 746.5 Q286 730 286 699 Q286 664 265.5 642.5 Q245 621 208 621 Z M127 -123 Q187 -103 220.5 -81.5 Q254 -60 272.5 -29.5 Q291 1 301 50 L397 543 L516 543 L417 38 Q403 -37 375 -84 Q347 -131 296 -163 Q245 -195 156 -224 L127 -123 Z M477 621 Q446 621 429.5 637 Q413 653 413 684 Q413 719 433.5 741 Q454 763 491 763 Q522 763 538.5 746.5 Q555 730 555 699 Q555 664 534.5 642.5 Q514 621 477 621 Z " />
<glyph glyph-name="imacron" unicode="&#x12b;" horiz-adv-x="269" d="M99 719 L342 719 L326 638 L83 638 L99 719 Z M128 543 L247 543 L141 0 L22 0 L128 543 Z " />
<glyph glyph-name="iogonek" unicode="&#x12f;" horiz-adv-x="269" d="M222 763 Q253 763 269.5 746.5 Q286 730 286 699 Q286 664 265.5 642.5 Q245 621 208 621 Q177 621 160.5 637 Q144 653 144 684 Q144 719 164.5 741 Q185 763 222 763 Z M141 0 Q102 -31 76.5 -63 Q51 -95 51 -121 Q51 -149 83 -149 Q109 -149 143 -132 L166 -199 Q142 -213 113 -219.5 Q84 -226 56 -226 Q6 -226 -22 -203.5 Q-50 -181 -50 -140 Q-50 -101 -25.5 -63.5 Q-1 -26 41 0 L22 0 L128 543 L247 543 L141 0 Z " />
<glyph glyph-name="itilde" unicode="&#x129;" horiz-adv-x="269" d="M264 616 Q236 616 221.5 626.5 Q207 637 195 655 Q186 667 179.5 672.5 Q173 678 163 678 Q145 678 129.5 660 Q114 642 107 614 L43 623 Q56 692 87 726.5 Q118 761 165 761 Q193 761 206.5 751 Q220 741 233 723 Q242 711 248.5 705.5 Q255 700 265 700 Q283 700 299 717 Q315 734 323 764 L387 755 Q373 685 341.5 650.5 Q310 616 264 616 Z M128 543 L247 543 L141 0 L22 0 L128 543 Z " />
<glyph glyph-name="j" unicode="j" horiz-adv-x="269" d="M-142 -123 Q-82 -103 -48.5 -81.5 Q-15 -60 3.5 -29.5 Q22 1 32 50 L128 543 L247 543 L148 38 Q134 -37 106 -84 Q78 -131 27 -163 Q-24 -195 -113 -224 L-142 -123 Z M208 621 Q177 621 160.5 637 Q144 653 144 684 Q144 719 164.5 741 Q185 763 222 763 Q253 763 269.5 746.5 Q286 730 286 699 Q286 664 265.5 642.5 Q245 621 208 621 Z " />
<glyph glyph-name="uni0237" unicode="&#x237;" horiz-adv-x="269" d="M-142 -123 Q-82 -103 -48.5 -81.5 Q-15 -60 3.5 -29.5 Q22 1 32 50 L128 543 L247 543 L148 38 Q134 -37 106 -84 Q78 -131 27 -163 Q-24 -195 -113 -224 L-142 -123 Z " />
<glyph glyph-name="jcircumflex" unicode="&#x135;" horiz-adv-x="269" d="M-142 -123 Q-82 -103 -48.5 -81.5 Q-15 -60 3.5 -29.5 Q22 1 32 50 L128 543 L247 543 L148 38 Q134 -37 106 -84 Q78 -131 27 -163 Q-24 -195 -113 -224 L-142 -123 Z M355 625 L354 615 L276 615 L221 711 L129 615 L47 615 L48 625 L177 784 L287 784 L355 625 Z " />
<glyph glyph-name="k" unicode="k" horiz-adv-x="534" d="M332 311 L471 0 L339 0 L242 224 L169 154 L139 0 L20 0 L170 770 L289 770 L199 308 L425 543 L566 543 L332 311 Z " />
<glyph glyph-name="kcommaaccent" unicode="&#x137;" horiz-adv-x="534" d="M332 311 L471 0 L339 0 L242 224 L169 154 L139 0 L20 0 L170 770 L289 770 L199 308 L425 543 L566 543 L332 311 Z M87 -233 Q117 -205 131.5 -178.5 Q146 -152 156 -106 Q159 -92 161 -65 L266 -74 Q266 -95 260 -125 Q250 -170 220.5 -207 Q191 -244 128 -285 L87 -233 Z " />
<glyph glyph-name="kgreenlandic" unicode="&#x138;" horiz-adv-x="534" d="M332 311 L471 0 L339 0 L242 224 L169 154 L139 0 L20 0 L126 543 L245 543 L199 308 L425 543 L566 543 L332 311 Z " />
<glyph glyph-name="l" unicode="l" horiz-adv-x="308" d="M163 -6 Q103 -6 72.5 19.5 Q42 45 42 95 Q42 115 46 132 L171 770 L290 770 L169 148 Q166 135 166 124 Q166 110 173.5 104.5 Q181 99 199 99 Q218 99 236 102 L233 3 Q200 -6 163 -6 Z " />
<glyph glyph-name="lacute" unicode="&#x13a;" horiz-adv-x="308" d="M160 839 L326 972 L465 972 L464 960 L263 827 L159 827 L160 839 Z M163 -6 Q103 -6 72.5 19.5 Q42 45 42 95 Q42 115 46 132 L171 770 L290 770 L169 148 Q166 135 166 124 Q166 110 173.5 104.5 Q181 99 199 99 Q218 99 236 102 L233 3 Q200 -6 163 -6 Z " />
<glyph glyph-name="lcaron" unicode="&#x13e;" horiz-adv-x="314" d="M110 -6 Q50 -6 20 20 Q-10 46 -10 96 Q-10 113 -7 132 L118 770 L237 770 L116 148 Q113 135 113 125 Q113 111 120.5 105 Q128 99 146 99 Q165 99 183 102 L180 3 Q147 -6 110 -6 Z M302 770 L403 770 L402 760 L326 546 L258 546 L302 770 Z " />
<glyph glyph-name="lcommaaccent" unicode="&#x13c;" horiz-adv-x="308" d="M163 -6 Q103 -6 72.5 19.5 Q42 45 42 95 Q42 115 46 132 L171 770 L290 770 L169 148 Q166 135 166 124 Q166 110 173.5 104.5 Q181 99 199 99 Q218 99 236 102 L233 3 Q200 -6 163 -6 Z M-22 -233 Q8 -205 22.5 -178.5 Q37 -152 47 -106 Q50 -92 52 -65 L157 -74 Q157 -95 151 -125 Q141 -170 111.5 -207 Q82 -244 19 -285 L-22 -233 Z " />
<glyph glyph-name="ldot" unicode="&#x140;" horiz-adv-x="378" d="M163 -6 Q103 -6 72.5 19.5 Q42 45 42 95 Q42 115 46 132 L171 770 L290 770 L169 148 Q166 135 166 124 Q166 110 173.5 104.5 Q181 99 199 99 Q218 99 236 102 L233 3 Q200 -6 163 -6 Z M341 334 Q310 334 293 350.5 Q276 367 276 398 Q276 432 297 454 Q318 476 354 476 Q385 476 401.5 459.5 Q418 443 418 412 Q418 377 397.5 355.5 Q377 334 341 334 Z " />
<glyph glyph-name="uni1E37" unicode="&#x1e37;" horiz-adv-x="308" d="M163 -6 Q103 -6 72.5 19.5 Q42 45 42 95 Q42 115 46 132 L171 770 L290 770 L169 148 Q166 135 166 124 Q166 110 173.5 104.5 Q181 99 199 99 Q218 99 236 102 L233 3 Q200 -6 163 -6 Z M84 -220 Q53 -220 36 -203.5 Q19 -187 19 -156 Q19 -121 40 -99 Q61 -77 97 -77 Q128 -77 144.5 -93.5 Q161 -110 161 -141 Q161 -176 140.5 -198 Q120 -220 84 -220 Z " />
<glyph glyph-name="uni1E39" unicode="&#x1e39;" horiz-adv-x="308" d="M140 935 L383 935 L367 854 L124 854 L140 935 Z M163 -6 Q103 -6 72.5 19.5 Q42 45 42 95 Q42 115 46 132 L171 770 L290 770 L169 148 Q166 135 166 124 Q166 110 173.5 104.5 Q181 99 199 99 Q218 99 236 102 L233 3 Q200 -6 163 -6 Z M84 -220 Q53 -220 36 -203.5 Q19 -187 19 -156 Q19 -121 40 -99 Q61 -77 97 -77 Q128 -77 144.5 -93.5 Q161 -110 161 -141 Q161 -176 140.5 -198 Q120 -220 84 -220 Z " />
<glyph glyph-name="uni1E3B" unicode="&#x1e3b;" horiz-adv-x="308" d="M163 -6 Q103 -6 72.5 19.5 Q42 45 42 95 Q42 115 46 132 L171 770 L290 770 L169 148 Q166 135 166 124 Q166 110 173.5 104.5 Q181 99 199 99 Q218 99 236 102 L233 3 Q200 -6 163 -6 Z M-21 -98 L222 -98 L206 -179 L-37 -179 L-21 -98 Z " />
<glyph glyph-name="lslash" unicode="&#x142;" horiz-adv-x="341" d="M192 148 Q189 135 189 125 Q189 111 196.5 105 Q204 99 222 99 Q241 99 259 102 L256 3 Q223 -6 186 -6 Q127 -6 96.5 19.5 Q66 45 66 95 Q66 115 70 132 L106 315 L31 271 L21 271 L38 365 L125 413 L194 770 L313 770 L258 489 L351 544 L361 544 L344 450 L239 391 L192 148 Z " />
<glyph glyph-name="m" unicode="m" horiz-adv-x="850" d="M677 555 Q740 555 774.5 521.5 Q809 488 809 427 Q809 408 804 381 L730 0 L611 0 L683 373 Q686 387 686 397 Q686 422 672 433.5 Q658 445 628 445 Q597 445 569.5 433.5 Q542 422 512 399 Q512 390 509 381 L435 0 L316 0 L389 373 Q392 387 392 397 Q392 422 377.5 433.5 Q363 445 333 445 Q302 445 275 433.5 Q248 422 216 399 L139 0 L20 0 L126 543 L232 543 L220 483 Q293 555 382 555 Q432 555 464 534.5 Q496 514 508 475 Q587 555 677 555 Z " />
<glyph glyph-name="uni1E43" unicode="&#x1e43;" horiz-adv-x="850" d="M677 555 Q740 555 774.5 521.5 Q809 488 809 427 Q809 408 804 381 L730 0 L611 0 L683 373 Q686 387 686 397 Q686 422 672 433.5 Q658 445 628 445 Q597 445 569.5 433.5 Q542 422 512 399 Q512 390 509 381 L435 0 L316 0 L389 373 Q392 387 392 397 Q392 422 377.5 433.5 Q363 445 333 445 Q302 445 275 433.5 Q248 422 216 399 L139 0 L20 0 L126 543 L232 543 L220 483 Q293 555 382 555 Q432 555 464 534.5 Q496 514 508 475 Q587 555 677 555 Z M339 -220 Q308 -220 291 -203.5 Q274 -187 274 -156 Q274 -121 295 -99 Q316 -77 352 -77 Q383 -77 399.5 -93.5 Q416 -110 416 -141 Q416 -176 395.5 -198 Q375 -220 339 -220 Z " />
<glyph glyph-name="n" unicode="n" horiz-adv-x="561" d="M385 555 Q449 555 484.5 521 Q520 487 520 427 Q520 408 515 381 L441 0 L322 0 L394 373 Q397 387 397 397 Q397 422 382 433.5 Q367 445 337 445 Q304 445 275.5 433.5 Q247 422 216 399 L139 0 L20 0 L126 543 L232 543 L220 483 Q295 555 385 555 Z " />
<glyph glyph-name="nacute" unicode="&#x144;" horiz-adv-x="561" d="M385 555 Q449 555 484.5 521 Q520 487 520 427 Q520 408 515 381 L441 0 L322 0 L394 373 Q397 387 397 397 Q397 422 382 433.5 Q367 445 337 445 Q304 445 275.5 433.5 Q247 422 216 399 L139 0 L20 0 L126 543 L232 543 L220 483 Q295 555 385 555 Z M288 625 L409 784 L536 784 L535 774 L379 615 L287 615 L288 625 Z " />
<glyph glyph-name="napostrophe" unicode="&#x149;" horiz-adv-x="561" d="M385 555 Q449 555 484.5 521 Q520 487 520 427 Q520 408 515 381 L441 0 L322 0 L394 373 Q397 387 397 397 Q397 422 382 433.5 Q367 445 337 445 Q304 445 275.5 433.5 Q247 422 216 399 L139 0 L20 0 L126 543 L232 543 L220 483 Q295 555 385 555 Z M-78 573 Q-40 607 -18 643 Q4 679 13 728 Q19 762 20 777 L123 768 Q118 730 114 710 Q103 656 67.5 612.5 Q32 569 -38 522 L-78 573 Z " />
<glyph glyph-name="ncaron" unicode="&#x148;" horiz-adv-x="561" d="M385 555 Q449 555 484.5 521 Q520 487 520 427 Q520 408 515 381 L441 0 L322 0 L394 373 Q397 387 397 397 Q397 422 382 433.5 Q367 445 337 445 Q304 445 275.5 433.5 Q247 422 216 399 L139 0 L20 0 L126 543 L232 543 L220 483 Q295 555 385 555 Z M537 784 L536 774 L408 615 L297 615 L229 774 L230 784 L308 784 L363 688 L455 784 L537 784 Z " />
<glyph glyph-name="ncommaaccent" unicode="&#x146;" horiz-adv-x="561" d="M385 555 Q449 555 484.5 521 Q520 487 520 427 Q520 408 515 381 L441 0 L322 0 L394 373 Q397 387 397 397 Q397 422 382 433.5 Q367 445 337 445 Q304 445 275.5 433.5 Q247 422 216 399 L139 0 L20 0 L126 543 L232 543 L220 483 Q295 555 385 555 Z M91 -233 Q121 -205 135.5 -178.5 Q150 -152 160 -106 Q163 -92 165 -65 L270 -74 Q270 -95 264 -125 Q254 -170 224.5 -207 Q195 -244 132 -285 L91 -233 Z " />
<glyph glyph-name="uni1E45" unicode="&#x1e45;" horiz-adv-x="561" d="M385 555 Q449 555 484.5 521 Q520 487 520 427 Q520 408 515 381 L441 0 L322 0 L394 373 Q397 387 397 397 Q397 422 382 433.5 Q367 445 337 445 Q304 445 275.5 433.5 Q247 422 216 399 L139 0 L20 0 L126 543 L232 543 L220 483 Q295 555 385 555 Z M358 621 Q327 621 310.5 637 Q294 653 294 684 Q294 719 314.5 741 Q335 763 372 763 Q403 763 419.5 746.5 Q436 730 436 699 Q436 664 415.5 642.5 Q395 621 358 621 Z " />
<glyph glyph-name="uni1E47" unicode="&#x1e47;" horiz-adv-x="561" d="M385 555 Q449 555 484.5 521 Q520 487 520 427 Q520 408 515 381 L441 0 L322 0 L394 373 Q397 387 397 397 Q397 422 382 433.5 Q367 445 337 445 Q304 445 275.5 433.5 Q247 422 216 399 L139 0 L20 0 L126 543 L232 543 L220 483 Q295 555 385 555 Z M197 -220 Q166 -220 149 -203.5 Q132 -187 132 -156 Q132 -121 153 -99 Q174 -77 210 -77 Q241 -77 257.5 -93.5 Q274 -110 274 -141 Q274 -176 253.5 -198 Q233 -220 197 -220 Z " />
<glyph glyph-name="uni1E49" unicode="&#x1e49;" horiz-adv-x="561" d="M385 555 Q449 555 484.5 521 Q520 487 520 427 Q520 408 515 381 L441 0 L322 0 L394 373 Q397 387 397 397 Q397 422 382 433.5 Q367 445 337 445 Q304 445 275.5 433.5 Q247 422 216 399 L139 0 L20 0 L126 543 L232 543 L220 483 Q295 555 385 555 Z M61 -100 L367 -100 L351 -181 L45 -181 L61 -100 Z " />
<glyph glyph-name="ntilde" unicode="&#xf1;" horiz-adv-x="561" d="M385 555 Q449 555 484.5 521 Q520 487 520 427 Q520 408 515 381 L441 0 L322 0 L394 373 Q397 387 397 397 Q397 422 382 433.5 Q367 445 337 445 Q304 445 275.5 433.5 Q247 422 216 399 L139 0 L20 0 L126 543 L232 543 L220 483 Q295 555 385 555 Z M178 623 Q193 692 224.5 726.5 Q256 761 302 761 Q329 761 348 751 Q367 741 386 724 Q400 712 408.5 706.5 Q417 701 428 701 Q446 701 461.5 717.5 Q477 734 486 764 L551 755 Q535 685 503 650.5 Q471 616 425 616 Q398 616 380 626 Q362 636 343 654 Q329 666 320.5 671.5 Q312 677 301 677 Q283 677 267.5 659.5 Q252 642 244 614 L178 623 Z " />
<glyph glyph-name="o" unicode="o" horiz-adv-x="537" d="M212 -12 Q126 -12 79 37.5 Q32 87 32 176 Q32 281 63.5 366.5 Q95 452 160.5 503.5 Q226 555 324 555 Q410 555 457.5 505 Q505 455 505 366 Q505 261 473.5 175.5 Q442 90 376 39 Q310 -12 212 -12 Z M233 92 Q283 92 317.5 130 Q352 168 368.5 227.5 Q385 287 385 349 Q385 450 304 450 Q254 450 219.5 412 Q185 374 168.5 315 Q152 256 152 194 Q152 92 233 92 Z " />
<glyph glyph-name="oacute" unicode="&#xf3;" horiz-adv-x="537" d="M212 -12 Q126 -12 79 37.5 Q32 87 32 176 Q32 281 63.5 366.5 Q95 452 160.5 503.5 Q226 555 324 555 Q410 555 457.5 505 Q505 455 505 366 Q505 261 473.5 175.5 Q442 90 376 39 Q310 -12 212 -12 Z M233 92 Q283 92 317.5 130 Q352 168 368.5 227.5 Q385 287 385 349 Q385 450 304 450 Q254 450 219.5 412 Q185 374 168.5 315 Q152 256 152 194 Q152 92 233 92 Z M273 625 L394 784 L521 784 L520 774 L364 615 L272 615 L273 625 Z " />
<glyph glyph-name="uni01D2" unicode="&#x1d2;" horiz-adv-x="537" d="M212 -12 Q126 -12 79 37.5 Q32 87 32 176 Q32 281 63.5 366.5 Q95 452 160.5 503.5 Q226 555 324 555 Q410 555 457.5 505 Q505 455 505 366 Q505 261 473.5 175.5 Q442 90 376 39 Q310 -12 212 -12 Z M233 92 Q283 92 317.5 130 Q352 168 368.5 227.5 Q385 287 385 349 Q385 450 304 450 Q254 450 219.5 412 Q185 374 168.5 315 Q152 256 152 194 Q152 92 233 92 Z M522 784 L521 774 L393 615 L282 615 L214 774 L215 784 L293 784 L348 688 L440 784 L522 784 Z " />
<glyph glyph-name="ocircumflex" unicode="&#xf4;" horiz-adv-x="537" d="M212 -12 Q126 -12 79 37.5 Q32 87 32 176 Q32 281 63.5 366.5 Q95 452 160.5 503.5 Q226 555 324 555 Q410 555 457.5 505 Q505 455 505 366 Q505 261 473.5 175.5 Q442 90 376 39 Q310 -12 212 -12 Z M233 92 Q283 92 317.5 130 Q352 168 368.5 227.5 Q385 287 385 349 Q385 450 304 450 Q254 450 219.5 412 Q185 374 168.5 315 Q152 256 152 194 Q152 92 233 92 Z M490 625 L489 615 L411 615 L356 711 L264 615 L182 615 L183 625 L312 784 L422 784 L490 625 Z " />
<glyph glyph-name="uni1ED1" unicode="&#x1ed1;" horiz-adv-x="537" d="M671 859 L670 849 L548 722 L469 722 L470 732 L566 859 L671 859 Z M261 615 L179 615 L180 625 L308 764 L418 764 L491 625 L490 615 L412 615 L353 700 L261 615 Z M324 555 Q410 555 457.5 505 Q505 455 505 366 Q505 261 473.5 175.5 Q442 90 376 39 Q310 -12 212 -12 Q126 -12 79 37.5 Q32 87 32 176 Q32 281 63.5 366.5 Q95 452 160.5 503.5 Q226 555 324 555 Z M233 92 Q283 92 317.5 130 Q352 168 368.5 227.5 Q385 287 385 349 Q385 450 304 450 Q254 450 219.5 412 Q185 374 168.5 315 Q152 256 152 194 Q152 92 233 92 Z " />
<glyph glyph-name="uni1ED9" unicode="&#x1ed9;" horiz-adv-x="537" d="M212 -12 Q126 -12 79 37.5 Q32 87 32 176 Q32 281 63.5 366.5 Q95 452 160.5 503.5 Q226 555 324 555 Q410 555 457.5 505 Q505 455 505 366 Q505 261 473.5 175.5 Q442 90 376 39 Q310 -12 212 -12 Z M233 92 Q283 92 317.5 130 Q352 168 368.5 227.5 Q385 287 385 349 Q385 450 304 450 Q254 450 219.5 412 Q185 374 168.5 315 Q152 256 152 194 Q152 92 233 92 Z M182 -220 Q151 -220 134 -203.5 Q117 -187 117 -156 Q117 -121 138 -99 Q159 -77 195 -77 Q226 -77 242.5 -93.5 Q259 -110 259 -141 Q259 -176 238.5 -198 Q218 -220 182 -220 Z M490 625 L489 615 L411 615 L356 711 L264 615 L182 615 L183 625 L312 784 L422 784 L490 625 Z " />
<glyph glyph-name="uni1ED3" unicode="&#x1ed3;" horiz-adv-x="537" d="M165 723 L98 850 L99 860 L197 860 L236 733 L235 723 L165 723 Z M180 625 L308 764 L418 764 L491 625 L490 615 L412 615 L353 700 L261 615 L179 615 L180 625 Z M324 555 Q410 555 457.5 505 Q505 455 505 366 Q505 261 473.5 175.5 Q442 90 376 39 Q310 -12 212 -12 Q126 -12 79 37.5 Q32 87 32 176 Q32 281 63.5 366.5 Q95 452 160.5 503.5 Q226 555 324 555 Z M233 92 Q283 92 317.5 130 Q352 168 368.5 227.5 Q385 287 385 349 Q385 450 304 450 Q254 450 219.5 412 Q185 374 168.5 315 Q152 256 152 194 Q152 92 233 92 Z " />
<glyph glyph-name="uni1ED5" unicode="&#x1ed5;" horiz-adv-x="537" d="M548 899 Q591 899 614.5 880.5 Q638 862 638 828 Q638 800 625 786.5 Q612 773 587 762 Q568 753 560 746 Q552 739 552 725 L552 721 L479 726 L479 733 Q479 763 491 776.5 Q503 790 523 800 Q534 806 539 810.5 Q544 815 544 822 Q544 834 527 834 Q500 834 468 818 L447 874 Q469 886 496 892.5 Q523 899 548 899 Z M261 615 L179 615 L180 625 L308 764 L418 764 L491 625 L490 615 L412 615 L353 700 L261 615 Z M324 555 Q410 555 457.5 505 Q505 455 505 366 Q505 261 473.5 175.5 Q442 90 376 39 Q310 -12 212 -12 Q126 -12 79 37.5 Q32 87 32 176 Q32 281 63.5 366.5 Q95 452 160.5 503.5 Q226 555 324 555 Z M233 92 Q283 92 317.5 130 Q352 168 368.5 227.5 Q385 287 385 349 Q385 450 304 450 Q254 450 219.5 412 Q185 374 168.5 315 Q152 256 152 194 Q152 92 233 92 Z " />
<glyph glyph-name="uni1ED7" unicode="&#x1ed7;" horiz-adv-x="537" d="M552 922 Q541 862 510.5 829.5 Q480 797 432 797 Q405 797 391 806 Q377 815 365 831 Q357 842 349.5 847.5 Q342 853 331 853 Q312 853 295.5 837.5 Q279 822 272 794 L213 803 Q238 929 333 929 Q360 929 374 920 Q388 911 401 895 Q411 883 417.5 878 Q424 873 435 873 Q454 873 470.5 888.5 Q487 904 494 931 L552 922 Z M261 615 L179 615 L180 625 L308 764 L418 764 L491 625 L490 615 L412 615 L353 700 L261 615 Z M324 555 Q410 555 457.5 505 Q505 455 505 366 Q505 261 473.5 175.5 Q442 90 376 39 Q310 -12 212 -12 Q126 -12 79 37.5 Q32 87 32 176 Q32 281 63.5 366.5 Q95 452 160.5 503.5 Q226 555 324 555 Z M233 92 Q283 92 317.5 130 Q352 168 368.5 227.5 Q385 287 385 349 Q385 450 304 450 Q254 450 219.5 412 Q185 374 168.5 315 Q152 256 152 194 Q152 92 233 92 Z " />
<glyph glyph-name="odieresis" unicode="&#xf6;" horiz-adv-x="537" d="M251 625 Q223 625 207.5 640.5 Q192 656 192 684 Q192 716 211.5 737 Q231 758 263 758 Q291 758 306.5 742 Q322 726 322 698 Q322 665 303 645 Q284 625 251 625 Z M437 625 Q409 625 393.5 640.5 Q378 656 378 684 Q378 716 397.5 737 Q417 758 449 758 Q477 758 492.5 742 Q508 726 508 698 Q508 665 489 645 Q470 625 437 625 Z M212 -12 Q126 -12 79 37.5 Q32 87 32 176 Q32 281 63.5 366.5 Q95 452 160.5 503.5 Q226 555 324 555 Q410 555 457.5 505 Q505 455 505 366 Q505 261 473.5 175.5 Q442 90 376 39 Q310 -12 212 -12 Z M233 92 Q283 92 317.5 130 Q352 168 368.5 227.5 Q385 287 385 349 Q385 450 304 450 Q254 450 219.5 412 Q185 374 168.5 315 Q152 256 152 194 Q152 92 233 92 Z " />
<glyph glyph-name="uni1ECD" unicode="&#x1ecd;" horiz-adv-x="537" d="M212 -12 Q126 -12 79 37.5 Q32 87 32 176 Q32 281 63.5 366.5 Q95 452 160.5 503.5 Q226 555 324 555 Q410 555 457.5 505 Q505 455 505 366 Q505 261 473.5 175.5 Q442 90 376 39 Q310 -12 212 -12 Z M233 92 Q283 92 317.5 130 Q352 168 368.5 227.5 Q385 287 385 349 Q385 450 304 450 Q254 450 219.5 412 Q185 374 168.5 315 Q152 256 152 194 Q152 92 233 92 Z M182 -220 Q151 -220 134 -203.5 Q117 -187 117 -156 Q117 -121 138 -99 Q159 -77 195 -77 Q226 -77 242.5 -93.5 Q259 -110 259 -141 Q259 -176 238.5 -198 Q218 -220 182 -220 Z " />
<glyph glyph-name="ograve" unicode="&#xf2;" horiz-adv-x="537" d="M212 -12 Q126 -12 79 37.5 Q32 87 32 176 Q32 281 63.5 366.5 Q95 452 160.5 503.5 Q226 555 324 555 Q410 555 457.5 505 Q505 455 505 366 Q505 261 473.5 175.5 Q442 90 376 39 Q310 -12 212 -12 Z M233 92 Q283 92 317.5 130 Q352 168 368.5 227.5 Q385 287 385 349 Q385 450 304 450 Q254 450 219.5 412 Q185 374 168.5 315 Q152 256 152 194 Q152 92 233 92 Z M229 774 L230 784 L348 784 L402 625 L401 615 L317 615 L229 774 Z " />
<glyph glyph-name="uni1ECF" unicode="&#x1ecf;" horiz-adv-x="537" d="M212 -12 Q126 -12 79 37.5 Q32 87 32 176 Q32 281 63.5 366.5 Q95 452 160.5 503.5 Q226 555 324 555 Q410 555 457.5 505 Q505 455 505 366 Q505 261 473.5 175.5 Q442 90 376 39 Q310 -12 212 -12 Z M233 92 Q283 92 317.5 130 Q352 168 368.5 227.5 Q385 287 385 349 Q385 450 304 450 Q254 450 219.5 412 Q185 374 168.5 315 Q152 256 152 194 Q152 92 233 92 Z M297 617 L297 628 Q297 657 309 673 Q321 689 344 706 Q356 713 361.5 719 Q367 725 367 732 Q367 744 348 744 Q324 744 287 727 L266 785 Q313 812 372 812 Q463 812 463 741 Q463 713 450 698.5 Q437 684 412 668 Q392 656 382.5 646.5 Q373 637 373 620 L373 612 L297 617 Z " />
<glyph glyph-name="ohorn" unicode="&#x1a1;" horiz-adv-x="540" d="M638 679 Q638 649 632 614 Q620 548 584.5 518 Q549 488 475 482 Q505 437 505 366 Q505 261 473.5 175.5 Q442 90 376 39 Q310 -12 212 -12 Q126 -12 79 37.5 Q32 87 32 176 Q32 281 63.5 366.5 Q95 452 160.5 503.5 Q226 555 324 555 Q348 555 378 549 Q406 543 431 543 Q481 543 503.5 563 Q526 583 536 631 Q541 663 542 686 L638 679 Z M233 92 Q283 92 317.5 130 Q352 168 368.5 227.5 Q385 287 385 349 Q385 450 304 450 Q254 450 219.5 412 Q185 374 168.5 315 Q152 256 152 194 Q152 92 233 92 Z " />
<glyph glyph-name="uni1EDB" unicode="&#x1edb;" horiz-adv-x="540" d="M638 679 Q638 649 632 614 Q620 548 584.5 518 Q549 488 475 482 Q505 437 505 366 Q505 261 473.5 175.5 Q442 90 376 39 Q310 -12 212 -12 Q126 -12 79 37.5 Q32 87 32 176 Q32 281 63.5 366.5 Q95 452 160.5 503.5 Q226 555 324 555 Q348 555 378 549 Q406 543 431 543 Q481 543 503.5 563 Q526 583 536 631 Q541 663 542 686 L638 679 Z M233 92 Q283 92 317.5 130 Q352 168 368.5 227.5 Q385 287 385 349 Q385 450 304 450 Q254 450 219.5 412 Q185 374 168.5 315 Q152 256 152 194 Q152 92 233 92 Z M273 625 L394 784 L521 784 L520 774 L364 615 L272 615 L273 625 Z " />
<glyph glyph-name="uni1EE3" unicode="&#x1ee3;" horiz-adv-x="540" d="M638 679 Q638 649 632 614 Q620 548 584.5 518 Q549 488 475 482 Q505 437 505 366 Q505 261 473.5 175.5 Q442 90 376 39 Q310 -12 212 -12 Q126 -12 79 37.5 Q32 87 32 176 Q32 281 63.5 366.5 Q95 452 160.5 503.5 Q226 555 324 555 Q348 555 378 549 Q406 543 431 543 Q481 543 503.5 563 Q526 583 536 631 Q541 663 542 686 L638 679 Z M233 92 Q283 92 317.5 130 Q352 168 368.5 227.5 Q385 287 385 349 Q385 450 304 450 Q254 450 219.5 412 Q185 374 168.5 315 Q152 256 152 194 Q152 92 233 92 Z M182 -220 Q151 -220 134 -203.5 Q117 -187 117 -156 Q117 -121 138 -99 Q159 -77 195 -77 Q226 -77 242.5 -93.5 Q259 -110 259 -141 Q259 -176 238.5 -198 Q218 -220 182 -220 Z " />
<glyph glyph-name="uni1EDD" unicode="&#x1edd;" horiz-adv-x="540" d="M638 679 Q638 649 632 614 Q620 548 584.5 518 Q549 488 475 482 Q505 437 505 366 Q505 261 473.5 175.5 Q442 90 376 39 Q310 -12 212 -12 Q126 -12 79 37.5 Q32 87 32 176 Q32 281 63.5 366.5 Q95 452 160.5 503.5 Q226 555 324 555 Q348 555 378 549 Q406 543 431 543 Q481 543 503.5 563 Q526 583 536 631 Q541 663 542 686 L638 679 Z M233 92 Q283 92 317.5 130 Q352 168 368.5 227.5 Q385 287 385 349 Q385 450 304 450 Q254 450 219.5 412 Q185 374 168.5 315 Q152 256 152 194 Q152 92 233 92 Z M229 774 L230 784 L348 784 L402 625 L401 615 L317 615 L229 774 Z " />
<glyph glyph-name="uni1EDF" unicode="&#x1edf;" horiz-adv-x="540" d="M638 679 Q638 649 632 614 Q620 548 584.5 518 Q549 488 475 482 Q505 437 505 366 Q505 261 473.5 175.5 Q442 90 376 39 Q310 -12 212 -12 Q126 -12 79 37.5 Q32 87 32 176 Q32 281 63.5 366.5 Q95 452 160.5 503.5 Q226 555 324 555 Q348 555 378 549 Q406 543 431 543 Q481 543 503.5 563 Q526 583 536 631 Q541 663 542 686 L638 679 Z M233 92 Q283 92 317.5 130 Q352 168 368.5 227.5 Q385 287 385 349 Q385 450 304 450 Q254 450 219.5 412 Q185 374 168.5 315 Q152 256 152 194 Q152 92 233 92 Z M297 617 L297 628 Q297 657 309 673 Q321 689 344 706 Q356 713 361.5 719 Q367 725 367 732 Q367 744 348 744 Q324 744 287 727 L266 785 Q313 812 372 812 Q463 812 463 741 Q463 713 450 698.5 Q437 684 412 668 Q392 656 382.5 646.5 Q373 637 373 620 L373 612 L297 617 Z " />
<glyph glyph-name="uni1EE1" unicode="&#x1ee1;" horiz-adv-x="540" d="M638 679 Q638 649 632 614 Q620 548 584.5 518 Q549 488 475 482 Q505 437 505 366 Q505 261 473.5 175.5 Q442 90 376 39 Q310 -12 212 -12 Q126 -12 79 37.5 Q32 87 32 176 Q32 281 63.5 366.5 Q95 452 160.5 503.5 Q226 555 324 555 Q348 555 378 549 Q406 543 431 543 Q481 543 503.5 563 Q526 583 536 631 Q541 663 542 686 L638 679 Z M233 92 Q283 92 317.5 130 Q352 168 368.5 227.5 Q385 287 385 349 Q385 450 304 450 Q254 450 219.5 412 Q185 374 168.5 315 Q152 256 152 194 Q152 92 233 92 Z M163 623 Q178 692 209.5 726.5 Q241 761 287 761 Q314 761 333 751 Q352 741 371 724 Q385 712 393.5 706.5 Q402 701 413 701 Q431 701 446.5 717.5 Q462 734 471 764 L536 755 Q520 685 488 650.5 Q456 616 410 616 Q383 616 365 626 Q347 636 328 654 Q314 666 305.5 671.5 Q297 677 286 677 Q268 677 252.5 659.5 Q237 642 229 614 L163 623 Z " />
<glyph glyph-name="ohungarumlaut" unicode="&#x151;" horiz-adv-x="537" d="M212 -12 Q126 -12 79 37.5 Q32 87 32 176 Q32 281 63.5 366.5 Q95 452 160.5 503.5 Q226 555 324 555 Q410 555 457.5 505 Q505 455 505 366 Q505 261 473.5 175.5 Q442 90 376 39 Q310 -12 212 -12 Z M233 92 Q283 92 317.5 130 Q352 168 368.5 227.5 Q385 287 385 349 Q385 450 304 450 Q254 450 219.5 412 Q185 374 168.5 315 Q152 256 152 194 Q152 92 233 92 Z M211 625 L295 784 L404 784 L403 774 L286 615 L210 615 L211 625 Z M360 625 L446 784 L555 784 L554 774 L435 615 L359 615 L360 625 Z " />
<glyph glyph-name="omacron" unicode="&#x14d;" horiz-adv-x="537" d="M212 -12 Q126 -12 79 37.5 Q32 87 32 176 Q32 281 63.5 366.5 Q95 452 160.5 503.5 Q226 555 324 555 Q410 555 457.5 505 Q505 455 505 366 Q505 261 473.5 175.5 Q442 90 376 39 Q310 -12 212 -12 Z M233 92 Q283 92 317.5 130 Q352 168 368.5 227.5 Q385 287 385 349 Q385 450 304 450 Q254 450 219.5 412 Q185 374 168.5 315 Q152 256 152 194 Q152 92 233 92 Z M202 719 L508 719 L493 638 L187 638 L202 719 Z " />
<glyph glyph-name="oslash" unicode="&#xf8;" horiz-adv-x="537" d="M579 543 L490 453 Q505 416 505 366 Q505 261 473.5 175.5 Q442 90 376 39 Q310 -12 212 -12 Q134 -12 87 30 L49 -10 L-43 -10 L-42 0 L47 89 Q32 127 32 176 Q32 281 63.5 366.5 Q95 452 160.5 503.5 Q226 555 324 555 Q404 555 450 512 L488 553 L580 553 L579 543 Z M305 455 Q253 455 217.5 417 Q182 379 165 319.5 Q148 260 147 195 L370 428 Q349 455 305 455 Z M232 88 Q284 88 319.5 126 Q355 164 372 224 Q389 284 389 348 L167 115 Q188 88 232 88 Z " />
<glyph glyph-name="otilde" unicode="&#xf5;" horiz-adv-x="537" d="M212 -12 Q126 -12 79 37.5 Q32 87 32 176 Q32 281 63.5 366.5 Q95 452 160.5 503.5 Q226 555 324 555 Q410 555 457.5 505 Q505 455 505 366 Q505 261 473.5 175.5 Q442 90 376 39 Q310 -12 212 -12 Z M233 92 Q283 92 317.5 130 Q352 168 368.5 227.5 Q385 287 385 349 Q385 450 304 450 Q254 450 219.5 412 Q185 374 168.5 315 Q152 256 152 194 Q152 92 233 92 Z M163 623 Q178 692 209.5 726.5 Q241 761 287 761 Q314 761 333 751 Q352 741 371 724 Q385 712 393.5 706.5 Q402 701 413 701 Q431 701 446.5 717.5 Q462 734 471 764 L536 755 Q520 685 488 650.5 Q456 616 410 616 Q383 616 365 626 Q347 636 328 654 Q314 666 305.5 671.5 Q297 677 286 677 Q268 677 252.5 659.5 Q237 642 229 614 L163 623 Z " />
<glyph glyph-name="oe" unicode="&#x153;" horiz-adv-x="833" d="M482 235 Q481 226 481 208 Q481 95 587 95 Q644 95 714 129 L748 40 Q663 -11 558 -11 Q501 -11 459 9.5 Q417 30 394 69 Q322 -13 210 -13 Q125 -13 78.5 35 Q32 83 32 175 Q32 279 64.5 365.5 Q97 452 162 503.5 Q227 555 321 555 Q375 555 412.5 533 Q450 511 470 470 Q508 510 558 532.5 Q608 555 668 555 Q739 555 782 515.5 Q825 476 825 411 Q825 362 799.5 321 Q774 280 730 259 Q704 246 670 240.5 Q636 235 584 235 L482 235 Z M648 452 Q599 452 560.5 414 Q522 376 500 317 L586 317 Q651 317 677 335 Q691 345 698.5 361 Q706 377 706 396 Q706 423 690.5 437.5 Q675 452 648 452 Z M230 92 Q279 92 312.5 130.5 Q346 169 362 228 Q378 287 378 351 Q378 450 300 450 Q251 450 218 412 Q185 374 168.5 315 Q152 256 152 193 Q152 92 230 92 Z " />
<glyph glyph-name="p" unicode="p" horiz-adv-x="553" d="M376 555 Q446 555 484 507.5 Q522 460 522 373 Q522 275 493.5 187 Q465 99 407 43.5 Q349 -12 264 -12 Q226 -12 196 4 Q166 20 149 49 L99 -207 L-20 -207 L126 543 L232 543 L219 477 Q285 555 376 555 Z M256 94 Q304 94 336.5 132 Q369 170 385 228 Q401 286 401 346 Q401 445 322 445 Q268 445 216 397 L166 137 Q182 116 205 105 Q228 94 256 94 Z " />
<glyph glyph-name="thorn" unicode="&#xfe;" horiz-adv-x="553" d="M376 555 Q446 555 484 507.5 Q522 460 522 373 Q522 275 493.5 187 Q465 99 407 43.5 Q349 -12 264 -12 Q226 -12 196 4 Q166 20 149 49 L99 -207 L-20 -207 L126 543 L170 770 L289 770 L236 495 Q296 555 376 555 Z M256 94 Q304 94 336.5 132 Q369 170 385 228 Q401 286 401 346 Q401 445 322 445 Q268 445 217 397 L166 137 Q182 116 205 105 Q228 94 256 94 Z " />
<glyph glyph-name="q" unicode="q" horiz-adv-x="553" d="M533 543 L388 -207 L269 -207 L318 49 Q258 -12 177 -12 Q107 -12 69 35.5 Q31 83 31 170 Q31 268 59.5 356 Q88 444 146 499.5 Q204 555 289 555 Q333 555 365.5 534 Q398 513 413 475 L426 543 L533 543 Z M231 98 Q259 98 284.5 109 Q310 120 337 145 L387 406 Q371 426 348 437.5 Q325 449 298 449 Q250 449 217 410.5 Q184 372 168 314 Q152 256 152 196 Q152 98 231 98 Z " />
<glyph glyph-name="r" unicode="r" horiz-adv-x="382" d="M362 553 Q397 553 425 538 L388 431 Q361 439 333 439 Q297 439 267.5 424 Q238 409 212 377 L139 0 L20 0 L126 543 L232 543 L217 467 Q279 553 362 553 Z " />
<glyph glyph-name="racute" unicode="&#x155;" horiz-adv-x="382" d="M362 553 Q397 553 425 538 L388 431 Q361 439 333 439 Q297 439 267.5 424 Q238 409 212 377 L139 0 L20 0 L126 543 L232 543 L217 467 Q279 553 362 553 Z M229 625 L350 784 L477 784 L476 774 L320 615 L228 615 L229 625 Z " />
<glyph glyph-name="rcaron" unicode="&#x159;" horiz-adv-x="382" d="M362 553 Q397 553 425 538 L388 431 Q361 439 333 439 Q297 439 267.5 424 Q238 409 212 377 L139 0 L20 0 L126 543 L232 543 L217 467 Q279 553 362 553 Z M478 784 L477 774 L349 615 L238 615 L170 774 L171 784 L249 784 L304 688 L396 784 L478 784 Z " />
<glyph glyph-name="rcommaaccent" unicode="&#x157;" horiz-adv-x="382" d="M362 553 Q397 553 425 538 L388 431 Q361 439 333 439 Q297 439 267.5 424 Q238 409 212 377 L139 0 L20 0 L126 543 L232 543 L217 467 Q279 553 362 553 Z M-62 -233 Q-32 -205 -17.5 -178.5 Q-3 -152 7 -106 Q10 -92 12 -65 L117 -74 Q117 -95 111 -125 Q101 -170 71.5 -207 Q42 -244 -21 -285 L-62 -233 Z " />
<glyph glyph-name="uni1E5B" unicode="&#x1e5b;" horiz-adv-x="382" d="M362 553 Q397 553 425 538 L388 431 Q361 439 333 439 Q297 439 267.5 424 Q238 409 212 377 L139 0 L20 0 L126 543 L232 543 L217 467 Q279 553 362 553 Z M44 -220 Q13 -220 -4 -203.5 Q-21 -187 -21 -156 Q-21 -121 0 -99 Q21 -77 57 -77 Q88 -77 104.5 -93.5 Q121 -110 121 -141 Q121 -176 100.5 -198 Q80 -220 44 -220 Z " />
<glyph glyph-name="uni1E5D" unicode="&#x1e5d;" horiz-adv-x="382" d="M417 638 L174 638 L190 719 L433 719 L417 638 Z M217 467 Q279 553 362 553 Q397 553 425 538 L388 431 Q361 439 333 439 Q297 439 267.5 424 Q238 409 212 377 L139 0 L20 0 L126 543 L232 543 L217 467 Z M57 -77 Q88 -77 104.5 -93.5 Q121 -110 121 -141 Q121 -176 100.5 -198 Q80 -220 44 -220 Q13 -220 -4 -203.5 Q-21 -187 -21 -156 Q-21 -121 0 -99 Q21 -77 57 -77 Z " />
<glyph glyph-name="uni1E5F" unicode="&#x1e5f;" horiz-adv-x="382" d="M362 553 Q397 553 425 538 L388 431 Q361 439 333 439 Q297 439 267.5 424 Q238 409 212 377 L139 0 L20 0 L126 543 L232 543 L217 467 Q279 553 362 553 Z M-61 -98 L182 -98 L166 -179 L-77 -179 L-61 -98 Z " />
<glyph glyph-name="s" unicode="s" horiz-adv-x="449" d="M161 -11 Q108 -11 61 3 Q14 17 -19 42 L36 137 Q98 92 178 92 Q229 92 257 111 Q285 130 285 167 Q285 185 272.5 197 Q260 209 232 216 L166 233 Q52 263 52 348 Q52 443 113.5 498.5 Q175 554 281 554 Q328 554 371 542 Q414 530 447 508 L391 415 Q328 451 262 451 Q167 451 167 383 Q167 365 179.5 354 Q192 343 221 335 L287 318 Q344 303 371.5 274 Q399 245 399 201 Q399 103 335.5 46 Q272 -11 161 -11 Z " />
<glyph glyph-name="sacute" unicode="&#x15b;" horiz-adv-x="449" d="M161 -11 Q108 -11 61 3 Q14 17 -19 42 L36 137 Q98 92 178 92 Q229 92 257 111 Q285 130 285 167 Q285 185 272.5 197 Q260 209 232 216 L166 233 Q52 263 52 348 Q52 443 113.5 498.5 Q175 554 281 554 Q328 554 371 542 Q414 530 447 508 L391 415 Q328 451 262 451 Q167 451 167 383 Q167 365 179.5 354 Q192 343 221 335 L287 318 Q344 303 371.5 274 Q399 245 399 201 Q399 103 335.5 46 Q272 -11 161 -11 Z M222 625 L343 784 L470 784 L469 774 L313 615 L221 615 L222 625 Z " />
<glyph glyph-name="scaron" unicode="&#x161;" horiz-adv-x="449" d="M161 -11 Q108 -11 61 3 Q14 17 -19 42 L36 137 Q98 92 178 92 Q229 92 257 111 Q285 130 285 167 Q285 185 272.5 197 Q260 209 232 216 L166 233 Q52 263 52 348 Q52 443 113.5 498.5 Q175 554 281 554 Q328 554 371 542 Q414 530 447 508 L391 415 Q328 451 262 451 Q167 451 167 383 Q167 365 179.5 354 Q192 343 221 335 L287 318 Q344 303 371.5 274 Q399 245 399 201 Q399 103 335.5 46 Q272 -11 161 -11 Z M471 784 L470 774 L342 615 L231 615 L163 774 L164 784 L242 784 L297 688 L389 784 L471 784 Z " />
<glyph glyph-name="scedilla" unicode="&#x15f;" horiz-adv-x="449" d="M287 318 Q344 303 371.5 274 Q399 245 399 201 Q399 111 345 55.5 Q291 0 196 -9 L156 -54 Q161 -53 172 -53 Q216 -53 240.5 -73.5 Q265 -94 265 -131 Q265 -179 225.5 -207.5 Q186 -236 125 -236 Q60 -236 14 -209 L35 -158 Q79 -174 110 -174 Q139 -174 156.5 -161 Q174 -148 174 -129 Q174 -105 145 -105 Q121 -105 101 -114 L76 -83 L119 -9 Q35 0 -19 42 L36 137 Q98 92 178 92 Q229 92 257 111 Q285 130 285 167 Q285 185 272.5 197 Q260 209 232 216 L166 233 Q52 263 52 348 Q52 443 113.5 498.5 Q175 554 281 554 Q328 554 371 542 Q414 530 447 508 L391 415 Q328 451 262 451 Q167 451 167 383 Q167 365 179.5 354 Q192 343 221 335 L287 318 Z " />
<glyph glyph-name="scircumflex" unicode="&#x15d;" horiz-adv-x="449" d="M161 -11 Q108 -11 61 3 Q14 17 -19 42 L36 137 Q98 92 178 92 Q229 92 257 111 Q285 130 285 167 Q285 185 272.5 197 Q260 209 232 216 L166 233 Q52 263 52 348 Q52 443 113.5 498.5 Q175 554 281 554 Q328 554 371 542 Q414 530 447 508 L391 415 Q328 451 262 451 Q167 451 167 383 Q167 365 179.5 354 Q192 343 221 335 L287 318 Q344 303 371.5 274 Q399 245 399 201 Q399 103 335.5 46 Q272 -11 161 -11 Z M439 625 L438 615 L360 615 L305 711 L213 615 L131 615 L132 625 L261 784 L371 784 L439 625 Z " />
<glyph glyph-name="scommaaccent" unicode="&#x219;" horiz-adv-x="449" d="M161 -11 Q108 -11 61 3 Q14 17 -19 42 L36 137 Q98 92 178 92 Q229 92 257 111 Q285 130 285 167 Q285 185 272.5 197 Q260 209 232 216 L166 233 Q52 263 52 348 Q52 443 113.5 498.5 Q175 554 281 554 Q328 554 371 542 Q414 530 447 508 L391 415 Q328 451 262 451 Q167 451 167 383 Q167 365 179.5 354 Q192 343 221 335 L287 318 Q344 303 371.5 274 Q399 245 399 201 Q399 103 335.5 46 Q272 -11 161 -11 Z M28 -233 Q58 -205 72.5 -178.5 Q87 -152 97 -106 Q100 -92 102 -65 L207 -74 Q207 -95 201 -125 Q191 -170 161.5 -207 Q132 -244 69 -285 L28 -233 Z " />
<glyph glyph-name="uni1E61" unicode="&#x1e61;" horiz-adv-x="449" d="M161 -11 Q108 -11 61 3 Q14 17 -19 42 L36 137 Q98 92 178 92 Q229 92 257 111 Q285 130 285 167 Q285 185 272.5 197 Q260 209 232 216 L166 233 Q52 263 52 348 Q52 443 113.5 498.5 Q175 554 281 554 Q328 554 371 542 Q414 530 447 508 L391 415 Q328 451 262 451 Q167 451 167 383 Q167 365 179.5 354 Q192 343 221 335 L287 318 Q344 303 371.5 274 Q399 245 399 201 Q399 103 335.5 46 Q272 -11 161 -11 Z M292 621 Q261 621 244.5 637 Q228 653 228 684 Q228 719 248.5 741 Q269 763 306 763 Q337 763 353.5 746.5 Q370 730 370 699 Q370 664 349.5 642.5 Q329 621 292 621 Z " />
<glyph glyph-name="uni1E63" unicode="&#x1e63;" horiz-adv-x="449" d="M161 -11 Q108 -11 61 3 Q14 17 -19 42 L36 137 Q98 92 178 92 Q229 92 257 111 Q285 130 285 167 Q285 185 272.5 197 Q260 209 232 216 L166 233 Q52 263 52 348 Q52 443 113.5 498.5 Q175 554 281 554 Q328 554 371 542 Q414 530 447 508 L391 415 Q328 451 262 451 Q167 451 167 383 Q167 365 179.5 354 Q192 343 221 335 L287 318 Q344 303 371.5 274 Q399 245 399 201 Q399 103 335.5 46 Q272 -11 161 -11 Z M134 -220 Q103 -220 86 -203.5 Q69 -187 69 -156 Q69 -121 90 -99 Q111 -77 147 -77 Q178 -77 194.5 -93.5 Q211 -110 211 -141 Q211 -176 190.5 -198 Q170 -220 134 -220 Z " />
<glyph glyph-name="germandbls" unicode="&#xdf;" horiz-adv-x="584" d="M410 422 Q539 389 539 264 Q539 186 509 124.5 Q479 63 421 28.5 Q363 -6 281 -6 Q238 -6 194 8 L225 103 Q258 93 297 93 Q362 93 394 133 Q426 173 426 238 Q426 293 390 320.5 Q354 348 277 353 L295 443 Q430 500 430 621 Q430 680 367 680 Q272 680 246 552 L139 0 L20 0 L128 553 Q149 663 216 723 Q283 783 383 783 Q459 783 500.5 747 Q542 711 542 646 Q542 494 410 422 Z " />
<glyph glyph-name="uni0259" unicode="&#x259;" horiz-adv-x="506" d="M279 554 Q374 554 425.5 502.5 Q477 451 477 355 Q477 259 440 174.5 Q403 90 333 39 Q263 -12 169 -12 Q96 -12 52 27.5 Q8 67 8 132 Q8 181 33.5 222 Q59 263 103 284 Q129 297 163 302.5 Q197 308 249 308 L359 308 Q360 317 360 335 Q360 448 250 448 Q187 448 119 413 L85 502 Q170 554 279 554 Z M189 91 Q239 91 278.5 129 Q318 167 340 226 L247 226 Q182 226 156 208 Q142 198 134.5 182 Q127 166 127 147 Q127 120 143 105.5 Q159 91 189 91 Z " />
<glyph glyph-name="t" unicode="t" horiz-adv-x="376" d="M222 -7 Q66 -7 66 119 Q66 146 71 168 L124 442 L43 442 L62 543 L144 543 L173 694 L292 694 L262 543 L407 543 L388 442 L243 442 L192 180 Q188 163 188 146 Q188 120 201.5 109 Q215 98 245 98 Q273 98 308 106 L314 6 Q271 -7 222 -7 Z " />
<glyph glyph-name="tcaron" unicode="&#x165;" horiz-adv-x="376" d="M356 771 L456 771 L454 761 L397 594 L321 594 L356 771 Z M222 -7 Q66 -7 66 119 Q66 146 71 168 L124 442 L43 442 L62 543 L144 543 L173 694 L292 694 L262 543 L407 543 L388 442 L243 442 L192 180 Q188 163 188 146 Q188 120 201.5 109 Q215 98 245 98 Q273 98 308 106 L314 6 Q271 -7 222 -7 Z " />
<glyph glyph-name="uni0163" unicode="&#x163;" horiz-adv-x="376" d="M192 180 Q188 163 188 146 Q188 120 201.5 109 Q215 98 245 98 Q273 98 308 106 L314 6 Q271 -7 222 -7 Q208 -7 202 -6 L159 -54 Q164 -53 175 -53 Q219 -53 243.5 -73.5 Q268 -94 268 -131 Q268 -179 228.5 -207.5 Q189 -236 128 -236 Q63 -236 17 -209 L38 -158 Q82 -174 113 -174 Q142 -174 159.5 -161 Q177 -148 177 -129 Q177 -105 148 -105 Q124 -105 104 -114 L79 -83 L132 9 Q66 38 66 119 Q66 138 71 168 L124 442 L43 442 L62 543 L144 543 L173 694 L292 694 L262 543 L407 543 L388 442 L243 442 L192 180 Z " />
<glyph glyph-name="uni021B" unicode="&#x21b;" horiz-adv-x="376" d="M222 -7 Q66 -7 66 119 Q66 146 71 168 L124 442 L43 442 L62 543 L144 543 L173 694 L292 694 L262 543 L407 543 L388 442 L243 442 L192 180 Q188 163 188 146 Q188 120 201.5 109 Q215 98 245 98 Q273 98 308 106 L314 6 Q271 -7 222 -7 Z M31 -233 Q61 -205 75.5 -178.5 Q90 -152 100 -106 Q103 -92 105 -65 L210 -74 Q210 -95 204 -125 Q194 -170 164.5 -207 Q135 -244 72 -285 L31 -233 Z " />
<glyph glyph-name="uni1E97" unicode="&#x1e97;" horiz-adv-x="376" d="M174 745 Q146 745 130.5 760.5 Q115 776 115 804 Q115 836 134.5 857 Q154 878 186 878 Q214 878 229.5 862 Q245 846 245 818 Q245 785 226 765 Q207 745 174 745 Z M360 745 Q332 745 316.5 760.5 Q301 776 301 804 Q301 836 320.5 857 Q340 878 372 878 Q400 878 415.5 862 Q431 846 431 818 Q431 785 412 765 Q393 745 360 745 Z M222 -7 Q66 -7 66 119 Q66 146 71 168 L124 442 L43 442 L62 543 L144 543 L173 694 L292 694 L262 543 L407 543 L388 442 L243 442 L192 180 Q188 163 188 146 Q188 120 201.5 109 Q215 98 245 98 Q273 98 308 106 L314 6 Q271 -7 222 -7 Z " />
<glyph glyph-name="uni1E6D" unicode="&#x1e6d;" horiz-adv-x="376" d="M222 -7 Q66 -7 66 119 Q66 146 71 168 L124 442 L43 442 L62 543 L144 543 L173 694 L292 694 L262 543 L407 543 L388 442 L243 442 L192 180 Q188 163 188 146 Q188 120 201.5 109 Q215 98 245 98 Q273 98 308 106 L314 6 Q271 -7 222 -7 Z M137 -220 Q106 -220 89 -203.5 Q72 -187 72 -156 Q72 -121 93 -99 Q114 -77 150 -77 Q181 -77 197.5 -93.5 Q214 -110 214 -141 Q214 -176 193.5 -198 Q173 -220 137 -220 Z " />
<glyph glyph-name="uni1E6F" unicode="&#x1e6f;" horiz-adv-x="376" d="M222 -7 Q66 -7 66 119 Q66 146 71 168 L124 442 L43 442 L62 543 L144 543 L173 694 L292 694 L262 543 L407 543 L388 442 L243 442 L192 180 Q188 163 188 146 Q188 120 201.5 109 Q215 98 245 98 Q273 98 308 106 L314 6 Q271 -7 222 -7 Z M32 -98 L275 -98 L259 -179 L16 -179 L32 -98 Z " />
<glyph glyph-name="u" unicode="u" horiz-adv-x="553" d="M533 543 L428 0 L322 0 L334 66 Q267 -12 173 -12 Q109 -12 74.5 21.5 Q40 55 40 115 Q40 134 45 162 L119 543 L238 543 L165 170 Q162 157 162 146 Q162 121 177 109.5 Q192 98 222 98 Q255 98 283 111.5 Q311 125 338 153 L414 543 L533 543 Z " />
<glyph glyph-name="uacute" unicode="&#xfa;" horiz-adv-x="553" d="M533 543 L428 0 L322 0 L334 66 Q267 -12 173 -12 Q109 -12 74.5 21.5 Q40 55 40 115 Q40 134 45 162 L119 543 L238 543 L165 170 Q162 157 162 146 Q162 121 177 109.5 Q192 98 222 98 Q255 98 283 111.5 Q311 125 338 153 L414 543 L533 543 Z M278 625 L399 784 L526 784 L525 774 L369 615 L277 615 L278 625 Z " />
<glyph glyph-name="ubreve" unicode="&#x16d;" horiz-adv-x="553" d="M533 543 L428 0 L322 0 L334 66 Q267 -12 173 -12 Q109 -12 74.5 21.5 Q40 55 40 115 Q40 134 45 162 L119 543 L238 543 L165 170 Q162 157 162 146 Q162 121 177 109.5 Q192 98 222 98 Q255 98 283 111.5 Q311 125 338 153 L414 543 L533 543 Z M349 612 Q286 612 252 647 Q218 682 218 741 Q218 759 221 777 L289 773 Q287 735 303 717 Q319 699 353 699 Q390 699 417 719 Q444 739 457 777 L523 773 Q505 694 460.5 653 Q416 612 349 612 Z " />
<glyph glyph-name="uni01D4" unicode="&#x1d4;" horiz-adv-x="553" d="M533 543 L428 0 L322 0 L334 66 Q267 -12 173 -12 Q109 -12 74.5 21.5 Q40 55 40 115 Q40 134 45 162 L119 543 L238 543 L165 170 Q162 157 162 146 Q162 121 177 109.5 Q192 98 222 98 Q255 98 283 111.5 Q311 125 338 153 L414 543 L533 543 Z M527 784 L526 774 L398 615 L287 615 L219 774 L220 784 L298 784 L353 688 L445 784 L527 784 Z " />
<glyph glyph-name="ucircumflex" unicode="&#xfb;" horiz-adv-x="553" d="M533 543 L428 0 L322 0 L334 66 Q267 -12 173 -12 Q109 -12 74.5 21.5 Q40 55 40 115 Q40 134 45 162 L119 543 L238 543 L165 170 Q162 157 162 146 Q162 121 177 109.5 Q192 98 222 98 Q255 98 283 111.5 Q311 125 338 153 L414 543 L533 543 Z M495 625 L494 615 L416 615 L361 711 L269 615 L187 615 L188 625 L317 784 L427 784 L495 625 Z " />
<glyph glyph-name="udieresis" unicode="&#xfc;" horiz-adv-x="553" d="M256 625 Q228 625 212.5 640.5 Q197 656 197 684 Q197 716 216.5 737 Q236 758 268 758 Q296 758 311.5 742 Q327 726 327 698 Q327 665 308 645 Q289 625 256 625 Z M442 625 Q414 625 398.5 640.5 Q383 656 383 684 Q383 716 402.5 737 Q422 758 454 758 Q482 758 497.5 742 Q513 726 513 698 Q513 665 494 645 Q475 625 442 625 Z M533 543 L428 0 L322 0 L334 66 Q267 -12 173 -12 Q109 -12 74.5 21.5 Q40 55 40 115 Q40 134 45 162 L119 543 L238 543 L165 170 Q162 157 162 146 Q162 121 177 109.5 Q192 98 222 98 Q255 98 283 111.5 Q311 125 338 153 L414 543 L533 543 Z " />
<glyph glyph-name="uni01D8" unicode="&#x1d8;" horiz-adv-x="553" d="M404 782 L325 782 L326 792 L422 919 L527 919 L526 909 L404 782 Z M256 625 Q228 625 212.5 640.5 Q197 656 197 684 Q197 716 216.5 737 Q236 758 268 758 Q296 758 311.5 742 Q327 726 327 698 Q327 665 308 645 Q289 625 256 625 Z M383 684 Q383 716 402.5 737 Q422 758 454 758 Q482 758 497.5 742 Q513 726 513 698 Q513 665 494 645 Q475 625 442 625 Q414 625 398.5 640.5 Q383 656 383 684 Z M533 543 L428 0 L322 0 L334 66 Q267 -12 173 -12 Q109 -12 74.5 21.5 Q40 55 40 115 Q40 134 45 162 L119 543 L238 543 L165 170 Q162 157 162 146 Q162 121 177 109.5 Q192 98 222 98 Q255 98 283 111.5 Q311 125 338 153 L414 543 L533 543 Z " />
<glyph glyph-name="uni01DA" unicode="&#x1da;" horiz-adv-x="553" d="M556 926 L555 916 L427 777 L317 777 L244 916 L245 926 L323 926 L382 841 L474 926 L556 926 Z M256 625 Q228 625 212.5 640.5 Q197 656 197 684 Q197 716 216.5 737 Q236 758 268 758 Q296 758 311.5 742 Q327 726 327 698 Q327 665 308 645 Q289 625 256 625 Z M513 698 Q513 665 494 645 Q475 625 442 625 Q414 625 398.5 640.5 Q383 656 383 684 Q383 716 402.5 737 Q422 758 454 758 Q482 758 497.5 742 Q513 726 513 698 Z M414 543 L533 543 L428 0 L322 0 L334 66 Q267 -12 173 -12 Q109 -12 74.5 21.5 Q40 55 40 115 Q40 134 45 162 L119 543 L238 543 L165 170 Q162 157 162 146 Q162 121 177 109.5 Q192 98 222 98 Q255 98 283 111.5 Q311 125 338 153 L414 543 Z " />
<glyph glyph-name="uni01DC" unicode="&#x1dc;" horiz-adv-x="553" d="M341 783 L274 910 L275 920 L373 920 L412 793 L411 783 L341 783 Z M256 625 Q228 625 212.5 640.5 Q197 656 197 684 Q197 716 216.5 737 Q236 758 268 758 Q296 758 311.5 742 Q327 726 327 698 Q327 665 308 645 Q289 625 256 625 Z M383 684 Q383 716 402.5 737 Q422 758 454 758 Q482 758 497.5 742 Q513 726 513 698 Q513 665 494 645 Q475 625 442 625 Q414 625 398.5 640.5 Q383 656 383 684 Z M533 543 L428 0 L322 0 L334 66 Q267 -12 173 -12 Q109 -12 74.5 21.5 Q40 55 40 115 Q40 134 45 162 L119 543 L238 543 L165 170 Q162 157 162 146 Q162 121 177 109.5 Q192 98 222 98 Q255 98 283 111.5 Q311 125 338 153 L414 543 L533 543 Z " />
<glyph glyph-name="uni01D6" unicode="&#x1d6;" horiz-adv-x="553" d="M528 797 L222 797 L237 878 L543 878 L528 797 Z M256 625 Q228 625 212.5 640.5 Q197 656 197 684 Q197 716 216.5 737 Q236 758 268 758 Q296 758 311.5 742 Q327 726 327 698 Q327 665 308 645 Q289 625 256 625 Z M383 684 Q383 716 402.5 737 Q422 758 454 758 Q482 758 497.5 742 Q513 726 513 698 Q513 665 494 645 Q475 625 442 625 Q414 625 398.5 640.5 Q383 656 383 684 Z M414 543 L533 543 L428 0 L322 0 L334 66 Q267 -12 173 -12 Q109 -12 74.5 21.5 Q40 55 40 115 Q40 134 45 162 L119 543 L238 543 L165 170 Q162 157 162 146 Q162 121 177 109.5 Q192 98 222 98 Q255 98 283 111.5 Q311 125 338 153 L414 543 Z " />
<glyph glyph-name="uni1EE5" unicode="&#x1ee5;" horiz-adv-x="553" d="M533 543 L428 0 L322 0 L334 66 Q267 -12 173 -12 Q109 -12 74.5 21.5 Q40 55 40 115 Q40 134 45 162 L119 543 L238 543 L165 170 Q162 157 162 146 Q162 121 177 109.5 Q192 98 222 98 Q255 98 283 111.5 Q311 125 338 153 L414 543 L533 543 Z M188 -220 Q157 -220 140 -203.5 Q123 -187 123 -156 Q123 -121 144 -99 Q165 -77 201 -77 Q232 -77 248.5 -93.5 Q265 -110 265 -141 Q265 -176 244.5 -198 Q224 -220 188 -220 Z " />
<glyph glyph-name="ugrave" unicode="&#xf9;" horiz-adv-x="553" d="M533 543 L428 0 L322 0 L334 66 Q267 -12 173 -12 Q109 -12 74.5 21.5 Q40 55 40 115 Q40 134 45 162 L119 543 L238 543 L165 170 Q162 157 162 146 Q162 121 177 109.5 Q192 98 222 98 Q255 98 283 111.5 Q311 125 338 153 L414 543 L533 543 Z M234 774 L235 784 L353 784 L407 625 L406 615 L322 615 L234 774 Z " />
<glyph glyph-name="uni1EE7" unicode="&#x1ee7;" horiz-adv-x="553" d="M533 543 L428 0 L322 0 L334 66 Q267 -12 173 -12 Q109 -12 74.5 21.5 Q40 55 40 115 Q40 134 45 162 L119 543 L238 543 L165 170 Q162 157 162 146 Q162 121 177 109.5 Q192 98 222 98 Q255 98 283 111.5 Q311 125 338 153 L414 543 L533 543 Z M302 617 L302 628 Q302 657 314 673 Q326 689 349 706 Q361 713 366.5 719 Q372 725 372 732 Q372 744 353 744 Q329 744 292 727 L271 785 Q318 812 377 812 Q468 812 468 741 Q468 713 455 698.5 Q442 684 417 668 Q397 656 387.5 646.5 Q378 637 378 620 L378 612 L302 617 Z " />
<glyph glyph-name="uhorn" unicode="&#x1b0;" horiz-adv-x="553" d="M667 680 Q667 654 660 614 Q649 551 617.5 519.5 Q586 488 521 480 L428 0 L322 0 L334 66 Q267 -12 173 -12 Q109 -12 74.5 21.5 Q40 55 40 115 Q40 134 45 162 L119 543 L238 543 L165 170 Q162 157 162 146 Q162 121 177 109.5 Q192 98 222 98 Q255 98 283 111.5 Q311 125 338 153 L414 543 L464 543 Q511 543 533 563 Q555 583 564 631 Q569 653 570 686 L667 680 Z " />
<glyph glyph-name="uni1EE9" unicode="&#x1ee9;" horiz-adv-x="553" d="M667 680 Q667 654 660 614 Q649 551 617.5 519.5 Q586 488 521 480 L428 0 L322 0 L334 66 Q267 -12 173 -12 Q109 -12 74.5 21.5 Q40 55 40 115 Q40 134 45 162 L119 543 L238 543 L165 170 Q162 157 162 146 Q162 121 177 109.5 Q192 98 222 98 Q255 98 283 111.5 Q311 125 338 153 L414 543 L464 543 Q511 543 533 563 Q555 583 564 631 Q569 653 570 686 L667 680 Z M278 625 L399 784 L526 784 L525 774 L369 615 L277 615 L278 625 Z " />
<glyph glyph-name="uni1EF1" unicode="&#x1ef1;" horiz-adv-x="553" d="M667 680 Q667 654 660 614 Q649 551 617.5 519.5 Q586 488 521 480 L428 0 L322 0 L334 66 Q267 -12 173 -12 Q109 -12 74.5 21.5 Q40 55 40 115 Q40 134 45 162 L119 543 L238 543 L165 170 Q162 157 162 146 Q162 121 177 109.5 Q192 98 222 98 Q255 98 283 111.5 Q311 125 338 153 L414 543 L464 543 Q511 543 533 563 Q555 583 564 631 Q569 653 570 686 L667 680 Z M188 -220 Q157 -220 140 -203.5 Q123 -187 123 -156 Q123 -121 144 -99 Q165 -77 201 -77 Q232 -77 248.5 -93.5 Q265 -110 265 -141 Q265 -176 244.5 -198 Q224 -220 188 -220 Z " />
<glyph glyph-name="uni1EEB" unicode="&#x1eeb;" horiz-adv-x="553" d="M667 680 Q667 654 660 614 Q649 551 617.5 519.5 Q586 488 521 480 L428 0 L322 0 L334 66 Q267 -12 173 -12 Q109 -12 74.5 21.5 Q40 55 40 115 Q40 134 45 162 L119 543 L238 543 L165 170 Q162 157 162 146 Q162 121 177 109.5 Q192 98 222 98 Q255 98 283 111.5 Q311 125 338 153 L414 543 L464 543 Q511 543 533 563 Q555 583 564 631 Q569 653 570 686 L667 680 Z M234 774 L235 784 L353 784 L407 625 L406 615 L322 615 L234 774 Z " />
<glyph glyph-name="uni1EED" unicode="&#x1eed;" horiz-adv-x="553" d="M667 680 Q667 654 660 614 Q649 551 617.5 519.5 Q586 488 521 480 L428 0 L322 0 L334 66 Q267 -12 173 -12 Q109 -12 74.5 21.5 Q40 55 40 115 Q40 134 45 162 L119 543 L238 543 L165 170 Q162 157 162 146 Q162 121 177 109.5 Q192 98 222 98 Q255 98 283 111.5 Q311 125 338 153 L414 543 L464 543 Q511 543 533 563 Q555 583 564 631 Q569 653 570 686 L667 680 Z M302 617 L302 628 Q302 657 314 673 Q326 689 349 706 Q361 713 366.5 719 Q372 725 372 732 Q372 744 353 744 Q329 744 292 727 L271 785 Q318 812 377 812 Q468 812 468 741 Q468 713 455 698.5 Q442 684 417 668 Q397 656 387.5 646.5 Q378 637 378 620 L378 612 L302 617 Z " />
<glyph glyph-name="uni1EEF" unicode="&#x1eef;" horiz-adv-x="553" d="M667 680 Q667 654 660 614 Q649 551 617.5 519.5 Q586 488 521 480 L428 0 L322 0 L334 66 Q267 -12 173 -12 Q109 -12 74.5 21.5 Q40 55 40 115 Q40 134 45 162 L119 543 L238 543 L165 170 Q162 157 162 146 Q162 121 177 109.5 Q192 98 222 98 Q255 98 283 111.5 Q311 125 338 153 L414 543 L464 543 Q511 543 533 563 Q555 583 564 631 Q569 653 570 686 L667 680 Z M168 623 Q183 692 214.5 726.5 Q246 761 292 761 Q319 761 338 751 Q357 741 376 724 Q390 712 398.5 706.5 Q407 701 418 701 Q436 701 451.5 717.5 Q467 734 476 764 L541 755 Q525 685 493 650.5 Q461 616 415 616 Q388 616 370 626 Q352 636 333 654 Q319 666 310.5 671.5 Q302 677 291 677 Q273 677 257.5 659.5 Q242 642 234 614 L168 623 Z " />
<glyph glyph-name="uhungarumlaut" unicode="&#x171;" horiz-adv-x="553" d="M533 543 L428 0 L322 0 L334 66 Q267 -12 173 -12 Q109 -12 74.5 21.5 Q40 55 40 115 Q40 134 45 162 L119 543 L238 543 L165 170 Q162 157 162 146 Q162 121 177 109.5 Q192 98 222 98 Q255 98 283 111.5 Q311 125 338 153 L414 543 L533 543 Z M216 625 L300 784 L409 784 L408 774 L291 615 L215 615 L216 625 Z M365 625 L451 784 L560 784 L559 774 L440 615 L364 615 L365 625 Z " />
<glyph glyph-name="umacron" unicode="&#x16b;" horiz-adv-x="553" d="M533 543 L428 0 L322 0 L334 66 Q267 -12 173 -12 Q109 -12 74.5 21.5 Q40 55 40 115 Q40 134 45 162 L119 543 L238 543 L165 170 Q162 157 162 146 Q162 121 177 109.5 Q192 98 222 98 Q255 98 283 111.5 Q311 125 338 153 L414 543 L533 543 Z M207 719 L513 719 L498 638 L192 638 L207 719 Z " />
<glyph glyph-name="uogonek" unicode="&#x173;" horiz-adv-x="553" d="M355 -149 Q381 -149 415 -132 L438 -199 Q414 -213 385 -219.5 Q356 -226 328 -226 Q278 -226 250 -203.5 Q222 -181 222 -140 Q222 -99 248.5 -62 Q275 -25 323 0 L337 70 Q265 -12 173 -12 Q109 -12 74.5 21.5 Q40 55 40 115 Q40 134 45 162 L119 543 L238 543 L165 170 Q162 157 162 146 Q162 121 177 109.5 Q192 98 222 98 Q255 98 283 111.5 Q311 125 338 153 L414 543 L533 543 L428 0 Q383 -26 353 -59 Q323 -92 323 -121 Q323 -149 355 -149 Z " />
<glyph glyph-name="uring" unicode="&#x16f;" horiz-adv-x="553" d="M533 543 L428 0 L322 0 L334 66 Q267 -12 173 -12 Q109 -12 74.5 21.5 Q40 55 40 115 Q40 134 45 162 L119 543 L238 543 L165 170 Q162 157 162 146 Q162 121 177 109.5 Q192 98 222 98 Q255 98 283 111.5 Q311 125 338 153 L414 543 L533 543 Z M338 602 Q288 602 260.5 624.5 Q233 647 233 689 Q233 755 272 794 Q311 833 384 833 Q434 833 461 810 Q488 787 488 745 Q488 680 449 641 Q410 602 338 602 Z M349 660 Q383 660 398.5 681 Q414 702 414 734 Q414 774 372 774 Q338 774 322.5 753 Q307 732 307 700 Q307 660 349 660 Z " />
<glyph glyph-name="utilde" unicode="&#x169;" horiz-adv-x="553" d="M533 543 L428 0 L322 0 L334 66 Q267 -12 173 -12 Q109 -12 74.5 21.5 Q40 55 40 115 Q40 134 45 162 L119 543 L238 543 L165 170 Q162 157 162 146 Q162 121 177 109.5 Q192 98 222 98 Q255 98 283 111.5 Q311 125 338 153 L414 543 L533 543 Z M168 623 Q183 692 214.5 726.5 Q246 761 292 761 Q319 761 338 751 Q357 741 376 724 Q390 712 398.5 706.5 Q407 701 418 701 Q436 701 451.5 717.5 Q467 734 476 764 L541 755 Q525 685 493 650.5 Q461 616 415 616 Q388 616 370 626 Q352 636 333 654 Q319 666 310.5 671.5 Q302 677 291 677 Q273 677 257.5 659.5 Q242 642 234 614 L168 623 Z " />
<glyph glyph-name="v" unicode="v" horiz-adv-x="509" d="M543 543 L267 0 L138 0 L72 543 L190 543 L225 121 L419 543 L543 543 Z " />
<glyph glyph-name="w" unicode="w" horiz-adv-x="762" d="M794 543 L544 0 L416 0 L406 400 L241 0 L113 0 L74 543 L191 543 L202 125 L372 543 L494 543 L504 127 L672 543 L794 543 Z " />
<glyph glyph-name="wacute" unicode="&#x1e83;" horiz-adv-x="762" d="M794 543 L544 0 L416 0 L406 400 L241 0 L113 0 L74 543 L191 543 L202 125 L372 543 L494 543 L504 127 L672 543 L794 543 Z M381 625 L502 784 L629 784 L628 774 L472 615 L380 615 L381 625 Z " />
<glyph glyph-name="wcircumflex" unicode="&#x175;" horiz-adv-x="762" d="M794 543 L544 0 L416 0 L406 400 L241 0 L113 0 L74 543 L191 543 L202 125 L372 543 L494 543 L504 127 L672 543 L794 543 Z M597 625 L596 615 L518 615 L463 711 L371 615 L289 615 L290 625 L419 784 L529 784 L597 625 Z " />
<glyph glyph-name="wdieresis" unicode="&#x1e85;" horiz-adv-x="762" d="M359 625 Q331 625 315.5 640.5 Q300 656 300 684 Q300 716 319.5 737 Q339 758 371 758 Q399 758 414.5 742 Q430 726 430 698 Q430 665 411 645 Q392 625 359 625 Z M545 625 Q517 625 501.5 640.5 Q486 656 486 684 Q486 716 505.5 737 Q525 758 557 758 Q585 758 600.5 742 Q616 726 616 698 Q616 665 597 645 Q578 625 545 625 Z M794 543 L544 0 L416 0 L406 400 L241 0 L113 0 L74 543 L191 543 L202 125 L372 543 L494 543 L504 127 L672 543 L794 543 Z " />
<glyph glyph-name="wgrave" unicode="&#x1e81;" horiz-adv-x="762" d="M794 543 L544 0 L416 0 L406 400 L241 0 L113 0 L74 543 L191 543 L202 125 L372 543 L494 543 L504 127 L672 543 L794 543 Z M337 774 L338 784 L456 784 L510 625 L509 615 L425 615 L337 774 Z " />
<glyph glyph-name="x" unicode="x" horiz-adv-x="485" d="M308 274 L418 0 L294 0 L226 185 L91 0 L-41 0 L180 280 L75 543 L200 543 L262 368 L393 543 L526 543 L308 274 Z " />
<glyph glyph-name="y" unicode="y" horiz-adv-x="509" d="M543 543 L275 16 Q231 -72 159 -128.5 Q87 -185 -26 -221 L-56 -119 Q18 -94 65 -64.5 Q112 -35 142 5 L75 543 L194 543 L227 128 L419 543 L543 543 Z " />
<glyph glyph-name="yacute" unicode="&#xfd;" horiz-adv-x="509" d="M543 543 L275 16 Q231 -72 159 -128.5 Q87 -185 -26 -221 L-56 -119 Q18 -94 65 -64.5 Q112 -35 142 5 L75 543 L194 543 L227 128 L419 543 L543 543 Z M256 625 L377 784 L504 784 L503 774 L347 615 L255 615 L256 625 Z " />
<glyph glyph-name="ycircumflex" unicode="&#x177;" horiz-adv-x="509" d="M543 543 L275 16 Q231 -72 159 -128.5 Q87 -185 -26 -221 L-56 -119 Q18 -94 65 -64.5 Q112 -35 142 5 L75 543 L194 543 L227 128 L419 543 L543 543 Z M473 625 L472 615 L394 615 L339 711 L247 615 L165 615 L166 625 L295 784 L405 784 L473 625 Z " />
<glyph glyph-name="ydieresis" unicode="&#xff;" horiz-adv-x="509" d="M234 625 Q206 625 190.5 640.5 Q175 656 175 684 Q175 716 194.5 737 Q214 758 246 758 Q274 758 289.5 742 Q305 726 305 698 Q305 665 286 645 Q267 625 234 625 Z M420 625 Q392 625 376.5 640.5 Q361 656 361 684 Q361 716 380.5 737 Q400 758 432 758 Q460 758 475.5 742 Q491 726 491 698 Q491 665 472 645 Q453 625 420 625 Z M543 543 L275 16 Q231 -72 159 -128.5 Q87 -185 -26 -221 L-56 -119 Q18 -94 65 -64.5 Q112 -35 142 5 L75 543 L194 543 L227 128 L419 543 L543 543 Z " />
<glyph glyph-name="uni1E8F" unicode="&#x1e8f;" horiz-adv-x="509" d="M543 543 L275 16 Q231 -72 159 -128.5 Q87 -185 -26 -221 L-56 -119 Q18 -94 65 -64.5 Q112 -35 142 5 L75 543 L194 543 L227 128 L419 543 L543 543 Z M326 621 Q295 621 278.5 637 Q262 653 262 684 Q262 719 282.5 741 Q303 763 340 763 Q371 763 387.5 746.5 Q404 730 404 699 Q404 664 383.5 642.5 Q363 621 326 621 Z " />
<glyph glyph-name="uni1EF5" unicode="&#x1ef5;" horiz-adv-x="509" d="M543 543 L275 16 Q231 -72 159 -128.5 Q87 -185 -26 -221 L-56 -119 Q18 -94 65 -64.5 Q112 -35 142 5 L75 543 L194 543 L227 128 L419 543 L543 543 Z M298 -220 Q267 -220 250 -203.5 Q233 -187 233 -156 Q233 -121 254 -99 Q275 -77 311 -77 Q342 -77 358.5 -93.5 Q375 -110 375 -141 Q375 -176 354.5 -198 Q334 -220 298 -220 Z " />
<glyph glyph-name="ygrave" unicode="&#x1ef3;" horiz-adv-x="509" d="M543 543 L275 16 Q231 -72 159 -128.5 Q87 -185 -26 -221 L-56 -119 Q18 -94 65 -64.5 Q112 -35 142 5 L75 543 L194 543 L227 128 L419 543 L543 543 Z M212 774 L213 784 L331 784 L385 625 L384 615 L300 615 L212 774 Z " />
<glyph glyph-name="uni1EF7" unicode="&#x1ef7;" horiz-adv-x="509" d="M543 543 L275 16 Q231 -72 159 -128.5 Q87 -185 -26 -221 L-56 -119 Q18 -94 65 -64.5 Q112 -35 142 5 L75 543 L194 543 L227 128 L419 543 L543 543 Z M280 617 L280 628 Q280 657 292 673 Q304 689 327 706 Q339 713 344.5 719 Q350 725 350 732 Q350 744 331 744 Q307 744 270 727 L249 785 Q296 812 355 812 Q446 812 446 741 Q446 713 433 698.5 Q420 684 395 668 Q375 656 365.5 646.5 Q356 637 356 620 L356 612 L280 617 Z " />
<glyph glyph-name="uni1EF9" unicode="&#x1ef9;" horiz-adv-x="509" d="M543 543 L275 16 Q231 -72 159 -128.5 Q87 -185 -26 -221 L-56 -119 Q18 -94 65 -64.5 Q112 -35 142 5 L75 543 L194 543 L227 128 L419 543 L543 543 Z M146 623 Q161 692 192.5 726.5 Q224 761 270 761 Q297 761 316 751 Q335 741 354 724 Q368 712 376.5 706.5 Q385 701 396 701 Q414 701 429.5 717.5 Q445 734 454 764 L519 755 Q503 685 471 650.5 Q439 616 393 616 Q366 616 348 626 Q330 636 311 654 Q297 666 288.5 671.5 Q280 677 269 677 Q251 677 235.5 659.5 Q220 642 212 614 L146 623 Z " />
<glyph glyph-name="z" unicode="z" horiz-adv-x="445" d="M446 444 L128 99 L383 99 L364 0 L-26 0 L-8 99 L311 444 L70 444 L90 543 L464 543 L446 444 Z " />
<glyph glyph-name="zacute" unicode="&#x17a;" horiz-adv-x="445" d="M446 444 L128 99 L383 99 L364 0 L-26 0 L-8 99 L311 444 L70 444 L90 543 L464 543 L446 444 Z M224 625 L345 784 L472 784 L471 774 L315 615 L223 615 L224 625 Z " />
<glyph glyph-name="zcaron" unicode="&#x17e;" horiz-adv-x="445" d="M446 444 L128 99 L383 99 L364 0 L-26 0 L-8 99 L311 444 L70 444 L90 543 L464 543 L446 444 Z M473 784 L472 774 L344 615 L233 615 L165 774 L166 784 L244 784 L299 688 L391 784 L473 784 Z " />
<glyph glyph-name="zdotaccent" unicode="&#x17c;" horiz-adv-x="445" d="M446 444 L128 99 L383 99 L364 0 L-26 0 L-8 99 L311 444 L70 444 L90 543 L464 543 L446 444 Z M294 621 Q263 621 246.5 637 Q230 653 230 684 Q230 719 250.5 741 Q271 763 308 763 Q339 763 355.5 746.5 Q372 730 372 699 Q372 664 351.5 642.5 Q331 621 294 621 Z " />
<glyph glyph-name="uni1E93" unicode="&#x1e93;" horiz-adv-x="445" d="M446 444 L128 99 L383 99 L364 0 L-26 0 L-8 99 L311 444 L70 444 L90 543 L464 543 L446 444 Z M134 -220 Q103 -220 86 -203.5 Q69 -187 69 -156 Q69 -121 90 -99 Q111 -77 147 -77 Q178 -77 194.5 -93.5 Q211 -110 211 -141 Q211 -176 190.5 -198 Q170 -220 134 -220 Z " />
<glyph glyph-name="fi" unicode="&#xfb01;" horiz-adv-x="616" d="M118 442 L37 442 L57 543 L138 543 L149 597 Q167 688 227.5 736 Q288 784 384 784 Q411 784 447 778 L427 676 Q407 680 380 680 Q333 680 303.5 656 Q274 632 266 588 L257 543 L382 543 L363 442 L237 442 L152 0 L33 0 L118 442 Z M475 543 L594 543 L488 0 L369 0 L475 543 Z M555 621 Q524 621 507.5 637 Q491 653 491 684 Q491 719 511.5 741 Q532 763 569 763 Q600 763 616.5 746.5 Q633 730 633 699 Q633 664 612.5 642.5 Q592 621 555 621 Z " />
<glyph glyph-name="fl" unicode="&#xfb02;" horiz-adv-x="655" d="M118 442 L37 442 L57 543 L138 543 L149 597 Q167 688 227.5 736 Q288 784 384 784 Q411 784 447 778 L427 676 Q407 680 380 680 Q333 680 303.5 656 Q274 632 266 588 L257 543 L382 543 L363 442 L237 442 L152 0 L33 0 L118 442 Z M510 -6 Q450 -6 419.5 19.5 Q389 45 389 95 Q389 115 393 132 L518 770 L637 770 L516 148 Q513 135 513 124 Q513 110 520.5 104.5 Q528 99 546 99 Q565 99 583 102 L580 3 Q547 -6 510 -6 Z " />
<glyph glyph-name="ordfeminine" unicode="&#xaa;" horiz-adv-x="517" d="M340 729 Q411 729 450 700.5 Q489 672 489 622 Q489 606 487 597 L436 322 Q399 304 352.5 295 Q306 286 260 286 Q97 286 97 408 Q97 492 170 527.5 Q243 563 379 561 L384 587 Q386 599 386 603 Q386 624 371 632 Q356 640 324 640 Q269 640 202 615 L183 695 Q220 712 261 720.5 Q302 729 340 729 Z M197 409 Q197 389 211 379.5 Q225 370 261 370 Q308 370 345 383 L366 494 Q287 495 242 473.5 Q197 452 197 409 Z M81 194 L399 194 L383 111 L65 111 L81 194 Z " />
<glyph glyph-name="ordmasculine" unicode="&#xba;" horiz-adv-x="503" d="M259 285 Q100 285 100 454 Q100 529 127.5 592 Q155 655 208.5 692.5 Q262 730 337 730 Q495 730 495 564 Q495 492 469 428 Q443 364 390 324.5 Q337 285 259 285 Z M263 372 Q301 372 331 398.5 Q361 425 377.5 468.5 Q394 512 394 562 Q394 604 379.5 623.5 Q365 643 332 643 Q294 643 264 616.5 Q234 590 217.5 546.5 Q201 503 201 454 Q201 412 216 392 Q231 372 263 372 Z M77 194 L396 194 L379 111 L61 111 L77 194 Z " />
<glyph glyph-name="uni207F" unicode="&#x207f;" horiz-adv-x="508" d="M393 733 Q443 733 470.5 708.5 Q498 684 498 639 Q498 628 494 604 L438 315 L338 315 L391 588 Q393 598 393 603 Q393 645 337 645 Q295 645 250 616 L192 315 L92 315 L171 724 L263 724 L253 673 Q287 703 321 718 Q355 733 393 733 Z " />
<glyph glyph-name="pi" unicode="&#x3c0;" horiz-adv-x="641" d="M473 154 Q471 138 471 134 Q471 101 507 101 Q524 101 539 105 L539 2 Q503 -7 469 -7 Q408 -7 377.5 19.5 Q347 46 347 96 Q347 114 352 139 L410 443 L308 443 Q276 291 240 186.5 Q204 82 153 -4 L20 4 Q80 97 117 196.5 Q154 296 185 443 L66 443 L85 543 L666 543 L647 443 L529 443 L473 154 Z " />
<glyph glyph-name="zero" unicode="0" horiz-adv-x="599" d="M246 -12 Q155 -12 106.5 43.5 Q58 99 58 204 Q58 341 93 462.5 Q128 584 202.5 660 Q277 736 388 736 Q479 736 528 680.5 Q577 625 577 520 Q577 383 541.5 261.5 Q506 140 431.5 64 Q357 -12 246 -12 Z M264 94 Q326 94 370 160 Q414 226 435.5 322.5 Q457 419 457 508 Q457 571 435.5 600.5 Q414 630 370 630 Q308 630 264.5 563.5 Q221 497 199.5 400.5 Q178 304 178 215 Q178 153 199 123.5 Q220 94 264 94 Z " />
<glyph glyph-name="one" unicode="1" horiz-adv-x="445" d="M413 724 L272 0 L152 0 L269 601 L110 546 L95 644 L308 724 L413 724 Z " />
<glyph glyph-name="two" unicode="2" horiz-adv-x="510" d="M136 103 L432 103 L411 0 L-25 0 L-6 104 L280 389 Q337 445 365 483 Q393 521 393 560 Q393 592 371.5 609.5 Q350 627 310 627 Q271 627 224.5 611.5 Q178 596 138 570 L95 666 Q143 698 206.5 717 Q270 736 328 736 Q415 736 464.5 693 Q514 650 514 574 Q514 506 474 444 Q434 382 361 313 L136 103 Z " />
<glyph glyph-name="three" unicode="3" horiz-adv-x="538" d="M530 621 L337 446 Q405 434 441.5 388 Q478 342 478 267 Q478 191 440 127 Q402 63 335.5 25.5 Q269 -12 187 -12 Q128 -12 71.5 6.5 Q15 25 -19 55 L37 146 Q74 122 115.5 109.5 Q157 97 192 97 Q241 97 278.5 120.5 Q316 144 336 182 Q356 220 356 263 Q356 351 265 351 Q237 351 199 342 L160 402 L397 621 L106 621 L126 724 L548 724 L530 621 Z " />
<glyph glyph-name="four" unicode="4" horiz-adv-x="556" d="M431 245 L514 245 L494 143 L411 143 L384 0 L267 0 L294 143 L-8 143 L11 245 L353 724 L524 724 L431 245 Z M386 614 L136 245 L315 245 L386 614 Z " />
<glyph glyph-name="five" unicode="5" horiz-adv-x="530" d="M253 621 L210 456 Q249 467 288 467 Q377 467 426.5 417.5 Q476 368 476 278 Q476 200 439 133.5 Q402 67 335 27.5 Q268 -12 184 -12 Q126 -12 72.5 5.5 Q19 23 -12 51 L43 142 Q78 120 115.5 108.5 Q153 97 187 97 Q238 97 275.5 121.5 Q313 146 333 186 Q353 226 353 270 Q353 359 265 359 Q207 359 147 328 L80 369 L166 724 L536 724 L515 621 L253 621 Z " />
<glyph glyph-name="six" unicode="6" horiz-adv-x="546" d="M335 462 Q418 462 464 413.5 Q510 365 510 277 Q510 200 475 133.5 Q440 67 376 27.5 Q312 -12 230 -12 Q135 -12 82.5 41 Q30 94 30 190 Q30 283 80.5 376 Q131 469 230 566 L405 737 L487 663 L315 494 L276 455 Q309 462 335 462 Z M236 91 Q283 91 318 117.5 Q353 144 371.5 186.5 Q390 229 390 273 Q390 368 299 368 Q258 368 205 348 Q150 272 150 189 Q150 91 236 91 Z " />
<glyph glyph-name="seven" unicode="7" horiz-adv-x="472" d="M537 724 L517 620 L128 -10 L22 37 L390 620 L74 620 L94 724 L537 724 Z " />
<glyph glyph-name="eight" unicode="8" horiz-adv-x="556" d="M229 -12 Q129 -12 73 32.5 Q17 77 17 156 Q17 233 68 292.5 Q119 352 199 380 Q159 397 136.5 434 Q114 471 114 522 Q114 584 146.5 632.5 Q179 681 235.5 708.5 Q292 736 361 736 Q450 736 499.5 695.5 Q549 655 549 581 Q549 512 507 455.5 Q465 399 397 377 Q448 360 476.5 318.5 Q505 277 505 218 Q505 151 468.5 98.5 Q432 46 369 17 Q306 -12 229 -12 Z M303 422 Q358 440 394 480 Q430 520 430 569 Q430 637 358 637 Q321 637 291.5 619.5 Q262 602 245.5 573.5 Q229 545 229 514 Q229 447 303 422 Z M232 88 Q276 88 312 106.5 Q348 125 368.5 156 Q389 187 389 222 Q389 298 293 335 Q222 312 179.5 265.5 Q137 219 137 165 Q137 88 232 88 Z " />
<glyph glyph-name="nine" unicode="9" horiz-adv-x="544" d="M350 736 Q444 736 497 683 Q550 630 550 534 Q550 441 499 348 Q448 255 349 159 L175 -13 L92 61 L264 230 Q264 230 303 269 Q276 262 244 262 Q161 262 115 310.5 Q69 359 69 447 Q69 524 104 590.5 Q139 657 203.5 696.5 Q268 736 350 736 Z M374 376 Q429 454 429 535 Q429 633 343 633 Q296 633 261 606.5 Q226 580 207.5 537.5 Q189 495 189 451 Q189 356 281 356 Q322 356 374 376 Z " />
<glyph glyph-name="fraction" unicode="&#x2044;" horiz-adv-x="263" d="M-152 21 L378 746 L451 703 L-78 -21 L-152 21 Z " />
<glyph glyph-name="onehalf" unicode="&#xbd;" horiz-adv-x="898" d="M714 703 L185 -21 L111 21 L641 746 L714 703 Z M203 628 L109 599 L97 675 L234 722 L315 722 L229 278 L135 278 L203 628 Z M638 77 L824 77 L809 1 L505 1 L518 77 L706 238 Q774 296 774 335 Q774 369 727 369 Q679 369 608 330 L577 405 Q615 429 658 441 Q701 453 742 453 Q804 453 837.5 426 Q871 399 871 349 Q871 302 843 261.5 Q815 221 766 181 L638 77 Z " />
<glyph glyph-name="uni2153" unicode="&#x2153;" horiz-adv-x="912" d="M714 703 L185 -21 L111 21 L641 746 L714 703 Z M203 628 L109 599 L97 675 L234 722 L315 722 L229 278 L135 278 L203 628 Z M870 368 L752 276 Q798 267 821.5 237.5 Q845 208 845 160 Q845 85 791.5 39.5 Q738 -6 650 -6 Q608 -6 569.5 6.5 Q531 19 504 40 L546 107 Q596 76 647 76 Q692 76 721 99.5 Q750 123 750 157 Q750 203 695 203 Q673 203 648 196 L616 246 L769 369 L583 369 L598 445 L885 445 L870 368 Z " />
<glyph glyph-name="uni2154" unicode="&#x2154;" horiz-adv-x="1022" d="M824 703 L295 -21 L221 21 L751 746 L824 703 Z M338 278 L34 278 L47 354 L235 515 Q303 573 303 612 Q303 646 256 646 Q208 646 137 607 L106 682 Q144 706 187 718 Q230 730 271 730 Q333 730 366.5 703 Q400 676 400 626 Q400 579 372 538.5 Q344 498 295 458 L167 354 L353 354 L338 278 Z M980 368 L862 276 Q908 267 931.5 237.5 Q955 208 955 160 Q955 85 901.5 39.5 Q848 -6 760 -6 Q718 -6 679.5 6.5 Q641 19 614 40 L656 107 Q706 76 757 76 Q802 76 831 99.5 Q860 123 860 157 Q860 203 805 203 Q783 203 758 196 L726 246 L879 369 L693 369 L708 445 L995 445 L980 368 Z " />
<glyph glyph-name="onequarter" unicode="&#xbc;" horiz-adv-x="881" d="M714 703 L185 -21 L111 21 L641 746 L714 703 Z M203 628 L109 599 L97 675 L234 722 L315 722 L229 278 L135 278 L203 628 Z M776 168 L830 168 L815 90 L761 90 L744 1 L652 1 L669 90 L466 90 L480 168 L695 445 L830 445 L776 168 Z M685 168 L724 367 L575 168 L685 168 Z " />
<glyph glyph-name="threequarters" unicode="&#xbe;" horiz-adv-x="984" d="M817 703 L288 -21 L214 21 L744 746 L817 703 Z M373 437 Q373 362 319.5 316.5 Q266 271 178 271 Q136 271 97.5 283.5 Q59 296 32 317 L74 384 Q124 353 175 353 Q220 353 249 376.5 Q278 400 278 434 Q278 480 223 480 Q200 480 176 473 L144 523 L297 646 L111 646 L126 722 L413 722 L398 645 L280 553 Q326 544 349.5 514.5 Q373 485 373 437 Z M879 168 L933 168 L918 90 L864 90 L847 1 L755 1 L772 90 L569 90 L583 168 L798 445 L933 445 L879 168 Z M788 168 L827 367 L678 168 L788 168 Z " />
<glyph glyph-name="oneeighth" unicode="&#x215b;" horiz-adv-x="896" d="M714 703 L185 -21 L111 21 L641 746 L714 703 Z M203 628 L109 599 L97 675 L234 722 L315 722 L229 278 L135 278 L203 628 Z M766 231 Q799 222 819.5 195 Q840 168 840 130 Q840 70 789.5 32 Q739 -6 654 -6 Q582 -6 542 23 Q502 52 502 104 Q502 150 533 184.5 Q564 219 620 235 Q593 245 576.5 268 Q560 291 560 325 Q560 384 607.5 418 Q655 452 729 452 Q793 452 829 425.5 Q865 399 865 351 Q865 309 838.5 276.5 Q812 244 766 231 Z M695 265 Q731 275 751.5 295 Q772 315 772 340 Q772 359 760 368.5 Q748 378 725 378 Q692 378 671 360.5 Q650 343 650 316 Q650 279 695 265 Z M657 71 Q698 71 723.5 90 Q749 109 749 140 Q749 162 734.5 176.5 Q720 191 690 201 Q646 189 621.5 166 Q597 143 597 115 Q597 71 657 71 Z " />
<glyph glyph-name="threeeighths" unicode="&#x215c;" horiz-adv-x="999" d="M817 703 L288 -21 L214 21 L744 746 L817 703 Z M373 437 Q373 362 319.5 316.5 Q266 271 178 271 Q136 271 97.5 283.5 Q59 296 32 317 L74 384 Q124 353 175 353 Q220 353 249 376.5 Q278 400 278 434 Q278 480 223 480 Q200 480 176 473 L144 523 L297 646 L111 646 L126 722 L413 722 L398 645 L280 553 Q326 544 349.5 514.5 Q373 485 373 437 Z M869 231 Q902 222 922.5 195 Q943 168 943 130 Q943 70 892.5 32 Q842 -6 757 -6 Q685 -6 645 23 Q605 52 605 104 Q605 150 636 184.5 Q667 219 723 235 Q696 245 679.5 268 Q663 291 663 325 Q663 384 710.5 418 Q758 452 832 452 Q896 452 932 425.5 Q968 399 968 351 Q968 309 941.5 276.5 Q915 244 869 231 Z M798 265 Q834 275 854.5 295 Q875 315 875 340 Q875 359 863 368.5 Q851 378 828 378 Q795 378 774 360.5 Q753 343 753 316 Q753 279 798 265 Z M760 71 Q801 71 826.5 90 Q852 109 852 140 Q852 162 837.5 176.5 Q823 191 793 201 Q749 189 724.5 166 Q700 143 700 115 Q700 71 760 71 Z " />
<glyph glyph-name="fiveeighths" unicode="&#x215d;" horiz-adv-x="998" d="M815 703 L286 -21 L212 21 L742 746 L815 703 Z M378 446 Q378 396 353.5 356 Q329 316 284.5 293.5 Q240 271 182 271 Q140 271 99.5 283 Q59 295 37 314 L80 382 Q103 368 129.5 361 Q156 354 179 354 Q229 354 255.5 379.5 Q282 405 282 438 Q282 461 266.5 473.5 Q251 486 222 486 Q189 486 149 469 L94 503 L149 722 L409 722 L393 646 L216 646 L194 564 Q219 570 248 570 Q310 570 344 537.5 Q378 505 378 446 Z M868 231 Q901 222 921.5 195 Q942 168 942 130 Q942 70 891.5 32 Q841 -6 756 -6 Q684 -6 644 23 Q604 52 604 104 Q604 150 635 184.5 Q666 219 722 235 Q695 245 678.5 268 Q662 291 662 325 Q662 384 709.5 418 Q757 452 831 452 Q895 452 931 425.5 Q967 399 967 351 Q967 309 940.5 276.5 Q914 244 868 231 Z M797 265 Q833 275 853.5 295 Q874 315 874 340 Q874 359 862 368.5 Q850 378 827 378 Q794 378 773 360.5 Q752 343 752 316 Q752 279 797 265 Z M759 71 Q800 71 825.5 90 Q851 109 851 140 Q851 162 836.5 176.5 Q822 191 792 201 Q748 189 723.5 166 Q699 143 699 115 Q699 71 759 71 Z " />
<glyph glyph-name="seveneighths" unicode="&#x215e;" horiz-adv-x="907" d="M724 703 L195 -21 L121 21 L651 746 L724 703 Z M63 306 L289 640 L92 640 L108 722 L409 722 L393 640 L145 270 L63 306 Z M777 231 Q810 222 830.5 195 Q851 168 851 130 Q851 70 800.5 32 Q750 -6 665 -6 Q593 -6 553 23 Q513 52 513 104 Q513 150 544 184.5 Q575 219 631 235 Q604 245 587.5 268 Q571 291 571 325 Q571 384 618.5 418 Q666 452 740 452 Q804 452 840 425.5 Q876 399 876 351 Q876 309 849.5 276.5 Q823 244 777 231 Z M706 265 Q742 275 762.5 295 Q783 315 783 340 Q783 359 771 368.5 Q759 378 736 378 Q703 378 682 360.5 Q661 343 661 316 Q661 279 706 265 Z M668 71 Q709 71 734.5 90 Q760 109 760 140 Q760 162 745.5 176.5 Q731 191 701 201 Q657 189 632.5 166 Q608 143 608 115 Q608 71 668 71 Z " />
<glyph glyph-name="uni2080" unicode="&#x2080;" horiz-adv-x="437" d="M151 -79 Q87 -79 52.5 -41.5 Q18 -4 18 66 Q18 149 40.5 219.5 Q63 290 112.5 334.5 Q162 379 239 379 Q303 379 337.5 341.5 Q372 304 372 234 Q372 151 349.5 80 Q327 9 277.5 -35 Q228 -79 151 -79 Z M164 0 Q203 0 228 35.5 Q253 71 264.5 123 Q276 175 276 224 Q276 262 263.5 280.5 Q251 299 225 299 Q187 299 161.5 263 Q136 227 124.5 175 Q113 123 113 73 Q113 36 125.5 18 Q138 0 164 0 Z " />
<glyph glyph-name="uni2081" unicode="&#x2081;" horiz-adv-x="303" d="M247 372 L161 -72 L67 -72 L135 279 L41 249 L29 325 L166 372 L247 372 Z " />
<glyph glyph-name="uni2082" unicode="&#x2082;" horiz-adv-x="372" d="M97 4 L284 4 L269 -72 L-35 -72 L-22 4 L166 165 Q234 223 234 262 Q234 296 187 296 Q139 296 68 257 L37 332 Q75 356 118 368 Q161 380 202 380 Q264 380 297.5 353 Q331 326 331 276 Q331 229 303 188.5 Q275 148 226 108 L97 4 Z " />
<glyph glyph-name="uni2083" unicode="&#x2083;" horiz-adv-x="387" d="M330 295 L212 203 Q257 194 281 164.5 Q305 135 305 87 Q305 12 251.5 -33.5 Q198 -79 110 -79 Q68 -79 29.5 -66.5 Q-9 -54 -36 -33 L6 34 Q56 3 107 3 Q152 3 181 26.5 Q210 50 210 84 Q210 130 155 130 Q133 130 108 123 L76 173 L228 296 L43 296 L58 372 L345 372 L330 295 Z " />
<glyph glyph-name="uni2084" unicode="&#x2084;" horiz-adv-x="405" d="M285 95 L339 95 L324 17 L270 17 L253 -72 L161 -72 L178 17 L-25 17 L-11 95 L204 372 L339 372 L285 95 Z M194 95 L232 293 L84 95 L194 95 Z " />
<glyph glyph-name="uni2085" unicode="&#x2085;" horiz-adv-x="384" d="M147 296 L126 213 Q150 220 179 220 Q241 220 275 187.5 Q309 155 309 96 Q309 46 284.5 6 Q260 -34 215.5 -56.5 Q171 -79 113 -79 Q71 -79 30.5 -67 Q-10 -55 -32 -36 L11 32 Q34 18 60.5 11 Q87 4 110 4 Q160 4 186.5 29.5 Q213 55 213 88 Q213 111 197.5 123.5 Q182 136 153 136 Q120 136 80 119 L25 153 L80 372 L340 372 L324 296 L147 296 Z " />
<glyph glyph-name="uni2086" unicode="&#x2086;" horiz-adv-x="387" d="M194 215 Q256 215 289.5 183 Q323 151 323 92 Q323 43 300 4.5 Q277 -34 234.5 -56.5 Q192 -79 135 -79 Q65 -79 27 -45.5 Q-11 -12 -11 50 Q-11 108 24.5 167.5 Q60 227 134 296 L230 385 L295 326 L210 248 Q185 225 172 214 L194 215 Z M140 -1 Q180 -1 203.5 27.5 Q227 56 227 92 Q227 145 170 145 Q145 145 115 134 Q85 94 85 53 Q85 27 99 13 Q113 -1 140 -1 Z " />
<glyph glyph-name="uni2087" unicode="&#x2087;" horiz-adv-x="343" d="M341 372 L325 290 L77 -80 L-5 -44 L221 290 L24 290 L40 372 L341 372 Z " />
<glyph glyph-name="uni2088" unicode="&#x2088;" horiz-adv-x="390" d="M134 -79 Q62 -79 22 -50 Q-18 -21 -18 31 Q-18 77 13 111.5 Q44 146 100 162 Q73 172 56.5 195 Q40 218 40 252 Q40 311 87.5 345 Q135 379 209 379 Q273 379 309 352.5 Q345 326 345 278 Q345 236 318.5 203.5 Q292 171 246 158 Q279 149 299.5 122 Q320 95 320 57 Q320 -3 269.5 -41 Q219 -79 134 -79 Z M175 192 Q211 202 231.5 222 Q252 242 252 267 Q252 286 240 295.5 Q228 305 205 305 Q172 305 151 287.5 Q130 270 130 243 Q130 206 175 192 Z M137 -2 Q178 -2 203.5 17 Q229 36 229 67 Q229 89 214.5 103.5 Q200 118 170 128 Q126 116 101.5 93 Q77 70 77 42 Q77 -2 137 -2 Z " />
<glyph glyph-name="uni2089" unicode="&#x2089;" horiz-adv-x="384" d="M201 379 Q271 379 309 345.5 Q347 312 347 250 Q347 192 312 132 Q277 72 202 4 L106 -84 L41 -26 L126 53 Q150 75 163 86 Q156 85 142 85 Q80 85 46.5 117 Q13 149 13 208 Q13 257 36 295.5 Q59 334 101.5 356.5 Q144 379 201 379 Z M221 166 Q251 206 251 247 Q251 273 237 287 Q223 301 196 301 Q156 301 132.5 272.5 Q109 244 109 208 Q109 155 166 155 Q191 155 221 166 Z " />
<glyph glyph-name="uni2070" unicode="&#x2070;" horiz-adv-x="437" d="M229 317 Q165 317 130.5 354.5 Q96 392 96 462 Q96 545 118.5 615.5 Q141 686 190.5 730.5 Q240 775 317 775 Q381 775 415.5 737.5 Q450 700 450 630 Q450 547 427.5 476 Q405 405 355.5 361 Q306 317 229 317 Z M242 396 Q281 396 306 431.5 Q331 467 342.5 519 Q354 571 354 620 Q354 658 341.5 676.5 Q329 695 303 695 Q265 695 239.5 659 Q214 623 202.5 571 Q191 519 191 469 Q191 432 203.5 414 Q216 396 242 396 Z " />
<glyph glyph-name="uni00B9" unicode="&#xb9;" horiz-adv-x="303" d="M324 768 L238 324 L144 324 L212 675 L118 645 L106 721 L243 768 L324 768 Z " />
</font>
</svg>
